<?xml version="1.0" encoding="us-ascii" standalone="no"?><svg xmlns="http://www.w3.org/2000/svg" xmlns:xlink="http://www.w3.org/1999/xlink" contentStyleType="text/css" height="601px" preserveAspectRatio="none" style="width:329px;height:601px;background:#FFFFFF;" version="1.1" viewBox="0 0 329 601" width="329.5px" zoomAndPan="magnify"><defs/><g><text fill="#000000" font-family="sans-serif" font-size="7" font-weight="bold" lengthAdjust="spacing" textLength="63.5" x="129.5" y="12.5537">Use Case Diagram</text><!--cluster Registered Users--><g id="cluster_Registered Users"><path d="M4.25,227.3174 L66.25,227.3174 A1.875,1.875 0 0 1 67.5,228.5674 L71,239.6279 L84.25,239.6279 A1.25,1.25 0 0 1 85.5,240.8779 L85.5,520.5674 A1.25,1.25 0 0 1 84.25,521.8174 L4.25,521.8174 A1.25,1.25 0 0 1 3,520.5674 L3,228.5674 A1.25,1.25 0 0 1 4.25,227.3174 " fill="none" style="stroke:#000000;stroke-width:0.75;"/><line style="stroke:#000000;stroke-width:0.75;" x1="3" x2="71" y1="239.6279" y2="239.6279"/><text fill="#000000" font-family="sans-serif" font-size="7" font-weight="bold" lengthAdjust="spacing" textLength="61.5" x="5" y="235.8711">Registered Users</text></g><!--cluster Application--><g id="cluster_Application"><path d="M100.75,22.8174 L140.25,22.8174 A1.875,1.875 0 0 1 141.5,24.0674 L145,35.1279 L324.75,35.1279 A1.25,1.25 0 0 1 326,36.3779 L326,596.5674 A1.25,1.25 0 0 1 324.75,597.8174 L100.75,597.8174 A1.25,1.25 0 0 1 99.5,596.5674 L99.5,24.0674 A1.25,1.25 0 0 1 100.75,22.8174 " fill="none" style="stroke:#000000;stroke-width:0.75;"/><line style="stroke:#000000;stroke-width:0.75;" x1="99.5" x2="145" y1="35.1279" y2="35.1279"/><text fill="#000000" font-family="sans-serif" font-size="7" font-weight="bold" lengthAdjust="spacing" textLength="39" x="101.5" y="31.3711">Application</text></g><!--entity Cl--><g id="elem_Cl"><ellipse cx="44.25" cy="250.3174" fill="#F1F1F1" rx="4" ry="4" style="stroke:#181818;stroke-width:0.25;"/><path d="M44.25,254.3174 L44.25,267.8174 M37.75,258.3174 L50.75,258.3174 M44.25,267.8174 L37.75,275.3174 M44.25,267.8174 L50.75,275.3174 " fill="none" style="stroke:#181818;stroke-width:0.25;"/><text fill="#000000" font-family="sans-serif" font-size="7" lengthAdjust="spacing" textLength="18" x="35.25" y="283.6211">Client</text></g><!--entity Ag--><g id="elem_Ag"><ellipse cx="44.25" cy="307.3174" fill="#F1F1F1" rx="4" ry="4" style="stroke:#181818;stroke-width:0.25;"/><path d="M44.25,311.3174 L44.25,324.8174 M37.75,315.3174 L50.75,315.3174 M44.25,324.8174 L37.75,332.3174 M44.25,324.8174 L50.75,332.3174 " fill="none" style="stroke:#181818;stroke-width:0.25;"/><text fill="#000000" font-family="sans-serif" font-size="7" lengthAdjust="spacing" textLength="18.5" x="35" y="340.6211">Agent</text></g><!--entity Admin--><g id="elem_Admin"><ellipse cx="44.25" cy="364.3174" fill="#F1F1F1" rx="4" ry="4" style="stroke:#181818;stroke-width:0.25;"/><path d="M44.25,368.3174 L44.25,381.8174 M37.75,372.3174 L50.75,372.3174 M44.25,381.8174 L37.75,389.3174 M44.25,381.8174 L50.75,389.3174 " fill="none" style="stroke:#181818;stroke-width:0.25;"/><text fill="#000000" font-family="sans-serif" font-size="7" lengthAdjust="spacing" textLength="66.5" x="11" y="397.6211">System Administrator</text></g><!--entity O--><g id="elem_O"><ellipse cx="44.25" cy="421.3174" fill="#F1F1F1" rx="4" ry="4" style="stroke:#181818;stroke-width:0.25;"/><path d="M44.25,425.3174 L44.25,438.8174 M37.75,429.3174 L50.75,429.3174 M44.25,438.8174 L37.75,446.3174 M44.25,438.8174 L50.75,446.3174 " fill="none" style="stroke:#181818;stroke-width:0.25;"/><text fill="#000000" font-family="sans-serif" font-size="7" lengthAdjust="spacing" textLength="20.5" x="34" y="454.6211">Owner</text></g><!--entity Manager--><g id="elem_Manager"><ellipse cx="44.25" cy="478.3174" fill="#F1F1F1" rx="4" ry="4" style="stroke:#181818;stroke-width:0.25;"/><path d="M44.25,482.3174 L44.25,495.8174 M37.75,486.3174 L50.75,486.3174 M44.25,495.8174 L37.75,503.3174 M44.25,495.8174 L50.75,503.3174 " fill="none" style="stroke:#181818;stroke-width:0.25;"/><text fill="#000000" font-family="sans-serif" font-size="7" lengthAdjust="spacing" textLength="55" x="16.75" y="511.6211">Network Manager</text></g><g id="elem_Use1"><ellipse cx="212.6292" cy="53.8932" fill="#F1F1F1" rx="56.8792" ry="12.5758" style="stroke:#181818;stroke-width:0.25;"/><text fill="#000000" font-family="sans-serif" font-size="7" lengthAdjust="spacing" textLength="94.5" x="165.3792" y="55.7917">UC1 - display listed properties</text></g><g id="elem_Use7"><ellipse cx="212.8087" cy="92.2291" fill="#F1F1F1" rx="36.0587" ry="8.4117" style="stroke:#181818;stroke-width:0.25;"/><text fill="#000000" font-family="sans-serif" font-size="7" lengthAdjust="spacing" textLength="43" x="189.8087" y="94.631">UC7 - sign up</text></g><g id="elem_Use9"><ellipse cx="212.8737" cy="132.8921" fill="#F1F1F1" rx="65.6237" ry="14.3247" style="stroke:#181818;stroke-width:0.25;"/><text fill="#000000" font-family="sans-serif" font-size="7" lengthAdjust="spacing" textLength="113.5" x="156.1237" y="134.7906">UC9 - leave a message to the agent</text></g><g id="elem_Use10"><ellipse cx="212.649" cy="182.3472" fill="#F1F1F1" rx="82.899" ry="17.7798" style="stroke:#181818;stroke-width:0.25;"/><text fill="#000000" font-family="sans-serif" font-size="7" lengthAdjust="spacing" textLength="150" x="137.649" y="184.2456">UC10 - place an order to purchase the property</text></g><g id="elem_Use8"><ellipse cx="212.8467" cy="233.7867" fill="#F1F1F1" rx="73.8467" ry="15.9693" style="stroke:#181818;stroke-width:0.25;"/><text fill="#000000" font-family="sans-serif" font-size="7" lengthAdjust="spacing" textLength="131" x="147.3467" y="235.6852">UC8 - see list of property announcements</text></g><g id="elem_Use2"><ellipse cx="212.7463" cy="281.3166" fill="#F1F1F1" rx="63.9963" ry="13.9993" style="stroke:#181818;stroke-width:0.25;"/><text fill="#000000" font-family="sans-serif" font-size="7" lengthAdjust="spacing" textLength="110" x="157.7463" y="283.2151">UC2 - publish sale announcements</text></g><g id="elem_Use11"><ellipse cx="212.8066" cy="328.3287" fill="#F1F1F1" rx="70.3066" ry="15.2613" style="stroke:#181818;stroke-width:0.25;"/><text fill="#000000" font-family="sans-serif" font-size="7" lengthAdjust="spacing" textLength="123.5" x="151.0566" y="330.2271">UC11 - accept/decline purchase orders</text></g><g id="elem_Use3"><ellipse cx="212.7658" cy="373.8705" fill="#F1F1F1" rx="58.0158" ry="12.8032" style="stroke:#181818;stroke-width:0.25;"/><text fill="#000000" font-family="sans-serif" font-size="7" lengthAdjust="spacing" textLength="97" x="164.2658" y="375.769">UC3 - register a new employee</text></g><g id="elem_Use5"><ellipse cx="212.6311" cy="414.3436" fill="#F1F1F1" rx="45.3811" ry="10.2762" style="stroke:#181818;stroke-width:0.25;"/><text fill="#000000" font-family="sans-serif" font-size="7" lengthAdjust="spacing" textLength="68" x="177.1311" y="416.7455">UC5 - register a store</text></g><g id="elem_Use12"><ellipse cx="212.8015" cy="459.4277" fill="#F1F1F1" rx="79.5515" ry="17.1103" style="stroke:#181818;stroke-width:0.25;"/><text fill="#000000" font-family="sans-serif" font-size="7" lengthAdjust="spacing" textLength="143" x="141.3015" y="461.3261">UC12 - import information from legacy system</text></g><g id="elem_Use4"><ellipse cx="212.7773" cy="516.3228" fill="#F1F1F1" rx="105.2773" ry="22.2555" style="stroke:#181818;stroke-width:0.25;"/><text fill="#000000" font-family="sans-serif" font-size="7" lengthAdjust="spacing" textLength="177.5" x="123.0273" y="513.566">UC4 - submit a request for listing a property sale or rent,</text><text fill="#000000" font-family="sans-serif" font-size="7" lengthAdjust="spacing" textLength="99" x="164.2773" y="522.8765">choosing the responsible agent</text></g><g id="elem_Use13"><ellipse cx="212.6689" cy="572.7012" fill="#F1F1F1" rx="77.1689" ry="16.6338" style="stroke:#181818;stroke-width:0.25;"/><text fill="#000000" font-family="sans-serif" font-size="7" lengthAdjust="spacing" textLength="138" x="143.6689" y="574.5996">UC13 - list every employee from every store</text></g><!--entity Unreg--><g id="elem_Unreg"><ellipse cx="44.25" cy="57.8174" fill="#F1F1F1" rx="4" ry="4" style="stroke:#181818;stroke-width:0.25;"/><path d="M44.25,61.8174 L44.25,75.3174 M37.75,65.8174 L50.75,65.8174 M44.25,75.3174 L37.75,82.8174 M44.25,75.3174 L50.75,82.8174 " fill="none" style="stroke:#181818;stroke-width:0.25;"/><text fill="#000000" font-family="sans-serif" font-size="7" lengthAdjust="spacing" textLength="57" x="15.75" y="91.1211">Unregistered User</text></g><!--link Unreg to Use1--><g id="link_Unreg_Use1"><path d="M72.785,70.0524 C96.425,67.3024 130.905,63.2874 159.665,59.9374 " fill="none" id="Unreg-to-Use1" style="stroke:#181818;stroke-width:0.5;"/><polygon fill="#181818" points="162.255,59.6374,157.5561,58.1643,159.7714,59.9229,158.0128,62.1382,162.255,59.6374" style="stroke:#181818;stroke-width:0.5;"/></g><!--link Unreg to Use7--><g id="link_Unreg_Use7"><path d="M72.785,76.4974 C101.59,79.7674 146.49,84.8574 177.525,88.3774 " fill="none" id="Unreg-to-Use7" style="stroke:#181818;stroke-width:0.5;"/><polygon fill="#181818" points="180.11,88.6724,175.8615,86.1823,177.6256,88.3932,175.4148,90.1573,180.11,88.6724" style="stroke:#181818;stroke-width:0.5;"/></g><!--link Cl to Use9--><g id="link_Cl_Use9"><path d="M48.23,245.9374 C53.705,220.8824 66.82,178.3774 95.5,155.8174 C109.585,144.7374 127.525,138.5274 145.095,135.1574 " fill="none" id="Cl-to-Use9" style="stroke:#181818;stroke-width:0.5;"/><polygon fill="#181818" points="147.685,134.6774,142.8951,133.5342,145.2272,135.1347,143.6267,137.4667,147.685,134.6774" style="stroke:#181818;stroke-width:0.5;"/></g><!--link Cl to Use10--><g id="link_Cl_Use10"><path d="M53.275,252.0824 C62.175,238.9224 77.36,219.5274 95.5,208.8174 C108.445,201.1774 123.39,195.7374 138.175,191.8674 " fill="none" id="Cl-to-Use10" style="stroke:#181818;stroke-width:0.5;"/><polygon fill="#181818" points="140.74,191.2124,135.8841,190.3938,138.3185,191.8338,136.8784,194.2682,140.74,191.2124" style="stroke:#181818;stroke-width:0.5;"/></g><!--link Ag to Use8--><g id="link_Ag_Use8"><path d="M53.585,319.7524 C63.96,315.6574 80.86,307.3774 89.5,294.3174 C98.45,280.7874 84.27,270.0224 95.5,258.3174 C106.49,246.8624 121.365,240.0674 136.81,236.1724 " fill="none" id="Ag-to-Use8" style="stroke:#181818;stroke-width:0.5;"/><polygon fill="#181818" points="139.295,235.5724,134.4515,234.6832,136.8647,236.1585,135.3893,238.5717,139.295,235.5724" style="stroke:#181818;stroke-width:0.5;"/></g><!--link Ag to Use2--><g id="link_Ag_Use2"><path d="M53.595,319.1174 C63.62,315.0374 80.505,308.5024 95.5,304.3174 C115.83,298.6474 138.525,293.8374 158.465,290.1074 " fill="none" id="Ag-to-Use2" style="stroke:#181818;stroke-width:0.5;"/><polygon fill="#181818" points="161.13,289.6124,156.3401,288.4692,158.6722,290.0697,157.0717,292.4017,161.13,289.6124" style="stroke:#181818;stroke-width:0.5;"/></g><!--link Ag to Use11--><g id="link_Ag_Use11"><path d="M53.52,323.1074 C69.89,323.6424 106.51,324.8474 140.46,325.9624 " fill="none" id="Ag-to-Use11" style="stroke:#181818;stroke-width:0.5;"/><polygon fill="#181818" points="143.105,326.0474,138.6702,323.9066,140.6062,325.9686,138.5442,327.9046,143.105,326.0474" style="stroke:#181818;stroke-width:0.5;"/></g><!--link Admin to Use3--><g id="link_Admin_Use3"><path d="M77.645,378.6374 C99.01,377.8724 127.49,376.8524 152.75,375.9474 " fill="none" id="Admin-to-Use3" style="stroke:#181818;stroke-width:0.5;"/><polygon fill="#181818" points="155.34,375.8574,150.7689,374.0258,152.8417,375.9502,150.9173,378.023,155.34,375.8574" style="stroke:#181818;stroke-width:0.5;"/></g><!--link Admin to Use5--><g id="link_Admin_Use5"><path d="M77.605,390.5574 C83.525,392.2924 89.67,393.9574 95.5,395.3174 C120.15,401.0574 148.125,405.6774 170.51,408.9224 " fill="none" id="Admin-to-Use5" style="stroke:#181818;stroke-width:0.5;"/><polygon fill="#181818" points="173.075,409.2924,168.9062,406.671,170.6006,408.9358,168.3358,410.6302,173.075,409.2924" style="stroke:#181818;stroke-width:0.5;"/></g><!--link Admin to Use12--><g id="link_Admin_Use12"><path d="M77.635,396.4424 C82.125,399.8624 86.29,403.8174 89.5,408.3174 C96.135,417.6174 87.355,425.3024 95.5,433.3174 C105.89,443.5374 119.36,450.1074 133.44,454.2624 " fill="none" id="Admin-to-Use12" style="stroke:#181818;stroke-width:0.5;"/><polygon fill="#181818" points="135.89,454.9624,132.1101,451.8061,133.4857,454.2775,131.0142,455.653,135.89,454.9624" style="stroke:#181818;stroke-width:0.5;"/></g><!--link O to Use4--><g id="link_O_Use4"><path d="M54.59,440.6274 C64.775,445.0624 80.445,453.3424 89.5,465.3174 C95.1,472.7174 88.835,478.8624 95.5,485.3174 C103.24,492.8124 112.575,498.5524 122.555,502.9324 " fill="none" id="O-to-Use4" style="stroke:#181818;stroke-width:0.5;"/><polygon fill="#181818" points="124.97,503.9574,121.6122,500.3553,122.6696,502.9786,120.0462,504.036,124.97,503.9574" style="stroke:#181818;stroke-width:0.5;"/></g><!--link Manager to Use13--><g id="link_Manager_Use13"><path d="M58.68,513.6024 C67.845,525.1574 80.835,539.0474 95.5,547.3174 C109.525,555.2224 125.775,560.6824 141.61,564.4474 " fill="none" id="Manager-to-Use13" style="stroke:#181818;stroke-width:0.5;"/><polygon fill="#181818" points="144.15,565.0374,140.2175,562.0734,141.7145,564.4731,139.3147,565.9702,144.15,565.0374" style="stroke:#181818;stroke-width:0.5;"/></g><!--SRC=[TLDDYzim4BthLmm-RQ6XSJv8SYa4xxKDjEJMYo9F7B6of4ho1hFqltUa-2Cgz696utapxpsDWWmAuUmHAawVLyaRnrkcy1eW672okGMefKCHfD6CSH6CW-Ai7JRI1tHOHxGhW7j8MSQOvUADDmZ5Zxp85nz3Wqf9r25YAZMaZisGEJRZb9yzWLiurgtKrCTnogP1AJDMdUvwc7yQKzynt8rxWszS4u_7po5cVsP-HskL53mg-s2THn4jACvL2GlIxAtYFQWee0RhZ4KN9FhKx8Nab9-UCJl2UDbewEnKiSig3bIXaByZS6ZH-yY0B0utIaJj4-oGmSebuOYAe38DnjNe8insJjnYISGFxFgPspBhiO_a49COCDUfdZfgqsc1BSsVbUqpy2hExow4lO7d2ly3MkMieuTS2BJXIur2IOqpvIJYoSZSoJKXn-qYgpJU0LkhJ8yuGTOPOfiZFEt0NBhDUKKrihN61P3wQboRhX-kphHqEmqNFVYqTZEzNDacUjbTMadBIbD_TqYUKgDahjGDPITxartqov5Jd-6N1d4pniUYU6iElJNQoulwTmCsEUVeIBewV4VNJsuyI3zokUQI_A4zJ-yH5eklyVML-N77AZN6XwUuNBBZLBH_YbTFSLcoz0J7ype_RlDZkMAdCTwmuHrEFzViBm00]--></g></svg>