<?xml version="1.0" encoding="us-ascii" standalone="no"?><svg xmlns="http://www.w3.org/2000/svg" xmlns:xlink="http://www.w3.org/1999/xlink" contentStyleType="text/css" height="578.15px" preserveAspectRatio="none" style="width:362px;height:578px;background:#FFFFFF;" version="1.1" viewBox="0 0 362 578" width="362.08px" zoomAndPan="magnify"><defs/><g><text fill="#000000" font-family="sans-serif" font-size="4.34" font-weight="bold" lengthAdjust="spacing" textLength="85.25" x="136.3225" y="7.7833">US002 Real State Agent - Class Diagram</text><!--class Agent--><g id="elem_Agent"><rect codeLine="6" fill="#F1F1F1" height="89.923" id="Agent" rx="0.775" ry="0.775" style="stroke:#181818;stroke-width:0.155;" width="49.91" x="2.17" y="14.4525"/><ellipse cx="20.0725" cy="19.4125" fill="#ADD1B2" rx="3.41" ry="3.41" style="stroke:#181818;stroke-width:0.31;"/><path d="M20.9298,18.1338 Q20.9783,18.066 21.0364,18.0321 Q21.0945,17.9982 21.1623,17.9982 Q21.2786,17.9982 21.3513,18.0805 Q21.4239,18.158 21.4239,18.3469 L21.4239,18.7974 Q21.4239,18.9863 21.3513,19.0686 Q21.2786,19.151 21.1623,19.151 Q21.0558,19.151 20.9928,19.088 Q20.9298,19.0299 20.8959,18.87 Q20.8814,18.7586 20.8233,18.7005 Q20.7216,18.5843 20.5327,18.5164 Q20.3438,18.4486 20.15,18.4486 Q19.9127,18.4486 19.7141,18.5504 Q19.5203,18.6521 19.3653,18.8846 Q19.2152,19.1171 19.2152,19.4368 L19.2152,19.7758 Q19.2152,20.1585 19.4913,20.4152 Q19.7673,20.6671 20.2614,20.6671 Q20.552,20.6671 20.7555,20.5896 Q20.8766,20.5411 21.0073,20.4055 Q21.0897,20.3232 21.1333,20.2989 Q21.1817,20.2747 21.2447,20.2747 Q21.3464,20.2747 21.4239,20.3571 Q21.5063,20.4346 21.5063,20.5411 Q21.5063,20.6477 21.3997,20.7736 Q21.2447,20.9529 20.9977,21.0546 Q20.6634,21.195 20.2614,21.195 Q19.7916,21.195 19.4186,21.0013 Q19.1134,20.8463 18.9003,20.5169 Q18.6872,20.1827 18.6872,19.7855 L18.6872,19.4271 Q18.6872,19.0154 18.8761,18.6618 Q19.0698,18.3033 19.4089,18.1144 Q19.748,17.9207 20.1306,17.9207 Q20.3583,17.9207 20.5569,17.9739 Q20.7603,18.0224 20.9298,18.1338 Z " fill="#000000"/><text fill="#000000" font-family="sans-serif" font-size="4.34" lengthAdjust="spacing" textLength="11.47" x="26.4275" y="21.2096">Agent</text><line style="stroke:#181818;stroke-width:0.155;" x1="2.48" x2="51.77" y1="24.3725" y2="24.3725"/><text fill="#000000" font-family="sans-serif" font-size="4.34" lengthAdjust="spacing" textLength="24.49" x="4.03" y="30.2958">-String email</text><text fill="#000000" font-family="sans-serif" font-size="4.34" lengthAdjust="spacing" textLength="25.11" x="4.03" y="36.0684">-String name</text><text fill="#000000" font-family="sans-serif" font-size="4.34" lengthAdjust="spacing" textLength="41.85" x="4.03" y="41.8409">-String phoneNumber</text><text fill="#000000" font-family="sans-serif" font-size="4.34" lengthAdjust="spacing" textLength="30.07" x="4.03" y="47.6135">-String address</text><text fill="#000000" font-family="sans-serif" font-size="4.34" lengthAdjust="spacing" textLength="24.18" x="4.03" y="53.386">-String store</text><text fill="#000000" font-family="sans-serif" font-size="4.34" lengthAdjust="spacing" textLength="26.97" x="4.03" y="59.1585">-int ccNumber</text><text fill="#000000" font-family="sans-serif" font-size="4.34" lengthAdjust="spacing" textLength="28.21" x="4.03" y="64.9311">-int taxNumber</text><text fill="#000000" font-family="sans-serif" font-size="4.34" lengthAdjust="spacing" textLength="22.01" x="4.03" y="70.7036">-String pwd</text><line style="stroke:#181818;stroke-width:0.31;" x1="2.48" x2="51.77" y1="73.0329" y2="73.0329"/><text fill="#000000" font-family="sans-serif" font-size="4.34" lengthAdjust="spacing" textLength="46.19" x="4.03" y="78.9562">+hasEmail(String email)</text><text fill="#000000" font-family="sans-serif" font-size="4.34" lengthAdjust="spacing" textLength="22.94" x="4.03" y="84.7287">+getName()</text><text fill="#000000" font-family="sans-serif" font-size="4.34" lengthAdjust="spacing" textLength="22.32" x="4.03" y="90.5012">+getEmail()</text><text fill="#000000" font-family="sans-serif" font-size="4.34" lengthAdjust="spacing" textLength="20.77" x="4.03" y="96.2738">+toString()</text><text fill="#000000" font-family="sans-serif" font-size="4.34" lengthAdjust="spacing" textLength="16.12" x="4.03" y="102.0463">+clone()</text></g><!--class Repositories--><g id="elem_Repositories"><rect codeLine="23" fill="#F1F1F1" height="37.9702" id="Repositories" rx="0.775" ry="0.775" style="stroke:#181818;stroke-width:0.155;" width="81.84" x="156.395" y="229.5925"/><ellipse cx="183.7525" cy="234.5525" fill="#ADD1B2" rx="3.41" ry="3.41" style="stroke:#181818;stroke-width:0.31;"/><path d="M184.6098,233.2738 Q184.6583,233.206 184.7164,233.1721 Q184.7745,233.1382 184.8423,233.1382 Q184.9586,233.1382 185.0313,233.2205 Q185.1039,233.298 185.1039,233.4869 L185.1039,233.9374 Q185.1039,234.1263 185.0313,234.2086 Q184.9586,234.291 184.8423,234.291 Q184.7358,234.291 184.6728,234.228 Q184.6098,234.1699 184.5759,234.01 Q184.5614,233.8986 184.5033,233.8405 Q184.4016,233.7243 184.2127,233.6564 Q184.0238,233.5886 183.83,233.5886 Q183.5927,233.5886 183.3941,233.6904 Q183.2003,233.7921 183.0453,234.0246 Q182.8952,234.2571 182.8952,234.5768 L182.8952,234.9158 Q182.8952,235.2985 183.1713,235.5552 Q183.4473,235.8071 183.9414,235.8071 Q184.232,235.8071 184.4355,235.7296 Q184.5566,235.6811 184.6873,235.5455 Q184.7697,235.4632 184.8133,235.4389 Q184.8617,235.4147 184.9247,235.4147 Q185.0264,235.4147 185.1039,235.4971 Q185.1863,235.5746 185.1863,235.6811 Q185.1863,235.7877 185.0797,235.9136 Q184.9247,236.0929 184.6777,236.1946 Q184.3434,236.335 183.9414,236.335 Q183.4716,236.335 183.0986,236.1413 Q182.7934,235.9863 182.5803,235.6569 Q182.3672,235.3227 182.3672,234.9255 L182.3672,234.5671 Q182.3672,234.1554 182.5561,233.8018 Q182.7498,233.4433 183.0889,233.2544 Q183.428,233.0607 183.8106,233.0607 Q184.0383,233.0607 184.2369,233.1139 Q184.4403,233.1624 184.6098,233.2738 Z " fill="#000000"/><text fill="#000000" font-family="sans-serif" font-size="4.34" lengthAdjust="spacing" textLength="24.49" x="190.1075" y="236.3496">Repositories</text><line style="stroke:#181818;stroke-width:0.155;" x1="156.705" x2="237.925" y1="239.5125" y2="239.5125"/><text fill="#000000" font-family="sans-serif" font-size="4.34" lengthAdjust="spacing" textLength="43.71" x="158.255" y="245.4358">-Repositories instance</text><text fill="#000000" font-family="sans-serif" font-size="4.34" lengthAdjust="spacing" textLength="78.12" x="158.255" y="251.2084">-PropertyRepository propertyRepository</text><line style="stroke:#181818;stroke-width:0.155;" x1="156.705" x2="237.925" y1="253.5376" y2="253.5376"/><text fill="#000000" font-family="sans-serif" font-size="4.34" lengthAdjust="spacing" textLength="28.21" x="158.255" y="259.4609">+getInstance()</text><text fill="#000000" font-family="sans-serif" font-size="4.34" lengthAdjust="spacing" textLength="49.6" x="158.255" y="265.2335">+getPropertyRepository()</text></g><!--class PropertyRequestRepository--><g id="elem_PropertyRequestRepository"><rect codeLine="31" fill="#F1F1F1" height="49.5152" id="PropertyRequestRepository" rx="0.775" ry="0.775" style="stroke:#181818;stroke-width:0.155;" width="64.17" x="86.49" y="291.9025"/><ellipse cx="91.14" cy="296.8625" fill="#ADD1B2" rx="3.41" ry="3.41" style="stroke:#181818;stroke-width:0.31;"/><path d="M91.9973,295.5838 Q92.0458,295.516 92.1039,295.4821 Q92.162,295.4482 92.2298,295.4482 Q92.3461,295.4482 92.4188,295.5305 Q92.4914,295.608 92.4914,295.7969 L92.4914,296.2474 Q92.4914,296.4363 92.4188,296.5186 Q92.3461,296.601 92.2298,296.601 Q92.1233,296.601 92.0603,296.538 Q91.9973,296.4799 91.9634,296.32 Q91.9489,296.2086 91.8908,296.1505 Q91.7891,296.0343 91.6002,295.9664 Q91.4113,295.8986 91.2175,295.8986 Q90.9802,295.8986 90.7816,296.0004 Q90.5878,296.1021 90.4328,296.3346 Q90.2827,296.5671 90.2827,296.8868 L90.2827,297.2258 Q90.2827,297.6085 90.5588,297.8652 Q90.8348,298.1171 91.3289,298.1171 Q91.6195,298.1171 91.823,298.0396 Q91.9441,297.9911 92.0748,297.8555 Q92.1572,297.7732 92.2008,297.7489 Q92.2492,297.7247 92.3122,297.7247 Q92.4139,297.7247 92.4914,297.8071 Q92.5738,297.8846 92.5738,297.9911 Q92.5738,298.0977 92.4672,298.2236 Q92.3122,298.4029 92.0652,298.5046 Q91.7309,298.645 91.3289,298.645 Q90.8591,298.645 90.4861,298.4513 Q90.1809,298.2963 89.9678,297.9669 Q89.7547,297.6327 89.7547,297.2355 L89.7547,296.8771 Q89.7547,296.4654 89.9436,296.1118 Q90.1373,295.7533 90.4764,295.5644 Q90.8155,295.3707 91.1981,295.3707 Q91.4258,295.3707 91.6244,295.4239 Q91.8278,295.4724 91.9973,295.5838 Z " fill="#000000"/><text fill="#000000" font-family="sans-serif" font-size="4.34" lengthAdjust="spacing" textLength="54.25" x="95.48" y="298.6596">PropertyRequestRepository</text><line style="stroke:#181818;stroke-width:0.155;" x1="86.8" x2="150.35" y1="301.8225" y2="301.8225"/><text fill="#000000" font-family="sans-serif" font-size="4.34" lengthAdjust="spacing" textLength="51.15" x="88.35" y="307.7458">-List&lt;Property&gt; properties</text><line style="stroke:#181818;stroke-width:0.155;" x1="86.8" x2="150.35" y1="310.0751" y2="310.0751"/><text fill="#000000" font-family="sans-serif" font-size="4.34" lengthAdjust="spacing" textLength="20.77" x="88.35" y="315.9984">+isEmpty()</text><text fill="#000000" font-family="sans-serif" font-size="4.34" lengthAdjust="spacing" textLength="29.45" x="88.35" y="321.7709">+add(property)</text><text fill="#000000" font-family="sans-serif" font-size="4.34" lengthAdjust="spacing" textLength="53.94" x="88.35" y="327.5435">+validateProperty(property)</text><text fill="#000000" font-family="sans-serif" font-size="4.34" lengthAdjust="spacing" textLength="34.41" x="88.35" y="333.316">+printProperties()</text><text fill="#000000" font-family="sans-serif" font-size="4.34" lengthAdjust="spacing" textLength="31.93" x="88.35" y="339.0885">+getProperties()</text></g><!--class PropertyRepository--><g id="elem_PropertyRepository"><rect codeLine="41" fill="#F1F1F1" height="49.5152" id="PropertyRepository" rx="0.775" ry="0.775" style="stroke:#181818;stroke-width:0.155;" width="57.66" x="168.485" y="291.9025"/><ellipse cx="177.599" cy="296.8625" fill="#ADD1B2" rx="3.41" ry="3.41" style="stroke:#181818;stroke-width:0.31;"/><path d="M178.4563,295.5838 Q178.5048,295.516 178.5629,295.4821 Q178.621,295.4482 178.6888,295.4482 Q178.8051,295.4482 178.8778,295.5305 Q178.9504,295.608 178.9504,295.7969 L178.9504,296.2474 Q178.9504,296.4363 178.8778,296.5186 Q178.8051,296.601 178.6888,296.601 Q178.5823,296.601 178.5193,296.538 Q178.4563,296.4799 178.4224,296.32 Q178.4079,296.2086 178.3498,296.1505 Q178.2481,296.0343 178.0592,295.9664 Q177.8703,295.8986 177.6765,295.8986 Q177.4392,295.8986 177.2406,296.0004 Q177.0468,296.1021 176.8918,296.3346 Q176.7417,296.5671 176.7417,296.8868 L176.7417,297.2258 Q176.7417,297.6085 177.0177,297.8652 Q177.2938,298.1171 177.7879,298.1171 Q178.0785,298.1171 178.282,298.0396 Q178.4031,297.9911 178.5338,297.8555 Q178.6162,297.7732 178.6598,297.7489 Q178.7082,297.7247 178.7712,297.7247 Q178.8729,297.7247 178.9504,297.8071 Q179.0328,297.8846 179.0328,297.9911 Q179.0328,298.0977 178.9262,298.2236 Q178.7712,298.4029 178.5242,298.5046 Q178.1899,298.645 177.7879,298.645 Q177.3181,298.645 176.9451,298.4513 Q176.6399,298.2963 176.4268,297.9669 Q176.2137,297.6327 176.2137,297.2355 L176.2137,296.8771 Q176.2137,296.4654 176.4026,296.1118 Q176.5963,295.7533 176.9354,295.5644 Q177.2745,295.3707 177.6571,295.3707 Q177.8848,295.3707 178.0834,295.4239 Q178.2868,295.4724 178.4563,295.5838 Z " fill="#000000"/><text fill="#000000" font-family="sans-serif" font-size="4.34" lengthAdjust="spacing" textLength="37.82" x="182.931" y="298.6596">PropertyRepository</text><line style="stroke:#181818;stroke-width:0.155;" x1="168.795" x2="225.835" y1="301.8225" y2="301.8225"/><text fill="#000000" font-family="sans-serif" font-size="4.34" lengthAdjust="spacing" textLength="51.15" x="170.345" y="307.7458">-List&lt;Property&gt; properties</text><line style="stroke:#181818;stroke-width:0.155;" x1="168.795" x2="225.835" y1="310.0751" y2="310.0751"/><text fill="#000000" font-family="sans-serif" font-size="4.34" lengthAdjust="spacing" textLength="20.77" x="170.345" y="315.9984">+isEmpty()</text><text fill="#000000" font-family="sans-serif" font-size="4.34" lengthAdjust="spacing" textLength="29.45" x="170.345" y="321.7709">+add(property)</text><text fill="#000000" font-family="sans-serif" font-size="4.34" lengthAdjust="spacing" textLength="53.94" x="170.345" y="327.5435">+validateProperty(property)</text><text fill="#000000" font-family="sans-serif" font-size="4.34" lengthAdjust="spacing" textLength="34.41" x="170.345" y="333.316">+printProperties()</text><text fill="#000000" font-family="sans-serif" font-size="4.34" lengthAdjust="spacing" textLength="31.93" x="170.345" y="339.0885">+getProperties()</text></g><!--class Property--><g id="elem_Property"><rect codeLine="51" fill="#F1F1F1" height="55.2878" id="Property" rx="0.775" ry="0.775" style="stroke:#181818;stroke-width:0.155;" width="62.62" x="122.915" y="368.9375"/><ellipse cx="144.5375" cy="373.8975" fill="#B4A7E5" rx="3.41" ry="3.41" style="stroke:#181818;stroke-width:0.31;"/><path d="M144.833,372.8561 L144.833,374.9196 L145.3658,374.9196 Q145.5547,374.9196 145.637,374.9922 Q145.7194,375.0649 145.7194,375.186 Q145.7194,375.3022 145.637,375.3749 Q145.5547,375.4475 145.3658,375.4475 L143.7722,375.4475 Q143.5833,375.4475 143.5009,375.3749 Q143.4186,375.3022 143.4186,375.1811 Q143.4186,375.0649 143.5009,374.9922 Q143.5833,374.9196 143.7722,374.9196 L144.305,374.9196 L144.305,372.8561 L143.7722,372.8561 Q143.5833,372.8561 143.5009,372.7835 Q143.4186,372.7108 143.4186,372.5897 Q143.4186,372.4735 143.5009,372.4008 Q143.5833,372.3282 143.7722,372.3282 L145.3658,372.3282 Q145.5547,372.3282 145.637,372.4008 Q145.7194,372.4735 145.7194,372.5897 Q145.7194,372.7108 145.637,372.7835 Q145.5547,372.8561 145.3658,372.8561 L144.833,372.8561 Z " fill="#000000"/><text fill="#000000" font-family="sans-serif" font-size="4.34" font-style="italic" lengthAdjust="spacing" textLength="16.74" x="150.8925" y="375.6946">Property</text><line style="stroke:#181818;stroke-width:0.155;" x1="123.225" x2="185.225" y1="378.8575" y2="378.8575"/><text fill="#000000" font-family="sans-serif" font-size="4.34" lengthAdjust="spacing" textLength="22.63" x="124.775" y="384.7808">-String type</text><text fill="#000000" font-family="sans-serif" font-size="4.34" lengthAdjust="spacing" textLength="20.15" x="124.775" y="390.5534">-float area</text><text fill="#000000" font-family="sans-serif" font-size="4.34" lengthAdjust="spacing" textLength="29.45" x="124.775" y="396.3259">-String location</text><text fill="#000000" font-family="sans-serif" font-size="4.34" lengthAdjust="spacing" textLength="58.9" x="124.775" y="402.0985">-float distance from city centre</text><text fill="#000000" font-family="sans-serif" font-size="4.34" lengthAdjust="spacing" textLength="41.85" x="124.775" y="407.871">-float requested price</text><line style="stroke:#181818;stroke-width:0.31;" x1="123.225" x2="185.225" y1="410.2002" y2="410.2002"/><text fill="#000000" font-family="sans-serif" font-size="4.34" lengthAdjust="spacing" textLength="30.38" x="124.775" y="416.1235">+equals(object)</text><text fill="#000000" font-family="sans-serif" font-size="4.34" lengthAdjust="spacing" textLength="16.12" x="124.775" y="421.8961">+clone()</text></g><!--class SetCommissionUI--><g id="elem_SetCommissionUI"><rect codeLine="62" fill="#F1F1F1" height="20.6525" id="SetCommissionUI" rx="0.775" ry="0.775" style="stroke:#181818;stroke-width:0.155;" width="43.71" x="5.27" y="164.6475"/><ellipse cx="9.92" cy="169.6075" fill="#ADD1B2" rx="3.41" ry="3.41" style="stroke:#181818;stroke-width:0.31;"/><path d="M10.7773,168.3288 Q10.8258,168.261 10.8839,168.2271 Q10.942,168.1932 11.0098,168.1932 Q11.1261,168.1932 11.1988,168.2755 Q11.2714,168.353 11.2714,168.5419 L11.2714,168.9924 Q11.2714,169.1813 11.1988,169.2636 Q11.1261,169.346 11.0098,169.346 Q10.9033,169.346 10.8403,169.283 Q10.7773,169.2249 10.7434,169.065 Q10.7289,168.9536 10.6708,168.8955 Q10.5691,168.7793 10.3802,168.7114 Q10.1913,168.6436 9.9975,168.6436 Q9.7602,168.6436 9.5616,168.7454 Q9.3678,168.8471 9.2128,169.0796 Q9.0627,169.3121 9.0627,169.6318 L9.0627,169.9708 Q9.0627,170.3535 9.3388,170.6102 Q9.6148,170.8621 10.1089,170.8621 Q10.3995,170.8621 10.603,170.7846 Q10.7241,170.7361 10.8548,170.6005 Q10.9372,170.5182 10.9808,170.4939 Q11.0292,170.4697 11.0922,170.4697 Q11.1939,170.4697 11.2714,170.5521 Q11.3538,170.6296 11.3538,170.7361 Q11.3538,170.8427 11.2472,170.9686 Q11.0922,171.1479 10.8452,171.2496 Q10.5109,171.39 10.1089,171.39 Q9.6391,171.39 9.2661,171.1963 Q8.9609,171.0413 8.7478,170.7119 Q8.5347,170.3777 8.5347,169.9805 L8.5347,169.6221 Q8.5347,169.2104 8.7236,168.8568 Q8.9173,168.4983 9.2564,168.3094 Q9.5955,168.1157 9.9781,168.1157 Q10.2058,168.1157 10.4044,168.1689 Q10.6078,168.2174 10.7773,168.3288 Z " fill="#000000"/><text fill="#000000" font-family="sans-serif" font-size="4.34" lengthAdjust="spacing" textLength="33.79" x="14.26" y="171.4046">SetCommissionUI</text><line style="stroke:#181818;stroke-width:0.155;" x1="5.58" x2="48.67" y1="174.5675" y2="174.5675"/><line style="stroke:#181818;stroke-width:0.155;" x1="5.58" x2="48.67" y1="177.0475" y2="177.0475"/><text fill="#000000" font-family="sans-serif" font-size="4.34" lengthAdjust="spacing" textLength="12.09" x="7.13" y="182.9708">+run()</text></g><!--class SetCommissionController--><g id="elem_SetCommissionController"><rect codeLine="67" fill="#F1F1F1" height="49.5152" id="SetCommissionController" rx="0.775" ry="0.775" style="stroke:#181818;stroke-width:0.155;" width="195.3" x="74.865" y="150.2325"/><ellipse cx="146.5525" cy="155.1925" fill="#ADD1B2" rx="3.41" ry="3.41" style="stroke:#181818;stroke-width:0.31;"/><path d="M147.4098,153.9138 Q147.4583,153.846 147.5164,153.8121 Q147.5745,153.7782 147.6423,153.7782 Q147.7586,153.7782 147.8313,153.8605 Q147.9039,153.938 147.9039,154.1269 L147.9039,154.5774 Q147.9039,154.7663 147.8313,154.8486 Q147.7586,154.931 147.6423,154.931 Q147.5358,154.931 147.4728,154.868 Q147.4098,154.8099 147.3759,154.65 Q147.3614,154.5386 147.3033,154.4805 Q147.2016,154.3643 147.0127,154.2964 Q146.8238,154.2286 146.63,154.2286 Q146.3927,154.2286 146.1941,154.3304 Q146.0003,154.4321 145.8453,154.6646 Q145.6952,154.8971 145.6952,155.2168 L145.6952,155.5558 Q145.6952,155.9385 145.9713,156.1952 Q146.2473,156.4471 146.7414,156.4471 Q147.032,156.4471 147.2355,156.3696 Q147.3566,156.3211 147.4873,156.1855 Q147.5697,156.1032 147.6133,156.0789 Q147.6617,156.0547 147.7247,156.0547 Q147.8264,156.0547 147.9039,156.1371 Q147.9863,156.2146 147.9863,156.3211 Q147.9863,156.4277 147.8797,156.5536 Q147.7247,156.7329 147.4777,156.8346 Q147.1434,156.975 146.7414,156.975 Q146.2716,156.975 145.8986,156.7813 Q145.5934,156.6263 145.3803,156.2969 Q145.1672,155.9627 145.1672,155.5655 L145.1672,155.2071 Q145.1672,154.7954 145.3561,154.4418 Q145.5498,154.0833 145.8889,153.8944 Q146.228,153.7007 146.6106,153.7007 Q146.8383,153.7007 147.0369,153.7539 Q147.2403,153.8024 147.4098,153.9138 Z " fill="#000000"/><text fill="#000000" font-family="sans-serif" font-size="4.34" lengthAdjust="spacing" textLength="49.29" x="152.9075" y="156.9896">SetCommissionController</text><line style="stroke:#181818;stroke-width:0.155;" x1="75.175" x2="269.855" y1="160.1525" y2="160.1525"/><line style="stroke:#181818;stroke-width:0.155;" x1="75.175" x2="269.855" y1="162.6325" y2="162.6325"/><text fill="#000000" font-family="sans-serif" font-size="4.34" lengthAdjust="spacing" textLength="57.97" x="76.725" y="168.5558">+setCommissionFromOwner()</text><text fill="#000000" font-family="sans-serif" font-size="4.34" lengthAdjust="spacing" textLength="130.82" x="76.725" y="174.3284">+printPropertyRequests(List&lt;PropertyRequest&gt; propertyRequests)</text><text fill="#000000" font-family="sans-serif" font-size="4.34" lengthAdjust="spacing" textLength="162.13" x="76.725" y="180.1009">+choosePropertyRequest(PropertyRequestRepository propertyRequestRepository,</text><text fill="#000000" font-family="sans-serif" font-size="4.34" lengthAdjust="spacing" textLength="107.88" x="76.725" y="185.8735">List&lt;PropertyRequest&gt; propertyRequests, Scanner ler)</text><text fill="#000000" font-family="sans-serif" font-size="4.34" lengthAdjust="spacing" textLength="176.7" x="76.725" y="191.646">+setCommission(PropertyRequest propertyRequest, VerifyInput verifyInput, Scanner input)</text><text fill="#000000" font-family="sans-serif" font-size="4.34" lengthAdjust="spacing" textLength="191.58" x="76.725" y="197.4185">+setCommissionValue(float finalValue, String wantedRange, Scanner input, VerifyInput verifyInput)</text></g><!--class Request--><g id="elem_Request"><rect codeLine="76" fill="#F1F1F1" height="61.0603" id="Request" rx="0.775" ry="0.775" style="stroke:#181818;stroke-width:0.155;" width="51.77" x="212.04" y="365.9925"/><ellipse cx="228.3925" cy="370.9525" fill="#ADD1B2" rx="3.41" ry="3.41" style="stroke:#181818;stroke-width:0.31;"/><path d="M229.2498,369.6738 Q229.2983,369.606 229.3564,369.5721 Q229.4145,369.5382 229.4823,369.5382 Q229.5986,369.5382 229.6713,369.6205 Q229.7439,369.698 229.7439,369.8869 L229.7439,370.3374 Q229.7439,370.5263 229.6713,370.6086 Q229.5986,370.691 229.4823,370.691 Q229.3758,370.691 229.3128,370.628 Q229.2498,370.5699 229.2159,370.41 Q229.2014,370.2986 229.1433,370.2405 Q229.0416,370.1243 228.8527,370.0564 Q228.6638,369.9886 228.47,369.9886 Q228.2327,369.9886 228.0341,370.0904 Q227.8403,370.1921 227.6853,370.4246 Q227.5352,370.6571 227.5352,370.9768 L227.5352,371.3158 Q227.5352,371.6985 227.8113,371.9552 Q228.0873,372.2071 228.5814,372.2071 Q228.872,372.2071 229.0755,372.1296 Q229.1966,372.0811 229.3273,371.9455 Q229.4097,371.8632 229.4533,371.8389 Q229.5017,371.8147 229.5647,371.8147 Q229.6664,371.8147 229.7439,371.8971 Q229.8263,371.9746 229.8263,372.0811 Q229.8263,372.1877 229.7197,372.3136 Q229.5647,372.4929 229.3177,372.5946 Q228.9834,372.735 228.5814,372.735 Q228.1116,372.735 227.7386,372.5413 Q227.4334,372.3863 227.2203,372.0569 Q227.0072,371.7227 227.0072,371.3255 L227.0072,370.9671 Q227.0072,370.5554 227.1961,370.2018 Q227.3898,369.8433 227.7289,369.6544 Q228.068,369.4607 228.4506,369.4607 Q228.6783,369.4607 228.8769,369.5139 Q229.0803,369.5624 229.2498,369.6738 Z " fill="#000000"/><text fill="#000000" font-family="sans-serif" font-size="4.34" lengthAdjust="spacing" textLength="16.43" x="234.7475" y="372.7496">Request</text><line style="stroke:#181818;stroke-width:0.155;" x1="212.35" x2="263.5" y1="375.9125" y2="375.9125"/><text fill="#000000" font-family="sans-serif" font-size="4.34" lengthAdjust="spacing" textLength="22.63" x="213.9" y="381.8358">-String type</text><text fill="#000000" font-family="sans-serif" font-size="4.34" lengthAdjust="spacing" textLength="20.77" x="213.9" y="387.6084">-float price</text><text fill="#000000" font-family="sans-serif" font-size="4.34" lengthAdjust="spacing" textLength="31.31" x="213.9" y="393.3809">-String priceUnit</text><text fill="#000000" font-family="sans-serif" font-size="4.34" lengthAdjust="spacing" textLength="43.09" x="213.9" y="399.1535">-boolean isItPublished</text><text fill="#000000" font-family="sans-serif" font-size="4.34" lengthAdjust="spacing" textLength="46.19" x="213.9" y="404.926">-String commissionDate</text><text fill="#000000" font-family="sans-serif" font-size="4.34" lengthAdjust="spacing" textLength="27.28" x="213.9" y="410.6985">-Owner owner</text><text fill="#000000" font-family="sans-serif" font-size="4.34" lengthAdjust="spacing" textLength="48.05" x="213.9" y="416.4711">-String commissionValue</text><text fill="#000000" font-family="sans-serif" font-size="4.34" lengthAdjust="spacing" textLength="23.56" x="213.9" y="422.2436">-int duration</text><line style="stroke:#181818;stroke-width:0.155;" x1="212.35" x2="263.5" y1="424.5729" y2="424.5729"/></g><!--class Land--><g id="elem_Land"><rect codeLine="87" fill="#F1F1F1" height="78.3779" id="Land" rx="0.775" ry="0.775" style="stroke:#181818;stroke-width:0.155;" width="62.31" x="49.91" y="474.6475"/><ellipse cx="74.7875" cy="479.6075" fill="#ADD1B2" rx="3.41" ry="3.41" style="stroke:#181818;stroke-width:0.31;"/><path d="M75.6448,478.3288 Q75.6933,478.261 75.7514,478.2271 Q75.8095,478.1932 75.8773,478.1932 Q75.9936,478.1932 76.0663,478.2755 Q76.1389,478.353 76.1389,478.5419 L76.1389,478.9924 Q76.1389,479.1813 76.0663,479.2636 Q75.9936,479.346 75.8773,479.346 Q75.7708,479.346 75.7078,479.283 Q75.6448,479.2249 75.6109,479.065 Q75.5964,478.9536 75.5383,478.8955 Q75.4366,478.7793 75.2477,478.7114 Q75.0588,478.6436 74.865,478.6436 Q74.6277,478.6436 74.4291,478.7454 Q74.2353,478.8471 74.0803,479.0796 Q73.9302,479.3121 73.9302,479.6318 L73.9302,479.9708 Q73.9302,480.3535 74.2063,480.6102 Q74.4823,480.8621 74.9764,480.8621 Q75.267,480.8621 75.4705,480.7846 Q75.5916,480.7361 75.7223,480.6005 Q75.8047,480.5182 75.8483,480.4939 Q75.8967,480.4697 75.9597,480.4697 Q76.0614,480.4697 76.1389,480.5521 Q76.2213,480.6296 76.2213,480.7361 Q76.2213,480.8427 76.1147,480.9686 Q75.9597,481.1479 75.7127,481.2496 Q75.3784,481.39 74.9764,481.39 Q74.5066,481.39 74.1336,481.1963 Q73.8284,481.0413 73.6153,480.7119 Q73.4022,480.3777 73.4022,479.9805 L73.4022,479.6221 Q73.4022,479.2104 73.5911,478.8568 Q73.7848,478.4983 74.1239,478.3094 Q74.463,478.1157 74.8456,478.1157 Q75.0733,478.1157 75.2719,478.1689 Q75.4753,478.2174 75.6448,478.3288 Z " fill="#000000"/><text fill="#000000" font-family="sans-serif" font-size="4.34" lengthAdjust="spacing" textLength="9.92" x="81.1425" y="481.4046">Land</text><line style="stroke:#181818;stroke-width:0.155;" x1="50.22" x2="111.91" y1="484.5675" y2="484.5675"/><text fill="#000000" font-family="sans-serif" font-size="4.34" lengthAdjust="spacing" textLength="20.15" x="51.77" y="490.4908">-float area</text><text fill="#000000" font-family="sans-serif" font-size="4.34" lengthAdjust="spacing" textLength="29.45" x="51.77" y="496.2634">-String location</text><text fill="#000000" font-family="sans-serif" font-size="4.34" lengthAdjust="spacing" textLength="58.59" x="51.77" y="502.0359">-float distanceFromCityCentre</text><text fill="#000000" font-family="sans-serif" font-size="4.34" lengthAdjust="spacing" textLength="25.42" x="51.77" y="507.8085">-Agent agent</text><text fill="#000000" font-family="sans-serif" font-size="4.34" lengthAdjust="spacing" textLength="37.2" x="51.77" y="513.581">-File[] photographs</text><text fill="#000000" font-family="sans-serif" font-size="4.34" lengthAdjust="spacing" textLength="29.14" x="51.77" y="519.3535">-float finalPrice</text><text fill="#000000" font-family="sans-serif" font-size="4.34" lengthAdjust="spacing" textLength="52.7" x="51.77" y="525.1261">-String announcementDate</text><text fill="#000000" font-family="sans-serif" font-size="4.34" lengthAdjust="spacing" textLength="34.1" x="51.77" y="530.8986">-Request request</text><line style="stroke:#181818;stroke-width:0.155;" x1="50.22" x2="111.91" y1="533.2279" y2="533.2279"/><text fill="#000000" font-family="sans-serif" font-size="4.34" lengthAdjust="spacing" textLength="30.38" x="51.77" y="539.1512">+equals(object)</text><text fill="#000000" font-family="sans-serif" font-size="4.34" lengthAdjust="spacing" textLength="16.12" x="51.77" y="544.9237">+clone()</text><text fill="#000000" font-family="sans-serif" font-size="4.34" lengthAdjust="spacing" textLength="20.77" x="51.77" y="550.6962">+toString()</text></g><!--class Apartment--><g id="elem_Apartment"><rect codeLine="102" fill="#F1F1F1" height="107.2406" id="Apartment" rx="0.775" ry="0.775" style="stroke:#181818;stroke-width:0.155;" width="62.31" x="123.07" y="460.2325"/><ellipse cx="142.8325" cy="465.1925" fill="#ADD1B2" rx="3.41" ry="3.41" style="stroke:#181818;stroke-width:0.31;"/><path d="M143.6898,463.9138 Q143.7383,463.846 143.7964,463.8121 Q143.8545,463.7782 143.9223,463.7782 Q144.0386,463.7782 144.1113,463.8605 Q144.1839,463.938 144.1839,464.1269 L144.1839,464.5774 Q144.1839,464.7663 144.1113,464.8486 Q144.0386,464.931 143.9223,464.931 Q143.8158,464.931 143.7528,464.868 Q143.6898,464.8099 143.6559,464.65 Q143.6414,464.5386 143.5833,464.4805 Q143.4816,464.3643 143.2927,464.2964 Q143.1038,464.2286 142.91,464.2286 Q142.6727,464.2286 142.4741,464.3304 Q142.2803,464.4321 142.1253,464.6646 Q141.9752,464.8971 141.9752,465.2168 L141.9752,465.5558 Q141.9752,465.9385 142.2513,466.1952 Q142.5273,466.4471 143.0214,466.4471 Q143.312,466.4471 143.5155,466.3696 Q143.6366,466.3211 143.7673,466.1855 Q143.8497,466.1032 143.8933,466.0789 Q143.9417,466.0547 144.0047,466.0547 Q144.1064,466.0547 144.1839,466.1371 Q144.2662,466.2146 144.2662,466.3211 Q144.2662,466.4277 144.1597,466.5536 Q144.0047,466.7329 143.7577,466.8346 Q143.4234,466.975 143.0214,466.975 Q142.5516,466.975 142.1786,466.7813 Q141.8734,466.6263 141.6603,466.2969 Q141.4472,465.9627 141.4472,465.5655 L141.4472,465.2071 Q141.4472,464.7954 141.6361,464.4418 Q141.8298,464.0833 142.1689,463.8944 Q142.508,463.7007 142.8906,463.7007 Q143.1183,463.7007 143.3169,463.7539 Q143.5203,463.8024 143.6898,463.9138 Z " fill="#000000"/><text fill="#000000" font-family="sans-serif" font-size="4.34" lengthAdjust="spacing" textLength="20.15" x="149.1875" y="466.9896">Apartment</text><line style="stroke:#181818;stroke-width:0.155;" x1="123.38" x2="185.07" y1="470.1525" y2="470.1525"/><text fill="#000000" font-family="sans-serif" font-size="4.34" lengthAdjust="spacing" textLength="20.15" x="124.93" y="476.0758">-float area</text><text fill="#000000" font-family="sans-serif" font-size="4.34" lengthAdjust="spacing" textLength="29.45" x="124.93" y="481.8484">-String location</text><text fill="#000000" font-family="sans-serif" font-size="4.34" lengthAdjust="spacing" textLength="58.59" x="124.93" y="487.6209">-float distanceFromCityCentre</text><text fill="#000000" font-family="sans-serif" font-size="4.34" lengthAdjust="spacing" textLength="25.42" x="124.93" y="493.3935">-Agent agent</text><text fill="#000000" font-family="sans-serif" font-size="4.34" lengthAdjust="spacing" textLength="40.3" x="124.93" y="499.166">-int numOfBedrooms</text><text fill="#000000" font-family="sans-serif" font-size="4.34" lengthAdjust="spacing" textLength="41.54" x="124.93" y="504.9385">-int numOfBathrooms</text><text fill="#000000" font-family="sans-serif" font-size="4.34" lengthAdjust="spacing" textLength="49.91" x="124.93" y="510.7111">-int numOfParkingSpaces</text><text fill="#000000" font-family="sans-serif" font-size="4.34" lengthAdjust="spacing" textLength="46.81" x="124.93" y="516.4836">-boolean centralHeating</text><text fill="#000000" font-family="sans-serif" font-size="4.34" lengthAdjust="spacing" textLength="48.05" x="124.93" y="522.2562">-boolean airConditioning</text><text fill="#000000" font-family="sans-serif" font-size="4.34" lengthAdjust="spacing" textLength="37.2" x="124.93" y="528.0287">-File[] photographs</text><text fill="#000000" font-family="sans-serif" font-size="4.34" lengthAdjust="spacing" textLength="29.14" x="124.93" y="533.8012">-float finalPrice</text><text fill="#000000" font-family="sans-serif" font-size="4.34" lengthAdjust="spacing" textLength="52.7" x="124.93" y="539.5738">-String announcementDate</text><text fill="#000000" font-family="sans-serif" font-size="4.34" lengthAdjust="spacing" textLength="34.1" x="124.93" y="545.3463">-Request request</text><line style="stroke:#181818;stroke-width:0.155;" x1="123.38" x2="185.07" y1="547.6755" y2="547.6755"/><text fill="#000000" font-family="sans-serif" font-size="4.34" lengthAdjust="spacing" textLength="30.38" x="124.93" y="553.5988">+equals(object)</text><text fill="#000000" font-family="sans-serif" font-size="4.34" lengthAdjust="spacing" textLength="16.12" x="124.93" y="559.3714">+clone()</text><text fill="#000000" font-family="sans-serif" font-size="4.34" lengthAdjust="spacing" textLength="20.77" x="124.93" y="565.1439">+toString()</text></g><!--class House--><g id="elem_House"><rect codeLine="122" fill="#F1F1F1" height="124.5582" id="House" rx="0.775" ry="0.775" style="stroke:#181818;stroke-width:0.155;" width="62.31" x="196.23" y="451.5525"/><ellipse cx="219.8675" cy="456.5125" fill="#ADD1B2" rx="3.41" ry="3.41" style="stroke:#181818;stroke-width:0.31;"/><path d="M220.7248,455.2338 Q220.7733,455.166 220.8314,455.1321 Q220.8895,455.0982 220.9573,455.0982 Q221.0736,455.0982 221.1463,455.1805 Q221.2189,455.258 221.2189,455.4469 L221.2189,455.8974 Q221.2189,456.0863 221.1463,456.1686 Q221.0736,456.251 220.9573,456.251 Q220.8508,456.251 220.7878,456.188 Q220.7248,456.1299 220.6909,455.97 Q220.6764,455.8586 220.6183,455.8005 Q220.5166,455.6843 220.3277,455.6164 Q220.1388,455.5486 219.945,455.5486 Q219.7077,455.5486 219.5091,455.6504 Q219.3153,455.7521 219.1603,455.9846 Q219.0102,456.2171 219.0102,456.5368 L219.0102,456.8758 Q219.0102,457.2585 219.2863,457.5152 Q219.5623,457.7671 220.0564,457.7671 Q220.347,457.7671 220.5505,457.6896 Q220.6716,457.6411 220.8023,457.5055 Q220.8847,457.4232 220.9283,457.3989 Q220.9767,457.3747 221.0397,457.3747 Q221.1414,457.3747 221.2189,457.4571 Q221.3013,457.5346 221.3013,457.6411 Q221.3013,457.7477 221.1947,457.8736 Q221.0397,458.0529 220.7927,458.1546 Q220.4584,458.295 220.0564,458.295 Q219.5866,458.295 219.2136,458.1013 Q218.9084,457.9463 218.6953,457.6169 Q218.4822,457.2827 218.4822,456.8855 L218.4822,456.5271 Q218.4822,456.1154 218.6711,455.7618 Q218.8648,455.4033 219.2039,455.2144 Q219.543,455.0207 219.9256,455.0207 Q220.1533,455.0207 220.3519,455.0739 Q220.5553,455.1224 220.7248,455.2338 Z " fill="#000000"/><text fill="#000000" font-family="sans-serif" font-size="4.34" lengthAdjust="spacing" textLength="12.4" x="226.2225" y="458.3096">House</text><line style="stroke:#181818;stroke-width:0.155;" x1="196.54" x2="258.23" y1="461.4725" y2="461.4725"/><text fill="#000000" font-family="sans-serif" font-size="4.34" lengthAdjust="spacing" textLength="20.15" x="198.09" y="467.3958">-float area</text><text fill="#000000" font-family="sans-serif" font-size="4.34" lengthAdjust="spacing" textLength="29.45" x="198.09" y="473.1684">-String location</text><text fill="#000000" font-family="sans-serif" font-size="4.34" lengthAdjust="spacing" textLength="58.59" x="198.09" y="478.9409">-float distanceFromCityCentre</text><text fill="#000000" font-family="sans-serif" font-size="4.34" lengthAdjust="spacing" textLength="25.42" x="198.09" y="484.7135">-Agent agent</text><text fill="#000000" font-family="sans-serif" font-size="4.34" lengthAdjust="spacing" textLength="40.3" x="198.09" y="490.486">-int numOfBedrooms</text><text fill="#000000" font-family="sans-serif" font-size="4.34" lengthAdjust="spacing" textLength="41.54" x="198.09" y="496.2585">-int numOfBathrooms</text><text fill="#000000" font-family="sans-serif" font-size="4.34" lengthAdjust="spacing" textLength="49.91" x="198.09" y="502.0311">-int numOfParkingSpaces</text><text fill="#000000" font-family="sans-serif" font-size="4.34" lengthAdjust="spacing" textLength="46.81" x="198.09" y="507.8036">-boolean centralHeating</text><text fill="#000000" font-family="sans-serif" font-size="4.34" lengthAdjust="spacing" textLength="48.05" x="198.09" y="513.5762">-boolean airConditioning</text><text fill="#000000" font-family="sans-serif" font-size="4.34" lengthAdjust="spacing" textLength="37.82" x="198.09" y="519.3487">-boolean basement</text><text fill="#000000" font-family="sans-serif" font-size="4.34" lengthAdjust="spacing" textLength="47.43" x="198.09" y="525.1212">-boolean inhabitableLoft</text><text fill="#000000" font-family="sans-serif" font-size="4.34" lengthAdjust="spacing" textLength="39.68" x="198.09" y="530.8938">-String sunExposure</text><text fill="#000000" font-family="sans-serif" font-size="4.34" lengthAdjust="spacing" textLength="37.2" x="198.09" y="536.6663">-File[] photographs</text><text fill="#000000" font-family="sans-serif" font-size="4.34" lengthAdjust="spacing" textLength="29.14" x="198.09" y="542.4388">-float finalPrice</text><text fill="#000000" font-family="sans-serif" font-size="4.34" lengthAdjust="spacing" textLength="52.7" x="198.09" y="548.2114">-String announcementDate</text><text fill="#000000" font-family="sans-serif" font-size="4.34" lengthAdjust="spacing" textLength="34.1" x="198.09" y="553.9839">-Request request</text><line style="stroke:#181818;stroke-width:0.155;" x1="196.54" x2="258.23" y1="556.3132" y2="556.3132"/><text fill="#000000" font-family="sans-serif" font-size="4.34" lengthAdjust="spacing" textLength="30.38" x="198.09" y="562.2365">+equals(object)</text><text fill="#000000" font-family="sans-serif" font-size="4.34" lengthAdjust="spacing" textLength="16.12" x="198.09" y="568.009">+clone()</text><text fill="#000000" font-family="sans-serif" font-size="4.34" lengthAdjust="spacing" textLength="20.77" x="198.09" y="573.7815">+toString()</text></g><!--link Agent to SetCommissionUI--><g id="link_Agent_SetCommissionUI"><path codeLine="145" d="M27.125,104.4238 C27.125,125.5906 27.125,149.1878 27.125,162.9518 " fill="none" id="Agent-to-SetCommissionUI" style="stroke:#181818;stroke-width:0.31;"/><polygon fill="#181818" points="27.125,164.5824,28.365,161.7924,27.125,163.0324,25.885,161.7924,27.125,164.5824" style="stroke:#181818;stroke-width:0.31;"/><text fill="#000000" font-family="sans-serif" font-size="4.03" lengthAdjust="spacing" textLength="34.41" x="54.56" y="118.3113">runs and inputs the</text><text fill="#000000" font-family="sans-serif" font-size="4.03" lengthAdjust="spacing" textLength="39.37" x="52.08" y="123.6715">necessary information</text><text fill="#000000" font-family="sans-serif" font-size="4.03" lengthAdjust="spacing" textLength="52.39" x="45.57" y="129.0317">(choosing the requests to set</text><text fill="#000000" font-family="sans-serif" font-size="4.03" lengthAdjust="spacing" textLength="88.66" x="27.435" y="134.392">commission and agreeing or not with commission</text><text fill="#000000" font-family="sans-serif" font-size="4.03" lengthAdjust="spacing" textLength="52.08" x="45.725" y="139.7522">value and final property price)</text></g><!--link SetCommissionUI to SetCommissionController--><g id="link_SetCommissionUI_SetCommissionController"><path codeLine="146" d="M49.0482,175.0325 C56.0325,175.0325 64.263,175.0325 73.1042,175.0325 " fill="none" id="SetCommissionUI-to-SetCommissionController" style="stroke:#181818;stroke-width:0.31;"/><polygon fill="#181818" points="74.7627,175.0325,71.9727,173.7925,73.2127,175.0325,71.9727,176.2725,74.7627,175.0325" style="stroke:#181818;stroke-width:0.31;"/><text fill="#000000" font-family="sans-serif" font-size="4.03" lengthAdjust="spacing" textLength="13.33" x="55.2575" y="172.8713">creates</text></g><!--link SetCommissionUI to PropertyRequestRepository--><g id="link_SetCommissionUI_PropertyRequestRepository"><path codeLine="147" d="M26.6228,185.5539 C26.2353,203.6238 27.7078,241.7352 44.795,267.4125 C54.5941,282.1375 70.4847,293.5176 85.0144,301.59 " fill="none" id="SetCommissionUI-to-PropertyRequestRepository" style="stroke:#181818;stroke-width:0.31;"/><polygon fill="#181818" points="86.4156,302.3588,84.5694,299.9271,85.0577,301.6114,83.3735,302.0997,86.4156,302.3588" style="stroke:#181818;stroke-width:0.31;"/><text fill="#000000" font-family="sans-serif" font-size="4.03" lengthAdjust="spacing" textLength="55.18" x="48.98" y="247.5813">gets list of all requests done to</text><text fill="#000000" font-family="sans-serif" font-size="4.03" lengthAdjust="spacing" textLength="62.93" x="45.105" y="252.9415">that agent with the requested filters</text></g><!--link SetCommissionController to Repositories--><g id="link_SetCommissionController_Repositories"><path codeLine="148" d="M170.7077,199.9472 C170.9588,206.7207 171.9508,213.9437 174.375,220.2925 C175.4135,223.0112 176.8271,225.6617 178.4515,228.1789 " fill="none" id="SetCommissionController-to-Repositories" style="stroke:#181818;stroke-width:0.31;"/><polygon fill="#181818" points="179.3722,229.5615,178.8611,226.5515,178.5145,228.2705,176.7954,227.9239,179.3722,229.5615" style="stroke:#181818;stroke-width:0.31;"/><text fill="#000000" font-family="sans-serif" font-size="4.03" lengthAdjust="spacing" textLength="76.88" x="174.685" y="213.7913">get instance of PropertyRequestRepository</text><text fill="#000000" font-family="sans-serif" font-size="4.03" lengthAdjust="spacing" textLength="42.16" x="192.045" y="219.1515">and PropertyRepository</text></g><!--link Repositories to PropertyRepository--><g id="link_Repositories_PropertyRepository"><path codeLine="149" d="M197.315,267.459 C197.315,274.496 197.315,282.6428 197.315,290.244 " fill="none" id="Repositories-to-PropertyRepository" style="stroke:#181818;stroke-width:0.31;"/><polygon fill="#181818" points="197.315,291.856,198.555,289.066,197.315,290.306,196.075,289.066,197.315,291.856" style="stroke:#181818;stroke-width:0.31;"/><text fill="#000000" font-family="sans-serif" font-size="4.03" lengthAdjust="spacing" textLength="15.19" x="197.625" y="281.3713">contains</text></g><!--link Repositories to PropertyRequestRepository--><g id="link_Repositories_PropertyRequestRepository"><path codeLine="150" d="M175.5902,267.459 C167.183,274.6727 157.4211,283.052 148.3753,290.8144 " fill="none" id="Repositories-to-PropertyRequestRepository" style="stroke:#181818;stroke-width:0.31;"/><polygon fill="#181818" points="147.1632,291.856,150.0869,290.9764,148.3382,290.8451,148.4694,289.0964,147.1632,291.856" style="stroke:#181818;stroke-width:0.31;"/><text fill="#000000" font-family="sans-serif" font-size="4.03" lengthAdjust="spacing" textLength="15.19" x="162.905" y="281.3713">contains</text></g><!--link SetCommissionController to SetCommissionController--><g id="link_SetCommissionController_SetCommissionController"><path codeLine="152" d="M270.2456,169.6447 C276.9416,170.8816 281.015,172.6796 281.015,175.0325 C281.015,177.2025 277.5523,178.8982 271.7646,180.1196 " fill="none" id="SetCommissionController-to-SetCommissionController" style="stroke:#181818;stroke-width:0.31;"/><polygon fill="#181818" points="270.2456,180.4203,273.2235,181.0941,271.766,180.1189,272.7412,178.6615,270.2456,180.4203" style="stroke:#181818;stroke-width:0.31;"/><text fill="#000000" font-family="sans-serif" font-size="4.03" lengthAdjust="spacing" textLength="38.75" x="301.165" y="168.6863">updates each request</text><text fill="#000000" font-family="sans-serif" font-size="4.03" lengthAdjust="spacing" textLength="55.8" x="292.64" y="174.0465">according to the agents' choice</text><text fill="#000000" font-family="sans-serif" font-size="4.03" lengthAdjust="spacing" textLength="75.33" x="282.875" y="179.4067">to agree or not agree with the commission</text><text fill="#000000" font-family="sans-serif" font-size="4.03" lengthAdjust="spacing" textLength="50.84" x="295.12" y="184.767">value and final property price</text></g><!--link SetCommissionController to PropertyRequestRepository--><g id="link_SetCommissionController_PropertyRequestRepository"><path codeLine="154" d="M139.1869,199.8511 C130.4015,208.2025 122.0625,218.3178 117.335,229.5925 C109.3029,248.7505 110.2794,272.4438 112.8927,290.2316 " fill="none" id="SetCommissionController-to-PropertyRequestRepository" style="stroke:#181818;stroke-width:0.31;"/><polygon fill="#181818" points="113.1345,291.825,113.9461,288.8817,112.9041,290.2923,111.4936,289.2503,113.1345,291.825" style="stroke:#181818;stroke-width:0.31;"/><text fill="#000000" font-family="sans-serif" font-size="4.03" lengthAdjust="spacing" textLength="33.17" x="117.645" y="247.5813">removes published</text><text fill="#000000" font-family="sans-serif" font-size="4.03" lengthAdjust="spacing" textLength="23.56" x="122.45" y="252.9415">property from</text></g><!--link SetCommissionController to PropertyRepository--><g id="link_SetCommissionController_PropertyRepository"><path codeLine="155" d="M245.1697,199.8945 C248.1581,202.6535 250.8458,205.7225 253.115,209.1325 C270.7292,235.6189 247.938,268.3332 226.4054,290.6191 " fill="none" id="SetCommissionController-to-PropertyRepository" style="stroke:#181818;stroke-width:0.31;"/><polygon fill="#181818" points="225.2491,291.8064,228.083,290.6702,226.3295,290.695,226.3047,288.9416,225.2491,291.8064" style="stroke:#181818;stroke-width:0.31;"/><text fill="#000000" font-family="sans-serif" font-size="4.03" lengthAdjust="spacing" textLength="26.97" x="259.625" y="247.5813">adds published</text><text fill="#000000" font-family="sans-serif" font-size="4.03" lengthAdjust="spacing" textLength="19.22" x="263.5" y="252.9415">property to</text></g><!--link PropertyRepository to Property--><g id="link_PropertyRepository_Property"><path codeLine="157" d="M183.9757,341.5304 C179.4962,349.7671 174.4556,359.0299 169.818,367.5549 " fill="none" id="PropertyRepository-to-Property" style="stroke:#181818;stroke-width:0.31;"/><polygon fill="#181818" points="169.0771,368.9158,171.497,367.0542,169.8159,367.5532,169.3169,365.8721,169.0771,368.9158" style="stroke:#181818;stroke-width:0.31;"/><text fill="#000000" font-family="sans-serif" font-size="4.03" lengthAdjust="spacing" textLength="6.51" x="178.405" y="355.4613">has</text></g><!--link PropertyRequestRepository to Property--><g id="link_PropertyRequestRepository_Property"><path codeLine="158" d="M129.611,341.5304 C133.3031,349.733 137.4509,358.9524 141.2763,367.4495 " fill="none" id="PropertyRequestRepository-to-Property" style="stroke:#181818;stroke-width:0.31;"/><polygon fill="#181818" points="141.9366,368.9158,141.9304,365.8627,141.3042,367.5007,139.6662,366.8745,141.9366,368.9158" style="stroke:#181818;stroke-width:0.31;"/><text fill="#000000" font-family="sans-serif" font-size="4.03" lengthAdjust="spacing" textLength="6.51" x="136.555" y="355.4613">has</text></g><!--link Property to Request--><g id="link_Property_Request"><path codeLine="160" d="M185.6311,396.5275 C193.7624,396.5275 202.4579,396.5275 210.3753,396.5275 " fill="none" id="Property-to-Request" style="stroke:#181818;stroke-width:0.31;"/><polygon fill="#181818" points="211.947,396.5275,209.157,395.2875,210.397,396.5275,209.157,397.7675,211.947,396.5275" style="stroke:#181818;stroke-width:0.31;"/><text fill="#000000" font-family="sans-serif" font-size="4.03" lengthAdjust="spacing" textLength="15.19" x="191.1925" y="394.3663">contains</text></g><!--link Property to Apartment--><g id="link_Property_Apartment"><path codeLine="162" d="M154.225,424.2012 C154.225,434.518 154.225,446.6576 154.225,458.605 " fill="none" id="Property-to-Apartment" style="stroke:#181818;stroke-width:0.31;"/><polygon fill="#181818" points="154.225,460.2108,155.465,457.4208,154.225,458.6608,152.985,457.4208,154.225,460.2108" style="stroke:#181818;stroke-width:0.31;"/><text fill="#000000" font-family="sans-serif" font-size="4.03" lengthAdjust="spacing" textLength="12.09" x="154.535" y="441.0213">can be</text></g><!--link Property to House--><g id="link_Property_House"><path codeLine="163" d="M172.9521,424.195 C178.777,432.875 185.1506,442.5563 190.805,451.5525 C192.3054,453.9395 193.8275,456.3885 195.3527,458.8716 " fill="none" id="Property-to-House" style="stroke:#181818;stroke-width:0.31;"/><polygon fill="#181818" points="196.199,460.2511,195.7957,457.2248,195.3879,458.9303,193.6823,458.5225,196.199,460.2511" style="stroke:#181818;stroke-width:0.31;"/><text fill="#000000" font-family="sans-serif" font-size="4.03" lengthAdjust="spacing" textLength="12.09" x="184.295" y="441.0213">can be</text></g><!--link Property to Land--><g id="link_Property_Land"><path codeLine="164" d="M135.4979,424.195 C129.673,432.875 123.2994,442.5563 117.645,451.5525 C113.2771,458.4996 108.7449,465.9644 104.4173,473.2184 " fill="none" id="Property-to-Land" style="stroke:#181818;stroke-width:0.31;"/><polygon fill="#181818" points="103.6113,474.57,106.1057,472.8095,104.4055,473.239,103.976,471.5388,103.6113,474.57" style="stroke:#181818;stroke-width:0.31;"/><text fill="#000000" font-family="sans-serif" font-size="4.03" lengthAdjust="spacing" textLength="12.09" x="126.635" y="441.0213">can be</text></g><!--SRC=[rLTRQniv57wVNw6tTKWCOH_34iYwBGs4DiIaB-iIZcUEFTfgf5b9azHRzh_l9sbkdjWX2mjjys16EhVlNFH9SL-ahibI9MhAlz2MbtwdM5ZEFUcjuipr2gwamZn9lHKRKcuioHKvT-MzbUl6ytLkz5B-pU8yyzB3sVto_FnNSSUanDAJPt6rPUt5N2o2dNWZQGilMHRTjC9lsNm9VmZ65KdLhpHLt2_gqcZ-q5HhjlqU5OLbv_gryyR2Gi9dddUwOUNfwyIqVYgoEVwoqvBSsn1sDiPmafrksNy0W5dwJ2huzYRfXUzS0HC-_kdokUFQE0aKabr8QsyjjKETSm2yjQPcwtUzU2VgPrlPmyD337tTshL8dXkF4GpIlnfsVXG1S6wayxzr6fTTJ61BiIGAKVlWxXILdNMGi7ma9GjqixCTosfKemC5L_ieqyO1T3y8BEYmtL3EFRHX6FskHgysof0NP9bwWJ8vUMbq9onaQf3OM8C38lrEv9XhsrlRr0mka9iC0n3c3diuMZEp_XFdxz0mBTalJ5L9vn3h_XgLYkMmZJwgjJ08QvHYsogxiVGTu7ryqcnda_fqq-9cUwreToz7mvdK0jhI6CSJpTdnwQkFISvM-dL1pyGo9mtq0kcTJ5ARHfvQdubFRELcTwthnel7uNlmAiDowlSJgOPdgOiRgKd53HYbINWYp4zn1_RaYQEZ0VVO8c8xF77jf7Hq5LRtMlfilZP6CMaXtRM_RTPAkfABNZ7leR_1mSZciT_2XDy3EZ6RH955OzDGz_1kI1VV_jC120EsmFWlskbFz4xXDvk_auh_-1nut1lS0NNfElDOsDkzV559qy1Z1TEKIDVOzYobyJvsXiOitUTpXGlCL-s5ytzb5Kgdc-hZvdSkh36L6s-HBwTxjsHnbMwNk871Rtqp8r-GUiz0eBV3FacBCrt8W2iAldiLtvl6ySzSmKwm9XSBCpfHkgIrzBHMV6CsVdXMDFhjL_1L4x1_nmQqJwdvvREhuKBWLd08LoJsSSANl08ReKIEGBzIRuojOdDMUXR9En9EoHqIc1W1xblfWHwYGppOc8EoiK8RBvwaBqSKijAFWKIYQgn0Jxs9j4woATWf_k7IGXuvvicZhmUCZbyk5m9NknEWGY_CHf1IGrO5IedKLjgNrCvSIc6KEmVe2Y-1ITmHib3rlTVSXH0XQl-g2u6F8bpfK9xdhvzip-LyBybHTdXaUqAWbzIVrwItEfxKIvrewl2qSe8fBxj28OyyDxQ8isDY2MD5tIy2CuLkeymcJKmtBcdHL_prW_CYx9VojboPHm2lkyjnfNlFuONsEhyZXtXr7lRcJPOTi1Wt1kRu1oCxZlU0Sgyjuj0bmXZtSv13ORZMe19uZVVbYR0Foy8LFuYoVm40]--></g></svg>