<?xml version="1.0" encoding="us-ascii" standalone="no"?><svg xmlns="http://www.w3.org/2000/svg" xmlns:xlink="http://www.w3.org/1999/xlink" contentStyleType="text/css" height="529px" preserveAspectRatio="none" style="width:568px;height:529px;background:#FFFFFF;" version="1.1" viewBox="0 0 568 529" width="568px" zoomAndPan="magnify"><defs/><g><text fill="#000000" font-family="sans-serif" font-size="14" font-weight="bold" lengthAdjust="spacing" textLength="342" x="114.25" y="30.1074">User Story 008 - System Sequence Diagram (SSD)</text><rect fill="#FFFFFF" height="304.541" style="stroke:#181818;stroke-width:1.0;" width="10" x="36.5" y="133.2422"/><rect fill="#FFFFFF" height="31.291" style="stroke:#181818;stroke-width:1.0;" width="10" x="514.5" y="156.5332"/><rect fill="#FFFFFF" height="31.291" style="stroke:#181818;stroke-width:1.0;" width="10" x="514.5" y="219.1152"/><rect fill="#FFFFFF" height="155.0859" style="stroke:#181818;stroke-width:1.0;" width="10" x="514.5" y="281.6973"/><rect fill="none" height="133.0859" style="stroke:#000000;stroke-width:1.5;" width="551.5" x="10" y="296.6973"/><line style="stroke:#181818;stroke-width:0.5;stroke-dasharray:5.0,5.0;" x1="41" x2="41" y1="123.2422" y2="446.7832"/><line style="stroke:#181818;stroke-width:0.5;stroke-dasharray:5.0,5.0;" x1="519.5" x2="519.5" y1="123.2422" y2="446.7832"/><text fill="#000000" font-family="sans-serif" font-size="14" lengthAdjust="spacing" textLength="37" x="20" y="119.7285">Agent</text><ellipse cx="41.5" cy="53.1211" fill="#E3E3E3" rx="8" ry="8" style="stroke:#181818;stroke-width:0.5;"/><path d="M41.5,61.1211 L41.5,88.1211 M28.5,69.1211 L54.5,69.1211 M41.5,88.1211 L28.5,103.1211 M41.5,88.1211 L54.5,103.1211 " fill="none" style="stroke:#181818;stroke-width:0.5;"/><text fill="#000000" font-family="sans-serif" font-size="14" lengthAdjust="spacing" textLength="37" x="20" y="460.8906">Agent</text><ellipse cx="41.5" cy="472.9043" fill="#E3E3E3" rx="8" ry="8" style="stroke:#181818;stroke-width:0.5;"/><path d="M41.5,480.9043 L41.5,507.9043 M28.5,488.9043 L54.5,488.9043 M41.5,507.9043 L28.5,522.9043 M41.5,507.9043 L54.5,522.9043 " fill="none" style="stroke:#181818;stroke-width:0.5;"/><rect fill="#E3E3E3" height="32.6211" rx="2.5" ry="2.5" style="stroke:#181818;stroke-width:0.5;" width="64" x="487.5" y="89.6211"/><text fill="#000000" font-family="sans-serif" font-size="14" lengthAdjust="spacing" textLength="50" x="494.5" y="111.7285">:System</text><rect fill="#E3E3E3" height="32.6211" rx="2.5" ry="2.5" style="stroke:#181818;stroke-width:0.5;" width="64" x="487.5" y="445.7832"/><text fill="#000000" font-family="sans-serif" font-size="14" lengthAdjust="spacing" textLength="50" x="494.5" y="467.8906">:System</text><rect fill="#FFFFFF" height="304.541" style="stroke:#181818;stroke-width:1.0;" width="10" x="36.5" y="133.2422"/><rect fill="#FFFFFF" height="31.291" style="stroke:#181818;stroke-width:1.0;" width="10" x="514.5" y="156.5332"/><rect fill="#FFFFFF" height="31.291" style="stroke:#181818;stroke-width:1.0;" width="10" x="514.5" y="219.1152"/><rect fill="#FFFFFF" height="155.0859" style="stroke:#181818;stroke-width:1.0;" width="10" x="514.5" y="281.6973"/><polygon fill="#181818" points="502.5,152.5332,512.5,156.5332,502.5,160.5332,506.5,156.5332" style="stroke:#181818;stroke-width:1.0;"/><line style="stroke:#181818;stroke-width:1.0;" x1="46.5" x2="508.5" y1="156.5332" y2="156.5332"/><text fill="#000000" font-family="sans-serif" font-size="13" font-weight="bold" lengthAdjust="spacing" textLength="7" x="53.5" y="151.2705">1</text><text fill="#000000" font-family="sans-serif" font-size="13" lengthAdjust="spacing" textLength="179" x="64.5" y="151.2705">asks to post an announcement</text><polygon fill="#181818" points="57.5,183.8242,47.5,187.8242,57.5,191.8242,53.5,187.8242" style="stroke:#181818;stroke-width:1.0;"/><line style="stroke:#181818;stroke-width:1.0;stroke-dasharray:2.0,2.0;" x1="51.5" x2="518.5" y1="187.8242" y2="187.8242"/><text fill="#000000" font-family="sans-serif" font-size="13" font-weight="bold" lengthAdjust="spacing" textLength="7" x="63.5" y="182.5615">2</text><text fill="#000000" font-family="sans-serif" font-size="13" lengthAdjust="spacing" textLength="312" x="74.5" y="182.5615">asks if they only want to see 'for rent', 'for sale' or both</text><polygon fill="#181818" points="502.5,215.1152,512.5,219.1152,502.5,223.1152,506.5,219.1152" style="stroke:#181818;stroke-width:1.0;"/><line style="stroke:#181818;stroke-width:1.0;" x1="46.5" x2="508.5" y1="219.1152" y2="219.1152"/><text fill="#000000" font-family="sans-serif" font-size="13" font-weight="bold" lengthAdjust="spacing" textLength="7" x="53.5" y="213.8525">3</text><text fill="#000000" font-family="sans-serif" font-size="13" lengthAdjust="spacing" textLength="123" x="64.5" y="213.8525">answers the question</text><polygon fill="#181818" points="57.5,246.4063,47.5,250.4063,57.5,254.4063,53.5,250.4063" style="stroke:#181818;stroke-width:1.0;"/><line style="stroke:#181818;stroke-width:1.0;stroke-dasharray:2.0,2.0;" x1="51.5" x2="518.5" y1="250.4063" y2="250.4063"/><text fill="#000000" font-family="sans-serif" font-size="13" font-weight="bold" lengthAdjust="spacing" textLength="7" x="63.5" y="245.1436">4</text><text fill="#000000" font-family="sans-serif" font-size="13" lengthAdjust="spacing" textLength="406" x="74.5" y="245.1436">asks if they only want to see lands, apartments, houses or all of those</text><polygon fill="#181818" points="502.5,277.6973,512.5,281.6973,502.5,285.6973,506.5,281.6973" style="stroke:#181818;stroke-width:1.0;"/><line style="stroke:#181818;stroke-width:1.0;" x1="46.5" x2="508.5" y1="281.6973" y2="281.6973"/><text fill="#000000" font-family="sans-serif" font-size="13" font-weight="bold" lengthAdjust="spacing" textLength="7" x="53.5" y="276.4346">5</text><text fill="#000000" font-family="sans-serif" font-size="13" lengthAdjust="spacing" textLength="123" x="64.5" y="276.4346">answers the question</text><path d="M10,296.6973 L71,296.6973 L71,305.9883 L61,315.9883 L10,315.9883 L10,296.6973 " fill="#EEEEEE" style="stroke:#000000;stroke-width:1.5;"/><rect fill="none" height="133.0859" style="stroke:#000000;stroke-width:1.5;" width="551.5" x="10" y="296.6973"/><text fill="#000000" font-family="sans-serif" font-size="13" font-weight="bold" lengthAdjust="spacing" textLength="16" x="25" y="311.7256">alt</text><text fill="#000000" font-family="sans-serif" font-size="11" font-weight="bold" lengthAdjust="spacing" textLength="310" x="86" y="310.5674">[there aren't any requests with the given specifications]</text><polygon fill="#181818" points="57.5,352.5703,47.5,356.5703,57.5,360.5703,53.5,356.5703" style="stroke:#181818;stroke-width:1.0;"/><line style="stroke:#181818;stroke-width:1.0;stroke-dasharray:2.0,2.0;" x1="51.5" x2="513.5" y1="356.5703" y2="356.5703"/><text fill="#000000" font-family="sans-serif" font-size="13" font-weight="bold" lengthAdjust="spacing" textLength="7" x="63.5" y="342.6621">6</text><text fill="#000000" font-family="sans-serif" font-size="13" lengthAdjust="spacing" textLength="255" x="74.5" y="334.0166">shows message saying that there aren't any</text><text fill="#000000" font-family="sans-serif" font-size="13" lengthAdjust="spacing" textLength="243" x="74.5" y="351.3076">requests that meet the given requirements</text><line style="stroke:#000000;stroke-width:1.0;stroke-dasharray:2.0,2.0;" x1="10" x2="561.5" y1="365.5703" y2="365.5703"/><text fill="#000000" font-family="sans-serif" font-size="11" font-weight="bold" lengthAdjust="spacing" textLength="59" x="15" y="377.4404">[there are]</text><polygon fill="#181818" points="57.5,417.7832,47.5,421.7832,57.5,425.7832,53.5,421.7832" style="stroke:#181818;stroke-width:1.0;"/><line style="stroke:#181818;stroke-width:1.0;stroke-dasharray:2.0,2.0;" x1="51.5" x2="513.5" y1="421.7832" y2="421.7832"/><text fill="#000000" font-family="sans-serif" font-size="13" font-weight="bold" lengthAdjust="spacing" textLength="7" x="63.5" y="407.875">7</text><text fill="#000000" font-family="sans-serif" font-size="13" lengthAdjust="spacing" textLength="433" x="74.5" y="399.2295">shows all property requests to that specific agent starting from most recent</text><text fill="#000000" font-family="sans-serif" font-size="13" lengthAdjust="spacing" textLength="314" x="74.5" y="416.5205">(this sorting criteria takes priority above any other one)</text><!--SRC=[jLF1Rjim3BthAuXSqW8DqEFGmu01_GDZjruOXR69oA8dqZ7yzwFajilGTQVDy84GnVSU7oczS9wmu0YZP8b3aP70oan1tpCJnWlsrDcQ20f5mzodsmiwu4aMpZsSCIc5O6n-zRjIWSwahF3u-0KEqArgD497FsRAaU2PiQ_rTrttV1y2pYPv7ezKF8vU1xjlFMNR0Me32qvd77d2RB1xsk1QTWj30F-ybAze6tyxQK8ENz_udxpYec02awW1Pl-ppAveTBRVCMw1NyiFZjGGNt7u33RG2fBJ2akLviXA1Fkpjr0SSl-mnOg9zk31KMnea2Vw8zD7mLaNAbg9mCrJOyd_JcZ2VD87m6fljS3ZGMObhLen9P1QAJxP_wSPazMRXG3TidqTo-hcjKA5XMreG3rVAODE5FdC4IkcVjAp3h8eZAJgo-lUhtL1RS2FF2_vdQZbHoAxOQj9BcqvDYxo9Vy5ybVwwjvKPA9YD-suxutehG_0kkUWLlUxFYD_XluWVJdzkNdc9T_Pm0egMpuMDYgCO7ZnAKs5nKzMmADSgJadLPvFckutnVdqsUp2Jm00]--></g></svg>