<?xml version="1.0" encoding="us-ascii" standalone="no"?><svg xmlns="http://www.w3.org/2000/svg" xmlns:xlink="http://www.w3.org/1999/xlink" contentStyleType="text/css" height="1189px" preserveAspectRatio="none" style="width:1299px;height:1189px;background:#FFFFFF;" version="1.1" viewBox="0 0 1299 1189" width="1299px" zoomAndPan="magnify"><defs/><g><text fill="#000000" font-family="sans-serif" font-size="14" font-weight="bold" lengthAdjust="spacing" textLength="225" x="536.25" y="30.1074">US004 -  Sequence Diagram (SD)</text><rect fill="#FFFFFF" height="955.0605" style="stroke:#181818;stroke-width:1.0;" width="10" x="23.5" y="133.2422"/><rect fill="#FFFFFF" height="386.8223" style="stroke:#181818;stroke-width:1.0;" width="10" x="316.5" y="156.5332"/><rect fill="#FFFFFF" height="31.291" style="stroke:#181818;stroke-width:1.0;" width="10" x="316.5" y="574.6465"/><rect fill="#FFFFFF" height="75.582" style="stroke:#181818;stroke-width:1.0;" width="10" x="316.5" y="637.2285"/><rect fill="#FFFFFF" height="344.2012" style="stroke:#181818;stroke-width:1.0;" width="10" x="316.5" y="744.1016"/><rect fill="#FFFFFF" height="263.3281" style="stroke:#181818;stroke-width:1.0;" width="10" x="521.5" y="231.4453"/><rect fill="#FFFFFF" height="281.6191" style="stroke:#181818;stroke-width:1.0;" width="10" x="521.5" y="775.3926"/><rect fill="#FFFFFF" height="200.7461" style="stroke:#181818;stroke-width:1.0;" width="10" x="721.5" y="262.7363"/><rect fill="#FFFFFF" height="219.0371" style="stroke:#181818;stroke-width:1.0;" width="10" x="865" y="806.6836"/><rect fill="#FFFFFF" height="31.291" style="stroke:#181818;stroke-width:1.0;" width="10" x="988" y="294.0273"/><rect fill="#FFFFFF" height="31.291" style="stroke:#181818;stroke-width:1.0;" width="10" x="988" y="837.9746"/><rect fill="#FFFFFF" height="31.291" style="stroke:#181818;stroke-width:1.0;" width="10" x="1095" y="356.6094"/><rect fill="#FFFFFF" height="31.291" style="stroke:#181818;stroke-width:1.0;" width="10" x="1095" y="900.5566"/><rect fill="#FFFFFF" height="31.291" style="stroke:#181818;stroke-width:1.0;" width="10" x="1221" y="963.1387"/><line style="stroke:#181818;stroke-width:0.5;stroke-dasharray:5.0,5.0;" x1="28" x2="28" y1="123.2422" y2="1106.3027"/><line style="stroke:#181818;stroke-width:0.5;stroke-dasharray:5.0,5.0;" x1="321.5" x2="321.5" y1="123.2422" y2="1106.3027"/><line style="stroke:#181818;stroke-width:0.5;stroke-dasharray:5.0,5.0;" x1="526.5" x2="526.5" y1="196.3438" y2="1106.3027"/><line style="stroke:#181818;stroke-width:0.5;stroke-dasharray:5.0,5.0;" x1="726.5" x2="726.5" y1="123.2422" y2="1106.3027"/><line style="stroke:#181818;stroke-width:0.5;stroke-dasharray:5.0,5.0;" x1="869.5" x2="869.5" y1="123.2422" y2="1106.3027"/><line style="stroke:#181818;stroke-width:0.5;stroke-dasharray:5.0,5.0;" x1="992.5" x2="992.5" y1="123.2422" y2="1106.3027"/><line style="stroke:#181818;stroke-width:0.5;stroke-dasharray:5.0,5.0;" x1="1099.5" x2="1099.5" y1="123.2422" y2="1106.3027"/><line style="stroke:#181818;stroke-width:0.5;stroke-dasharray:5.0,5.0;" x1="1225.5" x2="1225.5" y1="123.2422" y2="1106.3027"/><text fill="#000000" font-family="sans-serif" font-size="14" lengthAdjust="spacing" textLength="41" x="5" y="119.7285">Owner</text><ellipse cx="28.5" cy="53.1211" fill="#E3E3E3" rx="8" ry="8" style="stroke:#181818;stroke-width:0.5;"/><path d="M28.5,61.1211 L28.5,88.1211 M15.5,69.1211 L41.5,69.1211 M28.5,88.1211 L15.5,103.1211 M28.5,88.1211 L41.5,103.1211 " fill="none" style="stroke:#181818;stroke-width:0.5;"/><text fill="#000000" font-family="sans-serif" font-size="14" lengthAdjust="spacing" textLength="41" x="5" y="1120.4102">Owner</text><ellipse cx="28.5" cy="1132.4238" fill="#E3E3E3" rx="8" ry="8" style="stroke:#181818;stroke-width:0.5;"/><path d="M28.5,1140.4238 L28.5,1167.4238 M15.5,1148.4238 L41.5,1148.4238 M28.5,1167.4238 L15.5,1182.4238 M28.5,1167.4238 L41.5,1182.4238 " fill="none" style="stroke:#181818;stroke-width:0.5;"/><rect fill="#E3E3E3" height="32.6211" rx="2.5" ry="2.5" style="stroke:#181818;stroke-width:0.5;" width="170" x="236.5" y="89.6211"/><text fill="#000000" font-family="sans-serif" font-size="14" lengthAdjust="spacing" textLength="156" x="243.5" y="111.7285">:SendPropertyRequestUI</text><rect fill="#E3E3E3" height="32.6211" rx="2.5" ry="2.5" style="stroke:#181818;stroke-width:0.5;" width="170" x="236.5" y="1105.3027"/><text fill="#000000" font-family="sans-serif" font-size="14" lengthAdjust="spacing" textLength="156" x="243.5" y="1127.4102">:SendPropertyRequestUI</text><rect fill="#E3E3E3" height="32.6211" rx="2.5" ry="2.5" style="stroke:#181818;stroke-width:0.5;" width="220" x="416.5" y="1105.3027"/><text fill="#000000" font-family="sans-serif" font-size="14" lengthAdjust="spacing" textLength="206" x="423.5" y="1127.4102">:SendPropertyRequestController</text><rect fill="#E3E3E3" height="51.2422" rx="2.5" ry="2.5" style="stroke:#181818;stroke-width:0.5;" width="138" x="657.5" y="71"/><text fill="#000000" font-family="sans-serif" font-size="14" lengthAdjust="spacing" textLength="120" x="666.5" y="93.1074">manageEmployees</text><text fill="#000000" font-family="sans-serif" font-size="14" lengthAdjust="spacing" textLength="124" x="664.5" y="111.7285">:ManageEmployees</text><rect fill="#E3E3E3" height="51.2422" rx="2.5" ry="2.5" style="stroke:#181818;stroke-width:0.5;" width="138" x="657.5" y="1105.3027"/><text fill="#000000" font-family="sans-serif" font-size="14" lengthAdjust="spacing" textLength="120" x="666.5" y="1127.4102">manageEmployees</text><text fill="#000000" font-family="sans-serif" font-size="14" lengthAdjust="spacing" textLength="124" x="664.5" y="1146.0313">:ManageEmployees</text><rect fill="#E3E3E3" height="51.2422" rx="2.5" ry="2.5" style="stroke:#181818;stroke-width:0.5;" width="129" x="805.5" y="71"/><text fill="#000000" font-family="sans-serif" font-size="14" lengthAdjust="spacing" textLength="111" x="814.5" y="93.1074">manageRequests</text><text fill="#000000" font-family="sans-serif" font-size="14" lengthAdjust="spacing" textLength="115" x="812.5" y="111.7285">:ManageRequests</text><rect fill="#E3E3E3" height="51.2422" rx="2.5" ry="2.5" style="stroke:#181818;stroke-width:0.5;" width="129" x="805.5" y="1105.3027"/><text fill="#000000" font-family="sans-serif" font-size="14" lengthAdjust="spacing" textLength="111" x="814.5" y="1127.4102">manageRequests</text><text fill="#000000" font-family="sans-serif" font-size="14" lengthAdjust="spacing" textLength="115" x="812.5" y="1146.0313">:ManageRequests</text><rect fill="#E3E3E3" height="32.6211" rx="2.5" ry="2.5" style="stroke:#181818;stroke-width:0.5;" width="97" x="944.5" y="89.6211"/><text fill="#000000" font-family="sans-serif" font-size="14" lengthAdjust="spacing" textLength="83" x="951.5" y="111.7285">:Repositories</text><rect fill="#E3E3E3" height="32.6211" rx="2.5" ry="2.5" style="stroke:#181818;stroke-width:0.5;" width="97" x="944.5" y="1105.3027"/><text fill="#000000" font-family="sans-serif" font-size="14" lengthAdjust="spacing" textLength="83" x="951.5" y="1127.4102">:Repositories</text><rect fill="#E3E3E3" height="51.2422" rx="2.5" ry="2.5" style="stroke:#181818;stroke-width:0.5;" width="97" x="1051.5" y="71"/><text fill="#000000" font-family="sans-serif" font-size="14" lengthAdjust="spacing" textLength="74" x="1063" y="93.1074">repositories</text><text fill="#000000" font-family="sans-serif" font-size="14" lengthAdjust="spacing" textLength="83" x="1058.5" y="111.7285">:Repositories</text><rect fill="#E3E3E3" height="51.2422" rx="2.5" ry="2.5" style="stroke:#181818;stroke-width:0.5;" width="97" x="1051.5" y="1105.3027"/><text fill="#000000" font-family="sans-serif" font-size="14" lengthAdjust="spacing" textLength="74" x="1063" y="1127.4102">repositories</text><text fill="#000000" font-family="sans-serif" font-size="14" lengthAdjust="spacing" textLength="83" x="1058.5" y="1146.0313">:Repositories</text><rect fill="#E3E3E3" height="51.2422" rx="2.5" ry="2.5" style="stroke:#181818;stroke-width:0.5;" width="135" x="1158.5" y="71"/><text fill="#000000" font-family="sans-serif" font-size="14" lengthAdjust="spacing" textLength="120" x="1166" y="93.1074">requestRepository:</text><text fill="#000000" font-family="sans-serif" font-size="14" lengthAdjust="spacing" textLength="121" x="1165.5" y="111.7285">RequestRepository</text><rect fill="#E3E3E3" height="51.2422" rx="2.5" ry="2.5" style="stroke:#181818;stroke-width:0.5;" width="135" x="1158.5" y="1105.3027"/><text fill="#000000" font-family="sans-serif" font-size="14" lengthAdjust="spacing" textLength="120" x="1166" y="1127.4102">requestRepository:</text><text fill="#000000" font-family="sans-serif" font-size="14" lengthAdjust="spacing" textLength="121" x="1165.5" y="1146.0313">RequestRepository</text><rect fill="#FFFFFF" height="955.0605" style="stroke:#181818;stroke-width:1.0;" width="10" x="23.5" y="133.2422"/><rect fill="#FFFFFF" height="386.8223" style="stroke:#181818;stroke-width:1.0;" width="10" x="316.5" y="156.5332"/><rect fill="#FFFFFF" height="31.291" style="stroke:#181818;stroke-width:1.0;" width="10" x="316.5" y="574.6465"/><rect fill="#FFFFFF" height="75.582" style="stroke:#181818;stroke-width:1.0;" width="10" x="316.5" y="637.2285"/><rect fill="#FFFFFF" height="344.2012" style="stroke:#181818;stroke-width:1.0;" width="10" x="316.5" y="744.1016"/><rect fill="#FFFFFF" height="263.3281" style="stroke:#181818;stroke-width:1.0;" width="10" x="521.5" y="231.4453"/><rect fill="#FFFFFF" height="281.6191" style="stroke:#181818;stroke-width:1.0;" width="10" x="521.5" y="775.3926"/><rect fill="#FFFFFF" height="200.7461" style="stroke:#181818;stroke-width:1.0;" width="10" x="721.5" y="262.7363"/><rect fill="#FFFFFF" height="219.0371" style="stroke:#181818;stroke-width:1.0;" width="10" x="865" y="806.6836"/><rect fill="#FFFFFF" height="31.291" style="stroke:#181818;stroke-width:1.0;" width="10" x="988" y="294.0273"/><rect fill="#FFFFFF" height="31.291" style="stroke:#181818;stroke-width:1.0;" width="10" x="988" y="837.9746"/><rect fill="#FFFFFF" height="31.291" style="stroke:#181818;stroke-width:1.0;" width="10" x="1095" y="356.6094"/><rect fill="#FFFFFF" height="31.291" style="stroke:#181818;stroke-width:1.0;" width="10" x="1095" y="900.5566"/><rect fill="#FFFFFF" height="31.291" style="stroke:#181818;stroke-width:1.0;" width="10" x="1221" y="963.1387"/><polygon fill="#181818" points="304.5,152.5332,314.5,156.5332,304.5,160.5332,308.5,156.5332" style="stroke:#181818;stroke-width:1.0;"/><line style="stroke:#181818;stroke-width:1.0;" x1="33.5" x2="310.5" y1="156.5332" y2="156.5332"/><text fill="#000000" font-family="sans-serif" font-size="13" font-weight="bold" lengthAdjust="spacing" textLength="7" x="40.5" y="151.2705">1</text><text fill="#000000" font-family="sans-serif" font-size="13" lengthAdjust="spacing" textLength="152" x="51.5" y="151.2705">asks to create property ad</text><polygon fill="#181818" points="404.5,183.8242,414.5,187.8242,404.5,191.8242,408.5,187.8242" style="stroke:#181818;stroke-width:1.0;"/><line style="stroke:#181818;stroke-width:1.0;" x1="326.5" x2="410.5" y1="187.8242" y2="187.8242"/><text fill="#000000" font-family="sans-serif" font-size="13" font-weight="bold" lengthAdjust="spacing" textLength="7" x="333.5" y="182.5615">2</text><text fill="#000000" font-family="sans-serif" font-size="13" lengthAdjust="spacing" textLength="36" x="344.5" y="182.5615">create</text><rect fill="#E3E3E3" height="32.6211" rx="2.5" ry="2.5" style="stroke:#181818;stroke-width:0.5;" width="220" x="416.5" y="164.5332"/><text fill="#000000" font-family="sans-serif" font-size="14" lengthAdjust="spacing" textLength="206" x="423.5" y="186.6406">:SendPropertyRequestController</text><polygon fill="#181818" points="509.5,227.4453,519.5,231.4453,509.5,235.4453,513.5,231.4453" style="stroke:#181818;stroke-width:1.0;"/><line style="stroke:#181818;stroke-width:1.0;" x1="326.5" x2="515.5" y1="231.4453" y2="231.4453"/><text fill="#000000" font-family="sans-serif" font-size="13" font-weight="bold" lengthAdjust="spacing" textLength="7" x="333.5" y="226.1826">3</text><text fill="#000000" font-family="sans-serif" font-size="13" lengthAdjust="spacing" textLength="67" x="344.5" y="226.1826">getAgents()</text><polygon fill="#181818" points="709.5,258.7363,719.5,262.7363,709.5,266.7363,713.5,262.7363" style="stroke:#181818;stroke-width:1.0;"/><line style="stroke:#181818;stroke-width:1.0;" x1="531.5" x2="715.5" y1="262.7363" y2="262.7363"/><text fill="#000000" font-family="sans-serif" font-size="13" font-weight="bold" lengthAdjust="spacing" textLength="7" x="538.5" y="257.4736">4</text><text fill="#000000" font-family="sans-serif" font-size="13" lengthAdjust="spacing" textLength="160" x="549.5" y="257.4736">getEmployeeByRole(Agent)</text><polygon fill="#181818" points="976,290.0273,986,294.0273,976,298.0273,980,294.0273" style="stroke:#181818;stroke-width:1.0;"/><line style="stroke:#181818;stroke-width:1.0;" x1="731.5" x2="982" y1="294.0273" y2="294.0273"/><text fill="#000000" font-family="sans-serif" font-size="13" font-weight="bold" lengthAdjust="spacing" textLength="7" x="738.5" y="288.7646">5</text><text fill="#000000" font-family="sans-serif" font-size="13" lengthAdjust="spacing" textLength="75" x="749.5" y="288.7646">getInstance()</text><polygon fill="#181818" points="742.5,321.3184,732.5,325.3184,742.5,329.3184,738.5,325.3184" style="stroke:#181818;stroke-width:1.0;"/><line style="stroke:#181818;stroke-width:1.0;stroke-dasharray:2.0,2.0;" x1="736.5" x2="992" y1="325.3184" y2="325.3184"/><text fill="#000000" font-family="sans-serif" font-size="13" font-weight="bold" lengthAdjust="spacing" textLength="7" x="748.5" y="320.0557">6</text><text fill="#000000" font-family="sans-serif" font-size="13" lengthAdjust="spacing" textLength="67" x="759.5" y="320.0557">repositories</text><polygon fill="#181818" points="1083,352.6094,1093,356.6094,1083,360.6094,1087,356.6094" style="stroke:#181818;stroke-width:1.0;"/><line style="stroke:#181818;stroke-width:1.0;" x1="731.5" x2="1089" y1="356.6094" y2="356.6094"/><text fill="#000000" font-family="sans-serif" font-size="13" font-weight="bold" lengthAdjust="spacing" textLength="7" x="738.5" y="351.3467">7</text><text fill="#000000" font-family="sans-serif" font-size="13" lengthAdjust="spacing" textLength="146" x="749.5" y="351.3467">getEmployeeRepository()</text><polygon fill="#181818" points="742.5,383.9004,732.5,387.9004,742.5,391.9004,738.5,387.9004" style="stroke:#181818;stroke-width:1.0;"/><line style="stroke:#181818;stroke-width:1.0;stroke-dasharray:2.0,2.0;" x1="736.5" x2="1099" y1="387.9004" y2="387.9004"/><text fill="#000000" font-family="sans-serif" font-size="13" font-weight="bold" lengthAdjust="spacing" textLength="7" x="748.5" y="382.6377">8</text><text fill="#000000" font-family="sans-serif" font-size="13" lengthAdjust="spacing" textLength="120" x="759.5" y="382.6377">EmployeeRepository</text><line style="stroke:#181818;stroke-width:1.0;" x1="731.5" x2="773.5" y1="419.1914" y2="419.1914"/><line style="stroke:#181818;stroke-width:1.0;" x1="773.5" x2="773.5" y1="419.1914" y2="432.1914"/><line style="stroke:#181818;stroke-width:1.0;" x1="732.5" x2="773.5" y1="432.1914" y2="432.1914"/><polygon fill="#181818" points="742.5,428.1914,732.5,432.1914,742.5,436.1914,738.5,432.1914" style="stroke:#181818;stroke-width:1.0;"/><text fill="#000000" font-family="sans-serif" font-size="13" font-weight="bold" lengthAdjust="spacing" textLength="7" x="738.5" y="413.9287">9</text><text fill="#000000" font-family="sans-serif" font-size="13" lengthAdjust="spacing" textLength="108" x="749.5" y="413.9287">filterByRole(Agent)</text><polygon fill="#181818" points="542.5,459.4824,532.5,463.4824,542.5,467.4824,538.5,463.4824" style="stroke:#181818;stroke-width:1.0;"/><line style="stroke:#181818;stroke-width:1.0;stroke-dasharray:2.0,2.0;" x1="536.5" x2="725.5" y1="463.4824" y2="463.4824"/><text fill="#000000" font-family="sans-serif" font-size="13" font-weight="bold" lengthAdjust="spacing" textLength="14" x="548.5" y="458.2197">10</text><text fill="#000000" font-family="sans-serif" font-size="13" lengthAdjust="spacing" textLength="71" x="566.5" y="458.2197">listOfAgents</text><polygon fill="#181818" points="337.5,490.7734,327.5,494.7734,337.5,498.7734,333.5,494.7734" style="stroke:#181818;stroke-width:1.0;"/><line style="stroke:#181818;stroke-width:1.0;stroke-dasharray:2.0,2.0;" x1="331.5" x2="525.5" y1="494.7734" y2="494.7734"/><text fill="#000000" font-family="sans-serif" font-size="13" font-weight="bold" lengthAdjust="spacing" textLength="14" x="343.5" y="489.5107">11</text><text fill="#000000" font-family="sans-serif" font-size="13" lengthAdjust="spacing" textLength="71" x="361.5" y="489.5107">listOfAgents</text><polygon fill="#181818" points="44.5,539.3555,34.5,543.3555,44.5,547.3555,40.5,543.3555" style="stroke:#181818;stroke-width:1.0;"/><line style="stroke:#181818;stroke-width:1.0;stroke-dasharray:2.0,2.0;" x1="38.5" x2="320.5" y1="543.3555" y2="543.3555"/><text fill="#000000" font-family="sans-serif" font-size="13" font-weight="bold" lengthAdjust="spacing" textLength="14" x="50.5" y="529.4473">12</text><text fill="#000000" font-family="sans-serif" font-size="13" lengthAdjust="spacing" textLength="115" x="68.5" y="520.8018">shows list of agents</text><text fill="#000000" font-family="sans-serif" font-size="13" lengthAdjust="spacing" textLength="132" x="72.5" y="538.0928">and asks to select one</text><polygon fill="#181818" points="304.5,570.6465,314.5,574.6465,304.5,578.6465,308.5,574.6465" style="stroke:#181818;stroke-width:1.0;"/><line style="stroke:#181818;stroke-width:1.0;" x1="33.5" x2="310.5" y1="574.6465" y2="574.6465"/><text fill="#000000" font-family="sans-serif" font-size="13" font-weight="bold" lengthAdjust="spacing" textLength="14" x="40.5" y="569.3838">13</text><text fill="#000000" font-family="sans-serif" font-size="13" lengthAdjust="spacing" textLength="148" x="58.5" y="569.3838">selects responsible agent</text><polygon fill="#181818" points="44.5,601.9375,34.5,605.9375,44.5,609.9375,40.5,605.9375" style="stroke:#181818;stroke-width:1.0;"/><line style="stroke:#181818;stroke-width:1.0;stroke-dasharray:2.0,2.0;" x1="38.5" x2="320.5" y1="605.9375" y2="605.9375"/><text fill="#000000" font-family="sans-serif" font-size="13" font-weight="bold" lengthAdjust="spacing" textLength="14" x="50.5" y="600.6748">14</text><text fill="#000000" font-family="sans-serif" font-size="13" lengthAdjust="spacing" textLength="166" x="68.5" y="600.6748">requests data about property</text><polygon fill="#181818" points="304.5,633.2285,314.5,637.2285,304.5,641.2285,308.5,637.2285" style="stroke:#181818;stroke-width:1.0;"/><line style="stroke:#181818;stroke-width:1.0;" x1="33.5" x2="310.5" y1="637.2285" y2="637.2285"/><text fill="#000000" font-family="sans-serif" font-size="13" font-weight="bold" lengthAdjust="spacing" textLength="14" x="40.5" y="631.9658">15</text><text fill="#000000" font-family="sans-serif" font-size="13" lengthAdjust="spacing" textLength="209" x="58.5" y="631.9658">types requested data about property</text><line style="stroke:#181818;stroke-width:1.0;" x1="326.5" x2="368.5" y1="668.5195" y2="668.5195"/><line style="stroke:#181818;stroke-width:1.0;" x1="368.5" x2="368.5" y1="668.5195" y2="681.5195"/><line style="stroke:#181818;stroke-width:1.0;" x1="327.5" x2="368.5" y1="681.5195" y2="681.5195"/><polygon fill="#181818" points="337.5,677.5195,327.5,681.5195,337.5,685.5195,333.5,681.5195" style="stroke:#181818;stroke-width:1.0;"/><text fill="#000000" font-family="sans-serif" font-size="13" font-weight="bold" lengthAdjust="spacing" textLength="14" x="333.5" y="663.2568">16</text><text fill="#000000" font-family="sans-serif" font-size="13" lengthAdjust="spacing" textLength="70" x="351.5" y="663.2568">validateData</text><polygon fill="#181818" points="44.5,708.8105,34.5,712.8105,44.5,716.8105,40.5,712.8105" style="stroke:#181818;stroke-width:1.0;"/><line style="stroke:#181818;stroke-width:1.0;stroke-dasharray:2.0,2.0;" x1="38.5" x2="320.5" y1="712.8105" y2="712.8105"/><text fill="#000000" font-family="sans-serif" font-size="13" font-weight="bold" lengthAdjust="spacing" textLength="14" x="50.5" y="707.5479">17</text><text fill="#000000" font-family="sans-serif" font-size="13" lengthAdjust="spacing" textLength="241" x="68.5" y="707.5479">shows selected agent and requested data</text><polygon fill="#181818" points="304.5,740.1016,314.5,744.1016,304.5,748.1016,308.5,744.1016" style="stroke:#181818;stroke-width:1.0;"/><line style="stroke:#181818;stroke-width:1.0;" x1="33.5" x2="310.5" y1="744.1016" y2="744.1016"/><text fill="#000000" font-family="sans-serif" font-size="13" font-weight="bold" lengthAdjust="spacing" textLength="14" x="40.5" y="738.8389">18</text><text fill="#000000" font-family="sans-serif" font-size="13" lengthAdjust="spacing" textLength="93" x="58.5" y="738.8389">submits request</text><polygon fill="#181818" points="509.5,771.3926,519.5,775.3926,509.5,779.3926,513.5,775.3926" style="stroke:#181818;stroke-width:1.0;"/><line style="stroke:#181818;stroke-width:1.0;" x1="326.5" x2="515.5" y1="775.3926" y2="775.3926"/><text fill="#000000" font-family="sans-serif" font-size="13" font-weight="bold" lengthAdjust="spacing" textLength="14" x="333.5" y="770.1299">19</text><text fill="#000000" font-family="sans-serif" font-size="13" lengthAdjust="spacing" textLength="138" x="351.5" y="770.1299">submitRequest(request)</text><polygon fill="#181818" points="853,802.6836,863,806.6836,853,810.6836,857,806.6836" style="stroke:#181818;stroke-width:1.0;"/><line style="stroke:#181818;stroke-width:1.0;" x1="531.5" x2="859" y1="806.6836" y2="806.6836"/><text fill="#000000" font-family="sans-serif" font-size="13" font-weight="bold" lengthAdjust="spacing" textLength="14" x="538.5" y="801.4209">20</text><text fill="#000000" font-family="sans-serif" font-size="13" lengthAdjust="spacing" textLength="120" x="556.5" y="801.4209">addRequest(request)</text><polygon fill="#181818" points="976,833.9746,986,837.9746,976,841.9746,980,837.9746" style="stroke:#181818;stroke-width:1.0;"/><line style="stroke:#181818;stroke-width:1.0;" x1="875" x2="982" y1="837.9746" y2="837.9746"/><text fill="#000000" font-family="sans-serif" font-size="13" font-weight="bold" lengthAdjust="spacing" textLength="14" x="882" y="832.7119">21</text><text fill="#000000" font-family="sans-serif" font-size="13" lengthAdjust="spacing" textLength="75" x="900" y="832.7119">getInstance()</text><polygon fill="#181818" points="886,865.2656,876,869.2656,886,873.2656,882,869.2656" style="stroke:#181818;stroke-width:1.0;"/><line style="stroke:#181818;stroke-width:1.0;stroke-dasharray:2.0,2.0;" x1="880" x2="992" y1="869.2656" y2="869.2656"/><text fill="#000000" font-family="sans-serif" font-size="13" font-weight="bold" lengthAdjust="spacing" textLength="14" x="892" y="864.0029">22</text><text fill="#000000" font-family="sans-serif" font-size="13" lengthAdjust="spacing" textLength="67" x="910" y="864.0029">repositories</text><polygon fill="#181818" points="1083,896.5566,1093,900.5566,1083,904.5566,1087,900.5566" style="stroke:#181818;stroke-width:1.0;"/><line style="stroke:#181818;stroke-width:1.0;" x1="875" x2="1089" y1="900.5566" y2="900.5566"/><text fill="#000000" font-family="sans-serif" font-size="13" font-weight="bold" lengthAdjust="spacing" textLength="14" x="882" y="895.2939">23</text><text fill="#000000" font-family="sans-serif" font-size="13" lengthAdjust="spacing" textLength="136" x="900" y="895.2939">getRequestRepository()</text><polygon fill="#181818" points="886,927.8477,876,931.8477,886,935.8477,882,931.8477" style="stroke:#181818;stroke-width:1.0;"/><line style="stroke:#181818;stroke-width:1.0;stroke-dasharray:2.0,2.0;" x1="880" x2="1099" y1="931.8477" y2="931.8477"/><text fill="#000000" font-family="sans-serif" font-size="13" font-weight="bold" lengthAdjust="spacing" textLength="14" x="892" y="926.585">24</text><text fill="#000000" font-family="sans-serif" font-size="13" lengthAdjust="spacing" textLength="110" x="910" y="926.585">RequestRepository</text><polygon fill="#181818" points="1209,959.1387,1219,963.1387,1209,967.1387,1213,963.1387" style="stroke:#181818;stroke-width:1.0;"/><line style="stroke:#181818;stroke-width:1.0;" x1="875" x2="1215" y1="963.1387" y2="963.1387"/><text fill="#000000" font-family="sans-serif" font-size="13" font-weight="bold" lengthAdjust="spacing" textLength="14" x="882" y="957.876">25</text><text fill="#000000" font-family="sans-serif" font-size="13" lengthAdjust="spacing" textLength="120" x="900" y="957.876">addRequest(request)</text><polygon fill="#181818" points="886,990.4297,876,994.4297,886,998.4297,882,994.4297" style="stroke:#181818;stroke-width:1.0;"/><line style="stroke:#181818;stroke-width:1.0;stroke-dasharray:2.0,2.0;" x1="880" x2="1225" y1="994.4297" y2="994.4297"/><text fill="#000000" font-family="sans-serif" font-size="13" font-weight="bold" lengthAdjust="spacing" textLength="14" x="892" y="989.167">26</text><text fill="#000000" font-family="sans-serif" font-size="13" lengthAdjust="spacing" textLength="53" x="910" y="989.167">true/false</text><polygon fill="#181818" points="542.5,1021.7207,532.5,1025.7207,542.5,1029.7207,538.5,1025.7207" style="stroke:#181818;stroke-width:1.0;"/><line style="stroke:#181818;stroke-width:1.0;stroke-dasharray:2.0,2.0;" x1="536.5" x2="869" y1="1025.7207" y2="1025.7207"/><text fill="#000000" font-family="sans-serif" font-size="13" font-weight="bold" lengthAdjust="spacing" textLength="14" x="548.5" y="1020.458">27</text><text fill="#000000" font-family="sans-serif" font-size="13" lengthAdjust="spacing" textLength="142" x="566.5" y="1020.458">Show operation success</text><polygon fill="#181818" points="337.5,1053.0117,327.5,1057.0117,337.5,1061.0117,333.5,1057.0117" style="stroke:#181818;stroke-width:1.0;"/><line style="stroke:#181818;stroke-width:1.0;stroke-dasharray:2.0,2.0;" x1="331.5" x2="525.5" y1="1057.0117" y2="1057.0117"/><text fill="#000000" font-family="sans-serif" font-size="13" font-weight="bold" lengthAdjust="spacing" textLength="14" x="343.5" y="1051.749">28</text><text fill="#000000" font-family="sans-serif" font-size="13" lengthAdjust="spacing" textLength="140" x="361.5" y="1051.749">show operation success</text><polygon fill="#181818" points="39.5,1084.3027,29.5,1088.3027,39.5,1092.3027,35.5,1088.3027" style="stroke:#181818;stroke-width:1.0;"/><line style="stroke:#181818;stroke-width:1.0;stroke-dasharray:2.0,2.0;" x1="33.5" x2="320.5" y1="1088.3027" y2="1088.3027"/><text fill="#000000" font-family="sans-serif" font-size="13" font-weight="bold" lengthAdjust="spacing" textLength="14" x="45.5" y="1083.04">29</text><text fill="#000000" font-family="sans-serif" font-size="13" lengthAdjust="spacing" textLength="140" x="63.5" y="1083.04">show operation success</text><!--SRC=[fLTDJ-Cm4BtxLuouq2AgvR2d7f20xW4916hXniLDfgr5OcTj1xR_Vctdst7ILEJKE9xtPiRFpwxwP3oZagQG2YwYWnGfWfOv4bL_oMZqIVUuqSS4GMAaATydxGdgG6FnpVWUTZHHI8XcsanztzpS_8O5m0R_viWZX1MZUnimswpcXD1S2vwdMvI4N1vOZB0JGc_5Fq8ZBIHSl7npb1T05TojdedXqYnY6UKQBfORvF6h51bAVLnRVANV7ztSzyVJKny4rr8aIGd_yBP-wWQbb9kI_wHP8ew8weCldxiZBiwR5O8e2Hk4Qg05K0rvUQyn4ugPJh2IhXuuRfXT0jE-ReXiHHZ27i3hqzsR7-6e6-Jb1r_xOoMvDqg8NIVsHJMwzI5GFkO55hTc7M1f0ZyLQ06HH3ilAvS1QDpChr7Cof5BQ3q6Oc6GBE0IobGLn5HJc4dSeRIgkeOOLIHPffdWrm2CxuHCQG8VlFj5OtJWB39VEiDnBcdnAn9ApqaxWSioRoSGFxDRDtnrPN8hff61AMR27lNT7hbMiov1NRjZw7ooZuisA9xG2i3gzVwu5WdE7Fwy1r4p-6Bji_aiXZWWkOByaIlZ0n7E-emTrf1cWn7s2R4j-kLRBJJA3gB5U7u6WVBjXkaskq4xLRdRR8EbEkHWRNscKnKECmLAwajfnnADigkYQMYDlXEczCkka3WPIRKdmh3YA_iOX6r1zdTEnpRKGNmh1mHY1zH16MUWFAxDIM5YJZKG74a0txgIRsj5X38wL9dWYctDSUUWIS_G9dWPtOfSrzv89l3hOuQgGi5u46OmanBdYoRCnEBAn0-aMlIlADWmkIfTzxhiKx9M-JPbkixxL8Qbj8geylYPbR5pCk2WGU5sRRGwRktn5CU3m2CcMX_Om_lRv_g1b_xSLwTxR9Nl18lzgTsEDwjntjx5uvmsZPlmY24tZUXVVCxenZJ-a5OyqZF4Eg2NtlNjj5By71QXFMJ_BVmgBlvdoUJiVFmkDHQnCHu5rlRSHSuuHXIX6bTjxqngzdJmC2gCS9J4FvEwLZeAu1bdwzNThFy3]--></g></svg>