<?xml version="1.0" encoding="us-ascii" standalone="no"?><svg xmlns="http://www.w3.org/2000/svg" xmlns:xlink="http://www.w3.org/1999/xlink" contentStyleType="text/css" height="671.4px" preserveAspectRatio="none" style="width:792px;height:671px;background:#FFFFFF;" version="1.1" viewBox="0 0 792 671" width="792.6px" zoomAndPan="magnify"><defs/><g><text fill="#000000" font-family="sans-serif" font-size="8.4" font-weight="bold" lengthAdjust="spacing" textLength="178.2" x="303.15" y="15.0645">US004 Request For Listing - Class Diagram</text><!--class Owner--><g id="elem_Owner"><rect codeLine="6" fill="#F1F1F1" height="28.8" id="Owner" rx="1.5" ry="1.5" style="stroke:#181818;stroke-width:0.3;" width="43.8" x="72.3" y="36.8303"/><ellipse cx="81.3" cy="46.4303" fill="#ADD1B2" rx="6.6" ry="6.6" style="stroke:#181818;stroke-width:0.6;"/><path d="M82.9594,43.9553 Q83.0531,43.824 83.1656,43.7584 Q83.2781,43.6928 83.4094,43.6928 Q83.6344,43.6928 83.775,43.8521 Q83.9156,44.0021 83.9156,44.3678 L83.9156,45.2396 Q83.9156,45.6053 83.775,45.7646 Q83.6344,45.924 83.4094,45.924 Q83.2031,45.924 83.0813,45.8021 Q82.9594,45.6896 82.8938,45.3803 Q82.8656,45.1646 82.7531,45.0521 Q82.5562,44.8271 82.1906,44.6959 Q81.825,44.5646 81.45,44.5646 Q80.9906,44.5646 80.6063,44.7615 Q80.2313,44.9584 79.9312,45.4084 Q79.6406,45.8584 79.6406,46.4771 L79.6406,47.1334 Q79.6406,47.874 80.175,48.3709 Q80.7094,48.8584 81.6656,48.8584 Q82.2281,48.8584 82.6219,48.7084 Q82.8563,48.6146 83.1094,48.3521 Q83.2688,48.1928 83.3531,48.1459 Q83.4469,48.099 83.5688,48.099 Q83.7656,48.099 83.9156,48.2584 Q84.075,48.4084 84.075,48.6146 Q84.075,48.8209 83.8687,49.0646 Q83.5688,49.4115 83.0906,49.6084 Q82.4438,49.8803 81.6656,49.8803 Q80.7563,49.8803 80.0344,49.5053 Q79.4438,49.2053 79.0313,48.5678 Q78.6187,47.9209 78.6187,47.1521 L78.6187,46.4584 Q78.6187,45.6615 78.9844,44.9771 Q79.3594,44.2834 80.0156,43.9178 Q80.6719,43.5428 81.4125,43.5428 Q81.8531,43.5428 82.2375,43.6459 Q82.6313,43.7396 82.9594,43.9553 Z " fill="#000000"/><text fill="#000000" font-family="sans-serif" font-size="8.4" lengthAdjust="spacing" textLength="24.6" x="89.7" y="49.9084">Owner</text><line style="stroke:#181818;stroke-width:0.3;" x1="72.9" x2="115.5" y1="56.0303" y2="56.0303"/><line style="stroke:#181818;stroke-width:0.6;" x1="72.9" x2="115.5" y1="60.8303" y2="60.8303"/></g><!--class OwnerUI--><g id="elem_OwnerUI"><rect codeLine="9" fill="#F1F1F1" height="39.9727" id="OwnerUI" rx="1.5" ry="1.5" style="stroke:#181818;stroke-width:0.3;" width="51" x="202.5" y="31.1303"/><ellipse cx="211.5" cy="40.7303" fill="#ADD1B2" rx="6.6" ry="6.6" style="stroke:#181818;stroke-width:0.6;"/><path d="M213.1594,38.2553 Q213.2531,38.124 213.3656,38.0584 Q213.4781,37.9928 213.6094,37.9928 Q213.8344,37.9928 213.975,38.1521 Q214.1156,38.3021 214.1156,38.6678 L214.1156,39.5396 Q214.1156,39.9053 213.975,40.0646 Q213.8344,40.224 213.6094,40.224 Q213.4031,40.224 213.2813,40.1021 Q213.1594,39.9896 213.0938,39.6803 Q213.0656,39.4646 212.9531,39.3521 Q212.7563,39.1271 212.3906,38.9959 Q212.025,38.8646 211.65,38.8646 Q211.1906,38.8646 210.8063,39.0615 Q210.4313,39.2584 210.1313,39.7084 Q209.8406,40.1584 209.8406,40.7771 L209.8406,41.4334 Q209.8406,42.174 210.375,42.6709 Q210.9094,43.1584 211.8656,43.1584 Q212.4281,43.1584 212.8219,43.0084 Q213.0563,42.9146 213.3094,42.6521 Q213.4688,42.4928 213.5531,42.4459 Q213.6469,42.399 213.7687,42.399 Q213.9656,42.399 214.1156,42.5584 Q214.275,42.7084 214.275,42.9146 Q214.275,43.1209 214.0688,43.3646 Q213.7687,43.7115 213.2906,43.9084 Q212.6437,44.1803 211.8656,44.1803 Q210.9562,44.1803 210.2344,43.8053 Q209.6437,43.5053 209.2313,42.8678 Q208.8188,42.2209 208.8188,41.4521 L208.8188,40.7584 Q208.8188,39.9615 209.1844,39.2771 Q209.5594,38.5834 210.2156,38.2178 Q210.8719,37.8428 211.6125,37.8428 Q212.0531,37.8428 212.4375,37.9459 Q212.8312,38.0396 213.1594,38.2553 Z " fill="#000000"/><text fill="#000000" font-family="sans-serif" font-size="8.4" lengthAdjust="spacing" textLength="31.8" x="219.9" y="44.2084">OwnerUI</text><line style="stroke:#181818;stroke-width:0.3;" x1="203.1" x2="252.9" y1="50.3303" y2="50.3303"/><line style="stroke:#181818;stroke-width:0.3;" x1="203.1" x2="252.9" y1="55.1303" y2="55.1303"/><text fill="#000000" font-family="sans-serif" font-size="8.4" lengthAdjust="spacing" textLength="23.4" x="206.1" y="66.5947">+run()</text></g><!--class SendPropertyRequestUI--><g id="elem_SendPropertyRequestUI"><rect codeLine="14" fill="#F1F1F1" height="39.9727" id="SendPropertyRequestUI" rx="1.5" ry="1.5" style="stroke:#181818;stroke-width:0.3;" width="110.4" x="290.4" y="31.1303"/><ellipse cx="299.4" cy="40.7303" fill="#ADD1B2" rx="6.6" ry="6.6" style="stroke:#181818;stroke-width:0.6;"/><path d="M301.0594,38.2553 Q301.1531,38.124 301.2656,38.0584 Q301.3781,37.9928 301.5094,37.9928 Q301.7344,37.9928 301.875,38.1521 Q302.0156,38.3021 302.0156,38.6678 L302.0156,39.5396 Q302.0156,39.9053 301.875,40.0646 Q301.7344,40.224 301.5094,40.224 Q301.3031,40.224 301.1813,40.1021 Q301.0594,39.9896 300.9938,39.6803 Q300.9656,39.4646 300.8531,39.3521 Q300.6563,39.1271 300.2906,38.9959 Q299.925,38.8646 299.55,38.8646 Q299.0906,38.8646 298.7063,39.0615 Q298.3313,39.2584 298.0313,39.7084 Q297.7406,40.1584 297.7406,40.7771 L297.7406,41.4334 Q297.7406,42.174 298.275,42.6709 Q298.8094,43.1584 299.7656,43.1584 Q300.3281,43.1584 300.7219,43.0084 Q300.9563,42.9146 301.2094,42.6521 Q301.3688,42.4928 301.4531,42.4459 Q301.5469,42.399 301.6688,42.399 Q301.8656,42.399 302.0156,42.5584 Q302.175,42.7084 302.175,42.9146 Q302.175,43.1209 301.9688,43.3646 Q301.6688,43.7115 301.1906,43.9084 Q300.5438,44.1803 299.7656,44.1803 Q298.8563,44.1803 298.1344,43.8053 Q297.5438,43.5053 297.1312,42.8678 Q296.7188,42.2209 296.7188,41.4521 L296.7188,40.7584 Q296.7188,39.9615 297.0844,39.2771 Q297.4594,38.5834 298.1156,38.2178 Q298.7719,37.8428 299.5125,37.8428 Q299.9531,37.8428 300.3375,37.9459 Q300.7313,38.0396 301.0594,38.2553 Z " fill="#000000"/><text fill="#000000" font-family="sans-serif" font-size="8.4" lengthAdjust="spacing" textLength="91.2" x="307.8" y="44.2084">SendPropertyRequestUI</text><line style="stroke:#181818;stroke-width:0.3;" x1="291" x2="400.2" y1="50.3303" y2="50.3303"/><line style="stroke:#181818;stroke-width:0.3;" x1="291" x2="400.2" y1="55.1303" y2="55.1303"/><text fill="#000000" font-family="sans-serif" font-size="8.4" lengthAdjust="spacing" textLength="23.4" x="294" y="66.5947">+run()</text></g><!--class SendPropertyRequestController--><g id="elem_SendPropertyRequestController"><rect codeLine="19" fill="#F1F1F1" height="129.3539" id="SendPropertyRequestController" rx="1.5" ry="1.5" style="stroke:#181818;stroke-width:0.3;" width="360" x="4.2" y="128.9303"/><ellipse cx="121.05" cy="138.5303" fill="#ADD1B2" rx="6.6" ry="6.6" style="stroke:#181818;stroke-width:0.6;"/><path d="M122.7094,136.0553 Q122.8031,135.924 122.9156,135.8584 Q123.0281,135.7928 123.1594,135.7928 Q123.3844,135.7928 123.525,135.9521 Q123.6656,136.1021 123.6656,136.4678 L123.6656,137.3396 Q123.6656,137.7053 123.525,137.8646 Q123.3844,138.024 123.1594,138.024 Q122.9531,138.024 122.8313,137.9021 Q122.7094,137.7896 122.6438,137.4803 Q122.6156,137.2646 122.5031,137.1521 Q122.3062,136.9271 121.9406,136.7959 Q121.575,136.6646 121.2,136.6646 Q120.7406,136.6646 120.3562,136.8615 Q119.9812,137.0584 119.6812,137.5084 Q119.3906,137.9584 119.3906,138.5771 L119.3906,139.2334 Q119.3906,139.974 119.925,140.4709 Q120.4594,140.9584 121.4156,140.9584 Q121.9781,140.9584 122.3719,140.8084 Q122.6062,140.7146 122.8594,140.4521 Q123.0188,140.2928 123.1031,140.2459 Q123.1969,140.199 123.3188,140.199 Q123.5156,140.199 123.6656,140.3584 Q123.825,140.5084 123.825,140.7146 Q123.825,140.9209 123.6187,141.1646 Q123.3188,141.5115 122.8406,141.7084 Q122.1938,141.9803 121.4156,141.9803 Q120.5063,141.9803 119.7844,141.6053 Q119.1938,141.3053 118.7813,140.6678 Q118.3687,140.0209 118.3687,139.2521 L118.3687,138.5584 Q118.3687,137.7615 118.7344,137.0771 Q119.1094,136.3834 119.7656,136.0178 Q120.4219,135.6428 121.1625,135.6428 Q121.6031,135.6428 121.9875,135.7459 Q122.3813,135.8396 122.7094,136.0553 Z " fill="#000000"/><text fill="#000000" font-family="sans-serif" font-size="8.4" lengthAdjust="spacing" textLength="121.2" x="133.35" y="142.0084">SendPropertyRequestController</text><line style="stroke:#181818;stroke-width:0.3;" x1="4.8" x2="363.6" y1="148.1303" y2="148.1303"/><line style="stroke:#181818;stroke-width:0.3;" x1="4.8" x2="363.6" y1="152.9303" y2="152.9303"/><text fill="#000000" font-family="sans-serif" font-size="8.4" lengthAdjust="spacing" textLength="199.8" x="7.8" y="164.3947">+chooseAgent(Scanner input, VerifyInput verifyInput)</text><text fill="#000000" font-family="sans-serif" font-size="8.4" lengthAdjust="spacing" textLength="327.6" x="7.8" y="175.5674">+chooseNumberOfProperties(Scanner input, String agentName, VerifyInput verifyInput)</text><text fill="#000000" font-family="sans-serif" font-size="8.4" lengthAdjust="spacing" textLength="240.6" x="7.8" y="186.74">+fillRequest(Scanner input, Agent agent, VerifyInput verifyInput)</text><text fill="#000000" font-family="sans-serif" font-size="8.4" lengthAdjust="spacing" textLength="312" x="7.8" y="197.9127">+fillRequestForApartment(float area, String location, float distanceFromCityCentre,</text><text fill="#000000" font-family="sans-serif" font-size="8.4" lengthAdjust="spacing" textLength="348" x="12.6" y="209.0854">Agent agent, float requestedPrice, File[] photographs, Scanner input, VerifyInput verifyInput)</text><text fill="#000000" font-family="sans-serif" font-size="8.4" lengthAdjust="spacing" textLength="297" x="7.8" y="220.258">+fillRequestForHouse(float area, String location, float distanceFromCityCentre,</text><text fill="#000000" font-family="sans-serif" font-size="8.4" lengthAdjust="spacing" textLength="348" x="12.6" y="231.4307">Agent agent, float requestedPrice, File[] photographs, Scanner input, VerifyInput verifyInput)</text><text fill="#000000" font-family="sans-serif" font-size="8.4" lengthAdjust="spacing" textLength="190.2" x="7.8" y="242.6033">+insertType(Scanner input, VerifyInput verifyInput)</text><text fill="#000000" font-family="sans-serif" font-size="8.4" lengthAdjust="spacing" textLength="219.6" x="7.8" y="253.776">+insertPhotographs(Scanner input, VerifyInput verifyInput)</text></g><!--class Agent--><g id="elem_Agent"><rect codeLine="30" fill="#F1F1F1" height="118.1812" id="Agent" rx="1.5" ry="1.5" style="stroke:#181818;stroke-width:0.3;" width="96.6" x="692.1" y="134.6303"/><ellipse cx="726.75" cy="144.2303" fill="#ADD1B2" rx="6.6" ry="6.6" style="stroke:#181818;stroke-width:0.6;"/><path d="M728.4094,141.7553 Q728.5031,141.624 728.6156,141.5584 Q728.7281,141.4928 728.8594,141.4928 Q729.0844,141.4928 729.225,141.6521 Q729.3656,141.8021 729.3656,142.1678 L729.3656,143.0396 Q729.3656,143.4053 729.225,143.5646 Q729.0844,143.724 728.8594,143.724 Q728.6531,143.724 728.5313,143.6021 Q728.4094,143.4896 728.3438,143.1803 Q728.3156,142.9646 728.2031,142.8521 Q728.0063,142.6271 727.6406,142.4959 Q727.275,142.3646 726.9,142.3646 Q726.4406,142.3646 726.0563,142.5615 Q725.6813,142.7584 725.3813,143.2084 Q725.0906,143.6584 725.0906,144.2771 L725.0906,144.9334 Q725.0906,145.674 725.625,146.1709 Q726.1594,146.6584 727.1156,146.6584 Q727.6781,146.6584 728.0719,146.5084 Q728.3063,146.4146 728.5594,146.1521 Q728.7188,145.9928 728.8031,145.9459 Q728.8969,145.899 729.0188,145.899 Q729.2156,145.899 729.3656,146.0584 Q729.525,146.2084 729.525,146.4146 Q729.525,146.6209 729.3188,146.8646 Q729.0188,147.2115 728.5406,147.4084 Q727.8938,147.6803 727.1156,147.6803 Q726.2063,147.6803 725.4844,147.3053 Q724.8938,147.0053 724.4812,146.3678 Q724.0688,145.7209 724.0688,144.9521 L724.0688,144.2584 Q724.0688,143.4615 724.4344,142.7771 Q724.8094,142.0834 725.4656,141.7178 Q726.1219,141.3428 726.8625,141.3428 Q727.3031,141.3428 727.6875,141.4459 Q728.0813,141.5396 728.4094,141.7553 Z " fill="#000000"/><text fill="#000000" font-family="sans-serif" font-size="8.4" lengthAdjust="spacing" textLength="22.2" x="739.05" y="147.7084">Agent</text><line style="stroke:#181818;stroke-width:0.3;" x1="692.7" x2="788.1" y1="153.8303" y2="153.8303"/><text fill="#000000" font-family="sans-serif" font-size="8.4" lengthAdjust="spacing" textLength="24" x="695.7" y="165.2947">-name</text><text fill="#000000" font-family="sans-serif" font-size="8.4" lengthAdjust="spacing" textLength="22.8" x="695.7" y="176.4674">-email</text><text fill="#000000" font-family="sans-serif" font-size="8.4" lengthAdjust="spacing" textLength="18" x="695.7" y="187.64">-pwd</text><line style="stroke:#181818;stroke-width:0.6;" x1="692.7" x2="788.1" y1="192.1482" y2="192.1482"/><text fill="#000000" font-family="sans-serif" font-size="8.4" lengthAdjust="spacing" textLength="89.4" x="695.7" y="203.6127">+hasEmail(String email)</text><text fill="#000000" font-family="sans-serif" font-size="8.4" lengthAdjust="spacing" textLength="44.4" x="695.7" y="214.7854">+getName()</text><text fill="#000000" font-family="sans-serif" font-size="8.4" lengthAdjust="spacing" textLength="43.2" x="695.7" y="225.958">+getEmail()</text><text fill="#000000" font-family="sans-serif" font-size="8.4" lengthAdjust="spacing" textLength="40.2" x="695.7" y="237.1307">+toString()</text><text fill="#000000" font-family="sans-serif" font-size="8.4" lengthAdjust="spacing" textLength="31.2" x="695.7" y="248.3033">+clone()</text></g><!--class HouseRequest--><g id="elem_HouseRequest"><rect codeLine="42" fill="#F1F1F1" height="207.5625" id="HouseRequest" rx="1.5" ry="1.5" style="stroke:#181818;stroke-width:0.3;" width="120.6" x="316.5" y="460.1303"/><ellipse cx="346.35" cy="469.7303" fill="#ADD1B2" rx="6.6" ry="6.6" style="stroke:#181818;stroke-width:0.6;"/><path d="M348.0094,467.2553 Q348.1031,467.124 348.2156,467.0584 Q348.3281,466.9928 348.4594,466.9928 Q348.6844,466.9928 348.825,467.1521 Q348.9656,467.3021 348.9656,467.6678 L348.9656,468.5396 Q348.9656,468.9053 348.825,469.0646 Q348.6844,469.224 348.4594,469.224 Q348.2531,469.224 348.1312,469.1021 Q348.0094,468.9896 347.9437,468.6803 Q347.9156,468.4646 347.8031,468.3521 Q347.6063,468.1271 347.2406,467.9959 Q346.875,467.8646 346.5,467.8646 Q346.0406,467.8646 345.6563,468.0615 Q345.2813,468.2584 344.9813,468.7084 Q344.6906,469.1584 344.6906,469.7771 L344.6906,470.4334 Q344.6906,471.174 345.225,471.6709 Q345.7594,472.1584 346.7156,472.1584 Q347.2781,472.1584 347.6719,472.0084 Q347.9063,471.9146 348.1594,471.6521 Q348.3187,471.4928 348.4031,471.4459 Q348.4969,471.399 348.6188,471.399 Q348.8156,471.399 348.9656,471.5584 Q349.125,471.7084 349.125,471.9146 Q349.125,472.1209 348.9188,472.3646 Q348.6188,472.7115 348.1406,472.9084 Q347.4938,473.1803 346.7156,473.1803 Q345.8063,473.1803 345.0844,472.8053 Q344.4938,472.5053 344.0813,471.8678 Q343.6688,471.2209 343.6688,470.4521 L343.6688,469.7584 Q343.6688,468.9615 344.0344,468.2771 Q344.4094,467.5834 345.0656,467.2178 Q345.7219,466.8428 346.4625,466.8428 Q346.9031,466.8428 347.2875,466.9459 Q347.6813,467.0396 348.0094,467.2553 Z " fill="#000000"/><text fill="#000000" font-family="sans-serif" font-size="8.4" lengthAdjust="spacing" textLength="55.8" x="358.65" y="473.2084">HouseRequest</text><line style="stroke:#181818;stroke-width:0.3;" x1="317.1" x2="436.5" y1="479.3303" y2="479.3303"/><text fill="#000000" font-family="sans-serif" font-size="8.4" lengthAdjust="spacing" textLength="43.8" x="320.1" y="490.7947">-String type</text><text fill="#000000" font-family="sans-serif" font-size="8.4" lengthAdjust="spacing" textLength="39" x="320.1" y="501.9674">-float area</text><text fill="#000000" font-family="sans-serif" font-size="8.4" lengthAdjust="spacing" textLength="57" x="320.1" y="513.14">-String location</text><text fill="#000000" font-family="sans-serif" font-size="8.4" lengthAdjust="spacing" textLength="113.4" x="320.1" y="524.3127">-float distanceFromCityCentre</text><text fill="#000000" font-family="sans-serif" font-size="8.4" lengthAdjust="spacing" textLength="79.2" x="320.1" y="535.4854">-float requestedPrice</text><text fill="#000000" font-family="sans-serif" font-size="8.4" lengthAdjust="spacing" textLength="67.8" x="320.1" y="546.658">-png photographs</text><text fill="#000000" font-family="sans-serif" font-size="8.4" lengthAdjust="spacing" textLength="52.2" x="320.1" y="557.8307">-int bedrooms</text><text fill="#000000" font-family="sans-serif" font-size="8.4" lengthAdjust="spacing" textLength="54.6" x="320.1" y="569.0033">-int bathrooms</text><text fill="#000000" font-family="sans-serif" font-size="8.4" lengthAdjust="spacing" textLength="70.8" x="320.1" y="580.176">-int parkingSpaces</text><text fill="#000000" font-family="sans-serif" font-size="8.4" lengthAdjust="spacing" textLength="101.4" x="320.1" y="591.3486">-String availableEquipment</text><text fill="#000000" font-family="sans-serif" font-size="8.4" lengthAdjust="spacing" textLength="73.2" x="320.1" y="602.5213">-boolean basement</text><text fill="#000000" font-family="sans-serif" font-size="8.4" lengthAdjust="spacing" textLength="91.8" x="320.1" y="613.6939">-boolean inhabitableLoft</text><text fill="#000000" font-family="sans-serif" font-size="8.4" lengthAdjust="spacing" textLength="70.8" x="320.1" y="624.8666">-float sunExposure</text><line style="stroke:#181818;stroke-width:0.3;" x1="317.1" x2="436.5" y1="629.3748" y2="629.3748"/><text fill="#000000" font-family="sans-serif" font-size="8.4" lengthAdjust="spacing" textLength="58.8" x="320.1" y="640.8393">+equals(object)</text><text fill="#000000" font-family="sans-serif" font-size="8.4" lengthAdjust="spacing" textLength="31.2" x="320.1" y="652.0119">+clone()</text><text fill="#000000" font-family="sans-serif" font-size="8.4" lengthAdjust="spacing" textLength="40.2" x="320.1" y="663.1846">+toString()</text></g><!--class ApartmentRequest--><g id="elem_ApartmentRequest"><rect codeLine="62" fill="#F1F1F1" height="174.0445" id="ApartmentRequest" rx="1.5" ry="1.5" style="stroke:#181818;stroke-width:0.3;" width="120.6" x="458.1" y="476.9303"/><ellipse cx="480.87" cy="486.5303" fill="#ADD1B2" rx="6.6" ry="6.6" style="stroke:#181818;stroke-width:0.6;"/><path d="M482.5294,484.0553 Q482.6231,483.924 482.7356,483.8584 Q482.8481,483.7928 482.9794,483.7928 Q483.2044,483.7928 483.345,483.9521 Q483.4856,484.1021 483.4856,484.4678 L483.4856,485.3396 Q483.4856,485.7053 483.345,485.8646 Q483.2044,486.024 482.9794,486.024 Q482.7731,486.024 482.6513,485.9021 Q482.5294,485.7896 482.4638,485.4803 Q482.4356,485.2646 482.3231,485.1521 Q482.1263,484.9271 481.7606,484.7959 Q481.395,484.6646 481.02,484.6646 Q480.5606,484.6646 480.1763,484.8615 Q479.8013,485.0584 479.5013,485.5084 Q479.2106,485.9584 479.2106,486.5771 L479.2106,487.2334 Q479.2106,487.974 479.745,488.4709 Q480.2794,488.9584 481.2356,488.9584 Q481.7981,488.9584 482.1919,488.8084 Q482.4263,488.7146 482.6794,488.4521 Q482.8388,488.2928 482.9231,488.2459 Q483.0169,488.199 483.1388,488.199 Q483.3356,488.199 483.4856,488.3584 Q483.645,488.5084 483.645,488.7146 Q483.645,488.9209 483.4388,489.1646 Q483.1388,489.5115 482.6606,489.7084 Q482.0138,489.9803 481.2356,489.9803 Q480.3263,489.9803 479.6044,489.6053 Q479.0138,489.3053 478.6013,488.6678 Q478.1888,488.0209 478.1888,487.2521 L478.1888,486.5584 Q478.1888,485.7615 478.5544,485.0771 Q478.9294,484.3834 479.5856,484.0178 Q480.2419,483.6428 480.9825,483.6428 Q481.4231,483.6428 481.8075,483.7459 Q482.2013,483.8396 482.5294,484.0553 Z " fill="#000000"/><text fill="#000000" font-family="sans-serif" font-size="8.4" lengthAdjust="spacing" textLength="70.8" x="492.33" y="490.0084">ApartmentRequest</text><line style="stroke:#181818;stroke-width:0.3;" x1="458.7" x2="578.1" y1="496.1303" y2="496.1303"/><text fill="#000000" font-family="sans-serif" font-size="8.4" lengthAdjust="spacing" textLength="43.8" x="461.7" y="507.5947">-String type</text><text fill="#000000" font-family="sans-serif" font-size="8.4" lengthAdjust="spacing" textLength="39" x="461.7" y="518.7674">-float area</text><text fill="#000000" font-family="sans-serif" font-size="8.4" lengthAdjust="spacing" textLength="57" x="461.7" y="529.94">-String location</text><text fill="#000000" font-family="sans-serif" font-size="8.4" lengthAdjust="spacing" textLength="113.4" x="461.7" y="541.1127">-float distanceFromCityCentre</text><text fill="#000000" font-family="sans-serif" font-size="8.4" lengthAdjust="spacing" textLength="79.2" x="461.7" y="552.2854">-float requestedPrice</text><text fill="#000000" font-family="sans-serif" font-size="8.4" lengthAdjust="spacing" textLength="67.8" x="461.7" y="563.458">-png photographs</text><text fill="#000000" font-family="sans-serif" font-size="8.4" lengthAdjust="spacing" textLength="52.2" x="461.7" y="574.6307">-int bedrooms</text><text fill="#000000" font-family="sans-serif" font-size="8.4" lengthAdjust="spacing" textLength="54.6" x="461.7" y="585.8033">-int bathrooms</text><text fill="#000000" font-family="sans-serif" font-size="8.4" lengthAdjust="spacing" textLength="70.8" x="461.7" y="596.976">-int parkingSpaces</text><text fill="#000000" font-family="sans-serif" font-size="8.4" lengthAdjust="spacing" textLength="101.4" x="461.7" y="608.1486">-String availableEquipment</text><line style="stroke:#181818;stroke-width:0.3;" x1="458.7" x2="578.1" y1="612.6568" y2="612.6568"/><text fill="#000000" font-family="sans-serif" font-size="8.4" lengthAdjust="spacing" textLength="58.8" x="461.7" y="624.1213">+equals(object)</text><text fill="#000000" font-family="sans-serif" font-size="8.4" lengthAdjust="spacing" textLength="31.2" x="461.7" y="635.2939">+clone()</text><text fill="#000000" font-family="sans-serif" font-size="8.4" lengthAdjust="spacing" textLength="40.2" x="461.7" y="646.4666">+toString()</text></g><!--class LandRequest--><g id="elem_LandRequest"><rect codeLine="79" fill="#F1F1F1" height="129.3539" id="LandRequest" rx="1.5" ry="1.5" style="stroke:#181818;stroke-width:0.3;" width="120.6" x="599.7" y="499.1303"/><ellipse cx="631.95" cy="508.7303" fill="#ADD1B2" rx="6.6" ry="6.6" style="stroke:#181818;stroke-width:0.6;"/><path d="M633.6094,506.2553 Q633.7031,506.124 633.8156,506.0584 Q633.9281,505.9928 634.0594,505.9928 Q634.2844,505.9928 634.425,506.1521 Q634.5656,506.3021 634.5656,506.6678 L634.5656,507.5396 Q634.5656,507.9053 634.425,508.0646 Q634.2844,508.224 634.0594,508.224 Q633.8531,508.224 633.7312,508.1021 Q633.6094,507.9896 633.5437,507.6803 Q633.5156,507.4646 633.4031,507.3521 Q633.2063,507.1271 632.8406,506.9959 Q632.475,506.8646 632.1,506.8646 Q631.6406,506.8646 631.2563,507.0615 Q630.8813,507.2584 630.5813,507.7084 Q630.2906,508.1584 630.2906,508.7771 L630.2906,509.4334 Q630.2906,510.174 630.825,510.6709 Q631.3594,511.1584 632.3156,511.1584 Q632.8781,511.1584 633.2719,511.0084 Q633.5063,510.9146 633.7594,510.6521 Q633.9187,510.4928 634.0031,510.4459 Q634.0969,510.399 634.2188,510.399 Q634.4156,510.399 634.5656,510.5584 Q634.725,510.7084 634.725,510.9146 Q634.725,511.1209 634.5188,511.3646 Q634.2188,511.7115 633.7406,511.9084 Q633.0938,512.1803 632.3156,512.1803 Q631.4063,512.1803 630.6844,511.8053 Q630.0938,511.5053 629.6813,510.8678 Q629.2688,510.2209 629.2688,509.4521 L629.2688,508.7584 Q629.2688,507.9615 629.6344,507.2771 Q630.0094,506.5834 630.6656,506.2178 Q631.3219,505.8428 632.0625,505.8428 Q632.5031,505.8428 632.8875,505.9459 Q633.2813,506.0396 633.6094,506.2553 Z " fill="#000000"/><text fill="#000000" font-family="sans-serif" font-size="8.4" lengthAdjust="spacing" textLength="51" x="644.25" y="512.2084">LandRequest</text><line style="stroke:#181818;stroke-width:0.3;" x1="600.3" x2="719.7" y1="518.3303" y2="518.3303"/><text fill="#000000" font-family="sans-serif" font-size="8.4" lengthAdjust="spacing" textLength="43.8" x="603.3" y="529.7947">-String type</text><text fill="#000000" font-family="sans-serif" font-size="8.4" lengthAdjust="spacing" textLength="39" x="603.3" y="540.9674">-float area</text><text fill="#000000" font-family="sans-serif" font-size="8.4" lengthAdjust="spacing" textLength="57" x="603.3" y="552.14">-String location</text><text fill="#000000" font-family="sans-serif" font-size="8.4" lengthAdjust="spacing" textLength="113.4" x="603.3" y="563.3127">-float distanceFromCityCentre</text><text fill="#000000" font-family="sans-serif" font-size="8.4" lengthAdjust="spacing" textLength="79.2" x="603.3" y="574.4854">-float requestedPrice</text><text fill="#000000" font-family="sans-serif" font-size="8.4" lengthAdjust="spacing" textLength="67.8" x="603.3" y="585.658">-png photographs</text><line style="stroke:#181818;stroke-width:0.3;" x1="600.3" x2="719.7" y1="590.1662" y2="590.1662"/><text fill="#000000" font-family="sans-serif" font-size="8.4" lengthAdjust="spacing" textLength="58.8" x="603.3" y="601.6307">+equals(object)</text><text fill="#000000" font-family="sans-serif" font-size="8.4" lengthAdjust="spacing" textLength="31.2" x="603.3" y="612.8033">+clone()</text><text fill="#000000" font-family="sans-serif" font-size="8.4" lengthAdjust="spacing" textLength="40.2" x="603.3" y="623.976">+toString()</text></g><!--class PropertyRequestRepository--><g id="elem_PropertyRequestRepository"><rect codeLine="92" fill="#F1F1F1" height="95.8359" id="PropertyRequestRepository" rx="1.5" ry="1.5" style="stroke:#181818;stroke-width:0.3;" width="124.2" x="456.3" y="145.7303"/><ellipse cx="465.3" cy="155.3303" fill="#ADD1B2" rx="6.6" ry="6.6" style="stroke:#181818;stroke-width:0.6;"/><path d="M466.9594,152.8553 Q467.0531,152.724 467.1656,152.6584 Q467.2781,152.5928 467.4094,152.5928 Q467.6344,152.5928 467.775,152.7521 Q467.9156,152.9021 467.9156,153.2678 L467.9156,154.1396 Q467.9156,154.5053 467.775,154.6646 Q467.6344,154.824 467.4094,154.824 Q467.2031,154.824 467.0812,154.7021 Q466.9594,154.5896 466.8937,154.2803 Q466.8656,154.0646 466.7531,153.9521 Q466.5563,153.7271 466.1906,153.5959 Q465.825,153.4646 465.45,153.4646 Q464.9906,153.4646 464.6063,153.6615 Q464.2313,153.8584 463.9313,154.3084 Q463.6406,154.7584 463.6406,155.3771 L463.6406,156.0334 Q463.6406,156.774 464.175,157.2709 Q464.7094,157.7584 465.6656,157.7584 Q466.2281,157.7584 466.6219,157.6084 Q466.8563,157.5146 467.1094,157.2521 Q467.2687,157.0928 467.3531,157.0459 Q467.4469,156.999 467.5687,156.999 Q467.7656,156.999 467.9156,157.1584 Q468.075,157.3084 468.075,157.5146 Q468.075,157.7209 467.8688,157.9646 Q467.5687,158.3115 467.0906,158.5084 Q466.4437,158.7803 465.6656,158.7803 Q464.7562,158.7803 464.0344,158.4053 Q463.4437,158.1053 463.0313,157.4678 Q462.6188,156.8209 462.6188,156.0521 L462.6188,155.3584 Q462.6188,154.5615 462.9844,153.8771 Q463.3594,153.1834 464.0156,152.8178 Q464.6719,152.4428 465.4125,152.4428 Q465.8531,152.4428 466.2375,152.5459 Q466.6312,152.6396 466.9594,152.8553 Z " fill="#000000"/><text fill="#000000" font-family="sans-serif" font-size="8.4" lengthAdjust="spacing" textLength="105" x="473.7" y="158.8084">PropertyRequestRepository</text><line style="stroke:#181818;stroke-width:0.3;" x1="456.9" x2="579.9" y1="164.9303" y2="164.9303"/><text fill="#000000" font-family="sans-serif" font-size="8.4" lengthAdjust="spacing" textLength="99" x="459.9" y="176.3947">-List&lt;Property&gt; properties</text><line style="stroke:#181818;stroke-width:0.3;" x1="456.9" x2="579.9" y1="180.9029" y2="180.9029"/><text fill="#000000" font-family="sans-serif" font-size="8.4" lengthAdjust="spacing" textLength="40.2" x="459.9" y="192.3674">+isEmpty()</text><text fill="#000000" font-family="sans-serif" font-size="8.4" lengthAdjust="spacing" textLength="57" x="459.9" y="203.54">+add(property)</text><text fill="#000000" font-family="sans-serif" font-size="8.4" lengthAdjust="spacing" textLength="104.4" x="459.9" y="214.7127">+validateProperty(property)</text><text fill="#000000" font-family="sans-serif" font-size="8.4" lengthAdjust="spacing" textLength="66.6" x="459.9" y="225.8854">+printProperties()</text><text fill="#000000" font-family="sans-serif" font-size="8.4" lengthAdjust="spacing" textLength="61.8" x="459.9" y="237.058">+getProperties()</text></g><!--class PropertyRequest--><g id="elem_PropertyRequest"><rect codeLine="102" fill="#F1F1F1" height="107.0086" id="PropertyRequest" rx="1.5" ry="1.5" style="stroke:#181818;stroke-width:0.3;" width="121.2" x="457.8" y="305.9303"/><ellipse cx="483.81" cy="315.5303" fill="#B4A7E5" rx="6.6" ry="6.6" style="stroke:#181818;stroke-width:0.6;"/><path d="M484.3819,313.5146 L484.3819,317.5084 L485.4131,317.5084 Q485.7788,317.5084 485.9381,317.649 Q486.0975,317.7896 486.0975,318.024 Q486.0975,318.249 485.9381,318.3896 Q485.7788,318.5303 485.4131,318.5303 L482.3288,318.5303 Q481.9631,318.5303 481.8038,318.3896 Q481.6444,318.249 481.6444,318.0146 Q481.6444,317.7896 481.8038,317.649 Q481.9631,317.5084 482.3288,317.5084 L483.36,317.5084 L483.36,313.5146 L482.3288,313.5146 Q481.9631,313.5146 481.8038,313.374 Q481.6444,313.2334 481.6444,312.999 Q481.6444,312.774 481.8038,312.6334 Q481.9631,312.4928 482.3288,312.4928 L485.4131,312.4928 Q485.7788,312.4928 485.9381,312.6334 Q486.0975,312.774 486.0975,312.999 Q486.0975,313.2334 485.9381,313.374 Q485.7788,313.5146 485.4131,313.5146 L484.3819,313.5146 Z " fill="#000000"/><text fill="#000000" font-family="sans-serif" font-size="8.4" font-style="italic" lengthAdjust="spacing" textLength="64.2" x="495.99" y="319.0084">PropertyRequest</text><line style="stroke:#181818;stroke-width:0.3;" x1="458.4" x2="578.4" y1="325.1303" y2="325.1303"/><text fill="#000000" font-family="sans-serif" font-size="8.4" lengthAdjust="spacing" textLength="43.8" x="461.4" y="336.5947">-String type</text><text fill="#000000" font-family="sans-serif" font-size="8.4" lengthAdjust="spacing" textLength="39" x="461.4" y="347.7674">-float area</text><text fill="#000000" font-family="sans-serif" font-size="8.4" lengthAdjust="spacing" textLength="57" x="461.4" y="358.94">-String location</text><text fill="#000000" font-family="sans-serif" font-size="8.4" lengthAdjust="spacing" textLength="114" x="461.4" y="370.1127">-float distance from city centre</text><text fill="#000000" font-family="sans-serif" font-size="8.4" lengthAdjust="spacing" textLength="81" x="461.4" y="381.2854">-float requested price</text><line style="stroke:#181818;stroke-width:0.6;" x1="458.4" x2="578.4" y1="385.7936" y2="385.7936"/><text fill="#000000" font-family="sans-serif" font-size="8.4" lengthAdjust="spacing" textLength="58.8" x="461.4" y="397.258">+equals(object)</text><text fill="#000000" font-family="sans-serif" font-size="8.4" lengthAdjust="spacing" textLength="31.2" x="461.4" y="408.4307">+clone()</text></g><!--link Owner to OwnerUI--><g id="link_Owner_OwnerUI"><path codeLine="113" d="M116.292,51.2303 C139.002,51.2303 174.45,51.2303 199.314,51.2303 " fill="none" id="Owner-to-OwnerUI" style="stroke:#181818;stroke-width:0.6;"/><polygon fill="#181818" points="202.44,51.2303,197.04,48.8303,199.44,51.2303,197.04,53.6303,202.44,51.2303" style="stroke:#181818;stroke-width:0.6;"/><text fill="#000000" font-family="sans-serif" font-size="7.8" lengthAdjust="spacing" textLength="64.2" x="127.2" y="36.8473">interacts and asks</text><text fill="#000000" font-family="sans-serif" font-size="7.8" lengthAdjust="spacing" textLength="60.6" x="129" y="47.2219">to send a request</text></g><!--link OwnerUI to SendPropertyRequestUI--><g id="link_OwnerUI_SendPropertyRequestUI"><path codeLine="114" d="M253.518,51.2303 C263.484,51.2303 275.346,51.2303 287.19,51.2303 " fill="none" id="OwnerUI-to-SendPropertyRequestUI" style="stroke:#181818;stroke-width:0.6;"/><polygon fill="#181818" points="290.202,51.2303,284.802,48.8303,287.202,51.2303,284.802,53.6303,290.202,51.2303" style="stroke:#181818;stroke-width:0.6;"/><text fill="#000000" font-family="sans-serif" font-size="7.8" lengthAdjust="spacing" textLength="15" x="264.45" y="47.0473">runs</text></g><!--link SendPropertyRequestUI to SendPropertyRequestController--><g id="link_SendPropertyRequestUI_SendPropertyRequestController"><path codeLine="115" d="M323.16,71.4803 C306.612,85.9643 283.068,106.5743 260.052,126.7283 " fill="none" id="SendPropertyRequestUI-to-SendPropertyRequestController" style="stroke:#181818;stroke-width:0.6;"/><polygon fill="#181818" points="257.538,128.9303,263.1828,127.1821,259.7963,126.9554,260.0229,123.5688,257.538,128.9303" style="stroke:#181818;stroke-width:0.6;"/><text fill="#000000" font-family="sans-serif" font-size="7.8" lengthAdjust="spacing" textLength="25.8" x="305.1" y="98.3473">creates</text><text fill="#000000" font-family="sans-serif" font-size="7.8" lengthAdjust="spacing" textLength="30" x="303" y="108.7219">and runs</text></g><!--link SendPropertyRequestController to Owner--><g id="link_SendPropertyRequestController_Owner"><path codeLine="117" d="M178.404,128.8583 C174.864,114.8603 169.35,100.8143 160.8,89.3303 C150.438,75.4103 133.284,65.9243 118.98,59.9783 " fill="none" id="SendPropertyRequestController-to-Owner" style="stroke:#181818;stroke-width:0.6;"/><polygon fill="#181818" points="116.16,58.8323,120.2554,63.0923,118.9383,59.9642,122.0664,58.6471,116.16,58.8323" style="stroke:#181818;stroke-width:0.6;"/><text fill="#000000" font-family="sans-serif" font-size="7.8" lengthAdjust="spacing" textLength="68.4" x="172.8" y="98.3473">requests necessary</text><text fill="#000000" font-family="sans-serif" font-size="7.8" lengthAdjust="spacing" textLength="37.8" x="188.1" y="108.7219">information</text></g><!--link Owner to SendPropertyRequestController--><g id="link_Owner_SendPropertyRequestController"><path codeLine="118" d="M89.61,65.6303 C86.298,78.0503 83.442,96.5123 90,110.9303 C92.388,116.1803 95.292,121.2263 98.586,126.0563 " fill="none" id="Owner-to-SendPropertyRequestController" style="stroke:#181818;stroke-width:0.6;"/><polygon fill="#181818" points="100.458,128.7203,99.3166,122.9222,98.733,126.2658,95.3894,125.6822,100.458,128.7203" style="stroke:#181818;stroke-width:0.6;"/><text fill="#000000" font-family="sans-serif" font-size="7.8" lengthAdjust="spacing" textLength="64.8" x="90.6" y="98.3473">provides requested</text><text fill="#000000" font-family="sans-serif" font-size="7.8" lengthAdjust="spacing" textLength="37.8" x="104.1" y="108.7219">information</text></g><!--link SendPropertyRequestController to PropertyRequestRepository--><g id="link_SendPropertyRequestController_PropertyRequestRepository"><path codeLine="119" d="M364.26,193.7303 C396.072,193.7303 427.248,193.7303 453.15,193.7303 " fill="none" id="SendPropertyRequestController-to-PropertyRequestRepository" style="stroke:#181818;stroke-width:0.6;"/><polygon fill="#181818" points="456.282,193.7303,450.882,191.3303,453.282,193.7303,450.882,196.1303,456.282,193.7303" style="stroke:#181818;stroke-width:0.6;"/><text fill="#000000" font-family="sans-serif" font-size="7.8" lengthAdjust="spacing" textLength="70.2" x="375.15" y="189.5473">stores information in</text></g><!--link PropertyRequestRepository to Agent--><g id="link_PropertyRequestRepository_Agent"><path codeLine="120" d="M580.536,193.7303 C614.706,193.7303 656.598,193.7303 688.926,193.7303 " fill="none" id="PropertyRequestRepository-to-Agent" style="stroke:#181818;stroke-width:0.6;"/><polygon fill="#181818" points="692.022,193.7303,686.622,191.3303,689.022,193.7303,686.622,196.1303,692.022,193.7303" style="stroke:#181818;stroke-width:0.6;"/><text fill="#000000" font-family="sans-serif" font-size="7.8" lengthAdjust="spacing" textLength="58.8" x="606.9" y="169.1473">Requested agent</text><text fill="#000000" font-family="sans-serif" font-size="7.8" lengthAdjust="spacing" textLength="51.6" x="610.5" y="179.5219">gets access to</text><text fill="#000000" font-family="sans-serif" font-size="7.8" lengthAdjust="spacing" textLength="89.4" x="591.6" y="189.8965">specified property request</text></g><!--link PropertyRequestRepository to PropertyRequest--><g id="link_PropertyRequestRepository_PropertyRequest"><path codeLine="122" d="M518.4,241.8803 C518.4,260.8763 518.4,282.8903 518.4,302.6543 " fill="none" id="PropertyRequestRepository-to-PropertyRequest" style="stroke:#181818;stroke-width:0.6;"/><polygon fill="#181818" points="518.4,305.8043,520.8,300.4043,518.4,302.8043,516,300.4043,518.4,305.8043" style="stroke:#181818;stroke-width:0.6;"/><text fill="#000000" font-family="sans-serif" font-size="7.8" lengthAdjust="spacing" textLength="29.4" x="519" y="285.5473">contains</text></g><!--link PropertyRequest to ApartmentRequest--><g id="link_PropertyRequest_ApartmentRequest"><path codeLine="124" d="M518.4,412.8383 C518.4,431.4623 518.4,452.9483 518.4,473.7443 " fill="none" id="PropertyRequest-to-ApartmentRequest" style="stroke:#181818;stroke-width:0.6;"/><polygon fill="#181818" points="518.4,476.8103,520.8,471.4103,518.4,473.8103,516,471.4103,518.4,476.8103" style="stroke:#181818;stroke-width:0.6;"/><text fill="#000000" font-family="sans-serif" font-size="7.8" lengthAdjust="spacing" textLength="23.4" x="519" y="439.7473">can be</text></g><!--link PropertyRequest to HouseRequest--><g id="link_PropertyRequest_HouseRequest"><path codeLine="125" d="M480.786,412.8743 C470.022,428.1023 458.31,444.7463 447.6,460.1303 C444.774,464.1923 441.888,468.3443 438.978,472.5443 " fill="none" id="PropertyRequest-to-HouseRequest" style="stroke:#181818;stroke-width:0.6;"/><polygon fill="#181818" points="437.166,475.1663,442.2174,472.0998,438.8772,472.7022,438.2748,469.3619,437.166,475.1663" style="stroke:#181818;stroke-width:0.6;"/><text fill="#000000" font-family="sans-serif" font-size="7.8" lengthAdjust="spacing" textLength="23.4" x="468" y="439.7473">can be</text></g><!--link PropertyRequest to LandRequest--><g id="link_PropertyRequest_LandRequest"><path codeLine="126" d="M556.014,412.8743 C566.778,428.1023 578.49,444.7463 589.2,460.1303 C597.372,471.8663 606.024,484.3883 614.364,496.5203 " fill="none" id="PropertyRequest-to-LandRequest" style="stroke:#181818;stroke-width:0.6;"/><polygon fill="#181818" points="616.14,499.1003,615.0678,493.289,614.4444,496.6254,611.108,496.002,616.14,499.1003" style="stroke:#181818;stroke-width:0.6;"/><text fill="#000000" font-family="sans-serif" font-size="7.8" lengthAdjust="spacing" textLength="23.4" x="576.6" y="439.7473">can be</text></g><!--SRC=[tLPDJnin4BtxL_WO12jnw0bLI2W55Ga18gMNfaAETpPnyTgBxGtTLltlVTwlR488e4fLLIxOEpDltiopFV7toXJ2YPmNGjwBEKr2fOaxaa6OkIRcUmU_4AbzL6RECw7zq2AryFua1ATcPQ1pQSr4_I1-o88A0BkT71w-upVqK98F_CmwVg5yY4097yTG_a69EO0Ogv7urQCXnt-o17_ir_3ZxVbFTdTtn_PTQKPxiBN62Pdqsjc2NAZQH6zm7LiJdDMQN1iY5zPwEfcJ2QE952RIGR5bEE2VoQciEeyRlbojzxgWopAVaRlAsXIA_2R217r2xIAYNugSTc5cIkkMv2PCpQv1UIK2Edy2mK8Uoygq5GXt97f6saeHb3K7l36cK4aOIMVEvcCLgZ7Y71rC3LzFtdYx9WcXkKgYg3EbwSjNNYnii12tM7WaUcqlrrb_jAMdVvonCXvoVweA6hqnvdgLxzMX_Mbkoi9LCJX9BA5SACsIuZ5jBi_-GlZJ-6tKTgnsGEevrMTlr2mR5wo3RVpYMcfhQ7XpQXcwQuoKBMH0pInPgTCREdKwutPrEkkw6gW120CfMA9Gw8nIPstUxKHO3BOustYIvXEyPEHx5cA9siHCq-b3gOfuzbaoirQJC03mjFv5cOMOgH3zBsmMEdA-DAVV2-jByArV29358pYoiszuAGVD6dPm9L9tw_w7vhsz_0jXqhRolrxuszbkp8ORWkmgM5T5rUBWUjzv7FEYV-IRH0gNhGXLX1PfEchD5RPBeLKg0dMnGri12c4mBvexkVO1xE13BeCwcmp_eASyGrEvH5UvtDvMb5ZtDRubpxKHv9g9dHntKveVyPglaC5poC-5l_TJ4opt57TT0jRv8tJh30SGvhTdsut9zh3LF4UuH2C28NcaKMEntI5T5J5rO_JS46w55wwQ6cKow_AcdNtPBv60sakLabyrTXteHKRFdyeZxl4Vq0CyhDdp4O1hniPHzwCCEjUJSMfmy22OZDNoOAV65oHLfkg3qE3rqktAy9HnL08L2HK5sBH5_oUF90BY4qrRlTTcqKxFmUkpSlmD]--></g></svg>