<?xml version="1.0" encoding="us-ascii" standalone="no"?><svg xmlns="http://www.w3.org/2000/svg" xmlns:xlink="http://www.w3.org/1999/xlink" contentStyleType="text/css" height="601px" preserveAspectRatio="none" style="width:1049px;height:601px;background:#FFFFFF;" version="1.1" viewBox="0 0 1049 601" width="1049px" zoomAndPan="magnify"><defs/><g><text fill="#000000" font-family="sans-serif" font-size="14" font-weight="bold" lengthAdjust="spacing" textLength="225" x="411" y="30.1074">US004 -  Sequence Diagram (SD)</text><rect fill="#FFFFFF" height="367.4922" style="stroke:#181818;stroke-width:1.0;" width="10" x="23.5" y="133.2422"/><rect fill="#FFFFFF" height="344.2012" style="stroke:#181818;stroke-width:1.0;" width="10" x="215.5" y="156.5332"/><rect fill="#FFFFFF" height="281.6191" style="stroke:#181818;stroke-width:1.0;" width="10" x="420.5" y="187.8242"/><rect fill="#FFFFFF" height="219.0371" style="stroke:#181818;stroke-width:1.0;" width="10" x="614.5" y="219.1152"/><rect fill="#FFFFFF" height="31.291" style="stroke:#181818;stroke-width:1.0;" width="10" x="737.5" y="250.4063"/><rect fill="#FFFFFF" height="31.291" style="stroke:#181818;stroke-width:1.0;" width="10" x="844.5" y="312.9883"/><rect fill="#FFFFFF" height="31.291" style="stroke:#181818;stroke-width:1.0;" width="10" x="970.5" y="375.5703"/><line style="stroke:#181818;stroke-width:0.5;stroke-dasharray:5.0,5.0;" x1="28" x2="28" y1="123.2422" y2="518.7344"/><line style="stroke:#181818;stroke-width:0.5;stroke-dasharray:5.0,5.0;" x1="220.5" x2="220.5" y1="123.2422" y2="518.7344"/><line style="stroke:#181818;stroke-width:0.5;stroke-dasharray:5.0,5.0;" x1="425.5" x2="425.5" y1="123.2422" y2="518.7344"/><line style="stroke:#181818;stroke-width:0.5;stroke-dasharray:5.0,5.0;" x1="619" x2="619" y1="123.2422" y2="518.7344"/><line style="stroke:#181818;stroke-width:0.5;stroke-dasharray:5.0,5.0;" x1="742" x2="742" y1="123.2422" y2="518.7344"/><line style="stroke:#181818;stroke-width:0.5;stroke-dasharray:5.0,5.0;" x1="849" x2="849" y1="123.2422" y2="518.7344"/><line style="stroke:#181818;stroke-width:0.5;stroke-dasharray:5.0,5.0;" x1="975" x2="975" y1="123.2422" y2="518.7344"/><text fill="#000000" font-family="sans-serif" font-size="14" lengthAdjust="spacing" textLength="41" x="5" y="119.7285">Owner</text><ellipse cx="28.5" cy="53.1211" fill="#E3E3E3" rx="8" ry="8" style="stroke:#181818;stroke-width:0.5;"/><path d="M28.5,61.1211 L28.5,88.1211 M15.5,69.1211 L41.5,69.1211 M28.5,88.1211 L15.5,103.1211 M28.5,88.1211 L41.5,103.1211 " fill="none" style="stroke:#181818;stroke-width:0.5;"/><text fill="#000000" font-family="sans-serif" font-size="14" lengthAdjust="spacing" textLength="41" x="5" y="532.8418">Owner</text><ellipse cx="28.5" cy="544.8555" fill="#E3E3E3" rx="8" ry="8" style="stroke:#181818;stroke-width:0.5;"/><path d="M28.5,552.8555 L28.5,579.8555 M15.5,560.8555 L41.5,560.8555 M28.5,579.8555 L15.5,594.8555 M28.5,579.8555 L41.5,594.8555 " fill="none" style="stroke:#181818;stroke-width:0.5;"/><rect fill="#E3E3E3" height="32.6211" rx="2.5" ry="2.5" style="stroke:#181818;stroke-width:0.5;" width="170" x="135.5" y="89.6211"/><text fill="#000000" font-family="sans-serif" font-size="14" lengthAdjust="spacing" textLength="156" x="142.5" y="111.7285">:SendPropertyRequestUI</text><rect fill="#E3E3E3" height="32.6211" rx="2.5" ry="2.5" style="stroke:#181818;stroke-width:0.5;" width="170" x="135.5" y="517.7344"/><text fill="#000000" font-family="sans-serif" font-size="14" lengthAdjust="spacing" textLength="156" x="142.5" y="539.8418">:SendPropertyRequestUI</text><rect fill="#E3E3E3" height="32.6211" rx="2.5" ry="2.5" style="stroke:#181818;stroke-width:0.5;" width="220" x="315.5" y="89.6211"/><text fill="#000000" font-family="sans-serif" font-size="14" lengthAdjust="spacing" textLength="206" x="322.5" y="111.7285">:SendPropertyRequestController</text><rect fill="#E3E3E3" height="32.6211" rx="2.5" ry="2.5" style="stroke:#181818;stroke-width:0.5;" width="220" x="315.5" y="517.7344"/><text fill="#000000" font-family="sans-serif" font-size="14" lengthAdjust="spacing" textLength="206" x="322.5" y="539.8418">:SendPropertyRequestController</text><rect fill="#E3E3E3" height="51.2422" rx="2.5" ry="2.5" style="stroke:#181818;stroke-width:0.5;" width="129" x="555" y="71"/><text fill="#000000" font-family="sans-serif" font-size="14" lengthAdjust="spacing" textLength="111" x="564" y="93.1074">manageRequests</text><text fill="#000000" font-family="sans-serif" font-size="14" lengthAdjust="spacing" textLength="115" x="562" y="111.7285">:ManageRequests</text><rect fill="#E3E3E3" height="51.2422" rx="2.5" ry="2.5" style="stroke:#181818;stroke-width:0.5;" width="129" x="555" y="517.7344"/><text fill="#000000" font-family="sans-serif" font-size="14" lengthAdjust="spacing" textLength="111" x="564" y="539.8418">manageRequests</text><text fill="#000000" font-family="sans-serif" font-size="14" lengthAdjust="spacing" textLength="115" x="562" y="558.4629">:ManageRequests</text><rect fill="#E3E3E3" height="32.6211" rx="2.5" ry="2.5" style="stroke:#181818;stroke-width:0.5;" width="97" x="694" y="89.6211"/><text fill="#000000" font-family="sans-serif" font-size="14" lengthAdjust="spacing" textLength="83" x="701" y="111.7285">:Repositories</text><rect fill="#E3E3E3" height="32.6211" rx="2.5" ry="2.5" style="stroke:#181818;stroke-width:0.5;" width="97" x="694" y="517.7344"/><text fill="#000000" font-family="sans-serif" font-size="14" lengthAdjust="spacing" textLength="83" x="701" y="539.8418">:Repositories</text><rect fill="#E3E3E3" height="51.2422" rx="2.5" ry="2.5" style="stroke:#181818;stroke-width:0.5;" width="97" x="801" y="71"/><text fill="#000000" font-family="sans-serif" font-size="14" lengthAdjust="spacing" textLength="74" x="812.5" y="93.1074">repositories</text><text fill="#000000" font-family="sans-serif" font-size="14" lengthAdjust="spacing" textLength="83" x="808" y="111.7285">:Repositories</text><rect fill="#E3E3E3" height="51.2422" rx="2.5" ry="2.5" style="stroke:#181818;stroke-width:0.5;" width="97" x="801" y="517.7344"/><text fill="#000000" font-family="sans-serif" font-size="14" lengthAdjust="spacing" textLength="74" x="812.5" y="539.8418">repositories</text><text fill="#000000" font-family="sans-serif" font-size="14" lengthAdjust="spacing" textLength="83" x="808" y="558.4629">:Repositories</text><rect fill="#E3E3E3" height="51.2422" rx="2.5" ry="2.5" style="stroke:#181818;stroke-width:0.5;" width="135" x="908" y="71"/><text fill="#000000" font-family="sans-serif" font-size="14" lengthAdjust="spacing" textLength="120" x="915.5" y="93.1074">requestRepository:</text><text fill="#000000" font-family="sans-serif" font-size="14" lengthAdjust="spacing" textLength="121" x="915" y="111.7285">RequestRepository</text><rect fill="#E3E3E3" height="51.2422" rx="2.5" ry="2.5" style="stroke:#181818;stroke-width:0.5;" width="135" x="908" y="517.7344"/><text fill="#000000" font-family="sans-serif" font-size="14" lengthAdjust="spacing" textLength="120" x="915.5" y="539.8418">requestRepository:</text><text fill="#000000" font-family="sans-serif" font-size="14" lengthAdjust="spacing" textLength="121" x="915" y="558.4629">RequestRepository</text><rect fill="#FFFFFF" height="367.4922" style="stroke:#181818;stroke-width:1.0;" width="10" x="23.5" y="133.2422"/><rect fill="#FFFFFF" height="344.2012" style="stroke:#181818;stroke-width:1.0;" width="10" x="215.5" y="156.5332"/><rect fill="#FFFFFF" height="281.6191" style="stroke:#181818;stroke-width:1.0;" width="10" x="420.5" y="187.8242"/><rect fill="#FFFFFF" height="219.0371" style="stroke:#181818;stroke-width:1.0;" width="10" x="614.5" y="219.1152"/><rect fill="#FFFFFF" height="31.291" style="stroke:#181818;stroke-width:1.0;" width="10" x="737.5" y="250.4063"/><rect fill="#FFFFFF" height="31.291" style="stroke:#181818;stroke-width:1.0;" width="10" x="844.5" y="312.9883"/><rect fill="#FFFFFF" height="31.291" style="stroke:#181818;stroke-width:1.0;" width="10" x="970.5" y="375.5703"/><polygon fill="#181818" points="203.5,152.5332,213.5,156.5332,203.5,160.5332,207.5,156.5332" style="stroke:#181818;stroke-width:1.0;"/><line style="stroke:#181818;stroke-width:1.0;" x1="33.5" x2="209.5" y1="156.5332" y2="156.5332"/><text fill="#000000" font-family="sans-serif" font-size="13" font-weight="bold" lengthAdjust="spacing" textLength="7" x="40.5" y="151.2705">1</text><text fill="#000000" font-family="sans-serif" font-size="13" lengthAdjust="spacing" textLength="93" x="51.5" y="151.2705">submits request</text><polygon fill="#181818" points="408.5,183.8242,418.5,187.8242,408.5,191.8242,412.5,187.8242" style="stroke:#181818;stroke-width:1.0;"/><line style="stroke:#181818;stroke-width:1.0;" x1="225.5" x2="414.5" y1="187.8242" y2="187.8242"/><text fill="#000000" font-family="sans-serif" font-size="13" font-weight="bold" lengthAdjust="spacing" textLength="7" x="232.5" y="182.5615">2</text><text fill="#000000" font-family="sans-serif" font-size="13" lengthAdjust="spacing" textLength="138" x="243.5" y="182.5615">submitRequest(request)</text><polygon fill="#181818" points="602.5,215.1152,612.5,219.1152,602.5,223.1152,606.5,219.1152" style="stroke:#181818;stroke-width:1.0;"/><line style="stroke:#181818;stroke-width:1.0;" x1="430.5" x2="608.5" y1="219.1152" y2="219.1152"/><text fill="#000000" font-family="sans-serif" font-size="13" font-weight="bold" lengthAdjust="spacing" textLength="7" x="437.5" y="213.8525">3</text><text fill="#000000" font-family="sans-serif" font-size="13" lengthAdjust="spacing" textLength="120" x="448.5" y="213.8525">addRequest(request)</text><polygon fill="#181818" points="725.5,246.4063,735.5,250.4063,725.5,254.4063,729.5,250.4063" style="stroke:#181818;stroke-width:1.0;"/><line style="stroke:#181818;stroke-width:1.0;" x1="624.5" x2="731.5" y1="250.4063" y2="250.4063"/><text fill="#000000" font-family="sans-serif" font-size="13" font-weight="bold" lengthAdjust="spacing" textLength="7" x="631.5" y="245.1436">4</text><text fill="#000000" font-family="sans-serif" font-size="13" lengthAdjust="spacing" textLength="75" x="642.5" y="245.1436">getInstance()</text><polygon fill="#181818" points="635.5,277.6973,625.5,281.6973,635.5,285.6973,631.5,281.6973" style="stroke:#181818;stroke-width:1.0;"/><line style="stroke:#181818;stroke-width:1.0;stroke-dasharray:2.0,2.0;" x1="629.5" x2="741.5" y1="281.6973" y2="281.6973"/><text fill="#000000" font-family="sans-serif" font-size="13" font-weight="bold" lengthAdjust="spacing" textLength="7" x="641.5" y="276.4346">5</text><text fill="#000000" font-family="sans-serif" font-size="13" lengthAdjust="spacing" textLength="67" x="652.5" y="276.4346">repositories</text><polygon fill="#181818" points="832.5,308.9883,842.5,312.9883,832.5,316.9883,836.5,312.9883" style="stroke:#181818;stroke-width:1.0;"/><line style="stroke:#181818;stroke-width:1.0;" x1="624.5" x2="838.5" y1="312.9883" y2="312.9883"/><text fill="#000000" font-family="sans-serif" font-size="13" font-weight="bold" lengthAdjust="spacing" textLength="7" x="631.5" y="307.7256">6</text><text fill="#000000" font-family="sans-serif" font-size="13" lengthAdjust="spacing" textLength="136" x="642.5" y="307.7256">getRequestRepository()</text><polygon fill="#181818" points="635.5,340.2793,625.5,344.2793,635.5,348.2793,631.5,344.2793" style="stroke:#181818;stroke-width:1.0;"/><line style="stroke:#181818;stroke-width:1.0;stroke-dasharray:2.0,2.0;" x1="629.5" x2="848.5" y1="344.2793" y2="344.2793"/><text fill="#000000" font-family="sans-serif" font-size="13" font-weight="bold" lengthAdjust="spacing" textLength="7" x="641.5" y="339.0166">7</text><text fill="#000000" font-family="sans-serif" font-size="13" lengthAdjust="spacing" textLength="110" x="652.5" y="339.0166">RequestRepository</text><polygon fill="#181818" points="958.5,371.5703,968.5,375.5703,958.5,379.5703,962.5,375.5703" style="stroke:#181818;stroke-width:1.0;"/><line style="stroke:#181818;stroke-width:1.0;" x1="624.5" x2="964.5" y1="375.5703" y2="375.5703"/><text fill="#000000" font-family="sans-serif" font-size="13" font-weight="bold" lengthAdjust="spacing" textLength="7" x="631.5" y="370.3076">8</text><text fill="#000000" font-family="sans-serif" font-size="13" lengthAdjust="spacing" textLength="120" x="642.5" y="370.3076">addRequest(request)</text><polygon fill="#181818" points="635.5,402.8613,625.5,406.8613,635.5,410.8613,631.5,406.8613" style="stroke:#181818;stroke-width:1.0;"/><line style="stroke:#181818;stroke-width:1.0;stroke-dasharray:2.0,2.0;" x1="629.5" x2="974.5" y1="406.8613" y2="406.8613"/><text fill="#000000" font-family="sans-serif" font-size="13" font-weight="bold" lengthAdjust="spacing" textLength="7" x="641.5" y="401.5986">9</text><text fill="#000000" font-family="sans-serif" font-size="13" lengthAdjust="spacing" textLength="53" x="652.5" y="401.5986">true/false</text><polygon fill="#181818" points="441.5,434.1523,431.5,438.1523,441.5,442.1523,437.5,438.1523" style="stroke:#181818;stroke-width:1.0;"/><line style="stroke:#181818;stroke-width:1.0;stroke-dasharray:2.0,2.0;" x1="435.5" x2="618.5" y1="438.1523" y2="438.1523"/><text fill="#000000" font-family="sans-serif" font-size="13" font-weight="bold" lengthAdjust="spacing" textLength="14" x="447.5" y="432.8896">10</text><text fill="#000000" font-family="sans-serif" font-size="13" lengthAdjust="spacing" textLength="142" x="465.5" y="432.8896">Show operation success</text><polygon fill="#181818" points="236.5,465.4434,226.5,469.4434,236.5,473.4434,232.5,469.4434" style="stroke:#181818;stroke-width:1.0;"/><line style="stroke:#181818;stroke-width:1.0;stroke-dasharray:2.0,2.0;" x1="230.5" x2="424.5" y1="469.4434" y2="469.4434"/><text fill="#000000" font-family="sans-serif" font-size="13" font-weight="bold" lengthAdjust="spacing" textLength="14" x="242.5" y="464.1807">11</text><text fill="#000000" font-family="sans-serif" font-size="13" lengthAdjust="spacing" textLength="140" x="260.5" y="464.1807">show operation success</text><polygon fill="#181818" points="39.5,496.7344,29.5,500.7344,39.5,504.7344,35.5,500.7344" style="stroke:#181818;stroke-width:1.0;"/><line style="stroke:#181818;stroke-width:1.0;stroke-dasharray:2.0,2.0;" x1="33.5" x2="219.5" y1="500.7344" y2="500.7344"/><text fill="#000000" font-family="sans-serif" font-size="13" font-weight="bold" lengthAdjust="spacing" textLength="14" x="45.5" y="495.4717">12</text><text fill="#000000" font-family="sans-serif" font-size="13" lengthAdjust="spacing" textLength="140" x="63.5" y="495.4717">show operation success</text><!--SRC=[fLInRjim4Dtv5GSljGUZ6JffA134Yu443Qnuoq9B5vc8HAeaLTT_toEjoXGbHn72oQRklNTyV3ppBcJDDQ-WKb9bHwqg1AiRPARxKlFidHUOsdE9e36pN1PbM62EF5Sd8GjuuwL1ngomLBfFx-v-m1eWnTyDoWnX8tZX0CjqisACDrR9fZgWPkpRKUG8RqhPW_hBU6QLXiMlaqIz06xWVlF4ICkAJDHSMbWaAShyMQiQjJtl7B-n-wsltM-dIn-Kj5gLPKl_yB9xx8CgBkd8RRLvbSbJRyEZ-ZMHw0vhPGGTG-2bkjiufyBvHsVlGtI08C41mVFZ_KkCyD9NvkHLxkAzLZpQPSoPBFvmYzvS1hJe1wn_ae6GW6aEbR06MWt_lKEGnNx3BQecZ7EmGxLgonQxwcex0c_ubIDSdeaO- -uIDy_pcyJXwaIY-ncNyolI8lMHsw8M2hHRQIZ_6IvNj-dYHiQkVXBjrbWNwu4t2OJHcIJEyMkD3SrooRouCyZP79jym3_bYnSSCsAOynbkV4v_B2kHw8omtiZBuBLE9oNkOJtsXjna_tuPqhDYChkVsANhY4YFwWHk67ChACwcoJ8q7wSsQ2L-q_7SyEEBvj2KI43fPz7_IKPuce8V4WHGDmU3ltwGidy0]--></g></svg>