<?xml version="1.0" encoding="us-ascii" standalone="no"?><svg xmlns="http://www.w3.org/2000/svg" xmlns:xlink="http://www.w3.org/1999/xlink" contentStyleType="text/css" height="643.5px" preserveAspectRatio="none" style="width:923px;height:643px;background:#FFFFFF;" version="1.1" viewBox="0 0 923 643" width="923px" zoomAndPan="magnify"><defs/><g><text fill="#000000" font-family="sans-serif" font-size="7" font-weight="bold" lengthAdjust="spacing" textLength="139.5" x="392.625" y="15.0537">User Story 013 - Sequence Diagram (SD)</text><rect fill="#FFFFFF" height="531.2822" style="stroke:#181818;stroke-width:0.5;" width="5" x="41.5" y="66.6211"/><rect fill="#FFFFFF" height="519.1367" style="stroke:#181818;stroke-width:0.5;" width="5" x="344.5" y="78.2666"/><rect fill="#FFFFFF" height="31.291" style="stroke:#181818;stroke-width:0.5;" width="5" x="347" y="306.9688"/><rect fill="#FFFFFF" height="109.5186" style="stroke:#181818;stroke-width:0.5;" width="5" x="543.5" y="115.7227"/><rect fill="#FFFFFF" height="46.4365" style="stroke:#181818;stroke-width:0.5;" width="5" x="543.5" y="240.8867"/><rect fill="#FFFFFF" height="215.207" style="stroke:#181818;stroke-width:0.5;" width="5" x="543.5" y="338.2598"/><rect fill="#FFFFFF" height="21.1455" style="stroke:#181818;stroke-width:0.5;" width="5" x="546" y="504.5303"/><rect fill="#FFFFFF" height="15.6455" style="stroke:#181818;stroke-width:0.5;" width="5" x="691" y="131.3682"/><rect fill="#FFFFFF" height="15.6455" style="stroke:#181818;stroke-width:0.5;" width="5" x="691" y="353.9053"/><rect fill="#FFFFFF" height="15.6455" style="stroke:#181818;stroke-width:0.5;" width="5" x="744.5" y="162.6592"/><rect fill="#FFFFFF" height="15.6455" style="stroke:#181818;stroke-width:0.5;" width="5" x="744.5" y="385.1963"/><rect fill="#FFFFFF" height="15.6455" style="stroke:#181818;stroke-width:0.5;" width="5" x="803.75" y="193.9502"/><rect fill="#FFFFFF" height="15.6455" style="stroke:#181818;stroke-width:0.5;" width="5" x="875.75" y="416.4873"/><rect fill="none" height="276.9346" style="stroke:#000000;stroke-width:0.75;" width="915.25" x="5" y="316.9688"/><rect fill="none" height="150.7705" style="stroke:#000000;stroke-width:0.75;" width="686" x="10" y="439.6328"/><line style="stroke:#181818;stroke-width:0.25;stroke-dasharray:5.0,5.0;" x1="44" x2="44" y1="61.6211" y2="602.4033"/><line style="stroke:#181818;stroke-width:0.25;stroke-dasharray:5.0,5.0;" x1="347" x2="347" y1="61.6211" y2="602.4033"/><line style="stroke:#181818;stroke-width:0.25;stroke-dasharray:5.0,5.0;" x1="546" x2="546" y1="98.1719" y2="602.4033"/><line style="stroke:#181818;stroke-width:0.25;stroke-dasharray:5.0,5.0;" x1="693.25" x2="693.25" y1="61.6211" y2="602.4033"/><line style="stroke:#181818;stroke-width:0.25;stroke-dasharray:5.0,5.0;" x1="746.75" x2="746.75" y1="61.6211" y2="602.4033"/><line style="stroke:#181818;stroke-width:0.25;stroke-dasharray:5.0,5.0;" x1="806.25" x2="806.25" y1="61.6211" y2="602.4033"/><line style="stroke:#181818;stroke-width:0.25;stroke-dasharray:5.0,5.0;" x1="878.25" x2="878.25" y1="61.6211" y2="602.4033"/><text fill="#000000" font-family="sans-serif" font-size="7" lengthAdjust="spacing" textLength="55" x="15" y="59.8643">Network Manager</text><ellipse cx="44" cy="26.5605" fill="#E3E3E3" rx="4" ry="4" style="stroke:#181818;stroke-width:0.25;"/><path d="M44,30.5605 L44,44.0605 M37.5,34.5605 L50.5,34.5605 M44,44.0605 L37.5,51.5605 M44,44.0605 L50.5,51.5605 " fill="none" style="stroke:#181818;stroke-width:0.25;"/><text fill="#000000" font-family="sans-serif" font-size="7" lengthAdjust="spacing" textLength="55" x="15" y="609.457">Network Manager</text><ellipse cx="44" cy="615.4639" fill="#E3E3E3" rx="4" ry="4" style="stroke:#181818;stroke-width:0.25;"/><path d="M44,619.4639 L44,632.9639 M37.5,623.4639 L50.5,623.4639 M44,632.9639 L37.5,640.4639 M44,632.9639 L50.5,640.4639 " fill="none" style="stroke:#181818;stroke-width:0.25;"/><rect fill="#E3E3E3" height="16.3105" rx="1.25" ry="1.25" style="stroke:#181818;stroke-width:0.25;" width="75" x="309.5" y="44.8105"/><text fill="#000000" font-family="sans-serif" font-size="7" lengthAdjust="spacing" textLength="68" x="313" y="55.8643">:ListEveryEmployeeUI</text><rect fill="#E3E3E3" height="16.3105" rx="1.25" ry="1.25" style="stroke:#181818;stroke-width:0.25;" width="75" x="309.5" y="601.9033"/><text fill="#000000" font-family="sans-serif" font-size="7" lengthAdjust="spacing" textLength="68" x="313" y="612.957">:ListEveryEmployeeUI</text><rect fill="#E3E3E3" height="16.3105" rx="1.25" ry="1.25" style="stroke:#181818;stroke-width:0.25;" width="100" x="496" y="601.9033"/><text fill="#000000" font-family="sans-serif" font-size="7" lengthAdjust="spacing" textLength="93" x="499.5" y="612.957">:ListEveryEmployeeController</text><rect fill="#E3E3E3" height="16.3105" rx="1.25" ry="1.25" style="stroke:#181818;stroke-width:0.25;" width="48.5" x="669.25" y="44.8105"/><text fill="#000000" font-family="sans-serif" font-size="7" lengthAdjust="spacing" textLength="41.5" x="672.75" y="55.8643">:Repositories</text><rect fill="#E3E3E3" height="16.3105" rx="1.25" ry="1.25" style="stroke:#181818;stroke-width:0.25;" width="48.5" x="669.25" y="601.9033"/><text fill="#000000" font-family="sans-serif" font-size="7" lengthAdjust="spacing" textLength="41.5" x="672.75" y="612.957">:Repositories</text><rect fill="#E3E3E3" height="25.6211" rx="1.25" ry="1.25" style="stroke:#181818;stroke-width:0.25;" width="48.5" x="722.75" y="35.5"/><text fill="#000000" font-family="sans-serif" font-size="7" lengthAdjust="spacing" textLength="37" x="728.5" y="46.5537">repositories</text><text fill="#000000" font-family="sans-serif" font-size="7" lengthAdjust="spacing" textLength="41.5" x="726.25" y="55.8643">:Repositories</text><rect fill="#E3E3E3" height="25.6211" rx="1.25" ry="1.25" style="stroke:#181818;stroke-width:0.25;" width="48.5" x="722.75" y="601.9033"/><text fill="#000000" font-family="sans-serif" font-size="7" lengthAdjust="spacing" textLength="37" x="728.5" y="612.957">repositories</text><text fill="#000000" font-family="sans-serif" font-size="7" lengthAdjust="spacing" textLength="41.5" x="726.25" y="622.2676">:Repositories</text><rect fill="#E3E3E3" height="25.6211" rx="1.25" ry="1.25" style="stroke:#181818;stroke-width:0.25;" width="60" x="776.25" y="35.5"/><text fill="#000000" font-family="sans-serif" font-size="7" lengthAdjust="spacing" textLength="50" x="781.25" y="46.5537">storeRepository</text><text fill="#000000" font-family="sans-serif" font-size="7" lengthAdjust="spacing" textLength="53" x="779.75" y="55.8643">:StoreRepository</text><rect fill="#E3E3E3" height="25.6211" rx="1.25" ry="1.25" style="stroke:#181818;stroke-width:0.25;" width="60" x="776.25" y="601.9033"/><text fill="#000000" font-family="sans-serif" font-size="7" lengthAdjust="spacing" textLength="50" x="781.25" y="612.957">storeRepository</text><text fill="#000000" font-family="sans-serif" font-size="7" lengthAdjust="spacing" textLength="53" x="779.75" y="622.2676">:StoreRepository</text><rect fill="#E3E3E3" height="25.6211" rx="1.25" ry="1.25" style="stroke:#181818;stroke-width:0.25;" width="74" x="841.25" y="35.5"/><text fill="#000000" font-family="sans-serif" font-size="7" lengthAdjust="spacing" textLength="64.5" x="846" y="46.5537">employeeRepository</text><text fill="#000000" font-family="sans-serif" font-size="7" lengthAdjust="spacing" textLength="67" x="844.75" y="55.8643">:EmployeeRepository</text><rect fill="#E3E3E3" height="25.6211" rx="1.25" ry="1.25" style="stroke:#181818;stroke-width:0.25;" width="74" x="841.25" y="601.9033"/><text fill="#000000" font-family="sans-serif" font-size="7" lengthAdjust="spacing" textLength="64.5" x="846" y="612.957">employeeRepository</text><text fill="#000000" font-family="sans-serif" font-size="7" lengthAdjust="spacing" textLength="67" x="844.75" y="622.2676">:EmployeeRepository</text><rect fill="#FFFFFF" height="531.2822" style="stroke:#181818;stroke-width:0.5;" width="5" x="41.5" y="66.6211"/><rect fill="#FFFFFF" height="519.1367" style="stroke:#181818;stroke-width:0.5;" width="5" x="344.5" y="78.2666"/><rect fill="#FFFFFF" height="31.291" style="stroke:#181818;stroke-width:0.5;" width="5" x="347" y="306.9688"/><rect fill="#FFFFFF" height="109.5186" style="stroke:#181818;stroke-width:0.5;" width="5" x="543.5" y="115.7227"/><rect fill="#FFFFFF" height="46.4365" style="stroke:#181818;stroke-width:0.5;" width="5" x="543.5" y="240.8867"/><rect fill="#FFFFFF" height="215.207" style="stroke:#181818;stroke-width:0.5;" width="5" x="543.5" y="338.2598"/><rect fill="#FFFFFF" height="21.1455" style="stroke:#181818;stroke-width:0.5;" width="5" x="546" y="504.5303"/><rect fill="#FFFFFF" height="15.6455" style="stroke:#181818;stroke-width:0.5;" width="5" x="691" y="131.3682"/><rect fill="#FFFFFF" height="15.6455" style="stroke:#181818;stroke-width:0.5;" width="5" x="691" y="353.9053"/><rect fill="#FFFFFF" height="15.6455" style="stroke:#181818;stroke-width:0.5;" width="5" x="744.5" y="162.6592"/><rect fill="#FFFFFF" height="15.6455" style="stroke:#181818;stroke-width:0.5;" width="5" x="744.5" y="385.1963"/><rect fill="#FFFFFF" height="15.6455" style="stroke:#181818;stroke-width:0.5;" width="5" x="803.75" y="193.9502"/><rect fill="#FFFFFF" height="15.6455" style="stroke:#181818;stroke-width:0.5;" width="5" x="875.75" y="416.4873"/><polygon fill="#181818" points="338.5,76.2666,343.5,78.2666,338.5,80.2666,340.5,78.2666" style="stroke:#181818;stroke-width:0.5;"/><line style="stroke:#181818;stroke-width:0.5;" x1="46.5" x2="341.5" y1="78.2666" y2="78.2666"/><text fill="#000000" font-family="sans-serif" font-size="6.5" font-weight="bold" lengthAdjust="spacing" textLength="3.5" x="50" y="75.6353">1</text><text fill="#000000" font-family="sans-serif" font-size="6.5" lengthAdjust="spacing" textLength="137.5" x="55.5" y="75.6353">request to see the list of all employees by store</text><polygon fill="#181818" points="490,91.9121,495,93.9121,490,95.9121,492,93.9121" style="stroke:#181818;stroke-width:0.5;"/><line style="stroke:#181818;stroke-width:0.5;" x1="349.5" x2="493" y1="93.9121" y2="93.9121"/><text fill="#000000" font-family="sans-serif" font-size="6.5" font-weight="bold" lengthAdjust="spacing" textLength="3.5" x="353" y="91.2808">2</text><text fill="#000000" font-family="sans-serif" font-size="6.5" lengthAdjust="spacing" textLength="18" x="358.5" y="91.2808">create</text><rect fill="#E3E3E3" height="16.3105" rx="1.25" ry="1.25" style="stroke:#181818;stroke-width:0.25;" width="100" x="496" y="82.2666"/><text fill="#000000" font-family="sans-serif" font-size="7" lengthAdjust="spacing" textLength="93" x="499.5" y="93.3203">:ListEveryEmployeeController</text><polygon fill="#181818" points="537.5,113.7227,542.5,115.7227,537.5,117.7227,539.5,115.7227" style="stroke:#181818;stroke-width:0.5;"/><line style="stroke:#181818;stroke-width:0.5;" x1="349.5" x2="540.5" y1="115.7227" y2="115.7227"/><text fill="#000000" font-family="sans-serif" font-size="6.5" font-weight="bold" lengthAdjust="spacing" textLength="3.5" x="353" y="113.0913">3</text><text fill="#000000" font-family="sans-serif" font-size="6.5" lengthAdjust="spacing" textLength="32" x="358.5" y="113.0913">getStores()</text><polygon fill="#181818" points="685,129.3682,690,131.3682,685,133.3682,687,131.3682" style="stroke:#181818;stroke-width:0.5;"/><line style="stroke:#181818;stroke-width:0.5;" x1="548.5" x2="688" y1="131.3682" y2="131.3682"/><text fill="#000000" font-family="sans-serif" font-size="6.5" font-weight="bold" lengthAdjust="spacing" textLength="3.5" x="552" y="128.7368">4</text><text fill="#000000" font-family="sans-serif" font-size="6.5" lengthAdjust="spacing" textLength="37.5" x="557.5" y="128.7368">getInstance()</text><polygon fill="#181818" points="554,145.0137,549,147.0137,554,149.0137,552,147.0137" style="stroke:#181818;stroke-width:0.5;"/><line style="stroke:#181818;stroke-width:0.5;stroke-dasharray:2.0,2.0;" x1="551" x2="693" y1="147.0137" y2="147.0137"/><text fill="#000000" font-family="sans-serif" font-size="6.5" font-weight="bold" lengthAdjust="spacing" textLength="3.5" x="557" y="144.3823">5</text><text fill="#000000" font-family="sans-serif" font-size="6.5" lengthAdjust="spacing" textLength="33.5" x="562.5" y="144.3823">repositories</text><polygon fill="#181818" points="738.5,160.6592,743.5,162.6592,738.5,164.6592,740.5,162.6592" style="stroke:#181818;stroke-width:0.5;"/><line style="stroke:#181818;stroke-width:0.5;" x1="548.5" x2="741.5" y1="162.6592" y2="162.6592"/><text fill="#000000" font-family="sans-serif" font-size="6.5" font-weight="bold" lengthAdjust="spacing" textLength="3.5" x="552" y="160.0278">6</text><text fill="#000000" font-family="sans-serif" font-size="6.5" lengthAdjust="spacing" textLength="59.5" x="557.5" y="160.0278">getStoreRepository()</text><polygon fill="#181818" points="554,176.3047,549,178.3047,554,180.3047,552,178.3047" style="stroke:#181818;stroke-width:0.5;"/><line style="stroke:#181818;stroke-width:0.5;stroke-dasharray:2.0,2.0;" x1="551" x2="746.5" y1="178.3047" y2="178.3047"/><text fill="#000000" font-family="sans-serif" font-size="6.5" font-weight="bold" lengthAdjust="spacing" textLength="3.5" x="557" y="175.6733">7</text><text fill="#000000" font-family="sans-serif" font-size="6.5" lengthAdjust="spacing" textLength="45.5" x="562.5" y="175.6733">storeRepository</text><polygon fill="#181818" points="797.75,191.9502,802.75,193.9502,797.75,195.9502,799.75,193.9502" style="stroke:#181818;stroke-width:0.5;"/><line style="stroke:#181818;stroke-width:0.5;" x1="548.5" x2="800.75" y1="193.9502" y2="193.9502"/><text fill="#000000" font-family="sans-serif" font-size="6.5" font-weight="bold" lengthAdjust="spacing" textLength="3.5" x="552" y="191.3188">8</text><text fill="#000000" font-family="sans-serif" font-size="6.5" lengthAdjust="spacing" textLength="32" x="557.5" y="191.3188">getStores()</text><polygon fill="#181818" points="554,207.5957,549,209.5957,554,211.5957,552,209.5957" style="stroke:#181818;stroke-width:0.5;"/><line style="stroke:#181818;stroke-width:0.5;stroke-dasharray:2.0,2.0;" x1="551" x2="805.75" y1="209.5957" y2="209.5957"/><text fill="#000000" font-family="sans-serif" font-size="6.5" font-weight="bold" lengthAdjust="spacing" textLength="3.5" x="557" y="206.9644">9</text><text fill="#000000" font-family="sans-serif" font-size="6.5" lengthAdjust="spacing" textLength="25" x="562.5" y="206.9644">storeList</text><polygon fill="#181818" points="355,223.2412,350,225.2412,355,227.2412,353,225.2412" style="stroke:#181818;stroke-width:0.5;"/><line style="stroke:#181818;stroke-width:0.5;stroke-dasharray:2.0,2.0;" x1="352" x2="545.5" y1="225.2412" y2="225.2412"/><text fill="#000000" font-family="sans-serif" font-size="6.5" font-weight="bold" lengthAdjust="spacing" textLength="7" x="358" y="222.6099">10</text><text fill="#000000" font-family="sans-serif" font-size="6.5" lengthAdjust="spacing" textLength="25" x="367" y="222.6099">storeList</text><polygon fill="#181818" points="537.5,238.8867,542.5,240.8867,537.5,242.8867,539.5,240.8867" style="stroke:#181818;stroke-width:0.5;"/><line style="stroke:#181818;stroke-width:0.5;" x1="349.5" x2="540.5" y1="240.8867" y2="240.8867"/><text fill="#000000" font-family="sans-serif" font-size="6.5" font-weight="bold" lengthAdjust="spacing" textLength="7" x="353" y="238.2554">11</text><text fill="#000000" font-family="sans-serif" font-size="6.5" lengthAdjust="spacing" textLength="116.5" x="362" y="238.2554">sortStoresByNumOfProperties(storeList)</text><line style="stroke:#181818;stroke-width:0.5;" x1="548.5" x2="569.5" y1="265.1777" y2="265.1777"/><line style="stroke:#181818;stroke-width:0.5;" x1="569.5" x2="569.5" y1="265.1777" y2="271.6777"/><line style="stroke:#181818;stroke-width:0.5;" x1="549" x2="569.5" y1="271.6777" y2="271.6777"/><polygon fill="#181818" points="554,269.6777,549,271.6777,554,273.6777,552,271.6777" style="stroke:#181818;stroke-width:0.5;"/><text fill="#000000" font-family="sans-serif" font-size="6.5" font-weight="bold" lengthAdjust="spacing" textLength="7" x="552" y="258.2236">12</text><text fill="#000000" font-family="sans-serif" font-size="6.5" lengthAdjust="spacing" textLength="48.5" x="561" y="253.9009">sorts given list in</text><text fill="#000000" font-family="sans-serif" font-size="6.5" lengthAdjust="spacing" textLength="71" x="561" y="262.5464">descending order of area</text><polygon fill="#181818" points="355,285.3232,350,287.3232,355,289.3232,353,287.3232" style="stroke:#181818;stroke-width:0.5;"/><line style="stroke:#181818;stroke-width:0.5;stroke-dasharray:2.0,2.0;" x1="352" x2="545.5" y1="287.3232" y2="287.3232"/><text fill="#000000" font-family="sans-serif" font-size="6.5" font-weight="bold" lengthAdjust="spacing" textLength="7" x="358" y="284.6919">13</text><text fill="#000000" font-family="sans-serif" font-size="6.5" lengthAdjust="spacing" textLength="25" x="367" y="284.6919">storeList</text><line style="stroke:#181818;stroke-width:0.5;" x1="349.5" x2="373" y1="300.4688" y2="300.4688"/><line style="stroke:#181818;stroke-width:0.5;" x1="373" x2="373" y1="300.4688" y2="306.9688"/><line style="stroke:#181818;stroke-width:0.5;" x1="352.5" x2="373" y1="306.9688" y2="306.9688"/><polygon fill="#181818" points="357.5,304.9688,352.5,306.9688,357.5,308.9688,355.5,306.9688" style="stroke:#181818;stroke-width:0.5;"/><text fill="#000000" font-family="sans-serif" font-size="6.5" font-weight="bold" lengthAdjust="spacing" textLength="7" x="355.5" y="297.8374">14</text><text fill="#000000" font-family="sans-serif" font-size="6.5" lengthAdjust="spacing" textLength="119" x="364.5" y="297.8374">printAllStoresAndItsEmployees(storeList)</text><path d="M5,316.9688 L41.5,316.9688 L41.5,321.6143 L36.5,326.6143 L5,326.6143 L5,316.9688 " fill="#EEEEEE" style="stroke:#000000;stroke-width:0.75;"/><rect fill="none" height="276.9346" style="stroke:#000000;stroke-width:0.75;" width="915.25" x="5" y="316.9688"/><text fill="#000000" font-family="sans-serif" font-size="6.5" font-weight="bold" lengthAdjust="spacing" textLength="14" x="12.5" y="324.4829">loop</text><text fill="#000000" font-family="sans-serif" font-size="5.5" font-weight="bold" lengthAdjust="spacing" textLength="79" x="49" y="323.9038">[for every store in storeList]</text><polygon fill="#181818" points="537.5,336.2598,542.5,338.2598,537.5,340.2598,539.5,338.2598" style="stroke:#181818;stroke-width:0.5;"/><line style="stroke:#181818;stroke-width:0.5;" x1="349.5" x2="540.5" y1="338.2598" y2="338.2598"/><text fill="#000000" font-family="sans-serif" font-size="6.5" font-weight="bold" lengthAdjust="spacing" textLength="7" x="353" y="335.6284">15</text><text fill="#000000" font-family="sans-serif" font-size="6.5" lengthAdjust="spacing" textLength="94.5" x="362" y="335.6284">printAllEmployeesByStore(store)</text><polygon fill="#181818" points="685,351.9053,690,353.9053,685,355.9053,687,353.9053" style="stroke:#181818;stroke-width:0.5;"/><line style="stroke:#181818;stroke-width:0.5;" x1="548.5" x2="688" y1="353.9053" y2="353.9053"/><text fill="#000000" font-family="sans-serif" font-size="6.5" font-weight="bold" lengthAdjust="spacing" textLength="7" x="552" y="351.2739">16</text><text fill="#000000" font-family="sans-serif" font-size="6.5" lengthAdjust="spacing" textLength="37.5" x="561" y="351.2739">getInstance()</text><polygon fill="#181818" points="554,367.5508,549,369.5508,554,371.5508,552,369.5508" style="stroke:#181818;stroke-width:0.5;"/><line style="stroke:#181818;stroke-width:0.5;stroke-dasharray:2.0,2.0;" x1="551" x2="693" y1="369.5508" y2="369.5508"/><text fill="#000000" font-family="sans-serif" font-size="6.5" font-weight="bold" lengthAdjust="spacing" textLength="7" x="557" y="366.9194">17</text><text fill="#000000" font-family="sans-serif" font-size="6.5" lengthAdjust="spacing" textLength="33.5" x="566" y="366.9194">repositories</text><polygon fill="#181818" points="738.5,383.1963,743.5,385.1963,738.5,387.1963,740.5,385.1963" style="stroke:#181818;stroke-width:0.5;"/><line style="stroke:#181818;stroke-width:0.5;" x1="548.5" x2="741.5" y1="385.1963" y2="385.1963"/><text fill="#000000" font-family="sans-serif" font-size="6.5" font-weight="bold" lengthAdjust="spacing" textLength="7" x="552" y="382.5649">18</text><text fill="#000000" font-family="sans-serif" font-size="6.5" lengthAdjust="spacing" textLength="73" x="561" y="382.5649">getEmployeeRepository()</text><polygon fill="#181818" points="554,398.8418,549,400.8418,554,402.8418,552,400.8418" style="stroke:#181818;stroke-width:0.5;"/><line style="stroke:#181818;stroke-width:0.5;stroke-dasharray:2.0,2.0;" x1="551" x2="746.5" y1="400.8418" y2="400.8418"/><text fill="#000000" font-family="sans-serif" font-size="6.5" font-weight="bold" lengthAdjust="spacing" textLength="7" x="557" y="398.2104">19</text><text fill="#000000" font-family="sans-serif" font-size="6.5" lengthAdjust="spacing" textLength="59" x="566" y="398.2104">employeeRepository</text><polygon fill="#181818" points="869.75,414.4873,874.75,416.4873,869.75,418.4873,871.75,416.4873" style="stroke:#181818;stroke-width:0.5;"/><line style="stroke:#181818;stroke-width:0.5;" x1="548.5" x2="872.75" y1="416.4873" y2="416.4873"/><text fill="#000000" font-family="sans-serif" font-size="6.5" font-weight="bold" lengthAdjust="spacing" textLength="7" x="552" y="413.856">20</text><text fill="#000000" font-family="sans-serif" font-size="6.5" lengthAdjust="spacing" textLength="45.5" x="561" y="413.856">getEmployees()</text><polygon fill="#181818" points="554,430.1328,549,432.1328,554,434.1328,552,432.1328" style="stroke:#181818;stroke-width:0.5;"/><line style="stroke:#181818;stroke-width:0.5;stroke-dasharray:2.0,2.0;" x1="551" x2="877.75" y1="432.1328" y2="432.1328"/><text fill="#000000" font-family="sans-serif" font-size="6.5" font-weight="bold" lengthAdjust="spacing" textLength="7" x="557" y="429.5015">21</text><text fill="#000000" font-family="sans-serif" font-size="6.5" lengthAdjust="spacing" textLength="38.5" x="566" y="429.5015">employeeList</text><path d="M10,439.6328 L40.5,439.6328 L40.5,444.2783 L35.5,449.2783 L10,449.2783 L10,439.6328 " fill="#EEEEEE" style="stroke:#000000;stroke-width:0.75;"/><rect fill="none" height="150.7705" style="stroke:#000000;stroke-width:0.75;" width="686" x="10" y="439.6328"/><text fill="#000000" font-family="sans-serif" font-size="6.5" font-weight="bold" lengthAdjust="spacing" textLength="8" x="17.5" y="447.147">alt</text><text fill="#000000" font-family="sans-serif" font-size="5.5" font-weight="bold" lengthAdjust="spacing" textLength="43" x="48" y="446.5679">[if list is empty]</text><polygon fill="#181818" points="355,458.9238,350,460.9238,355,462.9238,353,460.9238" style="stroke:#181818;stroke-width:0.5;"/><line style="stroke:#181818;stroke-width:0.5;stroke-dasharray:2.0,2.0;" x1="352" x2="543" y1="460.9238" y2="460.9238"/><text fill="#000000" font-family="sans-serif" font-size="6.5" font-weight="bold" lengthAdjust="spacing" textLength="7" x="358" y="458.2925">22</text><text fill="#000000" font-family="sans-serif" font-size="6.5" lengthAdjust="spacing" textLength="115.5" x="367" y="458.2925">returns warning saying that list is empty</text><polygon fill="#181818" points="52,474.5693,47,476.5693,52,478.5693,50,476.5693" style="stroke:#181818;stroke-width:0.5;"/><line style="stroke:#181818;stroke-width:0.5;stroke-dasharray:2.0,2.0;" x1="49" x2="344" y1="476.5693" y2="476.5693"/><text fill="#000000" font-family="sans-serif" font-size="6.5" font-weight="bold" lengthAdjust="spacing" textLength="7" x="55" y="473.938">23</text><text fill="#000000" font-family="sans-serif" font-size="6.5" lengthAdjust="spacing" textLength="135" x="64" y="473.938">informs the user that the list of stores is empty</text><line style="stroke:#000000;stroke-width:0.5;stroke-dasharray:2.0,2.0;" x1="10" x2="696" y1="481.0693" y2="481.0693"/><text fill="#000000" font-family="sans-serif" font-size="5.5" font-weight="bold" lengthAdjust="spacing" textLength="50" x="12.5" y="487.0044">[if list isn't empty]</text><line style="stroke:#181818;stroke-width:0.5;" x1="548.5" x2="572" y1="498.0303" y2="498.0303"/><line style="stroke:#181818;stroke-width:0.5;" x1="572" x2="572" y1="498.0303" y2="504.5303"/><line style="stroke:#181818;stroke-width:0.5;" x1="551.5" x2="572" y1="504.5303" y2="504.5303"/><polygon fill="#181818" points="556.5,502.5303,551.5,504.5303,556.5,506.5303,554.5,504.5303" style="stroke:#181818;stroke-width:0.5;"/><text fill="#000000" font-family="sans-serif" font-size="6.5" font-weight="bold" lengthAdjust="spacing" textLength="7" x="554.5" y="495.3989">24</text><text fill="#000000" font-family="sans-serif" font-size="6.5" lengthAdjust="spacing" textLength="126.5" x="563.5" y="495.3989">sortEmployeesAlphabetically(employeeList)</text><line style="stroke:#181818;stroke-width:0.5;stroke-dasharray:2.0,2.0;" x1="551" x2="572" y1="525.1758" y2="525.1758"/><line style="stroke:#181818;stroke-width:0.5;stroke-dasharray:2.0,2.0;" x1="572" x2="572" y1="525.1758" y2="531.6758"/><line style="stroke:#181818;stroke-width:0.5;stroke-dasharray:2.0,2.0;" x1="548.5" x2="572" y1="531.6758" y2="531.6758"/><polygon fill="#181818" points="553.5,529.6758,548.5,531.6758,553.5,533.6758,551.5,531.6758" style="stroke:#181818;stroke-width:0.5;"/><text fill="#000000" font-family="sans-serif" font-size="6.5" font-weight="bold" lengthAdjust="spacing" textLength="7" x="554.5" y="522.5444">25</text><text fill="#000000" font-family="sans-serif" font-size="6.5" lengthAdjust="spacing" textLength="30.5" x="563.5" y="522.5444">sorted List</text><polygon fill="#181818" points="355,551.4668,350,553.4668,355,555.4668,353,553.4668" style="stroke:#181818;stroke-width:0.5;"/><line style="stroke:#181818;stroke-width:0.5;stroke-dasharray:2.0,2.0;" x1="352" x2="545.5" y1="553.4668" y2="553.4668"/><text fill="#000000" font-family="sans-serif" font-size="6.5" font-weight="bold" lengthAdjust="spacing" textLength="7" x="358" y="546.5127">26</text><text fill="#000000" font-family="sans-serif" font-size="6.5" lengthAdjust="spacing" textLength="173" x="367" y="542.1899">every employee working on that store, sorted alphabetically,</text><text fill="#000000" font-family="sans-serif" font-size="6.5" lengthAdjust="spacing" textLength="48.5" x="367" y="550.8354">grouped by store</text><polygon fill="#181818" points="52,584.4033,47,586.4033,52,588.4033,50,586.4033" style="stroke:#181818;stroke-width:0.5;"/><line style="stroke:#181818;stroke-width:0.5;stroke-dasharray:2.0,2.0;" x1="49" x2="344" y1="586.4033" y2="586.4033"/><text fill="#000000" font-family="sans-serif" font-size="6.5" font-weight="bold" lengthAdjust="spacing" textLength="7" x="55" y="575.1265">27</text><text fill="#000000" font-family="sans-serif" font-size="6.5" lengthAdjust="spacing" textLength="207.5" x="64" y="566.481">return the list of all registered employees, grouped by stores. Stores are</text><text fill="#000000" font-family="sans-serif" font-size="6.5" lengthAdjust="spacing" textLength="203" x="64" y="575.1265">sorted in descending order by the number of property listings they own</text><text fill="#000000" font-family="sans-serif" font-size="6.5" lengthAdjust="spacing" textLength="277" x="64" y="583.772">(the list must show the exact number). Employees inside a Store must be sorted alphabetically.</text><!--SRC=[rLOzRzim4DtvAmvPOXTnqA9RXWBEns0WJOCusRBGqbaM8f4gISNHl- -Hr0SfoGqwTh0DK_VUFTuz7gNVSb5nnKiefP39GSaImQWQcUwVL3nvunbkJLCWA4mC5raH1kW3J-Kn5ndiUQ6HCPCR2dtHg61hf6hWwxVli88j_gvH90YtESyiSB6zNJB6QoD5NUvGCNP-o5E4lPHc9pyOJmWDPmzeZbAzmKykI8Sw0wwXNMkN60anUP9NN1WukxhFjRbxHzNSbLKX6yINZGEzR3uBl972A5aKRPQRvwVx4UG9AwbpqfMZTZ7zGhFDRM5eCp541OXNCILul5y_nmXDJt7W9T0sNd6uqLfCWUs68fQxoQ8ZcYupM_hydHiS5vh5_s7rWweAL-GBwgqsO2He90iT40egBiWzyAA0Jew6NGDkUqC6wWeZ3cAovVxoXTWIXVGaNAR538tRibui1x3h47CH53dJ2m_S24ssJJ24pZMEpJ6iMWrsbqFlM8f_f-f4sVu6yeVOK8mp0NEXGxgH3yACFhvBCI8-LQonOzWOjnggxNBRyn5cdH1u0Pq9PZ6-Gr4djLIjkklceIv_xH-Lh93SIt9xZfDDRcj371go_1s5TrekNaMAEa6Hsb4aLKhsjFOZB_shJXTLgLoOTL5ufMkHRepkZigyJd9o8ML5yqi1sh7YCv6q86LKYIv7ptlTk7IUVXdg8_9OwtzY-kbq-TJtq-5rslfJ-ZXjT03c9jqCGN0CEYbZjypEp89Sk6_Tg2tKDA7pR2bDhOI68rV2cbJpnlwO0pSZc7K9WU9fUqLE8c-LsitNsjwl3XfEMsSSFH0XtSY1Ad5k8c7HcUnhjYwg0zyXNISql9j5M8Jbh0jZ7anXzdJ5fz2Va8uRx3xTmHL-KsuZ5nqVZnHTl8fCoRgY1_rzCavseeA-1PCBIc56_r0HOtzNNS0uYRxq8r3RgV8gMcrql2U3Xn0sXN-liKagF-8QbvNYN0yRa4SQMujUJLdJbpx8eqFZ1ssfvLXUzfwZxWfjtvEuL-DHEvolrIKZOUuJ3vC_]--></g></svg>