<?xml version="1.0" encoding="us-ascii" standalone="no"?><svg xmlns="http://www.w3.org/2000/svg" xmlns:xlink="http://www.w3.org/1999/xlink" contentStyleType="text/css" height="666px" preserveAspectRatio="none" style="width:595px;height:666px;background:#FFFFFF;" version="1.1" viewBox="0 0 595 666" width="595.2px" zoomAndPan="magnify"><defs/><g><text fill="#000000" font-family="sans-serif" font-size="8.4" font-weight="bold" lengthAdjust="spacing" textLength="195.6" x="195.75" y="15.0645">US013 List Employees by Store - Class Diagram</text><!--class NetworkManager--><g id="elem_NetworkManager"><rect codeLine="14" fill="#F1F1F1" height="62.318" id="NetworkManager" rx="1.5" ry="1.5" style="stroke:#181818;stroke-width:0.3;" width="82.8" x="16.5" y="27.9727"/><ellipse cx="25.5" cy="37.5727" fill="#ADD1B2" rx="6.6" ry="6.6" style="stroke:#181818;stroke-width:0.6;"/><path d="M27.1594,35.0977 Q27.2531,34.9664 27.3656,34.9008 Q27.4781,34.8352 27.6094,34.8352 Q27.8344,34.8352 27.975,34.9945 Q28.1156,35.1445 28.1156,35.5102 L28.1156,36.382 Q28.1156,36.7477 27.975,36.907 Q27.8344,37.0664 27.6094,37.0664 Q27.4031,37.0664 27.2813,36.9445 Q27.1594,36.832 27.0938,36.5227 Q27.0656,36.307 26.9531,36.1945 Q26.7562,35.9695 26.3906,35.8383 Q26.025,35.707 25.65,35.707 Q25.1906,35.707 24.8063,35.9039 Q24.4313,36.1008 24.1312,36.5508 Q23.8406,37.0008 23.8406,37.6195 L23.8406,38.2758 Q23.8406,39.0164 24.375,39.5133 Q24.9094,40.0008 25.8656,40.0008 Q26.4281,40.0008 26.8219,39.8508 Q27.0563,39.757 27.3094,39.4945 Q27.4688,39.3352 27.5531,39.2883 Q27.6469,39.2414 27.7688,39.2414 Q27.9656,39.2414 28.1156,39.4008 Q28.275,39.5508 28.275,39.757 Q28.275,39.9633 28.0687,40.207 Q27.7688,40.5539 27.2906,40.7508 Q26.6438,41.0227 25.8656,41.0227 Q24.9563,41.0227 24.2344,40.6477 Q23.6438,40.3477 23.2313,39.7102 Q22.8187,39.0633 22.8187,38.2945 L22.8187,37.6008 Q22.8187,36.8039 23.1844,36.1195 Q23.5594,35.4258 24.2156,35.0602 Q24.8719,34.6852 25.6125,34.6852 Q26.0531,34.6852 26.4375,34.7883 Q26.8313,34.882 27.1594,35.0977 Z " fill="#000000"/><text fill="#000000" font-family="sans-serif" font-size="8.4" lengthAdjust="spacing" textLength="63.6" x="33.9" y="41.0508">NetworkManager</text><line style="stroke:#181818;stroke-width:0.3;" x1="17.1" x2="98.7" y1="47.1727" y2="47.1727"/><text fill="#000000" font-family="sans-serif" font-size="8.4" lengthAdjust="spacing" textLength="48.6" x="20.1" y="58.6371">-String name</text><text fill="#000000" font-family="sans-serif" font-size="8.4" lengthAdjust="spacing" textLength="47.4" x="20.1" y="69.8098">-String email</text><text fill="#000000" font-family="sans-serif" font-size="8.4" lengthAdjust="spacing" textLength="63.6" x="20.1" y="80.9824">-String password</text><line style="stroke:#181818;stroke-width:0.3;" x1="17.1" x2="98.7" y1="85.4906" y2="85.4906"/></g><!--class StoreRepository--><g id="elem_StoreRepository"><rect codeLine="20" fill="#F1F1F1" height="51.1453" id="StoreRepository" rx="1.5" ry="1.5" style="stroke:#181818;stroke-width:0.3;" width="102.6" x="196.8" y="411.9727"/><ellipse cx="215.79" cy="421.5727" fill="#ADD1B2" rx="6.6" ry="6.6" style="stroke:#181818;stroke-width:0.6;"/><path d="M217.4494,419.0977 Q217.5431,418.9664 217.6556,418.9008 Q217.7681,418.8352 217.8994,418.8352 Q218.1244,418.8352 218.265,418.9945 Q218.4056,419.1445 218.4056,419.5102 L218.4056,420.382 Q218.4056,420.7477 218.265,420.907 Q218.1244,421.0664 217.8994,421.0664 Q217.6931,421.0664 217.5713,420.9445 Q217.4494,420.832 217.3838,420.5227 Q217.3556,420.307 217.2431,420.1945 Q217.0463,419.9695 216.6806,419.8383 Q216.315,419.707 215.94,419.707 Q215.4806,419.707 215.0962,419.9039 Q214.7212,420.1008 214.4213,420.5508 Q214.1306,421.0008 214.1306,421.6195 L214.1306,422.2758 Q214.1306,423.0164 214.665,423.5133 Q215.1994,424.0008 216.1556,424.0008 Q216.7181,424.0008 217.1119,423.8508 Q217.3462,423.757 217.5994,423.4945 Q217.7588,423.3352 217.8431,423.2883 Q217.9369,423.2414 218.0587,423.2414 Q218.2556,423.2414 218.4056,423.4008 Q218.565,423.5508 218.565,423.757 Q218.565,423.9633 218.3588,424.207 Q218.0587,424.5539 217.5806,424.7508 Q216.9337,425.0227 216.1556,425.0227 Q215.2462,425.0227 214.5244,424.6477 Q213.9337,424.3477 213.5212,423.7102 Q213.1088,423.0633 213.1088,422.2945 L213.1088,421.6008 Q213.1088,420.8039 213.4744,420.1195 Q213.8494,419.4258 214.5056,419.0602 Q215.1619,418.6852 215.9025,418.6852 Q216.3431,418.6852 216.7275,418.7883 Q217.1212,418.882 217.4494,419.0977 Z " fill="#000000"/><text fill="#000000" font-family="sans-serif" font-size="8.4" lengthAdjust="spacing" textLength="61.2" x="226.41" y="425.0508">StoreRepository</text><line style="stroke:#181818;stroke-width:0.3;" x1="197.4" x2="298.8" y1="431.1727" y2="431.1727"/><text fill="#000000" font-family="sans-serif" font-size="8.4" lengthAdjust="spacing" textLength="92.4" x="200.4" y="442.6371">-List&lt;Store&gt; listOfStores</text><line style="stroke:#181818;stroke-width:0.3;" x1="197.4" x2="298.8" y1="447.1453" y2="447.1453"/><text fill="#000000" font-family="sans-serif" font-size="8.4" lengthAdjust="spacing" textLength="95.4" x="200.4" y="458.6098">+getStoreByName(name)</text></g><!--class Store--><g id="elem_Store"><rect codeLine="26" fill="#F1F1F1" height="95.8359" id="Store" rx="1.5" ry="1.5" style="stroke:#181818;stroke-width:0.3;" width="101.4" x="197.4" y="538.2727"/><ellipse cx="235.35" cy="547.8727" fill="#ADD1B2" rx="6.6" ry="6.6" style="stroke:#181818;stroke-width:0.6;"/><path d="M237.0094,545.3977 Q237.1031,545.2664 237.2156,545.2008 Q237.3281,545.1352 237.4594,545.1352 Q237.6844,545.1352 237.825,545.2945 Q237.9656,545.4445 237.9656,545.8102 L237.9656,546.682 Q237.9656,547.0477 237.825,547.207 Q237.6844,547.3664 237.4594,547.3664 Q237.2531,547.3664 237.1313,547.2445 Q237.0094,547.132 236.9438,546.8227 Q236.9156,546.607 236.8031,546.4945 Q236.6063,546.2695 236.2406,546.1383 Q235.875,546.007 235.5,546.007 Q235.0406,546.007 234.6563,546.2039 Q234.2813,546.4008 233.9813,546.8508 Q233.6906,547.3008 233.6906,547.9195 L233.6906,548.5758 Q233.6906,549.3164 234.225,549.8133 Q234.7594,550.3008 235.7156,550.3008 Q236.2781,550.3008 236.6719,550.1508 Q236.9063,550.057 237.1594,549.7945 Q237.3188,549.6352 237.4031,549.5883 Q237.4969,549.5414 237.6187,549.5414 Q237.8156,549.5414 237.9656,549.7008 Q238.125,549.8508 238.125,550.057 Q238.125,550.2633 237.9188,550.507 Q237.6187,550.8539 237.1406,551.0508 Q236.4937,551.3227 235.7156,551.3227 Q234.8062,551.3227 234.0844,550.9477 Q233.4937,550.6477 233.0812,550.0102 Q232.6688,549.3633 232.6688,548.5945 L232.6688,547.9008 Q232.6688,547.1039 233.0344,546.4195 Q233.4094,545.7258 234.0656,545.3602 Q234.7219,544.9852 235.4625,544.9852 Q235.9031,544.9852 236.2875,545.0883 Q236.6812,545.182 237.0094,545.3977 Z " fill="#000000"/><text fill="#000000" font-family="sans-serif" font-size="8.4" lengthAdjust="spacing" textLength="20.4" x="247.65" y="551.3508">Store</text><line style="stroke:#181818;stroke-width:0.3;" x1="198" x2="298.2" y1="557.4727" y2="557.4727"/><text fill="#000000" font-family="sans-serif" font-size="8.4" lengthAdjust="spacing" textLength="68.4" x="201" y="568.9371">-String storeName</text><text fill="#000000" font-family="sans-serif" font-size="8.4" lengthAdjust="spacing" textLength="58.2" x="201" y="580.1098">-String address</text><text fill="#000000" font-family="sans-serif" font-size="8.4" lengthAdjust="spacing" textLength="81" x="201" y="591.2824">-String phoneNumber</text><text fill="#000000" font-family="sans-serif" font-size="8.4" lengthAdjust="spacing" textLength="21" x="201" y="602.4551">-int id</text><text fill="#000000" font-family="sans-serif" font-size="8.4" lengthAdjust="spacing" textLength="47.4" x="201" y="613.6277">-String email</text><line style="stroke:#181818;stroke-width:0.3;" x1="198" x2="298.2" y1="618.1359" y2="618.1359"/><text fill="#000000" font-family="sans-serif" font-size="8.4" lengthAdjust="spacing" textLength="94.2" x="201" y="629.6004">+compareTo(otherStore)</text></g><!--class EmployeeRepository--><g id="elem_EmployeeRepository"><rect codeLine="36" fill="#F1F1F1" height="39.9727" id="EmployeeRepository" rx="1.5" ry="1.5" style="stroke:#181818;stroke-width:0.3;" width="133.2" x="363.9" y="417.3727"/><ellipse cx="389.1" cy="426.9727" fill="#ADD1B2" rx="6.6" ry="6.6" style="stroke:#181818;stroke-width:0.6;"/><path d="M390.7594,424.4977 Q390.8531,424.3664 390.9656,424.3008 Q391.0781,424.2352 391.2094,424.2352 Q391.4344,424.2352 391.575,424.3945 Q391.7156,424.5445 391.7156,424.9102 L391.7156,425.782 Q391.7156,426.1477 391.575,426.307 Q391.4344,426.4664 391.2094,426.4664 Q391.0031,426.4664 390.8812,426.3445 Q390.7594,426.232 390.6937,425.9227 Q390.6656,425.707 390.5531,425.5945 Q390.3563,425.3695 389.9906,425.2383 Q389.625,425.107 389.25,425.107 Q388.7906,425.107 388.4063,425.3039 Q388.0313,425.5008 387.7313,425.9508 Q387.4406,426.4008 387.4406,427.0195 L387.4406,427.6758 Q387.4406,428.4164 387.975,428.9133 Q388.5094,429.4008 389.4656,429.4008 Q390.0281,429.4008 390.4219,429.2508 Q390.6563,429.157 390.9094,428.8945 Q391.0687,428.7352 391.1531,428.6883 Q391.2469,428.6414 391.3688,428.6414 Q391.5656,428.6414 391.7156,428.8008 Q391.875,428.9508 391.875,429.157 Q391.875,429.3633 391.6688,429.607 Q391.3688,429.9539 390.8906,430.1508 Q390.2438,430.4227 389.4656,430.4227 Q388.5563,430.4227 387.8344,430.0477 Q387.2438,429.7477 386.8313,429.1102 Q386.4188,428.4633 386.4188,427.6945 L386.4188,427.0008 Q386.4188,426.2039 386.7844,425.5195 Q387.1594,424.8258 387.8156,424.4602 Q388.4719,424.0852 389.2125,424.0852 Q389.6531,424.0852 390.0375,424.1883 Q390.4313,424.282 390.7594,424.4977 Z " fill="#000000"/><text fill="#000000" font-family="sans-serif" font-size="8.4" lengthAdjust="spacing" textLength="78" x="401.1" y="430.4508">EmployeeRepository</text><line style="stroke:#181818;stroke-width:0.3;" x1="364.5" x2="496.5" y1="436.5727" y2="436.5727"/><text fill="#000000" font-family="sans-serif" font-size="8.4" lengthAdjust="spacing" textLength="126" x="367.5" y="448.0371">-List&lt;Employee&gt; listOfEmployees</text><line style="stroke:#181818;stroke-width:0.3;" x1="364.5" x2="496.5" y1="452.5453" y2="452.5453"/></g><!--class Employee--><g id="elem_Employee"><rect codeLine="41" fill="#F1F1F1" height="140.5266" id="Employee" rx="1.5" ry="1.5" style="stroke:#181818;stroke-width:0.3;" width="118.2" x="371.4" y="516.0727"/><ellipse cx="409.35" cy="525.6727" fill="#ADD1B2" rx="6.6" ry="6.6" style="stroke:#181818;stroke-width:0.6;"/><path d="M411.0094,523.1977 Q411.1031,523.0664 411.2156,523.0008 Q411.3281,522.9352 411.4594,522.9352 Q411.6844,522.9352 411.825,523.0945 Q411.9656,523.2445 411.9656,523.6102 L411.9656,524.482 Q411.9656,524.8477 411.825,525.007 Q411.6844,525.1664 411.4594,525.1664 Q411.2531,525.1664 411.1312,525.0445 Q411.0094,524.932 410.9437,524.6227 Q410.9156,524.407 410.8031,524.2945 Q410.6063,524.0695 410.2406,523.9383 Q409.875,523.807 409.5,523.807 Q409.0406,523.807 408.6563,524.0039 Q408.2813,524.2008 407.9813,524.6508 Q407.6906,525.1008 407.6906,525.7195 L407.6906,526.3758 Q407.6906,527.1164 408.225,527.6133 Q408.7594,528.1008 409.7156,528.1008 Q410.2781,528.1008 410.6719,527.9508 Q410.9063,527.857 411.1594,527.5945 Q411.3187,527.4352 411.4031,527.3883 Q411.4969,527.3414 411.6188,527.3414 Q411.8156,527.3414 411.9656,527.5008 Q412.125,527.6508 412.125,527.857 Q412.125,528.0633 411.9188,528.307 Q411.6188,528.6539 411.1406,528.8508 Q410.4938,529.1227 409.7156,529.1227 Q408.8063,529.1227 408.0844,528.7477 Q407.4938,528.4477 407.0813,527.8102 Q406.6688,527.1633 406.6688,526.3945 L406.6688,525.7008 Q406.6688,524.9039 407.0344,524.2195 Q407.4094,523.5258 408.0656,523.1602 Q408.7219,522.7852 409.4625,522.7852 Q409.9031,522.7852 410.2875,522.8883 Q410.6813,522.982 411.0094,523.1977 Z " fill="#000000"/><text fill="#000000" font-family="sans-serif" font-size="8.4" lengthAdjust="spacing" textLength="37.2" x="421.65" y="529.1508">Employee</text><line style="stroke:#181818;stroke-width:0.3;" x1="372" x2="489" y1="535.2727" y2="535.2727"/><text fill="#000000" font-family="sans-serif" font-size="8.4" lengthAdjust="spacing" textLength="47.4" x="375" y="546.7371">-String email</text><text fill="#000000" font-family="sans-serif" font-size="8.4" lengthAdjust="spacing" textLength="48.6" x="375" y="557.9098">-String name</text><text fill="#000000" font-family="sans-serif" font-size="8.4" lengthAdjust="spacing" textLength="42" x="375" y="569.0824">-String role</text><text fill="#000000" font-family="sans-serif" font-size="8.4" lengthAdjust="spacing" textLength="81" x="375" y="580.2551">-String phoneNumber</text><text fill="#000000" font-family="sans-serif" font-size="8.4" lengthAdjust="spacing" textLength="58.2" x="375" y="591.4277">-String address</text><text fill="#000000" font-family="sans-serif" font-size="8.4" lengthAdjust="spacing" textLength="46.8" x="375" y="602.6004">-String store</text><text fill="#000000" font-family="sans-serif" font-size="8.4" lengthAdjust="spacing" textLength="52.2" x="375" y="613.773">-int ccNumber</text><text fill="#000000" font-family="sans-serif" font-size="8.4" lengthAdjust="spacing" textLength="54.6" x="375" y="624.9457">-int taxNumber</text><text fill="#000000" font-family="sans-serif" font-size="8.4" lengthAdjust="spacing" textLength="63.6" x="375" y="636.1184">-String password</text><line style="stroke:#181818;stroke-width:0.3;" x1="372" x2="489" y1="640.6266" y2="640.6266"/><text fill="#000000" font-family="sans-serif" font-size="8.4" lengthAdjust="spacing" textLength="111" x="375" y="652.091">+compareTo(otherEmployee)</text></g><!--class ListEveryEmployeeUI--><g id="elem_ListEveryEmployeeUI"><rect codeLine="55" fill="#F1F1F1" height="62.318" id="ListEveryEmployeeUI" rx="1.5" ry="1.5" style="stroke:#181818;stroke-width:0.3;" width="165.6" x="257.1" y="27.9727"/><ellipse cx="297.75" cy="37.5727" fill="#ADD1B2" rx="6.6" ry="6.6" style="stroke:#181818;stroke-width:0.6;"/><path d="M299.4094,35.0977 Q299.5031,34.9664 299.6156,34.9008 Q299.7281,34.8352 299.8594,34.8352 Q300.0844,34.8352 300.225,34.9945 Q300.3656,35.1445 300.3656,35.5102 L300.3656,36.382 Q300.3656,36.7477 300.225,36.907 Q300.0844,37.0664 299.8594,37.0664 Q299.6531,37.0664 299.5313,36.9445 Q299.4094,36.832 299.3438,36.5227 Q299.3156,36.307 299.2031,36.1945 Q299.0062,35.9695 298.6406,35.8383 Q298.275,35.707 297.9,35.707 Q297.4406,35.707 297.0563,35.9039 Q296.6813,36.1008 296.3812,36.5508 Q296.0906,37.0008 296.0906,37.6195 L296.0906,38.2758 Q296.0906,39.0164 296.625,39.5133 Q297.1594,40.0008 298.1156,40.0008 Q298.6781,40.0008 299.0719,39.8508 Q299.3063,39.757 299.5594,39.4945 Q299.7188,39.3352 299.8031,39.2883 Q299.8969,39.2414 300.0188,39.2414 Q300.2156,39.2414 300.3656,39.4008 Q300.525,39.5508 300.525,39.757 Q300.525,39.9633 300.3187,40.207 Q300.0188,40.5539 299.5406,40.7508 Q298.8938,41.0227 298.1156,41.0227 Q297.2063,41.0227 296.4844,40.6477 Q295.8938,40.3477 295.4813,39.7102 Q295.0687,39.0633 295.0687,38.2945 L295.0687,37.6008 Q295.0687,36.8039 295.4344,36.1195 Q295.8094,35.4258 296.4656,35.0602 Q297.1219,34.6852 297.8625,34.6852 Q298.3031,34.6852 298.6875,34.7883 Q299.0813,34.882 299.4094,35.0977 Z " fill="#000000"/><text fill="#000000" font-family="sans-serif" font-size="8.4" lengthAdjust="spacing" textLength="79.2" x="310.05" y="41.0508">ListEveryEmployeeUI</text><line style="stroke:#181818;stroke-width:0.3;" x1="257.7" x2="422.1" y1="47.1727" y2="47.1727"/><text fill="#000000" font-family="sans-serif" font-size="8.4" lengthAdjust="spacing" textLength="126" x="260.7" y="58.6371">-ListEveryEmployeeController ctrl</text><line style="stroke:#181818;stroke-width:0.3;" x1="257.7" x2="422.1" y1="63.1453" y2="63.1453"/><text fill="#000000" font-family="sans-serif" font-size="8.4" lengthAdjust="spacing" textLength="23.4" x="260.7" y="74.6098">+run()</text><text fill="#000000" font-family="sans-serif" font-size="8.4" lengthAdjust="spacing" textLength="158.4" x="260.7" y="85.7824">+printAllStoresAndItsEmployees(storeList)</text></g><!--class ListEveryEmployeeController--><g id="elem_ListEveryEmployeeController"><rect codeLine="62" fill="#F1F1F1" height="73.4906" id="ListEveryEmployeeController" rx="1.5" ry="1.5" style="stroke:#181818;stroke-width:0.3;" width="175.2" x="252.3" y="137.7727"/><ellipse cx="282.75" cy="147.3727" fill="#ADD1B2" rx="6.6" ry="6.6" style="stroke:#181818;stroke-width:0.6;"/><path d="M284.4094,144.8977 Q284.5031,144.7664 284.6156,144.7008 Q284.7281,144.6352 284.8594,144.6352 Q285.0844,144.6352 285.225,144.7945 Q285.3656,144.9445 285.3656,145.3102 L285.3656,146.182 Q285.3656,146.5477 285.225,146.707 Q285.0844,146.8664 284.8594,146.8664 Q284.6531,146.8664 284.5313,146.7445 Q284.4094,146.632 284.3438,146.3227 Q284.3156,146.107 284.2031,145.9945 Q284.0062,145.7695 283.6406,145.6383 Q283.275,145.507 282.9,145.507 Q282.4406,145.507 282.0563,145.7039 Q281.6813,145.9008 281.3812,146.3508 Q281.0906,146.8008 281.0906,147.4195 L281.0906,148.0758 Q281.0906,148.8164 281.625,149.3133 Q282.1594,149.8008 283.1156,149.8008 Q283.6781,149.8008 284.0719,149.6508 Q284.3063,149.557 284.5594,149.2945 Q284.7188,149.1352 284.8031,149.0883 Q284.8969,149.0414 285.0188,149.0414 Q285.2156,149.0414 285.3656,149.2008 Q285.525,149.3508 285.525,149.557 Q285.525,149.7633 285.3187,150.007 Q285.0188,150.3539 284.5406,150.5508 Q283.8938,150.8227 283.1156,150.8227 Q282.2063,150.8227 281.4844,150.4477 Q280.8938,150.1477 280.4813,149.5102 Q280.0687,148.8633 280.0687,148.0945 L280.0687,147.4008 Q280.0687,146.6039 280.4344,145.9195 Q280.8094,145.2258 281.4656,144.8602 Q282.1219,144.4852 282.8625,144.4852 Q283.3031,144.4852 283.6875,144.5883 Q284.0813,144.682 284.4094,144.8977 Z " fill="#000000"/><text fill="#000000" font-family="sans-serif" font-size="8.4" lengthAdjust="spacing" textLength="109.2" x="295.05" y="150.8508">ListEveryEmployeeController</text><line style="stroke:#181818;stroke-width:0.3;" x1="252.9" x2="426.9" y1="156.9727" y2="156.9727"/><line style="stroke:#181818;stroke-width:0.3;" x1="252.9" x2="426.9" y1="161.7727" y2="161.7727"/><text fill="#000000" font-family="sans-serif" font-size="8.4" lengthAdjust="spacing" textLength="69.6" x="255.9" y="173.2371">+getListOfStores()</text><text fill="#000000" font-family="sans-serif" font-size="8.4" lengthAdjust="spacing" textLength="168" x="255.9" y="184.4098">+sortStoresByNumOfProperties(listOfStores)</text><text fill="#000000" font-family="sans-serif" font-size="8.4" lengthAdjust="spacing" textLength="127.2" x="255.9" y="195.5824">+printAllEmployeesByStore(store)</text><text fill="#000000" font-family="sans-serif" font-size="8.4" lengthAdjust="spacing" textLength="166.8" x="255.9" y="206.7551">-sortEmployeesAlphabetically(employeeList)</text></g><!--class Property--><g id="elem_Property"><rect codeLine="70" fill="#F1F1F1" height="151.6992" id="Property" rx="1.5" ry="1.5" style="stroke:#181818;stroke-width:0.3;" width="120.6" x="4.2" y="510.3727"/><ellipse cx="45.75" cy="519.9727" fill="#B4A7E5" rx="6.6" ry="6.6" style="stroke:#181818;stroke-width:0.6;"/><path d="M46.3219,517.957 L46.3219,521.9508 L47.3531,521.9508 Q47.7188,521.9508 47.8781,522.0914 Q48.0375,522.232 48.0375,522.4664 Q48.0375,522.6914 47.8781,522.832 Q47.7188,522.9727 47.3531,522.9727 L44.2688,522.9727 Q43.9031,522.9727 43.7438,522.832 Q43.5844,522.6914 43.5844,522.457 Q43.5844,522.232 43.7438,522.0914 Q43.9031,521.9508 44.2688,521.9508 L45.3,521.9508 L45.3,517.957 L44.2688,517.957 Q43.9031,517.957 43.7438,517.8164 Q43.5844,517.6758 43.5844,517.4414 Q43.5844,517.2164 43.7438,517.0758 Q43.9031,516.9352 44.2688,516.9352 L47.3531,516.9352 Q47.7188,516.9352 47.8781,517.0758 Q48.0375,517.2164 48.0375,517.4414 Q48.0375,517.6758 47.8781,517.8164 Q47.7188,517.957 47.3531,517.957 L46.3219,517.957 Z " fill="#000000"/><text fill="#000000" font-family="sans-serif" font-size="8.4" font-style="italic" lengthAdjust="spacing" textLength="32.4" x="58.05" y="523.4508">Property</text><line style="stroke:#181818;stroke-width:0.3;" x1="4.8" x2="124.2" y1="529.5727" y2="529.5727"/><text fill="#000000" font-family="sans-serif" font-size="8.4" lengthAdjust="spacing" textLength="39" x="7.8" y="541.0371">-float area</text><text fill="#000000" font-family="sans-serif" font-size="8.4" lengthAdjust="spacing" textLength="57" x="7.8" y="552.2098">-String location</text><text fill="#000000" font-family="sans-serif" font-size="8.4" lengthAdjust="spacing" textLength="113.4" x="7.8" y="563.3824">-float distanceFromCityCentre</text><text fill="#000000" font-family="sans-serif" font-size="8.4" lengthAdjust="spacing" textLength="49.2" x="7.8" y="574.5551">-Agent agent</text><text fill="#000000" font-family="sans-serif" font-size="8.4" lengthAdjust="spacing" textLength="72" x="7.8" y="585.7277">-File[] photographs</text><text fill="#000000" font-family="sans-serif" font-size="8.4" lengthAdjust="spacing" textLength="56.4" x="7.8" y="596.9004">-float finalPrice</text><text fill="#000000" font-family="sans-serif" font-size="8.4" lengthAdjust="spacing" textLength="102" x="7.8" y="608.073">-String announcementDate</text><text fill="#000000" font-family="sans-serif" font-size="8.4" lengthAdjust="spacing" textLength="66" x="7.8" y="619.2457">-Request request</text><line style="stroke:#181818;stroke-width:0.3;" x1="4.8" x2="124.2" y1="623.7539" y2="623.7539"/><text fill="#000000" font-family="sans-serif" font-size="8.4" lengthAdjust="spacing" textLength="58.8" x="7.8" y="635.2184">+equals(object)</text><text fill="#000000" font-family="sans-serif" font-size="8.4" lengthAdjust="spacing" textLength="31.2" x="7.8" y="646.391">+clone()</text><text fill="#000000" font-family="sans-serif" font-size="8.4" lengthAdjust="spacing" textLength="40.2" x="7.8" y="657.5637">+toString()</text></g><!--class Repositories--><g id="elem_Repositories"><rect codeLine="85" fill="#F1F1F1" height="95.8359" id="Repositories" rx="1.5" ry="1.5" style="stroke:#181818;stroke-width:0.3;" width="168" x="255.9" y="268.5727"/><ellipse cx="313.65" cy="278.1727" fill="#ADD1B2" rx="6.6" ry="6.6" style="stroke:#181818;stroke-width:0.6;"/><path d="M315.3094,275.6977 Q315.4031,275.5664 315.5156,275.5008 Q315.6281,275.4352 315.7594,275.4352 Q315.9844,275.4352 316.125,275.5945 Q316.2656,275.7445 316.2656,276.1102 L316.2656,276.982 Q316.2656,277.3477 316.125,277.507 Q315.9844,277.6664 315.7594,277.6664 Q315.5531,277.6664 315.4313,277.5445 Q315.3094,277.432 315.2438,277.1227 Q315.2156,276.907 315.1031,276.7945 Q314.9063,276.5695 314.5406,276.4383 Q314.175,276.307 313.8,276.307 Q313.3406,276.307 312.9563,276.5039 Q312.5813,276.7008 312.2813,277.1508 Q311.9906,277.6008 311.9906,278.2195 L311.9906,278.8758 Q311.9906,279.6164 312.525,280.1133 Q313.0594,280.6008 314.0156,280.6008 Q314.5781,280.6008 314.9719,280.4508 Q315.2063,280.357 315.4594,280.0945 Q315.6188,279.9352 315.7031,279.8883 Q315.7969,279.8414 315.9188,279.8414 Q316.1156,279.8414 316.2656,280.0008 Q316.425,280.1508 316.425,280.357 Q316.425,280.5633 316.2188,280.807 Q315.9188,281.1539 315.4406,281.3508 Q314.7938,281.6227 314.0156,281.6227 Q313.1063,281.6227 312.3844,281.2477 Q311.7938,280.9477 311.3812,280.3102 Q310.9688,279.6633 310.9688,278.8945 L310.9688,278.2008 Q310.9688,277.4039 311.3344,276.7195 Q311.7094,276.0258 312.3656,275.6602 Q313.0219,275.2852 313.7625,275.2852 Q314.2031,275.2852 314.5875,275.3883 Q314.9813,275.482 315.3094,275.6977 Z " fill="#000000"/><text fill="#000000" font-family="sans-serif" font-size="8.4" lengthAdjust="spacing" textLength="47.4" x="325.95" y="281.6508">Repositories</text><line style="stroke:#181818;stroke-width:0.3;" x1="256.5" x2="423.3" y1="287.7727" y2="287.7727"/><text fill="#000000" font-family="sans-serif" font-size="8.4" lengthAdjust="spacing" textLength="84.6" x="259.5" y="299.2371">-Repositories instance</text><text fill="#000000" font-family="sans-serif" font-size="8.4" lengthAdjust="spacing" textLength="160.8" x="259.5" y="310.4098">-EmployeeRepository employeeRepository</text><text fill="#000000" font-family="sans-serif" font-size="8.4" lengthAdjust="spacing" textLength="126.6" x="259.5" y="321.5824">-StoreRepository storeRepository</text><line style="stroke:#181818;stroke-width:0.3;" x1="256.5" x2="423.3" y1="326.0906" y2="326.0906"/><text fill="#000000" font-family="sans-serif" font-size="8.4" lengthAdjust="spacing" textLength="54.6" x="259.5" y="337.5551">+getInstance()</text><text fill="#000000" font-family="sans-serif" font-size="8.4" lengthAdjust="spacing" textLength="84" x="259.5" y="348.7277">+getStoreRepository()</text><text fill="#000000" font-family="sans-serif" font-size="8.4" lengthAdjust="spacing" textLength="100.8" x="259.5" y="359.9004">+getEmployeeRepository()</text></g><!--link NetworkManager to ListEveryEmployeeUI--><g id="link_NetworkManager_ListEveryEmployeeUI"><path codeLine="95" d="M99.318,73.6567 C113.004,78.4447 124.8,82.5727 124.8,82.5727 C124.8,82.5727 231.6,82.5727 231.6,82.5727 C231.6,82.5727 240.858,80.5747 253.956,77.7427 " fill="none" id="NetworkManager-to-ListEveryEmployeeUI" style="stroke:#181818;stroke-width:0.6;"/><polygon fill="#181818" points="256.992,77.0887,251.2066,75.8849,254.0599,77.7231,252.2217,80.5764,256.992,77.0887" style="stroke:#181818;stroke-width:0.6;"/><text fill="#000000" font-family="sans-serif" font-size="7.8" lengthAdjust="spacing" textLength="105.6" x="125.4" y="69.9896">asks for a list of all employees</text><text fill="#000000" font-family="sans-serif" font-size="7.8" lengthAdjust="spacing" textLength="62.4" x="147" y="80.3643">grouped by stores</text></g><!--reverse link NetworkManager to ListEveryEmployeeUI--><g id="link_NetworkManager_ListEveryEmployeeUI"><path codeLine="100" d="M102.546,59.1727 C143.886,59.1727 206.406,59.1727 256.902,59.1727 " fill="none" id="NetworkManager-backto-ListEveryEmployeeUI" style="stroke:#181818;stroke-width:0.6;"/><polygon fill="#181818" points="99.36,59.1727,104.76,61.5727,102.36,59.1727,104.76,56.7727,99.36,59.1727" style="stroke:#181818;stroke-width:0.6;"/><text fill="#000000" font-family="sans-serif" font-size="7.8" lengthAdjust="spacing" textLength="135.6" x="110.4" y="44.7896">prints list of stores, each with their own</text><text fill="#000000" font-family="sans-serif" font-size="7.8" lengthAdjust="spacing" textLength="58.8" x="148.8" y="55.1643">list of employees</text></g><!--link ListEveryEmployeeController to ListEveryEmployeeController--><g id="link_ListEveryEmployeeController_ListEveryEmployeeController"><path codeLine="97" d="M427.68,169.3267 C440.136,170.1427 448.5,171.8227 448.5,174.3727 C448.5,176.7007 441.516,178.3087 430.794,179.1907 " fill="none" id="ListEveryEmployeeController-to-ListEveryEmployeeController" style="stroke:#181818;stroke-width:0.6;"/><polygon fill="#181818" points="427.68,179.4187,433.2434,181.4108,430.6717,179.1958,432.8868,176.6241,427.68,179.4187" style="stroke:#181818;stroke-width:0.6;"/><text fill="#000000" font-family="sans-serif" font-size="7.8" lengthAdjust="spacing" textLength="60.6" x="457.2" y="172.5896">sorts store list by</text><text fill="#000000" font-family="sans-serif" font-size="7.8" lengthAdjust="spacing" textLength="70.8" x="452.1" y="182.9643">number of properties</text></g><!--reverse link ListEveryEmployeeController to ListEveryEmployeeController--><g id="link_ListEveryEmployeeController_ListEveryEmployeeController"><path codeLine="98" d="M430.752,163.3687 C479.202,162.0907 526.5,165.7567 526.5,174.3727 C526.5,183.1747 477.102,186.8107 427.56,185.2807 " fill="none" id="ListEveryEmployeeController-backto-ListEveryEmployeeController" style="stroke:#181818;stroke-width:0.6;"/><polygon fill="#181818" points="427.56,163.4647,433.0263,165.7095,430.5588,163.379,432.8893,160.9114,427.56,163.4647" style="stroke:#181818;stroke-width:0.6;"/><text fill="#000000" font-family="sans-serif" font-size="7.8" lengthAdjust="spacing" textLength="57.6" x="530.1" y="172.5896">sorts employees</text><text fill="#000000" font-family="sans-serif" font-size="7.8" lengthAdjust="spacing" textLength="47.4" x="535.2" y="182.9643">alphabetically</text></g><!--link ListEveryEmployeeUI to ListEveryEmployeeController--><g id="link_ListEveryEmployeeUI_ListEveryEmployeeController"><path codeLine="102" d="M339.9,90.4747 C339.9,104.0767 339.9,120.2467 339.9,134.7007 " fill="none" id="ListEveryEmployeeUI-to-ListEveryEmployeeController" style="stroke:#181818;stroke-width:0.6;"/><polygon fill="#181818" points="339.9,137.7607,342.3,132.3607,339.9,134.7607,337.5,132.3607,339.9,137.7607" style="stroke:#181818;stroke-width:0.6;"/><text fill="#000000" font-family="sans-serif" font-size="7.8" lengthAdjust="spacing" textLength="15" x="340.5" y="117.3896">runs</text></g><!--link ListEveryEmployeeController to Repositories--><g id="link_ListEveryEmployeeController_Repositories"><path codeLine="103" d="M339.9,211.0987 C339.9,227.6047 339.9,247.4407 339.9,265.3987 " fill="none" id="ListEveryEmployeeController-to-Repositories" style="stroke:#181818;stroke-width:0.6;"/><polygon fill="#181818" points="339.9,268.4947,342.3,263.0947,339.9,265.4947,337.5,263.0947,339.9,268.4947" style="stroke:#181818;stroke-width:0.6;"/><text fill="#000000" font-family="sans-serif" font-size="7.8" lengthAdjust="spacing" textLength="15" x="351.9" y="237.9896">gets</text><text fill="#000000" font-family="sans-serif" font-size="7.8" lengthAdjust="spacing" textLength="37.8" x="340.5" y="248.3643">instance of</text></g><!--link Repositories to StoreRepository--><g id="link_Repositories_StoreRepository"><path codeLine="104" d="M303.486,364.6507 C291.846,379.8307 279.354,396.1207 269.184,409.3747 " fill="none" id="Repositories-to-StoreRepository" style="stroke:#181818;stroke-width:0.6;"/><polygon fill="#181818" points="267.318,411.8167,272.5073,408.9898,269.1426,409.4353,268.6971,406.0705,267.318,411.8167" style="stroke:#181818;stroke-width:0.6;"/><text fill="#000000" font-family="sans-serif" font-size="7.8" lengthAdjust="spacing" textLength="29.4" x="289.5" y="391.5896">contains</text></g><!--link Repositories to EmployeeRepository--><g id="link_Repositories_EmployeeRepository"><path codeLine="105" d="M375.84,364.6507 C388.962,381.9907 403.182,400.7767 413.826,414.8467 " fill="none" id="Repositories-to-EmployeeRepository" style="stroke:#181818;stroke-width:0.6;"/><polygon fill="#181818" points="415.638,417.2347,414.295,411.48,413.8284,414.8419,410.4665,414.3753,415.638,417.2347" style="stroke:#181818;stroke-width:0.6;"/><text fill="#000000" font-family="sans-serif" font-size="7.8" lengthAdjust="spacing" textLength="29.4" x="396.3" y="391.5896">contains</text></g><!--link ListEveryEmployeeController to StoreRepository--><g id="link_ListEveryEmployeeController_StoreRepository"><path codeLine="106" d="M289.518,211.0267 C252.672,237.3967 209.1,268.5727 209.1,268.5727 C209.1,268.5727 209.1,364.5727 209.1,364.5727 C209.1,364.5727 222.108,388.6927 233.1,409.0687 " fill="none" id="ListEveryEmployeeController-to-StoreRepository" style="stroke:#181818;stroke-width:0.6;"/><polygon fill="#181818" points="234.57,411.7867,234.1207,405.8944,233.1467,409.1458,229.8953,408.1718,234.57,411.7867" style="stroke:#181818;stroke-width:0.6;"/><text fill="#000000" font-family="sans-serif" font-size="7.8" lengthAdjust="spacing" textLength="34.8" x="209.7" y="314.7896">gets store</text><text fill="#000000" font-family="sans-serif" font-size="7.8" lengthAdjust="spacing" textLength="27.6" x="213.3" y="325.1643">list from</text></g><!--link ListEveryEmployeeController to EmployeeRepository--><g id="link_ListEveryEmployeeController_EmployeeRepository"><path codeLine="107" d="M376.554,211.1587 C403.23,237.4987 434.7,268.5727 434.7,268.5727 C434.7,268.5727 434.7,364.5727 434.7,364.5727 C434.7,364.5727 433.05,393.0247 431.814,414.2347 " fill="none" id="ListEveryEmployeeController-to-EmployeeRepository" style="stroke:#181818;stroke-width:0.6;"/><polygon fill="#181818" points="431.634,417.3067,434.339,412.0528,431.8056,414.3116,429.5469,411.7782,431.634,417.3067" style="stroke:#181818;stroke-width:0.6;"/><text fill="#000000" font-family="sans-serif" font-size="7.8" lengthAdjust="spacing" textLength="51" x="435.3" y="314.7896">gets employee</text><text fill="#000000" font-family="sans-serif" font-size="7.8" lengthAdjust="spacing" textLength="27.6" x="447" y="325.1643">list from</text></g><!--link StoreRepository to Store--><g id="link_StoreRepository_Store"><path codeLine="109" d="M248.1,463.1107 C248.1,482.7487 248.1,510.7267 248.1,534.9967 " fill="none" id="StoreRepository-to-Store" style="stroke:#181818;stroke-width:0.6;"/><polygon fill="#181818" points="248.1,538.2427,250.5,532.8427,248.1,535.2427,245.7,532.8427,248.1,538.2427" style="stroke:#181818;stroke-width:0.6;"/><text fill="#000000" font-family="sans-serif" font-size="7.8" lengthAdjust="spacing" textLength="33.6" x="248.7" y="489.9896">has list of</text></g><!--link EmployeeRepository to Employee--><g id="link_EmployeeRepository_Employee"><path codeLine="110" d="M430.5,457.6747 C430.5,472.0627 430.5,492.5767 430.5,512.9767 " fill="none" id="EmployeeRepository-to-Employee" style="stroke:#181818;stroke-width:0.6;"/><polygon fill="#181818" points="430.5,515.9827,432.9,510.5827,430.5,512.9827,428.1,510.5827,430.5,515.9827" style="stroke:#181818;stroke-width:0.6;"/><text fill="#000000" font-family="sans-serif" font-size="7.8" lengthAdjust="spacing" textLength="33.6" x="431.1" y="489.9896">has list of</text></g><!--reverse link Property to Store--><g id="link_Property_Store"><path codeLine="112" d="M127.908,586.2727 C150.552,586.2727 175.758,586.2727 197.214,586.2727 " fill="none" id="Property-backto-Store" style="stroke:#181818;stroke-width:0.6;"/><polygon fill="#181818" points="124.872,586.2727,130.272,588.6727,127.872,586.2727,130.272,583.8727,124.872,586.2727" style="stroke:#181818;stroke-width:0.6;"/><text fill="#000000" font-family="sans-serif" font-size="7.8" lengthAdjust="spacing" textLength="50.4" x="135.9" y="582.0896">contains list of</text></g><!--link Store to Employee--><g id="link_Store_Employee"><path codeLine="113" d="M298.908,586.2727 C320.394,586.2727 345.636,586.2727 368.226,586.2727 " fill="none" id="Store-to-Employee" style="stroke:#181818;stroke-width:0.6;"/><polygon fill="#181818" points="371.256,586.2727,365.856,583.8727,368.256,586.2727,365.856,588.6727,371.256,586.2727" style="stroke:#181818;stroke-width:0.6;"/><text fill="#000000" font-family="sans-serif" font-size="7.8" lengthAdjust="spacing" textLength="50.4" x="309.9" y="582.0896">contains list of</text></g><!--SRC=[ZLP1RzGy4BtxLyojMy5A86uhXBGKa2f1GIoSwAVAcqmsfeuTx5bAgFZlZ9t4w-o6zhkqiMVytfldyRHd_bQPLZhPG6EDBMfd6mHoUnI7I2kBMxd33NKQmM51qknqdk1hMTexPNPGIUtpY5O6gMiHMgkxi11dCq7ho8hiLA6bzsiYfxPxmil2cetwZV1C25B46hvkdZr_0U-L9tZRjDfsY1ws7Mp8EeGbN8Jpy4R97QC98SuqLWHamQbTJL2gK8IoHeZ815T8TzRTVf26otHmBvORvkPoZ6mmBR2HIgTLomVvK2d-Z2YH_JEsrYl-wW9CaFWoxh_YQZrzhEB2YvkR6_5aXnINhxihvba4ilCZk4oB3-khN90iIyRo1qcrDNYrRxRen58P0bKUYO-qXMtOPlnY5vPgT94dunqTdQba38t59FCZy0b29dxgtSHMPpNEb_2FCgCHVO55aPTByjVHqNH9SuMFChFQGvLlVwBhnjZNow7soUw5DSIoDVTAGMwmrUtDubmyQPcOrbht5xqsvINvvDCYQWzu3v4UuEzJexpFkYVGU7up_OgxPzzyh3uvsw8ZnU6yqp95ISNhBiPwCUTY6R1ISAtRMcwHL26rxXOux2VDZ8MkaWN2m1ZRez9M4h2vCdclRI7Z8nk29ID8K-0x7Z4NYheBv2hv7jSx_W0PVehbEwNnst-X3SZousrhFnwlb97warD5rl_6s3qZDdpqZIGEVCOVU-IfuFhVlNlypLDfORVV-TMp7uNc7WiUaks15jbbfAvd8-y3u649olGLYENC6y6JhQ1pEX7yT9qkzt803gB6eN186tPFENlTHyDh-MgkYs45qjzwgAm36Lyls0huXfDkVsrspkvRBCCazVsO4W-r_XnJ5bv1w2lVG_MKs-xQcFX20tkRElPXcZ2y_oTNLeoSzF5C9MpAiiTcy2CJLn0VZKzEzNuy1PH53NUAQk09ehYCEtDjngJ4_Y-snuhW4VA85mmnQSaLS6TmjMDhiWmnIGWdZjjm1VmNbIIVESsTwUmi_J5jfqn1Nk_Uu5F5p_zHd5aL4MhqE4SJnxH92f-gPRf5CGERinrbY-7VYQ7_qhWx-95IXym9r4cI-0i0]--></g></svg>