<?xml version="1.0" encoding="us-ascii" standalone="no"?><svg xmlns="http://www.w3.org/2000/svg" xmlns:xlink="http://www.w3.org/1999/xlink" contentStyleType="text/css" height="623.4px" preserveAspectRatio="none" style="width:762px;height:623px;background:#FFFFFF;" version="1.1" viewBox="0 0 762 623" width="762.6px" zoomAndPan="magnify"><defs/><g><text fill="#000000" font-family="sans-serif" font-size="8.4" font-weight="bold" lengthAdjust="spacing" textLength="167.4" x="298.5" y="18.0645">User Story 005 - Sequence Diagram (SD)</text><rect fill="#FFFFFF" height="488.4363" style="stroke:#181818;stroke-width:0.6;" width="6" x="41.7" y="79.9453"/><rect fill="#FFFFFF" height="82.4965" style="stroke:#181818;stroke-width:0.6;" width="6" x="283.5" y="93.9199"/><rect fill="#FFFFFF" height="357.416" style="stroke:#181818;stroke-width:0.6;" width="6" x="283.5" y="205.5656"/><rect fill="#FFFFFF" height="18.7746" style="stroke:#181818;stroke-width:0.6;" width="6" x="459.3" y="138.8672"/><rect fill="#FFFFFF" height="288.743" style="stroke:#181818;stroke-width:0.6;" width="6" x="459.3" y="255.4641"/><rect fill="#FFFFFF" height="18.7746" style="stroke:#181818;stroke-width:0.6;" width="6" x="541.5" y="274.2387"/><rect fill="#FFFFFF" height="18.7746" style="stroke:#181818;stroke-width:0.6;" width="6" x="605.7" y="311.7879"/><rect fill="#FFFFFF" height="18.7746" style="stroke:#181818;stroke-width:0.6;" width="6" x="676.8" y="380.4609"/><rect fill="#FFFFFF" height="18.7746" style="stroke:#181818;stroke-width:0.6;" width="6" x="676.8" y="502.4578"/><rect fill="#FFFFFF" height="18.7746" style="stroke:#181818;stroke-width:0.6;" width="6" x="734.4" y="464.9086"/><rect fill="none" height="117.7969" style="stroke:#000000;stroke-width:0.8999999999999999;" width="349.8" x="409.2" y="408.2355"/><line style="stroke:#181818;stroke-width:0.3;stroke-dasharray:5.0,5.0;" x1="44.4" x2="44.4" y1="73.9453" y2="573.7816"/><line style="stroke:#181818;stroke-width:0.3;stroke-dasharray:5.0,5.0;" x1="286.2" x2="286.2" y1="73.9453" y2="573.7816"/><line style="stroke:#181818;stroke-width:0.3;stroke-dasharray:5.0,5.0;" x1="462" x2="462" y1="117.8062" y2="573.7816"/><line style="stroke:#181818;stroke-width:0.3;stroke-dasharray:5.0,5.0;" x1="544.2" x2="544.2" y1="73.9453" y2="573.7816"/><line style="stroke:#181818;stroke-width:0.3;stroke-dasharray:5.0,5.0;" x1="608.4" x2="608.4" y1="73.9453" y2="573.7816"/><line style="stroke:#181818;stroke-width:0.3;stroke-dasharray:5.0,5.0;" x1="679.8" x2="679.8" y1="73.9453" y2="573.7816"/><line style="stroke:#181818;stroke-width:0.3;stroke-dasharray:5.0,5.0;" x1="737.4" x2="737.4" y1="73.9453" y2="573.7816"/><text fill="#000000" font-family="sans-serif" font-size="8.4" lengthAdjust="spacing" textLength="79.8" x="3" y="71.8371">System Administrator</text><ellipse cx="44.7" cy="31.8727" fill="#E3E3E3" rx="4.8" ry="4.8" style="stroke:#181818;stroke-width:0.3;"/><path d="M44.7,36.6727 L44.7,52.8727 M36.9,41.4727 L52.5,41.4727 M44.7,52.8727 L36.9,61.8727 M44.7,52.8727 L52.5,61.8727 " fill="none" style="stroke:#181818;stroke-width:0.3;"/><text fill="#000000" font-family="sans-serif" font-size="8.4" lengthAdjust="spacing" textLength="79.8" x="3" y="582.2461">System Administrator</text><ellipse cx="44.7" cy="589.4543" fill="#E3E3E3" rx="4.8" ry="4.8" style="stroke:#181818;stroke-width:0.3;"/><path d="M44.7,594.2543 L44.7,610.4543 M36.9,599.0543 L52.5,599.0543 M44.7,610.4543 L36.9,619.4543 M44.7,610.4543 L52.5,619.4543 " fill="none" style="stroke:#181818;stroke-width:0.3;"/><rect fill="#E3E3E3" height="19.5727" rx="1.5" ry="1.5" style="stroke:#181818;stroke-width:0.3;" width="64.2" x="254.4" y="53.7727"/><text fill="#000000" font-family="sans-serif" font-size="8.4" lengthAdjust="spacing" textLength="55.8" x="258.6" y="67.0371">:CreateStoreUI</text><rect fill="#E3E3E3" height="19.5727" rx="1.5" ry="1.5" style="stroke:#181818;stroke-width:0.3;" width="64.2" x="254.4" y="573.1816"/><text fill="#000000" font-family="sans-serif" font-size="8.4" lengthAdjust="spacing" textLength="55.8" x="258.6" y="586.4461">:CreateStoreUI</text><rect fill="#E3E3E3" height="19.5727" rx="1.5" ry="1.5" style="stroke:#181818;stroke-width:0.3;" width="94.2" x="415.2" y="573.1816"/><text fill="#000000" font-family="sans-serif" font-size="8.4" lengthAdjust="spacing" textLength="85.8" x="419.4" y="586.4461">:CreateStoreController</text><rect fill="#E3E3E3" height="19.5727" rx="1.5" ry="1.5" style="stroke:#181818;stroke-width:0.3;" width="58.2" x="515.4" y="53.7727"/><text fill="#000000" font-family="sans-serif" font-size="8.4" lengthAdjust="spacing" textLength="49.8" x="519.6" y="67.0371">:Repositories</text><rect fill="#E3E3E3" height="19.5727" rx="1.5" ry="1.5" style="stroke:#181818;stroke-width:0.3;" width="58.2" x="515.4" y="573.1816"/><text fill="#000000" font-family="sans-serif" font-size="8.4" lengthAdjust="spacing" textLength="49.8" x="519.6" y="586.4461">:Repositories</text><rect fill="#E3E3E3" height="30.7453" rx="1.5" ry="1.5" style="stroke:#181818;stroke-width:0.3;" width="58.2" x="579.6" y="42.6"/><text fill="#000000" font-family="sans-serif" font-size="8.4" lengthAdjust="spacing" textLength="44.4" x="586.5" y="55.8645">repositories</text><text fill="#000000" font-family="sans-serif" font-size="8.4" lengthAdjust="spacing" textLength="49.8" x="583.8" y="67.0371">:Repositories</text><rect fill="#E3E3E3" height="30.7453" rx="1.5" ry="1.5" style="stroke:#181818;stroke-width:0.3;" width="58.2" x="579.6" y="573.1816"/><text fill="#000000" font-family="sans-serif" font-size="8.4" lengthAdjust="spacing" textLength="44.4" x="586.5" y="586.4461">repositories</text><text fill="#000000" font-family="sans-serif" font-size="8.4" lengthAdjust="spacing" textLength="49.8" x="583.8" y="597.6188">:Repositories</text><rect fill="#E3E3E3" height="30.7453" rx="1.5" ry="1.5" style="stroke:#181818;stroke-width:0.3;" width="72" x="643.8" y="42.6"/><text fill="#000000" font-family="sans-serif" font-size="8.4" lengthAdjust="spacing" textLength="60" x="649.8" y="55.8645">storeRepository</text><text fill="#000000" font-family="sans-serif" font-size="8.4" lengthAdjust="spacing" textLength="63.6" x="648" y="67.0371">:StoreRepository</text><rect fill="#E3E3E3" height="30.7453" rx="1.5" ry="1.5" style="stroke:#181818;stroke-width:0.3;" width="72" x="643.8" y="573.1816"/><text fill="#000000" font-family="sans-serif" font-size="8.4" lengthAdjust="spacing" textLength="60" x="649.8" y="586.4461">storeRepository</text><text fill="#000000" font-family="sans-serif" font-size="8.4" lengthAdjust="spacing" textLength="63.6" x="648" y="597.6188">:StoreRepository</text><rect fill="#E3E3E3" height="30.7453" rx="1.5" ry="1.5" style="stroke:#181818;stroke-width:0.3;" width="31.2" x="721.8" y="42.6"/><text fill="#000000" font-family="sans-serif" font-size="8.4" lengthAdjust="spacing" textLength="19.2" x="727.8" y="55.8645">store</text><text fill="#000000" font-family="sans-serif" font-size="8.4" lengthAdjust="spacing" textLength="22.8" x="726" y="67.0371">:Store</text><rect fill="#E3E3E3" height="30.7453" rx="1.5" ry="1.5" style="stroke:#181818;stroke-width:0.3;" width="31.2" x="721.8" y="573.1816"/><text fill="#000000" font-family="sans-serif" font-size="8.4" lengthAdjust="spacing" textLength="19.2" x="727.8" y="586.4461">store</text><text fill="#000000" font-family="sans-serif" font-size="8.4" lengthAdjust="spacing" textLength="22.8" x="726" y="597.6188">:Store</text><rect fill="#FFFFFF" height="488.4363" style="stroke:#181818;stroke-width:0.6;" width="6" x="41.7" y="79.9453"/><rect fill="#FFFFFF" height="82.4965" style="stroke:#181818;stroke-width:0.6;" width="6" x="283.5" y="93.9199"/><rect fill="#FFFFFF" height="357.416" style="stroke:#181818;stroke-width:0.6;" width="6" x="283.5" y="205.5656"/><rect fill="#FFFFFF" height="18.7746" style="stroke:#181818;stroke-width:0.6;" width="6" x="459.3" y="138.8672"/><rect fill="#FFFFFF" height="288.743" style="stroke:#181818;stroke-width:0.6;" width="6" x="459.3" y="255.4641"/><rect fill="#FFFFFF" height="18.7746" style="stroke:#181818;stroke-width:0.6;" width="6" x="541.5" y="274.2387"/><rect fill="#FFFFFF" height="18.7746" style="stroke:#181818;stroke-width:0.6;" width="6" x="605.7" y="311.7879"/><rect fill="#FFFFFF" height="18.7746" style="stroke:#181818;stroke-width:0.6;" width="6" x="676.8" y="380.4609"/><rect fill="#FFFFFF" height="18.7746" style="stroke:#181818;stroke-width:0.6;" width="6" x="676.8" y="502.4578"/><rect fill="#FFFFFF" height="18.7746" style="stroke:#181818;stroke-width:0.6;" width="6" x="734.4" y="464.9086"/><polygon fill="#181818" points="276.3,91.5199,282.3,93.9199,276.3,96.3199,278.7,93.9199" style="stroke:#181818;stroke-width:0.6;"/><line style="stroke:#181818;stroke-width:0.6;" x1="47.7" x2="279.9" y1="93.9199" y2="93.9199"/><text fill="#000000" font-family="sans-serif" font-size="7.8" font-weight="bold" lengthAdjust="spacing" textLength="4.2" x="51.9" y="90.7623">1</text><text fill="#000000" font-family="sans-serif" font-size="7.8" lengthAdjust="spacing" textLength="80.4" x="58.5" y="90.7623">asks to register a store</text><polygon fill="#181818" points="408,110.2945,414,112.6945,408,115.0945,410.4,112.6945" style="stroke:#181818;stroke-width:0.6;"/><line style="stroke:#181818;stroke-width:0.6;" x1="289.5" x2="411.6" y1="112.6945" y2="112.6945"/><text fill="#000000" font-family="sans-serif" font-size="7.8" font-weight="bold" lengthAdjust="spacing" textLength="4.2" x="293.7" y="109.5369">2</text><text fill="#000000" font-family="sans-serif" font-size="7.8" lengthAdjust="spacing" textLength="21.6" x="300.3" y="109.5369">create</text><rect fill="#E3E3E3" height="19.5727" rx="1.5" ry="1.5" style="stroke:#181818;stroke-width:0.3;" width="94.2" x="415.2" y="98.7199"/><text fill="#000000" font-family="sans-serif" font-size="8.4" lengthAdjust="spacing" textLength="85.8" x="419.4" y="111.9844">:CreateStoreController</text><polygon fill="#181818" points="452.1,136.4672,458.1,138.8672,452.1,141.2672,454.5,138.8672" style="stroke:#181818;stroke-width:0.6;"/><line style="stroke:#181818;stroke-width:0.6;" x1="289.5" x2="455.7" y1="138.8672" y2="138.8672"/><text fill="#000000" font-family="sans-serif" font-size="7.8" font-weight="bold" lengthAdjust="spacing" textLength="4.2" x="293.7" y="135.7096">3</text><text fill="#000000" font-family="sans-serif" font-size="7.8" lengthAdjust="spacing" textLength="49.2" x="300.3" y="135.7096">registerStore()</text><polygon fill="#181818" points="296.1,155.2418,290.1,157.6418,296.1,160.0418,293.7,157.6418" style="stroke:#181818;stroke-width:0.6;"/><line style="stroke:#181818;stroke-width:0.6;stroke-dasharray:2.0,2.0;" x1="292.5" x2="461.7" y1="157.6418" y2="157.6418"/><text fill="#000000" font-family="sans-serif" font-size="7.8" font-weight="bold" lengthAdjust="spacing" textLength="4.2" x="299.7" y="154.4842">4</text><text fill="#000000" font-family="sans-serif" font-size="7.8" lengthAdjust="spacing" textLength="47.4" x="306.3" y="154.4842">requests data</text><polygon fill="#181818" points="54.3,174.0164,48.3,176.4164,54.3,178.8164,51.9,176.4164" style="stroke:#181818;stroke-width:0.6;"/><line style="stroke:#181818;stroke-width:0.6;stroke-dasharray:2.0,2.0;" x1="50.7" x2="285.9" y1="176.4164" y2="176.4164"/><text fill="#000000" font-family="sans-serif" font-size="7.8" font-weight="bold" lengthAdjust="spacing" textLength="4.2" x="57.9" y="173.2588">5</text><text fill="#000000" font-family="sans-serif" font-size="7.8" lengthAdjust="spacing" textLength="47.4" x="64.5" y="173.2588">requests data</text><polygon fill="#181818" points="276.3,203.1656,282.3,205.5656,276.3,207.9656,278.7,205.5656" style="stroke:#181818;stroke-width:0.6;"/><line style="stroke:#181818;stroke-width:0.6;" x1="47.7" x2="279.9" y1="205.5656" y2="205.5656"/><text fill="#000000" font-family="sans-serif" font-size="7.8" font-weight="bold" lengthAdjust="spacing" textLength="4.2" x="51.9" y="197.2207">6</text><text fill="#000000" font-family="sans-serif" font-size="7.8" lengthAdjust="spacing" textLength="217.8" x="58.5" y="192.0334">types requested data (such as name, address, contact details,</text><text fill="#000000" font-family="sans-serif" font-size="7.8" lengthAdjust="spacing" textLength="83.4" x="60.9" y="202.408">and other relevant data.)</text><polygon fill="#181818" points="452.1,253.0641,458.1,255.4641,452.1,257.8641,454.5,255.4641" style="stroke:#181818;stroke-width:0.6;"/><line style="stroke:#181818;stroke-width:0.6;" x1="289.5" x2="455.7" y1="255.4641" y2="255.4641"/><text fill="#000000" font-family="sans-serif" font-size="7.8" font-weight="bold" lengthAdjust="spacing" textLength="4.2" x="293.7" y="236.7445">7</text><text fill="#000000" font-family="sans-serif" font-size="7.8" lengthAdjust="spacing" textLength="145.2" x="300.3" y="221.1826">sendStoreData(storeName, storeAddress,</text><text fill="#000000" font-family="sans-serif" font-size="7.8" lengthAdjust="spacing" textLength="149.4" x="302.7" y="231.5572">phoneNumber, id , taxIdentificationNumber,</text><text fill="#000000" font-family="sans-serif" font-size="7.8" lengthAdjust="spacing" textLength="148.8" x="302.7" y="241.9318">businessLicense, bankAccountInformation,</text><text fill="#000000" font-family="sans-serif" font-size="7.8" lengthAdjust="spacing" textLength="87" x="302.7" y="252.3064">products, website, email)</text><polygon fill="#181818" points="534.3,271.8387,540.3,274.2387,534.3,276.6387,536.7,274.2387" style="stroke:#181818;stroke-width:0.6;"/><line style="stroke:#181818;stroke-width:0.6;" x1="465.3" x2="537.9" y1="274.2387" y2="274.2387"/><text fill="#000000" font-family="sans-serif" font-size="7.8" font-weight="bold" lengthAdjust="spacing" textLength="4.2" x="469.5" y="271.0811">8</text><text fill="#000000" font-family="sans-serif" font-size="7.8" lengthAdjust="spacing" textLength="45" x="476.1" y="271.0811">getInstance()</text><polygon fill="#181818" points="471.9,290.6133,465.9,293.0133,471.9,295.4133,469.5,293.0133" style="stroke:#181818;stroke-width:0.6;"/><line style="stroke:#181818;stroke-width:0.6;stroke-dasharray:2.0,2.0;" x1="468.3" x2="543.9" y1="293.0133" y2="293.0133"/><text fill="#000000" font-family="sans-serif" font-size="7.8" font-weight="bold" lengthAdjust="spacing" textLength="4.2" x="475.5" y="289.8557">9</text><text fill="#000000" font-family="sans-serif" font-size="7.8" lengthAdjust="spacing" textLength="40.2" x="482.1" y="289.8557">repositories</text><polygon fill="#181818" points="598.5,309.3879,604.5,311.7879,598.5,314.1879,600.9,311.7879" style="stroke:#181818;stroke-width:0.6;"/><line style="stroke:#181818;stroke-width:0.6;" x1="465.3" x2="602.1" y1="311.7879" y2="311.7879"/><text fill="#000000" font-family="sans-serif" font-size="7.8" font-weight="bold" lengthAdjust="spacing" textLength="8.4" x="469.5" y="308.6303">10</text><text fill="#000000" font-family="sans-serif" font-size="7.8" lengthAdjust="spacing" textLength="82.2" x="480.3" y="308.6303">getPropertyRepository()</text><polygon fill="#181818" points="471.9,328.1625,465.9,330.5625,471.9,332.9625,469.5,330.5625" style="stroke:#181818;stroke-width:0.6;"/><line style="stroke:#181818;stroke-width:0.6;stroke-dasharray:2.0,2.0;" x1="468.3" x2="608.1" y1="330.5625" y2="330.5625"/><text fill="#000000" font-family="sans-serif" font-size="7.8" font-weight="bold" lengthAdjust="spacing" textLength="8.4" x="475.5" y="327.4049">11</text><text fill="#000000" font-family="sans-serif" font-size="7.8" lengthAdjust="spacing" textLength="54.6" x="486.3" y="327.4049">storeRepository</text><polygon fill="#181818" points="669.6,378.0609,675.6,380.4609,669.6,382.8609,672,380.4609" style="stroke:#181818;stroke-width:0.6;"/><line style="stroke:#181818;stroke-width:0.6;" x1="465.3" x2="673.2" y1="380.4609" y2="380.4609"/><text fill="#000000" font-family="sans-serif" font-size="7.8" font-weight="bold" lengthAdjust="spacing" textLength="8.4" x="469.5" y="361.7414">12</text><text fill="#000000" font-family="sans-serif" font-size="7.8" lengthAdjust="spacing" textLength="145.8" x="480.3" y="346.1795">verifyStoreData(storeName, storeAddress,</text><text fill="#000000" font-family="sans-serif" font-size="7.8" lengthAdjust="spacing" textLength="149.4" x="482.7" y="356.5541">phoneNumber, id , taxIdentificationNumber,</text><text fill="#000000" font-family="sans-serif" font-size="7.8" lengthAdjust="spacing" textLength="148.8" x="482.7" y="366.9287">businessLicense, bankAccountInformation,</text><text fill="#000000" font-family="sans-serif" font-size="7.8" lengthAdjust="spacing" textLength="87" x="482.7" y="377.3033">products, website, email)</text><polygon fill="#181818" points="471.9,396.8355,465.9,399.2355,471.9,401.6355,469.5,399.2355" style="stroke:#181818;stroke-width:0.6;"/><line style="stroke:#181818;stroke-width:0.6;stroke-dasharray:2.0,2.0;" x1="468.3" x2="679.2" y1="399.2355" y2="399.2355"/><text fill="#000000" font-family="sans-serif" font-size="7.8" font-weight="bold" lengthAdjust="spacing" textLength="8.4" x="475.5" y="396.0779">13</text><text fill="#000000" font-family="sans-serif" font-size="7.8" lengthAdjust="spacing" textLength="31.8" x="486.3" y="396.0779">true/false</text><path d="M409.2,408.2355 L445.8,408.2355 L445.8,413.8102 L439.8,419.8102 L409.2,419.8102 L409.2,408.2355 " fill="#EEEEEE" style="stroke:#000000;stroke-width:0.8999999999999999;"/><rect fill="none" height="117.7969" style="stroke:#000000;stroke-width:0.8999999999999999;" width="349.8" x="409.2" y="408.2355"/><text fill="#000000" font-family="sans-serif" font-size="7.8" font-weight="bold" lengthAdjust="spacing" textLength="9.6" x="418.2" y="417.2525">alt</text><text fill="#000000" font-family="sans-serif" font-size="6.6" font-weight="bold" lengthAdjust="spacing" textLength="63.6" x="454.8" y="416.5576">[new store is valid]</text><polygon fill="#181818" points="727.2,462.5086,733.2,464.9086,727.2,467.3086,729.6,464.9086" style="stroke:#181818;stroke-width:0.6;"/><line style="stroke:#181818;stroke-width:0.6;" x1="465.3" x2="730.8" y1="464.9086" y2="464.9086"/><text fill="#000000" font-family="sans-serif" font-size="7.8" font-weight="bold" lengthAdjust="spacing" textLength="8.4" x="469.5" y="446.1891">14</text><text fill="#000000" font-family="sans-serif" font-size="7.8" lengthAdjust="spacing" textLength="133.8" x="480.3" y="430.6271">createStore(storeName, storeAddress,</text><text fill="#000000" font-family="sans-serif" font-size="7.8" lengthAdjust="spacing" textLength="149.4" x="482.7" y="441.0018">phoneNumber, id , taxIdentificationNumber,</text><text fill="#000000" font-family="sans-serif" font-size="7.8" lengthAdjust="spacing" textLength="148.8" x="482.7" y="451.3764">businessLicense, bankAccountInformation,</text><text fill="#000000" font-family="sans-serif" font-size="7.8" lengthAdjust="spacing" textLength="87" x="482.7" y="461.751">products, website, email)</text><polygon fill="#181818" points="471.9,481.2832,465.9,483.6832,471.9,486.0832,469.5,483.6832" style="stroke:#181818;stroke-width:0.6;"/><line style="stroke:#181818;stroke-width:0.6;stroke-dasharray:2.0,2.0;" x1="468.3" x2="736.8" y1="483.6832" y2="483.6832"/><text fill="#000000" font-family="sans-serif" font-size="7.8" font-weight="bold" lengthAdjust="spacing" textLength="8.4" x="475.5" y="480.5256">15</text><text fill="#000000" font-family="sans-serif" font-size="7.8" lengthAdjust="spacing" textLength="86.4" x="486.3" y="480.5256">operation success/failure</text><polygon fill="#181818" points="669.6,500.0578,675.6,502.4578,669.6,504.8578,672,502.4578" style="stroke:#181818;stroke-width:0.6;"/><line style="stroke:#181818;stroke-width:0.6;" x1="465.3" x2="673.2" y1="502.4578" y2="502.4578"/><text fill="#000000" font-family="sans-serif" font-size="7.8" font-weight="bold" lengthAdjust="spacing" textLength="8.4" x="469.5" y="499.3002">16</text><text fill="#000000" font-family="sans-serif" font-size="7.8" lengthAdjust="spacing" textLength="34.8" x="480.3" y="499.3002">add(store)</text><polygon fill="#181818" points="471.9,518.8324,465.9,521.2324,471.9,523.6324,469.5,521.2324" style="stroke:#181818;stroke-width:0.6;"/><line style="stroke:#181818;stroke-width:0.6;stroke-dasharray:2.0,2.0;" x1="468.3" x2="679.2" y1="521.2324" y2="521.2324"/><text fill="#000000" font-family="sans-serif" font-size="7.8" font-weight="bold" lengthAdjust="spacing" textLength="8.4" x="475.5" y="518.0748">17</text><text fill="#000000" font-family="sans-serif" font-size="7.8" lengthAdjust="spacing" textLength="86.4" x="486.3" y="518.0748">operation success/failure</text><polygon fill="#181818" points="296.1,541.807,290.1,544.207,296.1,546.607,293.7,544.207" style="stroke:#181818;stroke-width:0.6;"/><line style="stroke:#181818;stroke-width:0.6;stroke-dasharray:2.0,2.0;" x1="292.5" x2="461.7" y1="544.207" y2="544.207"/><text fill="#000000" font-family="sans-serif" font-size="7.8" font-weight="bold" lengthAdjust="spacing" textLength="8.4" x="299.7" y="541.0494">18</text><text fill="#000000" font-family="sans-serif" font-size="7.8" lengthAdjust="spacing" textLength="2.4" x="310.5" y="541.0494">&#160;</text><polygon fill="#181818" points="54.3,560.5816,48.3,562.9816,54.3,565.3816,51.9,562.9816" style="stroke:#181818;stroke-width:0.6;"/><line style="stroke:#181818;stroke-width:0.6;stroke-dasharray:2.0,2.0;" x1="50.7" x2="285.9" y1="562.9816" y2="562.9816"/><text fill="#000000" font-family="sans-serif" font-size="7.8" font-weight="bold" lengthAdjust="spacing" textLength="8.4" x="57.9" y="559.824">19</text><text fill="#000000" font-family="sans-serif" font-size="7.8" lengthAdjust="spacing" textLength="117.6" x="68.7" y="559.824">displays operation success/failure</text><!--SRC=[pLMnRkCm3Dtr5KIdj4ZkkjpIeK3GTYXG54NTRbqKYKc4s99FbDFptnybEKxYE4N7Uh8flaVoaQ9fOsmjlQoWSjQfjNSLGl0D2kfFQgasSeL5Q4i4Zof8koeF7MWjjViqTWLBMH8A4KnWrtT23qLmleNhwpymWmB_DcWLmhsHgmYS5FUNGiWcEDjK2_JyhjWVBegM0bOmrvMnXeANRBq0IV1GrQLh4GL73aQPMje05pTt7cN060lV7vDZPZZlTkTiyAuiCVFUlRq-3PnViNPasDSW9P_Uq1OcAi1P7qFy0UB3dXAyFCtVZX4KKzdpCgWujWm2Zw1tc5nrV4igcYrNkfTB03-xBvZTTlh03QCs1C5nOrUiD7TCGk9DY9weapFQEYHpHD6khfX39Lr7JlbinvjIct2xaziHUHA_DsVWx3177mU70e6MGHvuQZp7iKk3MVgglyNJ5NfUhz3MI3icr8aA9jIeTMo0bHLEGMhjaMWAYgUCgJb0aAQawOS5QJMui6QXFPQuZOsC5BykHmKN9teIMfsql6VK9BNgEGLDh_CkCWUgryxYSxfNKp0QfX3alqUDDfYbKJ8OPxjJTbuqP2m3dun2Iyosa7OpLyerDZpQfVDL0YHUxtIZ0bVtYGiUItR6YgkBhHrfH-xcxTZjuMfMoFJ46qN5sJXIOEow9OynfbadKEpn_jQ9GNFFKkwIZ3SqP_NYNOq-j7l8CBzqcvCfeVOP32xrC8cCEvM5usxHcsNxGxixeg8G1-dFzZCQVo2_yxzWL7qUb3A0nSzS5XY2hIoDxbL94lIB9Q-Edob6thWvtmC5ul0a6k3De3WQos7AnXy9ah6Zay0R91SyhlkuxDy9AWJl3p5OiU9aaV9pQljwkMf3TIbR-YADyLtx7m00]--></g></svg>