<?xml version="1.0" encoding="us-ascii" standalone="no"?><svg xmlns="http://www.w3.org/2000/svg" xmlns:xlink="http://www.w3.org/1999/xlink" contentStyleType="text/css" height="417px" preserveAspectRatio="none" style="width:481px;height:417px;background:#FFFFFF;" version="1.1" viewBox="0 0 481 417" width="481px" zoomAndPan="magnify"><defs/><g><text fill="#000000" font-family="sans-serif" font-size="7" font-weight="bold" lengthAdjust="spacing" textLength="136.5" x="168.75" y="12.5537">US005 Register a Store - Class Diagram</text><!--class Store--><g id="elem_Store"><rect codeLine="6" fill="#F1F1F1" height="70.5527" id="Store" rx="1.25" ry="1.25" style="stroke:#181818;stroke-width:0.25;" width="75.5" x="225.5" y="343.3105"/><ellipse cx="252.625" cy="351.3105" fill="#ADD1B2" rx="5.5" ry="5.5" style="stroke:#181818;stroke-width:0.5;"/><path d="M254.0078,349.248 Q254.0859,349.1387 254.1797,349.084 Q254.2734,349.0293 254.3828,349.0293 Q254.5703,349.0293 254.6875,349.1621 Q254.8047,349.2871 254.8047,349.5918 L254.8047,350.3184 Q254.8047,350.623 254.6875,350.7559 Q254.5703,350.8887 254.3828,350.8887 Q254.2109,350.8887 254.1094,350.7871 Q254.0078,350.6934 253.9531,350.4355 Q253.9297,350.2559 253.8359,350.1621 Q253.6719,349.9746 253.3672,349.8652 Q253.0625,349.7559 252.75,349.7559 Q252.3672,349.7559 252.0469,349.9199 Q251.7344,350.084 251.4844,350.459 Q251.2422,350.834 251.2422,351.3496 L251.2422,351.8965 Q251.2422,352.5137 251.6875,352.9277 Q252.1328,353.334 252.9297,353.334 Q253.3984,353.334 253.7266,353.209 Q253.9219,353.1309 254.1328,352.9121 Q254.2656,352.7793 254.3359,352.7402 Q254.4141,352.7012 254.5156,352.7012 Q254.6797,352.7012 254.8047,352.834 Q254.9375,352.959 254.9375,353.1309 Q254.9375,353.3027 254.7656,353.5059 Q254.5156,353.7949 254.1172,353.959 Q253.5781,354.1855 252.9297,354.1855 Q252.1719,354.1855 251.5703,353.873 Q251.0781,353.623 250.7344,353.0918 Q250.3906,352.5527 250.3906,351.9121 L250.3906,351.334 Q250.3906,350.6699 250.6953,350.0996 Q251.0078,349.5215 251.5547,349.2168 Q252.1016,348.9043 252.7188,348.9043 Q253.0859,348.9043 253.4063,348.9902 Q253.7344,349.0684 254.0078,349.248 Z " fill="#000000"/><text fill="#000000" font-family="sans-serif" font-size="7" lengthAdjust="spacing" textLength="17" x="262.875" y="354.209">Store</text><line style="stroke:#181818;stroke-width:0.25;" x1="226" x2="300.5" y1="359.3105" y2="359.3105"/><text fill="#000000" font-family="sans-serif" font-size="7" lengthAdjust="spacing" textLength="59" x="228.5" y="368.8643">-String storeName;</text><text fill="#000000" font-family="sans-serif" font-size="7" lengthAdjust="spacing" textLength="50.5" x="228.5" y="378.1748">-String address;</text><text fill="#000000" font-family="sans-serif" font-size="7" lengthAdjust="spacing" textLength="69.5" x="228.5" y="387.4854">-String phoneNumber;</text><text fill="#000000" font-family="sans-serif" font-size="7" lengthAdjust="spacing" textLength="19.5" x="228.5" y="396.7959">-int id;</text><text fill="#000000" font-family="sans-serif" font-size="7" lengthAdjust="spacing" textLength="41.5" x="228.5" y="406.1064">-String email;</text><line style="stroke:#181818;stroke-width:0.25;" x1="226" x2="300.5" y1="409.8633" y2="409.8633"/></g><!--class SystemAdministrator--><g id="elem_SystemAdministrator"><rect codeLine="15" fill="#F1F1F1" height="61.2422" id="SystemAdministrator" rx="1.25" ry="1.25" style="stroke:#181818;stroke-width:0.25;" width="80.5" x="36.5" y="23.3105"/><ellipse cx="44" cy="31.3105" fill="#ADD1B2" rx="5.5" ry="5.5" style="stroke:#181818;stroke-width:0.5;"/><path d="M45.3828,29.248 Q45.4609,29.1387 45.5547,29.084 Q45.6484,29.0293 45.7578,29.0293 Q45.9453,29.0293 46.0625,29.1621 Q46.1797,29.2871 46.1797,29.5918 L46.1797,30.3184 Q46.1797,30.623 46.0625,30.7559 Q45.9453,30.8887 45.7578,30.8887 Q45.5859,30.8887 45.4844,30.7871 Q45.3828,30.6934 45.3281,30.4355 Q45.3047,30.2559 45.2109,30.1621 Q45.0469,29.9746 44.7422,29.8652 Q44.4375,29.7559 44.125,29.7559 Q43.7422,29.7559 43.4219,29.9199 Q43.1094,30.084 42.8594,30.459 Q42.6172,30.834 42.6172,31.3496 L42.6172,31.8965 Q42.6172,32.5137 43.0625,32.9277 Q43.5078,33.334 44.3047,33.334 Q44.7734,33.334 45.1016,33.209 Q45.2969,33.1309 45.5078,32.9121 Q45.6406,32.7793 45.7109,32.7402 Q45.7891,32.7012 45.8906,32.7012 Q46.0547,32.7012 46.1797,32.834 Q46.3125,32.959 46.3125,33.1309 Q46.3125,33.3027 46.1406,33.5059 Q45.8906,33.7949 45.4922,33.959 Q44.9531,34.1855 44.3047,34.1855 Q43.5469,34.1855 42.9453,33.873 Q42.4531,33.623 42.1094,33.0918 Q41.7656,32.5527 41.7656,31.9121 L41.7656,31.334 Q41.7656,30.6699 42.0703,30.0996 Q42.3828,29.5215 42.9297,29.2168 Q43.4766,28.9043 44.0938,28.9043 Q44.4609,28.9043 44.7813,28.9902 Q45.1094,29.0684 45.3828,29.248 Z " fill="#000000"/><text fill="#000000" font-family="sans-serif" font-size="7" lengthAdjust="spacing" textLength="64.5" x="51" y="34.209">SystemAdministrator</text><line style="stroke:#181818;stroke-width:0.25;" x1="37" x2="116.5" y1="39.3105" y2="39.3105"/><text fill="#000000" font-family="sans-serif" font-size="7" lengthAdjust="spacing" textLength="35" x="39.5" y="48.8643">-String role</text><text fill="#000000" font-family="sans-serif" font-size="7" lengthAdjust="spacing" textLength="40.5" x="39.5" y="58.1748">-String name</text><text fill="#000000" font-family="sans-serif" font-size="7" lengthAdjust="spacing" textLength="39.5" x="39.5" y="67.4854">-String email</text><text fill="#000000" font-family="sans-serif" font-size="7" lengthAdjust="spacing" textLength="53" x="39.5" y="76.7959">-String password</text><line style="stroke:#181818;stroke-width:0.25;" x1="37" x2="116.5" y1="80.5527" y2="80.5527"/></g><!--class StoreRepository--><g id="elem_StoreRepository"><rect codeLine="23" fill="#F1F1F1" height="33.3105" id="StoreRepository" rx="1.25" ry="1.25" style="stroke:#181818;stroke-width:0.25;" width="73.5" x="301" y="270.3105"/><ellipse cx="311.425" cy="278.3105" fill="#ADD1B2" rx="5.5" ry="5.5" style="stroke:#181818;stroke-width:0.5;"/><path d="M312.8078,276.248 Q312.8859,276.1387 312.9797,276.084 Q313.0734,276.0293 313.1828,276.0293 Q313.3703,276.0293 313.4875,276.1621 Q313.6047,276.2871 313.6047,276.5918 L313.6047,277.3184 Q313.6047,277.623 313.4875,277.7559 Q313.3703,277.8887 313.1828,277.8887 Q313.0109,277.8887 312.9094,277.7871 Q312.8078,277.6934 312.7531,277.4355 Q312.7297,277.2559 312.6359,277.1621 Q312.4719,276.9746 312.1672,276.8652 Q311.8625,276.7559 311.55,276.7559 Q311.1672,276.7559 310.8469,276.9199 Q310.5344,277.084 310.2844,277.459 Q310.0422,277.834 310.0422,278.3496 L310.0422,278.8965 Q310.0422,279.5137 310.4875,279.9277 Q310.9328,280.334 311.7297,280.334 Q312.1984,280.334 312.5266,280.209 Q312.7219,280.1309 312.9328,279.9121 Q313.0656,279.7793 313.1359,279.7402 Q313.2141,279.7012 313.3156,279.7012 Q313.4797,279.7012 313.6047,279.834 Q313.7375,279.959 313.7375,280.1309 Q313.7375,280.3027 313.5656,280.5059 Q313.3156,280.7949 312.9172,280.959 Q312.3781,281.1855 311.7297,281.1855 Q310.9719,281.1855 310.3703,280.873 Q309.8781,280.623 309.5344,280.0918 Q309.1906,279.5527 309.1906,278.9121 L309.1906,278.334 Q309.1906,277.6699 309.4953,277.0996 Q309.8078,276.5215 310.3547,276.2168 Q310.9016,275.9043 311.5188,275.9043 Q311.8859,275.9043 312.2063,275.9902 Q312.5344,276.0684 312.8078,276.248 Z " fill="#000000"/><text fill="#000000" font-family="sans-serif" font-size="7" lengthAdjust="spacing" textLength="51" x="319.075" y="281.209">StoreRepository</text><line style="stroke:#181818;stroke-width:0.25;" x1="301.5" x2="374" y1="286.3105" y2="286.3105"/><text fill="#000000" font-family="sans-serif" font-size="7" lengthAdjust="spacing" textLength="67.5" x="304" y="295.8643">-List&lt;Store&gt; storeList</text><line style="stroke:#181818;stroke-width:0.25;" x1="301.5" x2="374" y1="299.6211" y2="299.6211"/></g><!--class CreateStoreUI--><g id="elem_CreateStoreUI"><rect codeLine="28" fill="#F1F1F1" height="79.8633" id="CreateStoreUI" rx="1.25" ry="1.25" style="stroke:#181818;stroke-width:0.25;" width="146.5" x="3.5" y="141.5605"/><ellipse cx="52.375" cy="149.5605" fill="#ADD1B2" rx="5.5" ry="5.5" style="stroke:#181818;stroke-width:0.5;"/><path d="M53.7578,147.498 Q53.8359,147.3887 53.9297,147.334 Q54.0234,147.2793 54.1328,147.2793 Q54.3203,147.2793 54.4375,147.4121 Q54.5547,147.5371 54.5547,147.8418 L54.5547,148.5684 Q54.5547,148.873 54.4375,149.0059 Q54.3203,149.1387 54.1328,149.1387 Q53.9609,149.1387 53.8594,149.0371 Q53.7578,148.9434 53.7031,148.6855 Q53.6797,148.5059 53.5859,148.4121 Q53.4219,148.2246 53.1172,148.1152 Q52.8125,148.0059 52.5,148.0059 Q52.1172,148.0059 51.7969,148.1699 Q51.4844,148.334 51.2344,148.709 Q50.9922,149.084 50.9922,149.5996 L50.9922,150.1465 Q50.9922,150.7637 51.4375,151.1777 Q51.8828,151.584 52.6797,151.584 Q53.1484,151.584 53.4766,151.459 Q53.6719,151.3809 53.8828,151.1621 Q54.0156,151.0293 54.0859,150.9902 Q54.1641,150.9512 54.2656,150.9512 Q54.4297,150.9512 54.5547,151.084 Q54.6875,151.209 54.6875,151.3809 Q54.6875,151.5527 54.5156,151.7559 Q54.2656,152.0449 53.8672,152.209 Q53.3281,152.4355 52.6797,152.4355 Q51.9219,152.4355 51.3203,152.123 Q50.8281,151.873 50.4844,151.3418 Q50.1406,150.8027 50.1406,150.1621 L50.1406,149.584 Q50.1406,148.9199 50.4453,148.3496 Q50.7578,147.7715 51.3047,147.4668 Q51.8516,147.1543 52.4688,147.1543 Q52.8359,147.1543 53.1563,147.2402 Q53.4844,147.3184 53.7578,147.498 Z " fill="#000000"/><text fill="#000000" font-family="sans-serif" font-size="7" lengthAdjust="spacing" textLength="44.5" x="62.625" y="152.459">CreateStoreUI</text><line style="stroke:#181818;stroke-width:0.25;" x1="4" x2="149.5" y1="157.5605" y2="157.5605"/><line style="stroke:#181818;stroke-width:0.25;" x1="4" x2="149.5" y1="161.5605" y2="161.5605"/><text fill="#000000" font-family="sans-serif" font-size="7" lengthAdjust="spacing" textLength="19.5" x="6.5" y="171.1143">+run()</text><text fill="#000000" font-family="sans-serif" font-size="7" lengthAdjust="spacing" textLength="63" x="6.5" y="180.4248">+registerNewStore()</text><text fill="#000000" font-family="sans-serif" font-size="7" lengthAdjust="spacing" textLength="104" x="6.5" y="189.7354">+verifyData(storeName, address,</text><text fill="#000000" font-family="sans-serif" font-size="7" lengthAdjust="spacing" textLength="133" x="8.5" y="199.0459">phoneNumber, id, taxIdentificationNumber,</text><text fill="#000000" font-family="sans-serif" font-size="7" lengthAdjust="spacing" textLength="138.5" x="8.5" y="208.3564">businessLicensee, bankAccountInformation,</text><text fill="#000000" font-family="sans-serif" font-size="7" lengthAdjust="spacing" textLength="78" x="8.5" y="217.667">products, website, email)</text></g><!--class Repositories--><g id="elem_Repositories"><rect codeLine="35" fill="#F1F1F1" height="51.9316" id="Repositories" rx="1.25" ry="1.25" style="stroke:#181818;stroke-width:0.25;" width="76.5" x="401" y="155.5605"/><ellipse cx="417.95" cy="163.5605" fill="#ADD1B2" rx="5.5" ry="5.5" style="stroke:#181818;stroke-width:0.5;"/><path d="M419.3328,161.498 Q419.4109,161.3887 419.5047,161.334 Q419.5984,161.2793 419.7078,161.2793 Q419.8953,161.2793 420.0125,161.4121 Q420.1297,161.5371 420.1297,161.8418 L420.1297,162.5684 Q420.1297,162.873 420.0125,163.0059 Q419.8953,163.1387 419.7078,163.1387 Q419.5359,163.1387 419.4344,163.0371 Q419.3328,162.9434 419.2781,162.6855 Q419.2547,162.5059 419.1609,162.4121 Q418.9969,162.2246 418.6922,162.1152 Q418.3875,162.0059 418.075,162.0059 Q417.6922,162.0059 417.3719,162.1699 Q417.0594,162.334 416.8094,162.709 Q416.5672,163.084 416.5672,163.5996 L416.5672,164.1465 Q416.5672,164.7637 417.0125,165.1777 Q417.4578,165.584 418.2547,165.584 Q418.7234,165.584 419.0516,165.459 Q419.2469,165.3809 419.4578,165.1621 Q419.5906,165.0293 419.6609,164.9902 Q419.7391,164.9512 419.8406,164.9512 Q420.0047,164.9512 420.1297,165.084 Q420.2625,165.209 420.2625,165.3809 Q420.2625,165.5527 420.0906,165.7559 Q419.8406,166.0449 419.4422,166.209 Q418.9031,166.4355 418.2547,166.4355 Q417.4969,166.4355 416.8953,166.123 Q416.4031,165.873 416.0594,165.3418 Q415.7156,164.8027 415.7156,164.1621 L415.7156,163.584 Q415.7156,162.9199 416.0203,162.3496 Q416.3328,161.7715 416.8797,161.4668 Q417.4266,161.1543 418.0438,161.1543 Q418.4109,161.1543 418.7313,161.2402 Q419.0594,161.3184 419.3328,161.498 Z " fill="#000000"/><text fill="#000000" font-family="sans-serif" font-size="7" lengthAdjust="spacing" textLength="39.5" x="427.05" y="166.459">Repositories</text><line style="stroke:#181818;stroke-width:0.25;" x1="401.5" x2="477" y1="171.5605" y2="171.5605"/><text fill="#000000" font-family="sans-serif" font-size="7" lengthAdjust="spacing" textLength="70.5" x="404" y="181.1143">-Repositories instance</text><line style="stroke:#181818;stroke-width:0.25;" x1="401.5" x2="477" y1="184.8711" y2="184.8711"/><text fill="#000000" font-family="sans-serif" font-size="7" lengthAdjust="spacing" textLength="45.5" x="404" y="194.4248">+getInstance()</text><text fill="#000000" font-family="sans-serif" font-size="7" lengthAdjust="spacing" textLength="70" x="404" y="203.7354">+getStoreRepository()</text></g><!--class CreateStoreController--><g id="elem_CreateStoreController"><rect codeLine="42" fill="#F1F1F1" height="98.4844" id="CreateStoreController" rx="1.25" ry="1.25" style="stroke:#181818;stroke-width:0.25;" width="146.5" x="190" y="132.3105"/><ellipse cx="226.375" cy="140.3105" fill="#ADD1B2" rx="5.5" ry="5.5" style="stroke:#181818;stroke-width:0.5;"/><path d="M227.7578,138.248 Q227.8359,138.1387 227.9297,138.084 Q228.0234,138.0293 228.1328,138.0293 Q228.3203,138.0293 228.4375,138.1621 Q228.5547,138.2871 228.5547,138.5918 L228.5547,139.3184 Q228.5547,139.623 228.4375,139.7559 Q228.3203,139.8887 228.1328,139.8887 Q227.9609,139.8887 227.8594,139.7871 Q227.7578,139.6934 227.7031,139.4355 Q227.6797,139.2559 227.5859,139.1621 Q227.4219,138.9746 227.1172,138.8652 Q226.8125,138.7559 226.5,138.7559 Q226.1172,138.7559 225.7969,138.9199 Q225.4844,139.084 225.2344,139.459 Q224.9922,139.834 224.9922,140.3496 L224.9922,140.8965 Q224.9922,141.5137 225.4375,141.9277 Q225.8828,142.334 226.6797,142.334 Q227.1484,142.334 227.4766,142.209 Q227.6719,142.1309 227.8828,141.9121 Q228.0156,141.7793 228.0859,141.7402 Q228.1641,141.7012 228.2656,141.7012 Q228.4297,141.7012 228.5547,141.834 Q228.6875,141.959 228.6875,142.1309 Q228.6875,142.3027 228.5156,142.5059 Q228.2656,142.7949 227.8672,142.959 Q227.3281,143.1855 226.6797,143.1855 Q225.9219,143.1855 225.3203,142.873 Q224.8281,142.623 224.4844,142.0918 Q224.1406,141.5527 224.1406,140.9121 L224.1406,140.334 Q224.1406,139.6699 224.4453,139.0996 Q224.7578,138.5215 225.3047,138.2168 Q225.8516,137.9043 226.4688,137.9043 Q226.8359,137.9043 227.1563,137.9902 Q227.4844,138.0684 227.7578,138.248 Z " fill="#000000"/><text fill="#000000" font-family="sans-serif" font-size="7" lengthAdjust="spacing" textLength="69.5" x="236.625" y="143.209">CreateStoreController</text><line style="stroke:#181818;stroke-width:0.25;" x1="190.5" x2="336" y1="148.3105" y2="148.3105"/><line style="stroke:#181818;stroke-width:0.25;" x1="190.5" x2="336" y1="152.3105" y2="152.3105"/><text fill="#000000" font-family="sans-serif" font-size="7" lengthAdjust="spacing" textLength="122.5" x="193" y="161.8643">+verifyIfNewStore(storeName, address,</text><text fill="#000000" font-family="sans-serif" font-size="7" lengthAdjust="spacing" textLength="133" x="195" y="171.1748">phoneNumber, id, taxIdentificationNumber,</text><text fill="#000000" font-family="sans-serif" font-size="7" lengthAdjust="spacing" textLength="138.5" x="195" y="180.4854">businessLicensee, bankAccountInformation,</text><text fill="#000000" font-family="sans-serif" font-size="7" lengthAdjust="spacing" textLength="78" x="195" y="189.7959">products, website, email)</text><text fill="#000000" font-family="sans-serif" font-size="7" lengthAdjust="spacing" textLength="109" x="193" y="199.1064">+createStore(storeName, address,</text><text fill="#000000" font-family="sans-serif" font-size="7" lengthAdjust="spacing" textLength="133" x="195" y="208.417">phoneNumber, id, taxIdentificationNumber,</text><text fill="#000000" font-family="sans-serif" font-size="7" lengthAdjust="spacing" textLength="138.5" x="195" y="217.7275">businessLicensee, bankAccountInformation,</text><text fill="#000000" font-family="sans-serif" font-size="7" lengthAdjust="spacing" textLength="78" x="195" y="227.0381">products, website, email)</text></g><!--link SystemAdministrator to CreateStoreUI--><g id="link_SystemAdministrator_CreateStoreUI"><path codeLine="48" d="M76.75,84.3505 C76.75,100.6055 76.75,120.9555 76.75,138.7905 " fill="none" id="SystemAdministrator-to-CreateStoreUI" style="stroke:#181818;stroke-width:0.5;"/><polygon fill="#181818" points="76.75,141.4005,78.75,136.9005,76.75,138.9005,74.75,136.9005,76.75,141.4005" style="stroke:#181818;stroke-width:0.5;"/><text fill="#000000" font-family="sans-serif" font-size="6.5" lengthAdjust="spacing" textLength="41.5" x="83.25" y="106.8247">runs and gives</text><text fill="#000000" font-family="sans-serif" font-size="6.5" lengthAdjust="spacing" textLength="53.5" x="77.25" y="115.4702">details about store</text></g><!--link CreateStoreUI to CreateStoreController--><g id="link_CreateStoreUI_CreateStoreController"><path codeLine="49" d="M150.06,181.5605 C162.295,181.5605 175.01,181.5605 187.31,181.5605 " fill="none" id="CreateStoreUI-to-CreateStoreController" style="stroke:#181818;stroke-width:0.5;stroke-dasharray:7.0,7.0;"/><polygon fill="#181818" points="189.93,181.5605,185.43,179.5605,187.43,181.5605,185.43,183.5605,189.93,181.5605" style="stroke:#181818;stroke-width:0.5;"/><text fill="#000000" font-family="sans-serif" font-size="6.5" lengthAdjust="spacing" textLength="21.5" x="159.25" y="178.0747">creates</text></g><!--link CreateStoreController to Repositories--><g id="link_CreateStoreController_Repositories"><path codeLine="50" d="M336.615,181.5605 C357.65,181.5605 379.835,181.5605 398.175,181.5605 " fill="none" id="CreateStoreController-to-Repositories" style="stroke:#181818;stroke-width:0.5;"/><polygon fill="#181818" points="400.855,181.5605,396.355,179.5605,398.355,181.5605,396.355,183.5605,400.855,181.5605" style="stroke:#181818;stroke-width:0.5;"/><text fill="#000000" font-family="sans-serif" font-size="6.5" lengthAdjust="spacing" textLength="46" x="345.75" y="178.0747">gets instance of</text></g><!--link Repositories to StoreRepository--><g id="link_Repositories_StoreRepository"><path codeLine="51" d="M414.42,207.6255 C396.13,226.4555 371.7,251.6055 355.38,268.4105 " fill="none" id="Repositories-to-StoreRepository" style="stroke:#181818;stroke-width:0.5;"/><polygon fill="#181818" points="353.63,270.2105,358.197,268.3686,355.3689,268.4144,355.3231,265.5863,353.63,270.2105" style="stroke:#181818;stroke-width:0.5;"/><text fill="#000000" font-family="sans-serif" font-size="6.5" lengthAdjust="spacing" textLength="24.5" x="377.25" y="253.3247">contains</text></g><!--link CreateStoreController to Store--><g id="link_CreateStoreController_Store"><path codeLine="52" d="M263.25,230.8855 C263.25,264.8555 263.25,309.4555 263.25,340.6205 " fill="none" id="CreateStoreController-to-Store" style="stroke:#181818;stroke-width:0.5;"/><polygon fill="#181818" points="263.25,343.2205,265.25,338.7205,263.25,340.7205,261.25,338.7205,263.25,343.2205" style="stroke:#181818;stroke-width:0.5;"/><text fill="#000000" font-family="sans-serif" font-size="6.5" lengthAdjust="spacing" textLength="21.5" x="263.75" y="289.8247">creates</text></g><!--link CreateStoreController to StoreRepository--><g id="link_CreateStoreController_StoreRepository"><path codeLine="53" d="M265.475,230.9455 C267.6,239.6555 270.98,248.2055 276.25,255.3105 C281.925,262.9605 290.005,268.8705 298.455,273.3905 " fill="none" id="CreateStoreController-to-StoreRepository" style="stroke:#181818;stroke-width:0.5;"/><polygon fill="#181818" points="300.845,274.6255,297.7682,270.7806,298.6249,273.4762,295.9293,274.3329,300.845,274.6255" style="stroke:#181818;stroke-width:0.5;"/><text fill="#000000" font-family="sans-serif" font-size="6.5" lengthAdjust="spacing" textLength="51" x="276.75" y="253.3247">adds new store in</text></g><!--link StoreRepository to CreateStoreController--><g id="link_StoreRepository_CreateStoreController"><path codeLine="56" d="M337.085,270.3105 C336.2,262.5155 334.29,253.2755 330.25,245.8105 C327.855,241.3805 325.035,237.0805 321.94,232.9455 " fill="none" id="StoreRepository-to-CreateStoreController" style="stroke:#181818;stroke-width:0.5;"/><polygon fill="#181818" points="320.4,230.9255,321.541,235.716,321.917,232.9127,324.7204,233.2887,320.4,230.9255" style="stroke:#181818;stroke-width:0.5;"/><text fill="#000000" font-family="sans-serif" font-size="6.5" lengthAdjust="spacing" textLength="25" x="334.75" y="253.3247">storeList</text></g><!--link StoreRepository to Store--><g id="link_StoreRepository_Store"><path codeLine="54" d="M324.26,303.9505 C315.7,314.3455 304.275,328.2255 293.62,341.1655 " fill="none" id="StoreRepository-to-Store" style="stroke:#181818;stroke-width:0.5;"/><polygon fill="#181818" points="291.92,343.2355,296.3277,341.0396,293.512,341.308,293.2436,338.4923,291.92,343.2355" style="stroke:#181818;stroke-width:0.5;"/><text fill="#000000" font-family="sans-serif" font-size="6.5" lengthAdjust="spacing" textLength="24.5" x="312.25" y="326.3247">contains</text></g><!--SRC=[pLHDRwCm4BtxL_YOgB3API_fAbAKNf2g71hrLYaQp417WN5acwRfQl_x3f10o2RQQq_W-NZlpVE0tn7lmK6bzs1sKE0c74lK3aq0BafKlY_mxv3P0t6XSoZzPSQKuFqo14Tf7J0nbZVqXNgc0WK1UztCPZ_r2nRa0peDUXEiGnthLTEddmWAGL6gXJabVwju8tX2vflp6Yfyx4EGPGwz7mBxTykuhgiKdGI9WwPio685L3wgxNQh_lGiHz5IBREAM5Gv498BJcTbylE1XNkCDV0ArC6wx0gxKVo2U-j9teu2-omSlzhmefkd2OoRLWuXO5lpceYK9ldWQfvCvN6oRes7jg29VQ2Z_FW40IQzGz7PcUYDBps9n8v81_XCCkH0EHa8PFcKbDgqziJIzqm6sQC0fS2xfJ6svf1mRbtLThIupcQr2JxI1qnbGYbkJPaEi_Ip4_h6rT6PsCjg6UmcB53mkq0pbHolt9jCRtgqiXpabafqPwywGvAyD-cxsF9W1jdVwQvkVG9nlBZQnBcM9VGQEDC5VQ1_umo3G4WejNNerbcDUtuixbpLN7TUU7KxB-oZNPbhMOXXPRJDrIZVoBtQbuP3045wxfDq_vZ_ghc9BjVcDUEXcroqgUkQ-9BXhENVglic3R-8lm00]--></g></svg>