<?xml version="1.0" encoding="us-ascii" standalone="no"?><svg xmlns="http://www.w3.org/2000/svg" xmlns:xlink="http://www.w3.org/1999/xlink" contentStyleType="text/css" height="903.6px" preserveAspectRatio="none" style="width:718px;height:903px;background:#FFFFFF;" version="1.1" viewBox="0 0 718 903" width="718.2px" zoomAndPan="magnify"><defs/><g><text fill="#000000" font-family="sans-serif" font-size="12.6" font-weight="bold" lengthAdjust="spacing" textLength="307.8" x="206.1" y="27.0967">User Story 002 - System Sequence Diagram (SSD)</text><rect fill="#FFFFFF" height="700.1156" style="stroke:#181818;stroke-width:0.9;" width="9" x="85.5" y="119.918"/><rect fill="#FFFFFF" height="28.1619" style="stroke:#181818;stroke-width:0.9;" width="9" x="491.4" y="140.8799"/><rect fill="#FFFFFF" height="28.1619" style="stroke:#181818;stroke-width:0.9;" width="9" x="491.4" y="197.2037"/><rect fill="#FFFFFF" height="190.5012" style="stroke:#181818;stroke-width:0.9;" width="9" x="491.4" y="253.5275"/><rect fill="#FFFFFF" height="114.4477" style="stroke:#181818;stroke-width:0.9;" width="9" x="491.4" y="472.1906"/><rect fill="#FFFFFF" height="206.1334" style="stroke:#181818;stroke-width:0.9;" width="9" x="491.4" y="614.8002"/><rect fill="none" height="546.7061" style="stroke:#000000;stroke-width:1.35;" width="702.9" x="9" y="267.0275"/><rect fill="none" height="429.8906" style="stroke:#000000;stroke-width:1.35;" width="684.9" x="18" y="377.543"/><rect fill="none" height="73.6857" style="stroke:#000000;stroke-width:1.35;" width="506.7" x="27" y="485.6906"/><rect fill="none" height="73.6857" style="stroke:#000000;stroke-width:1.35;" width="506.7" x="27" y="628.3002"/><line style="stroke:#181818;stroke-width:0.45;stroke-dasharray:5.0,5.0;" x1="90" x2="90" y1="110.918" y2="829.0336"/><line style="stroke:#181818;stroke-width:0.45;stroke-dasharray:5.0,5.0;" x1="495.9" x2="495.9" y1="110.918" y2="829.0336"/><text fill="#000000" font-family="sans-serif" font-size="12.6" lengthAdjust="spacing" textLength="102.6" x="36" y="107.7557">Real Estate Agent</text><ellipse cx="90" cy="47.809" fill="#E3E3E3" rx="7.2" ry="7.2" style="stroke:#181818;stroke-width:0.45;"/><path d="M90,55.009 L90,79.309 M78.3,62.209 L101.7,62.209 M90,79.309 L78.3,92.809 M90,79.309 L101.7,92.809 " fill="none" style="stroke:#181818;stroke-width:0.45;"/><text fill="#000000" font-family="sans-serif" font-size="12.6" lengthAdjust="spacing" textLength="102.6" x="36" y="841.7303">Real Estate Agent</text><ellipse cx="90" cy="852.5426" fill="#E3E3E3" rx="7.2" ry="7.2" style="stroke:#181818;stroke-width:0.45;"/><path d="M90,859.7426 L90,884.0426 M78.3,866.9426 L101.7,866.9426 M90,884.0426 L78.3,897.5426 M90,884.0426 L101.7,897.5426 " fill="none" style="stroke:#181818;stroke-width:0.45;"/><rect fill="#E3E3E3" height="29.359" rx="2.25" ry="2.25" style="stroke:#181818;stroke-width:0.45;" width="57.6" x="467.1" y="80.659"/><text fill="#000000" font-family="sans-serif" font-size="12.6" lengthAdjust="spacing" textLength="45" x="473.4" y="100.5557">:System</text><rect fill="#E3E3E3" height="29.359" rx="2.25" ry="2.25" style="stroke:#181818;stroke-width:0.45;" width="57.6" x="467.1" y="828.1336"/><text fill="#000000" font-family="sans-serif" font-size="12.6" lengthAdjust="spacing" textLength="45" x="473.4" y="848.0303">:System</text><rect fill="#FFFFFF" height="700.1156" style="stroke:#181818;stroke-width:0.9;" width="9" x="85.5" y="119.918"/><rect fill="#FFFFFF" height="28.1619" style="stroke:#181818;stroke-width:0.9;" width="9" x="491.4" y="140.8799"/><rect fill="#FFFFFF" height="28.1619" style="stroke:#181818;stroke-width:0.9;" width="9" x="491.4" y="197.2037"/><rect fill="#FFFFFF" height="190.5012" style="stroke:#181818;stroke-width:0.9;" width="9" x="491.4" y="253.5275"/><rect fill="#FFFFFF" height="114.4477" style="stroke:#181818;stroke-width:0.9;" width="9" x="491.4" y="472.1906"/><rect fill="#FFFFFF" height="206.1334" style="stroke:#181818;stroke-width:0.9;" width="9" x="491.4" y="614.8002"/><polygon fill="#181818" points="480.6,137.2799,489.6,140.8799,480.6,144.4799,484.2,140.8799" style="stroke:#181818;stroke-width:0.9;"/><line style="stroke:#181818;stroke-width:0.9;" x1="94.5" x2="486" y1="140.8799" y2="140.8799"/><text fill="#000000" font-family="sans-serif" font-size="11.7" font-weight="bold" lengthAdjust="spacing" textLength="6.3" x="100.8" y="136.1435">1</text><text fill="#000000" font-family="sans-serif" font-size="11.7" lengthAdjust="spacing" textLength="167.4" x="110.7" y="136.1435">asks to list registered properties</text><polygon fill="#181818" points="104.4,165.4418,95.4,169.0418,104.4,172.6418,100.8,169.0418" style="stroke:#181818;stroke-width:0.9;"/><line style="stroke:#181818;stroke-width:0.9;stroke-dasharray:2.0,2.0;" x1="99" x2="495" y1="169.0418" y2="169.0418"/><text fill="#000000" font-family="sans-serif" font-size="11.7" font-weight="bold" lengthAdjust="spacing" textLength="6.3" x="109.8" y="164.3054">2</text><text fill="#000000" font-family="sans-serif" font-size="11.7" lengthAdjust="spacing" textLength="306.9" x="119.7" y="164.3054">asks if the user only wants to see 'for rent', 'for sale' or both</text><polygon fill="#181818" points="480.6,193.6037,489.6,197.2037,480.6,200.8037,484.2,197.2037" style="stroke:#181818;stroke-width:0.9;"/><line style="stroke:#181818;stroke-width:0.9;" x1="94.5" x2="486" y1="197.2037" y2="197.2037"/><text fill="#000000" font-family="sans-serif" font-size="11.7" font-weight="bold" lengthAdjust="spacing" textLength="6.3" x="100.8" y="192.4673">3</text><text fill="#000000" font-family="sans-serif" font-size="11.7" lengthAdjust="spacing" textLength="110.7" x="110.7" y="192.4673">answers the question</text><polygon fill="#181818" points="104.4,221.7656,95.4,225.3656,104.4,228.9656,100.8,225.3656" style="stroke:#181818;stroke-width:0.9;"/><line style="stroke:#181818;stroke-width:0.9;stroke-dasharray:2.0,2.0;" x1="99" x2="495" y1="225.3656" y2="225.3656"/><text fill="#000000" font-family="sans-serif" font-size="11.7" font-weight="bold" lengthAdjust="spacing" textLength="6.3" x="109.8" y="220.6292">4</text><text fill="#000000" font-family="sans-serif" font-size="11.7" lengthAdjust="spacing" textLength="365.4" x="119.7" y="220.6292">asks if they only want to see lands, apartments, houses or all of those</text><polygon fill="#181818" points="480.6,249.9275,489.6,253.5275,480.6,257.1275,484.2,253.5275" style="stroke:#181818;stroke-width:0.9;"/><line style="stroke:#181818;stroke-width:0.9;" x1="94.5" x2="486" y1="253.5275" y2="253.5275"/><text fill="#000000" font-family="sans-serif" font-size="11.7" font-weight="bold" lengthAdjust="spacing" textLength="6.3" x="100.8" y="248.7911">5</text><text fill="#000000" font-family="sans-serif" font-size="11.7" lengthAdjust="spacing" textLength="110.7" x="110.7" y="248.7911">answers the question</text><path d="M9,267.0275 L63.9,267.0275 L63.9,275.3895 L54.9,284.3895 L9,284.3895 L9,267.0275 " fill="#EEEEEE" style="stroke:#000000;stroke-width:1.35;"/><rect fill="none" height="546.7061" style="stroke:#000000;stroke-width:1.35;" width="702.9" x="9" y="267.0275"/><text fill="#000000" font-family="sans-serif" font-size="11.7" font-weight="bold" lengthAdjust="spacing" textLength="14.4" x="22.5" y="280.553">alt</text><text fill="#000000" font-family="sans-serif" font-size="9.9" font-weight="bold" lengthAdjust="spacing" textLength="279" x="77.4" y="279.5106">[there aren't any requests with the given specifications]</text><polygon fill="#181818" points="104.4,317.3133,95.4,320.9133,104.4,324.5133,100.8,320.9133" style="stroke:#181818;stroke-width:0.9;"/><line style="stroke:#181818;stroke-width:0.9;stroke-dasharray:2.0,2.0;" x1="99" x2="490.5" y1="320.9133" y2="320.9133"/><text fill="#000000" font-family="sans-serif" font-size="11.7" font-weight="bold" lengthAdjust="spacing" textLength="6.3" x="109.8" y="308.3959">6</text><text fill="#000000" font-family="sans-serif" font-size="11.7" lengthAdjust="spacing" textLength="229.5" x="119.7" y="300.6149">shows message saying that there aren't any</text><text fill="#000000" font-family="sans-serif" font-size="11.7" lengthAdjust="spacing" textLength="218.7" x="119.7" y="316.1769">requests that meet the given requirements</text><line style="stroke:#000000;stroke-width:0.9;stroke-dasharray:2.0,2.0;" x1="9" x2="711.9" y1="329.0133" y2="329.0133"/><text fill="#000000" font-family="sans-serif" font-size="9.9" font-weight="bold" lengthAdjust="spacing" textLength="53.1" x="13.5" y="339.6964">[there are]</text><polygon fill="#181818" points="104.4,360.443,95.4,364.043,104.4,367.643,100.8,364.043" style="stroke:#181818;stroke-width:0.9;"/><line style="stroke:#181818;stroke-width:0.9;stroke-dasharray:2.0,2.0;" x1="99" x2="490.5" y1="364.043" y2="364.043"/><text fill="#000000" font-family="sans-serif" font-size="11.7" font-weight="bold" lengthAdjust="spacing" textLength="6.3" x="109.8" y="359.3065">7</text><text fill="#000000" font-family="sans-serif" font-size="11.7" lengthAdjust="spacing" textLength="277.2" x="119.7" y="359.3065">shows all property requests done to the current agent</text><path d="M18,377.543 L83.7,377.543 L83.7,385.9049 L74.7,394.9049 L18,394.9049 L18,377.543 " fill="#EEEEEE" style="stroke:#000000;stroke-width:1.35;"/><rect fill="none" height="429.8906" style="stroke:#000000;stroke-width:1.35;" width="684.9" x="18" y="377.543"/><text fill="#000000" font-family="sans-serif" font-size="11.7" font-weight="bold" lengthAdjust="spacing" textLength="25.2" x="31.5" y="391.0685">loop</text><text fill="#000000" font-family="sans-serif" font-size="9.9" font-weight="bold" lengthAdjust="spacing" textLength="177.3" x="97.2" y="390.0261">[while there are property requests]</text><polygon fill="#181818" points="480.6,412.2668,489.6,415.8668,480.6,419.4668,484.2,415.8668" style="stroke:#181818;stroke-width:0.9;"/><line style="stroke:#181818;stroke-width:0.9;" x1="94.5" x2="486" y1="415.8668" y2="415.8668"/><text fill="#000000" font-family="sans-serif" font-size="11.7" font-weight="bold" lengthAdjust="spacing" textLength="6.3" x="100.8" y="411.1304">8</text><text fill="#000000" font-family="sans-serif" font-size="11.7" lengthAdjust="spacing" textLength="193.5" x="110.7" y="411.1304">selects a property to set commission</text><polygon fill="#181818" points="104.4,440.4287,95.4,444.0287,104.4,447.6287,100.8,444.0287" style="stroke:#181818;stroke-width:0.9;"/><line style="stroke:#181818;stroke-width:0.9;stroke-dasharray:2.0,2.0;" x1="99" x2="495" y1="444.0287" y2="444.0287"/><text fill="#000000" font-family="sans-serif" font-size="11.7" font-weight="bold" lengthAdjust="spacing" textLength="6.3" x="109.8" y="439.2923">9</text><text fill="#000000" font-family="sans-serif" font-size="11.7" lengthAdjust="spacing" textLength="323.1" x="119.7" y="439.2923">asks if there is an agreement on the current commission value</text><polygon fill="#181818" points="480.6,468.5906,489.6,472.1906,480.6,475.7906,484.2,472.1906" style="stroke:#181818;stroke-width:0.9;"/><line style="stroke:#181818;stroke-width:0.9;" x1="94.5" x2="486" y1="472.1906" y2="472.1906"/><text fill="#000000" font-family="sans-serif" font-size="11.7" font-weight="bold" lengthAdjust="spacing" textLength="12.6" x="100.8" y="467.4542">10</text><text fill="#000000" font-family="sans-serif" font-size="11.7" lengthAdjust="spacing" textLength="110.7" x="117" y="467.4542">answers the question</text><path d="M27,485.6906 L81.9,485.6906 L81.9,494.0525 L72.9,503.0525 L27,503.0525 L27,485.6906 " fill="#EEEEEE" style="stroke:#000000;stroke-width:1.35;"/><rect fill="none" height="73.6857" style="stroke:#000000;stroke-width:1.35;" width="506.7" x="27" y="485.6906"/><text fill="#000000" font-family="sans-serif" font-size="11.7" font-weight="bold" lengthAdjust="spacing" textLength="14.4" x="40.5" y="499.2161">alt</text><text fill="#000000" font-family="sans-serif" font-size="9.9" font-weight="bold" lengthAdjust="spacing" textLength="99.9" x="95.4" y="498.1737">[if the answer is no]</text><polygon fill="#181818" points="104.4,520.4145,95.4,524.0145,104.4,527.6145,100.8,524.0145" style="stroke:#181818;stroke-width:0.9;"/><line style="stroke:#181818;stroke-width:0.9;stroke-dasharray:2.0,2.0;" x1="99" x2="490.5" y1="524.0145" y2="524.0145"/><text fill="#000000" font-family="sans-serif" font-size="11.7" font-weight="bold" lengthAdjust="spacing" textLength="12.6" x="109.8" y="519.278">11</text><text fill="#000000" font-family="sans-serif" font-size="11.7" lengthAdjust="spacing" textLength="249.3" x="126" y="519.278">requests new commission value (% or flat value)</text><polygon fill="#181818" points="480.6,548.5764,489.6,552.1764,480.6,555.7764,484.2,552.1764" style="stroke:#181818;stroke-width:0.9;"/><line style="stroke:#181818;stroke-width:0.9;" x1="94.5" x2="486" y1="552.1764" y2="552.1764"/><text fill="#000000" font-family="sans-serif" font-size="11.7" font-weight="bold" lengthAdjust="spacing" textLength="12.6" x="100.8" y="547.4399">12</text><text fill="#000000" font-family="sans-serif" font-size="11.7" lengthAdjust="spacing" textLength="155.7" x="117" y="547.4399">inserts new commission value</text><polygon fill="#181818" points="104.4,583.0383,95.4,586.6383,104.4,590.2383,100.8,586.6383" style="stroke:#181818;stroke-width:0.9;"/><line style="stroke:#181818;stroke-width:0.9;stroke-dasharray:2.0,2.0;" x1="99" x2="495" y1="586.6383" y2="586.6383"/><text fill="#000000" font-family="sans-serif" font-size="11.7" font-weight="bold" lengthAdjust="spacing" textLength="12.6" x="109.8" y="581.9019">13</text><text fill="#000000" font-family="sans-serif" font-size="11.7" lengthAdjust="spacing" textLength="240.3" x="126" y="581.9019">asks if there is an agreement on the final price</text><polygon fill="#181818" points="480.6,611.2002,489.6,614.8002,480.6,618.4002,484.2,614.8002" style="stroke:#181818;stroke-width:0.9;"/><line style="stroke:#181818;stroke-width:0.9;" x1="94.5" x2="486" y1="614.8002" y2="614.8002"/><text fill="#000000" font-family="sans-serif" font-size="11.7" font-weight="bold" lengthAdjust="spacing" textLength="12.6" x="100.8" y="610.0638">14</text><text fill="#000000" font-family="sans-serif" font-size="11.7" lengthAdjust="spacing" textLength="110.7" x="117" y="610.0638">answers the question</text><path d="M27,628.3002 L81.9,628.3002 L81.9,636.6621 L72.9,645.6621 L27,645.6621 L27,628.3002 " fill="#EEEEEE" style="stroke:#000000;stroke-width:1.35;"/><rect fill="none" height="73.6857" style="stroke:#000000;stroke-width:1.35;" width="506.7" x="27" y="628.3002"/><text fill="#000000" font-family="sans-serif" font-size="11.7" font-weight="bold" lengthAdjust="spacing" textLength="14.4" x="40.5" y="641.8257">alt</text><text fill="#000000" font-family="sans-serif" font-size="9.9" font-weight="bold" lengthAdjust="spacing" textLength="99.9" x="95.4" y="640.7833">[if the answer is no]</text><polygon fill="#181818" points="104.4,663.024,95.4,666.624,104.4,670.224,100.8,666.624" style="stroke:#181818;stroke-width:0.9;"/><line style="stroke:#181818;stroke-width:0.9;stroke-dasharray:2.0,2.0;" x1="99" x2="490.5" y1="666.624" y2="666.624"/><text fill="#000000" font-family="sans-serif" font-size="11.7" font-weight="bold" lengthAdjust="spacing" textLength="12.6" x="109.8" y="661.8876">15</text><text fill="#000000" font-family="sans-serif" font-size="11.7" lengthAdjust="spacing" textLength="168.3" x="126" y="661.8876">requests new final property price</text><polygon fill="#181818" points="480.6,691.1859,489.6,694.7859,480.6,698.3859,484.2,694.7859" style="stroke:#181818;stroke-width:0.9;"/><line style="stroke:#181818;stroke-width:0.9;" x1="94.5" x2="486" y1="694.7859" y2="694.7859"/><text fill="#000000" font-family="sans-serif" font-size="11.7" font-weight="bold" lengthAdjust="spacing" textLength="12.6" x="100.8" y="690.0495">16</text><text fill="#000000" font-family="sans-serif" font-size="11.7" lengthAdjust="spacing" textLength="158.4" x="117" y="690.0495">inserts new final property price</text><line style="stroke:#181818;stroke-width:0.9;stroke-dasharray:2.0,2.0;" x1="500.4" x2="538.2" y1="760.3717" y2="760.3717"/><line style="stroke:#181818;stroke-width:0.9;stroke-dasharray:2.0,2.0;" x1="538.2" x2="538.2" y1="760.3717" y2="772.0717"/><line style="stroke:#181818;stroke-width:0.9;stroke-dasharray:2.0,2.0;" x1="501.3" x2="538.2" y1="772.0717" y2="772.0717"/><polygon fill="#181818" points="510.3,768.4717,501.3,772.0717,510.3,775.6717,506.7,772.0717" style="stroke:#181818;stroke-width:0.9;"/><text fill="#000000" font-family="sans-serif" font-size="11.7" font-weight="bold" lengthAdjust="spacing" textLength="12.6" x="506.7" y="740.0733">17</text><text fill="#000000" font-family="sans-serif" font-size="11.7" lengthAdjust="spacing" textLength="154.8" x="522.9" y="724.5114">registers announcement date,</text><text fill="#000000" font-family="sans-serif" font-size="11.7" lengthAdjust="spacing" textLength="169.2" x="522.9" y="740.0733">registers property on the system</text><text fill="#000000" font-family="sans-serif" font-size="11.7" lengthAdjust="spacing" textLength="135" x="522.9" y="755.6353">and deletes it from the list</text><polygon fill="#181818" points="104.4,796.6336,95.4,800.2336,104.4,803.8336,100.8,800.2336" style="stroke:#181818;stroke-width:0.9;"/><line style="stroke:#181818;stroke-width:0.9;stroke-dasharray:2.0,2.0;" x1="99" x2="490.5" y1="800.2336" y2="800.2336"/><text fill="#000000" font-family="sans-serif" font-size="11.7" font-weight="bold" lengthAdjust="spacing" textLength="12.6" x="109.8" y="795.4972">18</text><text fill="#000000" font-family="sans-serif" font-size="11.7" lengthAdjust="spacing" textLength="142.2" x="126" y="795.4972">displays operation success</text><!--SRC=[rLN1Rjim3BtxAuW2GreW1OeTUnWmeFk16RlrmigqBKIMF96kuRyVfSHEKgSDC6o7-c914X_VUwGatbdVOyGEkk23QMFe22GELF2oqgFPOKEbJ8uWaX7qZJlTm2rMORI-WHeTKr685TtwYob2AI5EyF3m5UwXd5YeWv9-3-GDmPF59iNVbkNJNL7W8C4FtGj57HkDWvkVX0v-iA0GV6_8omqWP-12KuirjaSlSFEuXywh-s5H5A2VujZN59rZqancTVzj9lEe8Ji62U0iYyfhz4UHAkXZw4bp49yZpVXfyW1ohtWPzu1cQv2MO4XJmRi9HcMPap0HR6gL5bNCPhiVCphQW0vUWhGPjwABwTRSFOyKEMTJKrbiy7_9TZeodOawz1Ll0PFLdVBLSHjK52Ukw1o451cqul-FCpf9EoC1gcKRqV19pSk13AELDWCrzfKyS4_6rjPWmjoNxR9kRiF8q16pDhRwFwNcbHRNkPxzaYolTqHoaZ4jsaZPdPoFz00SGQvII2uU6kr4LXKyfIAaF6Q8gLS0K_ilU2w47iRMkfDaQw1b-yL2C3azpChX69WBBs12rrdckJ3lYpZf7yrl5SihqKZP46seCmL7L7X5Dz0PzhfxFkJ-RXFDtqTegQSEHtIFavZxSBRdijwbGfx6bHwu_P8EHksqJVB4tGfnfSDwdNa7xooQVFKlQb5RZwdZhFdqzizI3gsxrdJLyAi87vY-0CulHlBRXq7VjUntfUAtwVAOLvSqXqfm1dZsUiUg-uv4hrKhKEiBdDVJStIbufNbtk6arx4YvpiFU316RxNYhOBqVtjBvoVn3m00]--></g></svg>