<?xml version="1.0" encoding="us-ascii" standalone="no"?><svg xmlns="http://www.w3.org/2000/svg" xmlns:xlink="http://www.w3.org/1999/xlink" contentStyleType="text/css" height="1039.5px" preserveAspectRatio="none" style="width:620px;height:1039px;background:#FFFFFF;" version="1.1" viewBox="0 0 620 1039" width="620.2px" zoomAndPan="magnify"><defs/><g><text fill="#000000" font-family="sans-serif" font-size="9.8" font-weight="bold" lengthAdjust="spacing" textLength="235.9" x="187.25" y="17.5752">US003 Register a New Employee - Class Diagram</text><!--class Employee--><g id="elem_Employee"><rect codeLine="6" fill="#F1F1F1" height="137.8781" id="Employee" rx="1.75" ry="1.75" style="stroke:#181818;stroke-width:0.3499999999999999;" width="82.6" x="233.1" y="897.1348"/><ellipse cx="251.16" cy="908.3348" fill="#ADD1B2" rx="7.7" ry="7.7" style="stroke:#181818;stroke-width:0.6999999999999998;"/><path d="M253.0959,905.4473 Q253.2053,905.2941 253.3366,905.2176 Q253.4678,905.141 253.6209,905.141 Q253.8834,905.141 254.0475,905.327 Q254.2116,905.502 254.2116,905.9285 L254.2116,906.9457 Q254.2116,907.3723 254.0475,907.5582 Q253.8834,907.7441 253.6209,907.7441 Q253.3803,907.7441 253.2381,907.602 Q253.0959,907.4707 253.0194,907.1098 Q252.9866,906.8582 252.8553,906.727 Q252.6256,906.4645 252.1991,906.3113 Q251.7725,906.1582 251.335,906.1582 Q250.7991,906.1582 250.3506,906.3879 Q249.9131,906.6176 249.5631,907.1426 Q249.2241,907.6676 249.2241,908.3895 L249.2241,909.1551 Q249.2241,910.0191 249.8475,910.5988 Q250.4709,911.1676 251.5866,911.1676 Q252.2428,911.1676 252.7022,910.9926 Q252.9756,910.8832 253.2709,910.577 Q253.4569,910.391 253.5553,910.3363 Q253.6647,910.2816 253.8069,910.2816 Q254.0366,910.2816 254.2116,910.4676 Q254.3975,910.6426 254.3975,910.8832 Q254.3975,911.1238 254.1569,911.4082 Q253.8069,911.8129 253.2491,912.0426 Q252.4944,912.3598 251.5866,912.3598 Q250.5256,912.3598 249.6834,911.9223 Q248.9944,911.5723 248.5131,910.8285 Q248.0319,910.0738 248.0319,909.177 L248.0319,908.3676 Q248.0319,907.4379 248.4584,906.6395 Q248.8959,905.8301 249.6616,905.4035 Q250.4272,904.966 251.2912,904.966 Q251.8053,904.966 252.2537,905.0863 Q252.7131,905.1957 253.0959,905.4473 Z " fill="#000000"/><text fill="#000000" font-family="sans-serif" font-size="9.8" lengthAdjust="spacing" textLength="43.4" x="262.64" y="912.3926">Employee</text><line style="stroke:#181818;stroke-width:0.3499999999999999;" x1="233.8" x2="315" y1="919.5348" y2="919.5348"/><text fill="#000000" font-family="sans-serif" font-size="9.8" lengthAdjust="spacing" textLength="49" x="237.3" y="932.91">-String role</text><text fill="#000000" font-family="sans-serif" font-size="9.8" lengthAdjust="spacing" textLength="60.9" x="237.3" y="945.9447">-int ccNumber</text><text fill="#000000" font-family="sans-serif" font-size="9.8" lengthAdjust="spacing" textLength="63.7" x="237.3" y="958.9795">-int taxNumber</text><text fill="#000000" font-family="sans-serif" font-size="9.8" lengthAdjust="spacing" textLength="67.9" x="237.3" y="972.0143">-String address</text><text fill="#000000" font-family="sans-serif" font-size="9.8" lengthAdjust="spacing" textLength="55.3" x="237.3" y="985.049">-String email</text><text fill="#000000" font-family="sans-serif" font-size="9.8" lengthAdjust="spacing" textLength="60.2" x="237.3" y="998.0838">-String phone</text><text fill="#000000" font-family="sans-serif" font-size="9.8" lengthAdjust="spacing" textLength="64.4" x="237.3" y="1011.1186">-String agency</text><text fill="#000000" font-family="sans-serif" font-size="9.8" lengthAdjust="spacing" textLength="74.2" x="237.3" y="1024.1533">-String password</text><line style="stroke:#181818;stroke-width:0.3499999999999999;" x1="233.8" x2="315" y1="1029.4129" y2="1029.4129"/></g><!--class SystemAdministrator--><g id="elem_SystemAdministrator"><rect codeLine="18" fill="#F1F1F1" height="137.8781" id="SystemAdministrator" rx="1.75" ry="1.75" style="stroke:#181818;stroke-width:0.3499999999999999;" width="112.7" x="479.85" y="32.6348"/><ellipse cx="490.35" cy="43.8348" fill="#ADD1B2" rx="7.7" ry="7.7" style="stroke:#181818;stroke-width:0.6999999999999998;"/><path d="M492.2859,40.9473 Q492.3953,40.7941 492.5266,40.7176 Q492.6578,40.641 492.8109,40.641 Q493.0734,40.641 493.2375,40.827 Q493.4016,41.002 493.4016,41.4285 L493.4016,42.4457 Q493.4016,42.8723 493.2375,43.0582 Q493.0734,43.2441 492.8109,43.2441 Q492.5703,43.2441 492.4281,43.102 Q492.2859,42.9707 492.2094,42.6098 Q492.1766,42.3582 492.0453,42.227 Q491.8156,41.9645 491.3891,41.8113 Q490.9625,41.6582 490.525,41.6582 Q489.9891,41.6582 489.5406,41.8879 Q489.1031,42.1176 488.7531,42.6426 Q488.4141,43.1676 488.4141,43.8895 L488.4141,44.6551 Q488.4141,45.5191 489.0375,46.0988 Q489.6609,46.6676 490.7766,46.6676 Q491.4328,46.6676 491.8922,46.4926 Q492.1656,46.3832 492.4609,46.077 Q492.6469,45.891 492.7453,45.8363 Q492.8547,45.7816 492.9969,45.7816 Q493.2266,45.7816 493.4016,45.9676 Q493.5875,46.1426 493.5875,46.3832 Q493.5875,46.6238 493.3469,46.9082 Q492.9969,47.3129 492.4391,47.5426 Q491.6844,47.8598 490.7766,47.8598 Q489.7156,47.8598 488.8734,47.4223 Q488.1844,47.0723 487.7031,46.3285 Q487.2219,45.5738 487.2219,44.677 L487.2219,43.8676 Q487.2219,42.9379 487.6484,42.1395 Q488.0859,41.3301 488.8516,40.9035 Q489.6172,40.466 490.4812,40.466 Q490.9953,40.466 491.4437,40.5863 Q491.9031,40.6957 492.2859,40.9473 Z " fill="#000000"/><text fill="#000000" font-family="sans-serif" font-size="9.8" lengthAdjust="spacing" textLength="90.3" x="500.15" y="47.8926">SystemAdministrator</text><line style="stroke:#181818;stroke-width:0.3499999999999999;" x1="480.55" x2="591.85" y1="55.0348" y2="55.0348"/><text fill="#000000" font-family="sans-serif" font-size="9.8" lengthAdjust="spacing" textLength="49" x="484.05" y="68.41">-String role</text><text fill="#000000" font-family="sans-serif" font-size="9.8" lengthAdjust="spacing" textLength="60.9" x="484.05" y="81.4447">-int ccNumber</text><text fill="#000000" font-family="sans-serif" font-size="9.8" lengthAdjust="spacing" textLength="63.7" x="484.05" y="94.4795">-int taxNumber</text><text fill="#000000" font-family="sans-serif" font-size="9.8" lengthAdjust="spacing" textLength="67.9" x="484.05" y="107.5143">-String address</text><text fill="#000000" font-family="sans-serif" font-size="9.8" lengthAdjust="spacing" textLength="55.3" x="484.05" y="120.549">-String email</text><text fill="#000000" font-family="sans-serif" font-size="9.8" lengthAdjust="spacing" textLength="60.2" x="484.05" y="133.5838">-String phone</text><text fill="#000000" font-family="sans-serif" font-size="9.8" lengthAdjust="spacing" textLength="64.4" x="484.05" y="146.6186">-String agency</text><text fill="#000000" font-family="sans-serif" font-size="9.8" lengthAdjust="spacing" textLength="74.2" x="484.05" y="159.6533">-String password</text><line style="stroke:#181818;stroke-width:0.3499999999999999;" x1="480.55" x2="591.85" y1="164.9129" y2="164.9129"/></g><!--class EmployeeRepository--><g id="elem_EmployeeRepository"><rect codeLine="30" fill="#F1F1F1" height="46.6348" id="EmployeeRepository" rx="1.75" ry="1.75" style="stroke:#181818;stroke-width:0.3499999999999999;" width="113.4" x="227.5" y="507.2348"/><ellipse cx="238" cy="518.4348" fill="#ADD1B2" rx="7.7" ry="7.7" style="stroke:#181818;stroke-width:0.6999999999999998;"/><path d="M239.9359,515.5473 Q240.0453,515.3941 240.1766,515.3176 Q240.3078,515.241 240.4609,515.241 Q240.7234,515.241 240.8875,515.427 Q241.0516,515.602 241.0516,516.0285 L241.0516,517.0457 Q241.0516,517.4723 240.8875,517.6582 Q240.7234,517.8441 240.4609,517.8441 Q240.2203,517.8441 240.0781,517.702 Q239.9359,517.5707 239.8594,517.2098 Q239.8266,516.9582 239.6953,516.827 Q239.4656,516.5645 239.0391,516.4113 Q238.6125,516.2582 238.175,516.2582 Q237.6391,516.2582 237.1906,516.4879 Q236.7531,516.7176 236.4031,517.2426 Q236.0641,517.7676 236.0641,518.4895 L236.0641,519.2551 Q236.0641,520.1191 236.6875,520.6988 Q237.3109,521.2676 238.4266,521.2676 Q239.0828,521.2676 239.5422,521.0926 Q239.8156,520.9832 240.1109,520.677 Q240.2969,520.491 240.3953,520.4363 Q240.5047,520.3816 240.6469,520.3816 Q240.8766,520.3816 241.0516,520.5676 Q241.2375,520.7426 241.2375,520.9832 Q241.2375,521.2238 240.9969,521.5082 Q240.6469,521.9129 240.0891,522.1426 Q239.3344,522.4598 238.4266,522.4598 Q237.3656,522.4598 236.5234,522.0223 Q235.8344,521.6723 235.3531,520.9285 Q234.8719,520.1738 234.8719,519.277 L234.8719,518.4676 Q234.8719,517.5379 235.2984,516.7395 Q235.7359,515.9301 236.5016,515.5035 Q237.2672,515.066 238.1312,515.066 Q238.6453,515.066 239.0937,515.1863 Q239.5531,515.2957 239.9359,515.5473 Z " fill="#000000"/><text fill="#000000" font-family="sans-serif" font-size="9.8" lengthAdjust="spacing" textLength="91" x="247.8" y="522.4926">EmployeeRepository</text><line style="stroke:#181818;stroke-width:0.3499999999999999;" x1="228.2" x2="340.2" y1="529.6348" y2="529.6348"/><line style="stroke:#181818;stroke-width:0.3499999999999999;" x1="228.2" x2="340.2" y1="535.2348" y2="535.2348"/><text fill="#000000" font-family="sans-serif" font-size="9.8" lengthAdjust="spacing" textLength="29.4" x="231.7" y="548.61">+add()</text></g><!--class AdminUI--><g id="elem_AdminUI"><rect codeLine="35" fill="#F1F1F1" height="46.6348" id="AdminUI" rx="1.75" ry="1.75" style="stroke:#181818;stroke-width:0.3499999999999999;" width="58.1" x="364.35" y="213.2348"/><ellipse cx="374.85" cy="224.4348" fill="#ADD1B2" rx="7.7" ry="7.7" style="stroke:#181818;stroke-width:0.6999999999999998;"/><path d="M376.7859,221.5473 Q376.8953,221.3941 377.0266,221.3176 Q377.1578,221.241 377.3109,221.241 Q377.5734,221.241 377.7375,221.427 Q377.9016,221.602 377.9016,222.0285 L377.9016,223.0457 Q377.9016,223.4723 377.7375,223.6582 Q377.5734,223.8441 377.3109,223.8441 Q377.0703,223.8441 376.9281,223.702 Q376.7859,223.5707 376.7094,223.2098 Q376.6766,222.9582 376.5453,222.827 Q376.3156,222.5645 375.8891,222.4113 Q375.4625,222.2582 375.025,222.2582 Q374.4891,222.2582 374.0406,222.4879 Q373.6031,222.7176 373.2531,223.2426 Q372.9141,223.7676 372.9141,224.4895 L372.9141,225.2551 Q372.9141,226.1191 373.5375,226.6988 Q374.1609,227.2676 375.2766,227.2676 Q375.9328,227.2676 376.3922,227.0926 Q376.6656,226.9832 376.9609,226.677 Q377.1469,226.491 377.2453,226.4363 Q377.3547,226.3816 377.4969,226.3816 Q377.7266,226.3816 377.9016,226.5676 Q378.0875,226.7426 378.0875,226.9832 Q378.0875,227.2238 377.8469,227.5082 Q377.4969,227.9129 376.9391,228.1426 Q376.1844,228.4598 375.2766,228.4598 Q374.2156,228.4598 373.3734,228.0223 Q372.6844,227.6723 372.2031,226.9285 Q371.7219,226.1738 371.7219,225.277 L371.7219,224.4676 Q371.7219,223.5379 372.1484,222.7395 Q372.5859,221.9301 373.3516,221.5035 Q374.1172,221.066 374.9812,221.066 Q375.4953,221.066 375.9437,221.1863 Q376.4031,221.2957 376.7859,221.5473 Z " fill="#000000"/><text fill="#000000" font-family="sans-serif" font-size="9.8" lengthAdjust="spacing" textLength="35.7" x="384.65" y="228.4926">AdminUI</text><line style="stroke:#181818;stroke-width:0.3499999999999999;" x1="365.05" x2="421.75" y1="235.6348" y2="235.6348"/><line style="stroke:#181818;stroke-width:0.3499999999999999;" x1="365.05" x2="421.75" y1="241.2348" y2="241.2348"/><text fill="#000000" font-family="sans-serif" font-size="9.8" lengthAdjust="spacing" textLength="27.3" x="368.55" y="254.61">+run()</text></g><!--class CreateEmployeeUI--><g id="elem_CreateEmployeeUI"><rect codeLine="40" fill="#F1F1F1" height="72.7043" id="CreateEmployeeUI" rx="1.75" ry="1.75" style="stroke:#181818;stroke-width:0.3499999999999999;" width="116.2" x="4.9" y="354.9848"/><ellipse cx="20.755" cy="366.1848" fill="#ADD1B2" rx="7.7" ry="7.7" style="stroke:#181818;stroke-width:0.6999999999999998;"/><path d="M22.6909,363.2973 Q22.8003,363.1441 22.9316,363.0676 Q23.0628,362.991 23.2159,362.991 Q23.4784,362.991 23.6425,363.177 Q23.8066,363.352 23.8066,363.7785 L23.8066,364.7957 Q23.8066,365.2223 23.6425,365.4082 Q23.4784,365.5941 23.2159,365.5941 Q22.9753,365.5941 22.8331,365.452 Q22.6909,365.3207 22.6144,364.9598 Q22.5816,364.7082 22.4503,364.577 Q22.2206,364.3145 21.7941,364.1613 Q21.3675,364.0082 20.93,364.0082 Q20.3941,364.0082 19.9456,364.2379 Q19.5081,364.4676 19.1581,364.9926 Q18.8191,365.5176 18.8191,366.2395 L18.8191,367.0051 Q18.8191,367.8691 19.4425,368.4488 Q20.0659,369.0176 21.1816,369.0176 Q21.8378,369.0176 22.2972,368.8426 Q22.5706,368.7332 22.8659,368.427 Q23.0519,368.241 23.1503,368.1863 Q23.2597,368.1316 23.4019,368.1316 Q23.6316,368.1316 23.8066,368.3176 Q23.9925,368.4926 23.9925,368.7332 Q23.9925,368.9738 23.7519,369.2582 Q23.4019,369.6629 22.8441,369.8926 Q22.0894,370.2098 21.1816,370.2098 Q20.1206,370.2098 19.2784,369.7723 Q18.5894,369.4223 18.1081,368.6785 Q17.6269,367.9238 17.6269,367.027 L17.6269,366.2176 Q17.6269,365.2879 18.0534,364.4895 Q18.4909,363.6801 19.2566,363.2535 Q20.0222,362.816 20.8862,362.816 Q21.4003,362.816 21.8487,362.9363 Q22.3081,363.0457 22.6909,363.2973 Z " fill="#000000"/><text fill="#000000" font-family="sans-serif" font-size="9.8" lengthAdjust="spacing" textLength="81.9" x="31.745" y="370.2426">CreateEmployeeUI</text><line style="stroke:#181818;stroke-width:0.3499999999999999;" x1="5.6" x2="120.4" y1="377.3848" y2="377.3848"/><line style="stroke:#181818;stroke-width:0.3499999999999999;" x1="5.6" x2="120.4" y1="382.9848" y2="382.9848"/><text fill="#000000" font-family="sans-serif" font-size="9.8" lengthAdjust="spacing" textLength="27.3" x="9.1" y="396.36">+run()</text><text fill="#000000" font-family="sans-serif" font-size="9.8" lengthAdjust="spacing" textLength="107.8" x="9.1" y="409.3947">+registerNewEmployee()</text><text fill="#000000" font-family="sans-serif" font-size="9.8" lengthAdjust="spacing" textLength="105" x="9.1" y="422.4295">+submitData(employee)</text></g><!--class CreateEmployeeController--><g id="elem_CreateEmployeeController"><rect codeLine="47" fill="#F1F1F1" height="176.9824" id="CreateEmployeeController" rx="1.75" ry="1.75" style="stroke:#181818;stroke-width:0.3499999999999999;" width="236.6" x="145.6" y="302.8348"/><ellipse cx="202.475" cy="314.0348" fill="#ADD1B2" rx="7.7" ry="7.7" style="stroke:#181818;stroke-width:0.6999999999999998;"/><path d="M204.4109,311.1473 Q204.5203,310.9941 204.6516,310.9176 Q204.7828,310.841 204.9359,310.841 Q205.1984,310.841 205.3625,311.027 Q205.5266,311.202 205.5266,311.6285 L205.5266,312.6457 Q205.5266,313.0723 205.3625,313.2582 Q205.1984,313.4441 204.9359,313.4441 Q204.6953,313.4441 204.5531,313.302 Q204.4109,313.1707 204.3344,312.8098 Q204.3016,312.5582 204.1703,312.427 Q203.9406,312.1645 203.5141,312.0113 Q203.0875,311.8582 202.65,311.8582 Q202.1141,311.8582 201.6656,312.0879 Q201.2281,312.3176 200.8781,312.8426 Q200.5391,313.3676 200.5391,314.0895 L200.5391,314.8551 Q200.5391,315.7191 201.1625,316.2988 Q201.7859,316.8676 202.9016,316.8676 Q203.5578,316.8676 204.0172,316.6926 Q204.2906,316.5832 204.5859,316.277 Q204.7719,316.091 204.8703,316.0363 Q204.9797,315.9816 205.1219,315.9816 Q205.3516,315.9816 205.5266,316.1676 Q205.7125,316.3426 205.7125,316.5832 Q205.7125,316.8238 205.4719,317.1082 Q205.1219,317.5129 204.5641,317.7426 Q203.8094,318.0598 202.9016,318.0598 Q201.8406,318.0598 200.9984,317.6223 Q200.3094,317.2723 199.8281,316.5285 Q199.3469,315.7738 199.3469,314.877 L199.3469,314.0676 Q199.3469,313.1379 199.7734,312.3395 Q200.2109,311.5301 200.9766,311.1035 Q201.7422,310.666 202.6062,310.666 Q203.1203,310.666 203.5687,310.7863 Q204.0281,310.8957 204.4109,311.1473 Z " fill="#000000"/><text fill="#000000" font-family="sans-serif" font-size="9.8" lengthAdjust="spacing" textLength="116.9" x="216.825" y="318.0926">CreateEmployeeController</text><line style="stroke:#181818;stroke-width:0.3499999999999999;" x1="146.3" x2="381.5" y1="325.2348" y2="325.2348"/><line style="stroke:#181818;stroke-width:0.3499999999999999;" x1="146.3" x2="381.5" y1="330.8348" y2="330.8348"/><text fill="#000000" font-family="sans-serif" font-size="9.8" lengthAdjust="spacing" textLength="67.2" x="149.8" y="344.21">+requestData()</text><text fill="#000000" font-family="sans-serif" font-size="9.8" lengthAdjust="spacing" textLength="50.4" x="149.8" y="357.2447">+getEmail()</text><text fill="#000000" font-family="sans-serif" font-size="9.8" lengthAdjust="spacing" textLength="157.5" x="149.8" y="370.2795">+requestAddress(email, name, role,</text><text fill="#000000" font-family="sans-serif" font-size="9.8" lengthAdjust="spacing" textLength="205.8" x="149.8" y="383.3143">phoneNumber, agency, ccNumber, taxNumber)</text><text fill="#000000" font-family="sans-serif" font-size="9.8" lengthAdjust="spacing" textLength="59.5" x="149.8" y="396.349">+choseRole()</text><text fill="#000000" font-family="sans-serif" font-size="9.8" lengthAdjust="spacing" textLength="72.1" x="149.8" y="409.3838">+choseAgency()</text><text fill="#000000" font-family="sans-serif" font-size="9.8" lengthAdjust="spacing" textLength="100.1" x="149.8" y="422.4186">+verifyData(employee)</text><text fill="#000000" font-family="sans-serif" font-size="9.8" lengthAdjust="spacing" textLength="228.2" x="149.8" y="435.4533">+verifyIfNewEmployee(ccNumber, taxNumber, email)</text><text fill="#000000" font-family="sans-serif" font-size="9.8" lengthAdjust="spacing" textLength="123.2" x="149.8" y="448.4881">+getOrganizationRepository</text><text fill="#000000" font-family="sans-serif" font-size="9.8" lengthAdjust="spacing" textLength="174.3" x="149.8" y="461.5229">+createEmployee(employee, password)</text><text fill="#000000" font-family="sans-serif" font-size="9.8" lengthAdjust="spacing" textLength="167.3" x="149.8" y="474.5576">+addAuthentication(copyOfEmployee)</text></g><!--class GenerateAndSavePassword--><g id="elem_GenerateAndSavePassword"><rect codeLine="61" fill="#F1F1F1" height="59.6695" id="GenerateAndSavePassword" rx="1.75" ry="1.75" style="stroke:#181818;stroke-width:0.3499999999999999;" width="147" x="11.9" y="649.3348"/><ellipse cx="22.4" cy="660.5348" fill="#ADD1B2" rx="7.7" ry="7.7" style="stroke:#181818;stroke-width:0.6999999999999998;"/><path d="M24.3359,657.6473 Q24.4453,657.4941 24.5766,657.4176 Q24.7078,657.341 24.8609,657.341 Q25.1234,657.341 25.2875,657.527 Q25.4516,657.702 25.4516,658.1285 L25.4516,659.1457 Q25.4516,659.5723 25.2875,659.7582 Q25.1234,659.9441 24.8609,659.9441 Q24.6203,659.9441 24.4781,659.802 Q24.3359,659.6707 24.2594,659.3098 Q24.2266,659.0582 24.0953,658.927 Q23.8656,658.6645 23.4391,658.5113 Q23.0125,658.3582 22.575,658.3582 Q22.0391,658.3582 21.5906,658.5879 Q21.1531,658.8176 20.8031,659.3426 Q20.4641,659.8676 20.4641,660.5895 L20.4641,661.3551 Q20.4641,662.2191 21.0875,662.7988 Q21.7109,663.3676 22.8266,663.3676 Q23.4828,663.3676 23.9422,663.1926 Q24.2156,663.0832 24.5109,662.777 Q24.6969,662.591 24.7953,662.5363 Q24.9047,662.4816 25.0469,662.4816 Q25.2766,662.4816 25.4516,662.6676 Q25.6375,662.8426 25.6375,663.0832 Q25.6375,663.3238 25.3969,663.6082 Q25.0469,664.0129 24.4891,664.2426 Q23.7344,664.5598 22.8266,664.5598 Q21.7656,664.5598 20.9234,664.1223 Q20.2344,663.7723 19.7531,663.0285 Q19.2719,662.2738 19.2719,661.377 L19.2719,660.5676 Q19.2719,659.6379 19.6984,658.8395 Q20.1359,658.0301 20.9016,657.6035 Q21.6672,657.166 22.5312,657.166 Q23.0453,657.166 23.4937,657.2863 Q23.9531,657.3957 24.3359,657.6473 Z " fill="#000000"/><text fill="#000000" font-family="sans-serif" font-size="9.8" lengthAdjust="spacing" textLength="124.6" x="32.2" y="664.5926">GenerateAndSavePassword</text><line style="stroke:#181818;stroke-width:0.3499999999999999;" x1="12.6" x2="158.2" y1="671.7348" y2="671.7348"/><line style="stroke:#181818;stroke-width:0.3499999999999999;" x1="12.6" x2="158.2" y1="677.3348" y2="677.3348"/><text fill="#000000" font-family="sans-serif" font-size="9.8" lengthAdjust="spacing" textLength="95.2" x="16.1" y="690.71">+generatePassword()</text><text fill="#000000" font-family="sans-serif" font-size="9.8" lengthAdjust="spacing" textLength="119.7" x="16.1" y="703.7447">+sendPassword(employee)</text></g><!--class OrganizationRepository--><g id="elem_OrganizationRepository"><rect codeLine="67" fill="#F1F1F1" height="46.6348" id="OrganizationRepository" rx="1.75" ry="1.75" style="stroke:#181818;stroke-width:0.3499999999999999;" width="138.6" x="311.5" y="581.4348"/><ellipse cx="327.67" cy="592.6348" fill="#ADD1B2" rx="7.7" ry="7.7" style="stroke:#181818;stroke-width:0.6999999999999998;"/><path d="M329.6059,589.7473 Q329.7153,589.5941 329.8466,589.5176 Q329.9778,589.441 330.1309,589.441 Q330.3934,589.441 330.5575,589.627 Q330.7216,589.802 330.7216,590.2285 L330.7216,591.2457 Q330.7216,591.6723 330.5575,591.8582 Q330.3934,592.0441 330.1309,592.0441 Q329.8903,592.0441 329.7481,591.902 Q329.6059,591.7707 329.5294,591.4098 Q329.4966,591.1582 329.3653,591.027 Q329.1356,590.7645 328.7091,590.6113 Q328.2825,590.4582 327.845,590.4582 Q327.3091,590.4582 326.8606,590.6879 Q326.4231,590.9176 326.0731,591.4426 Q325.7341,591.9676 325.7341,592.6895 L325.7341,593.4551 Q325.7341,594.3191 326.3575,594.8988 Q326.9809,595.4676 328.0966,595.4676 Q328.7528,595.4676 329.2122,595.2926 Q329.4856,595.1832 329.7809,594.877 Q329.9669,594.691 330.0653,594.6363 Q330.1747,594.5816 330.3169,594.5816 Q330.5466,594.5816 330.7216,594.7676 Q330.9075,594.9426 330.9075,595.1832 Q330.9075,595.4238 330.6669,595.7082 Q330.3169,596.1129 329.7591,596.3426 Q329.0044,596.6598 328.0966,596.6598 Q327.0356,596.6598 326.1934,596.2223 Q325.5044,595.8723 325.0231,595.1285 Q324.5419,594.3738 324.5419,593.477 L324.5419,592.6676 Q324.5419,591.7379 324.9684,590.9395 Q325.4059,590.1301 326.1716,589.7035 Q326.9372,589.266 327.8012,589.266 Q328.3153,589.266 328.7637,589.3863 Q329.2231,589.4957 329.6059,589.7473 Z " fill="#000000"/><text fill="#000000" font-family="sans-serif" font-size="9.8" lengthAdjust="spacing" textLength="103.6" x="338.73" y="596.6926">OrganizationRepository</text><line style="stroke:#181818;stroke-width:0.3499999999999999;" x1="312.2" x2="449.4" y1="603.8348" y2="603.8348"/><line style="stroke:#181818;stroke-width:0.3499999999999999;" x1="312.2" x2="449.4" y1="609.4348" y2="609.4348"/><text fill="#000000" font-family="sans-serif" font-size="9.8" lengthAdjust="spacing" textLength="130.2" x="315.7" y="622.81">+getOrganizationRepository()</text></g><!--class Organization--><g id="elem_Organization"><rect codeLine="72" fill="#F1F1F1" height="111.8086" id="Organization" rx="1.75" ry="1.75" style="stroke:#181818;stroke-width:0.3499999999999999;" width="88.2" x="317.8" y="729.8348"/><ellipse cx="332.71" cy="741.0348" fill="#ADD1B2" rx="7.7" ry="7.7" style="stroke:#181818;stroke-width:0.6999999999999998;"/><path d="M334.6459,738.1473 Q334.7553,737.9941 334.8866,737.9176 Q335.0178,737.841 335.1709,737.841 Q335.4334,737.841 335.5975,738.027 Q335.7616,738.202 335.7616,738.6285 L335.7616,739.6457 Q335.7616,740.0723 335.5975,740.2582 Q335.4334,740.4441 335.1709,740.4441 Q334.9303,740.4441 334.7881,740.302 Q334.6459,740.1707 334.5694,739.8098 Q334.5366,739.5582 334.4053,739.427 Q334.1756,739.1645 333.7491,739.0113 Q333.3225,738.8582 332.885,738.8582 Q332.3491,738.8582 331.9006,739.0879 Q331.4631,739.3176 331.1131,739.8426 Q330.7741,740.3676 330.7741,741.0895 L330.7741,741.8551 Q330.7741,742.7191 331.3975,743.2988 Q332.0209,743.8676 333.1366,743.8676 Q333.7928,743.8676 334.2522,743.6926 Q334.5256,743.5832 334.8209,743.277 Q335.0069,743.091 335.1053,743.0363 Q335.2147,742.9816 335.3569,742.9816 Q335.5866,742.9816 335.7616,743.1676 Q335.9475,743.3426 335.9475,743.5832 Q335.9475,743.8238 335.7069,744.1082 Q335.3569,744.5129 334.7991,744.7426 Q334.0444,745.0598 333.1366,745.0598 Q332.0756,745.0598 331.2334,744.6223 Q330.5444,744.2723 330.0631,743.5285 Q329.5819,742.7738 329.5819,741.877 L329.5819,741.0676 Q329.5819,740.1379 330.0084,739.3395 Q330.4459,738.5301 331.2116,738.1035 Q331.9772,737.666 332.8412,737.666 Q333.3553,737.666 333.8037,737.7863 Q334.2631,737.8957 334.6459,738.1473 Z " fill="#000000"/><text fill="#000000" font-family="sans-serif" font-size="9.8" lengthAdjust="spacing" textLength="56" x="343.49" y="745.0926">Organization</text><line style="stroke:#181818;stroke-width:0.3499999999999999;" x1="318.5" x2="405.3" y1="752.2348" y2="752.2348"/><text fill="#000000" font-family="sans-serif" font-size="9.8" lengthAdjust="spacing" textLength="56.7" x="322" y="765.61">-String name</text><text fill="#000000" font-family="sans-serif" font-size="9.8" lengthAdjust="spacing" textLength="79.8" x="322" y="778.6447">-String vatNumber</text><text fill="#000000" font-family="sans-serif" font-size="9.8" lengthAdjust="spacing" textLength="65.1" x="322" y="791.6795">-String website</text><text fill="#000000" font-family="sans-serif" font-size="9.8" lengthAdjust="spacing" textLength="60.2" x="322" y="804.7143">-String phone</text><text fill="#000000" font-family="sans-serif" font-size="9.8" lengthAdjust="spacing" textLength="55.3" x="322" y="817.749">-String email</text><line style="stroke:#181818;stroke-width:0.3499999999999999;" x1="318.5" x2="405.3" y1="823.0086" y2="823.0086"/><text fill="#000000" font-family="sans-serif" font-size="9.8" lengthAdjust="spacing" textLength="72.8" x="322" y="836.3838">+addEmployee()</text></g><!--class Repositories--><g id="elem_Repositories"><rect codeLine="82" fill="#F1F1F1" height="46.6348" id="Repositories" rx="1.75" ry="1.75" style="stroke:#181818;stroke-width:0.3499999999999999;" width="77.7" x="454.65" y="367.9348"/><ellipse cx="465.15" cy="379.1348" fill="#ADD1B2" rx="7.7" ry="7.7" style="stroke:#181818;stroke-width:0.6999999999999998;"/><path d="M467.0859,376.2473 Q467.1953,376.0941 467.3266,376.0176 Q467.4578,375.941 467.6109,375.941 Q467.8734,375.941 468.0375,376.127 Q468.2016,376.302 468.2016,376.7285 L468.2016,377.7457 Q468.2016,378.1723 468.0375,378.3582 Q467.8734,378.5441 467.6109,378.5441 Q467.3703,378.5441 467.2281,378.402 Q467.0859,378.2707 467.0094,377.9098 Q466.9766,377.6582 466.8453,377.527 Q466.6156,377.2645 466.1891,377.1113 Q465.7625,376.9582 465.325,376.9582 Q464.7891,376.9582 464.3406,377.1879 Q463.9031,377.4176 463.5531,377.9426 Q463.2141,378.4676 463.2141,379.1895 L463.2141,379.9551 Q463.2141,380.8191 463.8375,381.3988 Q464.4609,381.9676 465.5766,381.9676 Q466.2328,381.9676 466.6922,381.7926 Q466.9656,381.6832 467.2609,381.377 Q467.4469,381.191 467.5453,381.1363 Q467.6547,381.0816 467.7969,381.0816 Q468.0266,381.0816 468.2016,381.2676 Q468.3875,381.4426 468.3875,381.6832 Q468.3875,381.9238 468.1469,382.2082 Q467.7969,382.6129 467.2391,382.8426 Q466.4844,383.1598 465.5766,383.1598 Q464.5156,383.1598 463.6734,382.7223 Q462.9844,382.3723 462.5031,381.6285 Q462.0219,380.8738 462.0219,379.977 L462.0219,379.1676 Q462.0219,378.2379 462.4484,377.4395 Q462.8859,376.6301 463.6516,376.2035 Q464.4172,375.766 465.2812,375.766 Q465.7953,375.766 466.2437,375.8863 Q466.7031,375.9957 467.0859,376.2473 Z " fill="#000000"/><text fill="#000000" font-family="sans-serif" font-size="9.8" lengthAdjust="spacing" textLength="55.3" x="474.95" y="383.1926">Repositories</text><line style="stroke:#181818;stroke-width:0.3499999999999999;" x1="455.35" x2="531.65" y1="390.3348" y2="390.3348"/><line style="stroke:#181818;stroke-width:0.3499999999999999;" x1="455.35" x2="531.65" y1="395.9348" y2="395.9348"/><text fill="#000000" font-family="sans-serif" font-size="9.8" lengthAdjust="spacing" textLength="63.7" x="458.85" y="409.31">+getInstance()</text></g><!--class AuthenticationRepository--><g id="elem_AuthenticationRepository"><rect codeLine="87" fill="#F1F1F1" height="59.6695" id="AuthenticationRepository" rx="1.75" ry="1.75" style="stroke:#181818;stroke-width:0.3499999999999999;" width="140" x="84" y="500.9348"/><ellipse cx="97.65" cy="512.1348" fill="#ADD1B2" rx="7.7" ry="7.7" style="stroke:#181818;stroke-width:0.6999999999999998;"/><path d="M99.5859,509.2473 Q99.6953,509.0941 99.8266,509.0176 Q99.9578,508.941 100.1109,508.941 Q100.3734,508.941 100.5375,509.127 Q100.7016,509.302 100.7016,509.7285 L100.7016,510.7457 Q100.7016,511.1723 100.5375,511.3582 Q100.3734,511.5441 100.1109,511.5441 Q99.8703,511.5441 99.7281,511.402 Q99.5859,511.2707 99.5094,510.9098 Q99.4766,510.6582 99.3453,510.527 Q99.1156,510.2645 98.6891,510.1113 Q98.2625,509.9582 97.825,509.9582 Q97.2891,509.9582 96.8406,510.1879 Q96.4031,510.4176 96.0531,510.9426 Q95.7141,511.4676 95.7141,512.1895 L95.7141,512.9551 Q95.7141,513.8191 96.3375,514.3988 Q96.9609,514.9676 98.0766,514.9676 Q98.7328,514.9676 99.1922,514.7926 Q99.4656,514.6832 99.7609,514.377 Q99.9469,514.191 100.0453,514.1363 Q100.1547,514.0816 100.2969,514.0816 Q100.5266,514.0816 100.7016,514.2676 Q100.8875,514.4426 100.8875,514.6832 Q100.8875,514.9238 100.6469,515.2082 Q100.2969,515.6129 99.7391,515.8426 Q98.9844,516.1598 98.0766,516.1598 Q97.0156,516.1598 96.1734,515.7223 Q95.4844,515.3723 95.0031,514.6285 Q94.5219,513.8738 94.5219,512.977 L94.5219,512.1676 Q94.5219,511.2379 94.9484,510.4395 Q95.3859,509.6301 96.1516,509.2035 Q96.9172,508.766 97.7812,508.766 Q98.2953,508.766 98.7437,508.8863 Q99.2031,508.9957 99.5859,509.2473 Z " fill="#000000"/><text fill="#000000" font-family="sans-serif" font-size="9.8" lengthAdjust="spacing" textLength="110.6" x="108.15" y="516.1926">AuthenticationRepository</text><line style="stroke:#181818;stroke-width:0.3499999999999999;" x1="84.7" x2="223.3" y1="523.3348" y2="523.3348"/><line style="stroke:#181818;stroke-width:0.3499999999999999;" x1="84.7" x2="223.3" y1="528.9348" y2="528.9348"/><text fill="#000000" font-family="sans-serif" font-size="9.8" lengthAdjust="spacing" textLength="131.6" x="88.2" y="542.31">+addUserRole(id, description)</text><text fill="#000000" font-family="sans-serif" font-size="9.8" lengthAdjust="spacing" textLength="89.6" x="88.2" y="555.3447">+addUserWithRole()</text></g><!--link SystemAdministrator to AdminUI--><g id="link_SystemAdministrator_AdminUI"><path codeLine="93" d="M479.759,155.1278 C459.34,174.2518 437.206,194.9718 420.455,210.6518 " fill="none" id="SystemAdministrator-to-AdminUI" style="stroke:#181818;stroke-width:0.6999999999999998;"/><polygon fill="#181818" points="417.816,213.1228,424.3227,210.8439,420.3647,210.724,420.4846,206.766,417.816,213.1228" style="stroke:#181818;stroke-width:0.6999999999999998;"/></g><!--link AdminUI to CreateEmployeeUI--><g id="link_AdminUI_CreateEmployeeUI"><path codeLine="94" d="M364.35,238.7568 C313.698,242.3688 207.585,255.4728 133.7,302.8348 C114.457,315.1688 98.063,334.5238 85.918,351.9328 " fill="none" id="AdminUI-to-CreateEmployeeUI" style="stroke:#181818;stroke-width:0.6999999999999998;"/><polygon fill="#181818" points="83.853,354.9288,89.7379,351.3374,85.8426,352.0493,85.1308,348.154,83.853,354.9288" style="stroke:#181818;stroke-width:0.6999999999999998;"/></g><!--link CreateEmployeeUI to CreateEmployeeController--><g id="link_CreateEmployeeUI_CreateEmployeeController"><path codeLine="95" d="M121.268,391.3848 C128.149,391.3848 135.03,391.3848 141.904,391.3848 " fill="none" id="CreateEmployeeUI-to-CreateEmployeeController" style="stroke:#181818;stroke-width:0.6999999999999998;stroke-dasharray:7.0,7.0;"/><polygon fill="#181818" points="145.502,391.3848,139.202,388.5848,142.002,391.3848,139.202,394.1848,145.502,391.3848" style="stroke:#181818;stroke-width:0.6999999999999998;"/></g><!--link CreateEmployeeUI to GenerateAndSavePassword--><g id="link_CreateEmployeeUI_GenerateAndSavePassword"><path codeLine="96" d="M65.814,428.0578 C70.196,484.0788 78.589,591.3538 82.824,645.4568 " fill="none" id="CreateEmployeeUI-to-GenerateAndSavePassword" style="stroke:#181818;stroke-width:0.6999999999999998;"/><polygon fill="#181818" points="83.118,649.2578,85.4052,642.754,82.8381,645.769,79.8231,643.2019,83.118,649.2578" style="stroke:#181818;stroke-width:0.6999999999999998;"/></g><!--link GenerateAndSavePassword to Employee--><g id="link_GenerateAndSavePassword_Employee"><path codeLine="97" d="M89.285,709.0308 C94.885,743.1418 107.646,800.1568 134.4,841.8348 C159.082,880.2858 199.031,913.8508 229.943,936.2508 " fill="none" id="GenerateAndSavePassword-to-Employee" style="stroke:#181818;stroke-width:0.6999999999999998;"/><polygon fill="#181818" points="232.911,938.3858,229.4416,932.4282,230.0731,936.3373,226.164,936.9688,232.911,938.3858" style="stroke:#181818;stroke-width:0.6999999999999998;"/><text fill="#000000" font-family="sans-serif" font-size="9.1" lengthAdjust="spacing" textLength="65.8" x="135.1" y="789.7046">sends password</text><text fill="#000000" font-family="sans-serif" font-size="9.1" lengthAdjust="spacing" textLength="4.9" x="84.6047" y="724.3498">1</text><text fill="#000000" font-family="sans-serif" font-size="9.1" lengthAdjust="spacing" textLength="4.9" x="222.6559" y="932.2184">1</text></g><!--link SystemAdministrator to Employee--><g id="link_SystemAdministrator_Employee"><path codeLine="98" d="M560.259,170.8568 C565.649,191.5278 569.8,214.4458 569.8,235.9848 C569.8,235.9848 569.8,235.9848 569.8,786.5348 C569.8,903.8898 397.082,946.3448 315.784,959.8268 " fill="none" id="SystemAdministrator-Employee" style="stroke:#181818;stroke-width:0.6999999999999998;"/><polygon fill="#000000" points="572.2641,534.1298,576.1032,528.6908,572.173,527.473,572.2641,534.1298" style="stroke:#000000;stroke-width:0.6999999999999998;"/><text fill="#000000" font-family="sans-serif" font-size="9.1" lengthAdjust="spacing" textLength="35" x="579.6" y="534.5546">registers</text><text fill="#000000" font-family="sans-serif" font-size="9.1" lengthAdjust="spacing" textLength="4.9" x="556.8784" y="185.9736">1</text><text fill="#000000" font-family="sans-serif" font-size="9.1" lengthAdjust="spacing" textLength="3.5" x="321.3105" y="956.1969">*</text></g><!--link CreateEmployeeController to Repositories--><g id="link_CreateEmployeeController_Repositories"><path codeLine="99" d="M382.396,391.3848 C406.966,391.3848 431.305,391.3848 450.919,391.3848 " fill="none" id="CreateEmployeeController-to-Repositories" style="stroke:#181818;stroke-width:0.6999999999999998;stroke-dasharray:7.0,7.0;"/><polygon fill="#181818" points="454.524,391.3848,448.224,388.5848,451.024,391.3848,448.224,394.1848,454.524,391.3848" style="stroke:#181818;stroke-width:0.6999999999999998;"/><text fill="#000000" font-family="sans-serif" font-size="9.1" lengthAdjust="spacing" textLength="46.9" x="394.975" y="386.5046">repositories</text></g><!--link Repositories to OrganizationRepository--><g id="link_Repositories_OrganizationRepository"><path codeLine="100" d="M496.818,414.9608 C500.584,449.8348 502.628,516.8248 471.1,560.4348 C465.696,567.9108 458.661,574.1688 450.898,579.3908 " fill="none" id="Repositories-to-OrganizationRepository" style="stroke:#181818;stroke-width:0.6999999999999998;"/><polygon fill="#181818" points="447.776,581.4138,454.5844,580.3296,450.711,579.507,451.5336,575.6336,447.776,581.4138" style="stroke:#181818;stroke-width:0.6999999999999998;"/></g><!--link CreateEmployeeController to OrganizationRepository--><g id="link_CreateEmployeeController_OrganizationRepository"><path codeLine="101" d="M331.604,480.1238 C335.923,487.0258 340.011,494.0048 343.7,500.9348 C350.91,514.4938 363.762,551.9438 372.281,577.8018 " fill="none" id="CreateEmployeeController-to-OrganizationRepository" style="stroke:#181818;stroke-width:0.6999999999999998;stroke-dasharray:7.0,7.0;"/><polygon fill="#181818" points="373.401,581.2108,374.0961,574.3517,372.3092,577.8854,368.7755,576.0985,373.401,581.2108" style="stroke:#181818;stroke-width:0.6999999999999998;"/><text fill="#000000" font-family="sans-serif" font-size="9.1" lengthAdjust="spacing" textLength="97.3" x="366.1" y="534.5546">Organization Repository</text></g><!--link OrganizationRepository to Organization--><g id="link_OrganizationRepository_Organization"><path codeLine="102" d="M378.385,628.5098 C375.809,652.9958 371.616,692.8048 368.109,726.1598 " fill="none" id="OrganizationRepository-to-Organization" style="stroke:#181818;stroke-width:0.6999999999999998;"/><polygon fill="#181818" points="367.724,729.7788,371.1744,723.8101,368.094,726.2984,365.6058,723.218,367.724,729.7788" style="stroke:#181818;stroke-width:0.6999999999999998;"/><text fill="#000000" font-family="sans-serif" font-size="9.1" lengthAdjust="spacing" textLength="51.1" x="375.9" y="682.9546">Organization</text></g><!--link CreateEmployeeController to EmployeeRepository--><g id="link_CreateEmployeeController_EmployeeRepository"><path codeLine="103" d="M276.843,480.0048 C278.089,488.4818 279.279,496.5458 280.322,503.6228 " fill="none" id="CreateEmployeeController-to-EmployeeRepository" style="stroke:#181818;stroke-width:0.6999999999999998;stroke-dasharray:7.0,7.0;"/><polygon fill="#181818" points="280.854,507.2348,282.7054,500.5938,280.3436,503.7722,277.1652,501.4104,280.854,507.2348" style="stroke:#181818;stroke-width:0.6999999999999998;"/><text fill="#000000" font-family="sans-serif" font-size="9.1" lengthAdjust="spacing" textLength="86.8" x="191.324" y="490.6646">Employee Repository</text></g><!--link EmployeeRepository to Employee--><g id="link_EmployeeRepository_Employee"><path codeLine="104" d="M283.682,554.4148 C282.261,617.1908 278.285,793.3248 276.024,893.4458 " fill="none" id="EmployeeRepository-to-Employee" style="stroke:#181818;stroke-width:0.6999999999999998;"/><polygon fill="#181818" points="275.947,896.9808,278.8902,890.7464,276.027,893.4817,273.2917,890.6184,275.947,896.9808" style="stroke:#181818;stroke-width:0.6999999999999998;"/><text fill="#000000" font-family="sans-serif" font-size="9.1" lengthAdjust="spacing" textLength="40.6" x="282.1" y="682.9546">Employee</text></g><!--link Organization to Employee--><g id="link_Organization_Employee"><path codeLine="105" d="M334.817,841.8978 C326.781,858.3198 317.87,876.5338 309.407,893.8308 " fill="none" id="Organization-to-Employee" style="stroke:#181818;stroke-width:0.6999999999999998;"/><polygon fill="#181818" points="307.832,897.0438,313.1201,892.6204,309.3732,893.9014,308.0922,890.1545,307.832,897.0438" style="stroke:#181818;stroke-width:0.6999999999999998;"/><text fill="#000000" font-family="sans-serif" font-size="9.1" lengthAdjust="spacing" textLength="40.6" x="323.4" y="873.3546">Employee</text></g><!--link CreateEmployeeController to AuthenticationRepository--><g id="link_CreateEmployeeController_AuthenticationRepository"><path codeLine="106" d="M193.83,480.0048 C188.755,486.3748 183.862,492.5138 179.354,498.1698 " fill="none" id="CreateEmployeeController-to-AuthenticationRepository" style="stroke:#181818;stroke-width:0.6999999999999998;stroke-dasharray:7.0,7.0;"/><polygon fill="#181818" points="177.17,500.9138,183.2892,497.738,179.354,498.1788,178.9132,494.2436,177.17,500.9138" style="stroke:#181818;stroke-width:0.6999999999999998;"/><text fill="#000000" font-family="sans-serif" font-size="9.1" lengthAdjust="spacing" textLength="101.5" x="83.272" y="487.7106">AuthenticationRepository</text></g><!--link AuthenticationRepository to Employee--><g id="link_AuthenticationRepository_Employee"><path codeLine="107" d="M162.085,560.5328 C180.803,628.0128 227.57,796.5798 254.485,893.5928 " fill="none" id="AuthenticationRepository-to-Employee" style="stroke:#181818;stroke-width:0.6999999999999998;"/><polygon fill="#181818" points="255.43,897.0158,256.4344,890.1951,254.4896,893.6445,251.0403,891.6997,255.43,897.0158" style="stroke:#181818;stroke-width:0.6999999999999998;"/><text fill="#000000" font-family="sans-serif" font-size="9.1" lengthAdjust="spacing" textLength="18.9" x="203" y="682.9546">User</text></g><!--SRC=[pLHDRzim3BthLmWvEQipPDYjXm966Wovj4E2O9S1WI8pZb1RyYGvcLlilq-MRVaZLiuzsHB9nyT7KkgDyPn8ak6Sq3UIm4wNAM09L1EUf82KSr1d4eihuma-aLJrBJGbIaLQItOiD6oeu3ls3dY9DDC6RBzRBh_ZBIHCQP2Ou1UuudMMfw84m0kygiBnCoE90KF8edNs3xJ0EmDjyafX22qmunfJ-b9aHv3DKPE_xjmuapYMe5Ht0HbXQNVCpu93ppq1JikUsP2u2XcZm-60_hMiTgKf8OlYZ75JZ2HQoCz5i9Lj2xbGpD0hFwp3WyaMp3i_My9-WnkhB7ZVkf90DBHOOxS7sRJIzB7rgQvLSSoOVYQQ1D1SUp5NWckZLWhIOSEV0bGTRi0IqEjAZpgVDKMrO87LASISP11QoKFycrkrQed3HglGDI7iz3Tmz2mKR4rSq1uYwryTBo3PgHpLqDnkJls29x33keKr-rUP4CxUYMQ2Tzqm2GSwk2oXQ-ZSDYigz1cuPjG215JavUjfVIlh3-1WvX0Y7k_81Nus8AsgIMDkxssVWCVkFD6fQUOTegUqm0FHsu-gPTtfGlHu9wvmD63WNO9wHTg1xWsVo-puC50TumrNvZsZ0y-XmbCBirSWxPomECGnA2fPNldEdVKNq-TcaWpkrEkmM3orouRQfQlknYk6RdRkwvDtPswT3Q9d4f1lGcRVPfP9zNMlxIEkfaDrhyjKJNKaddqP1BQlWi9FoBlifgX-XsnOTqG3MqNEiqNty3tZ-pWmu1wO9s2SVeHmbyFjCsoYdLQzt1EELTwUhEtlWARNwHufty2RU9y9UMD61Afb-0y0]--></g></svg>