<?xml version="1.0" encoding="us-ascii" standalone="no"?><svg xmlns="http://www.w3.org/2000/svg" xmlns:xlink="http://www.w3.org/1999/xlink" contentStyleType="text/css" height="426px" preserveAspectRatio="none" style="width:860px;height:426px;background:#FFFFFF;" version="1.1" viewBox="0 0 860 426" width="860px" zoomAndPan="magnify"><defs/><g><text fill="#000000" font-family="sans-serif" font-size="14" font-weight="bold" lengthAdjust="spacing" textLength="279" x="289.75" y="30.1074">User Story 003 - Sequence Diagram (SD)</text><rect fill="#FFFFFF" height="201.0762" style="stroke:#181818;stroke-width:1.0;" width="10" x="69.5" y="133.2422"/><rect fill="#FFFFFF" height="31.291" style="stroke:#181818;stroke-width:1.0;" width="10" x="324.5" y="156.5332"/><rect fill="#FFFFFF" height="146.4941" style="stroke:#181818;stroke-width:1.0;" width="10" x="579.5" y="187.8242"/><rect fill="#FFFFFF" height="31.291" style="stroke:#181818;stroke-width:1.0;" width="10" x="757" y="262.7363"/><line style="stroke:#181818;stroke-width:0.5;stroke-dasharray:5.0,5.0;" x1="74" x2="74" y1="123.2422" y2="343.3184"/><line style="stroke:#181818;stroke-width:0.5;stroke-dasharray:5.0,5.0;" x1="329" x2="329" y1="123.2422" y2="343.3184"/><line style="stroke:#181818;stroke-width:0.5;stroke-dasharray:5.0,5.0;" x1="584" x2="584" y1="123.2422" y2="343.3184"/><line style="stroke:#181818;stroke-width:0.5;stroke-dasharray:5.0,5.0;" x1="761.5" x2="761.5" y1="227.6348" y2="343.3184"/><text fill="#000000" font-family="sans-serif" font-size="14" lengthAdjust="spacing" textLength="133" x="5" y="119.7285">System Administrator</text><ellipse cx="74.5" cy="53.1211" fill="#E3E3E3" rx="8" ry="8" style="stroke:#181818;stroke-width:0.5;"/><path d="M74.5,61.1211 L74.5,88.1211 M61.5,69.1211 L87.5,69.1211 M74.5,88.1211 L61.5,103.1211 M74.5,88.1211 L87.5,103.1211 " fill="none" style="stroke:#181818;stroke-width:0.5;"/><text fill="#000000" font-family="sans-serif" font-size="14" lengthAdjust="spacing" textLength="133" x="5" y="357.4258">System Administrator</text><ellipse cx="74.5" cy="369.4395" fill="#E3E3E3" rx="8" ry="8" style="stroke:#181818;stroke-width:0.5;"/><path d="M74.5,377.4395 L74.5,404.4395 M61.5,385.4395 L87.5,385.4395 M74.5,404.4395 L61.5,419.4395 M74.5,404.4395 L87.5,419.4395 " fill="none" style="stroke:#181818;stroke-width:0.5;"/><rect fill="#E3E3E3" height="32.6211" rx="2.5" ry="2.5" style="stroke:#181818;stroke-width:0.5;" width="69" x="295" y="89.6211"/><text fill="#000000" font-family="sans-serif" font-size="14" lengthAdjust="spacing" textLength="55" x="302" y="111.7285">:AdminUI</text><rect fill="#E3E3E3" height="32.6211" rx="2.5" ry="2.5" style="stroke:#181818;stroke-width:0.5;" width="69" x="295" y="342.3184"/><text fill="#000000" font-family="sans-serif" font-size="14" lengthAdjust="spacing" textLength="55" x="302" y="364.4258">:AdminUI</text><rect fill="#E3E3E3" height="32.6211" rx="2.5" ry="2.5" style="stroke:#181818;stroke-width:0.5;" width="135" x="517" y="89.6211"/><text fill="#000000" font-family="sans-serif" font-size="14" lengthAdjust="spacing" textLength="121" x="524" y="111.7285">:CreateEmployeeUI</text><rect fill="#E3E3E3" height="32.6211" rx="2.5" ry="2.5" style="stroke:#181818;stroke-width:0.5;" width="135" x="517" y="342.3184"/><text fill="#000000" font-family="sans-serif" font-size="14" lengthAdjust="spacing" textLength="121" x="524" y="364.4258">:CreateEmployeeUI</text><rect fill="#E3E3E3" height="32.6211" rx="2.5" ry="2.5" style="stroke:#181818;stroke-width:0.5;" width="185" x="669.5" y="342.3184"/><text fill="#000000" font-family="sans-serif" font-size="14" lengthAdjust="spacing" textLength="171" x="676.5" y="364.4258">:CreateEmployeeController</text><rect fill="#FFFFFF" height="201.0762" style="stroke:#181818;stroke-width:1.0;" width="10" x="69.5" y="133.2422"/><rect fill="#FFFFFF" height="31.291" style="stroke:#181818;stroke-width:1.0;" width="10" x="324.5" y="156.5332"/><rect fill="#FFFFFF" height="146.4941" style="stroke:#181818;stroke-width:1.0;" width="10" x="579.5" y="187.8242"/><rect fill="#FFFFFF" height="31.291" style="stroke:#181818;stroke-width:1.0;" width="10" x="757" y="262.7363"/><polygon fill="#181818" points="312.5,152.5332,322.5,156.5332,312.5,160.5332,316.5,156.5332" style="stroke:#181818;stroke-width:1.0;"/><line style="stroke:#181818;stroke-width:1.0;" x1="79.5" x2="318.5" y1="156.5332" y2="156.5332"/><text fill="#000000" font-family="sans-serif" font-size="13" font-weight="bold" lengthAdjust="spacing" textLength="7" x="86.5" y="151.2705">1</text><text fill="#000000" font-family="sans-serif" font-size="13" lengthAdjust="spacing" textLength="215" x="97.5" y="151.2705">Requests to register a new employee</text><polygon fill="#181818" points="567.5,183.8242,577.5,187.8242,567.5,191.8242,571.5,187.8242" style="stroke:#181818;stroke-width:1.0;"/><line style="stroke:#181818;stroke-width:1.0;" x1="329.5" x2="573.5" y1="187.8242" y2="187.8242"/><text fill="#000000" font-family="sans-serif" font-size="13" font-weight="bold" lengthAdjust="spacing" textLength="7" x="336.5" y="182.5615">2</text><text fill="#000000" font-family="sans-serif" font-size="13" lengthAdjust="spacing" textLength="215" x="347.5" y="182.5615">Requests to register a new employee</text><polygon fill="#181818" points="657.5,215.1152,667.5,219.1152,657.5,223.1152,661.5,219.1152" style="stroke:#181818;stroke-width:1.0;"/><line style="stroke:#181818;stroke-width:1.0;" x1="589.5" x2="663.5" y1="219.1152" y2="219.1152"/><text fill="#000000" font-family="sans-serif" font-size="13" font-weight="bold" lengthAdjust="spacing" textLength="7" x="596.5" y="213.8525">3</text><text fill="#000000" font-family="sans-serif" font-size="13" lengthAdjust="spacing" textLength="45" x="607.5" y="213.8525">Creates</text><rect fill="#E3E3E3" height="32.6211" rx="2.5" ry="2.5" style="stroke:#181818;stroke-width:0.5;" width="185" x="669.5" y="195.8242"/><text fill="#000000" font-family="sans-serif" font-size="14" lengthAdjust="spacing" textLength="171" x="676.5" y="217.9316">:CreateEmployeeController</text><polygon fill="#181818" points="745,258.7363,755,262.7363,745,266.7363,749,262.7363" style="stroke:#181818;stroke-width:1.0;"/><line style="stroke:#181818;stroke-width:1.0;" x1="589.5" x2="751" y1="262.7363" y2="262.7363"/><text fill="#000000" font-family="sans-serif" font-size="13" font-weight="bold" lengthAdjust="spacing" textLength="7" x="596.5" y="257.4736">4</text><text fill="#000000" font-family="sans-serif" font-size="13" lengthAdjust="spacing" textLength="134" x="607.5" y="257.4736">registerNewEmployee()</text><polygon fill="#181818" points="600.5,290.0273,590.5,294.0273,600.5,298.0273,596.5,294.0273" style="stroke:#181818;stroke-width:1.0;"/><line style="stroke:#181818;stroke-width:1.0;stroke-dasharray:2.0,2.0;" x1="594.5" x2="761" y1="294.0273" y2="294.0273"/><text fill="#000000" font-family="sans-serif" font-size="13" font-weight="bold" lengthAdjust="spacing" textLength="7" x="606.5" y="288.7646">5</text><text fill="#000000" font-family="sans-serif" font-size="13" lengthAdjust="spacing" textLength="79" x="617.5" y="288.7646">requests data</text><polygon fill="#181818" points="90.5,321.3184,80.5,325.3184,90.5,329.3184,86.5,325.3184" style="stroke:#181818;stroke-width:1.0;"/><line style="stroke:#181818;stroke-width:1.0;stroke-dasharray:2.0,2.0;" x1="84.5" x2="578.5" y1="325.3184" y2="325.3184"/><text fill="#000000" font-family="sans-serif" font-size="13" font-weight="bold" lengthAdjust="spacing" textLength="7" x="96.5" y="320.0557">6</text><text fill="#000000" font-family="sans-serif" font-size="13" lengthAdjust="spacing" textLength="79" x="107.5" y="320.0557">requests data</text><!--SRC=[ZL0zRy8m4DtzAqwP00a9gHj39HGw8BKC2Vo0Qt8D5h6TsfUY_FjUOe92bdQnRBztx-F2LTi6FHemphhYufqXOD-I2W-amUAA5UNSrGIU2aPRrLD2k63fRjfMy8Lr8ALOir3FWJpax7m7cyqBh26dxvPiGR3NMFM3Yto_L0fRThOrd-JbNWWVahmBJ0PsfT5M1_OelmbWWDt-Guafwq8tQ1cIxS0v7qRqV9ZXgITaUZDDxJgYEp7DJdyGKsVPkxgcw9iUJzdx44__26l8eUI0zMjqXIraVRt00TZ9cYh9BVqHBDs0xghF2X91nM5H6IBzLwMakSxZ7QkfADVhzibNAr6E1SCS4sJqET9jxBzOJZLZ-qXVJyBwCMo9Z4-nnf5e5RSq7_W5]--></g></svg>