<?xml version="1.0" encoding="us-ascii" standalone="no"?><svg xmlns="http://www.w3.org/2000/svg" xmlns:xlink="http://www.w3.org/1999/xlink" contentStyleType="text/css" height="998px" preserveAspectRatio="none" style="width:1530px;height:998px;background:#FFFFFF;" version="1.1" viewBox="0 0 1530 998" width="1530px" zoomAndPan="magnify"><defs/><g><text fill="#000000" font-family="sans-serif" font-size="14" font-weight="bold" lengthAdjust="spacing" textLength="279" x="627.25" y="30.1074">User Story 003 - Sequence Diagram (SD)</text><rect fill="#FFFFFF" height="635.4414" style="stroke:#181818;stroke-width:1.0;" width="10" x="84.5" y="133.2422"/><rect fill="#FFFFFF" height="31.291" style="stroke:#181818;stroke-width:1.0;" width="10" x="339.5" y="156.5332"/><rect fill="#FFFFFF" height="580.8594" style="stroke:#181818;stroke-width:1.0;" width="10" x="594.5" y="187.8242"/><rect fill="#FFFFFF" height="31.291" style="stroke:#181818;stroke-width:1.0;" width="10" x="908.5" y="262.7363"/><rect fill="#FFFFFF" height="31.291" style="stroke:#181818;stroke-width:1.0;" width="10" x="908.5" y="511.3555"/><rect fill="#FFFFFF" height="31.291" style="stroke:#181818;stroke-width:1.0;" width="10" x="908.5" y="573.9375"/><rect fill="#FFFFFF" height="231.3281" style="stroke:#181818;stroke-width:1.0;" width="10" x="908.5" y="674.8105"/><rect fill="#FFFFFF" height="132.1641" style="stroke:#181818;stroke-width:1.0;" width="10" x="1260.5" y="542.6465"/><rect fill="none" height="304.2012" style="stroke:#000000;stroke-width:1.5;" width="1339.5" x="10" y="340.3184"/><line style="stroke:#181818;stroke-width:0.5;stroke-dasharray:5.0,5.0;" x1="89" x2="89" y1="123.2422" y2="915.1387"/><line style="stroke:#181818;stroke-width:0.5;stroke-dasharray:5.0,5.0;" x1="344" x2="344" y1="123.2422" y2="915.1387"/><line style="stroke:#181818;stroke-width:0.5;stroke-dasharray:5.0,5.0;" x1="599" x2="599" y1="123.2422" y2="915.1387"/><line style="stroke:#181818;stroke-width:0.5;stroke-dasharray:5.0,5.0;" x1="913" x2="913" y1="227.6348" y2="915.1387"/><line style="stroke:#181818;stroke-width:0.5;stroke-dasharray:5.0,5.0;" x1="1265.5" x2="1265.5" y1="123.2422" y2="915.1387"/><line style="stroke:#181818;stroke-width:0.5;stroke-dasharray:5.0,5.0;" x1="1398.5" x2="1398.5" y1="123.2422" y2="915.1387"/><line style="stroke:#181818;stroke-width:0.5;stroke-dasharray:5.0,5.0;" x1="1493.5" x2="1493.5" y1="123.2422" y2="915.1387"/><text fill="#000000" font-family="sans-serif" font-size="14" lengthAdjust="spacing" textLength="133" x="20" y="119.7285">System Administrator</text><ellipse cx="89.5" cy="53.1211" fill="#E3E3E3" rx="8" ry="8" style="stroke:#181818;stroke-width:0.5;"/><path d="M89.5,61.1211 L89.5,88.1211 M76.5,69.1211 L102.5,69.1211 M89.5,88.1211 L76.5,103.1211 M89.5,88.1211 L102.5,103.1211 " fill="none" style="stroke:#181818;stroke-width:0.5;"/><text fill="#000000" font-family="sans-serif" font-size="14" lengthAdjust="spacing" textLength="133" x="20" y="929.2461">System Administrator</text><ellipse cx="89.5" cy="941.2598" fill="#E3E3E3" rx="8" ry="8" style="stroke:#181818;stroke-width:0.5;"/><path d="M89.5,949.2598 L89.5,976.2598 M76.5,957.2598 L102.5,957.2598 M89.5,976.2598 L76.5,991.2598 M89.5,976.2598 L102.5,991.2598 " fill="none" style="stroke:#181818;stroke-width:0.5;"/><rect fill="#E3E3E3" height="32.6211" rx="2.5" ry="2.5" style="stroke:#181818;stroke-width:0.5;" width="69" x="310" y="89.6211"/><text fill="#000000" font-family="sans-serif" font-size="14" lengthAdjust="spacing" textLength="55" x="317" y="111.7285">:AdminUI</text><rect fill="#E3E3E3" height="32.6211" rx="2.5" ry="2.5" style="stroke:#181818;stroke-width:0.5;" width="69" x="310" y="914.1387"/><text fill="#000000" font-family="sans-serif" font-size="14" lengthAdjust="spacing" textLength="55" x="317" y="936.2461">:AdminUI</text><rect fill="#E3E3E3" height="32.6211" rx="2.5" ry="2.5" style="stroke:#181818;stroke-width:0.5;" width="135" x="532" y="89.6211"/><text fill="#000000" font-family="sans-serif" font-size="14" lengthAdjust="spacing" textLength="121" x="539" y="111.7285">:CreateEmployeeUI</text><rect fill="#E3E3E3" height="32.6211" rx="2.5" ry="2.5" style="stroke:#181818;stroke-width:0.5;" width="135" x="532" y="914.1387"/><text fill="#000000" font-family="sans-serif" font-size="14" lengthAdjust="spacing" textLength="121" x="539" y="936.2461">:CreateEmployeeUI</text><rect fill="#E3E3E3" height="32.6211" rx="2.5" ry="2.5" style="stroke:#181818;stroke-width:0.5;" width="185" x="821" y="914.1387"/><text fill="#000000" font-family="sans-serif" font-size="14" lengthAdjust="spacing" textLength="171" x="828" y="936.2461">:CreateEmployeeController</text><rect fill="#E3E3E3" height="32.6211" rx="2.5" ry="2.5" style="stroke:#181818;stroke-width:0.5;" width="148" x="1191.5" y="89.6211"/><text fill="#000000" font-family="sans-serif" font-size="14" lengthAdjust="spacing" textLength="134" x="1198.5" y="111.7285">:EmployeeRepository</text><rect fill="#E3E3E3" height="32.6211" rx="2.5" ry="2.5" style="stroke:#181818;stroke-width:0.5;" width="148" x="1191.5" y="914.1387"/><text fill="#000000" font-family="sans-serif" font-size="14" lengthAdjust="spacing" textLength="134" x="1198.5" y="936.2461">:EmployeeRepository</text><rect fill="#E3E3E3" height="32.6211" rx="2.5" ry="2.5" style="stroke:#181818;stroke-width:0.5;" width="98" x="1349.5" y="89.6211"/><text fill="#000000" font-family="sans-serif" font-size="14" lengthAdjust="spacing" textLength="84" x="1356.5" y="111.7285">:Organization</text><rect fill="#E3E3E3" height="32.6211" rx="2.5" ry="2.5" style="stroke:#181818;stroke-width:0.5;" width="98" x="1349.5" y="914.1387"/><text fill="#000000" font-family="sans-serif" font-size="14" lengthAdjust="spacing" textLength="84" x="1356.5" y="936.2461">:Organization</text><text fill="#000000" font-family="sans-serif" font-size="14" lengthAdjust="spacing" textLength="66" x="1457.5" y="119.7285">:Employee</text><ellipse cx="1493.5" cy="53.1211" fill="#E3E3E3" rx="8" ry="8" style="stroke:#181818;stroke-width:0.5;"/><path d="M1493.5,61.1211 L1493.5,88.1211 M1480.5,69.1211 L1506.5,69.1211 M1493.5,88.1211 L1480.5,103.1211 M1493.5,88.1211 L1506.5,103.1211 " fill="none" style="stroke:#181818;stroke-width:0.5;"/><text fill="#000000" font-family="sans-serif" font-size="14" lengthAdjust="spacing" textLength="66" x="1457.5" y="929.2461">:Employee</text><ellipse cx="1493.5" cy="941.2598" fill="#E3E3E3" rx="8" ry="8" style="stroke:#181818;stroke-width:0.5;"/><path d="M1493.5,949.2598 L1493.5,976.2598 M1480.5,957.2598 L1506.5,957.2598 M1493.5,976.2598 L1480.5,991.2598 M1493.5,976.2598 L1506.5,991.2598 " fill="none" style="stroke:#181818;stroke-width:0.5;"/><rect fill="#FFFFFF" height="635.4414" style="stroke:#181818;stroke-width:1.0;" width="10" x="84.5" y="133.2422"/><rect fill="#FFFFFF" height="31.291" style="stroke:#181818;stroke-width:1.0;" width="10" x="339.5" y="156.5332"/><rect fill="#FFFFFF" height="580.8594" style="stroke:#181818;stroke-width:1.0;" width="10" x="594.5" y="187.8242"/><rect fill="#FFFFFF" height="31.291" style="stroke:#181818;stroke-width:1.0;" width="10" x="908.5" y="262.7363"/><rect fill="#FFFFFF" height="31.291" style="stroke:#181818;stroke-width:1.0;" width="10" x="908.5" y="511.3555"/><rect fill="#FFFFFF" height="31.291" style="stroke:#181818;stroke-width:1.0;" width="10" x="908.5" y="573.9375"/><rect fill="#FFFFFF" height="231.3281" style="stroke:#181818;stroke-width:1.0;" width="10" x="908.5" y="674.8105"/><rect fill="#FFFFFF" height="132.1641" style="stroke:#181818;stroke-width:1.0;" width="10" x="1260.5" y="542.6465"/><polygon fill="#181818" points="327.5,152.5332,337.5,156.5332,327.5,160.5332,331.5,156.5332" style="stroke:#181818;stroke-width:1.0;"/><line style="stroke:#181818;stroke-width:1.0;" x1="94.5" x2="333.5" y1="156.5332" y2="156.5332"/><text fill="#000000" font-family="sans-serif" font-size="13" font-weight="bold" lengthAdjust="spacing" textLength="7" x="101.5" y="151.2705">1</text><text fill="#000000" font-family="sans-serif" font-size="13" lengthAdjust="spacing" textLength="215" x="112.5" y="151.2705">Requests to register a new employee</text><polygon fill="#181818" points="582.5,183.8242,592.5,187.8242,582.5,191.8242,586.5,187.8242" style="stroke:#181818;stroke-width:1.0;"/><line style="stroke:#181818;stroke-width:1.0;" x1="344.5" x2="588.5" y1="187.8242" y2="187.8242"/><text fill="#000000" font-family="sans-serif" font-size="13" font-weight="bold" lengthAdjust="spacing" textLength="7" x="351.5" y="182.5615">2</text><text fill="#000000" font-family="sans-serif" font-size="13" lengthAdjust="spacing" textLength="215" x="362.5" y="182.5615">Requests to register a new employee</text><polygon fill="#181818" points="809,215.1152,819,219.1152,809,223.1152,813,219.1152" style="stroke:#181818;stroke-width:1.0;"/><line style="stroke:#181818;stroke-width:1.0;" x1="604.5" x2="815" y1="219.1152" y2="219.1152"/><text fill="#000000" font-family="sans-serif" font-size="13" font-weight="bold" lengthAdjust="spacing" textLength="7" x="611.5" y="213.8525">3</text><text fill="#000000" font-family="sans-serif" font-size="13" lengthAdjust="spacing" textLength="45" x="622.5" y="213.8525">Creates</text><rect fill="#E3E3E3" height="32.6211" rx="2.5" ry="2.5" style="stroke:#181818;stroke-width:0.5;" width="185" x="821" y="195.8242"/><text fill="#000000" font-family="sans-serif" font-size="14" lengthAdjust="spacing" textLength="171" x="828" y="217.9316">:CreateEmployeeController</text><polygon fill="#181818" points="896.5,258.7363,906.5,262.7363,896.5,266.7363,900.5,262.7363" style="stroke:#181818;stroke-width:1.0;"/><line style="stroke:#181818;stroke-width:1.0;" x1="604.5" x2="902.5" y1="262.7363" y2="262.7363"/><text fill="#000000" font-family="sans-serif" font-size="13" font-weight="bold" lengthAdjust="spacing" textLength="7" x="611.5" y="257.4736">4</text><text fill="#000000" font-family="sans-serif" font-size="13" lengthAdjust="spacing" textLength="134" x="622.5" y="257.4736">registerNewEmployee()</text><polygon fill="#181818" points="615.5,290.0273,605.5,294.0273,615.5,298.0273,611.5,294.0273" style="stroke:#181818;stroke-width:1.0;"/><line style="stroke:#181818;stroke-width:1.0;stroke-dasharray:2.0,2.0;" x1="609.5" x2="912.5" y1="294.0273" y2="294.0273"/><text fill="#000000" font-family="sans-serif" font-size="13" font-weight="bold" lengthAdjust="spacing" textLength="7" x="621.5" y="288.7646">5</text><text fill="#000000" font-family="sans-serif" font-size="13" lengthAdjust="spacing" textLength="79" x="632.5" y="288.7646">requests data</text><polygon fill="#181818" points="105.5,321.3184,95.5,325.3184,105.5,329.3184,101.5,325.3184" style="stroke:#181818;stroke-width:1.0;"/><line style="stroke:#181818;stroke-width:1.0;stroke-dasharray:2.0,2.0;" x1="99.5" x2="593.5" y1="325.3184" y2="325.3184"/><text fill="#000000" font-family="sans-serif" font-size="13" font-weight="bold" lengthAdjust="spacing" textLength="7" x="111.5" y="320.0557">6</text><text fill="#000000" font-family="sans-serif" font-size="13" lengthAdjust="spacing" textLength="79" x="122.5" y="320.0557">requests data</text><path d="M10,340.3184 L83,340.3184 L83,349.6094 L73,359.6094 L10,359.6094 L10,340.3184 " fill="#EEEEEE" style="stroke:#000000;stroke-width:1.5;"/><rect fill="none" height="304.2012" style="stroke:#000000;stroke-width:1.5;" width="1339.5" x="10" y="340.3184"/><text fill="#000000" font-family="sans-serif" font-size="13" font-weight="bold" lengthAdjust="spacing" textLength="28" x="25" y="355.3467">loop</text><text fill="#000000" font-family="sans-serif" font-size="11" font-weight="bold" lengthAdjust="spacing" textLength="43" x="98" y="354.1885">[invalid]</text><polygon fill="#181818" points="582.5,396.1914,592.5,400.1914,582.5,404.1914,586.5,400.1914" style="stroke:#181818;stroke-width:1.0;"/><line style="stroke:#181818;stroke-width:1.0;" x1="94.5" x2="588.5" y1="400.1914" y2="400.1914"/><text fill="#000000" font-family="sans-serif" font-size="13" font-weight="bold" lengthAdjust="spacing" textLength="7" x="101.5" y="386.2832">7</text><text fill="#000000" font-family="sans-serif" font-size="13" lengthAdjust="spacing" textLength="333" x="112.5" y="377.6377">types requested data (role, name, ccNumber, taxNumber,</text><text fill="#000000" font-family="sans-serif" font-size="13" lengthAdjust="spacing" textLength="177" x="112.5" y="394.9287">address, email, phoneNumber)</text><polygon fill="#181818" points="105.5,427.4824,95.5,431.4824,105.5,435.4824,101.5,431.4824" style="stroke:#181818;stroke-width:1.0;"/><line style="stroke:#181818;stroke-width:1.0;stroke-dasharray:2.0,2.0;" x1="99.5" x2="593.5" y1="431.4824" y2="431.4824"/><text fill="#000000" font-family="sans-serif" font-size="13" font-weight="bold" lengthAdjust="spacing" textLength="7" x="111.5" y="426.2197">8</text><text fill="#000000" font-family="sans-serif" font-size="13" lengthAdjust="spacing" textLength="127" x="122.5" y="426.2197">shows requested data</text><polygon fill="#181818" points="582.5,458.7734,592.5,462.7734,582.5,466.7734,586.5,462.7734" style="stroke:#181818;stroke-width:1.0;"/><line style="stroke:#181818;stroke-width:1.0;" x1="94.5" x2="588.5" y1="462.7734" y2="462.7734"/><text fill="#000000" font-family="sans-serif" font-size="13" font-weight="bold" lengthAdjust="spacing" textLength="7" x="101.5" y="457.5107">9</text><text fill="#000000" font-family="sans-serif" font-size="13" lengthAdjust="spacing" textLength="75" x="112.5" y="457.5107">submits data</text><polygon fill="#181818" points="896.5,507.3555,906.5,511.3555,896.5,515.3555,900.5,511.3555" style="stroke:#181818;stroke-width:1.0;"/><line style="stroke:#181818;stroke-width:1.0;" x1="604.5" x2="902.5" y1="511.3555" y2="511.3555"/><text fill="#000000" font-family="sans-serif" font-size="13" font-weight="bold" lengthAdjust="spacing" textLength="14" x="611.5" y="497.4473">10</text><text fill="#000000" font-family="sans-serif" font-size="13" lengthAdjust="spacing" textLength="263" x="629.5" y="488.8018">verifyData(role, name, ccNumber, taxNumber,</text><text fill="#000000" font-family="sans-serif" font-size="13" lengthAdjust="spacing" textLength="177" x="629.5" y="506.0928">address, email, phoneNumber)</text><polygon fill="#181818" points="1248.5,538.6465,1258.5,542.6465,1248.5,546.6465,1252.5,542.6465" style="stroke:#181818;stroke-width:1.0;"/><line style="stroke:#181818;stroke-width:1.0;" x1="913.5" x2="1254.5" y1="542.6465" y2="542.6465"/><text fill="#000000" font-family="sans-serif" font-size="13" font-weight="bold" lengthAdjust="spacing" textLength="14" x="920.5" y="537.3838">11</text><text fill="#000000" font-family="sans-serif" font-size="13" lengthAdjust="spacing" textLength="256" x="938.5" y="537.3838">verifyIfNewEmployee(ccNumber, taxNumber)</text><polygon fill="#181818" points="929.5,569.9375,919.5,573.9375,929.5,577.9375,925.5,573.9375" style="stroke:#181818;stroke-width:1.0;"/><line style="stroke:#181818;stroke-width:1.0;stroke-dasharray:2.0,2.0;" x1="923.5" x2="1259.5" y1="573.9375" y2="573.9375"/><text fill="#000000" font-family="sans-serif" font-size="13" font-weight="bold" lengthAdjust="spacing" textLength="14" x="935.5" y="568.6748">12</text><text fill="#000000" font-family="sans-serif" font-size="13" lengthAdjust="spacing" textLength="133" x="953.5" y="568.6748">operation unsuccessful</text><polygon fill="#181818" points="615.5,601.2285,605.5,605.2285,615.5,609.2285,611.5,605.2285" style="stroke:#181818;stroke-width:1.0;"/><line style="stroke:#181818;stroke-width:1.0;stroke-dasharray:2.0,2.0;" x1="609.5" x2="912.5" y1="605.2285" y2="605.2285"/><text fill="#000000" font-family="sans-serif" font-size="13" font-weight="bold" lengthAdjust="spacing" textLength="14" x="621.5" y="599.9658">13</text><text fill="#000000" font-family="sans-serif" font-size="13" lengthAdjust="spacing" textLength="133" x="639.5" y="599.9658">operation unsuccessful</text><polygon fill="#181818" points="105.5,632.5195,95.5,636.5195,105.5,640.5195,101.5,636.5195" style="stroke:#181818;stroke-width:1.0;"/><line style="stroke:#181818;stroke-width:1.0;stroke-dasharray:2.0,2.0;" x1="99.5" x2="593.5" y1="636.5195" y2="636.5195"/><text fill="#000000" font-family="sans-serif" font-size="13" font-weight="bold" lengthAdjust="spacing" textLength="14" x="111.5" y="631.2568">14</text><text fill="#000000" font-family="sans-serif" font-size="13" lengthAdjust="spacing" textLength="187" x="129.5" y="631.2568">operation unsuccessful,try again</text><polygon fill="#181818" points="929.5,670.8105,919.5,674.8105,929.5,678.8105,925.5,674.8105" style="stroke:#181818;stroke-width:1.0;"/><line style="stroke:#181818;stroke-width:1.0;stroke-dasharray:2.0,2.0;" x1="923.5" x2="1264.5" y1="674.8105" y2="674.8105"/><text fill="#000000" font-family="sans-serif" font-size="13" font-weight="bold" lengthAdjust="spacing" textLength="14" x="935.5" y="669.5479">15</text><text fill="#000000" font-family="sans-serif" font-size="13" lengthAdjust="spacing" textLength="119" x="953.5" y="669.5479">operation successful</text><polygon fill="#181818" points="615.5,702.1016,605.5,706.1016,615.5,710.1016,611.5,706.1016" style="stroke:#181818;stroke-width:1.0;"/><line style="stroke:#181818;stroke-width:1.0;stroke-dasharray:2.0,2.0;" x1="609.5" x2="907.5" y1="706.1016" y2="706.1016"/><text fill="#000000" font-family="sans-serif" font-size="13" font-weight="bold" lengthAdjust="spacing" textLength="14" x="621.5" y="700.8389">16</text><text fill="#000000" font-family="sans-serif" font-size="13" lengthAdjust="spacing" textLength="119" x="639.5" y="700.8389">operation successful</text><polygon fill="#181818" points="105.5,733.3926,95.5,737.3926,105.5,741.3926,101.5,737.3926" style="stroke:#181818;stroke-width:1.0;"/><line style="stroke:#181818;stroke-width:1.0;stroke-dasharray:2.0,2.0;" x1="99.5" x2="593.5" y1="737.3926" y2="737.3926"/><text fill="#000000" font-family="sans-serif" font-size="13" font-weight="bold" lengthAdjust="spacing" textLength="14" x="111.5" y="732.1299">17</text><text fill="#000000" font-family="sans-serif" font-size="13" lengthAdjust="spacing" textLength="119" x="129.5" y="732.1299">operation successful</text><polygon fill="#181818" points="896.5,764.6836,906.5,768.6836,896.5,772.6836,900.5,768.6836" style="stroke:#181818;stroke-width:1.0;"/><line style="stroke:#181818;stroke-width:1.0;" x1="599.5" x2="902.5" y1="768.6836" y2="768.6836"/><text fill="#000000" font-family="sans-serif" font-size="13" font-weight="bold" lengthAdjust="spacing" textLength="14" x="606.5" y="763.4209">18</text><text fill="#000000" font-family="sans-serif" font-size="13" lengthAdjust="spacing" textLength="119" x="624.5" y="763.4209">generatePassword();</text><polygon fill="#181818" points="1253.5,813.2656,1263.5,817.2656,1253.5,821.2656,1257.5,817.2656" style="stroke:#181818;stroke-width:1.0;"/><line style="stroke:#181818;stroke-width:1.0;" x1="918.5" x2="1259.5" y1="817.2656" y2="817.2656"/><text fill="#000000" font-family="sans-serif" font-size="13" font-weight="bold" lengthAdjust="spacing" textLength="14" x="925.5" y="803.3574">19</text><text fill="#000000" font-family="sans-serif" font-size="13" lengthAdjust="spacing" textLength="301" x="943.5" y="794.7119">createEmployee(role, name, ccNumber, taxNumber,</text><text fill="#000000" font-family="sans-serif" font-size="13" lengthAdjust="spacing" textLength="240" x="943.5" y="812.0029">address, email, phoneNumber, password)</text><polygon fill="#181818" points="1386.5,861.8477,1396.5,865.8477,1386.5,869.8477,1390.5,865.8477" style="stroke:#181818;stroke-width:1.0;"/><line style="stroke:#181818;stroke-width:1.0;" x1="918.5" x2="1392.5" y1="865.8477" y2="865.8477"/><text fill="#000000" font-family="sans-serif" font-size="13" font-weight="bold" lengthAdjust="spacing" textLength="14" x="925.5" y="851.9395">20</text><text fill="#000000" font-family="sans-serif" font-size="13" lengthAdjust="spacing" textLength="301" x="943.5" y="843.2939">createEmployee(role, name, ccNumber, taxNumber,</text><text fill="#000000" font-family="sans-serif" font-size="13" lengthAdjust="spacing" textLength="240" x="943.5" y="860.585">address, email, phoneNumber, password)</text><polygon fill="#181818" points="1481.5,893.1387,1491.5,897.1387,1481.5,901.1387,1485.5,897.1387" style="stroke:#181818;stroke-width:1.0;"/><line style="stroke:#181818;stroke-width:1.0;" x1="918.5" x2="1487.5" y1="897.1387" y2="897.1387"/><text fill="#000000" font-family="sans-serif" font-size="13" font-weight="bold" lengthAdjust="spacing" textLength="14" x="925.5" y="891.876">21</text><text fill="#000000" font-family="sans-serif" font-size="13" lengthAdjust="spacing" textLength="187" x="943.5" y="891.876">sendPassword(email, password)</text><!--SRC=[lLPDJzj043splsB4XGGbY9QsI5GYGaaFI2sj2Dnw6Uo9iyBUTNVNfAduyHtRMNlpGK8RYHmYx-vyl7qpyspxA5ME1ZF8jDBHrEYCm9c2X6rESemUCQ6ncwS4XYA7Aab30pl5MC-aIc22gIKXd7HiUc_9mDXfCuVJqpFemvX-5QGYWf74f7JiZ4TT8R1mMXNP0nb-ZjWU3iTpwoY3gpYJIbfda7SF0IrSZRu9Jkfa97DK3WulAflxQtzwVxroFZI4ZhvaUQhdH0l3uUtT3iEXLixeDAKwx_3cxlRhYeCtlQLSMrdUip9jbolstqs2Ilv19xMgBCCDV_CcQcNX5q8SFJELbCCxW8C3U8QJanCiAv20qroKX5bYjX4KpO0MNWFOzUEW6vZcxUrU3PhtBHfJ5jUw4b6C3dVdteJ6tpSW4LwFvgn5anlz9EEAdYcw_qAqBpSVMZHFPEHalWyrUtFpCU0cnQXcXffMWGwgkDoHfiBO1QcM3KoJTN2mDvfFBPg4536p9Q1pYAOiA57PoJbQEzCc7hm1D-Sj6akgxHgFeHona8iZouyeqq6bL_A9PQCI9i5_qB-iPGWk64mr4dRBY2v7O4qIjJD7gJJgjL5YMetJh6kj4tMuCcufPSV77BbMFBjwnYS-pmtDFBMTRXYpaaDHc_S3iCQ3BPje2PPtgLFLBAqx295gdNFpFM4guuPH7zxDSxBUX-BA2JgiqzG3XHd_Hz5DzIhfWSFV_l6dmZWsP6slBbmFygbML1ztrq7PgPwjfbd3Oek7J3R0roYiPtx4X_lZUu7tox3TVSRhILYq3UcwcyhIh8EtbmYYzuERwRmQMAsWKBQ88iOzATBNTCTBdblQf2x8PiUUOsIOe5H2yDoMtRCJyWjfmsl_opt2SAjTjDMgnROGGFgnK9jEz_Co8_NyBa_unXwuW6Zf6sRFnkir0jWDqeKVBM-IiD5s7ZckSaEJzszS_W80]--></g></svg>