<?xml version="1.0" encoding="us-ascii" standalone="no"?><svg xmlns="http://www.w3.org/2000/svg" xmlns:xlink="http://www.w3.org/1999/xlink" contentStyleType="text/css" height="1216px" preserveAspectRatio="none" style="width:1178px;height:1216px;background:#FFFFFF;" version="1.1" viewBox="0 0 1178 1216" width="1178px" zoomAndPan="magnify"><defs/><g><text fill="#000000" font-family="sans-serif" font-size="14" font-weight="bold" lengthAdjust="spacing" textLength="282" x="441" y="25.1074">US020 Read a Response - Class Diagram</text><!--class ReadResponseUI--><g id="elem_ReadResponseUI"><rect codeLine="7" fill="#F1F1F1" height="178.3477" id="ReadResponseUI" rx="2.5" ry="2.5" style="stroke:#181818;stroke-width:0.5;" width="240" x="474.5" y="65.6211"/><ellipse cx="535.25" cy="81.6211" fill="#ADD1B2" rx="11" ry="11" style="stroke:#181818;stroke-width:1.0;"/><path d="M538.0156,77.4961 Q538.1719,77.2773 538.3594,77.168 Q538.5469,77.0586 538.7656,77.0586 Q539.1406,77.0586 539.375,77.3242 Q539.6094,77.5742 539.6094,78.1836 L539.6094,79.6367 Q539.6094,80.2461 539.375,80.5117 Q539.1406,80.7773 538.7656,80.7773 Q538.4219,80.7773 538.2188,80.5742 Q538.0156,80.3867 537.9063,79.8711 Q537.8594,79.5117 537.6719,79.3242 Q537.3438,78.9492 536.7344,78.7305 Q536.125,78.5117 535.5,78.5117 Q534.7344,78.5117 534.0938,78.8398 Q533.4688,79.168 532.9688,79.918 Q532.4844,80.668 532.4844,81.6992 L532.4844,82.793 Q532.4844,84.0273 533.375,84.8555 Q534.2656,85.668 535.8594,85.668 Q536.7969,85.668 537.4531,85.418 Q537.8438,85.2617 538.2656,84.8242 Q538.5313,84.5586 538.6719,84.4805 Q538.8281,84.4023 539.0313,84.4023 Q539.3594,84.4023 539.6094,84.668 Q539.875,84.918 539.875,85.2617 Q539.875,85.6055 539.5313,86.0117 Q539.0313,86.5898 538.2344,86.918 Q537.1563,87.3711 535.8594,87.3711 Q534.3438,87.3711 533.1406,86.7461 Q532.1563,86.2461 531.4688,85.1836 Q530.7813,84.1055 530.7813,82.8242 L530.7813,81.668 Q530.7813,80.3398 531.3906,79.1992 Q532.0156,78.043 533.1094,77.4336 Q534.2031,76.8086 535.4375,76.8086 Q536.1719,76.8086 536.8125,76.9805 Q537.4688,77.1367 538.0156,77.4961 Z " fill="#000000"/><text fill="#000000" font-family="sans-serif" font-size="14" lengthAdjust="spacing" textLength="110" x="555.75" y="87.418">ReadResponseUI</text><line style="stroke:#181818;stroke-width:0.5;" x1="475.5" x2="713.5" y1="97.6211" y2="97.6211"/><text fill="#000000" font-family="sans-serif" font-size="14" lengthAdjust="spacing" textLength="228" x="480.5" y="116.7285">-ReadResponseController controller</text><line style="stroke:#181818;stroke-width:0.5;" x1="475.5" x2="713.5" y1="124.2422" y2="124.2422"/><text fill="#000000" font-family="sans-serif" font-size="14" lengthAdjust="spacing" textLength="122" x="480.5" y="143.3496">+printResponseList</text><text fill="#000000" font-family="sans-serif" font-size="14" lengthAdjust="spacing" textLength="91" x="480.5" y="161.9707">(responseList)</text><text fill="#000000" font-family="sans-serif" font-size="14" lengthAdjust="spacing" textLength="118" x="480.5" y="180.5918">+chooseResponse</text><text fill="#000000" font-family="sans-serif" font-size="14" lengthAdjust="spacing" textLength="91" x="480.5" y="199.2129">(responseList)</text><text fill="#000000" font-family="sans-serif" font-size="14" lengthAdjust="spacing" textLength="188" x="480.5" y="217.834">+AcceptOrDeclineResponse()</text><text fill="#000000" font-family="sans-serif" font-size="14" lengthAdjust="spacing" textLength="200" x="480.5" y="236.4551">+specifyTheReasonToDecline()</text></g><!--class ReadResponseController--><g id="elem_ReadResponseController"><rect codeLine="16" fill="#F1F1F1" height="141.1055" id="ReadResponseController" rx="2.5" ry="2.5" style="stroke:#181818;stroke-width:0.5;" width="208" x="794.5" y="84.1211"/><ellipse cx="816.7" cy="100.1211" fill="#ADD1B2" rx="11" ry="11" style="stroke:#181818;stroke-width:1.0;"/><path d="M819.4656,95.9961 Q819.6219,95.7773 819.8094,95.668 Q819.9969,95.5586 820.2156,95.5586 Q820.5906,95.5586 820.825,95.8242 Q821.0594,96.0742 821.0594,96.6836 L821.0594,98.1367 Q821.0594,98.7461 820.825,99.0117 Q820.5906,99.2773 820.2156,99.2773 Q819.8719,99.2773 819.6688,99.0742 Q819.4656,98.8867 819.3563,98.3711 Q819.3094,98.0117 819.1219,97.8242 Q818.7938,97.4492 818.1844,97.2305 Q817.575,97.0117 816.95,97.0117 Q816.1844,97.0117 815.5438,97.3398 Q814.9188,97.668 814.4188,98.418 Q813.9344,99.168 813.9344,100.1992 L813.9344,101.293 Q813.9344,102.5273 814.825,103.3555 Q815.7156,104.168 817.3094,104.168 Q818.2469,104.168 818.9031,103.918 Q819.2938,103.7617 819.7156,103.3242 Q819.9813,103.0586 820.1219,102.9805 Q820.2781,102.9023 820.4813,102.9023 Q820.8094,102.9023 821.0594,103.168 Q821.325,103.418 821.325,103.7617 Q821.325,104.1055 820.9813,104.5117 Q820.4813,105.0898 819.6844,105.418 Q818.6063,105.8711 817.3094,105.8711 Q815.7938,105.8711 814.5906,105.2461 Q813.6063,104.7461 812.9188,103.6836 Q812.2313,102.6055 812.2313,101.3242 L812.2313,100.168 Q812.2313,98.8398 812.8406,97.6992 Q813.4656,96.543 814.5594,95.9336 Q815.6531,95.3086 816.8875,95.3086 Q817.6219,95.3086 818.2625,95.4805 Q818.9188,95.6367 819.4656,95.9961 Z " fill="#000000"/><text fill="#000000" font-family="sans-serif" font-size="14" lengthAdjust="spacing" textLength="160" x="832.3" y="105.918">ReadResponseController</text><line style="stroke:#181818;stroke-width:0.5;" x1="795.5" x2="1001.5" y1="116.1211" y2="116.1211"/><line style="stroke:#181818;stroke-width:0.5;" x1="795.5" x2="1001.5" y1="124.1211" y2="124.1211"/><text fill="#000000" font-family="sans-serif" font-size="14" lengthAdjust="spacing" textLength="162" x="800.5" y="143.2285">+getResponsesToClient()</text><text fill="#000000" font-family="sans-serif" font-size="14" lengthAdjust="spacing" textLength="119" x="800.5" y="161.8496">+changeResponse</text><text fill="#000000" font-family="sans-serif" font-size="14" lengthAdjust="spacing" textLength="69" x="800.5" y="180.4707">(response)</text><text fill="#000000" font-family="sans-serif" font-size="14" lengthAdjust="spacing" textLength="196" x="800.5" y="199.0918">+changeResponseWithReason</text><text fill="#000000" font-family="sans-serif" font-size="14" lengthAdjust="spacing" textLength="121" x="800.5" y="217.7129">(response, reason)</text></g><!--class Repositories--><g id="elem_Repositories"><rect codeLine="23" fill="#F1F1F1" height="141.1055" id="Repositories" rx="2.5" ry="2.5" style="stroke:#181818;stroke-width:0.5;" width="208" x="447.5" y="341.6211"/><ellipse cx="507.75" cy="357.6211" fill="#ADD1B2" rx="11" ry="11" style="stroke:#181818;stroke-width:1.0;"/><path d="M510.5156,353.4961 Q510.6719,353.2773 510.8594,353.168 Q511.0469,353.0586 511.2656,353.0586 Q511.6406,353.0586 511.875,353.3242 Q512.1094,353.5742 512.1094,354.1836 L512.1094,355.6367 Q512.1094,356.2461 511.875,356.5117 Q511.6406,356.7773 511.2656,356.7773 Q510.9219,356.7773 510.7188,356.5742 Q510.5156,356.3867 510.4063,355.8711 Q510.3594,355.5117 510.1719,355.3242 Q509.8438,354.9492 509.2344,354.7305 Q508.625,354.5117 508,354.5117 Q507.2344,354.5117 506.5938,354.8398 Q505.9688,355.168 505.4688,355.918 Q504.9844,356.668 504.9844,357.6992 L504.9844,358.793 Q504.9844,360.0273 505.875,360.8555 Q506.7656,361.668 508.3594,361.668 Q509.2969,361.668 509.9531,361.418 Q510.3438,361.2617 510.7656,360.8242 Q511.0313,360.5586 511.1719,360.4805 Q511.3281,360.4023 511.5313,360.4023 Q511.8594,360.4023 512.1094,360.668 Q512.375,360.918 512.375,361.2617 Q512.375,361.6055 512.0313,362.0117 Q511.5313,362.5898 510.7344,362.918 Q509.6563,363.3711 508.3594,363.3711 Q506.8438,363.3711 505.6406,362.7461 Q504.6563,362.2461 503.9688,361.1836 Q503.2813,360.1055 503.2813,358.8242 L503.2813,357.668 Q503.2813,356.3398 503.8906,355.1992 Q504.5156,354.043 505.6094,353.4336 Q506.7031,352.8086 507.9375,352.8086 Q508.6719,352.8086 509.3125,352.9805 Q509.9688,353.1367 510.5156,353.4961 Z " fill="#000000"/><text fill="#000000" font-family="sans-serif" font-size="14" lengthAdjust="spacing" textLength="79" x="528.25" y="363.418">Repositories</text><line style="stroke:#181818;stroke-width:0.5;" x1="448.5" x2="654.5" y1="373.6211" y2="373.6211"/><line style="stroke:#181818;stroke-width:0.5;" x1="448.5" x2="654.5" y1="381.6211" y2="381.6211"/><text fill="#000000" font-family="sans-serif" font-size="14" lengthAdjust="spacing" textLength="91" x="453.5" y="400.7285">+getInstance()</text><text fill="#000000" font-family="sans-serif" font-size="14" lengthAdjust="spacing" textLength="196" x="453.5" y="419.3496">+getAuthenticationRepository()</text><text fill="#000000" font-family="sans-serif" font-size="14" lengthAdjust="spacing" textLength="170" x="453.5" y="437.9707">+getResponseRepository()</text><text fill="#000000" font-family="sans-serif" font-size="14" lengthAdjust="spacing" textLength="142" x="453.5" y="456.5918">+getClientRepository()</text><text fill="#000000" font-family="sans-serif" font-size="14" lengthAdjust="spacing" textLength="170" x="453.5" y="475.2129">+getResponseRepository()</text></g><!--class AuthenticationRepository--><g id="elem_AuthenticationRepository"><rect codeLine="32" fill="#F1F1F1" height="85.2422" id="AuthenticationRepository" rx="2.5" ry="2.5" style="stroke:#181818;stroke-width:0.5;" width="235" x="315" y="658.6211"/><ellipse cx="350.25" cy="674.6211" fill="#ADD1B2" rx="11" ry="11" style="stroke:#181818;stroke-width:1.0;"/><path d="M353.0156,670.4961 Q353.1719,670.2773 353.3594,670.168 Q353.5469,670.0586 353.7656,670.0586 Q354.1406,670.0586 354.375,670.3242 Q354.6094,670.5742 354.6094,671.1836 L354.6094,672.6367 Q354.6094,673.2461 354.375,673.5117 Q354.1406,673.7773 353.7656,673.7773 Q353.4219,673.7773 353.2188,673.5742 Q353.0156,673.3867 352.9063,672.8711 Q352.8594,672.5117 352.6719,672.3242 Q352.3438,671.9492 351.7344,671.7305 Q351.125,671.5117 350.5,671.5117 Q349.7344,671.5117 349.0938,671.8398 Q348.4688,672.168 347.9688,672.918 Q347.4844,673.668 347.4844,674.6992 L347.4844,675.793 Q347.4844,677.0273 348.375,677.8555 Q349.2656,678.668 350.8594,678.668 Q351.7969,678.668 352.4531,678.418 Q352.8438,678.2617 353.2656,677.8242 Q353.5313,677.5586 353.6719,677.4805 Q353.8281,677.4023 354.0313,677.4023 Q354.3594,677.4023 354.6094,677.668 Q354.875,677.918 354.875,678.2617 Q354.875,678.6055 354.5313,679.0117 Q354.0313,679.5898 353.2344,679.918 Q352.1563,680.3711 350.8594,680.3711 Q349.3438,680.3711 348.1406,679.7461 Q347.1563,679.2461 346.4688,678.1836 Q345.7813,677.1055 345.7813,675.8242 L345.7813,674.668 Q345.7813,673.3398 346.3906,672.1992 Q347.0156,671.043 348.1094,670.4336 Q349.2031,669.8086 350.4375,669.8086 Q351.1719,669.8086 351.8125,669.9805 Q352.4688,670.1367 353.0156,670.4961 Z " fill="#000000"/><text fill="#000000" font-family="sans-serif" font-size="14" lengthAdjust="spacing" textLength="158" x="368.75" y="680.418">AuthenticationRepository</text><line style="stroke:#181818;stroke-width:0.5;" x1="316" x2="549" y1="690.6211" y2="690.6211"/><text fill="#000000" font-family="sans-serif" font-size="14" lengthAdjust="spacing" textLength="223" x="321" y="709.7285">-AuthFacade authenticationFacade</text><line style="stroke:#181818;stroke-width:0.5;" x1="316" x2="549" y1="717.2422" y2="717.2422"/><text fill="#000000" font-family="sans-serif" font-size="14" lengthAdjust="spacing" textLength="165" x="321" y="736.3496">+getCurrentUserSession()</text></g><!--class UserSession--><g id="elem_UserSession"><rect codeLine="38" fill="#F1F1F1" height="85.2422" id="UserSession" rx="2.5" ry="2.5" style="stroke:#181818;stroke-width:0.5;" width="111" x="377" y="1022.1211"/><ellipse cx="392" cy="1038.1211" fill="#ADD1B2" rx="11" ry="11" style="stroke:#181818;stroke-width:1.0;"/><path d="M394.7656,1033.9961 Q394.9219,1033.7773 395.1094,1033.668 Q395.2969,1033.5586 395.5156,1033.5586 Q395.8906,1033.5586 396.125,1033.8242 Q396.3594,1034.0742 396.3594,1034.6836 L396.3594,1036.1367 Q396.3594,1036.7461 396.125,1037.0117 Q395.8906,1037.2773 395.5156,1037.2773 Q395.1719,1037.2773 394.9688,1037.0742 Q394.7656,1036.8867 394.6563,1036.3711 Q394.6094,1036.0117 394.4219,1035.8242 Q394.0938,1035.4492 393.4844,1035.2305 Q392.875,1035.0117 392.25,1035.0117 Q391.4844,1035.0117 390.8438,1035.3398 Q390.2188,1035.668 389.7188,1036.418 Q389.2344,1037.168 389.2344,1038.1992 L389.2344,1039.293 Q389.2344,1040.5273 390.125,1041.3555 Q391.0156,1042.168 392.6094,1042.168 Q393.5469,1042.168 394.2031,1041.918 Q394.5938,1041.7617 395.0156,1041.3242 Q395.2813,1041.0586 395.4219,1040.9805 Q395.5781,1040.9023 395.7813,1040.9023 Q396.1094,1040.9023 396.3594,1041.168 Q396.625,1041.418 396.625,1041.7617 Q396.625,1042.1055 396.2813,1042.5117 Q395.7813,1043.0898 394.9844,1043.418 Q393.9063,1043.8711 392.6094,1043.8711 Q391.0938,1043.8711 389.8906,1043.2461 Q388.9063,1042.7461 388.2188,1041.6836 Q387.5313,1040.6055 387.5313,1039.3242 L387.5313,1038.168 Q387.5313,1036.8398 388.1406,1035.6992 Q388.7656,1034.543 389.8594,1033.9336 Q390.9531,1033.3086 392.1875,1033.3086 Q392.9219,1033.3086 393.5625,1033.4805 Q394.2188,1033.6367 394.7656,1033.9961 Z " fill="#000000"/><text fill="#000000" font-family="sans-serif" font-size="14" lengthAdjust="spacing" textLength="79" x="406" y="1043.918">UserSession</text><line style="stroke:#181818;stroke-width:0.5;" x1="378" x2="487" y1="1054.1211" y2="1054.1211"/><text fill="#000000" font-family="sans-serif" font-size="14" lengthAdjust="spacing" textLength="33" x="383" y="1073.2285">-user</text><line style="stroke:#181818;stroke-width:0.5;" x1="378" x2="487" y1="1080.7422" y2="1080.7422"/><text fill="#000000" font-family="sans-serif" font-size="14" lengthAdjust="spacing" textLength="78" x="383" y="1099.8496">+getUserId()</text></g><!--class ClientRepository--><g id="elem_ClientRepository"><rect codeLine="44" fill="#F1F1F1" height="85.2422" id="ClientRepository" rx="2.5" ry="2.5" style="stroke:#181818;stroke-width:0.5;" width="169" x="101" y="658.6211"/><ellipse cx="130.85" cy="674.6211" fill="#ADD1B2" rx="11" ry="11" style="stroke:#181818;stroke-width:1.0;"/><path d="M133.6156,670.4961 Q133.7719,670.2773 133.9594,670.168 Q134.1469,670.0586 134.3656,670.0586 Q134.7406,670.0586 134.975,670.3242 Q135.2094,670.5742 135.2094,671.1836 L135.2094,672.6367 Q135.2094,673.2461 134.975,673.5117 Q134.7406,673.7773 134.3656,673.7773 Q134.0219,673.7773 133.8188,673.5742 Q133.6156,673.3867 133.5063,672.8711 Q133.4594,672.5117 133.2719,672.3242 Q132.9438,671.9492 132.3344,671.7305 Q131.725,671.5117 131.1,671.5117 Q130.3344,671.5117 129.6938,671.8398 Q129.0688,672.168 128.5688,672.918 Q128.0844,673.668 128.0844,674.6992 L128.0844,675.793 Q128.0844,677.0273 128.975,677.8555 Q129.8656,678.668 131.4594,678.668 Q132.3969,678.668 133.0531,678.418 Q133.4438,678.2617 133.8656,677.8242 Q134.1313,677.5586 134.2719,677.4805 Q134.4281,677.4023 134.6313,677.4023 Q134.9594,677.4023 135.2094,677.668 Q135.475,677.918 135.475,678.2617 Q135.475,678.6055 135.1313,679.0117 Q134.6313,679.5898 133.8344,679.918 Q132.7563,680.3711 131.4594,680.3711 Q129.9438,680.3711 128.7406,679.7461 Q127.7563,679.2461 127.0688,678.1836 Q126.3813,677.1055 126.3813,675.8242 L126.3813,674.668 Q126.3813,673.3398 126.9906,672.1992 Q127.6156,671.043 128.7094,670.4336 Q129.8031,669.8086 131.0375,669.8086 Q131.7719,669.8086 132.4125,669.9805 Q133.0688,670.1367 133.6156,670.4961 Z " fill="#000000"/><text fill="#000000" font-family="sans-serif" font-size="14" lengthAdjust="spacing" textLength="104" x="148.15" y="680.418">ClientRepository</text><line style="stroke:#181818;stroke-width:0.5;" x1="102" x2="269" y1="690.6211" y2="690.6211"/><text fill="#000000" font-family="sans-serif" font-size="14" lengthAdjust="spacing" textLength="123" x="107" y="709.7285">-List&lt;Client&gt; clients</text><line style="stroke:#181818;stroke-width:0.5;" x1="102" x2="269" y1="717.2422" y2="717.2422"/><text fill="#000000" font-family="sans-serif" font-size="14" lengthAdjust="spacing" textLength="157" x="107" y="736.3496">+getClientByEmail(email)</text></g><!--class Client--><g id="elem_Client"><rect codeLine="50" fill="#F1F1F1" height="215.5898" id="Client" rx="2.5" ry="2.5" style="stroke:#181818;stroke-width:0.5;" width="239" x="7" y="46.6211"/><ellipse cx="104.25" cy="62.6211" fill="#ADD1B2" rx="11" ry="11" style="stroke:#181818;stroke-width:1.0;"/><path d="M107.0156,58.4961 Q107.1719,58.2773 107.3594,58.168 Q107.5469,58.0586 107.7656,58.0586 Q108.1406,58.0586 108.375,58.3242 Q108.6094,58.5742 108.6094,59.1836 L108.6094,60.6367 Q108.6094,61.2461 108.375,61.5117 Q108.1406,61.7773 107.7656,61.7773 Q107.4219,61.7773 107.2188,61.5742 Q107.0156,61.3867 106.9063,60.8711 Q106.8594,60.5117 106.6719,60.3242 Q106.3438,59.9492 105.7344,59.7305 Q105.125,59.5117 104.5,59.5117 Q103.7344,59.5117 103.0938,59.8398 Q102.4688,60.168 101.9688,60.918 Q101.4844,61.668 101.4844,62.6992 L101.4844,63.793 Q101.4844,65.0273 102.375,65.8555 Q103.2656,66.668 104.8594,66.668 Q105.7969,66.668 106.4531,66.418 Q106.8438,66.2617 107.2656,65.8242 Q107.5313,65.5586 107.6719,65.4805 Q107.8281,65.4023 108.0313,65.4023 Q108.3594,65.4023 108.6094,65.668 Q108.875,65.918 108.875,66.2617 Q108.875,66.6055 108.5313,67.0117 Q108.0313,67.5898 107.2344,67.918 Q106.1563,68.3711 104.8594,68.3711 Q103.3438,68.3711 102.1406,67.7461 Q101.1563,67.2461 100.4688,66.1836 Q99.7813,65.1055 99.7813,63.8242 L99.7813,62.668 Q99.7813,61.3398 100.3906,60.1992 Q101.0156,59.043 102.1094,58.4336 Q103.2031,57.8086 104.4375,57.8086 Q105.1719,57.8086 105.8125,57.9805 Q106.4688,58.1367 107.0156,58.4961 Z " fill="#000000"/><text fill="#000000" font-family="sans-serif" font-size="14" lengthAdjust="spacing" textLength="36" x="124.75" y="68.418">Client</text><line style="stroke:#181818;stroke-width:0.5;" x1="8" x2="245" y1="78.6211" y2="78.6211"/><text fill="#000000" font-family="sans-serif" font-size="14" lengthAdjust="spacing" textLength="81" x="13" y="97.7285">-String name</text><text fill="#000000" font-family="sans-serif" font-size="14" lengthAdjust="spacing" textLength="128" x="13" y="116.3496">-int passportNumber</text><text fill="#000000" font-family="sans-serif" font-size="14" lengthAdjust="spacing" textLength="141" x="13" y="134.9707">-socialSecurityNumber</text><text fill="#000000" font-family="sans-serif" font-size="14" lengthAdjust="spacing" textLength="79" x="13" y="153.5918">-String email</text><text fill="#000000" font-family="sans-serif" font-size="14" lengthAdjust="spacing" textLength="135" x="13" y="172.2129">-String phoneNumber</text><text fill="#000000" font-family="sans-serif" font-size="14" lengthAdjust="spacing" textLength="71" x="13" y="190.834">-String pwd</text><line style="stroke:#181818;stroke-width:0.5;" x1="8" x2="245" y1="198.3477" y2="198.3477"/><text fill="#000000" font-family="sans-serif" font-size="14" lengthAdjust="spacing" textLength="227" x="13" y="217.4551">+Client(email, name, phoneNumber)</text><text fill="#000000" font-family="sans-serif" font-size="14" lengthAdjust="spacing" textLength="128" x="13" y="236.0762">+getPhoneNumber()</text><text fill="#000000" font-family="sans-serif" font-size="14" lengthAdjust="spacing" textLength="74" x="13" y="254.6973">+getName()</text></g><!--class ResponseRepository--><g id="elem_ResponseRepository"><rect codeLine="90" fill="#F1F1F1" height="279.4531" id="ResponseRepository" rx="2.5" ry="2.5" style="stroke:#181818;stroke-width:0.5;" width="350" x="585.5" y="561.6211"/><ellipse cx="690.25" cy="577.6211" fill="#ADD1B2" rx="11" ry="11" style="stroke:#181818;stroke-width:1.0;"/><path d="M693.0156,573.4961 Q693.1719,573.2773 693.3594,573.168 Q693.5469,573.0586 693.7656,573.0586 Q694.1406,573.0586 694.375,573.3242 Q694.6094,573.5742 694.6094,574.1836 L694.6094,575.6367 Q694.6094,576.2461 694.375,576.5117 Q694.1406,576.7773 693.7656,576.7773 Q693.4219,576.7773 693.2188,576.5742 Q693.0156,576.3867 692.9063,575.8711 Q692.8594,575.5117 692.6719,575.3242 Q692.3438,574.9492 691.7344,574.7305 Q691.125,574.5117 690.5,574.5117 Q689.7344,574.5117 689.0938,574.8398 Q688.4688,575.168 687.9688,575.918 Q687.4844,576.668 687.4844,577.6992 L687.4844,578.793 Q687.4844,580.0273 688.375,580.8555 Q689.2656,581.668 690.8594,581.668 Q691.7969,581.668 692.4531,581.418 Q692.8438,581.2617 693.2656,580.8242 Q693.5313,580.5586 693.6719,580.4805 Q693.8281,580.4023 694.0313,580.4023 Q694.3594,580.4023 694.6094,580.668 Q694.875,580.918 694.875,581.2617 Q694.875,581.6055 694.5313,582.0117 Q694.0313,582.5898 693.2344,582.918 Q692.1563,583.3711 690.8594,583.3711 Q689.3438,583.3711 688.1406,582.7461 Q687.1563,582.2461 686.4688,581.1836 Q685.7813,580.1055 685.7813,578.8242 L685.7813,577.668 Q685.7813,576.3398 686.3906,575.1992 Q687.0156,574.043 688.1094,573.4336 Q689.2031,572.8086 690.4375,572.8086 Q691.1719,572.8086 691.8125,572.9805 Q692.4688,573.1367 693.0156,573.4961 Z " fill="#000000"/><text fill="#000000" font-family="sans-serif" font-size="14" lengthAdjust="spacing" textLength="132" x="710.75" y="583.418">ResponseRepository</text><line style="stroke:#181818;stroke-width:0.5;" x1="586.5" x2="934.5" y1="593.6211" y2="593.6211"/><text fill="#000000" font-family="sans-serif" font-size="14" lengthAdjust="spacing" textLength="172" x="591.5" y="612.7285">-List&lt;response&gt; responses</text><line style="stroke:#181818;stroke-width:0.5;" x1="586.5" x2="934.5" y1="620.2422" y2="620.2422"/><text fill="#000000" font-family="sans-serif" font-size="14" lengthAdjust="spacing" textLength="338" x="591.5" y="639.3496">+create(subject, text, sender, recipient, state, reason)</text><text fill="#000000" font-family="sans-serif" font-size="14" lengthAdjust="spacing" textLength="156" x="591.5" y="657.9707">+addMessage(message)</text><text fill="#000000" font-family="sans-serif" font-size="14" lengthAdjust="spacing" textLength="190" x="591.5" y="676.5918">+validateResponse(response)</text><text fill="#000000" font-family="sans-serif" font-size="14" lengthAdjust="spacing" textLength="65" x="591.5" y="695.2129">+remove()</text><text fill="#000000" font-family="sans-serif" font-size="14" lengthAdjust="spacing" textLength="109" x="591.5" y="713.834">+getResponses()</text><text fill="#000000" font-family="sans-serif" font-size="14" lengthAdjust="spacing" textLength="177" x="591.5" y="732.4551">-List&lt;Response&gt; responses</text><line style="stroke:#181818;stroke-width:0.5;" x1="586.5" x2="934.5" y1="739.9688" y2="739.9688"/><text fill="#000000" font-family="sans-serif" font-size="14" lengthAdjust="spacing" textLength="67" x="591.5" y="759.0762">+isEmpty()</text><text fill="#000000" font-family="sans-serif" font-size="14" lengthAdjust="spacing" textLength="101" x="591.5" y="777.6973">+add(response)</text><text fill="#000000" font-family="sans-serif" font-size="14" lengthAdjust="spacing" textLength="187" x="591.5" y="796.3184">-validateResponse(response)</text><text fill="#000000" font-family="sans-serif" font-size="14" lengthAdjust="spacing" textLength="103" x="591.5" y="814.9395">+remove(object)</text><text fill="#000000" font-family="sans-serif" font-size="14" lengthAdjust="spacing" textLength="109" x="591.5" y="833.5605">+getResponses()</text></g><!--class Response--><g id="elem_Response"><rect codeLine="73" fill="#F1F1F1" height="290.0742" id="Response" rx="2.5" ry="2.5" style="stroke:#181818;stroke-width:0.5;" width="389" x="782" y="919.6211"/><ellipse cx="940.25" cy="935.6211" fill="#ADD1B2" rx="11" ry="11" style="stroke:#181818;stroke-width:1.0;"/><path d="M943.0156,931.4961 Q943.1719,931.2773 943.3594,931.168 Q943.5469,931.0586 943.7656,931.0586 Q944.1406,931.0586 944.375,931.3242 Q944.6094,931.5742 944.6094,932.1836 L944.6094,933.6367 Q944.6094,934.2461 944.375,934.5117 Q944.1406,934.7773 943.7656,934.7773 Q943.4219,934.7773 943.2188,934.5742 Q943.0156,934.3867 942.9063,933.8711 Q942.8594,933.5117 942.6719,933.3242 Q942.3438,932.9492 941.7344,932.7305 Q941.125,932.5117 940.5,932.5117 Q939.7344,932.5117 939.0938,932.8398 Q938.4688,933.168 937.9688,933.918 Q937.4844,934.668 937.4844,935.6992 L937.4844,936.793 Q937.4844,938.0273 938.375,938.8555 Q939.2656,939.668 940.8594,939.668 Q941.7969,939.668 942.4531,939.418 Q942.8438,939.2617 943.2656,938.8242 Q943.5313,938.5586 943.6719,938.4805 Q943.8281,938.4023 944.0313,938.4023 Q944.3594,938.4023 944.6094,938.668 Q944.875,938.918 944.875,939.2617 Q944.875,939.6055 944.5313,940.0117 Q944.0313,940.5898 943.2344,940.918 Q942.1563,941.3711 940.8594,941.3711 Q939.3438,941.3711 938.1406,940.7461 Q937.1563,940.2461 936.4688,939.1836 Q935.7813,938.1055 935.7813,936.8242 L935.7813,935.668 Q935.7813,934.3398 936.3906,933.1992 Q937.0156,932.043 938.1094,931.4336 Q939.2031,930.8086 940.4375,930.8086 Q941.1719,930.8086 941.8125,930.9805 Q942.4688,931.1367 943.0156,931.4961 Z " fill="#000000"/><text fill="#000000" font-family="sans-serif" font-size="14" lengthAdjust="spacing" textLength="64" x="960.75" y="941.418">Response</text><line style="stroke:#181818;stroke-width:0.5;" x1="783" x2="1170" y1="951.6211" y2="951.6211"/><text fill="#000000" font-family="sans-serif" font-size="14" lengthAdjust="spacing" textLength="95" x="788" y="970.7285">-String subject;</text><text fill="#000000" font-family="sans-serif" font-size="14" lengthAdjust="spacing" textLength="72" x="788" y="989.3496">-String text;</text><text fill="#000000" font-family="sans-serif" font-size="14" lengthAdjust="spacing" textLength="93" x="788" y="1007.9707">-Client sender;</text><text fill="#000000" font-family="sans-serif" font-size="14" lengthAdjust="spacing" textLength="103" x="788" y="1026.5918">-Client recipient;</text><text fill="#000000" font-family="sans-serif" font-size="14" lengthAdjust="spacing" textLength="81" x="788" y="1045.2129">-String state;</text><text fill="#000000" font-family="sans-serif" font-size="14" lengthAdjust="spacing" textLength="94" x="788" y="1063.834">-String reason;</text><line style="stroke:#181818;stroke-width:0.5;" x1="783" x2="1170" y1="1071.3477" y2="1071.3477"/><text fill="#000000" font-family="sans-serif" font-size="14" lengthAdjust="spacing" textLength="314" x="788" y="1090.4551">+Response (subject, text, sender, recipient, state)</text><text fill="#000000" font-family="sans-serif" font-size="14" lengthAdjust="spacing" textLength="377" x="788" y="1109.0762">+MResponse (subject, text, sender, recipient, state, reason)</text><text fill="#000000" font-family="sans-serif" font-size="14" lengthAdjust="spacing" textLength="67" x="788" y="1127.6973">+toString()</text><text fill="#000000" font-family="sans-serif" font-size="14" lengthAdjust="spacing" textLength="52" x="788" y="1146.3184">+clone()</text><text fill="#000000" font-family="sans-serif" font-size="14" lengthAdjust="spacing" textLength="70" x="788" y="1164.9395">+setState()</text><text fill="#000000" font-family="sans-serif" font-size="14" lengthAdjust="spacing" textLength="86" x="788" y="1183.5605">+setReason()</text><text fill="#000000" font-family="sans-serif" font-size="14" lengthAdjust="spacing" textLength="97" x="788" y="1202.1816">+getRecipient()</text></g><!--link Client to ReadResponseUI--><g id="link_Client_ReadResponseUI"><path codeLine="100" d="M246.3,172.6711 C260.74,174.3011 275.31,175.6811 289.25,176.6211 C352.22,180.8611 368.28,180.8411 431.25,176.6211 C443.59,175.7911 456.43,174.6211 469.23,173.2311 " fill="none" id="Client-to-ReadResponseUI" style="stroke:#181818;stroke-width:1.0;"/><polygon fill="#181818" points="474.33,172.6711,464.949,169.6717,469.3595,173.2138,465.8174,177.6244,474.33,172.6711" style="stroke:#181818;stroke-width:1.0;"/><text fill="#000000" font-family="sans-serif" font-size="13" lengthAdjust="spacing" textLength="140" x="290.25" y="172.6494">asks to read a response</text></g><!--link Client to ReadResponseUI--><g id="link_Client_ReadResponseUI"><path codeLine="101" d="M246.11,154.6211 C314.34,154.6211 399.78,154.6211 468.97,154.6211 " fill="none" id="Client-to-ReadResponseUI-1" style="stroke:#181818;stroke-width:1.0;"/><polygon fill="#181818" points="474.34,154.6211,465.34,150.6211,469.34,154.6211,465.34,158.6211,474.34,154.6211" style="stroke:#181818;stroke-width:1.0;"/><text fill="#000000" font-family="sans-serif" font-size="13" lengthAdjust="spacing" textLength="192" x="264.25" y="147.6494">accepts or declines the response</text></g><!--link ReadResponseUI to ReadResponseController--><g id="link_ReadResponseUI_ReadResponseController"><path codeLine="103" d="M714.65,154.6211 C739.28,154.6211 765.09,154.6211 789.31,154.6211 " fill="none" id="ReadResponseUI-to-ReadResponseController" style="stroke:#181818;stroke-width:1.0;"/><polygon fill="#181818" points="794.46,154.6211,785.46,150.6211,789.46,154.6211,785.46,158.6211,794.46,154.6211" style="stroke:#181818;stroke-width:1.0;"/><text fill="#000000" font-family="sans-serif" font-size="13" lengthAdjust="spacing" textLength="43" x="733" y="147.6494">creates</text></g><!--link ReadResponseController to Repositories--><g id="link_ReadResponseController_Repositories"><path codeLine="104" d="M801.75,225.3011 C779.44,239.1611 755.27,252.5211 731.5,262.6211 C678.52,285.1311 649.95,256.0511 605.5,292.6211 C591.46,304.1711 580.91,320.1711 573.04,336.6711 " fill="none" id="ReadResponseController-to-Repositories" style="stroke:#181818;stroke-width:1.0;"/><polygon fill="#181818" points="570.89,341.3311,578.2804,334.8209,572.9762,336.7871,571.01,331.483,570.89,341.3311" style="stroke:#181818;stroke-width:1.0;"/><text fill="#000000" font-family="sans-serif" font-size="13" lengthAdjust="spacing" textLength="92" x="606.5" y="307.6494">gets instance of</text></g><!--link Repositories to ResponseRepository--><g id="link_Repositories_ResponseRepository"><path codeLine="105" d="M602.36,482.9611 C618.82,505.5611 637.71,531.5111 656.58,557.4211 " fill="none" id="Repositories-to-ResponseRepository" style="stroke:#181818;stroke-width:1.0;"/><polygon fill="#181818" points="659.61,561.5811,657.5474,551.9506,656.6674,557.5386,651.0794,556.6587,659.61,561.5811" style="stroke:#181818;stroke-width:1.0;"/><text fill="#000000" font-family="sans-serif" font-size="13" lengthAdjust="spacing" textLength="49" x="638.5" y="527.6494">contains</text><text fill="#000000" font-family="sans-serif" font-size="13" lengthAdjust="spacing" textLength="7" x="646.9012" y="550.509">1</text></g><!--link Repositories to ResponseRepository--><g id="link_Repositories_ResponseRepository"><path codeLine="107" d="M551.85,482.7711 C554.17,499.5011 558.58,516.8111 566.5,531.6211 C571.24,540.5011 576.66,549.1211 582.59,557.4611 " fill="none" id="Repositories-to-ResponseRepository-1" style="stroke:#181818;stroke-width:1.0;"/><polygon fill="#181818" points="585.54,561.5311,583.4774,551.9006,582.5974,557.4886,577.0094,556.6087,585.54,561.5311" style="stroke:#181818;stroke-width:1.0;"/><text fill="#000000" font-family="sans-serif" font-size="13" lengthAdjust="spacing" textLength="49" x="567.5" y="527.6494">contains</text><text fill="#000000" font-family="sans-serif" font-size="13" lengthAdjust="spacing" textLength="7" x="570.4535" y="551.8454">1</text></g><!--link Repositories to ClientRepository--><g id="link_Repositories_ClientRepository"><path codeLine="106" d="M447.32,462.9611 C399.05,488.7411 342.54,522.9211 297.5,561.6211 C265.98,588.7111 236.69,625.5211 215.97,654.3911 " fill="none" id="Repositories-to-ClientRepository" style="stroke:#181818;stroke-width:1.0;"/><polygon fill="#181818" points="212.98,658.5911,221.4594,653.5812,215.8808,654.5186,214.9434,648.9399,212.98,658.5911" style="stroke:#181818;stroke-width:1.0;"/><text fill="#000000" font-family="sans-serif" font-size="13" lengthAdjust="spacing" textLength="49" x="363.5" y="527.6494">contains</text><text fill="#000000" font-family="sans-serif" font-size="13" lengthAdjust="spacing" textLength="7" x="209.8018" y="647.4904">1</text></g><!--link Repositories to AuthenticationRepository--><g id="link_Repositories_AuthenticationRepository"><path codeLine="108" d="M478.9,482.7711 C471.81,492.2311 465.43,502.2611 460.5,512.6211 C439.23,557.2711 433.29,614.1011 432,653.4311 " fill="none" id="Repositories-to-AuthenticationRepository" style="stroke:#181818;stroke-width:1.0;"/><polygon fill="#181818" points="431.85,658.6211,436.1061,649.7394,431.9932,653.6231,428.1094,649.5102,431.85,658.6211" style="stroke:#181818;stroke-width:1.0;"/><text fill="#000000" font-family="sans-serif" font-size="13" lengthAdjust="spacing" textLength="49" x="461.5" y="527.6494">contains</text><text fill="#000000" font-family="sans-serif" font-size="13" lengthAdjust="spacing" textLength="7" x="424.1627" y="647.2066">1</text></g><!--link ReadResponseController to Response--><g id="link_ReadResponseController_Response"><path codeLine="110" d="M954.96,225.3211 C978.25,258.4611 1002.56,299.9111 1014.5,341.6211 C1069.47,533.6311 1041.43,765.8711 1012.33,914.1611 " fill="none" id="ReadResponseController-to-Response" style="stroke:#181818;stroke-width:1.0;"/><polygon fill="#181818" points="1011.29,919.4011,1016.9638,911.3508,1012.2623,914.4965,1009.1166,909.795,1011.29,919.4011" style="stroke:#181818;stroke-width:1.0;"/><text fill="#000000" font-family="sans-serif" font-size="13" lengthAdjust="spacing" textLength="43" x="1044.5" y="527.6494">creates</text></g><!--link ReadResponseController to ResponseRepository--><g id="link_ReadResponseController_ResponseRepository"><path codeLine="112" d="M825.75,225.1511 C797.07,257.5011 767.45,298.3611 752.5,341.6211 C729.01,409.5811 728.35,489.1811 734.69,556.0911 " fill="none" id="ReadResponseController-to-ResponseRepository" style="stroke:#181818;stroke-width:1.0;"/><polygon fill="#181818" points="735.2,561.3011,738.3059,551.9548,734.7138,556.3248,730.3438,552.7327,735.2,561.3011" style="stroke:#181818;stroke-width:1.0;"/><text fill="#000000" font-family="sans-serif" font-size="13" lengthAdjust="spacing" textLength="97" x="753.5" y="409.1494">change the state</text><text fill="#000000" font-family="sans-serif" font-size="13" lengthAdjust="spacing" textLength="89" x="759.5" y="426.4404">of the response</text></g><!--link ReadResponseController to ResponseRepository--><g id="link_ReadResponseController_ResponseRepository"><path codeLine="113" d="M896.39,225.4011 C892.91,292.4511 883.73,396.0411 859.5,482.6211 C852.63,507.1511 843.36,532.4311 833.24,556.6911 " fill="none" id="ReadResponseController-to-ResponseRepository-1" style="stroke:#181818;stroke-width:1.0;"/><polygon fill="#181818" points="831.21,561.5211,838.3891,554.7786,833.1503,556.9129,831.016,551.6741,831.21,561.5211" style="stroke:#181818;stroke-width:1.0;"/><text fill="#000000" font-family="sans-serif" font-size="13" lengthAdjust="spacing" textLength="107" x="890.5" y="409.1494">add a reason if the</text><text fill="#000000" font-family="sans-serif" font-size="13" lengthAdjust="spacing" textLength="119" x="886.5" y="426.4404">response is declined</text></g><!--link AuthenticationRepository to UserSession--><g id="link_AuthenticationRepository_UserSession"><path codeLine="115" d="M432.5,743.9411 C432.5,811.9111 432.5,945.8911 432.5,1016.8911 " fill="none" id="AuthenticationRepository-to-UserSession" style="stroke:#181818;stroke-width:1.0;"/><polygon fill="#181818" points="432.5,1021.9011,436.5,1012.9011,432.5,1016.9011,428.5,1012.9011,432.5,1021.9011" style="stroke:#181818;stroke-width:1.0;"/><text fill="#000000" font-family="sans-serif" font-size="13" lengthAdjust="spacing" textLength="21" x="433.5" y="885.6494">has</text><text fill="#000000" font-family="sans-serif" font-size="13" lengthAdjust="spacing" textLength="5" x="427.1016" y="1010.7701">*</text></g><!--link ClientRepository to Client--><g id="link_ClientRepository_Client"><path codeLine="116" d="M180.98,658.3811 C172.03,575.7911 151.79,389.0511 138.66,267.8711 " fill="none" id="ClientRepository-to-Client" style="stroke:#181818;stroke-width:1.0;"/><polygon fill="#181818" points="138.12,262.8711,135.1206,272.2521,138.6628,267.8415,143.0733,271.3837,138.12,262.8711" style="stroke:#181818;stroke-width:1.0;"/><text fill="#000000" font-family="sans-serif" font-size="13" lengthAdjust="spacing" textLength="49" x="163.5" y="417.6494">contains</text><text fill="#000000" font-family="sans-serif" font-size="13" lengthAdjust="spacing" textLength="5" x="133.7043" y="284.4012">*</text></g><!--link ResponseRepository to Response--><g id="link_ResponseRepository_Response"><path codeLine="117" d="M843.39,840.8511 C857.9,865.1311 873.04,890.4711 887.7,915.0011 " fill="none" id="ResponseRepository-to-Response" style="stroke:#181818;stroke-width:1.0;"/><polygon fill="#181818" points="890.43,919.5711,889.2678,909.791,887.8743,915.2736,882.3918,913.8801,890.43,919.5711" style="stroke:#181818;stroke-width:1.0;"/><text fill="#000000" font-family="sans-serif" font-size="13" lengthAdjust="spacing" textLength="49" x="869.5" y="885.6494">contains</text><text fill="#000000" font-family="sans-serif" font-size="13" lengthAdjust="spacing" textLength="5" x="880.5863" y="908.2081">*</text></g><!--SRC=[dLLDRzim3BtxLmWzPMi2T3ksGu0kxO00QpSq3NOfKAWo4sjr94DKscN5_lieMR9bvsFjBd54FLAFZnI5Zr9LtF0LgxXuv4kOsKq9p82mN2rBoB01OC5p_IpLaYruYUcEA3dYkRL6FgmjJ8LMC_aRs4cMMMafsdnsyl64tG3F6QSFLbeXi16RE3zs8VcIecIP3-DX4JEVlcIZZcMYbJMwBC4mqVpDxk_lisDM6Qbi17wLQE_Km2JBTuGHXTO84RG3S2u4LFQRkG1HIjKW1suFAn1oiRajoCnHgriTKBJxPnV_bkrBuBY4XY7UwaafGTb1JOpqtaLiU_E7j4LD884DgMREr65IQPHM6mcOd3zLIBKLTKgqFb_RWbX8mQtKgd7QnFruxFPEJV-L7WsjVUTHgTtM5ovu3entKBMnpM6oDePsvmXc1eY4I4z8pAv_rjYq2BcwpMcUmljfa8_hXa-rVKpjxRwOdEuDdpUNAoxB0RZVhN2CeipeHj1rKNm5sOXwa-uOaZB6NgzN3yHfX5f8Niv0h8sqcsWDRZvkiweAhQ27g9xpG2eqadSP-WE7gKUeo_VM4ajrJT1kz_PB5zM8ZJPcyLzKH53dMHZW-k4dZOqXi_2BVX5K3iQrfP2LOqScIxYsKOyPp_ChgXEDdS6g_Zhh4ozbJiZcxgLNmS1AFq6_qt1N3gxsGQd0xQorE99k6QfLiqqC3Ut4n_DFrdKYPq66Ph2zLWcNmzMRlLBzhAwPE3b4gVqWEaQmCmSC_-j9uHPUhn3iSCrPBFhDlg9Bl5nLrjzuAc9IeT6XweNYQPzePDIfO51_DEwz0-oKSNn4ojYbxzwH6FQWYn_coBHXUJsfAK81hM_MS-a5ILwRqz3ccEq1ZBnlEt79Wz939iEuPNgHTVQTmz67ertod_h7ZPFhRfV-nFgdmt-SiMzCfuvxjHYtjw4Lxh1okmZwPyzNpBS-krDwqItWMqDIi_hUSNU2oJhOdOhXcCJOA7cMxLN0I_J-A7rdA7J1CTigJ8I69ks8laKlWbFj6gd_0W00]--></g></svg>