<?xml version="1.0" encoding="us-ascii" standalone="no"?><svg xmlns="http://www.w3.org/2000/svg" xmlns:xlink="http://www.w3.org/1999/xlink" contentStyleType="text/css" height="1533px" preserveAspectRatio="none" style="width:1257px;height:1533px;background:#FFFFFF;" version="1.1" viewBox="0 0 1257 1533" width="1257px" zoomAndPan="magnify"><defs/><g><text fill="#000000" font-family="sans-serif" font-size="14" font-weight="bold" lengthAdjust="spacing" textLength="279" x="488.25" y="30.1074">User Story 016 - Sequence Diagram (SD)</text><rect fill="#FFFFFF" height="1299.3789" style="stroke:#181818;stroke-width:1.0;" width="10" x="36" y="133.2422"/><rect fill="#FFFFFF" height="31.291" style="stroke:#181818;stroke-width:1.0;" width="10" x="355" y="156.5332"/><rect fill="#FFFFFF" height="1213.5059" style="stroke:#181818;stroke-width:1.0;" width="10" x="355" y="219.1152"/><rect fill="#FFFFFF" height="1042.7207" style="stroke:#181818;stroke-width:1.0;" width="10" x="533" y="358.6094"/><rect fill="#FFFFFF" height="42.291" style="stroke:#181818;stroke-width:1.0;" width="10" x="538" y="397.9004"/><rect fill="#FFFFFF" height="31.291" style="stroke:#181818;stroke-width:1.0;" width="10" x="798" y="478.4824"/><rect fill="#FFFFFF" height="31.291" style="stroke:#181818;stroke-width:1.0;" width="10" x="798" y="666.2285"/><rect fill="#FFFFFF" height="31.291" style="stroke:#181818;stroke-width:1.0;" width="10" x="798" y="916.5566"/><rect fill="#FFFFFF" height="31.291" style="stroke:#181818;stroke-width:1.0;" width="10" x="905" y="541.0645"/><rect fill="#FFFFFF" height="31.291" style="stroke:#181818;stroke-width:1.0;" width="10" x="905" y="728.8105"/><rect fill="#FFFFFF" height="31.291" style="stroke:#181818;stroke-width:1.0;" width="10" x="905" y="979.1387"/><rect fill="#FFFFFF" height="31.291" style="stroke:#181818;stroke-width:1.0;" width="10" x="1038.5" y="603.6465"/><rect fill="#FFFFFF" height="31.291" style="stroke:#181818;stroke-width:1.0;" width="10" x="1038.5" y="1041.7207"/><rect fill="#FFFFFF" height="31.291" style="stroke:#181818;stroke-width:1.0;" width="10" x="1185" y="791.3926"/><rect fill="#FFFFFF" height="31.291" style="stroke:#181818;stroke-width:1.0;" width="10" x="1185" y="853.9746"/><rect fill="none" height="50.582" style="stroke:#000000;stroke-width:1.5;" width="424" x="10" y="234.1152"/><rect fill="none" height="150.8242" style="stroke:#000000;stroke-width:1.5;" width="689.5" x="439" y="1220.2148"/><line style="stroke:#181818;stroke-width:0.5;stroke-dasharray:5.0,5.0;" x1="41" x2="41" y1="123.2422" y2="1450.6211"/><line style="stroke:#181818;stroke-width:0.5;stroke-dasharray:5.0,5.0;" x1="360" x2="360" y1="123.2422" y2="1450.6211"/><line style="stroke:#181818;stroke-width:0.5;stroke-dasharray:5.0,5.0;" x1="538" x2="538" y1="323.5078" y2="1450.6211"/><line style="stroke:#181818;stroke-width:0.5;stroke-dasharray:5.0,5.0;" x1="802.5" x2="802.5" y1="123.2422" y2="1450.6211"/><line style="stroke:#181818;stroke-width:0.5;stroke-dasharray:5.0,5.0;" x1="909.5" x2="909.5" y1="123.2422" y2="1450.6211"/><line style="stroke:#181818;stroke-width:0.5;stroke-dasharray:5.0,5.0;" x1="1043.5" x2="1043.5" y1="1359.2285" y2="1450.6211"/><line style="stroke:#181818;stroke-width:0.5;stroke-dasharray:5.0,5.0;" x1="1189.5" x2="1189.5" y1="123.2422" y2="1450.6211"/><text fill="#000000" font-family="sans-serif" font-size="14" lengthAdjust="spacing" textLength="36" x="20" y="119.7285">Client</text><ellipse cx="41" cy="53.1211" fill="#E3E3E3" rx="8" ry="8" style="stroke:#181818;stroke-width:0.5;"/><path d="M41,61.1211 L41,88.1211 M28,69.1211 L54,69.1211 M41,88.1211 L28,103.1211 M41,88.1211 L54,103.1211 " fill="none" style="stroke:#181818;stroke-width:0.5;"/><text fill="#000000" font-family="sans-serif" font-size="14" lengthAdjust="spacing" textLength="36" x="20" y="1464.7285">Client</text><ellipse cx="41" cy="1476.7422" fill="#E3E3E3" rx="8" ry="8" style="stroke:#181818;stroke-width:0.5;"/><path d="M41,1484.7422 L41,1511.7422 M28,1492.7422 L54,1492.7422 M41,1511.7422 L28,1526.7422 M41,1511.7422 L54,1526.7422 " fill="none" style="stroke:#181818;stroke-width:0.5;"/><rect fill="#E3E3E3" height="32.6211" rx="2.5" ry="2.5" style="stroke:#181818;stroke-width:0.5;" width="128" x="296" y="89.6211"/><text fill="#000000" font-family="sans-serif" font-size="14" lengthAdjust="spacing" textLength="114" x="303" y="111.7285">:ReadResponseUI</text><rect fill="#E3E3E3" height="32.6211" rx="2.5" ry="2.5" style="stroke:#181818;stroke-width:0.5;" width="128" x="296" y="1449.6211"/><text fill="#000000" font-family="sans-serif" font-size="14" lengthAdjust="spacing" textLength="114" x="303" y="1471.7285">:ReadResponseUI</text><rect fill="#E3E3E3" height="32.6211" rx="2.5" ry="2.5" style="stroke:#181818;stroke-width:0.5;" width="178" x="449" y="1449.6211"/><text fill="#000000" font-family="sans-serif" font-size="14" lengthAdjust="spacing" textLength="164" x="456" y="1471.7285">:ReadResponseController</text><rect fill="#E3E3E3" height="32.6211" rx="2.5" ry="2.5" style="stroke:#181818;stroke-width:0.5;" width="97" x="754.5" y="89.6211"/><text fill="#000000" font-family="sans-serif" font-size="14" lengthAdjust="spacing" textLength="83" x="761.5" y="111.7285">:Repositories</text><rect fill="#E3E3E3" height="32.6211" rx="2.5" ry="2.5" style="stroke:#181818;stroke-width:0.5;" width="97" x="754.5" y="1449.6211"/><text fill="#000000" font-family="sans-serif" font-size="14" lengthAdjust="spacing" textLength="83" x="761.5" y="1471.7285">:Repositories</text><rect fill="#E3E3E3" height="51.2422" rx="2.5" ry="2.5" style="stroke:#181818;stroke-width:0.5;" width="97" x="861.5" y="71"/><text fill="#000000" font-family="sans-serif" font-size="14" lengthAdjust="spacing" textLength="78" x="871" y="93.1074">:repositories</text><text fill="#000000" font-family="sans-serif" font-size="14" lengthAdjust="spacing" textLength="83" x="868.5" y="111.7285">:Repositories</text><rect fill="#E3E3E3" height="51.2422" rx="2.5" ry="2.5" style="stroke:#181818;stroke-width:0.5;" width="97" x="861.5" y="1449.6211"/><text fill="#000000" font-family="sans-serif" font-size="14" lengthAdjust="spacing" textLength="78" x="871" y="1471.7285">:repositories</text><text fill="#000000" font-family="sans-serif" font-size="14" lengthAdjust="spacing" textLength="83" x="868.5" y="1490.3496">:Repositories</text><rect fill="#E3E3E3" height="32.6211" rx="2.5" ry="2.5" style="stroke:#181818;stroke-width:0.5;" width="150" x="968.5" y="1449.6211"/><text fill="#000000" font-family="sans-serif" font-size="14" lengthAdjust="spacing" textLength="136" x="975.5" y="1471.7285">:ResponseRepository</text><rect fill="#E3E3E3" height="51.2422" rx="2.5" ry="2.5" style="stroke:#181818;stroke-width:0.5;" width="123" x="1128.5" y="71"/><text fill="#000000" font-family="sans-serif" font-size="14" lengthAdjust="spacing" textLength="109" x="1135.5" y="93.1074">:clientRepository:</text><text fill="#000000" font-family="sans-serif" font-size="14" lengthAdjust="spacing" textLength="101" x="1139.5" y="111.7285">clientRepository</text><rect fill="#E3E3E3" height="51.2422" rx="2.5" ry="2.5" style="stroke:#181818;stroke-width:0.5;" width="123" x="1128.5" y="1449.6211"/><text fill="#000000" font-family="sans-serif" font-size="14" lengthAdjust="spacing" textLength="109" x="1135.5" y="1471.7285">:clientRepository:</text><text fill="#000000" font-family="sans-serif" font-size="14" lengthAdjust="spacing" textLength="101" x="1139.5" y="1490.3496">clientRepository</text><rect fill="#FFFFFF" height="1299.3789" style="stroke:#181818;stroke-width:1.0;" width="10" x="36" y="133.2422"/><rect fill="#FFFFFF" height="31.291" style="stroke:#181818;stroke-width:1.0;" width="10" x="355" y="156.5332"/><rect fill="#FFFFFF" height="1213.5059" style="stroke:#181818;stroke-width:1.0;" width="10" x="355" y="219.1152"/><rect fill="#FFFFFF" height="1042.7207" style="stroke:#181818;stroke-width:1.0;" width="10" x="533" y="358.6094"/><rect fill="#FFFFFF" height="42.291" style="stroke:#181818;stroke-width:1.0;" width="10" x="538" y="397.9004"/><rect fill="#FFFFFF" height="31.291" style="stroke:#181818;stroke-width:1.0;" width="10" x="798" y="478.4824"/><rect fill="#FFFFFF" height="31.291" style="stroke:#181818;stroke-width:1.0;" width="10" x="798" y="666.2285"/><rect fill="#FFFFFF" height="31.291" style="stroke:#181818;stroke-width:1.0;" width="10" x="798" y="916.5566"/><rect fill="#FFFFFF" height="31.291" style="stroke:#181818;stroke-width:1.0;" width="10" x="905" y="541.0645"/><rect fill="#FFFFFF" height="31.291" style="stroke:#181818;stroke-width:1.0;" width="10" x="905" y="728.8105"/><rect fill="#FFFFFF" height="31.291" style="stroke:#181818;stroke-width:1.0;" width="10" x="905" y="979.1387"/><rect fill="#FFFFFF" height="31.291" style="stroke:#181818;stroke-width:1.0;" width="10" x="1038.5" y="603.6465"/><rect fill="#FFFFFF" height="31.291" style="stroke:#181818;stroke-width:1.0;" width="10" x="1038.5" y="1041.7207"/><rect fill="#FFFFFF" height="31.291" style="stroke:#181818;stroke-width:1.0;" width="10" x="1185" y="791.3926"/><rect fill="#FFFFFF" height="31.291" style="stroke:#181818;stroke-width:1.0;" width="10" x="1185" y="853.9746"/><polygon fill="#181818" points="343,152.5332,353,156.5332,343,160.5332,347,156.5332" style="stroke:#181818;stroke-width:1.0;"/><line style="stroke:#181818;stroke-width:1.0;" x1="46" x2="349" y1="156.5332" y2="156.5332"/><text fill="#000000" font-family="sans-serif" font-size="13" font-weight="bold" lengthAdjust="spacing" textLength="7" x="53" y="151.2705">1</text><text fill="#000000" font-family="sans-serif" font-size="13" lengthAdjust="spacing" textLength="161" x="64" y="151.2705">chooses a response to read</text><polygon fill="#181818" points="57,183.8242,47,187.8242,57,191.8242,53,187.8242" style="stroke:#181818;stroke-width:1.0;"/><line style="stroke:#181818;stroke-width:1.0;stroke-dasharray:2.0,2.0;" x1="51" x2="359" y1="187.8242" y2="187.8242"/><text fill="#000000" font-family="sans-serif" font-size="13" font-weight="bold" lengthAdjust="spacing" textLength="7" x="63" y="182.5615">2</text><text fill="#000000" font-family="sans-serif" font-size="13" lengthAdjust="spacing" textLength="274" x="74" y="182.5615">requests acceptance or decline of the response</text><polygon fill="#181818" points="343,215.1152,353,219.1152,343,223.1152,347,219.1152" style="stroke:#181818;stroke-width:1.0;"/><line style="stroke:#181818;stroke-width:1.0;" x1="46" x2="349" y1="219.1152" y2="219.1152"/><text fill="#000000" font-family="sans-serif" font-size="13" font-weight="bold" lengthAdjust="spacing" textLength="7" x="53" y="213.8525">3</text><text fill="#000000" font-family="sans-serif" font-size="13" lengthAdjust="spacing" textLength="125" x="64" y="213.8525">accepts the response</text><path d="M10,234.1152 L71,234.1152 L71,243.4063 L61,253.4063 L10,253.4063 L10,234.1152 " fill="#EEEEEE" style="stroke:#000000;stroke-width:1.5;"/><rect fill="none" height="50.582" style="stroke:#000000;stroke-width:1.5;" width="424" x="10" y="234.1152"/><text fill="#000000" font-family="sans-serif" font-size="13" font-weight="bold" lengthAdjust="spacing" textLength="16" x="25" y="249.1436">alt</text><text fill="#000000" font-family="sans-serif" font-size="11" font-weight="bold" lengthAdjust="spacing" textLength="156" x="86" y="247.9854">[if the response is declined]</text><polygon fill="#181818" points="343,272.6973,353,276.6973,343,280.6973,347,276.6973" style="stroke:#181818;stroke-width:1.0;"/><line style="stroke:#181818;stroke-width:1.0;" x1="46" x2="349" y1="276.6973" y2="276.6973"/><text fill="#000000" font-family="sans-serif" font-size="13" font-weight="bold" lengthAdjust="spacing" textLength="7" x="53" y="271.4346">4</text><text fill="#000000" font-family="sans-serif" font-size="13" lengthAdjust="spacing" textLength="251" x="64" y="271.4346">writes the reason for declining the response</text><polygon fill="#181818" points="437,310.9883,447,314.9883,437,318.9883,441,314.9883" style="stroke:#181818;stroke-width:1.0;"/><line style="stroke:#181818;stroke-width:1.0;" x1="365" x2="443" y1="314.9883" y2="314.9883"/><text fill="#000000" font-family="sans-serif" font-size="13" font-weight="bold" lengthAdjust="spacing" textLength="7" x="372" y="309.7256">5</text><text fill="#000000" font-family="sans-serif" font-size="13" lengthAdjust="spacing" textLength="43" x="383" y="309.7256">creates</text><rect fill="#E3E3E3" height="32.6211" rx="2.5" ry="2.5" style="stroke:#181818;stroke-width:0.5;" width="178" x="449" y="291.6973"/><text fill="#000000" font-family="sans-serif" font-size="14" lengthAdjust="spacing" textLength="164" x="456" y="313.8047">:ReadResponseController</text><polygon fill="#181818" points="521,354.6094,531,358.6094,521,362.6094,525,358.6094" style="stroke:#181818;stroke-width:1.0;"/><line style="stroke:#181818;stroke-width:1.0;" x1="365" x2="527" y1="358.6094" y2="358.6094"/><text fill="#000000" font-family="sans-serif" font-size="13" font-weight="bold" lengthAdjust="spacing" textLength="7" x="372" y="353.3467">6</text><text fill="#000000" font-family="sans-serif" font-size="13" lengthAdjust="spacing" textLength="138" x="383" y="353.3467">getResponsesToClient()</text><line style="stroke:#181818;stroke-width:1.0;" x1="543" x2="590" y1="384.9004" y2="384.9004"/><line style="stroke:#181818;stroke-width:1.0;" x1="590" x2="590" y1="384.9004" y2="397.9004"/><line style="stroke:#181818;stroke-width:1.0;" x1="549" x2="590" y1="397.9004" y2="397.9004"/><polygon fill="#181818" points="559,393.9004,549,397.9004,559,401.9004,555,397.9004" style="stroke:#181818;stroke-width:1.0;"/><text fill="#000000" font-family="sans-serif" font-size="13" font-weight="bold" lengthAdjust="spacing" textLength="7" x="555" y="379.6377">7</text><text fill="#000000" font-family="sans-serif" font-size="13" lengthAdjust="spacing" textLength="116" x="566" y="379.6377">response.getClient()</text><line style="stroke:#181818;stroke-width:1.0;stroke-dasharray:2.0,2.0;" x1="548" x2="590" y1="439.1914" y2="439.1914"/><line style="stroke:#181818;stroke-width:1.0;stroke-dasharray:2.0,2.0;" x1="590" x2="590" y1="439.1914" y2="452.1914"/><line style="stroke:#181818;stroke-width:1.0;stroke-dasharray:2.0,2.0;" x1="543" x2="590" y1="452.1914" y2="452.1914"/><polygon fill="#181818" points="553,448.1914,543,452.1914,553,456.1914,549,452.1914" style="stroke:#181818;stroke-width:1.0;"/><text fill="#000000" font-family="sans-serif" font-size="13" font-weight="bold" lengthAdjust="spacing" textLength="7" x="555" y="433.9287">8</text><text fill="#000000" font-family="sans-serif" font-size="13" lengthAdjust="spacing" textLength="31" x="566" y="433.9287">client</text><polygon fill="#181818" points="786,474.4824,796,478.4824,786,482.4824,790,478.4824" style="stroke:#181818;stroke-width:1.0;"/><line style="stroke:#181818;stroke-width:1.0;" x1="543" x2="792" y1="478.4824" y2="478.4824"/><text fill="#000000" font-family="sans-serif" font-size="13" font-weight="bold" lengthAdjust="spacing" textLength="7" x="550" y="473.2197">9</text><text fill="#000000" font-family="sans-serif" font-size="13" lengthAdjust="spacing" textLength="75" x="561" y="473.2197">getInstance()</text><polygon fill="#181818" points="554,505.7734,544,509.7734,554,513.7734,550,509.7734" style="stroke:#181818;stroke-width:1.0;"/><line style="stroke:#181818;stroke-width:1.0;stroke-dasharray:2.0,2.0;" x1="548" x2="802" y1="509.7734" y2="509.7734"/><text fill="#000000" font-family="sans-serif" font-size="13" font-weight="bold" lengthAdjust="spacing" textLength="14" x="560" y="504.5107">10</text><text fill="#000000" font-family="sans-serif" font-size="13" lengthAdjust="spacing" textLength="67" x="578" y="504.5107">repositories</text><polygon fill="#181818" points="893,537.0645,903,541.0645,893,545.0645,897,541.0645" style="stroke:#181818;stroke-width:1.0;"/><line style="stroke:#181818;stroke-width:1.0;" x1="543" x2="899" y1="541.0645" y2="541.0645"/><text fill="#000000" font-family="sans-serif" font-size="13" font-weight="bold" lengthAdjust="spacing" textLength="14" x="550" y="535.8018">11</text><text fill="#000000" font-family="sans-serif" font-size="13" lengthAdjust="spacing" textLength="146" x="568" y="535.8018">getResponseRepository()</text><polygon fill="#181818" points="554,568.3555,544,572.3555,554,576.3555,550,572.3555" style="stroke:#181818;stroke-width:1.0;"/><line style="stroke:#181818;stroke-width:1.0;stroke-dasharray:2.0,2.0;" x1="548" x2="909" y1="572.3555" y2="572.3555"/><text fill="#000000" font-family="sans-serif" font-size="13" font-weight="bold" lengthAdjust="spacing" textLength="14" x="560" y="567.0928">12</text><text fill="#000000" font-family="sans-serif" font-size="13" lengthAdjust="spacing" textLength="115" x="578" y="567.0928">responseRepository</text><polygon fill="#181818" points="1026.5,599.6465,1036.5,603.6465,1026.5,607.6465,1030.5,603.6465" style="stroke:#181818;stroke-width:1.0;"/><line style="stroke:#181818;stroke-width:1.0;" x1="543" x2="1032.5" y1="603.6465" y2="603.6465"/><text fill="#000000" font-family="sans-serif" font-size="13" font-weight="bold" lengthAdjust="spacing" textLength="14" x="550" y="598.3838">13</text><text fill="#000000" font-family="sans-serif" font-size="13" lengthAdjust="spacing" textLength="91" x="568" y="598.3838">getResponses()</text><polygon fill="#181818" points="554,630.9375,544,634.9375,554,638.9375,550,634.9375" style="stroke:#181818;stroke-width:1.0;"/><line style="stroke:#181818;stroke-width:1.0;stroke-dasharray:2.0,2.0;" x1="548" x2="1042.5" y1="634.9375" y2="634.9375"/><text fill="#000000" font-family="sans-serif" font-size="13" font-weight="bold" lengthAdjust="spacing" textLength="14" x="560" y="629.6748">14</text><text fill="#000000" font-family="sans-serif" font-size="13" lengthAdjust="spacing" textLength="74" x="578" y="629.6748">messageList</text><polygon fill="#181818" points="786,662.2285,796,666.2285,786,670.2285,790,666.2285" style="stroke:#181818;stroke-width:1.0;"/><line style="stroke:#181818;stroke-width:1.0;" x1="543" x2="792" y1="666.2285" y2="666.2285"/><text fill="#000000" font-family="sans-serif" font-size="13" font-weight="bold" lengthAdjust="spacing" textLength="14" x="550" y="660.9658">15</text><text fill="#000000" font-family="sans-serif" font-size="13" lengthAdjust="spacing" textLength="75" x="568" y="660.9658">getInstance()</text><polygon fill="#181818" points="554,693.5195,544,697.5195,554,701.5195,550,697.5195" style="stroke:#181818;stroke-width:1.0;"/><line style="stroke:#181818;stroke-width:1.0;stroke-dasharray:2.0,2.0;" x1="548" x2="802" y1="697.5195" y2="697.5195"/><text fill="#000000" font-family="sans-serif" font-size="13" font-weight="bold" lengthAdjust="spacing" textLength="14" x="560" y="692.2568">16</text><text fill="#000000" font-family="sans-serif" font-size="13" lengthAdjust="spacing" textLength="67" x="578" y="692.2568">repositories</text><polygon fill="#181818" points="893,724.8105,903,728.8105,893,732.8105,897,728.8105" style="stroke:#181818;stroke-width:1.0;"/><line style="stroke:#181818;stroke-width:1.0;" x1="543" x2="899" y1="728.8105" y2="728.8105"/><text fill="#000000" font-family="sans-serif" font-size="13" font-weight="bold" lengthAdjust="spacing" textLength="14" x="550" y="723.5479">17</text><text fill="#000000" font-family="sans-serif" font-size="13" lengthAdjust="spacing" textLength="121" x="568" y="723.5479">getClientRepository()</text><polygon fill="#181818" points="554,756.1016,544,760.1016,554,764.1016,550,760.1016" style="stroke:#181818;stroke-width:1.0;"/><line style="stroke:#181818;stroke-width:1.0;stroke-dasharray:2.0,2.0;" x1="548" x2="909" y1="760.1016" y2="760.1016"/><text fill="#000000" font-family="sans-serif" font-size="13" font-weight="bold" lengthAdjust="spacing" textLength="14" x="560" y="754.8389">18</text><text fill="#000000" font-family="sans-serif" font-size="13" lengthAdjust="spacing" textLength="95" x="578" y="754.8389">ClientRepository</text><polygon fill="#181818" points="1173,787.3926,1183,791.3926,1173,795.3926,1177,791.3926" style="stroke:#181818;stroke-width:1.0;"/><line style="stroke:#181818;stroke-width:1.0;" x1="543" x2="1179" y1="791.3926" y2="791.3926"/><text fill="#000000" font-family="sans-serif" font-size="13" font-weight="bold" lengthAdjust="spacing" textLength="14" x="550" y="786.1299">19</text><text fill="#000000" font-family="sans-serif" font-size="13" lengthAdjust="spacing" textLength="66" x="568" y="786.1299">getClients()</text><polygon fill="#181818" points="554,818.6836,544,822.6836,554,826.6836,550,822.6836" style="stroke:#181818;stroke-width:1.0;"/><line style="stroke:#181818;stroke-width:1.0;stroke-dasharray:2.0,2.0;" x1="548" x2="1189" y1="822.6836" y2="822.6836"/><text fill="#000000" font-family="sans-serif" font-size="13" font-weight="bold" lengthAdjust="spacing" textLength="14" x="560" y="817.4209">20</text><text fill="#000000" font-family="sans-serif" font-size="13" lengthAdjust="spacing" textLength="52" x="578" y="817.4209">clientList</text><polygon fill="#181818" points="1173,849.9746,1183,853.9746,1173,857.9746,1177,853.9746" style="stroke:#181818;stroke-width:1.0;"/><line style="stroke:#181818;stroke-width:1.0;" x1="543" x2="1179" y1="853.9746" y2="853.9746"/><text fill="#000000" font-family="sans-serif" font-size="13" font-weight="bold" lengthAdjust="spacing" textLength="14" x="550" y="848.7119">21</text><text fill="#000000" font-family="sans-serif" font-size="13" lengthAdjust="spacing" textLength="208" x="568" y="848.7119">getClientByEmail(currentUserEmail)</text><polygon fill="#181818" points="554,881.2656,544,885.2656,554,889.2656,550,885.2656" style="stroke:#181818;stroke-width:1.0;"/><line style="stroke:#181818;stroke-width:1.0;stroke-dasharray:2.0,2.0;" x1="548" x2="1189" y1="885.2656" y2="885.2656"/><text fill="#000000" font-family="sans-serif" font-size="13" font-weight="bold" lengthAdjust="spacing" textLength="14" x="560" y="880.0029">22</text><text fill="#000000" font-family="sans-serif" font-size="13" lengthAdjust="spacing" textLength="73" x="578" y="880.0029">currentClient</text><polygon fill="#181818" points="786,912.5566,796,916.5566,786,920.5566,790,916.5566" style="stroke:#181818;stroke-width:1.0;"/><line style="stroke:#181818;stroke-width:1.0;" x1="543" x2="792" y1="916.5566" y2="916.5566"/><text fill="#000000" font-family="sans-serif" font-size="13" font-weight="bold" lengthAdjust="spacing" textLength="14" x="550" y="911.2939">23</text><text fill="#000000" font-family="sans-serif" font-size="13" lengthAdjust="spacing" textLength="75" x="568" y="911.2939">getInstance()</text><polygon fill="#181818" points="554,943.8477,544,947.8477,554,951.8477,550,947.8477" style="stroke:#181818;stroke-width:1.0;"/><line style="stroke:#181818;stroke-width:1.0;stroke-dasharray:2.0,2.0;" x1="548" x2="802" y1="947.8477" y2="947.8477"/><text fill="#000000" font-family="sans-serif" font-size="13" font-weight="bold" lengthAdjust="spacing" textLength="14" x="560" y="942.585">24</text><text fill="#000000" font-family="sans-serif" font-size="13" lengthAdjust="spacing" textLength="67" x="578" y="942.585">repositories</text><polygon fill="#181818" points="893,975.1387,903,979.1387,893,983.1387,897,979.1387" style="stroke:#181818;stroke-width:1.0;"/><line style="stroke:#181818;stroke-width:1.0;" x1="543" x2="899" y1="979.1387" y2="979.1387"/><text fill="#000000" font-family="sans-serif" font-size="13" font-weight="bold" lengthAdjust="spacing" textLength="14" x="550" y="973.876">25</text><text fill="#000000" font-family="sans-serif" font-size="13" lengthAdjust="spacing" textLength="146" x="568" y="973.876">getResponseRepository()</text><polygon fill="#181818" points="554,1006.4297,544,1010.4297,554,1014.4297,550,1010.4297" style="stroke:#181818;stroke-width:1.0;"/><line style="stroke:#181818;stroke-width:1.0;stroke-dasharray:2.0,2.0;" x1="548" x2="909" y1="1010.4297" y2="1010.4297"/><text fill="#000000" font-family="sans-serif" font-size="13" font-weight="bold" lengthAdjust="spacing" textLength="14" x="560" y="1005.167">26</text><text fill="#000000" font-family="sans-serif" font-size="13" lengthAdjust="spacing" textLength="115" x="578" y="1005.167">responseRepository</text><polygon fill="#181818" points="1026.5,1037.7207,1036.5,1041.7207,1026.5,1045.7207,1030.5,1041.7207" style="stroke:#181818;stroke-width:1.0;"/><line style="stroke:#181818;stroke-width:1.0;" x1="543" x2="1032.5" y1="1041.7207" y2="1041.7207"/><text fill="#000000" font-family="sans-serif" font-size="13" font-weight="bold" lengthAdjust="spacing" textLength="14" x="550" y="1036.458">27</text><text fill="#000000" font-family="sans-serif" font-size="13" lengthAdjust="spacing" textLength="91" x="568" y="1036.458">getResponses()</text><polygon fill="#181818" points="554,1069.0117,544,1073.0117,554,1077.0117,550,1073.0117" style="stroke:#181818;stroke-width:1.0;"/><line style="stroke:#181818;stroke-width:1.0;stroke-dasharray:2.0,2.0;" x1="548" x2="1042.5" y1="1073.0117" y2="1073.0117"/><text fill="#000000" font-family="sans-serif" font-size="13" font-weight="bold" lengthAdjust="spacing" textLength="14" x="560" y="1067.749">28</text><text fill="#000000" font-family="sans-serif" font-size="13" lengthAdjust="spacing" textLength="74" x="578" y="1067.749">responseList</text><line style="stroke:#181818;stroke-width:1.0;" x1="543" x2="585" y1="1104.3027" y2="1104.3027"/><line style="stroke:#181818;stroke-width:1.0;" x1="585" x2="585" y1="1104.3027" y2="1117.3027"/><line style="stroke:#181818;stroke-width:1.0;" x1="544" x2="585" y1="1117.3027" y2="1117.3027"/><polygon fill="#181818" points="554,1113.3027,544,1117.3027,554,1121.3027,550,1117.3027" style="stroke:#181818;stroke-width:1.0;"/><text fill="#000000" font-family="sans-serif" font-size="13" font-weight="bold" lengthAdjust="spacing" textLength="14" x="550" y="1099.04">29</text><text fill="#000000" font-family="sans-serif" font-size="13" lengthAdjust="spacing" textLength="160" x="568" y="1099.04">responseList.add(response)</text><line style="stroke:#181818;stroke-width:1.0;" x1="543" x2="585" y1="1148.5938" y2="1148.5938"/><line style="stroke:#181818;stroke-width:1.0;" x1="585" x2="585" y1="1148.5938" y2="1161.5938"/><line style="stroke:#181818;stroke-width:1.0;" x1="544" x2="585" y1="1161.5938" y2="1161.5938"/><polygon fill="#181818" points="554,1157.5938,544,1161.5938,554,1165.5938,550,1161.5938" style="stroke:#181818;stroke-width:1.0;"/><text fill="#000000" font-family="sans-serif" font-size="13" font-weight="bold" lengthAdjust="spacing" textLength="14" x="550" y="1143.3311">30</text><text fill="#000000" font-family="sans-serif" font-size="13" lengthAdjust="spacing" textLength="223" x="568" y="1143.3311">changeResponse(Response response)</text><polygon fill="#181818" points="956.5,1188.8848,966.5,1192.8848,956.5,1196.8848,960.5,1192.8848" style="stroke:#181818;stroke-width:1.0;"/><line style="stroke:#181818;stroke-width:1.0;" x1="543" x2="962.5" y1="1192.8848" y2="1192.8848"/><text fill="#000000" font-family="sans-serif" font-size="13" font-weight="bold" lengthAdjust="spacing" textLength="14" x="550" y="1187.6221">31</text><text fill="#000000" font-family="sans-serif" font-size="13" lengthAdjust="spacing" textLength="179" x="568" y="1187.6221">response.setState("Accepted")</text><rect fill="#E3E3E3" height="32.6211" rx="2.5" ry="2.5" style="stroke:#181818;stroke-width:0.5;" width="150" x="968.5" y="1169.5938"/><text fill="#000000" font-family="sans-serif" font-size="14" lengthAdjust="spacing" textLength="136" x="975.5" y="1191.7012">:ResponseRepository</text><path d="M439,1220.2148 L500,1220.2148 L500,1229.5059 L490,1239.5059 L439,1239.5059 L439,1220.2148 " fill="#EEEEEE" style="stroke:#000000;stroke-width:1.5;"/><rect fill="none" height="150.8242" style="stroke:#000000;stroke-width:1.5;" width="689.5" x="439" y="1220.2148"/><text fill="#000000" font-family="sans-serif" font-size="13" font-weight="bold" lengthAdjust="spacing" textLength="16" x="454" y="1235.2432">alt</text><text fill="#000000" font-family="sans-serif" font-size="11" font-weight="bold" lengthAdjust="spacing" textLength="156" x="515" y="1234.085">[if the response is declined]</text><line style="stroke:#181818;stroke-width:1.0;" x1="543" x2="585" y1="1262.7969" y2="1262.7969"/><line style="stroke:#181818;stroke-width:1.0;" x1="585" x2="585" y1="1262.7969" y2="1275.7969"/><line style="stroke:#181818;stroke-width:1.0;" x1="544" x2="585" y1="1275.7969" y2="1275.7969"/><polygon fill="#181818" points="554,1271.7969,544,1275.7969,554,1279.7969,550,1275.7969" style="stroke:#181818;stroke-width:1.0;"/><text fill="#000000" font-family="sans-serif" font-size="13" font-weight="bold" lengthAdjust="spacing" textLength="14" x="550" y="1257.5342">32</text><text fill="#000000" font-family="sans-serif" font-size="13" lengthAdjust="spacing" textLength="171" x="568" y="1257.5342">changeResponseWithReason</text><polygon fill="#181818" points="956.5,1303.0879,966.5,1307.0879,956.5,1311.0879,960.5,1307.0879" style="stroke:#181818;stroke-width:1.0;"/><line style="stroke:#181818;stroke-width:1.0;" x1="543" x2="962.5" y1="1307.0879" y2="1307.0879"/><text fill="#000000" font-family="sans-serif" font-size="13" font-weight="bold" lengthAdjust="spacing" textLength="14" x="550" y="1301.8252">33</text><text fill="#000000" font-family="sans-serif" font-size="13" lengthAdjust="spacing" textLength="174" x="568" y="1301.8252">response.setState("Declined")</text><rect fill="#E3E3E3" height="32.6211" rx="2.5" ry="2.5" style="stroke:#181818;stroke-width:0.5;" width="150" x="968.5" y="1283.7969"/><text fill="#000000" font-family="sans-serif" font-size="14" lengthAdjust="spacing" textLength="136" x="975.5" y="1305.9043">:ResponseRepository</text><polygon fill="#181818" points="956.5,1346.709,966.5,1350.709,956.5,1354.709,960.5,1350.709" style="stroke:#181818;stroke-width:1.0;"/><line style="stroke:#181818;stroke-width:1.0;" x1="543" x2="962.5" y1="1350.709" y2="1350.709"/><text fill="#000000" font-family="sans-serif" font-size="13" font-weight="bold" lengthAdjust="spacing" textLength="14" x="550" y="1345.4463">34</text><text fill="#000000" font-family="sans-serif" font-size="13" lengthAdjust="spacing" textLength="166" x="568" y="1345.4463">response.setReason(reason)</text><rect fill="#E3E3E3" height="32.6211" rx="2.5" ry="2.5" style="stroke:#181818;stroke-width:0.5;" width="150" x="968.5" y="1327.418"/><text fill="#000000" font-family="sans-serif" font-size="14" lengthAdjust="spacing" textLength="136" x="975.5" y="1349.5254">:ResponseRepository</text><polygon fill="#181818" points="376,1397.3301,366,1401.3301,376,1405.3301,372,1401.3301" style="stroke:#181818;stroke-width:1.0;"/><line style="stroke:#181818;stroke-width:1.0;stroke-dasharray:2.0,2.0;" x1="370" x2="537" y1="1401.3301" y2="1401.3301"/><text fill="#000000" font-family="sans-serif" font-size="13" font-weight="bold" lengthAdjust="spacing" textLength="14" x="382" y="1396.0674">35</text><text fill="#000000" font-family="sans-serif" font-size="13" lengthAdjust="spacing" textLength="106" x="400" y="1396.0674">operation success</text><polygon fill="#181818" points="52,1428.6211,42,1432.6211,52,1436.6211,48,1432.6211" style="stroke:#181818;stroke-width:1.0;"/><line style="stroke:#181818;stroke-width:1.0;stroke-dasharray:2.0,2.0;" x1="46" x2="359" y1="1432.6211" y2="1432.6211"/><text fill="#000000" font-family="sans-serif" font-size="13" font-weight="bold" lengthAdjust="spacing" textLength="14" x="58" y="1427.3584">36</text><text fill="#000000" font-family="sans-serif" font-size="13" lengthAdjust="spacing" textLength="158" x="76" y="1427.3584">displays operation success</text><!--SRC=[xLPBZzem4BxxLrYSmagisaiF75RQGWz872eUwcKlhZE0jOcTUanN_FjER4ASEB0FgOTAFM6S-RxvvfK9FYjT2IjANXfjvC6Q4hYpHs1uUL89-Ipsi7Qd0hW5wOJU5x417aHkNfJUyvqe41Xpof7f5i7ojJFsn3zz_i8dV0s_Zg0byBaI-ngOhUTZniJH6NqiVuAbioHxFfeL2hGRSO4y71bvSaggIcZ7HzCLY7m5M1cDi5ruk-tYXitCQ6TDKO0Dd9lLCh6k32fohW2zpUNYj5PrlAIn1x4Hv4cd3D-NZvl4Iz3JafzzzQzxEEcJq3wUFkd-LPIiYAPEgFej73HvPE6NJnueOrCk3yOW81TKsA21EqDdaRT8oYpRBlY486Vmb2oebEW8A2LKr15KLIfS3YHBqt77tG4kd2o73bkiWSW21tOX7O0e75TTJgwmSPVtWdgnoa539z1elhjegxkqumTqpj9O7toFtDsHEaaSH1TTq-KUN5Cqt9ZWFXj7sQuxZ7dZ5jJul2Vq5KX0j91GvJX_NUQ1BWtg5XfzLM8FGotDXXWQ0RNajgbZ5ODKZQYwyRivQirZFNv0cBUEFIQp4FaDa3RwlcslDDte4s8sG10blmH4Ul4j5Rfkx2dHFrAF_llXrMeaBvIhjUXRnWuxTKZVKGaq6O1-2GOutY3Zw-bRALIHoQErzBVUJ_xYu-82qImTqglw_W_iNnpOHifx9dO0UY_oF6iknecfFD0743ISMNFWBU9wk7wZNFO0Wbix4fYD7lqAX7mqViEokoNdXtA7bLzw7r0nFxiOlIk4u2uBgtOS5kfbZ_a5RogmmYbgL3nIe8ZfGkjyO4nvhh0gn0blGsbR9qF76Fi3]--></g></svg>