<?xml version="1.0" encoding="us-ascii" standalone="no"?><svg xmlns="http://www.w3.org/2000/svg" xmlns:xlink="http://www.w3.org/1999/xlink" contentStyleType="text/css" height="621.56px" preserveAspectRatio="none" style="width:398px;height:621px;background:#FFFFFF;" version="1.1" viewBox="0 0 398 621" width="398.52px" zoomAndPan="magnify"><defs/><g><text fill="#000000" font-family="sans-serif" font-size="5.74" font-weight="bold" lengthAdjust="spacing" textLength="133.66" x="129.56" y="10.294">US013 List Employees by Store - Class Diagram</text><!--class NetworkManager--><g id="elem_NetworkManager"><rect codeLine="14" fill="#F1F1F1" height="42.5839" id="NetworkManager" rx="1.025" ry="1.025" style="stroke:#181818;stroke-width:0.205;" width="56.58" x="2.87" y="19.1146"/><ellipse cx="9.02" cy="25.6746" fill="#ADD1B2" rx="4.51" ry="4.51" style="stroke:#181818;stroke-width:0.41;"/><path d="M10.1539,23.9834 Q10.218,23.8937 10.2948,23.8489 Q10.3717,23.804 10.4614,23.804 Q10.6152,23.804 10.7113,23.9129 Q10.8073,24.0154 10.8073,24.2653 L10.8073,24.8611 Q10.8073,25.1109 10.7113,25.2198 Q10.6152,25.3287 10.4614,25.3287 Q10.3205,25.3287 10.2372,25.2454 Q10.1539,25.1686 10.1091,24.9571 Q10.0898,24.8098 10.013,24.7329 Q9.8784,24.5792 9.6286,24.4895 Q9.3788,24.3998 9.1225,24.3998 Q8.8086,24.3998 8.5459,24.5343 Q8.2897,24.6689 8.0847,24.9764 Q7.8861,25.2839 7.8861,25.7067 L7.8861,26.1551 Q7.8861,26.6612 8.2512,27.0007 Q8.6164,27.3339 9.2698,27.3339 Q9.6542,27.3339 9.9233,27.2314 Q10.0834,27.1673 10.2564,26.9879 Q10.3653,26.879 10.423,26.847 Q10.487,26.815 10.5703,26.815 Q10.7048,26.815 10.8073,26.9239 Q10.9163,27.0264 10.9163,27.1673 Q10.9163,27.3082 10.7753,27.4748 Q10.5703,27.7118 10.2436,27.8464 Q9.8016,28.0321 9.2698,28.0321 Q8.6484,28.0321 8.1552,27.7759 Q7.7516,27.5709 7.4697,27.1353 Q7.1878,26.6932 7.1878,26.1679 L7.1878,25.6939 Q7.1878,25.1493 7.4377,24.6817 Q7.6939,24.2076 8.1423,23.9578 Q8.5908,23.7015 9.0969,23.7015 Q9.398,23.7015 9.6606,23.772 Q9.9297,23.8361 10.1539,23.9834 Z " fill="#000000"/><text fill="#000000" font-family="sans-serif" font-size="5.74" lengthAdjust="spacing" textLength="43.46" x="14.76" y="28.0514">NetworkManager</text><line style="stroke:#181818;stroke-width:0.205;" x1="3.28" x2="59.04" y1="32.2346" y2="32.2346"/><text fill="#000000" font-family="sans-serif" font-size="5.74" lengthAdjust="spacing" textLength="16.4" x="5.33" y="40.0687">-name</text><text fill="#000000" font-family="sans-serif" font-size="5.74" lengthAdjust="spacing" textLength="15.58" x="5.33" y="47.7033">-email</text><text fill="#000000" font-family="sans-serif" font-size="5.74" lengthAdjust="spacing" textLength="26.65" x="5.33" y="55.338">-password</text><line style="stroke:#181818;stroke-width:0.205;" x1="3.28" x2="59.04" y1="58.4186" y2="58.4186"/></g><!--class StoreRepository--><g id="elem_StoreRepository"><rect codeLine="20" fill="#F1F1F1" height="34.9493" id="StoreRepository" rx="1.025" ry="1.025" style="stroke:#181818;stroke-width:0.205;" width="70.11" x="108.035" y="258.5546"/><ellipse cx="121.0115" cy="265.1146" fill="#ADD1B2" rx="4.51" ry="4.51" style="stroke:#181818;stroke-width:0.41;"/><path d="M122.1454,263.4234 Q122.2095,263.3337 122.2863,263.2889 Q122.3632,263.244 122.4529,263.244 Q122.6067,263.244 122.7027,263.3529 Q122.7988,263.4554 122.7988,263.7053 L122.7988,264.3011 Q122.7988,264.5509 122.7027,264.6598 Q122.6067,264.7687 122.4529,264.7687 Q122.312,264.7687 122.2287,264.6854 Q122.1454,264.6086 122.1006,264.3971 Q122.0813,264.2498 122.0045,264.1729 Q121.8699,264.0192 121.6201,263.9295 Q121.3702,263.8398 121.114,263.8398 Q120.8001,263.8398 120.5374,263.9743 Q120.2812,264.1089 120.0762,264.4164 Q119.8776,264.7239 119.8776,265.1467 L119.8776,265.5951 Q119.8776,266.1012 120.2427,266.4407 Q120.6079,266.7739 121.2613,266.7739 Q121.6457,266.7739 121.9148,266.6714 Q122.0749,266.6073 122.2479,266.4279 Q122.3568,266.319 122.4145,266.287 Q122.4785,266.255 122.5618,266.255 Q122.6963,266.255 122.7988,266.3639 Q122.9077,266.4664 122.9077,266.6073 Q122.9077,266.7482 122.7668,266.9148 Q122.5618,267.1518 122.2351,267.2864 Q121.7931,267.4721 121.2613,267.4721 Q120.6399,267.4721 120.1467,267.2159 Q119.7431,267.0109 119.4612,266.5753 Q119.1793,266.1332 119.1793,265.6079 L119.1793,265.1339 Q119.1793,264.5893 119.4292,264.1217 Q119.6854,263.6476 120.1338,263.3978 Q120.5823,263.1415 121.0884,263.1415 Q121.3895,263.1415 121.6521,263.212 Q121.9212,263.2761 122.1454,263.4234 Z " fill="#000000"/><text fill="#000000" font-family="sans-serif" font-size="5.74" lengthAdjust="spacing" textLength="41.82" x="128.2685" y="267.4914">StoreRepository</text><line style="stroke:#181818;stroke-width:0.205;" x1="108.445" x2="177.735" y1="271.6746" y2="271.6746"/><text fill="#000000" font-family="sans-serif" font-size="5.74" lengthAdjust="spacing" textLength="63.14" x="110.495" y="279.5087">-List&lt;Store&gt; listOfStores</text><line style="stroke:#181818;stroke-width:0.205;" x1="108.445" x2="177.735" y1="282.5893" y2="282.5893"/><text fill="#000000" font-family="sans-serif" font-size="5.74" lengthAdjust="spacing" textLength="65.19" x="110.495" y="290.4233">+getStoreByName(name)</text></g><!--class Store--><g id="elem_Store"><rect codeLine="26" fill="#F1F1F1" height="65.4879" id="Store" rx="1.025" ry="1.025" style="stroke:#181818;stroke-width:0.205;" width="69.29" x="36.695" y="340.9646"/><ellipse cx="62.6275" cy="347.5246" fill="#ADD1B2" rx="4.51" ry="4.51" style="stroke:#181818;stroke-width:0.41;"/><path d="M63.7614,345.8334 Q63.8255,345.7437 63.9023,345.6989 Q63.9792,345.654 64.0689,345.654 Q64.2227,345.654 64.3188,345.7629 Q64.4148,345.8654 64.4148,346.1153 L64.4148,346.7111 Q64.4148,346.9609 64.3188,347.0698 Q64.2227,347.1787 64.0689,347.1787 Q63.928,347.1787 63.8447,347.0954 Q63.7614,347.0186 63.7166,346.8071 Q63.6973,346.6598 63.6205,346.5829 Q63.4859,346.4292 63.2361,346.3395 Q62.9863,346.2498 62.73,346.2498 Q62.4161,346.2498 62.1534,346.3843 Q61.8972,346.5189 61.6922,346.8264 Q61.4936,347.1339 61.4936,347.5567 L61.4936,348.0051 Q61.4936,348.5112 61.8587,348.8507 Q62.2239,349.1839 62.8773,349.1839 Q63.2617,349.1839 63.5308,349.0814 Q63.6909,349.0173 63.8639,348.8379 Q63.9728,348.729 64.0305,348.697 Q64.0945,348.665 64.1778,348.665 Q64.3123,348.665 64.4148,348.7739 Q64.5237,348.8764 64.5237,349.0173 Q64.5237,349.1582 64.3828,349.3248 Q64.1778,349.5618 63.8511,349.6964 Q63.4091,349.8821 62.8773,349.8821 Q62.2559,349.8821 61.7627,349.6259 Q61.3591,349.4209 61.0772,348.9853 Q60.7953,348.5432 60.7953,348.0179 L60.7953,347.5439 Q60.7953,346.9993 61.0452,346.5317 Q61.3014,346.0576 61.7498,345.8078 Q62.1983,345.5515 62.7044,345.5515 Q63.0055,345.5515 63.2681,345.622 Q63.5372,345.6861 63.7614,345.8334 Z " fill="#000000"/><text fill="#000000" font-family="sans-serif" font-size="5.74" lengthAdjust="spacing" textLength="13.94" x="71.0325" y="349.9014">Store</text><line style="stroke:#181818;stroke-width:0.205;" x1="37.105" x2="105.575" y1="354.0846" y2="354.0846"/><text fill="#000000" font-family="sans-serif" font-size="5.74" lengthAdjust="spacing" textLength="46.74" x="39.155" y="361.9187">-String storeName</text><text fill="#000000" font-family="sans-serif" font-size="5.74" lengthAdjust="spacing" textLength="39.77" x="39.155" y="369.5533">-String address</text><text fill="#000000" font-family="sans-serif" font-size="5.74" lengthAdjust="spacing" textLength="55.35" x="39.155" y="377.188">-String phoneNumber</text><text fill="#000000" font-family="sans-serif" font-size="5.74" lengthAdjust="spacing" textLength="14.35" x="39.155" y="384.8226">-int id</text><text fill="#000000" font-family="sans-serif" font-size="5.74" lengthAdjust="spacing" textLength="32.39" x="39.155" y="392.4573">-String email</text><line style="stroke:#181818;stroke-width:0.205;" x1="37.105" x2="105.575" y1="395.5379" y2="395.5379"/><text fill="#000000" font-family="sans-serif" font-size="5.74" lengthAdjust="spacing" textLength="64.37" x="39.155" y="403.3719">+compareTo(otherStore)</text></g><!--class EmployeeRepository--><g id="elem_EmployeeRepository"><rect codeLine="36" fill="#F1F1F1" height="27.3146" id="EmployeeRepository" rx="1.025" ry="1.025" style="stroke:#181818;stroke-width:0.205;" width="91.02" x="248.87" y="262.2446"/><ellipse cx="266.09" cy="268.8046" fill="#ADD1B2" rx="4.51" ry="4.51" style="stroke:#181818;stroke-width:0.41;"/><path d="M267.2239,267.1134 Q267.288,267.0237 267.3648,266.9789 Q267.4417,266.934 267.5314,266.934 Q267.6852,266.934 267.7813,267.0429 Q267.8773,267.1454 267.8773,267.3953 L267.8773,267.9911 Q267.8773,268.2409 267.7813,268.3498 Q267.6852,268.4587 267.5314,268.4587 Q267.3905,268.4587 267.3072,268.3754 Q267.2239,268.2986 267.1791,268.0871 Q267.1598,267.9398 267.083,267.8629 Q266.9484,267.7092 266.6986,267.6195 Q266.4487,267.5298 266.1925,267.5298 Q265.8786,267.5298 265.6159,267.6643 Q265.3597,267.7989 265.1547,268.1064 Q264.9561,268.4139 264.9561,268.8367 L264.9561,269.2851 Q264.9561,269.7912 265.3212,270.1307 Q265.6864,270.4639 266.3398,270.4639 Q266.7242,270.4639 266.9933,270.3614 Q267.1534,270.2973 267.3264,270.1179 Q267.4353,270.009 267.493,269.977 Q267.557,269.945 267.6403,269.945 Q267.7748,269.945 267.8773,270.0539 Q267.9863,270.1564 267.9863,270.2973 Q267.9863,270.4382 267.8453,270.6048 Q267.6403,270.8418 267.3136,270.9764 Q266.8716,271.1621 266.3398,271.1621 Q265.7184,271.1621 265.2252,270.9059 Q264.8216,270.7009 264.5397,270.2653 Q264.2578,269.8232 264.2578,269.2979 L264.2578,268.8239 Q264.2578,268.2793 264.5077,267.8117 Q264.7639,267.3376 265.2123,267.0878 Q265.6608,266.8315 266.1669,266.8315 Q266.468,266.8315 266.7306,266.902 Q266.9997,266.9661 267.2239,267.1134 Z " fill="#000000"/><text fill="#000000" font-family="sans-serif" font-size="5.74" lengthAdjust="spacing" textLength="53.3" x="274.29" y="271.1814">EmployeeRepository</text><line style="stroke:#181818;stroke-width:0.205;" x1="249.28" x2="339.48" y1="275.3646" y2="275.3646"/><text fill="#000000" font-family="sans-serif" font-size="5.74" lengthAdjust="spacing" textLength="86.1" x="251.33" y="283.1987">-List&lt;Employee&gt; listOfEmployees</text><line style="stroke:#181818;stroke-width:0.205;" x1="249.28" x2="339.48" y1="286.2793" y2="286.2793"/></g><!--class Employee--><g id="elem_Employee"><rect codeLine="41" fill="#F1F1F1" height="96.0265" id="Employee" rx="1.025" ry="1.025" style="stroke:#181818;stroke-width:0.205;" width="80.77" x="283.515" y="325.7946"/><ellipse cx="309.4475" cy="332.3546" fill="#ADD1B2" rx="4.51" ry="4.51" style="stroke:#181818;stroke-width:0.41;"/><path d="M310.5814,330.6634 Q310.6455,330.5737 310.7223,330.5289 Q310.7992,330.484 310.8889,330.484 Q311.0427,330.484 311.1387,330.5929 Q311.2348,330.6954 311.2348,330.9453 L311.2348,331.5411 Q311.2348,331.7909 311.1387,331.8998 Q311.0427,332.0087 310.8889,332.0087 Q310.748,332.0087 310.6647,331.9254 Q310.5814,331.8486 310.5366,331.6371 Q310.5173,331.4898 310.4405,331.4129 Q310.3059,331.2592 310.0561,331.1695 Q309.8063,331.0798 309.55,331.0798 Q309.2361,331.0798 308.9734,331.2143 Q308.7172,331.3489 308.5122,331.6564 Q308.3136,331.9639 308.3136,332.3867 L308.3136,332.8351 Q308.3136,333.3412 308.6788,333.6807 Q309.0439,334.0139 309.6973,334.0139 Q310.0817,334.0139 310.3508,333.9114 Q310.5109,333.8473 310.6839,333.6679 Q310.7928,333.559 310.8505,333.527 Q310.9145,333.495 310.9978,333.495 Q311.1323,333.495 311.2348,333.6039 Q311.3438,333.7064 311.3438,333.8473 Q311.3438,333.9882 311.2028,334.1548 Q310.9978,334.3918 310.6711,334.5264 Q310.2291,334.7121 309.6973,334.7121 Q309.0759,334.7121 308.5827,334.4559 Q308.1791,334.2509 307.8972,333.8153 Q307.6153,333.3732 307.6153,332.8479 L307.6153,332.3739 Q307.6153,331.8293 307.8652,331.3617 Q308.1214,330.8876 308.5698,330.6378 Q309.0183,330.3815 309.5244,330.3815 Q309.8255,330.3815 310.0881,330.452 Q310.3572,330.5161 310.5814,330.6634 Z " fill="#000000"/><text fill="#000000" font-family="sans-serif" font-size="5.74" lengthAdjust="spacing" textLength="25.42" x="317.8525" y="334.7314">Employee</text><line style="stroke:#181818;stroke-width:0.205;" x1="283.925" x2="363.875" y1="338.9146" y2="338.9146"/><text fill="#000000" font-family="sans-serif" font-size="5.74" lengthAdjust="spacing" textLength="32.39" x="285.975" y="346.7487">-String email</text><text fill="#000000" font-family="sans-serif" font-size="5.74" lengthAdjust="spacing" textLength="33.21" x="285.975" y="354.3833">-String name</text><text fill="#000000" font-family="sans-serif" font-size="5.74" lengthAdjust="spacing" textLength="28.7" x="285.975" y="362.018">-String role</text><text fill="#000000" font-family="sans-serif" font-size="5.74" lengthAdjust="spacing" textLength="55.35" x="285.975" y="369.6526">-String phoneNumber</text><text fill="#000000" font-family="sans-serif" font-size="5.74" lengthAdjust="spacing" textLength="39.77" x="285.975" y="377.2873">-String address</text><text fill="#000000" font-family="sans-serif" font-size="5.74" lengthAdjust="spacing" textLength="31.98" x="285.975" y="384.9219">-String store</text><text fill="#000000" font-family="sans-serif" font-size="5.74" lengthAdjust="spacing" textLength="35.67" x="285.975" y="392.5566">-int ccNumber</text><text fill="#000000" font-family="sans-serif" font-size="5.74" lengthAdjust="spacing" textLength="37.31" x="285.975" y="400.1912">-int taxNumber</text><text fill="#000000" font-family="sans-serif" font-size="5.74" lengthAdjust="spacing" textLength="43.46" x="285.975" y="407.8259">-String password</text><line style="stroke:#181818;stroke-width:0.205;" x1="283.925" x2="363.875" y1="410.9065" y2="410.9065"/><text fill="#000000" font-family="sans-serif" font-size="5.74" lengthAdjust="spacing" textLength="75.85" x="285.975" y="418.7405">+compareTo(otherEmployee)</text></g><!--class ListEveryEmployeeUI--><g id="elem_ListEveryEmployeeUI"><rect codeLine="55" fill="#F1F1F1" height="42.5839" id="ListEveryEmployeeUI" rx="1.025" ry="1.025" style="stroke:#181818;stroke-width:0.205;" width="113.16" x="167.28" y="19.1146"/><ellipse cx="195.0575" cy="25.6746" fill="#ADD1B2" rx="4.51" ry="4.51" style="stroke:#181818;stroke-width:0.41;"/><path d="M196.1914,23.9834 Q196.2555,23.8937 196.3323,23.8489 Q196.4092,23.804 196.4989,23.804 Q196.6527,23.804 196.7488,23.9129 Q196.8448,24.0154 196.8448,24.2653 L196.8448,24.8611 Q196.8448,25.1109 196.7488,25.2198 Q196.6527,25.3287 196.4989,25.3287 Q196.358,25.3287 196.2747,25.2454 Q196.1914,25.1686 196.1466,24.9571 Q196.1273,24.8098 196.0505,24.7329 Q195.9159,24.5792 195.6661,24.4895 Q195.4163,24.3998 195.16,24.3998 Q194.8461,24.3998 194.5834,24.5343 Q194.3272,24.6689 194.1222,24.9764 Q193.9236,25.2839 193.9236,25.7067 L193.9236,26.1551 Q193.9236,26.6612 194.2888,27.0007 Q194.6539,27.3339 195.3073,27.3339 Q195.6917,27.3339 195.9608,27.2314 Q196.1209,27.1673 196.2939,26.9879 Q196.4028,26.879 196.4605,26.847 Q196.5245,26.815 196.6078,26.815 Q196.7423,26.815 196.8448,26.9239 Q196.9537,27.0264 196.9537,27.1673 Q196.9537,27.3082 196.8128,27.4748 Q196.6078,27.7118 196.2811,27.8464 Q195.8391,28.0321 195.3073,28.0321 Q194.6859,28.0321 194.1927,27.7759 Q193.7891,27.5709 193.5072,27.1353 Q193.2253,26.6932 193.2253,26.1679 L193.2253,25.6939 Q193.2253,25.1493 193.4752,24.6817 Q193.7314,24.2076 194.1798,23.9578 Q194.6283,23.7015 195.1344,23.7015 Q195.4355,23.7015 195.6981,23.772 Q195.9672,23.8361 196.1914,23.9834 Z " fill="#000000"/><text fill="#000000" font-family="sans-serif" font-size="5.74" lengthAdjust="spacing" textLength="54.12" x="203.4625" y="28.0514">ListEveryEmployeeUI</text><line style="stroke:#181818;stroke-width:0.205;" x1="167.69" x2="280.03" y1="32.2346" y2="32.2346"/><text fill="#000000" font-family="sans-serif" font-size="5.74" lengthAdjust="spacing" textLength="86.1" x="169.74" y="40.0687">-ListEveryEmployeeController ctrl</text><line style="stroke:#181818;stroke-width:0.205;" x1="167.69" x2="280.03" y1="43.1493" y2="43.1493"/><text fill="#000000" font-family="sans-serif" font-size="5.74" lengthAdjust="spacing" textLength="15.99" x="169.74" y="50.9833">+run()</text><text fill="#000000" font-family="sans-serif" font-size="5.74" lengthAdjust="spacing" textLength="108.24" x="169.74" y="58.618">+printAllStoresAndItsEmployees(storeList)</text></g><!--class ListEveryEmployeeController--><g id="elem_ListEveryEmployeeController"><rect codeLine="62" fill="#F1F1F1" height="50.2186" id="ListEveryEmployeeController" rx="1.025" ry="1.025" style="stroke:#181818;stroke-width:0.205;" width="119.72" x="164" y="94.1446"/><ellipse cx="184.8075" cy="100.7046" fill="#ADD1B2" rx="4.51" ry="4.51" style="stroke:#181818;stroke-width:0.41;"/><path d="M185.9414,99.0134 Q186.0055,98.9237 186.0823,98.8789 Q186.1592,98.834 186.2489,98.834 Q186.4027,98.834 186.4988,98.9429 Q186.5948,99.0454 186.5948,99.2953 L186.5948,99.8911 Q186.5948,100.1409 186.4988,100.2498 Q186.4027,100.3587 186.2489,100.3587 Q186.108,100.3587 186.0247,100.2754 Q185.9414,100.1986 185.8966,99.9871 Q185.8773,99.8398 185.8005,99.7629 Q185.6659,99.6092 185.4161,99.5195 Q185.1663,99.4298 184.91,99.4298 Q184.5961,99.4298 184.3334,99.5643 Q184.0772,99.6989 183.8722,100.0064 Q183.6736,100.3139 183.6736,100.7367 L183.6736,101.1851 Q183.6736,101.6912 184.0388,102.0307 Q184.4039,102.3639 185.0573,102.3639 Q185.4417,102.3639 185.7108,102.2614 Q185.8709,102.1973 186.0439,102.0179 Q186.1528,101.909 186.2105,101.877 Q186.2745,101.845 186.3578,101.845 Q186.4923,101.845 186.5948,101.9539 Q186.7037,102.0564 186.7037,102.1973 Q186.7037,102.3382 186.5628,102.5048 Q186.3578,102.7418 186.0311,102.8764 Q185.5891,103.0621 185.0573,103.0621 Q184.4359,103.0621 183.9427,102.8059 Q183.5391,102.6009 183.2572,102.1653 Q182.9753,101.7232 182.9753,101.1979 L182.9753,100.7239 Q182.9753,100.1793 183.2252,99.7117 Q183.4814,99.2376 183.9298,98.9878 Q184.3783,98.7315 184.8844,98.7315 Q185.1855,98.7315 185.4481,98.802 Q185.7172,98.8661 185.9414,99.0134 Z " fill="#000000"/><text fill="#000000" font-family="sans-serif" font-size="5.74" lengthAdjust="spacing" textLength="74.62" x="193.2125" y="103.0814">ListEveryEmployeeController</text><line style="stroke:#181818;stroke-width:0.205;" x1="164.41" x2="283.31" y1="107.2646" y2="107.2646"/><line style="stroke:#181818;stroke-width:0.205;" x1="164.41" x2="283.31" y1="110.5446" y2="110.5446"/><text fill="#000000" font-family="sans-serif" font-size="5.74" lengthAdjust="spacing" textLength="47.56" x="166.46" y="118.3787">+getListOfStores()</text><text fill="#000000" font-family="sans-serif" font-size="5.74" lengthAdjust="spacing" textLength="114.8" x="166.46" y="126.0133">+sortStoresByNumOfProperties(listOfStores)</text><text fill="#000000" font-family="sans-serif" font-size="5.74" lengthAdjust="spacing" textLength="86.92" x="166.46" y="133.648">+printAllEmployeesByStore(store)</text><text fill="#000000" font-family="sans-serif" font-size="5.74" lengthAdjust="spacing" textLength="113.98" x="166.46" y="141.2826">-sortEmployeesAlphabetically(employeeList)</text></g><!--class Property--><g id="elem_Property"><rect codeLine="70" fill="#F1F1F1" height="34.9493" id="Property" rx="1.025" ry="1.025" style="stroke:#181818;stroke-width:0.205;" width="45.1" x="120.54" y="356.3396"/><ellipse cx="131.118" cy="362.8996" fill="#B4A7E5" rx="4.51" ry="4.51" style="stroke:#181818;stroke-width:0.41;"/><path d="M131.5088,361.5223 L131.5088,364.2514 L132.2135,364.2514 Q132.4633,364.2514 132.5722,364.3475 Q132.6811,364.4436 132.6811,364.6037 Q132.6811,364.7575 132.5722,364.8536 Q132.4633,364.9496 132.2135,364.9496 L130.1058,364.9496 Q129.856,364.9496 129.7471,364.8536 Q129.6382,364.7575 129.6382,364.5973 Q129.6382,364.4436 129.7471,364.3475 Q129.856,364.2514 130.1058,364.2514 L130.8105,364.2514 L130.8105,361.5223 L130.1058,361.5223 Q129.856,361.5223 129.7471,361.4262 Q129.6382,361.3301 129.6382,361.17 Q129.6382,361.0162 129.7471,360.9201 Q129.856,360.824 130.1058,360.824 L132.2135,360.824 Q132.4633,360.824 132.5722,360.9201 Q132.6811,361.0162 132.6811,361.17 Q132.6811,361.3301 132.5722,361.4262 Q132.4633,361.5223 132.2135,361.5223 L131.5088,361.5223 Z " fill="#000000"/><text fill="#000000" font-family="sans-serif" font-size="5.74" font-style="italic" lengthAdjust="spacing" textLength="22.14" x="137.842" y="365.2764">Property</text><line style="stroke:#181818;stroke-width:0.205;" x1="120.95" x2="165.23" y1="369.4596" y2="369.4596"/><line style="stroke:#181818;stroke-width:0.205;" x1="120.95" x2="165.23" y1="372.7396" y2="372.7396"/><text fill="#000000" font-family="sans-serif" font-size="5.74" lengthAdjust="spacing" textLength="40.18" x="123" y="380.5737">+equals(object)</text><text fill="#000000" font-family="sans-serif" font-size="5.74" lengthAdjust="spacing" textLength="21.32" x="123" y="388.2083">+clone()</text></g><!--class Request--><g id="elem_Request"><rect codeLine="76" fill="#F1F1F1" height="80.7572" id="Request" rx="1.025" ry="1.025" style="stroke:#181818;stroke-width:0.205;" width="68.47" x="200.695" y="333.3796"/><ellipse cx="222.3225" cy="339.9396" fill="#ADD1B2" rx="4.51" ry="4.51" style="stroke:#181818;stroke-width:0.41;"/><path d="M223.4564,338.2484 Q223.5205,338.1587 223.5973,338.1139 Q223.6742,338.069 223.7639,338.069 Q223.9177,338.069 224.0138,338.1779 Q224.1098,338.2804 224.1098,338.5303 L224.1098,339.1261 Q224.1098,339.3759 224.0138,339.4848 Q223.9177,339.5937 223.7639,339.5937 Q223.623,339.5937 223.5397,339.5104 Q223.4564,339.4336 223.4116,339.2221 Q223.3923,339.0748 223.3155,338.9979 Q223.1809,338.8442 222.9311,338.7545 Q222.6812,338.6648 222.425,338.6648 Q222.1111,338.6648 221.8484,338.7993 Q221.5922,338.9339 221.3872,339.2414 Q221.1886,339.5489 221.1886,339.9717 L221.1886,340.4201 Q221.1886,340.9262 221.5537,341.2657 Q221.9189,341.5989 222.5723,341.5989 Q222.9567,341.5989 223.2258,341.4964 Q223.3859,341.4323 223.5589,341.2529 Q223.6678,341.144 223.7255,341.112 Q223.7895,341.08 223.8728,341.08 Q224.0073,341.08 224.1098,341.1889 Q224.2188,341.2914 224.2188,341.4323 Q224.2188,341.5732 224.0778,341.7398 Q223.8728,341.9768 223.5461,342.1114 Q223.1041,342.2971 222.5723,342.2971 Q221.9509,342.2971 221.4577,342.0409 Q221.0541,341.8359 220.7722,341.4003 Q220.4903,340.9582 220.4903,340.4329 L220.4903,339.9589 Q220.4903,339.4143 220.7402,338.9467 Q220.9964,338.4726 221.4448,338.2228 Q221.8933,337.9665 222.3994,337.9665 Q222.7005,337.9665 222.9631,338.037 Q223.2322,338.1011 223.4564,338.2484 Z " fill="#000000"/><text fill="#000000" font-family="sans-serif" font-size="5.74" lengthAdjust="spacing" textLength="21.73" x="230.7275" y="342.3164">Request</text><line style="stroke:#181818;stroke-width:0.205;" x1="201.105" x2="268.755" y1="346.4996" y2="346.4996"/><text fill="#000000" font-family="sans-serif" font-size="5.74" lengthAdjust="spacing" textLength="29.93" x="203.155" y="354.3337">-String type</text><text fill="#000000" font-family="sans-serif" font-size="5.74" lengthAdjust="spacing" textLength="27.47" x="203.155" y="361.9683">-float price</text><text fill="#000000" font-family="sans-serif" font-size="5.74" lengthAdjust="spacing" textLength="41.41" x="203.155" y="369.603">-String priceUnit</text><text fill="#000000" font-family="sans-serif" font-size="5.74" lengthAdjust="spacing" textLength="56.99" x="203.155" y="377.2376">-boolean isItPublished</text><text fill="#000000" font-family="sans-serif" font-size="5.74" lengthAdjust="spacing" textLength="61.09" x="203.155" y="384.8723">-String commissionDate</text><text fill="#000000" font-family="sans-serif" font-size="5.74" lengthAdjust="spacing" textLength="36.08" x="203.155" y="392.5069">-Owner owner</text><text fill="#000000" font-family="sans-serif" font-size="5.74" lengthAdjust="spacing" textLength="63.55" x="203.155" y="400.1416">-String commissionValue</text><text fill="#000000" font-family="sans-serif" font-size="5.74" lengthAdjust="spacing" textLength="31.16" x="203.155" y="407.7762">-int duration</text><line style="stroke:#181818;stroke-width:0.205;" x1="201.105" x2="268.755" y1="410.8568" y2="410.8568"/></g><!--class Land--><g id="elem_Land"><rect codeLine="87" fill="#F1F1F1" height="103.6611" id="Land" rx="1.025" ry="1.025" style="stroke:#181818;stroke-width:0.205;" width="82.41" x="5.125" y="484.6696"/><ellipse cx="38.0275" cy="491.2296" fill="#ADD1B2" rx="4.51" ry="4.51" style="stroke:#181818;stroke-width:0.41;"/><path d="M39.1614,489.5384 Q39.2255,489.4487 39.3023,489.4039 Q39.3792,489.359 39.4689,489.359 Q39.6227,489.359 39.7188,489.4679 Q39.8148,489.5704 39.8148,489.8203 L39.8148,490.4161 Q39.8148,490.6659 39.7188,490.7748 Q39.6227,490.8837 39.4689,490.8837 Q39.328,490.8837 39.2447,490.8004 Q39.1614,490.7236 39.1166,490.5121 Q39.0973,490.3648 39.0205,490.2879 Q38.8859,490.1342 38.6361,490.0445 Q38.3863,489.9548 38.13,489.9548 Q37.8161,489.9548 37.5534,490.0893 Q37.2972,490.2239 37.0922,490.5314 Q36.8936,490.8389 36.8936,491.2617 L36.8936,491.7101 Q36.8936,492.2162 37.2588,492.5557 Q37.6239,492.8889 38.2773,492.8889 Q38.6617,492.8889 38.9308,492.7864 Q39.0909,492.7223 39.2639,492.5429 Q39.3728,492.434 39.4305,492.402 Q39.4945,492.37 39.5778,492.37 Q39.7123,492.37 39.8148,492.4789 Q39.9238,492.5814 39.9238,492.7223 Q39.9238,492.8632 39.7828,493.0298 Q39.5778,493.2668 39.2511,493.4014 Q38.8091,493.5871 38.2773,493.5871 Q37.6559,493.5871 37.1627,493.3309 Q36.7591,493.1259 36.4772,492.6903 Q36.1953,492.2482 36.1953,491.7229 L36.1953,491.2489 Q36.1953,490.7043 36.4452,490.2367 Q36.7014,489.7626 37.1498,489.5128 Q37.5983,489.2565 38.1044,489.2565 Q38.4055,489.2565 38.6681,489.327 Q38.9372,489.3911 39.1614,489.5384 Z " fill="#000000"/><text fill="#000000" font-family="sans-serif" font-size="5.74" lengthAdjust="spacing" textLength="13.12" x="46.4325" y="493.6064">Land</text><line style="stroke:#181818;stroke-width:0.205;" x1="5.535" x2="87.125" y1="497.7896" y2="497.7896"/><text fill="#000000" font-family="sans-serif" font-size="5.74" lengthAdjust="spacing" textLength="26.65" x="7.585" y="505.6237">-float area</text><text fill="#000000" font-family="sans-serif" font-size="5.74" lengthAdjust="spacing" textLength="38.95" x="7.585" y="513.2583">-String location</text><text fill="#000000" font-family="sans-serif" font-size="5.74" lengthAdjust="spacing" textLength="77.49" x="7.585" y="520.893">-float distanceFromCityCentre</text><text fill="#000000" font-family="sans-serif" font-size="5.74" lengthAdjust="spacing" textLength="33.62" x="7.585" y="528.5276">-Agent agent</text><text fill="#000000" font-family="sans-serif" font-size="5.74" lengthAdjust="spacing" textLength="49.2" x="7.585" y="536.1623">-File[] photographs</text><text fill="#000000" font-family="sans-serif" font-size="5.74" lengthAdjust="spacing" textLength="38.54" x="7.585" y="543.7969">-float finalPrice</text><text fill="#000000" font-family="sans-serif" font-size="5.74" lengthAdjust="spacing" textLength="69.7" x="7.585" y="551.4316">-String announcementDate</text><text fill="#000000" font-family="sans-serif" font-size="5.74" lengthAdjust="spacing" textLength="45.1" x="7.585" y="559.0662">-Request request</text><line style="stroke:#181818;stroke-width:0.205;" x1="5.535" x2="87.125" y1="562.1468" y2="562.1468"/><text fill="#000000" font-family="sans-serif" font-size="5.74" lengthAdjust="spacing" textLength="40.18" x="7.585" y="569.9809">+equals(object)</text><text fill="#000000" font-family="sans-serif" font-size="5.74" lengthAdjust="spacing" textLength="21.32" x="7.585" y="577.6155">+clone()</text><text fill="#000000" font-family="sans-serif" font-size="5.74" lengthAdjust="spacing" textLength="27.47" x="7.585" y="585.2502">+toString()</text></g><!--class Apartment--><g id="elem_Apartment"><rect codeLine="102" fill="#F1F1F1" height="141.8344" id="Apartment" rx="1.025" ry="1.025" style="stroke:#181818;stroke-width:0.205;" width="82.41" x="101.885" y="465.6046"/><ellipse cx="128.0225" cy="472.1646" fill="#ADD1B2" rx="4.51" ry="4.51" style="stroke:#181818;stroke-width:0.41;"/><path d="M129.1564,470.4734 Q129.2205,470.3837 129.2973,470.3389 Q129.3742,470.294 129.4639,470.294 Q129.6177,470.294 129.7138,470.4029 Q129.8098,470.5054 129.8098,470.7553 L129.8098,471.3511 Q129.8098,471.6009 129.7138,471.7098 Q129.6177,471.8187 129.4639,471.8187 Q129.323,471.8187 129.2397,471.7354 Q129.1564,471.6586 129.1116,471.4471 Q129.0923,471.2998 129.0155,471.2229 Q128.8809,471.0692 128.6311,470.9795 Q128.3813,470.8898 128.125,470.8898 Q127.8111,470.8898 127.5484,471.0243 Q127.2922,471.1589 127.0872,471.4664 Q126.8886,471.7739 126.8886,472.1967 L126.8886,472.6451 Q126.8886,473.1512 127.2538,473.4907 Q127.6189,473.8239 128.2723,473.8239 Q128.6567,473.8239 128.9258,473.7214 Q129.0859,473.6573 129.2589,473.4779 Q129.3678,473.369 129.4255,473.337 Q129.4895,473.305 129.5728,473.305 Q129.7073,473.305 129.8098,473.4139 Q129.9188,473.5164 129.9188,473.6573 Q129.9188,473.7982 129.7778,473.9648 Q129.5728,474.2018 129.2461,474.3364 Q128.8041,474.5221 128.2723,474.5221 Q127.6509,474.5221 127.1577,474.2659 Q126.7541,474.0609 126.4722,473.6253 Q126.1903,473.1832 126.1903,472.6579 L126.1903,472.1839 Q126.1903,471.6393 126.4402,471.1717 Q126.6964,470.6976 127.1448,470.4478 Q127.5933,470.1915 128.0994,470.1915 Q128.4005,470.1915 128.6631,470.262 Q128.9322,470.3261 129.1564,470.4734 Z " fill="#000000"/><text fill="#000000" font-family="sans-serif" font-size="5.74" lengthAdjust="spacing" textLength="26.65" x="136.4275" y="474.5414">Apartment</text><line style="stroke:#181818;stroke-width:0.205;" x1="102.295" x2="183.885" y1="478.7246" y2="478.7246"/><text fill="#000000" font-family="sans-serif" font-size="5.74" lengthAdjust="spacing" textLength="26.65" x="104.345" y="486.5587">-float area</text><text fill="#000000" font-family="sans-serif" font-size="5.74" lengthAdjust="spacing" textLength="38.95" x="104.345" y="494.1933">-String location</text><text fill="#000000" font-family="sans-serif" font-size="5.74" lengthAdjust="spacing" textLength="77.49" x="104.345" y="501.828">-float distanceFromCityCentre</text><text fill="#000000" font-family="sans-serif" font-size="5.74" lengthAdjust="spacing" textLength="33.62" x="104.345" y="509.4626">-Agent agent</text><text fill="#000000" font-family="sans-serif" font-size="5.74" lengthAdjust="spacing" textLength="53.3" x="104.345" y="517.0973">-int numOfBedrooms</text><text fill="#000000" font-family="sans-serif" font-size="5.74" lengthAdjust="spacing" textLength="54.94" x="104.345" y="524.7319">-int numOfBathrooms</text><text fill="#000000" font-family="sans-serif" font-size="5.74" lengthAdjust="spacing" textLength="66.01" x="104.345" y="532.3666">-int numOfParkingSpaces</text><text fill="#000000" font-family="sans-serif" font-size="5.74" lengthAdjust="spacing" textLength="61.91" x="104.345" y="540.0012">-boolean centralHeating</text><text fill="#000000" font-family="sans-serif" font-size="5.74" lengthAdjust="spacing" textLength="63.55" x="104.345" y="547.6359">-boolean airConditioning</text><text fill="#000000" font-family="sans-serif" font-size="5.74" lengthAdjust="spacing" textLength="49.2" x="104.345" y="555.2705">-File[] photographs</text><text fill="#000000" font-family="sans-serif" font-size="5.74" lengthAdjust="spacing" textLength="38.54" x="104.345" y="562.9052">-float finalPrice</text><text fill="#000000" font-family="sans-serif" font-size="5.74" lengthAdjust="spacing" textLength="69.7" x="104.345" y="570.5398">-String announcementDate</text><text fill="#000000" font-family="sans-serif" font-size="5.74" lengthAdjust="spacing" textLength="45.1" x="104.345" y="578.1745">-Request request</text><line style="stroke:#181818;stroke-width:0.205;" x1="102.295" x2="183.885" y1="581.2551" y2="581.2551"/><text fill="#000000" font-family="sans-serif" font-size="5.74" lengthAdjust="spacing" textLength="40.18" x="104.345" y="589.0891">+equals(object)</text><text fill="#000000" font-family="sans-serif" font-size="5.74" lengthAdjust="spacing" textLength="21.32" x="104.345" y="596.7238">+clone()</text><text fill="#000000" font-family="sans-serif" font-size="5.74" lengthAdjust="spacing" textLength="27.47" x="104.345" y="604.3584">+toString()</text></g><!--class House--><g id="elem_House"><rect codeLine="122" fill="#F1F1F1" height="164.7383" id="House" rx="1.025" ry="1.025" style="stroke:#181818;stroke-width:0.205;" width="82.41" x="198.645" y="454.1246"/><ellipse cx="229.9075" cy="460.6846" fill="#ADD1B2" rx="4.51" ry="4.51" style="stroke:#181818;stroke-width:0.41;"/><path d="M231.0414,458.9934 Q231.1055,458.9037 231.1823,458.8589 Q231.2592,458.814 231.3489,458.814 Q231.5027,458.814 231.5988,458.9229 Q231.6948,459.0254 231.6948,459.2753 L231.6948,459.8711 Q231.6948,460.1209 231.5988,460.2298 Q231.5027,460.3387 231.3489,460.3387 Q231.208,460.3387 231.1247,460.2554 Q231.0414,460.1786 230.9966,459.9671 Q230.9773,459.8198 230.9005,459.7429 Q230.7659,459.5892 230.5161,459.4995 Q230.2662,459.4098 230.01,459.4098 Q229.6961,459.4098 229.4334,459.5443 Q229.1772,459.6789 228.9722,459.9864 Q228.7736,460.2939 228.7736,460.7167 L228.7736,461.1651 Q228.7736,461.6712 229.1388,462.0107 Q229.5039,462.3439 230.1573,462.3439 Q230.5417,462.3439 230.8108,462.2414 Q230.9709,462.1773 231.1439,461.9979 Q231.2528,461.889 231.3105,461.857 Q231.3745,461.825 231.4578,461.825 Q231.5923,461.825 231.6948,461.9339 Q231.8037,462.0364 231.8037,462.1773 Q231.8037,462.3182 231.6628,462.4848 Q231.4578,462.7218 231.1311,462.8564 Q230.6891,463.0421 230.1573,463.0421 Q229.5359,463.0421 229.0427,462.7859 Q228.6391,462.5809 228.3572,462.1453 Q228.0753,461.7032 228.0753,461.1779 L228.0753,460.7039 Q228.0753,460.1593 228.3252,459.6917 Q228.5814,459.2176 229.0298,458.9678 Q229.4783,458.7115 229.9844,458.7115 Q230.2855,458.7115 230.5481,458.782 Q230.8172,458.8461 231.0414,458.9934 Z " fill="#000000"/><text fill="#000000" font-family="sans-serif" font-size="5.74" lengthAdjust="spacing" textLength="16.4" x="238.3125" y="463.0614">House</text><line style="stroke:#181818;stroke-width:0.205;" x1="199.055" x2="280.645" y1="467.2446" y2="467.2446"/><text fill="#000000" font-family="sans-serif" font-size="5.74" lengthAdjust="spacing" textLength="26.65" x="201.105" y="475.0787">-float area</text><text fill="#000000" font-family="sans-serif" font-size="5.74" lengthAdjust="spacing" textLength="38.95" x="201.105" y="482.7133">-String location</text><text fill="#000000" font-family="sans-serif" font-size="5.74" lengthAdjust="spacing" textLength="77.49" x="201.105" y="490.348">-float distanceFromCityCentre</text><text fill="#000000" font-family="sans-serif" font-size="5.74" lengthAdjust="spacing" textLength="33.62" x="201.105" y="497.9826">-Agent agent</text><text fill="#000000" font-family="sans-serif" font-size="5.74" lengthAdjust="spacing" textLength="53.3" x="201.105" y="505.6173">-int numOfBedrooms</text><text fill="#000000" font-family="sans-serif" font-size="5.74" lengthAdjust="spacing" textLength="54.94" x="201.105" y="513.2519">-int numOfBathrooms</text><text fill="#000000" font-family="sans-serif" font-size="5.74" lengthAdjust="spacing" textLength="66.01" x="201.105" y="520.8866">-int numOfParkingSpaces</text><text fill="#000000" font-family="sans-serif" font-size="5.74" lengthAdjust="spacing" textLength="61.91" x="201.105" y="528.5212">-boolean centralHeating</text><text fill="#000000" font-family="sans-serif" font-size="5.74" lengthAdjust="spacing" textLength="63.55" x="201.105" y="536.1559">-boolean airConditioning</text><text fill="#000000" font-family="sans-serif" font-size="5.74" lengthAdjust="spacing" textLength="50.02" x="201.105" y="543.7905">-boolean basement</text><text fill="#000000" font-family="sans-serif" font-size="5.74" lengthAdjust="spacing" textLength="62.73" x="201.105" y="551.4252">-boolean inhabitableLoft</text><text fill="#000000" font-family="sans-serif" font-size="5.74" lengthAdjust="spacing" textLength="52.48" x="201.105" y="559.0598">-String sunExposure</text><text fill="#000000" font-family="sans-serif" font-size="5.74" lengthAdjust="spacing" textLength="49.2" x="201.105" y="566.6945">-File[] photographs</text><text fill="#000000" font-family="sans-serif" font-size="5.74" lengthAdjust="spacing" textLength="38.54" x="201.105" y="574.3291">-float finalPrice</text><text fill="#000000" font-family="sans-serif" font-size="5.74" lengthAdjust="spacing" textLength="69.7" x="201.105" y="581.9638">-String announcementDate</text><text fill="#000000" font-family="sans-serif" font-size="5.74" lengthAdjust="spacing" textLength="45.1" x="201.105" y="589.5984">-Request request</text><line style="stroke:#181818;stroke-width:0.205;" x1="199.055" x2="280.645" y1="592.679" y2="592.679"/><text fill="#000000" font-family="sans-serif" font-size="5.74" lengthAdjust="spacing" textLength="40.18" x="201.105" y="600.5131">+equals(object)</text><text fill="#000000" font-family="sans-serif" font-size="5.74" lengthAdjust="spacing" textLength="21.32" x="201.105" y="608.1477">+clone()</text><text fill="#000000" font-family="sans-serif" font-size="5.74" lengthAdjust="spacing" textLength="27.47" x="201.105" y="615.7824">+toString()</text></g><!--class Repositories--><g id="elem_Repositories"><rect codeLine="145" fill="#F1F1F1" height="42.5839" id="Repositories" rx="1.025" ry="1.025" style="stroke:#181818;stroke-width:0.205;" width="83.64" x="182.04" y="183.5246"/><ellipse cx="205.9225" cy="190.0846" fill="#ADD1B2" rx="4.51" ry="4.51" style="stroke:#181818;stroke-width:0.41;"/><path d="M207.0564,188.3934 Q207.1205,188.3037 207.1973,188.2589 Q207.2742,188.214 207.3639,188.214 Q207.5177,188.214 207.6137,188.3229 Q207.7098,188.4254 207.7098,188.6753 L207.7098,189.2711 Q207.7098,189.5209 207.6137,189.6298 Q207.5177,189.7387 207.3639,189.7387 Q207.223,189.7387 207.1397,189.6554 Q207.0564,189.5786 207.0116,189.3671 Q206.9923,189.2198 206.9155,189.1429 Q206.7809,188.9892 206.5311,188.8995 Q206.2813,188.8098 206.025,188.8098 Q205.7111,188.8098 205.4484,188.9443 Q205.1922,189.0789 204.9872,189.3864 Q204.7886,189.6939 204.7886,190.1167 L204.7886,190.5651 Q204.7886,191.0712 205.1537,191.4107 Q205.5189,191.7439 206.1723,191.7439 Q206.5567,191.7439 206.8258,191.6414 Q206.9859,191.5773 207.1589,191.3979 Q207.2678,191.289 207.3255,191.257 Q207.3895,191.225 207.4728,191.225 Q207.6073,191.225 207.7098,191.3339 Q207.8188,191.4364 207.8188,191.5773 Q207.8188,191.7182 207.6778,191.8848 Q207.4728,192.1218 207.1461,192.2564 Q206.7041,192.4421 206.1723,192.4421 Q205.5509,192.4421 205.0577,192.1859 Q204.6541,191.9809 204.3722,191.5453 Q204.0903,191.1032 204.0903,190.5779 L204.0903,190.1039 Q204.0903,189.5593 204.3402,189.0917 Q204.5964,188.6176 205.0448,188.3678 Q205.4933,188.1115 205.9994,188.1115 Q206.3005,188.1115 206.5631,188.182 Q206.8322,188.2461 207.0564,188.3934 Z " fill="#000000"/><text fill="#000000" font-family="sans-serif" font-size="5.74" lengthAdjust="spacing" textLength="32.39" x="214.3275" y="192.4614">Repositories</text><line style="stroke:#181818;stroke-width:0.205;" x1="182.45" x2="265.27" y1="196.6446" y2="196.6446"/><line style="stroke:#181818;stroke-width:0.205;" x1="182.45" x2="265.27" y1="199.9246" y2="199.9246"/><text fill="#000000" font-family="sans-serif" font-size="5.74" lengthAdjust="spacing" textLength="38.54" x="184.5" y="207.7587">-Repositories()</text><text fill="#000000" font-family="sans-serif" font-size="5.74" lengthAdjust="spacing" textLength="71.34" x="184.5" y="215.3933">+getInstance():Repositories</text><text fill="#000000" font-family="sans-serif" font-size="5.74" lengthAdjust="spacing" textLength="78.72" x="184.5" y="223.028">+NetworkManagerRepository()</text></g><!--link NetworkManager to ListEveryEmployeeUI--><g id="link_NetworkManager_ListEveryEmployeeUI"><path codeLine="151" d="M59.4623,50.332 C68.8144,53.6038 76.875,56.4246 76.875,56.4246 C76.875,56.4246 149.855,56.4246 149.855,56.4246 C149.855,56.4246 156.1813,55.0593 165.1316,53.1241 " fill="none" id="NetworkManager-to-ListEveryEmployeeUI" style="stroke:#181818;stroke-width:0.41;"/><polygon fill="#181818" points="167.2062,52.6772,163.2528,51.8547,165.2026,53.1108,163.9465,55.0605,167.2062,52.6772" style="stroke:#181818;stroke-width:0.41;"/><text fill="#000000" font-family="sans-serif" font-size="5.33" lengthAdjust="spacing" textLength="72.16" x="77.285" y="47.8263">asks for a list of all employees</text><text fill="#000000" font-family="sans-serif" font-size="5.33" lengthAdjust="spacing" textLength="42.64" x="92.045" y="54.9156">grouped by stores</text></g><!--reverse link NetworkManager to ListEveryEmployeeUI--><g id="link_NetworkManager_ListEveryEmployeeUI"><path codeLine="156" d="M61.6681,40.4346 C89.9171,40.4346 132.6391,40.4346 167.1447,40.4346 " fill="none" id="NetworkManager-backto-ListEveryEmployeeUI" style="stroke:#181818;stroke-width:0.41;"/><polygon fill="#181818" points="59.491,40.4346,63.181,42.0746,61.541,40.4346,63.181,38.7946,59.491,40.4346" style="stroke:#181818;stroke-width:0.41;"/><text fill="#000000" font-family="sans-serif" font-size="5.33" lengthAdjust="spacing" textLength="92.66" x="67.035" y="30.6063">prints list of stores, each with their own</text><text fill="#000000" font-family="sans-serif" font-size="5.33" lengthAdjust="spacing" textLength="40.18" x="93.275" y="37.6956">list of employees</text></g><!--link ListEveryEmployeeController to ListEveryEmployeeController--><g id="link_ListEveryEmployeeController_ListEveryEmployeeController"><path codeLine="153" d="M283.843,115.7065 C292.3546,116.2641 298.07,117.4121 298.07,119.1546 C298.07,120.7454 293.2976,121.8442 285.9709,122.4469 " fill="none" id="ListEveryEmployeeController-to-ListEveryEmployeeController" style="stroke:#181818;stroke-width:0.41;"/><polygon fill="#181818" points="283.843,122.6027,287.6446,123.9641,285.8873,122.4504,287.401,120.6931,283.843,122.6027" style="stroke:#181818;stroke-width:0.41;"/><text fill="#000000" font-family="sans-serif" font-size="5.33" lengthAdjust="spacing" textLength="41.41" x="304.015" y="117.9363">sorts store list by</text><text fill="#000000" font-family="sans-serif" font-size="5.33" lengthAdjust="spacing" textLength="48.38" x="300.53" y="125.0256">number of properties</text></g><!--reverse link ListEveryEmployeeController to ListEveryEmployeeController--><g id="link_ListEveryEmployeeController_ListEveryEmployeeController"><path codeLine="154" d="M285.9422,111.6352 C319.0497,110.7619 351.37,113.267 351.37,119.1546 C351.37,125.1693 317.6147,127.6539 283.761,126.6084 " fill="none" id="ListEveryEmployeeController-backto-ListEveryEmployeeController" style="stroke:#181818;stroke-width:0.41;"/><polygon fill="#181818" points="283.761,111.7008,287.4963,113.2348,285.8102,111.6423,287.4027,109.9561,283.761,111.7008" style="stroke:#181818;stroke-width:0.41;"/><text fill="#000000" font-family="sans-serif" font-size="5.33" lengthAdjust="spacing" textLength="39.36" x="353.83" y="117.9363">sorts employees</text><text fill="#000000" font-family="sans-serif" font-size="5.33" lengthAdjust="spacing" textLength="32.39" x="357.315" y="125.0256">alphabetically</text></g><!--link ListEveryEmployeeUI to ListEveryEmployeeController--><g id="link_ListEveryEmployeeUI_ListEveryEmployeeController"><path codeLine="158" d="M223.86,61.8243 C223.86,71.119 223.86,82.1685 223.86,92.0454 " fill="none" id="ListEveryEmployeeUI-to-ListEveryEmployeeController" style="stroke:#181818;stroke-width:0.41;"/><polygon fill="#181818" points="223.86,94.1364,225.5,90.4464,223.86,92.0864,222.22,90.4464,223.86,94.1364" style="stroke:#181818;stroke-width:0.41;"/><text fill="#000000" font-family="sans-serif" font-size="5.33" lengthAdjust="spacing" textLength="10.25" x="224.27" y="80.2163">runs</text></g><!--link ListEveryEmployeeController to Repositories--><g id="link_ListEveryEmployeeController_Repositories"><path codeLine="159" d="M223.86,144.2261 C223.86,155.9275 223.86,169.8347 223.86,181.3311 " fill="none" id="ListEveryEmployeeController-to-Repositories" style="stroke:#181818;stroke-width:0.41;"/><polygon fill="#181818" points="223.86,183.4467,225.5,179.7567,223.86,181.3967,222.22,179.7567,223.86,183.4467" style="stroke:#181818;stroke-width:0.41;"/><text fill="#000000" font-family="sans-serif" font-size="5.33" lengthAdjust="spacing" textLength="10.25" x="232.06" y="162.6263">gets</text><text fill="#000000" font-family="sans-serif" font-size="5.33" lengthAdjust="spacing" textLength="25.83" x="224.27" y="169.7156">instance of</text></g><!--link Repositories to StoreRepository--><g id="link_Repositories_StoreRepository"><path codeLine="160" d="M199.7356,226.2548 C188.4811,236.0538 175.2053,247.6117 164.3362,257.0745 " fill="none" id="Repositories-to-StoreRepository" style="stroke:#181818;stroke-width:0.41;"/><polygon fill="#181818" points="162.7495,258.4521,166.609,257.2648,164.2952,257.1055,164.4544,254.7917,162.7495,258.4521" style="stroke:#181818;stroke-width:0.41;"/><text fill="#000000" font-family="sans-serif" font-size="5.33" lengthAdjust="spacing" textLength="20.09" x="184.09" y="244.6263">contains</text></g><!--link Repositories to EmployeeRepository--><g id="link_Repositories_EmployeeRepository"><path codeLine="161" d="M243.7901,226.2343 C253.3759,236.3244 262.81,246.2546 262.81,246.2546 C262.81,246.2546 270.5262,253.4214 278.3285,260.6661 " fill="none" id="Repositories-to-EmployeeRepository" style="stroke:#181818;stroke-width:0.41;"/><polygon fill="#181818" points="279.8906,262.1134,278.3048,258.3999,278.3892,260.7176,276.0714,260.8021,279.8906,262.1134" style="stroke:#181818;stroke-width:0.41;"/><text fill="#000000" font-family="sans-serif" font-size="5.33" lengthAdjust="spacing" textLength="20.09" x="263.22" y="244.6263">contains</text></g><!--link ListEveryEmployeeController to StoreRepository--><g id="link_ListEveryEmployeeController_StoreRepository"><path codeLine="162" d="M195.4306,144.2015 C174.6436,162.221 150.06,183.5246 150.06,183.5246 C150.06,183.5246 146.5832,229.4323 144.5414,256.4021 " fill="none" id="ListEveryEmployeeController-to-StoreRepository" style="stroke:#181818;stroke-width:0.41;"/><polygon fill="#181818" points="144.3856,258.4726,146.3053,254.9201,144.5437,256.4288,143.0351,254.6671,144.3856,258.4726" style="stroke:#181818;stroke-width:0.41;"/><text fill="#000000" font-family="sans-serif" font-size="5.33" lengthAdjust="spacing" textLength="23.78" x="150.47" y="203.6263">gets store</text><text fill="#000000" font-family="sans-serif" font-size="5.33" lengthAdjust="spacing" textLength="18.86" x="152.93" y="210.7156">list from</text></g><!--link ListEveryEmployeeController to EmployeeRepository--><g id="link_ListEveryEmployeeController_EmployeeRepository"><path codeLine="163" d="M243.8229,144.1769 C249.3128,150.946 253.79,156.4646 253.79,156.4646 C253.79,156.4646 273.06,183.5246 273.06,183.5246 C273.06,183.5246 284.704,233.7906 290.7802,260.0306 " fill="none" id="ListEveryEmployeeController-to-EmployeeRepository" style="stroke:#181818;stroke-width:0.41;"/><polygon fill="#181818" points="291.2804,262.1872,292.0453,258.2223,290.8177,260.1901,288.8499,258.9626,291.2804,262.1872" style="stroke:#181818;stroke-width:0.41;"/><text fill="#000000" font-family="sans-serif" font-size="5.33" lengthAdjust="spacing" textLength="34.85" x="282.9" y="203.6263">gets employee</text><text fill="#000000" font-family="sans-serif" font-size="5.33" lengthAdjust="spacing" textLength="18.86" x="290.895" y="210.7156">list from</text></g><!--link StoreRepository to Store--><g id="link_StoreRepository_Store"><path codeLine="165" d="M127.3501,293.4415 C121.3969,299.8908 116.03,305.7046 116.03,305.7046 C116.03,305.7046 105.0543,322.3219 93.9802,339.0827 " fill="none" id="StoreRepository-to-Store" style="stroke:#181818;stroke-width:0.41;"/><polygon fill="#181818" points="92.7707,340.9154,96.1735,338.7414,93.9011,339.2053,93.4372,336.9328,92.7707,340.9154" style="stroke:#181818;stroke-width:0.41;"/><text fill="#000000" font-family="sans-serif" font-size="5.33" lengthAdjust="spacing" textLength="22.96" x="116.44" y="311.8663">has list of</text></g><!--link StoreRepository to Property--><g id="link_StoreRepository_Property"><path codeLine="166" d="M143.09,293.503 C143.09,310.4811 143.09,336.4587 143.09,354.1379 " fill="none" id="StoreRepository-to-Property" style="stroke:#181818;stroke-width:0.41;"/><polygon fill="#181818" points="143.09,356.2494,144.73,352.5594,143.09,354.1994,141.45,352.5594,143.09,356.2494" style="stroke:#181818;stroke-width:0.41;"/><text fill="#000000" font-family="sans-serif" font-size="5.33" lengthAdjust="spacing" textLength="34.03" x="143.5" y="311.8663">has own list of</text></g><!--link EmployeeRepository to Employee--><g id="link_EmployeeRepository_Employee"><path codeLine="167" d="M298.4841,289.8704 C301.2147,298.8371 304.9826,311.2232 308.7874,323.7077 " fill="none" id="EmployeeRepository-to-Employee" style="stroke:#181818;stroke-width:0.41;"/><polygon fill="#181818" points="309.3942,325.7126,309.8883,321.705,308.7971,323.7515,306.7505,322.6603,309.3942,325.7126" style="stroke:#181818;stroke-width:0.41;"/><text fill="#000000" font-family="sans-serif" font-size="5.33" lengthAdjust="spacing" textLength="22.96" x="305.86" y="311.8663">has list of</text></g><!--link Property to Request--><g id="link_Property_Request"><path codeLine="169" d="M165.6728,373.7646 C175.5743,373.7646 187.4438,373.7646 198.5384,373.7646 " fill="none" id="Property-to-Request" style="stroke:#181818;stroke-width:0.41;"/><polygon fill="#181818" points="200.6007,373.7646,196.9107,372.1246,198.5507,373.7646,196.9107,375.4046,200.6007,373.7646" style="stroke:#181818;stroke-width:0.41;"/><text fill="#000000" font-family="sans-serif" font-size="5.33" lengthAdjust="spacing" textLength="20.09" x="173.1225" y="370.9063">contains</text></g><!--link Property to Apartment--><g id="link_Property_Apartment"><path codeLine="171" d="M143.09,391.2019 C143.09,408.5326 143.09,436.6012 143.09,463.4398 " fill="none" id="Property-to-Apartment" style="stroke:#181818;stroke-width:0.41;"/><polygon fill="#181818" points="143.09,465.5349,144.73,461.8449,143.09,463.4849,141.45,461.8449,143.09,465.5349" style="stroke:#181818;stroke-width:0.41;"/><text fill="#000000" font-family="sans-serif" font-size="5.33" lengthAdjust="spacing" textLength="15.99" x="143.5" y="440.1963">can be</text></g><!--link Property to House--><g id="link_Property_House"><path codeLine="172" d="M153.4671,391.3249 C167.6859,414.8179 191.47,454.1246 191.47,454.1246 C191.47,454.1246 193.8398,458.1426 197.5339,464.3992 " fill="none" id="Property-to-House" style="stroke:#181818;stroke-width:0.41;"/><polygon fill="#181818" points="198.6081,466.2237,198.1572,462.211,197.5715,464.4551,195.3274,463.8695,198.6081,466.2237" style="stroke:#181818;stroke-width:0.41;"/><text fill="#000000" font-family="sans-serif" font-size="5.33" lengthAdjust="spacing" textLength="15.99" x="184.09" y="440.1963">can be</text></g><!--link Property to Land--><g id="link_Property_Land"><path codeLine="173" d="M132.7129,391.3249 C118.4941,414.8179 94.71,454.1246 94.71,454.1246 C94.71,454.1246 87.0512,467.1052 77.8262,482.7385 " fill="none" id="Property-to-Land" style="stroke:#181818;stroke-width:0.41;"/><polygon fill="#181818" points="76.6946,484.6573,79.9811,482.3112,77.7355,482.8913,77.1554,480.6457,76.6946,484.6573" style="stroke:#181818;stroke-width:0.41;"/><text fill="#000000" font-family="sans-serif" font-size="5.33" lengthAdjust="spacing" textLength="15.99" x="107.01" y="440.1963">can be</text></g><!--SRC=[rLR1RkGs3BthAtJB1Ac1BNeR50jCibdi06aIx3IzD4KWs_HOZIov4jsi6_JVIycsh9buanuAB7gPH2BvI3vIf4_SezIjiABXZT6cgArfWAFjWCsILXIFOWyxx1Lm2mKAlLUfWgj5QPwatlDAA9TAbDI0VGkyDQht1tQo83GM3Kki2YMSso1QcNS8syBedVmB-3l6K2B5SBTxz_qF_4ewv9TDgqmFu7ZUynqQ2ppZ5zwUVv1YJsYCiHC55N8qtCfzZRoKFWbfD6F14xy6V3BsyIUXAKtBdrccHGCiWqP8nRAMT4XUihydW-3eCxJ6IVglznO-cX_3_NjApE5D5GwEFJmyiBCzO3YUzzU4lFBmfqTm7cH7AHEBpf-lGmZZZIXBmdBntDP6mtNNv61P9ZLoMKRP47LmMvY668MVpSfW3JRuIVnEv2raCeccP2BF0VW5GXByIDfuqcaMrYXOJk4hQGOYXWIB8aqNnPSZqrYafSIdC9FSVPQNVuBj9zdTTipzuFR2QAIm5RL5WNQarNPwTShEMdAC6wM6GczqkKKNULg5s3tUQqvd-EVOA5T9ztWtZfx7SABkwPgRwjQQ5YnA4gUTbaGKepZlWsm8vfHb7YiADwgjHGue2w5KluBnFiPCM60hKG0VFVhs25727nqzz9N9VwU7H7uBHRLS9Ob-9WrmE7U5V-SigvGHo2dA8ka3VxhJ4bcM6seGeRbqMxpjSagkXhclgQQDT8xUxGU1P7_pfAagnlykwFmYL3UsJjbP4PxxN0UXo-Sf7EeJ4G6KAGRTKLWI6K8Ny946uuN4_WAeO8IxsTC_NFXVbdsK2dxzpNSq6XevRUqcyqfgeMuFyXLQcuuG6p8T4Xd9ej4Q_hvEyHcQ0IYbUqFDZXwG_uTPUUgqxxTpAAqnZKkl1DR7TxV2qWJVxsXTq9Y8nImyjb2VW2BG-_bUI4lTNqeVLn1ySnO_cSx1_vd1IP0B5uX9NfIcbovHv0gkJ8NpWEtqvHSQ_fsF_PiN8EuX6ctF7d0-UXEQZLizqBuwNQTITdQumkU5Di0VBVZi_TBuvsiktAFZbR5SXBN7JSLfDF9fChfxlRUcQw7qNnjksE_ijPsnv2aHhxaVo6w06bpc_RtMORLvxsqSzQ-xyHyu_z9NaemuM00BcH0fsO1Du4SahddODYuoDV3n7GTHrFn9OirfzSemeU_rf1IzVytRMqdGxds32u98UuDig74eMpds3eN13XIynV4NtPfMYKP1DYzr5pwR4lMtOdlfoOSti3VoLD5GUHDdCOe0DN6Seh5Zjp4Kigf5hEAYNbp_WoeLDAelH946TmJE8b8eqZ0l4kuIEIdCMurK_5Y3G_amhvTbViFFedy0]--></g></svg>