<?xml version="1.0" encoding="us-ascii" standalone="no"?><svg xmlns="http://www.w3.org/2000/svg" xmlns:xlink="http://www.w3.org/1999/xlink" contentStyleType="text/css" height="409px" preserveAspectRatio="none" style="width:1021px;height:409px;background:#FFFFFF;" version="1.1" viewBox="0 0 1021 409" width="1021px" zoomAndPan="magnify"><defs/><g><rect fill="#FFFFFF" height="31.291" style="stroke:#181818;stroke-width:1.0;" width="10" x="934" y="116.9121"/><rect fill="none" height="50.582" style="stroke:#000000;stroke-width:1.5;" width="701" x="10" y="194.4941"/><rect fill="none" height="50.582" style="stroke:#000000;stroke-width:1.5;" width="701" x="10" y="259.0762"/><line style="stroke:#181818;stroke-width:0.5;stroke-dasharray:5.0,5.0;" x1="41" x2="41" y1="83.6211" y2="326.6582"/><line style="stroke:#181818;stroke-width:0.5;stroke-dasharray:5.0,5.0;" x1="650" x2="650" y1="83.6211" y2="326.6582"/><line style="stroke:#181818;stroke-width:0.5;stroke-dasharray:5.0,5.0;" x1="939" x2="939" y1="83.6211" y2="326.6582"/><text fill="#000000" font-family="sans-serif" font-size="14" lengthAdjust="spacing" textLength="36" x="20" y="80.1074">Client</text><ellipse cx="41" cy="13.5" fill="#E3E3E3" rx="8" ry="8" style="stroke:#181818;stroke-width:0.5;"/><path d="M41,21.5 L41,48.5 M28,29.5 L54,29.5 M41,48.5 L28,63.5 M41,48.5 L54,63.5 " fill="none" style="stroke:#181818;stroke-width:0.5;"/><text fill="#000000" font-family="sans-serif" font-size="14" lengthAdjust="spacing" textLength="36" x="20" y="340.7656">Client</text><ellipse cx="41" cy="352.7793" fill="#E3E3E3" rx="8" ry="8" style="stroke:#181818;stroke-width:0.5;"/><path d="M41,360.7793 L41,387.7793 M28,368.7793 L54,368.7793 M41,387.7793 L28,402.7793 M41,387.7793 L54,402.7793 " fill="none" style="stroke:#181818;stroke-width:0.5;"/><rect fill="#E3E3E3" height="32.6211" rx="2.5" ry="2.5" style="stroke:#181818;stroke-width:0.5;" width="102" x="599" y="50"/><text fill="#000000" font-family="sans-serif" font-size="14" lengthAdjust="spacing" textLength="88" x="606" y="72.1074">:PlaceOrderUI</text><rect fill="#E3E3E3" height="32.6211" rx="2.5" ry="2.5" style="stroke:#181818;stroke-width:0.5;" width="102" x="599" y="325.6582"/><text fill="#000000" font-family="sans-serif" font-size="14" lengthAdjust="spacing" textLength="88" x="606" y="347.7656">:PlaceOrderUI</text><rect fill="#E3E3E3" height="32.6211" rx="2.5" ry="2.5" style="stroke:#181818;stroke-width:0.5;" width="152" x="863" y="50"/><text fill="#000000" font-family="sans-serif" font-size="14" lengthAdjust="spacing" textLength="138" x="870" y="72.1074">:PlaceOrderController</text><rect fill="#E3E3E3" height="32.6211" rx="2.5" ry="2.5" style="stroke:#181818;stroke-width:0.5;" width="152" x="863" y="325.6582"/><text fill="#000000" font-family="sans-serif" font-size="14" lengthAdjust="spacing" textLength="138" x="870" y="347.7656">:PlaceOrderController</text><rect fill="#FFFFFF" height="31.291" style="stroke:#181818;stroke-width:1.0;" width="10" x="934" y="116.9121"/><polygon fill="#181818" points="922,112.9121,932,116.9121,922,120.9121,926,116.9121" style="stroke:#181818;stroke-width:1.0;"/><line style="stroke:#181818;stroke-width:1.0;" x1="650" x2="928" y1="116.9121" y2="116.9121"/><text fill="#000000" font-family="sans-serif" font-size="13" font-weight="bold" lengthAdjust="spacing" textLength="7" x="657" y="111.6494">1</text><text fill="#000000" font-family="sans-serif" font-size="13" lengthAdjust="spacing" textLength="254" x="668" y="111.6494">request to validate the amount and the order</text><polygon fill="#181818" points="661,144.2031,651,148.2031,661,152.2031,657,148.2031" style="stroke:#181818;stroke-width:1.0;"/><line style="stroke:#181818;stroke-width:1.0;stroke-dasharray:2.0,2.0;" x1="655" x2="938" y1="148.2031" y2="148.2031"/><text fill="#000000" font-family="sans-serif" font-size="13" font-weight="bold" lengthAdjust="spacing" textLength="7" x="667" y="142.9404">2</text><text fill="#000000" font-family="sans-serif" font-size="13" lengthAdjust="spacing" textLength="107" x="678" y="142.9404">send the validation</text><polygon fill="#181818" points="52,175.4941,42,179.4941,52,183.4941,48,179.4941" style="stroke:#181818;stroke-width:1.0;"/><line style="stroke:#181818;stroke-width:1.0;stroke-dasharray:2.0,2.0;" x1="46" x2="649" y1="179.4941" y2="179.4941"/><text fill="#000000" font-family="sans-serif" font-size="13" font-weight="bold" lengthAdjust="spacing" textLength="7" x="58" y="174.2314">3</text><text fill="#000000" font-family="sans-serif" font-size="13" lengthAdjust="spacing" textLength="110" x="69" y="174.2314">print: Order placed!</text><path d="M10,194.4941 L71,194.4941 L71,203.7852 L61,213.7852 L10,213.7852 L10,194.4941 " fill="#EEEEEE" style="stroke:#000000;stroke-width:1.5;"/><rect fill="none" height="50.582" style="stroke:#000000;stroke-width:1.5;" width="701" x="10" y="194.4941"/><text fill="#000000" font-family="sans-serif" font-size="13" font-weight="bold" lengthAdjust="spacing" textLength="16" x="25" y="209.5225">alt</text><text fill="#000000" font-family="sans-serif" font-size="11" font-weight="bold" lengthAdjust="spacing" textLength="376" x="86" y="208.3643">[if there is an order already placed for this property from this buyer]</text><polygon fill="#181818" points="52,233.0762,42,237.0762,52,241.0762,48,237.0762" style="stroke:#181818;stroke-width:1.0;"/><line style="stroke:#181818;stroke-width:1.0;stroke-dasharray:2.0,2.0;" x1="46" x2="649" y1="237.0762" y2="237.0762"/><text fill="#000000" font-family="sans-serif" font-size="13" font-weight="bold" lengthAdjust="spacing" textLength="7" x="58" y="231.8135">4</text><text fill="#000000" font-family="sans-serif" font-size="13" lengthAdjust="spacing" textLength="249" x="69" y="231.8135">Print: Order already placed for this property</text><path d="M10,259.0762 L71,259.0762 L71,268.3672 L61,278.3672 L10,278.3672 L10,259.0762 " fill="#EEEEEE" style="stroke:#000000;stroke-width:1.5;"/><rect fill="none" height="50.582" style="stroke:#000000;stroke-width:1.5;" width="701" x="10" y="259.0762"/><text fill="#000000" font-family="sans-serif" font-size="13" font-weight="bold" lengthAdjust="spacing" textLength="16" x="25" y="274.1045">alt</text><text fill="#000000" font-family="sans-serif" font-size="11" font-weight="bold" lengthAdjust="spacing" textLength="419" x="86" y="272.9463">[if there is the amount is equal to another client order in the same property]</text><polygon fill="#181818" points="52,297.6582,42,301.6582,52,305.6582,48,301.6582" style="stroke:#181818;stroke-width:1.0;"/><line style="stroke:#181818;stroke-width:1.0;stroke-dasharray:2.0,2.0;" x1="46" x2="649" y1="301.6582" y2="301.6582"/><text fill="#000000" font-family="sans-serif" font-size="13" font-weight="bold" lengthAdjust="spacing" textLength="7" x="58" y="296.3955">5</text><text fill="#000000" font-family="sans-serif" font-size="13" lengthAdjust="spacing" textLength="574" x="69" y="296.3955">Print: An order with the same amount has already been registered by another client for this property</text><!--SRC=[XLB1Ri8m3BtdApmkE_43Q9eqSK926jhW0zp6RIFIk4jSMFz-RYcZsu3bvlZv-JtRQUz2Wn5hg3bmNaMk2IIsPD9tfi5yZoMzI-S98kM2eVHJGAhGyj654WhqYOp1LZYqTKRHcCVAMOA2MJB-D9WBHvWjlQCWCy04o_NMA8sut3KO16QBZSUSNgEbk5iDaDtg9cB9GI9xJ_54jdrR6wC5C7yU0bYeue-Mae0m7D0xYw8EAmAikLKs37O8kQSpC3xLwGuzScISlDtgQJu_aoSQoqTgn-47sD8D9hKDFOzANK0JNP0538wWwStP1tF1eXTmHTyc4hYaaazgDH49RJUMw92ZWXJGH6ueIWU5xlFqbRLTlushxJVJzlznNZZK-XsHan5hf3j0twy00_SGo8SB67suCC0Jwl7zxNDDwyjv14SdrQLuR5ZfAPnzP4H1Rw1qILIPXQpxhU6-nIy0]--></g></svg>