<?xml version="1.0" encoding="us-ascii" standalone="no"?><svg xmlns="http://www.w3.org/2000/svg" xmlns:xlink="http://www.w3.org/1999/xlink" contentStyleType="text/css" height="884.1px" preserveAspectRatio="none" style="width:945px;height:884px;background:#FFFFFF;" version="1.1" viewBox="0 0 945 884" width="945.7px" zoomAndPan="magnify"><defs/><g><text fill="#000000" font-family="sans-serif" font-size="9.8" font-weight="bold" lengthAdjust="spacing" textLength="184.1" x="376.075" y="17.5752">US010 Place an Order - Class Diagram</text><!--class PlaceOrderUI--><g id="elem_PlaceOrderUI"><rect codeLine="14" fill="#F1F1F1" height="85.7391" id="PlaceOrderUI" rx="1.75" ry="1.75" style="stroke:#181818;stroke-width:0.3499999999999999;" width="213.5" x="252" y="65.5348"/><ellipse cx="326.375" cy="76.7348" fill="#ADD1B2" rx="7.7" ry="7.7" style="stroke:#181818;stroke-width:0.6999999999999998;"/><path d="M328.3109,73.8473 Q328.4203,73.6941 328.5516,73.6176 Q328.6828,73.541 328.8359,73.541 Q329.0984,73.541 329.2625,73.727 Q329.4266,73.902 329.4266,74.3285 L329.4266,75.3457 Q329.4266,75.7723 329.2625,75.9582 Q329.0984,76.1441 328.8359,76.1441 Q328.5953,76.1441 328.4531,76.002 Q328.3109,75.8707 328.2344,75.5098 Q328.2016,75.2582 328.0703,75.127 Q327.8406,74.8645 327.4141,74.7113 Q326.9875,74.5582 326.55,74.5582 Q326.0141,74.5582 325.5656,74.7879 Q325.1281,75.0176 324.7781,75.5426 Q324.4391,76.0676 324.4391,76.7895 L324.4391,77.5551 Q324.4391,78.4191 325.0625,78.9988 Q325.6859,79.5676 326.8016,79.5676 Q327.4578,79.5676 327.9172,79.3926 Q328.1906,79.2832 328.4859,78.977 Q328.6719,78.791 328.7703,78.7363 Q328.8797,78.6816 329.0219,78.6816 Q329.2516,78.6816 329.4266,78.8676 Q329.6125,79.0426 329.6125,79.2832 Q329.6125,79.5238 329.3719,79.8082 Q329.0219,80.2129 328.4641,80.4426 Q327.7094,80.7598 326.8016,80.7598 Q325.7406,80.7598 324.8984,80.3223 Q324.2094,79.9723 323.7281,79.2285 Q323.2469,78.4738 323.2469,77.577 L323.2469,76.7676 Q323.2469,75.8379 323.6734,75.0395 Q324.1109,74.2301 324.8766,73.8035 Q325.6422,73.366 326.5062,73.366 Q327.0203,73.366 327.4687,73.4863 Q327.9281,73.5957 328.3109,73.8473 Z " fill="#000000"/><text fill="#000000" font-family="sans-serif" font-size="9.8" lengthAdjust="spacing" textLength="58.8" x="340.725" y="80.7926">PlaceOrderUI</text><line style="stroke:#181818;stroke-width:0.3499999999999999;" x1="252.7" x2="464.8" y1="87.9348" y2="87.9348"/><line style="stroke:#181818;stroke-width:0.3499999999999999;" x1="252.7" x2="464.8" y1="93.5348" y2="93.5348"/><text fill="#000000" font-family="sans-serif" font-size="9.8" lengthAdjust="spacing" textLength="142.1" x="256.2" y="106.91">+askAboutFilters(List&lt;Property&gt;</text><text fill="#000000" font-family="sans-serif" font-size="9.8" lengthAdjust="spacing" textLength="103.6" x="256.2" y="119.9447">properties, Scanner sc)</text><text fill="#000000" font-family="sans-serif" font-size="9.8" lengthAdjust="spacing" textLength="205.1" x="256.2" y="132.9795">+printPropertyList(List&lt;Property&gt; propertyList)</text><text fill="#000000" font-family="sans-serif" font-size="9.8" lengthAdjust="spacing" textLength="177.8" x="256.2" y="146.0143">+verifyOption(List&lt;Property&gt; properties)</text></g><!--class PlaceOrderController--><g id="elem_PlaceOrderController"><rect codeLine="21" fill="#F1F1F1" height="229.1215" id="PlaceOrderController" rx="1.75" ry="1.75" style="stroke:#181818;stroke-width:0.3499999999999999;" width="204.4" x="133.35" y="367.2348"/><ellipse cx="185.675" cy="378.4348" fill="#ADD1B2" rx="7.7" ry="7.7" style="stroke:#181818;stroke-width:0.6999999999999998;"/><path d="M187.6109,375.5473 Q187.7203,375.3941 187.8516,375.3176 Q187.9828,375.241 188.1359,375.241 Q188.3984,375.241 188.5625,375.427 Q188.7266,375.602 188.7266,376.0285 L188.7266,377.0457 Q188.7266,377.4723 188.5625,377.6582 Q188.3984,377.8441 188.1359,377.8441 Q187.8953,377.8441 187.7531,377.702 Q187.6109,377.5707 187.5344,377.2098 Q187.5016,376.9582 187.3703,376.827 Q187.1406,376.5645 186.7141,376.4113 Q186.2875,376.2582 185.85,376.2582 Q185.3141,376.2582 184.8656,376.4879 Q184.4281,376.7176 184.0781,377.2426 Q183.7391,377.7676 183.7391,378.4895 L183.7391,379.2551 Q183.7391,380.1191 184.3625,380.6988 Q184.9859,381.2676 186.1016,381.2676 Q186.7578,381.2676 187.2172,381.0926 Q187.4906,380.9832 187.7859,380.677 Q187.9719,380.491 188.0703,380.4363 Q188.1797,380.3816 188.3219,380.3816 Q188.5516,380.3816 188.7266,380.5676 Q188.9125,380.7426 188.9125,380.9832 Q188.9125,381.2238 188.6719,381.5082 Q188.3219,381.9129 187.7641,382.1426 Q187.0094,382.4598 186.1016,382.4598 Q185.0406,382.4598 184.1984,382.0223 Q183.5094,381.6723 183.0281,380.9285 Q182.5469,380.1738 182.5469,379.277 L182.5469,378.4676 Q182.5469,377.5379 182.9734,376.7395 Q183.4109,375.9301 184.1766,375.5035 Q184.9422,375.066 185.8062,375.066 Q186.3203,375.066 186.7687,375.1863 Q187.2281,375.2957 187.6109,375.5473 Z " fill="#000000"/><text fill="#000000" font-family="sans-serif" font-size="9.8" lengthAdjust="spacing" textLength="93.8" x="200.025" y="382.4926">PlaceOrderController</text><line style="stroke:#181818;stroke-width:0.3499999999999999;" x1="134.05" x2="337.05" y1="389.6348" y2="389.6348"/><text fill="#000000" font-family="sans-serif" font-size="9.8" lengthAdjust="spacing" textLength="89.6" x="137.55" y="403.01">-float correctAmount</text><line style="stroke:#181818;stroke-width:0.3499999999999999;" x1="134.05" x2="337.05" y1="408.2695" y2="408.2695"/><text fill="#000000" font-family="sans-serif" font-size="9.8" lengthAdjust="spacing" textLength="167.3" x="137.55" y="421.6447">+askAboutTypeOfSale(List&lt;Property&gt;</text><text fill="#000000" font-family="sans-serif" font-size="9.8" lengthAdjust="spacing" textLength="103.6" x="137.55" y="434.6795">properties, Scanner sc)</text><text fill="#000000" font-family="sans-serif" font-size="9.8" lengthAdjust="spacing" textLength="185.5" x="137.55" y="447.7143">+askAboutTypeOfProperty(List&lt;Property&gt;</text><text fill="#000000" font-family="sans-serif" font-size="9.8" lengthAdjust="spacing" textLength="103.6" x="137.55" y="460.749">properties, Scanner sc)</text><text fill="#000000" font-family="sans-serif" font-size="9.8" lengthAdjust="spacing" textLength="143.5" x="137.55" y="473.7838">+chooseProperty(List&lt;Property&gt;</text><text fill="#000000" font-family="sans-serif" font-size="9.8" lengthAdjust="spacing" textLength="94.5" x="137.55" y="486.8186">properties, int option)</text><text fill="#000000" font-family="sans-serif" font-size="9.8" lengthAdjust="spacing" textLength="146.3" x="137.55" y="499.8533">+printPropertyList(List&lt;Property&gt;</text><text fill="#000000" font-family="sans-serif" font-size="9.8" lengthAdjust="spacing" textLength="56" x="137.55" y="512.8881">propertyList)</text><text fill="#000000" font-family="sans-serif" font-size="9.8" lengthAdjust="spacing" textLength="157.5" x="137.55" y="525.9229">+requestAmount(Property property)</text><text fill="#000000" font-family="sans-serif" font-size="9.8" lengthAdjust="spacing" textLength="124.6" x="137.55" y="538.9576">+verifyAmount(float amount)</text><text fill="#000000" font-family="sans-serif" font-size="9.8" lengthAdjust="spacing" textLength="173.6" x="137.55" y="551.9924">+verifyOrder(float amount, String email,</text><text fill="#000000" font-family="sans-serif" font-size="9.8" lengthAdjust="spacing" textLength="81.2" x="137.55" y="565.0271">Property property)</text><text fill="#000000" font-family="sans-serif" font-size="9.8" lengthAdjust="spacing" textLength="193.2" x="137.55" y="578.0619">+createAndRegisterNewOrder(float amount,</text><text fill="#000000" font-family="sans-serif" font-size="9.8" lengthAdjust="spacing" textLength="138.6" x="137.55" y="591.0967">String email, Property property)</text></g><!--class OrderRepository--><g id="elem_OrderRepository"><rect codeLine="35" fill="#F1F1F1" height="98.7738" id="OrderRepository" rx="1.75" ry="1.75" style="stroke:#181818;stroke-width:0.3499999999999999;" width="170.1" x="389.2" y="722.1348"/><ellipse cx="434.525" cy="733.3348" fill="#ADD1B2" rx="7.7" ry="7.7" style="stroke:#181818;stroke-width:0.6999999999999998;"/><path d="M436.4609,730.4473 Q436.5703,730.2941 436.7016,730.2176 Q436.8328,730.141 436.9859,730.141 Q437.2484,730.141 437.4125,730.327 Q437.5766,730.502 437.5766,730.9285 L437.5766,731.9457 Q437.5766,732.3723 437.4125,732.5582 Q437.2484,732.7441 436.9859,732.7441 Q436.7453,732.7441 436.6031,732.602 Q436.4609,732.4707 436.3844,732.1098 Q436.3516,731.8582 436.2203,731.727 Q435.9906,731.4645 435.5641,731.3113 Q435.1375,731.1582 434.7,731.1582 Q434.1641,731.1582 433.7156,731.3879 Q433.2781,731.6176 432.9281,732.1426 Q432.5891,732.6676 432.5891,733.3895 L432.5891,734.1551 Q432.5891,735.0191 433.2125,735.5988 Q433.8359,736.1676 434.9516,736.1676 Q435.6078,736.1676 436.0672,735.9926 Q436.3406,735.8832 436.6359,735.577 Q436.8219,735.391 436.9203,735.3363 Q437.0297,735.2816 437.1719,735.2816 Q437.4016,735.2816 437.5766,735.4676 Q437.7625,735.6426 437.7625,735.8832 Q437.7625,736.1238 437.5219,736.4082 Q437.1719,736.8129 436.6141,737.0426 Q435.8594,737.3598 434.9516,737.3598 Q433.8906,737.3598 433.0484,736.9223 Q432.3594,736.5723 431.8781,735.8285 Q431.3969,735.0738 431.3969,734.177 L431.3969,733.3676 Q431.3969,732.4379 431.8234,731.6395 Q432.2609,730.8301 433.0266,730.4035 Q433.7922,729.966 434.6562,729.966 Q435.1703,729.966 435.6187,730.0863 Q436.0781,730.1957 436.4609,730.4473 Z " fill="#000000"/><text fill="#000000" font-family="sans-serif" font-size="9.8" lengthAdjust="spacing" textLength="73.5" x="448.875" y="737.3926">OrderRepository</text><line style="stroke:#181818;stroke-width:0.3499999999999999;" x1="389.9" x2="558.6" y1="744.5348" y2="744.5348"/><text fill="#000000" font-family="sans-serif" font-size="9.8" lengthAdjust="spacing" textLength="87.5" x="393.4" y="757.91">-List&lt;Order&gt; orders</text><line style="stroke:#181818;stroke-width:0.3499999999999999;" x1="389.9" x2="558.6" y1="763.1695" y2="763.1695"/><text fill="#000000" font-family="sans-serif" font-size="9.8" lengthAdjust="spacing" textLength="161.7" x="393.4" y="776.5447">-boolean validateOrder(Order order)</text><text fill="#000000" font-family="sans-serif" font-size="9.8" lengthAdjust="spacing" textLength="112.7" x="393.4" y="789.5795">+List&lt;Order&gt; getOrders()</text><text fill="#000000" font-family="sans-serif" font-size="9.8" lengthAdjust="spacing" textLength="158.9" x="393.4" y="802.6143">+Optional&lt;Order&gt; add(Order order)</text><text fill="#000000" font-family="sans-serif" font-size="9.8" lengthAdjust="spacing" textLength="82.6" x="393.4" y="815.649">+remove(Object o)</text></g><!--class Client--><g id="elem_Client"><rect codeLine="43" fill="#F1F1F1" height="150.9129" id="Client" rx="1.75" ry="1.75" style="stroke:#181818;stroke-width:0.3499999999999999;" width="167.3" x="4.9" y="32.6348"/><ellipse cx="72.975" cy="43.8348" fill="#ADD1B2" rx="7.7" ry="7.7" style="stroke:#181818;stroke-width:0.6999999999999998;"/><path d="M74.9109,40.9473 Q75.0203,40.7941 75.1516,40.7176 Q75.2828,40.641 75.4359,40.641 Q75.6984,40.641 75.8625,40.827 Q76.0266,41.002 76.0266,41.4285 L76.0266,42.4457 Q76.0266,42.8723 75.8625,43.0582 Q75.6984,43.2441 75.4359,43.2441 Q75.1953,43.2441 75.0531,43.102 Q74.9109,42.9707 74.8344,42.6098 Q74.8016,42.3582 74.6703,42.227 Q74.4406,41.9645 74.0141,41.8113 Q73.5875,41.6582 73.15,41.6582 Q72.6141,41.6582 72.1656,41.8879 Q71.7281,42.1176 71.3781,42.6426 Q71.0391,43.1676 71.0391,43.8895 L71.0391,44.6551 Q71.0391,45.5191 71.6625,46.0988 Q72.2859,46.6676 73.4016,46.6676 Q74.0578,46.6676 74.5172,46.4926 Q74.7906,46.3832 75.0859,46.077 Q75.2719,45.891 75.3703,45.8363 Q75.4797,45.7816 75.6219,45.7816 Q75.8516,45.7816 76.0266,45.9676 Q76.2125,46.1426 76.2125,46.3832 Q76.2125,46.6238 75.9719,46.9082 Q75.6219,47.3129 75.0641,47.5426 Q74.3094,47.8598 73.4016,47.8598 Q72.3406,47.8598 71.4984,47.4223 Q70.8094,47.0723 70.3281,46.3285 Q69.8469,45.5738 69.8469,44.677 L69.8469,43.8676 Q69.8469,42.9379 70.2734,42.1395 Q70.7109,41.3301 71.4766,40.9035 Q72.2422,40.466 73.1062,40.466 Q73.6203,40.466 74.0687,40.5863 Q74.5281,40.6957 74.9109,40.9473 Z " fill="#000000"/><text fill="#000000" font-family="sans-serif" font-size="9.8" lengthAdjust="spacing" textLength="25.2" x="87.325" y="47.8926">Client</text><line style="stroke:#181818;stroke-width:0.3499999999999999;" x1="5.6" x2="171.5" y1="55.0348" y2="55.0348"/><text fill="#000000" font-family="sans-serif" font-size="9.8" lengthAdjust="spacing" textLength="56.7" x="9.1" y="68.41">-String name</text><text fill="#000000" font-family="sans-serif" font-size="9.8" lengthAdjust="spacing" textLength="89.6" x="9.1" y="81.4447">-int passportNumber</text><text fill="#000000" font-family="sans-serif" font-size="9.8" lengthAdjust="spacing" textLength="98.7" x="9.1" y="94.4795">-socialSecurityNumber</text><text fill="#000000" font-family="sans-serif" font-size="9.8" lengthAdjust="spacing" textLength="55.3" x="9.1" y="107.5143">-String email</text><text fill="#000000" font-family="sans-serif" font-size="9.8" lengthAdjust="spacing" textLength="94.5" x="9.1" y="120.549">-String phoneNumber</text><text fill="#000000" font-family="sans-serif" font-size="9.8" lengthAdjust="spacing" textLength="49.7" x="9.1" y="133.5838">-String pwd</text><line style="stroke:#181818;stroke-width:0.3499999999999999;" x1="5.6" x2="171.5" y1="138.8434" y2="138.8434"/><text fill="#000000" font-family="sans-serif" font-size="9.8" lengthAdjust="spacing" textLength="158.9" x="9.1" y="152.2186">+Client(email, name, phoneNumber)</text><text fill="#000000" font-family="sans-serif" font-size="9.8" lengthAdjust="spacing" textLength="89.6" x="9.1" y="165.2533">+getPhoneNumber()</text><text fill="#000000" font-family="sans-serif" font-size="9.8" lengthAdjust="spacing" textLength="51.8" x="9.1" y="178.2881">+getName()</text></g><!--class EditAndSortLists--><g id="elem_EditAndSortLists"><rect codeLine="56" fill="#F1F1F1" height="163.9477" id="EditAndSortLists" rx="1.75" ry="1.75" style="stroke:#181818;stroke-width:0.3499999999999999;" width="254.8" x="421.75" y="399.7848"/><ellipse cx="509.775" cy="410.9848" fill="#ADD1B2" rx="7.7" ry="7.7" style="stroke:#181818;stroke-width:0.6999999999999998;"/><path d="M511.7109,408.0973 Q511.8203,407.9441 511.9516,407.8676 Q512.0828,407.791 512.2359,407.791 Q512.4984,407.791 512.6625,407.977 Q512.8266,408.152 512.8266,408.5785 L512.8266,409.5957 Q512.8266,410.0223 512.6625,410.2082 Q512.4984,410.3941 512.2359,410.3941 Q511.9953,410.3941 511.8531,410.252 Q511.7109,410.1207 511.6344,409.7598 Q511.6016,409.5082 511.4703,409.377 Q511.2406,409.1145 510.8141,408.9613 Q510.3875,408.8082 509.95,408.8082 Q509.4141,408.8082 508.9656,409.0379 Q508.5281,409.2676 508.1781,409.7926 Q507.8391,410.3176 507.8391,411.0395 L507.8391,411.8051 Q507.8391,412.6691 508.4625,413.2488 Q509.0859,413.8176 510.2016,413.8176 Q510.8578,413.8176 511.3172,413.6426 Q511.5906,413.5332 511.8859,413.227 Q512.0719,413.041 512.1703,412.9863 Q512.2797,412.9316 512.4219,412.9316 Q512.6516,412.9316 512.8266,413.1176 Q513.0125,413.2926 513.0125,413.5332 Q513.0125,413.7738 512.7719,414.0582 Q512.4219,414.4629 511.8641,414.6926 Q511.1094,415.0098 510.2016,415.0098 Q509.1406,415.0098 508.2984,414.5723 Q507.6094,414.2223 507.1281,413.4785 Q506.6469,412.7238 506.6469,411.827 L506.6469,411.0176 Q506.6469,410.0879 507.0734,409.2895 Q507.5109,408.4801 508.2766,408.0535 Q509.0422,407.616 509.9062,407.616 Q510.4203,407.616 510.8687,407.7363 Q511.3281,407.8457 511.7109,408.0973 Z " fill="#000000"/><text fill="#000000" font-family="sans-serif" font-size="9.8" lengthAdjust="spacing" textLength="72.8" x="524.125" y="415.0426">EditAndSortLists</text><line style="stroke:#181818;stroke-width:0.3499999999999999;" x1="422.45" x2="675.85" y1="422.1848" y2="422.1848"/><line style="stroke:#181818;stroke-width:0.3499999999999999;" x1="422.45" x2="675.85" y1="427.7848" y2="427.7848"/><text fill="#000000" font-family="sans-serif" font-size="9.8" lengthAdjust="spacing" textLength="246.4" x="425.95" y="441.16">+List&lt;Property&gt; getPropertiesIfNotFromTheSameOwner</text><text fill="#000000" font-family="sans-serif" font-size="9.8" lengthAdjust="spacing" textLength="211.4" x="425.95" y="454.1947">(List&lt;Property&gt; propertyList, String ownerEmail)</text><text fill="#000000" font-family="sans-serif" font-size="9.8" lengthAdjust="spacing" textLength="210" x="425.95" y="467.2295">+List&lt;Property&gt; getPropertiesWithXTypeOfSale</text><text fill="#000000" font-family="sans-serif" font-size="9.8" lengthAdjust="spacing" textLength="179.9" x="425.95" y="480.2643">(List&lt;Property&gt; propertyList, String type)</text><text fill="#000000" font-family="sans-serif" font-size="9.8" lengthAdjust="spacing" textLength="197.4" x="425.95" y="493.299">+List&lt;Property&gt; getPropertiesIfTheyAreLand</text><text fill="#000000" font-family="sans-serif" font-size="9.8" lengthAdjust="spacing" textLength="126.7" x="425.95" y="506.3338">(List&lt;Property&gt; propertyList)</text><text fill="#000000" font-family="sans-serif" font-size="9.8" lengthAdjust="spacing" textLength="220.5" x="425.95" y="519.3686">+List&lt;Property&gt; getPropertiesIfTheyAreApartment</text><text fill="#000000" font-family="sans-serif" font-size="9.8" lengthAdjust="spacing" textLength="126.7" x="425.95" y="532.4033">(List&lt;Property&gt; propertyList)</text><text fill="#000000" font-family="sans-serif" font-size="9.8" lengthAdjust="spacing" textLength="203" x="425.95" y="545.4381">+List&lt;Property&gt; getPropertiesIfTheyAreHouse</text><text fill="#000000" font-family="sans-serif" font-size="9.8" lengthAdjust="spacing" textLength="126.7" x="425.95" y="558.4729">(List&lt;Property&gt; propertyList)</text></g><!--class Repositories--><g id="elem_Repositories"><rect codeLine="65" fill="#F1F1F1" height="111.8086" id="Repositories" rx="1.75" ry="1.75" style="stroke:#181818;stroke-width:0.3499999999999999;" width="280" x="568.75" y="52.2348"/><ellipse cx="678.125" cy="63.4348" fill="#ADD1B2" rx="7.7" ry="7.7" style="stroke:#181818;stroke-width:0.6999999999999998;"/><path d="M680.0609,60.5473 Q680.1703,60.3941 680.3016,60.3176 Q680.4328,60.241 680.5859,60.241 Q680.8484,60.241 681.0125,60.427 Q681.1766,60.602 681.1766,61.0285 L681.1766,62.0457 Q681.1766,62.4723 681.0125,62.6582 Q680.8484,62.8441 680.5859,62.8441 Q680.3453,62.8441 680.2031,62.702 Q680.0609,62.5707 679.9844,62.2098 Q679.9516,61.9582 679.8203,61.827 Q679.5906,61.5645 679.1641,61.4113 Q678.7375,61.2582 678.3,61.2582 Q677.7641,61.2582 677.3156,61.4879 Q676.8781,61.7176 676.5281,62.2426 Q676.1891,62.7676 676.1891,63.4895 L676.1891,64.2551 Q676.1891,65.1191 676.8125,65.6988 Q677.4359,66.2676 678.5516,66.2676 Q679.2078,66.2676 679.6672,66.0926 Q679.9406,65.9832 680.2359,65.677 Q680.4219,65.491 680.5203,65.4363 Q680.6297,65.3816 680.7719,65.3816 Q681.0016,65.3816 681.1766,65.5676 Q681.3625,65.7426 681.3625,65.9832 Q681.3625,66.2238 681.1219,66.5082 Q680.7719,66.9129 680.2141,67.1426 Q679.4594,67.4598 678.5516,67.4598 Q677.4906,67.4598 676.6484,67.0223 Q675.9594,66.6723 675.4781,65.9285 Q674.9969,65.1738 674.9969,64.277 L674.9969,63.4676 Q674.9969,62.5379 675.4234,61.7395 Q675.8609,60.9301 676.6266,60.5035 Q677.3922,60.066 678.2562,60.066 Q678.7703,60.066 679.2187,60.1863 Q679.6781,60.2957 680.0609,60.5473 Z " fill="#000000"/><text fill="#000000" font-family="sans-serif" font-size="9.8" lengthAdjust="spacing" textLength="55.3" x="692.475" y="67.4926">Repositories</text><line style="stroke:#181818;stroke-width:0.3499999999999999;" x1="569.45" x2="848.05" y1="74.6348" y2="74.6348"/><text fill="#000000" font-family="sans-serif" font-size="9.8" lengthAdjust="spacing" textLength="98.7" x="572.95" y="88.01">-Repositories instance</text><text fill="#000000" font-family="sans-serif" font-size="9.8" lengthAdjust="spacing" textLength="151.2" x="572.95" y="101.0447">-OrderRepository orderRepository</text><text fill="#000000" font-family="sans-serif" font-size="9.8" lengthAdjust="spacing" textLength="271.6" x="572.95" y="114.0795">-PropertyAnnouncementRepository announcementRepository</text><line style="stroke:#181818;stroke-width:0.3499999999999999;" x1="569.45" x2="848.05" y1="119.3391" y2="119.3391"/><text fill="#000000" font-family="sans-serif" font-size="9.8" lengthAdjust="spacing" textLength="63.7" x="572.95" y="132.7143">+getInstance()</text><text fill="#000000" font-family="sans-serif" font-size="9.8" lengthAdjust="spacing" textLength="100.1" x="572.95" y="145.749">+getOrderRepository()</text><text fill="#000000" font-family="sans-serif" font-size="9.8" lengthAdjust="spacing" textLength="178.5" x="572.95" y="158.7838">+getPropertyAnnouncementRepository()</text></g><!--class Order--><g id="elem_Order"><rect codeLine="75" fill="#F1F1F1" height="216.0867" id="Order" rx="1.75" ry="1.75" style="stroke:#181818;stroke-width:0.3499999999999999;" width="205.8" x="619.15" y="663.3348"/><ellipse cx="706.125" cy="674.5348" fill="#ADD1B2" rx="7.7" ry="7.7" style="stroke:#181818;stroke-width:0.6999999999999998;"/><path d="M708.0609,671.6473 Q708.1703,671.4941 708.3016,671.4176 Q708.4328,671.341 708.5859,671.341 Q708.8484,671.341 709.0125,671.527 Q709.1766,671.702 709.1766,672.1285 L709.1766,673.1457 Q709.1766,673.5723 709.0125,673.7582 Q708.8484,673.9441 708.5859,673.9441 Q708.3453,673.9441 708.2031,673.802 Q708.0609,673.6707 707.9844,673.3098 Q707.9516,673.0582 707.8203,672.927 Q707.5906,672.6645 707.1641,672.5113 Q706.7375,672.3582 706.3,672.3582 Q705.7641,672.3582 705.3156,672.5879 Q704.8781,672.8176 704.5281,673.3426 Q704.1891,673.8676 704.1891,674.5895 L704.1891,675.3551 Q704.1891,676.2191 704.8125,676.7988 Q705.4359,677.3676 706.5516,677.3676 Q707.2078,677.3676 707.6672,677.1926 Q707.9406,677.0832 708.2359,676.777 Q708.4219,676.591 708.5203,676.5363 Q708.6297,676.4816 708.7719,676.4816 Q709.0016,676.4816 709.1766,676.6676 Q709.3625,676.8426 709.3625,677.0832 Q709.3625,677.3238 709.1219,677.6082 Q708.7719,678.0129 708.2141,678.2426 Q707.4594,678.5598 706.5516,678.5598 Q705.4906,678.5598 704.6484,678.1223 Q703.9594,677.7723 703.4781,677.0285 Q702.9969,676.2738 702.9969,675.377 L702.9969,674.5676 Q702.9969,673.6379 703.4234,672.8395 Q703.8609,672.0301 704.6266,671.6035 Q705.3922,671.166 706.2562,671.166 Q706.7703,671.166 707.2187,671.2863 Q707.6781,671.3957 708.0609,671.6473 Z " fill="#000000"/><text fill="#000000" font-family="sans-serif" font-size="9.8" lengthAdjust="spacing" textLength="25.9" x="720.475" y="678.5926">Order</text><line style="stroke:#181818;stroke-width:0.3499999999999999;" x1="619.85" x2="824.25" y1="685.7348" y2="685.7348"/><text fill="#000000" font-family="sans-serif" font-size="9.8" lengthAdjust="spacing" textLength="102.9" x="623.35" y="699.11">-final String clientEmail;</text><text fill="#000000" font-family="sans-serif" font-size="9.8" lengthAdjust="spacing" textLength="105" x="623.35" y="712.1447">-final Property property;</text><text fill="#000000" font-family="sans-serif" font-size="9.8" lengthAdjust="spacing" textLength="81.9" x="623.35" y="725.1795">-final float amount;</text><text fill="#000000" font-family="sans-serif" font-size="9.8" lengthAdjust="spacing" textLength="56.7" x="623.35" y="738.2143">-String state;</text><line style="stroke:#181818;stroke-width:0.3499999999999999;" x1="619.85" x2="824.25" y1="743.4738" y2="743.4738"/><text fill="#000000" font-family="sans-serif" font-size="9.8" lengthAdjust="spacing" textLength="113.4" x="623.35" y="756.849">+Order(String clientEmail,</text><text fill="#000000" font-family="sans-serif" font-size="9.8" lengthAdjust="spacing" textLength="197.4" x="623.35" y="769.8838">Property property, float amount, String state)</text><text fill="#000000" font-family="sans-serif" font-size="9.8" lengthAdjust="spacing" textLength="104.3" x="623.35" y="782.9186">+String getClientEmail()</text><text fill="#000000" font-family="sans-serif" font-size="9.8" lengthAdjust="spacing" textLength="105" x="623.35" y="795.9533">+Property getProperty()</text><text fill="#000000" font-family="sans-serif" font-size="9.8" lengthAdjust="spacing" textLength="81.9" x="623.35" y="808.9881">+float getAmount()</text><text fill="#000000" font-family="sans-serif" font-size="9.8" lengthAdjust="spacing" textLength="78.4" x="623.35" y="822.0229">+String getState()</text><text fill="#000000" font-family="sans-serif" font-size="9.8" lengthAdjust="spacing" textLength="99.4" x="623.35" y="835.0576">+setState(String state)</text><text fill="#000000" font-family="sans-serif" font-size="9.8" lengthAdjust="spacing" textLength="75.6" x="623.35" y="848.0924">+String toString()</text><text fill="#000000" font-family="sans-serif" font-size="9.8" lengthAdjust="spacing" textLength="65.1" x="623.35" y="861.1271">+Order clone()</text><text fill="#000000" font-family="sans-serif" font-size="9.8" lengthAdjust="spacing" textLength="110.6" x="623.35" y="874.1619">+int compareTo(Order o)</text></g><!--class PropertyAnnouncementRepository--><g id="elem_PropertyAnnouncementRepository"><rect codeLine="92" fill="#F1F1F1" height="72.7043" id="PropertyAnnouncementRepository" rx="1.75" ry="1.75" style="stroke:#181818;stroke-width:0.3499999999999999;" width="174.3" x="751.1" y="239.1348"/><ellipse cx="761.6" cy="250.3348" fill="#ADD1B2" rx="7.7" ry="7.7" style="stroke:#181818;stroke-width:0.6999999999999998;"/><path d="M763.5359,247.4473 Q763.6453,247.2941 763.7766,247.2176 Q763.9078,247.141 764.0609,247.141 Q764.3234,247.141 764.4875,247.327 Q764.6516,247.502 764.6516,247.9285 L764.6516,248.9457 Q764.6516,249.3723 764.4875,249.5582 Q764.3234,249.7441 764.0609,249.7441 Q763.8203,249.7441 763.6781,249.602 Q763.5359,249.4707 763.4594,249.1098 Q763.4266,248.8582 763.2953,248.727 Q763.0656,248.4645 762.6391,248.3113 Q762.2125,248.1582 761.775,248.1582 Q761.2391,248.1582 760.7906,248.3879 Q760.3531,248.6176 760.0031,249.1426 Q759.6641,249.6676 759.6641,250.3895 L759.6641,251.1551 Q759.6641,252.0191 760.2875,252.5988 Q760.9109,253.1676 762.0266,253.1676 Q762.6828,253.1676 763.1422,252.9926 Q763.4156,252.8832 763.7109,252.577 Q763.8969,252.391 763.9953,252.3363 Q764.1047,252.2816 764.2469,252.2816 Q764.4766,252.2816 764.6516,252.4676 Q764.8375,252.6426 764.8375,252.8832 Q764.8375,253.1238 764.5969,253.4082 Q764.2469,253.8129 763.6891,254.0426 Q762.9344,254.3598 762.0266,254.3598 Q760.9656,254.3598 760.1234,253.9223 Q759.4344,253.5723 758.9531,252.8285 Q758.4719,252.0738 758.4719,251.177 L758.4719,250.3676 Q758.4719,249.4379 758.8984,248.6395 Q759.3359,247.8301 760.1016,247.4035 Q760.8672,246.966 761.7312,246.966 Q762.2453,246.966 762.6937,247.0863 Q763.1531,247.1957 763.5359,247.4473 Z " fill="#000000"/><text fill="#000000" font-family="sans-serif" font-size="9.8" lengthAdjust="spacing" textLength="151.9" x="771.4" y="254.3926">PropertyAnnouncementRepository</text><line style="stroke:#181818;stroke-width:0.3499999999999999;" x1="751.8" x2="924.7" y1="261.5348" y2="261.5348"/><text fill="#000000" font-family="sans-serif" font-size="9.8" lengthAdjust="spacing" textLength="123.2" x="755.3" y="274.91">-List&lt;Property&gt; propertyList</text><line style="stroke:#181818;stroke-width:0.3499999999999999;" x1="751.8" x2="924.7" y1="280.1695" y2="280.1695"/><text fill="#000000" font-family="sans-serif" font-size="9.8" lengthAdjust="spacing" textLength="79.1" x="755.3" y="293.5447">+getAgentEmail();</text><text fill="#000000" font-family="sans-serif" font-size="9.8" lengthAdjust="spacing" textLength="63.7" x="755.3" y="306.5795">+getRequest()</text></g><!--class Property--><g id="elem_Property"><rect codeLine="100" fill="#F1F1F1" height="111.8086" id="Property" rx="1.75" ry="1.75" style="stroke:#181818;stroke-width:0.3499999999999999;" width="140.7" x="767.9" y="425.6848"/><ellipse cx="816.375" cy="436.8848" fill="#B4A7E5" rx="7.7" ry="7.7" style="stroke:#181818;stroke-width:0.6999999999999998;"/><path d="M817.0422,434.5332 L817.0422,439.1926 L818.2453,439.1926 Q818.6719,439.1926 818.8578,439.3566 Q819.0437,439.5207 819.0437,439.7941 Q819.0437,440.0566 818.8578,440.2207 Q818.6719,440.3848 818.2453,440.3848 L814.6469,440.3848 Q814.2203,440.3848 814.0344,440.2207 Q813.8484,440.0566 813.8484,439.7832 Q813.8484,439.5207 814.0344,439.3566 Q814.2203,439.1926 814.6469,439.1926 L815.85,439.1926 L815.85,434.5332 L814.6469,434.5332 Q814.2203,434.5332 814.0344,434.3691 Q813.8484,434.2051 813.8484,433.9316 Q813.8484,433.6691 814.0344,433.5051 Q814.2203,433.341 814.6469,433.341 L818.2453,433.341 Q818.6719,433.341 818.8578,433.5051 Q819.0437,433.6691 819.0437,433.9316 Q819.0437,434.2051 818.8578,434.3691 Q818.6719,434.5332 818.2453,434.5332 L817.0422,434.5332 Z " fill="#000000"/><text fill="#000000" font-family="sans-serif" font-size="9.8" font-style="italic" lengthAdjust="spacing" textLength="37.8" x="830.725" y="440.9426">Property</text><line style="stroke:#181818;stroke-width:0.3499999999999999;" x1="768.6" x2="907.9" y1="448.0848" y2="448.0848"/><text fill="#000000" font-family="sans-serif" font-size="9.8" lengthAdjust="spacing" textLength="77" x="772.1" y="461.46">-Request request</text><text fill="#000000" font-family="sans-serif" font-size="9.8" lengthAdjust="spacing" textLength="45.5" x="772.1" y="474.4947">-float area</text><text fill="#000000" font-family="sans-serif" font-size="9.8" lengthAdjust="spacing" textLength="66.5" x="772.1" y="487.5295">-String location</text><text fill="#000000" font-family="sans-serif" font-size="9.8" lengthAdjust="spacing" textLength="132.3" x="772.1" y="500.5643">-float distanceFromCityCentre</text><text fill="#000000" font-family="sans-serif" font-size="9.8" lengthAdjust="spacing" textLength="92.4" x="772.1" y="513.599">-float requestedPrice</text><text fill="#000000" font-family="sans-serif" font-size="9.8" lengthAdjust="spacing" textLength="84" x="772.1" y="526.6338">-File[] photographs</text><line style="stroke:#181818;stroke-width:0.3499999999999999;" x1="768.6" x2="907.9" y1="531.8934" y2="531.8934"/></g><!--link PropertyAnnouncementRepository to Property--><g id="link_PropertyAnnouncementRepository_Property"><path codeLine="110" d="M838.25,312.1308 C838.25,342.4618 838.25,386.4988 838.25,421.9958 " fill="none" id="PropertyAnnouncementRepository-to-Property" style="stroke:#181818;stroke-width:0.6999999999999998;"/><polygon fill="#181818" points="838.25,425.6218,841.05,419.3218,838.25,422.1218,835.45,419.3218,838.25,425.6218" style="stroke:#181818;stroke-width:0.6999999999999998;"/><text fill="#000000" font-family="sans-serif" font-size="9.1" lengthAdjust="spacing" textLength="101.5" x="838.95" y="343.4546">contains announcements</text></g><!--link Client to PlaceOrderUI--><g id="link_Client_PlaceOrderUI"><path codeLine="112" d="M172.375,108.2348 C196.378,108.2348 222.908,108.2348 248.248,108.2348 " fill="none" id="Client-to-PlaceOrderUI" style="stroke:#181818;stroke-width:0.6999999999999998;"/><polygon fill="#181818" points="251.979,108.2348,245.679,105.4348,248.479,108.2348,245.679,111.0348,251.979,108.2348" style="stroke:#181818;stroke-width:0.6999999999999998;"/><text fill="#000000" font-family="sans-serif" font-size="9.1" lengthAdjust="spacing" textLength="53.9" x="185.15" y="103.3546">interacts with</text></g><!--link PlaceOrderUI to Repositories--><g id="link_PlaceOrderUI_Repositories"><path codeLine="113" d="M465.661,108.2348 C496.986,108.2348 531.762,108.2348 564.984,108.2348 " fill="none" id="PlaceOrderUI-to-Repositories" style="stroke:#181818;stroke-width:0.6999999999999998;"/><polygon fill="#181818" points="568.61,108.2348,562.31,105.4348,565.11,108.2348,562.31,111.0348,568.61,108.2348" style="stroke:#181818;stroke-width:0.6999999999999998;"/><text fill="#000000" font-family="sans-serif" font-size="9.1" lengthAdjust="spacing" textLength="72.8" x="480.725" y="103.3546">request properties</text></g><!--link Repositories to PlaceOrderUI--><g id="link_Repositories_PlaceOrderUI"><path codeLine="116" d="M568.568,121.7448 C556.619,122.8998 548.975,123.6348 548.975,123.6348 C548.975,123.6348 485.275,123.6348 485.275,123.6348 C485.275,123.6348 478.891,122.8578 468.993,121.6538 " fill="none" id="Repositories-to-PlaceOrderUI" style="stroke:#181818;stroke-width:0.6999999999999998;"/><polygon fill="#181818" points="465.507,121.2268,471.4249,124.7635,468.9816,121.6473,472.0978,119.2041,465.507,121.2268" style="stroke:#181818;stroke-width:0.6999999999999998;"/><text fill="#000000" font-family="sans-serif" font-size="9.1" lengthAdjust="spacing" textLength="62.3" x="485.975" y="120.8546">send properties</text></g><!--link Repositories to PropertyAnnouncementRepository--><g id="link_Repositories_PropertyAnnouncementRepository"><path codeLine="114" d="M752.052,164.4098 C770.42,187.9368 791.378,214.7888 808.031,236.1248 " fill="none" id="Repositories-to-PropertyAnnouncementRepository" style="stroke:#181818;stroke-width:0.6999999999999998;"/><polygon fill="#181818" points="810.25,238.9668,808.5873,232.2761,808.0991,236.2056,804.1695,235.7175,810.25,238.9668" style="stroke:#181818;stroke-width:0.6999999999999998;"/><text fill="#000000" font-family="sans-serif" font-size="9.1" lengthAdjust="spacing" textLength="34.3" x="792.75" y="215.3546">contains</text></g><!--link Repositories to OrderRepository--><g id="link_Repositories_OrderRepository"><path codeLine="115" d="M706.524,164.3468 C701.386,292.0408 689.15,596.1348 689.15,596.1348 C689.15,596.1348 600.621,668.0808 537.208,719.6148 " fill="none" id="Repositories-to-OrderRepository" style="stroke:#181818;stroke-width:0.6999999999999998;"/><polygon fill="#181818" points="534.394,721.9038,541.0459,720.0922,537.1064,719.6918,537.5068,715.7523,534.394,721.9038" style="stroke:#181818;stroke-width:0.6999999999999998;"/><text fill="#000000" font-family="sans-serif" font-size="9.1" lengthAdjust="spacing" textLength="34.3" x="699.65" y="343.4546">contains</text></g><!--link PlaceOrderUI to EditAndSortLists--><g id="link_PlaceOrderUI_EditAndSortLists"><path codeLine="117" d="M417.151,153.2728 C466.851,191.0028 530.25,239.1348 530.25,239.1348 C530.25,239.1348 537.082,326.5438 542.528,396.2638 " fill="none" id="PlaceOrderUI-EditAndSortLists" style="stroke:#181818;stroke-width:0.6999999999999998;"/><polygon fill="#181818" points="414.197,151.0258,417.5191,157.0667,416.9838,153.1433,420.9072,152.6079,414.197,151.0258" style="stroke:#181818;stroke-width:0.6999999999999998;"/><polygon fill="#181818" points="542.801,399.7778,545.1067,393.2806,542.531,396.2882,539.5234,393.7125,542.801,399.7778" style="stroke:#181818;stroke-width:0.6999999999999998;"/><text fill="#000000" font-family="sans-serif" font-size="9.1" lengthAdjust="spacing" textLength="58.1" x="536.55" y="279.4046">sort properties</text></g><!--link PlaceOrderUI to PlaceOrderController--><g id="link_PlaceOrderUI_PlaceOrderController"><path codeLine="118" d="M284.522,151.0258 C217.441,189.0638 129.15,239.1348 129.15,239.1348 C129.15,239.1348 129.15,311.9348 129.15,311.9348 C129.15,311.9348 143.647,334.9718 161.945,364.0358 " fill="none" id="PlaceOrderUI-to-PlaceOrderController" style="stroke:#181818;stroke-width:0.6999999999999998;"/><polygon fill="#181818" points="163.842,367.0528,162.8608,360.2287,161.9798,364.0893,158.1193,363.2082,163.842,367.0528" style="stroke:#181818;stroke-width:0.6999999999999998;"/><text fill="#000000" font-family="sans-serif" font-size="9.1" lengthAdjust="spacing" textLength="40.6" x="146.3" y="273.4546">request to</text><text fill="#000000" font-family="sans-serif" font-size="9.1" lengthAdjust="spacing" textLength="73.5" x="129.85" y="285.5583">sort the properties</text></g><!--link PlaceOrderController to PlaceOrderUI--><g id="link_PlaceOrderController_PlaceOrderUI"><path codeLine="120" d="M133.245,385.5888 C92.12,347.2428 54.25,311.9348 54.25,311.9348 C54.25,311.9348 54.25,239.1348 54.25,239.1348 C54.25,239.1348 184.45,183.8348 184.45,183.8348 C184.45,183.8348 219.191,168.9038 257.649,152.3768 " fill="none" id="PlaceOrderController-to-PlaceOrderUI" style="stroke:#181818;stroke-width:0.6999999999999998;"/><polygon fill="#181818" points="260.904,150.9838,254.0104,150.8919,257.687,152.3625,256.2164,156.0391,260.904,150.9838" style="stroke:#181818;stroke-width:0.6999999999999998;"/><text fill="#000000" font-family="sans-serif" font-size="9.1" lengthAdjust="spacing" textLength="35" x="71.4" y="273.4546">send the</text><text fill="#000000" font-family="sans-serif" font-size="9.1" lengthAdjust="spacing" textLength="67.9" x="54.95" y="285.5583">sorted properties</text></g><!--link PlaceOrderUI to PlaceOrderController--><g id="link_PlaceOrderUI_PlaceOrderController"><path codeLine="121" d="M322.21,153.9448 C291.662,191.5768 253.05,239.1348 253.05,239.1348 C253.05,239.1348 248.5,302.0158 244.041,363.6508 " fill="none" id="PlaceOrderUI-PlaceOrderController" style="stroke:#181818;stroke-width:0.6999999999999998;"/><polygon fill="#181818" points="324.576,151.0258,318.4301,154.1496,322.3689,153.7422,322.7764,157.6809,324.576,151.0258" style="stroke:#181818;stroke-width:0.6999999999999998;"/><polygon fill="#181818" points="243.789,367.1438,247.0493,361.0692,244.049,363.6534,241.4648,360.6532,243.789,367.1438" style="stroke:#181818;stroke-width:0.6999999999999998;"/><text fill="#000000" font-family="sans-serif" font-size="9.1" lengthAdjust="spacing" textLength="65.1" x="253.75" y="279.4046">choose property</text></g><!--link PlaceOrderUI to PlaceOrderController--><g id="link_PlaceOrderUI_PlaceOrderController"><path codeLine="122" d="M385.987,154.1758 C408.625,191.7658 437.15,239.1348 437.15,239.1348 C437.15,239.1348 437.15,311.9348 437.15,311.9348 C437.15,311.9348 389.641,351.7718 340.753,392.7708 " fill="none" id="PlaceOrderUI-PlaceOrderController-1" style="stroke:#181818;stroke-width:0.6999999999999998;"/><polygon fill="#181818" points="384.097,151.0258,384.9541,157.8665,385.9051,154.0226,389.749,154.9736,384.097,151.0258" style="stroke:#181818;stroke-width:0.6999999999999998;"/><polygon fill="#181818" points="337.827,395.2208,344.4524,393.3144,340.5076,392.9703,340.8516,389.0255,337.827,395.2208" style="stroke:#181818;stroke-width:0.6999999999999998;"/><text fill="#000000" font-family="sans-serif" font-size="9.1" lengthAdjust="spacing" textLength="55.3" x="453.25" y="273.4546">request, send</text><text fill="#000000" font-family="sans-serif" font-size="9.1" lengthAdjust="spacing" textLength="86.1" x="437.85" y="285.5583">and verify the amount</text></g><!--link PlaceOrderUI to PlaceOrderController--><g id="link_PlaceOrderUI_PlaceOrderController"><path codeLine="123" d="M350.574,154.5258 C339.843,214.3828 322.35,311.9348 322.35,311.9348 C322.35,311.9348 310.569,334.8808 295.687,363.8608 " fill="none" id="PlaceOrderUI-PlaceOrderController-2" style="stroke:#181818;stroke-width:0.6999999999999998;"/><polygon fill="#181818" points="351.211,150.9978,347.3408,156.7032,350.5919,154.4426,352.8525,157.6937,351.211,150.9978" style="stroke:#181818;stroke-width:0.6999999999999998;"/><polygon fill="#181818" points="294.049,367.0528,299.4209,362.7316,295.6502,363.9405,294.4413,360.1697,294.049,367.0528" style="stroke:#181818;stroke-width:0.6999999999999998;"/><text fill="#000000" font-family="sans-serif" font-size="9.1" lengthAdjust="spacing" textLength="80.5" x="336.35" y="273.4546">request to complete</text><text fill="#000000" font-family="sans-serif" font-size="9.1" lengthAdjust="spacing" textLength="76.3" x="338.45" y="285.5583">and verify the order</text></g><!--link PlaceOrderController to EditAndSortLists--><g id="link_PlaceOrderController_EditAndSortLists"><path codeLine="119" d="M341.572,481.6848 C366.044,481.6848 392.371,481.6848 417.781,481.6848 " fill="none" id="PlaceOrderController-EditAndSortLists" style="stroke:#181818;stroke-width:0.6999999999999998;"/><polygon fill="#181818" points="337.799,481.6848,344.099,484.4848,341.299,481.6848,344.099,478.8848,337.799,481.6848" style="stroke:#181818;stroke-width:0.6999999999999998;"/><polygon fill="#181818" points="421.519,481.6848,415.219,478.8848,418.019,481.6848,415.219,484.4848,421.519,481.6848" style="stroke:#181818;stroke-width:0.6999999999999998;"/><text fill="#000000" font-family="sans-serif" font-size="9.1" lengthAdjust="spacing" textLength="58.1" x="350.7" y="476.8046">sort properties</text></g><!--link PlaceOrderController to OrderRepository--><g id="link_PlaceOrderController_OrderRepository"><path codeLine="124" d="M329.721,596.1628 C364.91,638.6808 403.165,684.9018 431.473,719.1038 " fill="none" id="PlaceOrderController-to-OrderRepository" style="stroke:#181818;stroke-width:0.6999999999999998;"/><polygon fill="#181818" points="433.839,721.9598,431.986,715.3193,431.6102,719.2612,427.6682,718.8854,433.839,721.9598" style="stroke:#181818;stroke-width:0.6999999999999998;"/><text fill="#000000" font-family="sans-serif" font-size="9.1" lengthAdjust="spacing" textLength="40.6" x="372.05" y="627.6546">request to</text><text fill="#000000" font-family="sans-serif" font-size="9.1" lengthAdjust="spacing" textLength="58.8" x="362.95" y="639.7583">store the order</text></g><!--link OrderRepository to Order--><g id="link_OrderRepository_Order"><path codeLine="125" d="M559.531,771.4848 C577.507,771.4848 596.694,771.4848 615.356,771.4848 " fill="none" id="OrderRepository-to-Order" style="stroke:#181818;stroke-width:0.6999999999999998;"/><polygon fill="#181818" points="619.08,771.4848,612.78,768.6848,615.58,771.4848,612.78,774.2848,619.08,771.4848" style="stroke:#181818;stroke-width:0.6999999999999998;"/><text fill="#000000" font-family="sans-serif" font-size="9.1" lengthAdjust="spacing" textLength="34.3" x="572.075" y="766.6046">contains</text></g><!--SRC=[hLRVQoCt47xNNw6ts5mMqjTB21ZtZWiSSOXpj70kGTQERJMoj9Na63VqV-z8A-rglRRZmEKbNitCDxy_wSA-25KnmzPqhPNcAwFNG9tP06ab5UClR0bJjvD03N37r5Bc2dR5IhqLQaaNJDfS8eK2jwk0Lbhk_0UvE23KnccIMN79h1qvPyHyu-2EQpKL_mAz8kH2mi9HfwaHovMZfV3X2Aq8SS9XT3-cLxzTqGV9E52cwCIKO6X1nnwG_YxO4k498S51hHPKVjoHDqBnxnDbzcKqrnltLKW7nWw-2-jk7eokmBZTBPsfglujm5xIAMTAeGVBXz6yCaAvfEvjzm6gJ9QCNi68nMvI-KoEwAEx8Vcl7_bOAsUqb61Y1WLTICqSvThusepMUgDSa3m_F-_b-8J5doocJC97q-mY9BkFel2LrXREiyQoKXqgT7Qf6u1EiGtyim4R2pD8sarVkZs9MdL9MVZOQvflGaUEYUBWuYx0cWbvYL4SzS4DC0SZLJx24YC4Sm_RGu0prOKy0DYCHh1_X4fRuRJPqJGLeJP1U8lxXlzi5Corbe2xyigaA36SEe1wSu9YYZP7M88Bl-mWIUlfPJ9fiB8y169WhLzXC9d_ZSD9THRuM0h07h-H8YQhs1f8uVjUeRn2ahZVhESuw8NLN30v1RunmktIQLwZvgjQQGLx6jMs97uPFaMVWrXMx_0ojnYY2cRwq9uCuj4zgWwouB-Kmc4VfnYaBvEbRtdHsf7qQCrGtotkjVkAZFkqWYa2JhQu7ZDrYZ6QuT9UzukFUtY6fp-4M_tPRlkPFZmt3y_A0nFOZGnyPweyZVqXk17U1cwD3Vg5cD_qni9xU6rVcqL233-QdM-XB5w578TqV-bqzviKoTD8ALnf3ZwhJ9yTFAw75FEuYuxyzANDQzNYwMaNWtsAQ8XX8N1hKyjvM8WmLzSTUOzokkAShv8aGcBe3gxtRg2QPFfE3zBb9Jt8hm4uDJ-UOHt6BLf3JWraLgT6M8EZ999z7tBgFJNdDXsSYCFf-aTBZw7cN2AJD6UUshXUuvJ3aqvacT_ofuS6n_7459Ess3wrPLkJw_RuiRuBw-4W60-OXNyw9SWmyK4bNPkaYBt0gwiXLAav2w-mA2n5FQ-UsyR8q6DqRY198nAK3qRuvS6N5lpyo_Ekq_W-grOsn8uHlLE0ehXjE_iPIwaSmvtiR9Cb95uiNZbxyA51o9TnPEijyYFfI56xi-kVKzZPWunqDF9eZWJSnjWttQUGexgzD2oeCe-g8xxnsBtR2Otmzr6ZekEaVM9cLN1wfWA6My5XdCpivgCnPBR5aOJHRnq1l9FyaKJgjsUpCkSRnWfSXZ1c2g-y-1GCfQWvgeTsJa435qXmq0CDrydnylH7fzCbF8CCPbyx0MGJzpy0]--></g></svg>