<?xml version="1.0" encoding="us-ascii" standalone="no"?><svg xmlns="http://www.w3.org/2000/svg" xmlns:xlink="http://www.w3.org/1999/xlink" contentStyleType="text/css" height="2039px" preserveAspectRatio="none" style="width:1099px;height:2039px;background:#FFFFFF;" version="1.1" viewBox="0 0 1099 2039" width="1099px" zoomAndPan="magnify"><defs/><g><text fill="#000000" font-family="sans-serif" font-size="14" font-weight="bold" lengthAdjust="spacing" textLength="100" x="492.5661" y="25.1074">Domain Model</text><!--class UnregisteredUser--><g id="elem_UnregisteredUser"><rect codeLine="10" fill="#F1F1F1" height="119.1055" id="UnregisteredUser" rx="2.5" ry="2.5" style="stroke:#181818;stroke-width:0.5;" width="261" x="29.6323" y="46.6211"/><text fill="#000000" font-family="sans-serif" font-size="14" lengthAdjust="spacing" textLength="110" x="105.1323" y="66.7285">UnregisteredUser</text><line style="stroke:#181818;stroke-width:0.5;" x1="30.6323" x2="289.6323" y1="75.2422" y2="75.2422"/><line style="stroke:#181818;stroke-width:0.5;" x1="30.6323" x2="289.6323" y1="83.2422" y2="83.2422"/><text fill="#000000" font-family="sans-serif" font-size="14" lengthAdjust="spacing" textLength="170" x="35.6323" y="102.3496">+requestToListProperties()</text><text fill="#000000" font-family="sans-serif" font-size="14" lengthAdjust="spacing" textLength="249" x="35.6323" y="120.9707">+signIn(name, cardNumber, taxNumber,</text><text fill="#000000" font-family="sans-serif" font-size="14" lengthAdjust="spacing" textLength="209" x="35.6323" y="139.5918">emailAddress, telephoneNumber,</text><text fill="#000000" font-family="sans-serif" font-size="14" lengthAdjust="spacing" textLength="124" x="35.6323" y="158.2129">password, address)</text></g><!--class User--><g id="elem_User"><rect codeLine="16" fill="#F1F1F1" height="193.5898" id="User" rx="2.5" ry="2.5" style="stroke:#181818;stroke-width:0.5;" width="129" x="208.6323" y="495.6211"/><text fill="#000000" font-family="sans-serif" font-size="14" lengthAdjust="spacing" textLength="29" x="258.6323" y="515.7285">User</text><line style="stroke:#181818;stroke-width:0.5;" x1="209.6323" x2="336.6323" y1="524.2422" y2="524.2422"/><text fill="#000000" font-family="sans-serif" font-size="14" lengthAdjust="spacing" textLength="40" x="214.6323" y="543.3496">-name</text><text fill="#000000" font-family="sans-serif" font-size="14" lengthAdjust="spacing" textLength="82" x="214.6323" y="561.9707">-cardNumber</text><text fill="#000000" font-family="sans-serif" font-size="14" lengthAdjust="spacing" textLength="72" x="214.6323" y="580.5918">-taxNumber</text><text fill="#000000" font-family="sans-serif" font-size="14" lengthAdjust="spacing" textLength="90" x="214.6323" y="599.2129">-emailAddress</text><text fill="#000000" font-family="sans-serif" font-size="14" lengthAdjust="spacing" textLength="117" x="214.6323" y="617.834">-telephoneNumber</text><text fill="#000000" font-family="sans-serif" font-size="14" lengthAdjust="spacing" textLength="65" x="214.6323" y="636.4551">-password</text><text fill="#000000" font-family="sans-serif" font-size="14" lengthAdjust="spacing" textLength="56" x="214.6323" y="655.0762">-address</text><line style="stroke:#181818;stroke-width:0.5;" x1="209.6323" x2="336.6323" y1="662.5898" y2="662.5898"/><text fill="#000000" font-family="sans-serif" font-size="14" lengthAdjust="spacing" textLength="100" x="214.6323" y="681.6973">+listProperties()</text></g><!--class Organization--><g id="elem_Organization"><rect codeLine="28" fill="#F1F1F1" height="137.7266" id="Organization" rx="2.5" ry="2.5" style="stroke:#181818;stroke-width:0.5;" width="106" x="863.1323" y="523.6211"/><text fill="#000000" font-family="sans-serif" font-size="14" lengthAdjust="spacing" textLength="80" x="876.1323" y="543.7285">Organization</text><line style="stroke:#181818;stroke-width:0.5;" x1="864.1323" x2="968.1323" y1="552.2422" y2="552.2422"/><text fill="#000000" font-family="sans-serif" font-size="14" lengthAdjust="spacing" textLength="40" x="869.1323" y="571.3496">-name</text><text fill="#000000" font-family="sans-serif" font-size="14" lengthAdjust="spacing" textLength="73" x="869.1323" y="589.9707">-vatNumber</text><text fill="#000000" font-family="sans-serif" font-size="14" lengthAdjust="spacing" textLength="52" x="869.1323" y="608.5918">-website</text><text fill="#000000" font-family="sans-serif" font-size="14" lengthAdjust="spacing" textLength="94" x="869.1323" y="627.2129">-phoneNumber</text><text fill="#000000" font-family="sans-serif" font-size="14" lengthAdjust="spacing" textLength="38" x="869.1323" y="645.834">-email</text><line style="stroke:#181818;stroke-width:0.5;" x1="864.1323" x2="968.1323" y1="653.3477" y2="653.3477"/></g><!--class Task--><g id="elem_Task"><rect codeLine="36" fill="#F1F1F1" height="156.3477" id="Task" rx="2.5" ry="2.5" style="stroke:#181818;stroke-width:0.5;" width="105" x="868.6323" y="1048.6211"/><text fill="#000000" font-family="sans-serif" font-size="14" lengthAdjust="spacing" textLength="31" x="905.6323" y="1068.7285">Task</text><line style="stroke:#181818;stroke-width:0.5;" x1="869.6323" x2="972.6323" y1="1077.2422" y2="1077.2422"/><text fill="#000000" font-family="sans-serif" font-size="14" lengthAdjust="spacing" textLength="66" x="874.6323" y="1096.3496">-reference</text><text fill="#000000" font-family="sans-serif" font-size="14" lengthAdjust="spacing" textLength="74" x="874.6323" y="1114.9707">-description</text><text fill="#000000" font-family="sans-serif" font-size="14" lengthAdjust="spacing" textLength="87" x="874.6323" y="1133.5918">-informalDesc</text><text fill="#000000" font-family="sans-serif" font-size="14" lengthAdjust="spacing" textLength="93" x="874.6323" y="1152.2129">-technicalDesc</text><text fill="#000000" font-family="sans-serif" font-size="14" lengthAdjust="spacing" textLength="57" x="874.6323" y="1170.834">-duration</text><text fill="#000000" font-family="sans-serif" font-size="14" lengthAdjust="spacing" textLength="31" x="874.6323" y="1189.4551">-cost</text><line style="stroke:#181818;stroke-width:0.5;" x1="869.6323" x2="972.6323" y1="1196.9688" y2="1196.9688"/></g><!--class Category--><g id="elem_Category"><rect codeLine="45" fill="#F1F1F1" height="63.2422" id="Category" rx="2.5" ry="2.5" style="stroke:#181818;stroke-width:0.5;" width="86" x="936.1323" y="1328.6211"/><text fill="#000000" font-family="sans-serif" font-size="14" lengthAdjust="spacing" textLength="58" x="950.1323" y="1348.7285">Category</text><line style="stroke:#181818;stroke-width:0.5;" x1="937.1323" x2="1021.1323" y1="1357.2422" y2="1357.2422"/><text fill="#000000" font-family="sans-serif" font-size="14" lengthAdjust="spacing" textLength="74" x="942.1323" y="1376.3496">-description</text><line style="stroke:#181818;stroke-width:0.5;" x1="937.1323" x2="1021.1323" y1="1383.8633" y2="1383.8633"/></g><!--class Employee--><g id="elem_Employee"><rect codeLine="49" fill="#F1F1F1" height="174.9688" id="Employee" rx="2.5" ry="2.5" style="stroke:#181818;stroke-width:0.5;" width="94" x="441.1323" y="768.6211"/><text fill="#000000" font-family="sans-serif" font-size="14" lengthAdjust="spacing" textLength="62" x="457.1323" y="788.7285">Employee</text><line style="stroke:#181818;stroke-width:0.5;" x1="442.1323" x2="534.1323" y1="797.2422" y2="797.2422"/><text fill="#000000" font-family="sans-serif" font-size="14" lengthAdjust="spacing" textLength="29" x="447.1323" y="816.3496">-role</text><text fill="#000000" font-family="sans-serif" font-size="14" lengthAdjust="spacing" textLength="82" x="447.1323" y="834.9707">-cardNumber</text><text fill="#000000" font-family="sans-serif" font-size="14" lengthAdjust="spacing" textLength="72" x="447.1323" y="853.5918">-taxNumber</text><text fill="#000000" font-family="sans-serif" font-size="14" lengthAdjust="spacing" textLength="56" x="447.1323" y="872.2129">-address</text><text fill="#000000" font-family="sans-serif" font-size="14" lengthAdjust="spacing" textLength="38" x="447.1323" y="890.834">-email</text><text fill="#000000" font-family="sans-serif" font-size="14" lengthAdjust="spacing" textLength="45" x="447.1323" y="909.4551">-phone</text><text fill="#000000" font-family="sans-serif" font-size="14" lengthAdjust="spacing" textLength="51" x="447.1323" y="928.0762">-agency</text><line style="stroke:#181818;stroke-width:0.5;" x1="442.1323" x2="534.1323" y1="935.5898" y2="935.5898"/></g><!--class Platform--><g id="elem_Platform"><rect codeLine="60" fill="#F1F1F1" height="63.2422" id="Platform" rx="2.5" ry="2.5" style="stroke:#181818;stroke-width:0.5;" width="86" x="933.1323" y="299.1211"/><text fill="#000000" font-family="sans-serif" font-size="14" lengthAdjust="spacing" textLength="52" x="950.1323" y="319.2285">Platform</text><line style="stroke:#181818;stroke-width:0.5;" x1="934.1323" x2="1018.1323" y1="327.7422" y2="327.7422"/><text fill="#000000" font-family="sans-serif" font-size="14" lengthAdjust="spacing" textLength="74" x="939.1323" y="346.8496">-description</text><line style="stroke:#181818;stroke-width:0.5;" x1="934.1323" x2="1018.1323" y1="354.3633" y2="354.3633"/></g><!--class System--><g id="elem_System"><rect codeLine="64" fill="#F1F1F1" height="137.7266" id="System" rx="2.5" ry="2.5" style="stroke:#181818;stroke-width:0.5;" width="301" x="9.6323" y="261.6211"/><text fill="#000000" font-family="sans-serif" font-size="14" lengthAdjust="spacing" textLength="46" x="137.1323" y="281.7285">System</text><line style="stroke:#181818;stroke-width:0.5;" x1="10.6323" x2="309.6323" y1="290.2422" y2="290.2422"/><text fill="#000000" font-family="sans-serif" font-size="14" lengthAdjust="spacing" textLength="101" x="15.6323" y="309.3496">-advertisements</text><text fill="#000000" font-family="sans-serif" font-size="14" lengthAdjust="spacing" textLength="73" x="15.6323" y="327.9707">-application</text><line style="stroke:#181818;stroke-width:0.5;" x1="10.6323" x2="309.6323" y1="335.4844" y2="335.4844"/><text fill="#000000" font-family="sans-serif" font-size="14" lengthAdjust="spacing" textLength="289" x="15.6323" y="354.5918">+registerUser(name, cardNumber, taxNumber,</text><text fill="#000000" font-family="sans-serif" font-size="14" lengthAdjust="spacing" textLength="209" x="15.6323" y="373.2129">emailAddress, telephoneNumber,</text><text fill="#000000" font-family="sans-serif" font-size="14" lengthAdjust="spacing" textLength="124" x="15.6323" y="391.834">password, address)</text></g><!--class SystemAdministrator--><g id="elem_SystemAdministrator"><rect codeLine="71" fill="#F1F1F1" height="44.6211" id="SystemAdministrator" rx="2.5" ry="2.5" style="stroke:#181818;stroke-width:0.5;" width="135" x="417.6323" y="1104.1211"/><text fill="#000000" font-family="sans-serif" font-size="14" lengthAdjust="spacing" textLength="129" x="420.6323" y="1124.2285">SystemAdministrator</text><line style="stroke:#181818;stroke-width:0.5;" x1="418.6323" x2="551.6323" y1="1132.7422" y2="1132.7422"/><line style="stroke:#181818;stroke-width:0.5;" x1="418.6323" x2="551.6323" y1="1140.7422" y2="1140.7422"/></g><!--class Agent--><g id="elem_Agent"><rect codeLine="75" fill="#F1F1F1" height="63.2422" id="Agent" rx="2.5" ry="2.5" style="stroke:#181818;stroke-width:0.5;" width="43" x="215.6323" y="1328.6211"/><text fill="#000000" font-family="sans-serif" font-size="14" lengthAdjust="spacing" textLength="37" x="218.6323" y="1348.7285">Agent</text><line style="stroke:#181818;stroke-width:0.5;" x1="216.6323" x2="257.6323" y1="1357.2422" y2="1357.2422"/><text fill="#000000" font-family="sans-serif" font-size="14" lengthAdjust="spacing" textLength="18" x="221.6323" y="1376.3496">-ID</text><line style="stroke:#181818;stroke-width:0.5;" x1="216.6323" x2="257.6323" y1="1383.8633" y2="1383.8633"/></g><!--class Owner--><g id="elem_Owner"><rect codeLine="80" fill="#F1F1F1" height="44.6211" id="Owner" rx="2.5" ry="2.5" style="stroke:#181818;stroke-width:0.5;" width="47" x="587.6323" y="1104.1211"/><text fill="#000000" font-family="sans-serif" font-size="14" lengthAdjust="spacing" textLength="41" x="590.6323" y="1124.2285">Owner</text><line style="stroke:#181818;stroke-width:0.5;" x1="588.6323" x2="633.6323" y1="1132.7422" y2="1132.7422"/><line style="stroke:#181818;stroke-width:0.5;" x1="588.6323" x2="633.6323" y1="1140.7422" y2="1140.7422"/></g><!--class NetworkBranch--><g id="elem_NetworkBranch"><rect codeLine="84" fill="#F1F1F1" height="119.1055" id="NetworkBranch" rx="2.5" ry="2.5" style="stroke:#181818;stroke-width:0.5;" width="109" x="442.6323" y="1300.6211"/><text fill="#000000" font-family="sans-serif" font-size="14" lengthAdjust="spacing" textLength="95" x="449.6323" y="1320.7285">NetworkBranch</text><line style="stroke:#181818;stroke-width:0.5;" x1="443.6323" x2="550.6323" y1="1329.2422" y2="1329.2422"/><text fill="#000000" font-family="sans-serif" font-size="14" lengthAdjust="spacing" textLength="78" x="448.6323" y="1348.3496">-designation</text><text fill="#000000" font-family="sans-serif" font-size="14" lengthAdjust="spacing" textLength="54" x="448.6323" y="1366.9707">-location</text><text fill="#000000" font-family="sans-serif" font-size="14" lengthAdjust="spacing" textLength="38" x="448.6323" y="1385.5918">-email</text><text fill="#000000" font-family="sans-serif" font-size="14" lengthAdjust="spacing" textLength="97" x="448.6323" y="1404.2129">-phone number</text><line style="stroke:#181818;stroke-width:0.5;" x1="443.6323" x2="550.6323" y1="1411.7266" y2="1411.7266"/></g><!--class Store--><g id="elem_Store"><rect codeLine="92" fill="#F1F1F1" height="63.2422" id="Store" rx="2.5" ry="2.5" style="stroke:#181818;stroke-width:0.5;" width="66" x="341.1323" y="1328.6211"/><text fill="#000000" font-family="sans-serif" font-size="14" lengthAdjust="spacing" textLength="34" x="357.1323" y="1348.7285">Store</text><line style="stroke:#181818;stroke-width:0.5;" x1="342.1323" x2="406.1323" y1="1357.2422" y2="1357.2422"/><text fill="#000000" font-family="sans-serif" font-size="14" lengthAdjust="spacing" textLength="54" x="347.1323" y="1376.3496">-location</text><line style="stroke:#181818;stroke-width:0.5;" x1="342.1323" x2="406.1323" y1="1383.8633" y2="1383.8633"/></g><!--class Property--><g id="elem_Property"><rect codeLine="97" fill="#F1F1F1" height="156.3477" id="Property" rx="2.5" ry="2.5" style="stroke:#181818;stroke-width:0.5;" width="170" x="152.1323" y="1498.6211"/><text fill="#000000" font-family="sans-serif" font-size="14" lengthAdjust="spacing" textLength="54" x="210.1323" y="1518.7285">Property</text><line style="stroke:#181818;stroke-width:0.5;" x1="153.1323" x2="321.1323" y1="1527.2422" y2="1527.2422"/><text fill="#000000" font-family="sans-serif" font-size="14" lengthAdjust="spacing" textLength="32" x="158.1323" y="1546.3496">-type</text><text fill="#000000" font-family="sans-serif" font-size="14" lengthAdjust="spacing" textLength="34" x="158.1323" y="1564.9707">-area</text><text fill="#000000" font-family="sans-serif" font-size="14" lengthAdjust="spacing" textLength="54" x="158.1323" y="1583.5918">-location</text><text fill="#000000" font-family="sans-serif" font-size="14" lengthAdjust="spacing" textLength="158" x="158.1323" y="1602.2129">-distanceFromCityCentre</text><text fill="#000000" font-family="sans-serif" font-size="14" lengthAdjust="spacing" textLength="101" x="158.1323" y="1620.834">-requestedPrice</text><text fill="#000000" font-family="sans-serif" font-size="14" lengthAdjust="spacing" textLength="85" x="158.1323" y="1639.4551">-photographs</text><line style="stroke:#181818;stroke-width:0.5;" x1="153.1323" x2="321.1323" y1="1646.9688" y2="1646.9688"/></g><!--class Apartment--><g id="elem_Apartment"><rect codeLine="107" fill="#F1F1F1" height="44.6211" id="Apartment" rx="2.5" ry="2.5" style="stroke:#181818;stroke-width:0.5;" width="71" x="76.6323" y="1959.1211"/><text fill="#000000" font-family="sans-serif" font-size="14" lengthAdjust="spacing" textLength="65" x="79.6323" y="1979.2285">Apartment</text><line style="stroke:#181818;stroke-width:0.5;" x1="77.6323" x2="146.6323" y1="1987.7422" y2="1987.7422"/><line style="stroke:#181818;stroke-width:0.5;" x1="77.6323" x2="146.6323" y1="1995.7422" y2="1995.7422"/></g><!--class House--><g id="elem_House"><rect codeLine="111" fill="#F1F1F1" height="100.4844" id="House" rx="2.5" ry="2.5" style="stroke:#181818;stroke-width:0.5;" width="110" x="183.1323" y="1931.6211"/><text fill="#000000" font-family="sans-serif" font-size="14" lengthAdjust="spacing" textLength="40" x="218.1323" y="1951.7285">House</text><line style="stroke:#181818;stroke-width:0.5;" x1="184.1323" x2="292.1323" y1="1960.2422" y2="1960.2422"/><text fill="#000000" font-family="sans-serif" font-size="14" lengthAdjust="spacing" textLength="67" x="189.1323" y="1979.3496">-basement</text><text fill="#000000" font-family="sans-serif" font-size="14" lengthAdjust="spacing" textLength="98" x="189.1323" y="1997.9707">-inhabitableLoft</text><text fill="#000000" font-family="sans-serif" font-size="14" lengthAdjust="spacing" textLength="87" x="189.1323" y="2016.5918">-sunExposure</text><line style="stroke:#181818;stroke-width:0.5;" x1="184.1323" x2="292.1323" y1="2024.1055" y2="2024.1055"/></g><!--class Client--><g id="elem_Client"><rect codeLine="118" fill="#F1F1F1" height="44.6211" id="Client" rx="2.5" ry="2.5" style="stroke:#181818;stroke-width:0.5;" width="42" x="210.1323" y="973.6211"/><text fill="#000000" font-family="sans-serif" font-size="14" lengthAdjust="spacing" textLength="36" x="213.1323" y="993.7285">Client</text><line style="stroke:#181818;stroke-width:0.5;" x1="211.1323" x2="251.1323" y1="1002.2422" y2="1002.2422"/><line style="stroke:#181818;stroke-width:0.5;" x1="211.1323" x2="251.1323" y1="1010.2422" y2="1010.2422"/></g><!--class ApartmentOrHouse--><g id="elem_ApartmentOrHouse"><rect codeLine="122" fill="#F1F1F1" height="119.1055" id="ApartmentOrHouse" rx="2.5" ry="2.5" style="stroke:#181818;stroke-width:0.5;" width="140" x="105.1323" y="1733.6211"/><text fill="#000000" font-family="sans-serif" font-size="14" lengthAdjust="spacing" textLength="121" x="114.6323" y="1753.7285">ApartmentOrHouse</text><line style="stroke:#181818;stroke-width:0.5;" x1="106.1323" x2="244.1323" y1="1762.2422" y2="1762.2422"/><text fill="#000000" font-family="sans-serif" font-size="14" lengthAdjust="spacing" textLength="68" x="111.1323" y="1781.3496">-bedrooms</text><text fill="#000000" font-family="sans-serif" font-size="14" lengthAdjust="spacing" textLength="72" x="111.1323" y="1799.9707">-bathrooms</text><text fill="#000000" font-family="sans-serif" font-size="14" lengthAdjust="spacing" textLength="99" x="111.1323" y="1818.5918">-parkingSpaces</text><text fill="#000000" font-family="sans-serif" font-size="14" lengthAdjust="spacing" textLength="128" x="111.1323" y="1837.2129">-availableEquipment</text><line style="stroke:#181818;stroke-width:0.5;" x1="106.1323" x2="244.1323" y1="1844.7266" y2="1844.7266"/></g><!--class Land--><g id="elem_Land"><rect codeLine="129" fill="#F1F1F1" height="44.6211" id="Land" rx="2.5" ry="2.5" style="stroke:#181818;stroke-width:0.5;" width="38" x="280.1323" y="1770.6211"/><text fill="#000000" font-family="sans-serif" font-size="14" lengthAdjust="spacing" textLength="32" x="283.1323" y="1790.7285">Land</text><line style="stroke:#181818;stroke-width:0.5;" x1="281.1323" x2="317.1323" y1="1799.2422" y2="1799.2422"/><line style="stroke:#181818;stroke-width:0.5;" x1="281.1323" x2="317.1323" y1="1807.2422" y2="1807.2422"/></g><!--link UnregisteredUser to System--><g id="link_UnregisteredUser_System"><path codeLine="132" d="M74.1323,165.6511 C56.4023,185.0611 45.8623,207.8311 56.1323,231.6211 C60.7023,242.2111 67.0523,252.1911 74.3623,261.4211 " fill="none" id="UnregisteredUser-System" style="stroke:#181818;stroke-width:1.0;"/><polygon fill="#000000" points="61.1443,218.7666,64.0615,209.7145,58.1836,209.7286,61.1443,218.7666" style="stroke:#000000;stroke-width:1.0;"/><text fill="#000000" font-family="sans-serif" font-size="13" lengthAdjust="spacing" textLength="147" x="70.1323" y="219.1494">requests to list properties</text><text fill="#000000" font-family="sans-serif" font-size="13" lengthAdjust="spacing" textLength="7" x="56.7838" y="187.5561">1</text><text fill="#000000" font-family="sans-serif" font-size="13" lengthAdjust="spacing" textLength="7" x="58.1563" y="250.4657">1</text></g><!--link UnregisteredUser to System--><g id="link_UnregisteredUser_System"><path codeLine="135" d="M208.4523,165.9211 C214.0623,175.3811 218.9123,185.4211 222.1323,195.6211 C228.5323,215.9011 224.2723,237.1111 215.5823,256.5211 " fill="none" id="UnregisteredUser-to-System" style="stroke:#181818;stroke-width:1.0;"/><polygon fill="#181818" points="213.2823,261.4111,220.7386,254.9766,215.4147,256.8886,213.5027,251.5647,213.2823,261.4111" style="stroke:#181818;stroke-width:1.0;"/><text fill="#000000" font-family="sans-serif" font-size="13" lengthAdjust="spacing" textLength="114" x="226.1323" y="210.6494">provides information</text><text fill="#000000" font-family="sans-serif" font-size="13" lengthAdjust="spacing" textLength="103" x="231.6323" y="227.9404">needed to sign up</text><text fill="#000000" font-family="sans-serif" font-size="13" lengthAdjust="spacing" textLength="7" x="206.6346" y="187.8573">1</text><text fill="#000000" font-family="sans-serif" font-size="13" lengthAdjust="spacing" textLength="7" x="211.4024" y="250.4547">1</text></g><!--link System to Property--><g id="link_System_Property"><path codeLine="133" d="M96.5223,399.8111 C57.1723,449.1911 14.1323,519.6611 14.1323,591.6211 C14.1323,591.6211 14.1323,591.6211 14.1323,1361.1211 C14.1323,1440.7611 88.9123,1500.0911 151.8723,1535.9311 " fill="none" id="System-Property" style="stroke:#181818;stroke-width:1.0;"/><polygon fill="#000000" points="19.3756,1001.2607,21.8709,992.0833,16,992.3693,19.3756,1001.2607" style="stroke:#000000;stroke-width:1.0;"/><text fill="#000000" font-family="sans-serif" font-size="13" lengthAdjust="spacing" textLength="24" x="28.1323" y="1001.6494">lists</text><text fill="#000000" font-family="sans-serif" font-size="13" lengthAdjust="spacing" textLength="7" x="83.1259" y="421.2711">1</text><text fill="#000000" font-family="sans-serif" font-size="13" lengthAdjust="spacing" textLength="5" x="139.0562" y="1528.5759">*</text></g><!--link System to System--><g id="link_System_System"><path codeLine="136" d="M310.7923,311.2111 C331.6723,314.4111 345.6323,320.8811 345.6323,330.6211 C345.6323,339.5211 333.9723,345.7011 316.0223,349.1311 " fill="none" id="System-to-System" style="stroke:#181818;stroke-width:1.0;"/><polygon fill="#181818" points="310.7923,350.0311,320.3378,352.4567,315.7207,349.1883,318.9892,344.5712,310.7923,350.0311" style="stroke:#181818;stroke-width:1.0;"/><text fill="#000000" font-family="sans-serif" font-size="13" lengthAdjust="spacing" textLength="85" x="370.6323" y="327.6494">verifies sign up</text><text fill="#000000" font-family="sans-serif" font-size="13" lengthAdjust="spacing" textLength="123" x="351.6323" y="344.9404">with given information</text></g><!--link System to User--><g id="link_System_User"><path codeLine="137" d="M189.8223,399.9311 C201.8623,427.6411 216.0223,460.2111 229.2123,490.5711 " fill="none" id="System-to-User" style="stroke:#181818;stroke-width:1.0;"/><polygon fill="#181818" points="231.3223,495.4211,231.3908,485.5725,229.3234,490.838,224.0579,488.7706,231.3223,495.4211" style="stroke:#181818;stroke-width:1.0;"/><text fill="#000000" font-family="sans-serif" font-size="13" lengthAdjust="spacing" textLength="99" x="224.6323" y="444.6494">creates user with</text><text fill="#000000" font-family="sans-serif" font-size="13" lengthAdjust="spacing" textLength="114" x="217.1323" y="461.9404">provided information</text><text fill="#000000" font-family="sans-serif" font-size="13" lengthAdjust="spacing" textLength="7" x="185.3185" y="421.4026">1</text><text fill="#000000" font-family="sans-serif" font-size="13" lengthAdjust="spacing" textLength="7" x="220.8532" y="484.3836">1</text></g><!--link SystemAdministrator to Employee--><g id="link_SystemAdministrator_Employee"><path codeLine="139" d="M452.4623,1104.0911 C414.6323,1076.2311 359.9323,1025.1311 380.1323,973.6211 C392.5223,942.0411 417.9323,913.9111 441.0023,893.2111 " fill="none" id="SystemAdministrator-Employee" style="stroke:#181818;stroke-width:1.0;"/><polygon fill="#000000" points="384.861,991.274,382.4172,1000.4652,388.2864,1000.1462,384.861,991.274" style="stroke:#000000;stroke-width:1.0;"/><text fill="#000000" font-family="sans-serif" font-size="13" lengthAdjust="spacing" textLength="50" x="394.1323" y="1001.6494">registers</text><text fill="#000000" font-family="sans-serif" font-size="13" lengthAdjust="spacing" textLength="7" x="435.7416" y="1092.8701">1</text><text fill="#000000" font-family="sans-serif" font-size="13" lengthAdjust="spacing" textLength="5" x="428.0925" y="914.531">*</text></g><!--link Employee to SystemAdministrator--><g id="link_Employee_SystemAdministrator"><path codeLine="161" d="M485.6523,943.6411 C485.4423,953.7411 485.2623,963.9111 485.1323,973.6211 C484.5323,1020.0611 484.7623,1074.4911 484.9523,1103.9711 " fill="none" id="Employee-SystemAdministrator" style="stroke:#181818;stroke-width:1.0;"/><polygon fill="#000000" points="490.1105,1001.2666,493.0888,992.2344,487.211,992.2087,490.1105,1001.2666" style="stroke:#000000;stroke-width:1.0;"/><text fill="#000000" font-family="sans-serif" font-size="13" lengthAdjust="spacing" textLength="39" x="499.1323" y="1001.6494">can be</text><text fill="#000000" font-family="sans-serif" font-size="13" lengthAdjust="spacing" textLength="7" x="478.1571" y="965.6344">1</text><text fill="#000000" font-family="sans-serif" font-size="13" lengthAdjust="spacing" textLength="7" x="476.9633" y="1092.7179">1</text></g><!--link SystemAdministrator to NetworkBranch--><g id="link_SystemAdministrator_NetworkBranch"><path codeLine="140" d="M484.2223,1149.4511 C483.2523,1177.5311 482.2423,1227.7711 485.1323,1270.6211 C485.7823,1280.2111 486.8123,1290.3511 488.0223,1300.2011 " fill="none" id="SystemAdministrator-NetworkBranch" style="stroke:#181818;stroke-width:1.0;"/><polygon fill="#000000" points="490.2583,1257.765,492.9683,1248.6487,487.0924,1248.7969,490.2583,1257.765" style="stroke:#000000;stroke-width:1.0;"/><text fill="#000000" font-family="sans-serif" font-size="13" lengthAdjust="spacing" textLength="50" x="499.1323" y="1258.1494">registers</text><text fill="#000000" font-family="sans-serif" font-size="13" lengthAdjust="spacing" textLength="7" x="476.2025" y="1170.8019">1</text><text fill="#000000" font-family="sans-serif" font-size="13" lengthAdjust="spacing" textLength="5" x="481.6799" y="1289.3291">*</text></g><!--link SystemAdministrator to Store--><g id="link_SystemAdministrator_Store"><path codeLine="141" d="M466.7323,1149.2311 C449.9223,1169.9511 425.4123,1202.7011 410.1323,1234.6211 C395.5623,1265.0611 385.7023,1302.5711 380.0423,1328.4211 " fill="none" id="SystemAdministrator-Store" style="stroke:#181818;stroke-width:1.0;"/><polygon fill="#000000" points="412.9548,1257.2675,419.5395,1250.4052,414.2483,1247.8454,412.9548,1257.2675" style="stroke:#000000;stroke-width:1.0;"/><text fill="#000000" font-family="sans-serif" font-size="13" lengthAdjust="spacing" textLength="50" x="424.1323" y="1258.1494">registers</text><text fill="#000000" font-family="sans-serif" font-size="13" lengthAdjust="spacing" textLength="7" x="454.3942" y="1170.9241">1</text><text fill="#000000" font-family="sans-serif" font-size="13" lengthAdjust="spacing" textLength="5" x="375.7456" y="1317.1632">*</text></g><!--link SystemAdministrator to System--><g id="link_SystemAdministrator_System"><path codeLine="142" d="M502.6923,1104.0911 C518.4323,1086.3111 543.1623,1061.9111 570.1323,1048.6211 C636.9923,1015.6711 687.3723,1075.8411 735.1323,1018.6211 C747.9423,1003.2611 741.3123,992.6411 735.1323,973.6211 C642.8423,689.4411 564.6323,626.7911 340.1323,429.6211 C327.9723,418.9411 314.4423,408.9611 300.4223,399.7611 " fill="none" id="SystemAdministrator-System" style="stroke:#181818;stroke-width:1.0;"/><polygon fill="#000000" points="635.7522,724.4608,635.4241,733.9658,641.0736,732.3433,635.7522,724.4608" style="stroke:#000000;stroke-width:1.0;"/><text fill="#000000" font-family="sans-serif" font-size="13" lengthAdjust="spacing" textLength="50" x="646.1323" y="734.6494">prepares</text><text fill="#000000" font-family="sans-serif" font-size="13" lengthAdjust="spacing" textLength="7" x="499.4709" y="1092.8701">1</text><text fill="#000000" font-family="sans-serif" font-size="13" lengthAdjust="spacing" textLength="7" x="306.8875" y="421.4599">1</text></g><!--link Agent to System--><g id="link_Agent_System"><path codeLine="144" d="M215.4423,1339.1111 C177.2823,1301.6111 102.1323,1216.4811 102.1323,1127.6211 C102.1323,591.6211 102.1323,591.6211 102.1323,591.6211 C102.1323,525.2511 120.3523,451.5911 136.3723,399.6711 " fill="none" id="Agent-System" style="stroke:#181818;stroke-width:1.0;"/><text fill="#000000" font-family="sans-serif" font-size="13" lengthAdjust="spacing" textLength="83" x="119.6323" y="853.1494">publishes sale</text><polygon fill="#000000" points="107.7129,860.0752,105.543,869.3349,111.4001,868.842,107.7129,860.0752" style="stroke:#000000;stroke-width:1.0;"/><text fill="#000000" font-family="sans-serif" font-size="13" lengthAdjust="spacing" textLength="103" x="116.1323" y="870.4404">announcement on</text><text fill="#000000" font-family="sans-serif" font-size="13" lengthAdjust="spacing" textLength="7" x="200.7278" y="1327.1095">1</text><text fill="#000000" font-family="sans-serif" font-size="13" lengthAdjust="spacing" textLength="7" x="126.6889" y="421.361">1</text></g><!--link Agent to Property--><g id="link_Agent_Property"><path codeLine="145" d="M237.1323,1391.8511 C237.1323,1419.5411 237.1323,1461.4211 237.1323,1498.2111 " fill="none" id="Agent-Property" style="stroke:#181818;stroke-width:1.0;"/><polygon fill="#000000" points="242.1323,1464.2666,245.0712,1455.2215,239.1934,1455.2215,242.1323,1464.2666" style="stroke:#000000;stroke-width:1.0;"/><text fill="#000000" font-family="sans-serif" font-size="13" lengthAdjust="spacing" textLength="55" x="251.1323" y="1464.6494">published</text><text fill="#000000" font-family="sans-serif" font-size="13" lengthAdjust="spacing" textLength="7" x="229.4432" y="1413.8045">1</text><text fill="#000000" font-family="sans-serif" font-size="13" lengthAdjust="spacing" textLength="20" x="216.2104" y="1487.2248">1..*</text></g><!--link Owner to Agent--><g id="link_Owner_Agent"><path codeLine="147" d="M609.1923,1149.3411 C605.0723,1181.4211 592.4323,1240.8611 554.1323,1270.6211 C472.7323,1333.8711 420.5823,1264.2211 324.1323,1300.6211 C299.7823,1309.8111 275.4923,1326.9911 258.7823,1340.3611 " fill="none" id="Owner-Agent" style="stroke:#181818;stroke-width:1.0;"/><text fill="#000000" font-family="sans-serif" font-size="13" lengthAdjust="spacing" textLength="86" x="583.1323" y="1249.6494">sends property</text><polygon fill="#000000" points="591.2422,1263.9508,600.5906,1262.2019,597.7773,1257.0411,591.2422,1263.9508" style="stroke:#000000;stroke-width:1.0;"/><text fill="#000000" font-family="sans-serif" font-size="13" lengthAdjust="spacing" textLength="58" x="603.6323" y="1266.9404">request to</text><text fill="#000000" font-family="sans-serif" font-size="13" lengthAdjust="spacing" textLength="7" x="600.9343" y="1170.6665">1</text><text fill="#000000" font-family="sans-serif" font-size="13" lengthAdjust="spacing" textLength="7" x="266.4845" y="1328.7423">1</text></g><!--link Owner to Property--><g id="link_Owner_Property"><path codeLine="148" d="M632.7723,1149.2311 C657.5023,1176.6511 692.7823,1225.8011 678.1323,1270.6211 C652.6523,1348.6111 632.4523,1367.4411 569.1323,1419.6211 C495.2923,1480.4711 393.7623,1523.6311 322.4823,1548.9011 " fill="none" id="Owner-Property" style="stroke:#181818;stroke-width:1.0;"/><text fill="#000000" font-family="sans-serif" font-size="13" lengthAdjust="spacing" textLength="118" x="668.1323" y="1357.1494">sends request about</text><polygon fill="#000000" points="686.5661,1373.0071,694.4343,1367.6647,689.7915,1364.0602,686.5661,1373.0071" style="stroke:#000000;stroke-width:1.0;"/><text fill="#000000" font-family="sans-serif" font-size="13" lengthAdjust="spacing" textLength="72" x="697.6323" y="1374.4404">this to agent</text><text fill="#000000" font-family="sans-serif" font-size="13" lengthAdjust="spacing" textLength="7" x="630.1939" y="1170.9241">1</text><text fill="#000000" font-family="sans-serif" font-size="13" lengthAdjust="spacing" textLength="7" x="330.1178" y="1542.8143">1</text></g><!--link Property to ApartmentOrHouse--><g id="link_Property_ApartmentOrHouse"><path codeLine="150" d="M211.1623,1654.8611 C208.0123,1664.8411 204.9223,1674.9511 202.1323,1684.6211 C197.5723,1700.4311 193.0423,1717.6711 189.0323,1733.6211 " fill="none" id="Property-ApartmentOrHouse" style="stroke:#181818;stroke-width:1.0;"/><polygon fill="#000000" points="205.7798,1699.0802,211.0559,1691.1673,205.3971,1689.5773,205.7798,1699.0802" style="stroke:#000000;stroke-width:1.0;"/><text fill="#000000" font-family="sans-serif" font-size="13" lengthAdjust="spacing" textLength="39" x="216.1323" y="1699.6494">can be</text><text fill="#000000" font-family="sans-serif" font-size="13" lengthAdjust="spacing" textLength="7" x="201.4455" y="1676.8831">1</text><text fill="#000000" font-family="sans-serif" font-size="13" lengthAdjust="spacing" textLength="7" x="183.2998" y="1722.3732">1</text></g><!--link Property to Land--><g id="link_Property_Land"><path codeLine="151" d="M259.4323,1654.7611 C271.3023,1695.8311 285.0323,1743.3211 292.8323,1770.3311 " fill="none" id="Property-Land" style="stroke:#181818;stroke-width:1.0;"/><polygon fill="#000000" points="277.5205,1699.07,277.8326,1689.5646,272.1858,1691.1965,277.5205,1699.07" style="stroke:#000000;stroke-width:1.0;"/><text fill="#000000" font-family="sans-serif" font-size="13" lengthAdjust="spacing" textLength="39" x="285.1323" y="1699.6494">can be</text><text fill="#000000" font-family="sans-serif" font-size="13" lengthAdjust="spacing" textLength="7" x="254.2242" y="1677.0446">1</text><text fill="#000000" font-family="sans-serif" font-size="13" lengthAdjust="spacing" textLength="7" x="283.321" y="1759.4272">1</text></g><!--link ApartmentOrHouse to Apartment--><g id="link_ApartmentOrHouse_Apartment"><path codeLine="153" d="M151.8023,1852.9111 C148.1023,1862.7811 144.4123,1872.9611 141.1323,1882.6211 C132.2923,1908.6611 123.5223,1939.1011 117.9823,1959.0511 " fill="none" id="ApartmentOrHouse-Apartment" style="stroke:#181818;stroke-width:1.0;"/><polygon fill="#000000" points="144.6143,1897.0306,150.1606,1889.3047,144.5601,1887.5202,144.6143,1897.0306" style="stroke:#000000;stroke-width:1.0;"/><text fill="#000000" font-family="sans-serif" font-size="13" lengthAdjust="spacing" textLength="39" x="155.1323" y="1897.6494">can be</text><text fill="#000000" font-family="sans-serif" font-size="13" lengthAdjust="spacing" textLength="7" x="141.7001" y="1874.8462">1</text><text fill="#000000" font-family="sans-serif" font-size="13" lengthAdjust="spacing" textLength="7" x="111.6138" y="1947.8194">1</text></g><!--link ApartmentOrHouse to House--><g id="link_ApartmentOrHouse_House"><path codeLine="154" d="M194.9823,1852.8711 C203.5323,1878.1811 213.4123,1907.4311 221.5523,1931.5511 " fill="none" id="ApartmentOrHouse-House" style="stroke:#181818;stroke-width:1.0;"/><polygon fill="#000000" points="216.732,1897.0038,216.6225,1887.4938,211.0536,1889.3744,216.732,1897.0038" style="stroke:#000000;stroke-width:1.0;"/><text fill="#000000" font-family="sans-serif" font-size="13" lengthAdjust="spacing" textLength="39" x="224.1323" y="1897.6494">can be</text><text fill="#000000" font-family="sans-serif" font-size="13" lengthAdjust="spacing" textLength="7" x="189.8728" y="1874.8015">1</text><text fill="#000000" font-family="sans-serif" font-size="13" lengthAdjust="spacing" textLength="7" x="211.7285" y="1920.3294">1</text></g><!--link User to Client--><g id="link_User_Client"><path codeLine="156" d="M263.0723,689.7911 C253.2223,783.9811 238.9123,920.7811 233.4023,973.3911 " fill="none" id="User-Client" style="stroke:#181818;stroke-width:1.0;"/><polygon fill="#000000" points="263.612,734.2395,267.4762,725.5493,261.6302,724.9377,263.612,734.2395" style="stroke:#000000;stroke-width:1.0;"/><text fill="#000000" font-family="sans-serif" font-size="13" lengthAdjust="spacing" textLength="39" x="273.1323" y="734.6494">can be</text><text fill="#000000" font-family="sans-serif" font-size="13" lengthAdjust="spacing" textLength="7" x="255.1188" y="711.274">1</text><text fill="#000000" font-family="sans-serif" font-size="13" lengthAdjust="spacing" textLength="7" x="226.0871" y="962.5026">1</text></g><!--link User to Employee--><g id="link_User_Employee"><path codeLine="157" d="M337.6423,672.0811 C370.9123,712.5511 410.7623,761.0211 441.0923,797.9111 " fill="none" id="User-Employee" style="stroke:#181818;stroke-width:1.0;"/><polygon fill="#000000" points="394.3076,733.1289,390.8336,724.2755,386.2932,728.0084,394.3076,733.1289" style="stroke:#000000;stroke-width:1.0;"/><text fill="#000000" font-family="sans-serif" font-size="13" lengthAdjust="spacing" textLength="39" x="400.1323" y="734.6494">can be</text><text fill="#000000" font-family="sans-serif" font-size="13" lengthAdjust="spacing" textLength="7" x="345.5059" y="677.3547">1</text><text fill="#000000" font-family="sans-serif" font-size="13" lengthAdjust="spacing" textLength="7" x="426.0375" y="784.3332">1</text></g><!--link Employee to Agent--><g id="link_Employee_Agent"><path codeLine="159" d="M441.1323,892.9811 C416.1823,914.1011 386.7223,942.7111 367.1323,973.6211 C357.1823,989.3211 275.7023,1239.8411 247.0523,1328.4011 " fill="none" id="Employee-Agent" style="stroke:#181818;stroke-width:1.0;"/><polygon fill="#000000" points="341.0967,1131.3335,347.4635,1124.2684,342.0948,1121.8754,341.0967,1131.3335" style="stroke:#000000;stroke-width:1.0;"/><text fill="#000000" font-family="sans-serif" font-size="13" lengthAdjust="spacing" textLength="39" x="352.1323" y="1132.1494">can be</text><text fill="#000000" font-family="sans-serif" font-size="13" lengthAdjust="spacing" textLength="7" x="426.0838" y="894.555">1</text><text fill="#000000" font-family="sans-serif" font-size="13" lengthAdjust="spacing" textLength="7" x="241.3764" y="1317.1391">1</text></g><!--link Employee to Owner--><g id="link_Employee_Owner"><path codeLine="160" d="M529.3223,943.8711 C534.0123,953.8911 538.6923,963.9711 543.1323,973.6211 C564.3823,1019.8511 588.5523,1074.3611 601.5823,1103.9111 " fill="none" id="Employee-Owner" style="stroke:#181818;stroke-width:1.0;"/><polygon fill="#000000" points="568.1898,1000.8236,567.1462,991.3705,561.7891,993.7893,568.1898,1000.8236" style="stroke:#000000;stroke-width:1.0;"/><text fill="#000000" font-family="sans-serif" font-size="13" lengthAdjust="spacing" textLength="39" x="575.1323" y="1001.6494">can be</text><text fill="#000000" font-family="sans-serif" font-size="13" lengthAdjust="spacing" textLength="7" x="525.3257" y="965.5822">1</text><text fill="#000000" font-family="sans-serif" font-size="13" lengthAdjust="spacing" textLength="7" x="591.2382" y="1093.0277">1</text></g><!--link Client to Agent--><g id="link_Client_Agent"><path codeLine="163" d="M223.9023,1018.6611 C221.2023,1027.7911 218.4723,1038.6111 217.1323,1048.6211 C203.5123,1150.6211 221.2423,1272.7511 231.2023,1328.5711 " fill="none" id="Client-Agent" style="stroke:#181818;stroke-width:1.0;"/><text fill="#000000" font-family="sans-serif" font-size="13" lengthAdjust="spacing" textLength="58" x="220.6323" y="1115.1494">request to</text><text fill="#000000" font-family="sans-serif" font-size="13" lengthAdjust="spacing" textLength="63" x="218.1323" y="1132.4404">schedule a</text><polygon fill="#000000" points="237.25,1149.3472,239.9751,1140.2355,234.0989,1140.3739,237.25,1149.3472" style="stroke:#000000;stroke-width:1.0;"/><text fill="#000000" font-family="sans-serif" font-size="13" lengthAdjust="spacing" textLength="22" x="245.1323" y="1149.7314">visit</text><text fill="#000000" font-family="sans-serif" font-size="13" lengthAdjust="spacing" textLength="7" x="214.2868" y="1040.3371">1</text><text fill="#000000" font-family="sans-serif" font-size="13" lengthAdjust="spacing" textLength="7" x="222.2573" y="1317.3441">1</text></g><!--link Platform to Organization--><g id="link_Platform_Organization"><path codeLine="165" d="M949.7823,362.4211 C935.9323,380.6611 920.3723,404.9711 913.1323,429.6211 C904.3323,459.5811 903.7323,494.0111 905.8623,523.4111 " fill="none" id="Platform-Organization" style="stroke:#181818;stroke-width:1.0;"/><polygon fill="#000000" points="916.8163,452.5903,922.0322,444.6376,916.3616,443.0906,916.8163,452.5903" style="stroke:#000000;stroke-width:1.0;"/><text fill="#000000" font-family="sans-serif" font-size="13" lengthAdjust="spacing" textLength="82" x="927.1323" y="453.1494">has registered</text><text fill="#000000" font-family="sans-serif" font-size="13" lengthAdjust="spacing" textLength="7" x="936.9056" y="384.3883">1</text><text fill="#000000" font-family="sans-serif" font-size="13" lengthAdjust="spacing" textLength="5" x="899.5454" y="512.4547">*</text></g><!--link Platform to Category--><g id="link_Platform_Category"><path codeLine="166" d="M990.1923,362.3411 C998.3523,381.3511 1008.1623,406.4711 1014.1323,429.6211 C1032.2823,499.9811 1036.1323,518.9611 1036.1323,591.6211 C1036.1323,591.6211 1036.1323,591.6211 1036.1323,1127.6211 C1036.1323,1191.9211 1030.9523,1208.5611 1014.1323,1270.6211 C1008.7723,1290.3911 1000.3923,1311.7811 993.1823,1328.5711 " fill="none" id="Platform-Category" style="stroke:#181818;stroke-width:1.0;"/><polygon fill="#000000" points="1041.1478,861.2666,1044.0587,852.2124,1038.1809,852.2306,1041.1478,861.2666" style="stroke:#000000;stroke-width:1.0;"/><text fill="#000000" font-family="sans-serif" font-size="13" lengthAdjust="spacing" textLength="41" x="1050.1323" y="861.6494">defines</text><text fill="#000000" font-family="sans-serif" font-size="13" lengthAdjust="spacing" textLength="7" x="985.2713" y="384.2925">1</text><text fill="#000000" font-family="sans-serif" font-size="13" lengthAdjust="spacing" textLength="5" x="990.5645" y="1317.3441">*</text></g><!--link Organization to Employee--><g id="link_Organization_Employee"><path codeLine="168" d="M884.8923,661.8111 C869.5823,688.8911 848.8523,718.3511 823.1323,738.6211 C735.7323,807.5211 604.7423,837.2111 535.2923,848.7011 " fill="none" id="Organization-Employee" style="stroke:#181818;stroke-width:1.0;"/><polygon fill="#000000" points="843.7228,731.6238,853.0852,729.9514,850.3141,724.7677,843.7228,731.6238" style="stroke:#000000;stroke-width:1.0;"/><text fill="#000000" font-family="sans-serif" font-size="13" lengthAdjust="spacing" textLength="21" x="857.1323" y="734.6494">has</text><text fill="#000000" font-family="sans-serif" font-size="13" lengthAdjust="spacing" textLength="7" x="874.5811" y="683.2711">1</text><text fill="#000000" font-family="sans-serif" font-size="13" lengthAdjust="spacing" textLength="20" x="542.9732" y="843.6118">0..*</text></g><!--link Organization to Task--><g id="link_Organization_Task"><path codeLine="169" d="M916.7723,661.8111 C917.7023,760.9211 919.4323,944.2711 920.4023,1048.2911 " fill="none" id="Organization-Task" style="stroke:#181818;stroke-width:1.0;"/><polygon fill="#000000" points="924.1792,861.2664,927.0331,852.1941,921.1555,852.2493,924.1792,861.2664" style="stroke:#000000;stroke-width:1.0;"/><text fill="#000000" font-family="sans-serif" font-size="13" lengthAdjust="spacing" textLength="30" x="933.1323" y="861.6494">owns</text><text fill="#000000" font-family="sans-serif" font-size="13" lengthAdjust="spacing" textLength="7" x="909.4997" y="683.2711">1</text><text fill="#000000" font-family="sans-serif" font-size="13" lengthAdjust="spacing" textLength="20" x="899.4131" y="1037.3122">0..*</text></g><!--link Task to Category--><g id="link_Task_Category"><path codeLine="171" d="M913.0523,1204.8711 C912.9523,1226.5111 914.9223,1249.8011 921.1323,1270.6211 C927.4423,1291.7411 940.5723,1312.5111 952.7523,1328.6111 " fill="none" id="Task-Category" style="stroke:#181818;stroke-width:1.0;"/><polygon fill="#000000" points="927.6598,1257.5276,927.695,1248.0171,922.0981,1249.8127,927.6598,1257.5276" style="stroke:#000000;stroke-width:1.0;"/><text fill="#000000" font-family="sans-serif" font-size="13" lengthAdjust="spacing" textLength="74" x="935.1323" y="1258.1494">cataloged as</text><text fill="#000000" font-family="sans-serif" font-size="13" lengthAdjust="spacing" textLength="5" x="907.0769" y="1226.8941">*</text><text fill="#000000" font-family="sans-serif" font-size="13" lengthAdjust="spacing" textLength="7" x="939.5895" y="1317.3924">1</text></g><!--link Employee to Task--><g id="link_Employee_Task"><path codeLine="173" d="M535.2923,886.3711 C616.7223,936.8611 783.1223,1040.0411 868.3123,1092.8711 " fill="none" id="Employee-Task" style="stroke:#181818;stroke-width:1.0;"/><polygon fill="#000000" points="752.3816,998.9016,746.2433,991.6372,743.1457,996.6326,752.3816,998.9016" style="stroke:#000000;stroke-width:1.0;"/><text fill="#000000" font-family="sans-serif" font-size="13" lengthAdjust="spacing" textLength="43" x="757.1323" y="1001.6494">creates</text><text fill="#000000" font-family="sans-serif" font-size="13" lengthAdjust="spacing" textLength="7" x="543.0496" y="886.7546">1</text><text fill="#000000" font-family="sans-serif" font-size="13" lengthAdjust="spacing" textLength="5" x="855.5329" y="1083.954">*</text></g><!--SRC=[jLPDRziu4BtpLn2vRBkDY-xL1mDfaaK3f4q0jpS3mLWSIqIaeKfITjrY__iEINtQIjizxCcs-EQzuSoRiTopfXeiLB8oPBB2cWgbjmqArv_Ka3r3Zcj_B55Qp3nGNeu1hW1b3ffokOFIZK-o4foxyjxgRUFnBZEqrjzHlXE5LYWpRJCc-YF-gD0NHZaXlFQiSsCgq2G_6eMb4957VY6BkNOUBQel3gty8PwUdiGRYryRTFwpkUV3Hsjgj5wZU_LQl74wfpjwHL3XfSp0gazDjKLxAJryQxzk25cgl5BAedDyWYNMXI7ipsiMFnYhBYKaq6lnJvzJocCH5CHYK12BNa4inW9yC1KGYuvVB5h-TAtoz3Qzw8FDWVHtyDhG8Bu7tp4USEkqvsSJdPZ6mF8Pt7E8jhZZYbB6S8KkixeEl6AXQMTi1UKDFmnPPmNfhFkf6Wi9bXdd1z9hy9WRUmp4OxOUS5lLfJaYHcLJlboqhXPjskag_3ZdL8-nGZtdOma-vFgYwFh8hed7eFQXdWuh9C_aKDSbtoh2MpCbYuN6_e- -IHbTgKeJot4jJMVd7dB5D_KXvxkRwS73WV0C_GazQps_jq1PqHQ2pTysgJJj7IVLb9HgFI5QSognEttCjDR9aR71_bY7ZbY4iOBY2t4I-3SlasljZzTy3Ol1Pt5CKJrQdILlUfDRg0jtSd5U7hvAbvySV32DYwbj8JKmcBI0hVQmBV7UxFY1Q-ZsMsrSmvAJuEjIpr3sMWzsO4TbZQbSqF55-vLnlDRoDMz33BxPSnc3wktNHjSnbyIRQE-1r8-WShQpBlwwa8j5_6XTkPHjPPpqHeQfbtK_zd8bMbWCb1T_NWmjM4PqmBoaiveACU-UbwsJxMo7Xcs841Mg81uS8vkwa-JmFfJ7Hkz2GYrcGmVj2vdhFTAORf9kgnyJMigCZUAPeGa_GpIFI4f8JHZ4t71qTUFxzoiaL2vTUgZJYr7J0VbFeMaaVZzaMd9awyH6YZJHiwXcowqiGdcXn0q1aMbuXk8Ky99VdSQ-VJirGaUWWavQ42ET5BoK3acvpbt73RN62wrVdKUDw5DW1uUjQVo6VA6ZPI6oisuVC9O-7J3s0P3S8WVCuSFaZ37YZ62EV1pniu2p5CJfKBPhOWGvHOpiDz3q3sUgtgFcGAdglm3DcMsitYOzeprqU4CkOtyq_7856zfhVa68FUl-EqT-dxnVB6K1JWxR9VHj9gR_urzAXJjDoV4JfWxzBfftLCOWiFePDhogBAKvK2IDBov1isjPAnqgug4qEISP6SzhsNADbj7gNm00]--></g></svg>