<?xml version="1.0" encoding="us-ascii" standalone="no"?><svg xmlns="http://www.w3.org/2000/svg" xmlns:xlink="http://www.w3.org/1999/xlink" contentStyleType="text/css" height="657.6px" preserveAspectRatio="none" style="width:879px;height:657px;background:#FFFFFF;" version="1.1" viewBox="0 0 879 657" width="879.6px" zoomAndPan="magnify"><defs/><g><text fill="#000000" font-family="sans-serif" font-size="8.4" font-weight="bold" lengthAdjust="spacing" textLength="150.6" x="360.45" y="15.0645">US018 Deal Analysis - Class Diagram</text><!--class StoreManager--><g id="elem_StoreManager"><rect codeLine="7" fill="#F1F1F1" height="73.4906" id="StoreManager" rx="1.5" ry="1.5" style="stroke:#181818;stroke-width:0.3;" width="73.2" x="4.2" y="67.2727"/><ellipse cx="13.2" cy="76.8727" fill="#ADD1B2" rx="6.6" ry="6.6" style="stroke:#181818;stroke-width:0.6;"/><path d="M14.8594,74.3977 Q14.9531,74.2664 15.0656,74.2008 Q15.1781,74.1352 15.3094,74.1352 Q15.5344,74.1352 15.675,74.2945 Q15.8156,74.4445 15.8156,74.8102 L15.8156,75.682 Q15.8156,76.0477 15.675,76.207 Q15.5344,76.3664 15.3094,76.3664 Q15.1031,76.3664 14.9813,76.2445 Q14.8594,76.132 14.7938,75.8227 Q14.7656,75.607 14.6531,75.4945 Q14.4562,75.2695 14.0906,75.1383 Q13.725,75.007 13.35,75.007 Q12.8906,75.007 12.5063,75.2039 Q12.1313,75.4008 11.8312,75.8508 Q11.5406,76.3008 11.5406,76.9195 L11.5406,77.5758 Q11.5406,78.3164 12.075,78.8133 Q12.6094,79.3008 13.5656,79.3008 Q14.1281,79.3008 14.5219,79.1508 Q14.7563,79.057 15.0094,78.7945 Q15.1688,78.6352 15.2531,78.5883 Q15.3469,78.5414 15.4688,78.5414 Q15.6656,78.5414 15.8156,78.7008 Q15.975,78.8508 15.975,79.057 Q15.975,79.2633 15.7687,79.507 Q15.4688,79.8539 14.9906,80.0508 Q14.3438,80.3227 13.5656,80.3227 Q12.6563,80.3227 11.9344,79.9477 Q11.3438,79.6477 10.9313,79.0102 Q10.5187,78.3633 10.5187,77.5945 L10.5187,76.9008 Q10.5187,76.1039 10.8844,75.4195 Q11.2594,74.7258 11.9156,74.3602 Q12.5719,73.9852 13.3125,73.9852 Q13.7531,73.9852 14.1375,74.0883 Q14.5313,74.182 14.8594,74.3977 Z " fill="#000000"/><text fill="#000000" font-family="sans-serif" font-size="8.4" lengthAdjust="spacing" textLength="54" x="21.6" y="80.3508">StoreManager</text><line style="stroke:#181818;stroke-width:0.3;" x1="4.8" x2="76.8" y1="86.4727" y2="86.4727"/><text fill="#000000" font-family="sans-serif" font-size="8.4" lengthAdjust="spacing" textLength="45" x="7.8" y="97.9371">-Store store</text><text fill="#000000" font-family="sans-serif" font-size="8.4" lengthAdjust="spacing" textLength="48.6" x="7.8" y="109.1098">-String name</text><text fill="#000000" font-family="sans-serif" font-size="8.4" lengthAdjust="spacing" textLength="47.4" x="7.8" y="120.2824">-String email</text><text fill="#000000" font-family="sans-serif" font-size="8.4" lengthAdjust="spacing" textLength="63.6" x="7.8" y="131.4551">-String password</text><line style="stroke:#181818;stroke-width:0.3;" x1="4.8" x2="76.8" y1="135.9633" y2="135.9633"/></g><!--class AnalyzeDealsUI--><g id="elem_AnalyzeDealsUI"><rect codeLine="14" fill="#F1F1F1" height="140.5266" id="AnalyzeDealsUI" rx="1.5" ry="1.5" style="stroke:#181818;stroke-width:0.3;" width="175.2" x="218.4" y="33.6727"/><ellipse cx="274.35" cy="43.2727" fill="#ADD1B2" rx="6.6" ry="6.6" style="stroke:#181818;stroke-width:0.6;"/><path d="M276.0094,40.7977 Q276.1031,40.6664 276.2156,40.6008 Q276.3281,40.5352 276.4594,40.5352 Q276.6844,40.5352 276.825,40.6945 Q276.9656,40.8445 276.9656,41.2102 L276.9656,42.082 Q276.9656,42.4477 276.825,42.607 Q276.6844,42.7664 276.4594,42.7664 Q276.2531,42.7664 276.1312,42.6445 Q276.0094,42.532 275.9437,42.2227 Q275.9156,42.007 275.8031,41.8945 Q275.6063,41.6695 275.2406,41.5383 Q274.875,41.407 274.5,41.407 Q274.0406,41.407 273.6563,41.6039 Q273.2813,41.8008 272.9813,42.2508 Q272.6906,42.7008 272.6906,43.3195 L272.6906,43.9758 Q272.6906,44.7164 273.225,45.2133 Q273.7594,45.7008 274.7156,45.7008 Q275.2781,45.7008 275.6719,45.5508 Q275.9063,45.457 276.1594,45.1945 Q276.3187,45.0352 276.4031,44.9883 Q276.4969,44.9414 276.6188,44.9414 Q276.8156,44.9414 276.9656,45.1008 Q277.125,45.2508 277.125,45.457 Q277.125,45.6633 276.9188,45.907 Q276.6188,46.2539 276.1406,46.4508 Q275.4938,46.7227 274.7156,46.7227 Q273.8063,46.7227 273.0844,46.3477 Q272.4938,46.0477 272.0813,45.4102 Q271.6688,44.7633 271.6688,43.9945 L271.6688,43.3008 Q271.6688,42.5039 272.0344,41.8195 Q272.4094,41.1258 273.0656,40.7602 Q273.7219,40.3852 274.4625,40.3852 Q274.9031,40.3852 275.2875,40.4883 Q275.6813,40.582 276.0094,40.7977 Z " fill="#000000"/><text fill="#000000" font-family="sans-serif" font-size="8.4" lengthAdjust="spacing" textLength="58.2" x="286.65" y="46.7508">AnalyzeDealsUI</text><line style="stroke:#181818;stroke-width:0.3;" x1="219" x2="393" y1="52.8727" y2="52.8727"/><text fill="#000000" font-family="sans-serif" font-size="8.4" lengthAdjust="spacing" textLength="105" x="222" y="64.3371">-AnalyzeDealsController ctrl</text><text fill="#000000" font-family="sans-serif" font-size="8.4" lengthAdjust="spacing" textLength="43.2" x="222" y="75.5098">-String item</text><line style="stroke:#181818;stroke-width:0.3;" x1="219" x2="393" y1="80.018" y2="80.018"/><text fill="#000000" font-family="sans-serif" font-size="8.4" lengthAdjust="spacing" textLength="23.4" x="222" y="91.4824">+run()</text><text fill="#000000" font-family="sans-serif" font-size="8.4" lengthAdjust="spacing" textLength="46.2" x="222" y="102.6551">-getOption()</text><text fill="#000000" font-family="sans-serif" font-size="8.4" lengthAdjust="spacing" textLength="85.8" x="222" y="113.8277">-doLinearRegression()</text><text fill="#000000" font-family="sans-serif" font-size="8.4" lengthAdjust="spacing" textLength="141" x="222" y="125.0004">-getDesiredLinearRegression(option)</text><text fill="#000000" font-family="sans-serif" font-size="8.4" lengthAdjust="spacing" textLength="159.6" x="222" y="136.173">-doMultipleLinearRegression(listOfValues)</text><text fill="#000000" font-family="sans-serif" font-size="8.4" lengthAdjust="spacing" textLength="108" x="222" y="147.3457">+askAboutFilters(properties)</text><text fill="#000000" font-family="sans-serif" font-size="8.4" lengthAdjust="spacing" textLength="126.6" x="222" y="158.5184">+askAboutSortSetting(properties)</text><text fill="#000000" font-family="sans-serif" font-size="8.4" lengthAdjust="spacing" textLength="168" x="222" y="169.691">+printPropertyList(propertyList, listOfValues)</text></g><!--class AnalyzeDealsController--><g id="elem_AnalyzeDealsController"><rect codeLine="28" fill="#F1F1F1" height="151.6992" id="AnalyzeDealsController" rx="1.5" ry="1.5" style="stroke:#181818;stroke-width:0.3;" width="222" x="502.8" y="27.9727"/><ellipse cx="567.15" cy="37.5727" fill="#ADD1B2" rx="6.6" ry="6.6" style="stroke:#181818;stroke-width:0.6;"/><path d="M568.8094,35.0977 Q568.9031,34.9664 569.0156,34.9008 Q569.1281,34.8352 569.2594,34.8352 Q569.4844,34.8352 569.625,34.9945 Q569.7656,35.1445 569.7656,35.5102 L569.7656,36.382 Q569.7656,36.7477 569.625,36.907 Q569.4844,37.0664 569.2594,37.0664 Q569.0531,37.0664 568.9313,36.9445 Q568.8094,36.832 568.7438,36.5227 Q568.7156,36.307 568.6031,36.1945 Q568.4063,35.9695 568.0406,35.8383 Q567.675,35.707 567.3,35.707 Q566.8406,35.707 566.4563,35.9039 Q566.0813,36.1008 565.7813,36.5508 Q565.4906,37.0008 565.4906,37.6195 L565.4906,38.2758 Q565.4906,39.0164 566.025,39.5133 Q566.5594,40.0008 567.5156,40.0008 Q568.0781,40.0008 568.4719,39.8508 Q568.7063,39.757 568.9594,39.4945 Q569.1188,39.3352 569.2031,39.2883 Q569.2969,39.2414 569.4187,39.2414 Q569.6156,39.2414 569.7656,39.4008 Q569.925,39.5508 569.925,39.757 Q569.925,39.9633 569.7188,40.207 Q569.4187,40.5539 568.9406,40.7508 Q568.2937,41.0227 567.5156,41.0227 Q566.6062,41.0227 565.8844,40.6477 Q565.2937,40.3477 564.8813,39.7102 Q564.4688,39.0633 564.4688,38.2945 L564.4688,37.6008 Q564.4688,36.8039 564.8344,36.1195 Q565.2094,35.4258 565.8656,35.0602 Q566.5219,34.6852 567.2625,34.6852 Q567.7031,34.6852 568.0875,34.7883 Q568.4812,34.882 568.8094,35.0977 Z " fill="#000000"/><text fill="#000000" font-family="sans-serif" font-size="8.4" lengthAdjust="spacing" textLength="88.2" x="579.45" y="41.0508">AnalyzeDealsController</text><line style="stroke:#181818;stroke-width:0.3;" x1="503.4" x2="724.2" y1="47.1727" y2="47.1727"/><text fill="#000000" font-family="sans-serif" font-size="8.4" lengthAdjust="spacing" textLength="190.2" x="506.4" y="58.6371">-OLSMultipleLinearRegression multipleRegression</text><text fill="#000000" font-family="sans-serif" font-size="8.4" lengthAdjust="spacing" textLength="141" x="506.4" y="69.8098">-SimpleRegression simpleRegression</text><line style="stroke:#181818;stroke-width:0.3;" x1="503.4" x2="724.2" y1="74.318" y2="74.318"/><text fill="#000000" font-family="sans-serif" font-size="8.4" lengthAdjust="spacing" textLength="109.2" x="506.4" y="85.7824">+getApartmentsAndHouses()</text><text fill="#000000" font-family="sans-serif" font-size="8.4" lengthAdjust="spacing" textLength="137.4" x="506.4" y="96.9551">+getAreaToPriceLinearRegression()</text><text fill="#000000" font-family="sans-serif" font-size="8.4" lengthAdjust="spacing" textLength="152.4" x="506.4" y="108.1277">+getDistanceToPriceLinearRegression()</text><text fill="#000000" font-family="sans-serif" font-size="8.4" lengthAdjust="spacing" textLength="183.6" x="506.4" y="119.3004">+getNumOfBedroomsToPriceLinearRegression()</text><text fill="#000000" font-family="sans-serif" font-size="8.4" lengthAdjust="spacing" textLength="186" x="506.4" y="130.473">+getNumOfBathroomsToPriceLinearRegression()</text><text fill="#000000" font-family="sans-serif" font-size="8.4" lengthAdjust="spacing" textLength="202.2" x="506.4" y="141.6457">+getNumOfParkingSpacesToPriceLinearRegression()</text><text fill="#000000" font-family="sans-serif" font-size="8.4" lengthAdjust="spacing" textLength="56.4" x="506.4" y="152.8184">+getRRating(r)</text><text fill="#000000" font-family="sans-serif" font-size="8.4" lengthAdjust="spacing" textLength="118.8" x="506.4" y="163.991">+getMultipleLinearRegression()</text><text fill="#000000" font-family="sans-serif" font-size="8.4" lengthAdjust="spacing" textLength="214.8" x="506.4" y="175.1637">+calculateSimpleLinearPrice(listOfValues, item, property)</text></g><!--class PropertySoldRepository--><g id="elem_PropertySoldRepository"><rect codeLine="43" fill="#F1F1F1" height="84.6633" id="PropertySoldRepository" rx="1.5" ry="1.5" style="stroke:#181818;stroke-width:0.3;" width="129.6" x="357.6" y="375.6727"/><ellipse cx="375.78" cy="385.2727" fill="#ADD1B2" rx="6.6" ry="6.6" style="stroke:#181818;stroke-width:0.6;"/><path d="M377.4394,382.7977 Q377.5331,382.6664 377.6456,382.6008 Q377.7581,382.5352 377.8894,382.5352 Q378.1144,382.5352 378.255,382.6945 Q378.3956,382.8445 378.3956,383.2102 L378.3956,384.082 Q378.3956,384.4477 378.255,384.607 Q378.1144,384.7664 377.8894,384.7664 Q377.6831,384.7664 377.5613,384.6445 Q377.4394,384.532 377.3738,384.2227 Q377.3456,384.007 377.2331,383.8945 Q377.0362,383.6695 376.6706,383.5383 Q376.305,383.407 375.93,383.407 Q375.4706,383.407 375.0862,383.6039 Q374.7112,383.8008 374.4112,384.2508 Q374.1206,384.7008 374.1206,385.3195 L374.1206,385.9758 Q374.1206,386.7164 374.655,387.2133 Q375.1894,387.7008 376.1456,387.7008 Q376.7081,387.7008 377.1019,387.5508 Q377.3362,387.457 377.5894,387.1945 Q377.7488,387.0352 377.8331,386.9883 Q377.9269,386.9414 378.0488,386.9414 Q378.2456,386.9414 378.3956,387.1008 Q378.555,387.2508 378.555,387.457 Q378.555,387.6633 378.3487,387.907 Q378.0488,388.2539 377.5706,388.4508 Q376.9238,388.7227 376.1456,388.7227 Q375.2363,388.7227 374.5144,388.3477 Q373.9238,388.0477 373.5112,387.4102 Q373.0987,386.7633 373.0987,385.9945 L373.0987,385.3008 Q373.0987,384.5039 373.4644,383.8195 Q373.8394,383.1258 374.4956,382.7602 Q375.1519,382.3852 375.8925,382.3852 Q376.3331,382.3852 376.7175,382.4883 Q377.1113,382.582 377.4394,382.7977 Z " fill="#000000"/><text fill="#000000" font-family="sans-serif" font-size="8.4" lengthAdjust="spacing" textLength="90" x="386.22" y="388.7508">PropertySoldRepository</text><line style="stroke:#181818;stroke-width:0.3;" x1="358.2" x2="486.6" y1="394.8727" y2="394.8727"/><text fill="#000000" font-family="sans-serif" font-size="8.4" lengthAdjust="spacing" textLength="122.4" x="361.2" y="406.3371">-List&lt;Property&gt; propertySoldList</text><line style="stroke:#181818;stroke-width:0.3;" x1="358.2" x2="486.6" y1="410.8453" y2="410.8453"/><text fill="#000000" font-family="sans-serif" font-size="8.4" lengthAdjust="spacing" textLength="40.2" x="361.2" y="422.3098">+isEmpty()</text><text fill="#000000" font-family="sans-serif" font-size="8.4" lengthAdjust="spacing" textLength="57" x="361.2" y="433.4824">+add(property)</text><text fill="#000000" font-family="sans-serif" font-size="8.4" lengthAdjust="spacing" textLength="102.6" x="361.2" y="444.6551">-validateProperty(property)</text><text fill="#000000" font-family="sans-serif" font-size="8.4" lengthAdjust="spacing" textLength="61.8" x="361.2" y="455.8277">+getProperties()</text></g><!--class Repositories--><g id="elem_Repositories"><rect codeLine="52" fill="#F1F1F1" height="73.4906" id="Repositories" rx="1.5" ry="1.5" style="stroke:#181818;stroke-width:0.3;" width="159" x="458.1" y="227.1727"/><ellipse cx="511.35" cy="236.7727" fill="#ADD1B2" rx="6.6" ry="6.6" style="stroke:#181818;stroke-width:0.6;"/><path d="M513.0094,234.2977 Q513.1031,234.1664 513.2156,234.1008 Q513.3281,234.0352 513.4594,234.0352 Q513.6844,234.0352 513.825,234.1945 Q513.9656,234.3445 513.9656,234.7102 L513.9656,235.582 Q513.9656,235.9477 513.825,236.107 Q513.6844,236.2664 513.4594,236.2664 Q513.2531,236.2664 513.1313,236.1445 Q513.0094,236.032 512.9438,235.7227 Q512.9156,235.507 512.8031,235.3945 Q512.6062,235.1695 512.2406,235.0383 Q511.875,234.907 511.5,234.907 Q511.0406,234.907 510.6563,235.1039 Q510.2813,235.3008 509.9813,235.7508 Q509.6906,236.2008 509.6906,236.8195 L509.6906,237.4758 Q509.6906,238.2164 510.225,238.7133 Q510.7594,239.2008 511.7156,239.2008 Q512.2781,239.2008 512.6719,239.0508 Q512.9063,238.957 513.1594,238.6945 Q513.3188,238.5352 513.4031,238.4883 Q513.4969,238.4414 513.6188,238.4414 Q513.8156,238.4414 513.9656,238.6008 Q514.125,238.7508 514.125,238.957 Q514.125,239.1633 513.9187,239.407 Q513.6188,239.7539 513.1406,239.9508 Q512.4938,240.2227 511.7156,240.2227 Q510.8063,240.2227 510.0844,239.8477 Q509.4938,239.5477 509.0812,238.9102 Q508.6688,238.2633 508.6688,237.4945 L508.6688,236.8008 Q508.6688,236.0039 509.0344,235.3195 Q509.4094,234.6258 510.0656,234.2602 Q510.7219,233.8852 511.4625,233.8852 Q511.9031,233.8852 512.2875,233.9883 Q512.6813,234.082 513.0094,234.2977 Z " fill="#000000"/><text fill="#000000" font-family="sans-serif" font-size="8.4" lengthAdjust="spacing" textLength="47.4" x="523.65" y="240.2508">Repositories</text><line style="stroke:#181818;stroke-width:0.3;" x1="458.7" x2="616.5" y1="246.3727" y2="246.3727"/><text fill="#000000" font-family="sans-serif" font-size="8.4" lengthAdjust="spacing" textLength="84.6" x="461.7" y="257.8371">-Repositories instance</text><text fill="#000000" font-family="sans-serif" font-size="8.4" lengthAdjust="spacing" textLength="151.8" x="461.7" y="269.0098">-PropertySoldRepository soldRepository</text><line style="stroke:#181818;stroke-width:0.3;" x1="458.7" x2="616.5" y1="273.518" y2="273.518"/><text fill="#000000" font-family="sans-serif" font-size="8.4" lengthAdjust="spacing" textLength="54.6" x="461.7" y="284.9824">+getInstance()</text><text fill="#000000" font-family="sans-serif" font-size="8.4" lengthAdjust="spacing" textLength="80.4" x="461.7" y="296.1551">+getSoldRepository()</text></g><!--class Property--><g id="elem_Property"><rect codeLine="60" fill="#F1F1F1" height="140.5266" id="Property" rx="1.5" ry="1.5" style="stroke:#181818;stroke-width:0.3;" width="120.6" x="681.3" y="347.7727"/><ellipse cx="722.85" cy="357.3727" fill="#B4A7E5" rx="6.6" ry="6.6" style="stroke:#181818;stroke-width:0.6;"/><path d="M723.4219,355.357 L723.4219,359.3508 L724.4531,359.3508 Q724.8188,359.3508 724.9781,359.4914 Q725.1375,359.632 725.1375,359.8664 Q725.1375,360.0914 724.9781,360.232 Q724.8188,360.3727 724.4531,360.3727 L721.3688,360.3727 Q721.0031,360.3727 720.8438,360.232 Q720.6844,360.0914 720.6844,359.857 Q720.6844,359.632 720.8438,359.4914 Q721.0031,359.3508 721.3688,359.3508 L722.4,359.3508 L722.4,355.357 L721.3688,355.357 Q721.0031,355.357 720.8438,355.2164 Q720.6844,355.0758 720.6844,354.8414 Q720.6844,354.6164 720.8438,354.4758 Q721.0031,354.3352 721.3688,354.3352 L724.4531,354.3352 Q724.8188,354.3352 724.9781,354.4758 Q725.1375,354.6164 725.1375,354.8414 Q725.1375,355.0758 724.9781,355.2164 Q724.8188,355.357 724.4531,355.357 L723.4219,355.357 Z " fill="#000000"/><text fill="#000000" font-family="sans-serif" font-size="8.4" font-style="italic" lengthAdjust="spacing" textLength="32.4" x="735.15" y="360.8508">Property</text><line style="stroke:#181818;stroke-width:0.3;" x1="681.9" x2="801.3" y1="366.9727" y2="366.9727"/><text fill="#000000" font-family="sans-serif" font-size="8.4" lengthAdjust="spacing" textLength="39" x="684.9" y="378.4371">-float area</text><text fill="#000000" font-family="sans-serif" font-size="8.4" lengthAdjust="spacing" textLength="57" x="684.9" y="389.6098">-String location</text><text fill="#000000" font-family="sans-serif" font-size="8.4" lengthAdjust="spacing" textLength="113.4" x="684.9" y="400.7824">-float distanceFromCityCentre</text><text fill="#000000" font-family="sans-serif" font-size="8.4" lengthAdjust="spacing" textLength="49.2" x="684.9" y="411.9551">-Agent agent</text><text fill="#000000" font-family="sans-serif" font-size="8.4" lengthAdjust="spacing" textLength="72" x="684.9" y="423.1277">-File[] photographs</text><text fill="#000000" font-family="sans-serif" font-size="8.4" lengthAdjust="spacing" textLength="56.4" x="684.9" y="434.3004">-float finalPrice</text><text fill="#000000" font-family="sans-serif" font-size="8.4" lengthAdjust="spacing" textLength="102" x="684.9" y="445.473">-String announcementDate</text><text fill="#000000" font-family="sans-serif" font-size="8.4" lengthAdjust="spacing" textLength="61.2" x="684.9" y="456.6457">-String saleDate</text><text fill="#000000" font-family="sans-serif" font-size="8.4" lengthAdjust="spacing" textLength="66" x="684.9" y="467.8184">-Request request</text><text fill="#000000" font-family="sans-serif" font-size="8.4" lengthAdjust="spacing" textLength="45" x="684.9" y="478.991">-Store store</text><line style="stroke:#181818;stroke-width:0.3;" x1="681.9" x2="801.3" y1="483.4992" y2="483.4992"/></g><!--class Apartment--><g id="elem_Apartment"><rect codeLine="73" fill="#F1F1F1" height="84.6633" id="Apartment" rx="1.5" ry="1.5" style="stroke:#181818;stroke-width:0.3;" width="103.8" x="636.9" y="552.3727"/><ellipse cx="666.75" cy="561.9727" fill="#ADD1B2" rx="6.6" ry="6.6" style="stroke:#181818;stroke-width:0.6;"/><path d="M668.4094,559.4977 Q668.5031,559.3664 668.6156,559.3008 Q668.7281,559.2352 668.8594,559.2352 Q669.0844,559.2352 669.225,559.3945 Q669.3656,559.5445 669.3656,559.9102 L669.3656,560.782 Q669.3656,561.1477 669.225,561.307 Q669.0844,561.4664 668.8594,561.4664 Q668.6531,561.4664 668.5313,561.3445 Q668.4094,561.232 668.3438,560.9227 Q668.3156,560.707 668.2031,560.5945 Q668.0063,560.3695 667.6406,560.2383 Q667.275,560.107 666.9,560.107 Q666.4406,560.107 666.0563,560.3039 Q665.6813,560.5008 665.3813,560.9508 Q665.0906,561.4008 665.0906,562.0195 L665.0906,562.6758 Q665.0906,563.4164 665.625,563.9133 Q666.1594,564.4008 667.1156,564.4008 Q667.6781,564.4008 668.0719,564.2508 Q668.3063,564.157 668.5594,563.8945 Q668.7188,563.7352 668.8031,563.6883 Q668.8969,563.6414 669.0188,563.6414 Q669.2156,563.6414 669.3656,563.8008 Q669.525,563.9508 669.525,564.157 Q669.525,564.3633 669.3188,564.607 Q669.0188,564.9539 668.5406,565.1508 Q667.8938,565.4227 667.1156,565.4227 Q666.2063,565.4227 665.4844,565.0477 Q664.8938,564.7477 664.4812,564.1102 Q664.0688,563.4633 664.0688,562.6945 L664.0688,562.0008 Q664.0688,561.2039 664.4344,560.5195 Q664.8094,559.8258 665.4656,559.4602 Q666.1219,559.0852 666.8625,559.0852 Q667.3031,559.0852 667.6875,559.1883 Q668.0813,559.282 668.4094,559.4977 Z " fill="#000000"/><text fill="#000000" font-family="sans-serif" font-size="8.4" lengthAdjust="spacing" textLength="39" x="679.05" y="565.4508">Apartment</text><line style="stroke:#181818;stroke-width:0.3;" x1="637.5" x2="740.1" y1="571.5727" y2="571.5727"/><text fill="#000000" font-family="sans-serif" font-size="8.4" lengthAdjust="spacing" textLength="78" x="640.5" y="583.0371">-int numOfBedrooms</text><text fill="#000000" font-family="sans-serif" font-size="8.4" lengthAdjust="spacing" textLength="80.4" x="640.5" y="594.2098">-int numOfBathrooms</text><text fill="#000000" font-family="sans-serif" font-size="8.4" lengthAdjust="spacing" textLength="96.6" x="640.5" y="605.3824">-int numOfParkingSpaces</text><text fill="#000000" font-family="sans-serif" font-size="8.4" lengthAdjust="spacing" textLength="90.6" x="640.5" y="616.5551">-boolean centralHeating</text><text fill="#000000" font-family="sans-serif" font-size="8.4" lengthAdjust="spacing" textLength="93" x="640.5" y="627.7277">-boolean airConditioning</text><line style="stroke:#181818;stroke-width:0.3;" x1="637.5" x2="740.1" y1="632.2359" y2="632.2359"/></g><!--class House--><g id="elem_House"><rect codeLine="81" fill="#F1F1F1" height="118.1812" id="House" rx="1.5" ry="1.5" style="stroke:#181818;stroke-width:0.3;" width="103.8" x="771.9" y="535.5727"/><ellipse cx="809.25" cy="545.1727" fill="#ADD1B2" rx="6.6" ry="6.6" style="stroke:#181818;stroke-width:0.6;"/><path d="M810.9094,542.6977 Q811.0031,542.5664 811.1156,542.5008 Q811.2281,542.4352 811.3594,542.4352 Q811.5844,542.4352 811.725,542.5945 Q811.8656,542.7445 811.8656,543.1102 L811.8656,543.982 Q811.8656,544.3477 811.725,544.507 Q811.5844,544.6664 811.3594,544.6664 Q811.1531,544.6664 811.0313,544.5445 Q810.9094,544.432 810.8438,544.1227 Q810.8156,543.907 810.7031,543.7945 Q810.5063,543.5695 810.1406,543.4383 Q809.775,543.307 809.4,543.307 Q808.9406,543.307 808.5563,543.5039 Q808.1813,543.7008 807.8813,544.1508 Q807.5906,544.6008 807.5906,545.2195 L807.5906,545.8758 Q807.5906,546.6164 808.125,547.1133 Q808.6594,547.6008 809.6156,547.6008 Q810.1781,547.6008 810.5719,547.4508 Q810.8063,547.357 811.0594,547.0945 Q811.2188,546.9352 811.3031,546.8883 Q811.3969,546.8414 811.5188,546.8414 Q811.7156,546.8414 811.8656,547.0008 Q812.025,547.1508 812.025,547.357 Q812.025,547.5633 811.8188,547.807 Q811.5188,548.1539 811.0406,548.3508 Q810.3938,548.6227 809.6156,548.6227 Q808.7063,548.6227 807.9844,548.2477 Q807.3938,547.9477 806.9812,547.3102 Q806.5688,546.6633 806.5688,545.8945 L806.5688,545.2008 Q806.5688,544.4039 806.9344,543.7195 Q807.3094,543.0258 807.9656,542.6602 Q808.6219,542.2852 809.3625,542.2852 Q809.8031,542.2852 810.1875,542.3883 Q810.5813,542.482 810.9094,542.6977 Z " fill="#000000"/><text fill="#000000" font-family="sans-serif" font-size="8.4" lengthAdjust="spacing" textLength="24" x="821.55" y="548.6508">House</text><line style="stroke:#181818;stroke-width:0.3;" x1="772.5" x2="875.1" y1="554.7727" y2="554.7727"/><text fill="#000000" font-family="sans-serif" font-size="8.4" lengthAdjust="spacing" textLength="78" x="775.5" y="566.2371">-int numOfBedrooms</text><text fill="#000000" font-family="sans-serif" font-size="8.4" lengthAdjust="spacing" textLength="80.4" x="775.5" y="577.4098">-int numOfBathrooms</text><text fill="#000000" font-family="sans-serif" font-size="8.4" lengthAdjust="spacing" textLength="96.6" x="775.5" y="588.5824">-int numOfParkingSpaces</text><text fill="#000000" font-family="sans-serif" font-size="8.4" lengthAdjust="spacing" textLength="90.6" x="775.5" y="599.7551">-boolean centralHeating</text><text fill="#000000" font-family="sans-serif" font-size="8.4" lengthAdjust="spacing" textLength="93" x="775.5" y="610.9277">-boolean airConditioning</text><text fill="#000000" font-family="sans-serif" font-size="8.4" lengthAdjust="spacing" textLength="73.2" x="775.5" y="622.1004">-boolean basement</text><text fill="#000000" font-family="sans-serif" font-size="8.4" lengthAdjust="spacing" textLength="91.8" x="775.5" y="633.273">-boolean inhabitableLoft</text><text fill="#000000" font-family="sans-serif" font-size="8.4" lengthAdjust="spacing" textLength="76.8" x="775.5" y="644.4457">-String sunExposure</text><line style="stroke:#181818;stroke-width:0.3;" x1="772.5" x2="875.1" y1="648.9539" y2="648.9539"/></g><!--link StoreManager to AnalyzeDealsUI--><g id="link_StoreManager_AnalyzeDealsUI"><path codeLine="92" d="M77.538,130.3207 C89.7,137.6107 103.692,144.5407 117.6,148.2727 C130.608,151.7647 164.922,150.5107 178.2,148.2727 C190.422,146.2087 203.034,143.1127 215.358,139.4887 " fill="none" id="StoreManager-to-AnalyzeDealsUI" style="stroke:#181818;stroke-width:0.6;"/><polygon fill="#181818" points="218.316,138.6127,212.4551,137.8575,215.4413,139.4708,213.8281,142.457,218.316,138.6127" style="stroke:#181818;stroke-width:0.6;"/><text fill="#000000" font-family="sans-serif" font-size="7.8" lengthAdjust="spacing" textLength="52.2" x="121.8" y="114.6896">requests to get</text><text fill="#000000" font-family="sans-serif" font-size="7.8" lengthAdjust="spacing" textLength="51.6" x="122.1" y="125.0643">forecast values</text><text fill="#000000" font-family="sans-serif" font-size="7.8" lengthAdjust="spacing" textLength="49.2" x="123.3" y="135.4389">from a chosen</text><text fill="#000000" font-family="sans-serif" font-size="7.8" lengthAdjust="spacing" textLength="59.4" x="118.2" y="145.8135">regression model</text></g><!--link AnalyzeDealsUI to StoreManager--><g id="link_AnalyzeDealsUI_StoreManager"><path codeLine="99" d="M218.322,103.8727 C171.828,103.8727 116.988,103.8727 80.694,103.8727 " fill="none" id="AnalyzeDealsUI-to-StoreManager" style="stroke:#181818;stroke-width:0.6;"/><polygon fill="#181818" points="77.676,103.8727,83.076,106.2727,80.676,103.8727,83.076,101.4727,77.676,103.8727" style="stroke:#181818;stroke-width:0.6;"/><text fill="#000000" font-family="sans-serif" font-size="7.8" lengthAdjust="spacing" textLength="113.4" x="91.2" y="68.4896">prints all apartments and houses</text><text fill="#000000" font-family="sans-serif" font-size="7.8" lengthAdjust="spacing" textLength="105" x="95.4" y="78.8643">along with their new estimated</text><text fill="#000000" font-family="sans-serif" font-size="7.8" lengthAdjust="spacing" textLength="118.8" x="88.5" y="89.2389">price (calculated using the chosen</text><text fill="#000000" font-family="sans-serif" font-size="7.8" lengthAdjust="spacing" textLength="61.8" x="117" y="99.6135">regression model)</text></g><!--link AnalyzeDealsUI to AnalyzeDealsController--><g id="link_AnalyzeDealsUI_AnalyzeDealsController"><path codeLine="93" d="M393.66,114.0727 C407.376,115.3207 421.41,116.3947 434.7,117.0727 C455.7,118.1467 478.062,117.7387 499.608,116.5567 " fill="none" id="AnalyzeDealsUI-to-AnalyzeDealsController" style="stroke:#181818;stroke-width:0.6;"/><polygon fill="#181818" points="502.782,116.3767,497.2539,114.2886,499.7869,116.5478,497.5277,119.0808,502.782,116.3767" style="stroke:#181818;stroke-width:0.6;"/><text fill="#000000" font-family="sans-serif" font-size="7.8" lengthAdjust="spacing" textLength="25.8" x="435.3" y="114.6896">creates</text></g><!--link AnalyzeDealsController to AnalyzeDealsUI--><g id="link_AnalyzeDealsController_AnalyzeDealsUI"><path codeLine="98" d="M502.542,103.8727 C467.88,103.8727 430.08,103.8727 396.978,103.8727 " fill="none" id="AnalyzeDealsController-to-AnalyzeDealsUI" style="stroke:#181818;stroke-width:0.6;"/><polygon fill="#181818" points="393.792,103.8727,399.192,106.2727,396.792,103.8727,399.192,101.4727,393.792,103.8727" style="stroke:#181818;stroke-width:0.6;"/><text fill="#000000" font-family="sans-serif" font-size="7.8" lengthAdjust="spacing" textLength="46.8" x="424.8" y="79.2896">delivers list of</text><text fill="#000000" font-family="sans-serif" font-size="7.8" lengthAdjust="spacing" textLength="86.4" x="405" y="89.6643">parameters regarding the</text><text fill="#000000" font-family="sans-serif" font-size="7.8" lengthAdjust="spacing" textLength="87" x="404.7" y="100.0389">chosen regression model</text></g><!--link AnalyzeDealsController to PropertySoldRepository--><g id="link_AnalyzeDealsController_PropertySoldRepository"><path codeLine="94" d="M502.686,135.4507 C457.236,154.1947 409.206,183.2407 382.8,227.1727 C355.902,271.9147 376.008,332.0887 396.108,372.6727 " fill="none" id="AnalyzeDealsController-to-PropertySoldRepository" style="stroke:#181818;stroke-width:0.6;"/><polygon fill="#181818" points="397.56,375.5587,397.2992,369.6551,396.2218,372.8737,393.0032,371.7962,397.56,375.5587" style="stroke:#181818;stroke-width:0.6;"/><text fill="#000000" font-family="sans-serif" font-size="7.8" lengthAdjust="spacing" textLength="63.6" x="383.4" y="261.9896">gets all deals from</text><text fill="#000000" font-family="sans-serif" font-size="7.8" lengthAdjust="spacing" textLength="49.2" x="390.6" y="272.3643">(except lands)</text></g><!--link AnalyzeDealsController to Apartment--><g id="link_AnalyzeDealsController_Apartment"><path codeLine="95" d="M627.636,179.7907 C628.668,185.8687 629.67,191.9227 630.6,197.7727 C651.084,326.4487 650.946,359.3947 670.8,488.1727 C673.89,508.2067 677.598,530.3167 680.844,549.1267 " fill="none" id="AnalyzeDealsController-to-Apartment" style="stroke:#181818;stroke-width:0.6;"/><polygon fill="#181818" points="681.366,552.1207,682.8053,546.3893,680.852,549.165,678.0762,547.2117,681.366,552.1207" style="stroke:#181818;stroke-width:0.6;"/><text fill="#000000" font-family="sans-serif" font-size="7.8" lengthAdjust="spacing" textLength="15" x="649.8" y="327.3896">gets</text></g><!--link AnalyzeDealsController to House--><g id="link_AnalyzeDealsController_House"><path codeLine="96" d="M696.948,179.8627 C739.74,224.1427 787.95,283.8607 812.4,347.7727 C835.236,407.4547 835.314,481.2787 831.414,532.4647 " fill="none" id="AnalyzeDealsController-to-House" style="stroke:#181818;stroke-width:0.6;"/><polygon fill="#181818" points="831.174,535.4947,833.9834,530.2959,831.4054,532.5036,829.1977,529.9256,831.174,535.4947" style="stroke:#181818;stroke-width:0.6;"/><text fill="#000000" font-family="sans-serif" font-size="7.8" lengthAdjust="spacing" textLength="15" x="804.6" y="327.3896">gets</text></g><!--link AnalyzeDealsController to Repositories--><g id="link_AnalyzeDealsController_Repositories"><path codeLine="101" d="M577.596,179.8747 C570.21,195.2527 562.734,210.8347 556.272,224.2927 " fill="none" id="AnalyzeDealsController-to-Repositories" style="stroke:#181818;stroke-width:0.6;"/><polygon fill="#181818" points="554.904,227.1307,559.4076,223.3047,556.2044,224.4272,555.082,221.224,554.904,227.1307" style="stroke:#181818;stroke-width:0.6;"/><text fill="#000000" font-family="sans-serif" font-size="7.8" lengthAdjust="spacing" textLength="55.2" x="570" y="206.7896">gets instance of</text></g><!--link Repositories to PropertySoldRepository--><g id="link_Repositories_PropertySoldRepository"><path codeLine="102" d="M510.444,300.4387 C494.076,322.1767 473.112,350.0227 455.742,373.0867 " fill="none" id="Repositories-to-PropertySoldRepository" style="stroke:#181818;stroke-width:0.6;"/><polygon fill="#181818" points="453.858,375.5887,459.018,372.7087,455.658,373.1887,455.178,369.8287,453.858,375.5887" style="stroke:#181818;stroke-width:0.6;"/><text fill="#000000" font-family="sans-serif" font-size="7.8" lengthAdjust="spacing" textLength="29.4" x="494.4" y="327.3896">contains</text></g><!--link PropertySoldRepository to Property--><g id="link_PropertySoldRepository_Property"><path codeLine="104" d="M487.38,417.9727 C543.018,417.9727 622.668,417.9727 677.928,417.9727 " fill="none" id="PropertySoldRepository-to-Property" style="stroke:#181818;stroke-width:0.6;"/><polygon fill="#181818" points="681.036,417.9727,675.636,415.5727,678.036,417.9727,675.636,420.3727,681.036,417.9727" style="stroke:#181818;stroke-width:0.6;"/><text fill="#000000" font-family="sans-serif" font-size="7.8" lengthAdjust="spacing" textLength="29.4" x="569.55" y="413.7896">contains</text></g><!--link Property to Apartment--><g id="link_Property_Apartment"><path codeLine="105" d="M716.652,488.2027 C714.672,494.2567 712.758,500.3107 711,506.1727 C706.818,520.1047 702.762,535.4347 699.282,549.3367 " fill="none" id="Property-to-Apartment" style="stroke:#181818;stroke-width:0.6;"/><polygon fill="#181818" points="698.55,552.2827,702.188,547.626,699.2776,549.3722,697.5314,546.4618,698.55,552.2827" style="stroke:#181818;stroke-width:0.6;"/><text fill="#000000" font-family="sans-serif" font-size="7.8" lengthAdjust="spacing" textLength="23.4" x="711.6" y="515.1896">can be</text></g><!--link Property to House--><g id="link_Property_House"><path codeLine="106" d="M774.204,488.1847 C781.098,502.9027 788.322,518.3287 795.06,532.7107 " fill="none" id="Property-to-House" style="stroke:#181818;stroke-width:0.6;"/><polygon fill="#181818" points="796.398,535.5727,796.2882,529.6644,795.1289,532.8543,791.9389,531.695,796.398,535.5727" style="stroke:#181818;stroke-width:0.6;"/><text fill="#000000" font-family="sans-serif" font-size="7.8" lengthAdjust="spacing" textLength="23.4" x="788.4" y="515.1896">can be</text></g><!--SRC=[nLPDRnit4BtpLynHHhn0UYkC8e1g9OW1fpQaf9SeC4RBaKIOIsx9MJjAqF_U8LUxsbKi9RTU976- -URDKF7Hk1e3Lb1Z-OWRMl3E4WGg6Tt6aegzGToYzi_6RM2DDWurfSKOfyp1h1gcczAxXVb6y5efDYpHFYrU__Oxp0WjJ1tQNJGH2hXENZ0pk94OIkKWi60Vw0CwgIJ0TrNaCyJqcGuXfNTO7GvKeR7zgPOOppvezMyNC2VyHYbv_7IJGWubrzvnyDPAifB38OvXgjJ3muDw5HetkL35XlYkPkFpGVjRumZ3d3Q1OjnBnMH6qGJIFsXzTisU7nhBfhRqWuqraU_MVwDjA5weLnWVfolVy3jZcKASrC7N5DYCb0iVU47CKlBOe9PRy7qhsTrAv4wT3vSmJlOYM0De1BIxsyMfog7QAmuYmT5K8md48q6Bhc0s5GvnHOxZrEdtleaK1Ssi2OGV_Nqm9Rs0TxAOoJNGbNJUwg-ckbl_IJfuNyLVCKNU_ghjFGOPWyr2feT-OZ-VOsvKQ8ydYI3g4ctPM6HgOMnDSkmHJIupJo-Xw-sWartl5zxgETK-6XcXNUfa8i0VdVfDxviCawhjYublgvftgHRKUd98K3oXDLegwo8CTEbMzpqB9uDg-Wf4dceOdOrhcwYA4qN7qR4dpitURm_lsAdDBaD0OIsjwV58sTVM8mCAk_fvjxv4piHjbNfFh7V1LzU6TzV2pxI1fXlv0PW-LI6ZIP-_GBtrx6M7rTlOkQ-D35BkLvy1dVEDH4nCdmb-lIAYfLOmft-agIpBDt-FbzzXHhjvILUH2u8RqdiewcWya8tegegLzvRGGPckX_OzPOOUv6Y2h05j4ZH9qHUHv_H_AA1Nh31cA0yIuxQuCemhcHU_vWE-ZNlxLMZHj22E7fZYpV7xSDMX7u4z2AsMRYqE9KfVdlBGYK180GZbraToInS6cz1hikeev56ImLwzWb98o0B42OD2V4yCnLKgBW9Q2pfvGQfgwIRqjQIQmQBJijdFn3tmg0rrphPjzzxkj65Hl0IeG6AUv0dBZmxuzRBzrq3fMHEqDnXqwXDlQUbQJE6da4gUKIEl8BzuBHxOloWoTHgs-KrPIWGlQPuDRrCk4y3HCqYdJIKjq59LcbUOzBjNGnFtXPtizOKw1zjepUqRrcqx0KADz6TxBN-f6CLLgHCc0-UXUIyxxdYPPeZ6-gxBUvtw3m00]--></g></svg>