<?xml version="1.0" encoding="us-ascii" standalone="no"?><svg xmlns="http://www.w3.org/2000/svg" xmlns:xlink="http://www.w3.org/1999/xlink" contentStyleType="text/css" height="899px" preserveAspectRatio="none" style="width:594px;height:899px;background:#FFFFFF;" version="1.1" viewBox="0 0 594 899" width="594px" zoomAndPan="magnify"><defs/><g><text fill="#000000" font-family="sans-serif" font-size="14" font-weight="bold" lengthAdjust="spacing" textLength="292" x="152" y="30.1074">User Story 18 - System Sequence Diagram</text><rect fill="#FFFFFF" height="673.6152" style="stroke:#181818;stroke-width:1.0;" width="10" x="75" y="133.2422"/><rect fill="#FFFFFF" height="122.7949" style="stroke:#181818;stroke-width:1.0;" width="10" x="532" y="156.5332"/><rect fill="#FFFFFF" height="65.873" style="stroke:#181818;stroke-width:1.0;" width="10" x="532" y="310.6191"/><rect fill="#FFFFFF" height="57.582" style="stroke:#181818;stroke-width:1.0;" width="10" x="532" y="407.7832"/><rect fill="#FFFFFF" height="31.291" style="stroke:#181818;stroke-width:1.0;" width="10" x="532" y="496.6563"/><rect fill="#FFFFFF" height="31.291" style="stroke:#181818;stroke-width:1.0;" width="10" x="532" y="559.2383"/><rect fill="#FFFFFF" height="83.1641" style="stroke:#181818;stroke-width:1.0;" width="10" x="532" y="621.8203"/><rect fill="#FFFFFF" height="48.582" style="stroke:#181818;stroke-width:1.0;" width="10" x="532" y="736.2754"/><rect fill="none" height="628.3242" style="stroke:#000000;stroke-width:1.5;" width="577" x="10" y="171.5332"/><rect fill="none" height="370.0742" style="stroke:#000000;stroke-width:1.5;" width="557" x="20" y="422.7832"/><line style="stroke:#181818;stroke-width:0.5;stroke-dasharray:5.0,5.0;" x1="80" x2="80" y1="123.2422" y2="816.8574"/><line style="stroke:#181818;stroke-width:0.5;stroke-dasharray:5.0,5.0;" x1="537" x2="537" y1="123.2422" y2="816.8574"/><text fill="#000000" font-family="sans-serif" font-size="14" lengthAdjust="spacing" textLength="94" x="30" y="119.7285">Store Manager</text><ellipse cx="80" cy="53.1211" fill="#E2E2F0" rx="8" ry="8" style="stroke:#181818;stroke-width:0.5;"/><path d="M80,61.1211 L80,88.1211 M67,69.1211 L93,69.1211 M80,88.1211 L67,103.1211 M80,88.1211 L93,103.1211 " fill="none" style="stroke:#181818;stroke-width:0.5;"/><text fill="#000000" font-family="sans-serif" font-size="14" lengthAdjust="spacing" textLength="94" x="30" y="830.9648">Store Manager</text><ellipse cx="80" cy="842.9785" fill="#E2E2F0" rx="8" ry="8" style="stroke:#181818;stroke-width:0.5;"/><path d="M80,850.9785 L80,877.9785 M67,858.9785 L93,858.9785 M80,877.9785 L67,892.9785 M80,877.9785 L93,892.9785 " fill="none" style="stroke:#181818;stroke-width:0.5;"/><rect fill="#E2E2F0" height="32.6211" rx="2.5" ry="2.5" style="stroke:#181818;stroke-width:0.5;" width="60" x="507" y="89.6211"/><text fill="#000000" font-family="sans-serif" font-size="14" lengthAdjust="spacing" textLength="46" x="514" y="111.7285">System</text><rect fill="#E2E2F0" height="32.6211" rx="2.5" ry="2.5" style="stroke:#181818;stroke-width:0.5;" width="60" x="507" y="815.8574"/><text fill="#000000" font-family="sans-serif" font-size="14" lengthAdjust="spacing" textLength="46" x="514" y="837.9648">System</text><rect fill="#FFFFFF" height="673.6152" style="stroke:#181818;stroke-width:1.0;" width="10" x="75" y="133.2422"/><rect fill="#FFFFFF" height="122.7949" style="stroke:#181818;stroke-width:1.0;" width="10" x="532" y="156.5332"/><rect fill="#FFFFFF" height="65.873" style="stroke:#181818;stroke-width:1.0;" width="10" x="532" y="310.6191"/><rect fill="#FFFFFF" height="57.582" style="stroke:#181818;stroke-width:1.0;" width="10" x="532" y="407.7832"/><rect fill="#FFFFFF" height="31.291" style="stroke:#181818;stroke-width:1.0;" width="10" x="532" y="496.6563"/><rect fill="#FFFFFF" height="31.291" style="stroke:#181818;stroke-width:1.0;" width="10" x="532" y="559.2383"/><rect fill="#FFFFFF" height="83.1641" style="stroke:#181818;stroke-width:1.0;" width="10" x="532" y="621.8203"/><rect fill="#FFFFFF" height="48.582" style="stroke:#181818;stroke-width:1.0;" width="10" x="532" y="736.2754"/><polygon fill="#181818" points="520,152.5332,530,156.5332,520,160.5332,524,156.5332" style="stroke:#181818;stroke-width:1.0;"/><line style="stroke:#181818;stroke-width:1.0;" x1="85" x2="526" y1="156.5332" y2="156.5332"/><text fill="#000000" font-family="sans-serif" font-size="13" font-weight="bold" lengthAdjust="spacing" textLength="7" x="92" y="151.2705">1</text><text fill="#000000" font-family="sans-serif" font-size="13" lengthAdjust="spacing" textLength="201" x="103" y="151.2705">chooses to analyze all deals made</text><path d="M10,171.5332 L71,171.5332 L71,180.8242 L61,190.8242 L10,190.8242 L10,171.5332 " fill="#EEEEEE" style="stroke:#000000;stroke-width:1.5;"/><rect fill="none" height="628.3242" style="stroke:#000000;stroke-width:1.5;" width="577" x="10" y="171.5332"/><text fill="#000000" font-family="sans-serif" font-size="13" font-weight="bold" lengthAdjust="spacing" textLength="16" x="25" y="186.5615">alt</text><text fill="#000000" font-family="sans-serif" font-size="11" font-weight="bold" lengthAdjust="spacing" textLength="222" x="86" y="185.4033">[there are no apartment or house deals]</text><polygon fill="#181818" points="96,210.1152,86,214.1152,96,218.1152,92,214.1152" style="stroke:#181818;stroke-width:1.0;"/><line style="stroke:#181818;stroke-width:1.0;stroke-dasharray:2.0,2.0;" x1="90" x2="531" y1="214.1152" y2="214.1152"/><text fill="#000000" font-family="sans-serif" font-size="13" font-weight="bold" lengthAdjust="spacing" textLength="7" x="102" y="208.8525">2</text><text fill="#000000" font-family="sans-serif" font-size="13" lengthAdjust="spacing" textLength="412" x="113" y="208.8525">tells the user that there are no apartment or house deals on the system</text><line style="stroke:#000000;stroke-width:1.0;stroke-dasharray:2.0,2.0;" x1="10" x2="587" y1="223.1152" y2="223.1152"/><text fill="#000000" font-family="sans-serif" font-size="11" font-weight="bold" lengthAdjust="spacing" textLength="65" x="15" y="234.9854">[otherwise]</text><polygon fill="#181818" points="96,275.3281,86,279.3281,96,283.3281,92,279.3281" style="stroke:#181818;stroke-width:1.0;"/><line style="stroke:#181818;stroke-width:1.0;stroke-dasharray:2.0,2.0;" x1="90" x2="536" y1="279.3281" y2="279.3281"/><text fill="#000000" font-family="sans-serif" font-size="13" font-weight="bold" lengthAdjust="spacing" textLength="7" x="102" y="265.4199">3</text><text fill="#000000" font-family="sans-serif" font-size="13" lengthAdjust="spacing" textLength="165" x="113" y="256.7744">prints all possible regression</text><text fill="#000000" font-family="sans-serif" font-size="13" lengthAdjust="spacing" textLength="282" x="113" y="274.0654">models and tells the user to choose one of those</text><polygon fill="#181818" points="520,306.6191,530,310.6191,520,314.6191,524,310.6191" style="stroke:#181818;stroke-width:1.0;"/><line style="stroke:#181818;stroke-width:1.0;" x1="85" x2="526" y1="310.6191" y2="310.6191"/><text fill="#000000" font-family="sans-serif" font-size="13" font-weight="bold" lengthAdjust="spacing" textLength="7" x="92" y="305.3564">4</text><text fill="#000000" font-family="sans-serif" font-size="13" lengthAdjust="spacing" textLength="181" x="103" y="305.3564">picks one of the printed options</text><polygon fill="#181818" points="96,372.4922,86,376.4922,96,380.4922,92,376.4922" style="stroke:#181818;stroke-width:1.0;"/><line style="stroke:#181818;stroke-width:1.0;stroke-dasharray:2.0,2.0;" x1="90" x2="536" y1="376.4922" y2="376.4922"/><text fill="#000000" font-family="sans-serif" font-size="13" font-weight="bold" lengthAdjust="spacing" textLength="7" x="102" y="353.9385">5</text><text fill="#000000" font-family="sans-serif" font-size="13" lengthAdjust="spacing" textLength="341" x="113" y="336.6475">prints that regression model's equation along with its R and</text><text fill="#000000" font-family="sans-serif" font-size="13" lengthAdjust="spacing" textLength="283" x="113" y="353.9385">asks the user if they want to use that equation to</text><text fill="#000000" font-family="sans-serif" font-size="13" lengthAdjust="spacing" textLength="170" x="113" y="371.2295">estimate the price of all deals</text><polygon fill="#181818" points="520,403.7832,530,407.7832,520,411.7832,524,407.7832" style="stroke:#181818;stroke-width:1.0;"/><line style="stroke:#181818;stroke-width:1.0;" x1="85" x2="526" y1="407.7832" y2="407.7832"/><text fill="#000000" font-family="sans-serif" font-size="13" font-weight="bold" lengthAdjust="spacing" textLength="7" x="92" y="402.5205">6</text><text fill="#000000" font-family="sans-serif" font-size="13" lengthAdjust="spacing" textLength="131" x="103" y="402.5205">chooses "Yes" or "No"</text><path d="M20,422.7832 L81,422.7832 L81,432.0742 L71,442.0742 L20,442.0742 L20,422.7832 " fill="#EEEEEE" style="stroke:#000000;stroke-width:1.5;"/><rect fill="none" height="370.0742" style="stroke:#000000;stroke-width:1.5;" width="557" x="20" y="422.7832"/><text fill="#000000" font-family="sans-serif" font-size="13" font-weight="bold" lengthAdjust="spacing" textLength="16" x="35" y="437.8115">alt</text><text fill="#000000" font-family="sans-serif" font-size="11" font-weight="bold" lengthAdjust="spacing" textLength="120" x="96" y="436.6533">[the answer was yes]</text><polygon fill="#181818" points="96,461.3652,86,465.3652,96,469.3652,92,465.3652" style="stroke:#181818;stroke-width:1.0;"/><line style="stroke:#181818;stroke-width:1.0;stroke-dasharray:2.0,2.0;" x1="90" x2="536" y1="465.3652" y2="465.3652"/><text fill="#000000" font-family="sans-serif" font-size="13" font-weight="bold" lengthAdjust="spacing" textLength="7" x="102" y="460.1025">7</text><text fill="#000000" font-family="sans-serif" font-size="13" lengthAdjust="spacing" textLength="341" x="113" y="460.1025">asks if the user only wants to see 'for rent', 'for sale' or both</text><polygon fill="#181818" points="520,492.6563,530,496.6563,520,500.6563,524,496.6563" style="stroke:#181818;stroke-width:1.0;"/><line style="stroke:#181818;stroke-width:1.0;" x1="85" x2="526" y1="496.6563" y2="496.6563"/><text fill="#000000" font-family="sans-serif" font-size="13" font-weight="bold" lengthAdjust="spacing" textLength="7" x="92" y="491.3936">8</text><text fill="#000000" font-family="sans-serif" font-size="13" lengthAdjust="spacing" textLength="123" x="103" y="491.3936">answers the question</text><polygon fill="#181818" points="96,523.9473,86,527.9473,96,531.9473,92,527.9473" style="stroke:#181818;stroke-width:1.0;"/><line style="stroke:#181818;stroke-width:1.0;stroke-dasharray:2.0,2.0;" x1="90" x2="536" y1="527.9473" y2="527.9473"/><text fill="#000000" font-family="sans-serif" font-size="13" font-weight="bold" lengthAdjust="spacing" textLength="7" x="102" y="522.6846">9</text><text fill="#000000" font-family="sans-serif" font-size="13" lengthAdjust="spacing" textLength="329" x="113" y="522.6846">asks if they only want to see apartments, houses or both</text><polygon fill="#181818" points="520,555.2383,530,559.2383,520,563.2383,524,559.2383" style="stroke:#181818;stroke-width:1.0;"/><line style="stroke:#181818;stroke-width:1.0;" x1="85" x2="526" y1="559.2383" y2="559.2383"/><text fill="#000000" font-family="sans-serif" font-size="13" font-weight="bold" lengthAdjust="spacing" textLength="14" x="92" y="553.9756">10</text><text fill="#000000" font-family="sans-serif" font-size="13" lengthAdjust="spacing" textLength="123" x="110" y="553.9756">answers the question</text><polygon fill="#181818" points="96,586.5293,86,590.5293,96,594.5293,92,590.5293" style="stroke:#181818;stroke-width:1.0;"/><line style="stroke:#181818;stroke-width:1.0;stroke-dasharray:2.0,2.0;" x1="90" x2="536" y1="590.5293" y2="590.5293"/><text fill="#000000" font-family="sans-serif" font-size="13" font-weight="bold" lengthAdjust="spacing" textLength="14" x="102" y="585.2666">11</text><text fill="#000000" font-family="sans-serif" font-size="13" lengthAdjust="spacing" textLength="377" x="120" y="585.2666">asks if the user wants to only see properties from a specific store</text><polygon fill="#181818" points="520,617.8203,530,621.8203,520,625.8203,524,621.8203" style="stroke:#181818;stroke-width:1.0;"/><line style="stroke:#181818;stroke-width:1.0;" x1="85" x2="526" y1="621.8203" y2="621.8203"/><text fill="#000000" font-family="sans-serif" font-size="13" font-weight="bold" lengthAdjust="spacing" textLength="14" x="92" y="616.5576">12</text><text fill="#000000" font-family="sans-serif" font-size="13" lengthAdjust="spacing" textLength="123" x="110" y="616.5576">answers the question</text><polygon fill="#181818" points="96,700.9844,86,704.9844,96,708.9844,92,704.9844" style="stroke:#181818;stroke-width:1.0;"/><line style="stroke:#181818;stroke-width:1.0;stroke-dasharray:2.0,2.0;" x1="90" x2="536" y1="704.9844" y2="704.9844"/><text fill="#000000" font-family="sans-serif" font-size="13" font-weight="bold" lengthAdjust="spacing" textLength="14" x="102" y="673.7852">13</text><text fill="#000000" font-family="sans-serif" font-size="13" lengthAdjust="spacing" textLength="308" x="120" y="647.8486">asks if they want to sort by price, area, distance from</text><text fill="#000000" font-family="sans-serif" font-size="13" lengthAdjust="spacing" textLength="250" x="120" y="665.1396">city centre, number of photos (in ascending</text><text fill="#000000" font-family="sans-serif" font-size="13" lengthAdjust="spacing" textLength="248" x="120" y="682.4307">or descending order), number of bedrooms,</text><text fill="#000000" font-family="sans-serif" font-size="13" lengthAdjust="spacing" textLength="373" x="120" y="699.7217">number of bathrooms, number of parking spaces or none of them</text><polygon fill="#181818" points="520,732.2754,530,736.2754,520,740.2754,524,736.2754" style="stroke:#181818;stroke-width:1.0;"/><line style="stroke:#181818;stroke-width:1.0;" x1="85" x2="526" y1="736.2754" y2="736.2754"/><text fill="#000000" font-family="sans-serif" font-size="13" font-weight="bold" lengthAdjust="spacing" textLength="14" x="92" y="731.0127">14</text><text fill="#000000" font-family="sans-serif" font-size="13" lengthAdjust="spacing" textLength="103" x="110" y="731.0127">gives their answer</text><polygon fill="#181818" points="96,780.8574,86,784.8574,96,788.8574,92,784.8574" style="stroke:#181818;stroke-width:1.0;"/><line style="stroke:#181818;stroke-width:1.0;stroke-dasharray:2.0,2.0;" x1="90" x2="536" y1="784.8574" y2="784.8574"/><text fill="#000000" font-family="sans-serif" font-size="13" font-weight="bold" lengthAdjust="spacing" textLength="14" x="102" y="770.9492">15</text><text fill="#000000" font-family="sans-serif" font-size="13" lengthAdjust="spacing" textLength="320" x="120" y="762.3037">prints all deals in the requested order, each one with its</text><text fill="#000000" font-family="sans-serif" font-size="13" lengthAdjust="spacing" textLength="189" x="120" y="779.5947">newly calculated estimated price</text><!--SRC=[nLKzZzim3DtzAuWiQO6aXsx53PswjaE33WMoC38J2oUBhYXVuFxwafBpqUQkk9ikW01R8X_VUwAPPPVp8FTtTqF0cCS-V73Stmdz6YawMhSU3mdx9liS27u89TXaJXDy_0Hhs4oIgOVD70rVvcWSCyUntr5gq6auB2o9u2j6F51Q04h1QWPCsJi_Q6cDAMZbi3vQid_4N0itJIc__ZoVteFhc8K4CeC2X-at0OO0BM4GwB6b2y0Cs638a3jIBgWhQg9Hw4dhAysEHw6QtypQrbglrBs7J45nDHj6syWTlX0BE9OqgIGew05Rvj4BFL5eI3vcALe65l4xjJxH8P4-Szp6dbl5KCtj3IUUJT6IklPweY-DilZ7YB-jj9hUFSWbYoe9Qe67h4NbnifdQHTVBdIXi5qAQ9EWGQakZWSu-jo1r_Zl9cGRKHwkXFX2OeAZTOQgCYyBy1abypQIPDyRfvcmA-pFFV0ItQSUMlmaMTYzBRxnuaRit3RAL8uASDGMdKWQqD-j3qL95L35S0nLIMbL8OBbNYibxPJbgZuB1bfQ-PqsHi6zvLwsRmHKIjKw_Gp5p2cHJwR_b-rqONeYUcvfMTMEbhScMIqzkraO6zCXyK0wJPJXFd4F23AGytllG6pul9sfPpyvPTXDjL5NDZHm1QsNZ3OxZVGsEfydSEftqeWwGgsbXuup2xpp-lM87hS-7hPHRwAbqwlUIqlf_NNMZjh4tCjg6wysCNTrzneVquDXo82kNd6yZ8B-LTOT_2CLutoQRNoDSLUZhuvENqTded8DDezCvWgKJLV6rMcEg4OwQYyu36uCQA6dyT1Mov-HORjgOMFhwhJyvVm1]--></g></svg>