<?xml version="1.0" encoding="us-ascii" standalone="no"?><svg xmlns="http://www.w3.org/2000/svg" xmlns:xlink="http://www.w3.org/1999/xlink" contentStyleType="text/css" height="689px" preserveAspectRatio="none" style="width:665px;height:689px;background:#FFFFFF;" version="1.1" viewBox="0 0 665 689" width="665px" zoomAndPan="magnify"><defs/><g><text fill="#000000" font-family="sans-serif" font-size="14" font-weight="bold" lengthAdjust="spacing" textLength="342" x="162.75" y="30.1074">User Story 012 - System Sequence Diagram (SSD)</text><rect fill="#FFFFFF" height="463.6758" style="stroke:#181818;stroke-width:1.0;" width="10" x="99.5" y="133.2422"/><rect fill="#FFFFFF" height="463.6758" style="stroke:#181818;stroke-width:1.0;" width="10" x="99.5" y="133.2422"/><rect fill="#FFFFFF" height="31.291" style="stroke:#181818;stroke-width:1.0;" width="10" x="601.5" y="156.5332"/><rect fill="#FFFFFF" height="95.873" style="stroke:#181818;stroke-width:1.0;" width="10" x="601.5" y="219.1152"/><rect fill="#FFFFFF" height="249.6387" style="stroke:#181818;stroke-width:1.0;" width="10" x="601.5" y="346.2793"/><rect fill="none" height="50.582" style="stroke:#000000;stroke-width:1.5;" width="628.5" x="20" y="234.1152"/><rect fill="none" height="227.6387" style="stroke:#000000;stroke-width:1.5;" width="648.5" x="10" y="361.2793"/><rect fill="none" height="98.5039" style="stroke:#000000;stroke-width:1.5;" width="628.5" x="20" y="483.4141"/><line style="stroke:#181818;stroke-width:0.5;stroke-dasharray:5.0,5.0;" x1="99" x2="99" y1="123.2422" y2="605.918"/><line style="stroke:#181818;stroke-width:0.5;stroke-dasharray:5.0,5.0;" x1="606.5" x2="606.5" y1="123.2422" y2="605.918"/><text fill="#000000" font-family="sans-serif" font-size="14" lengthAdjust="spacing" textLength="133" x="30" y="119.7285">System Administrator</text><ellipse cx="99.5" cy="53.1211" fill="#E3E3E3" rx="8" ry="8" style="stroke:#181818;stroke-width:0.5;"/><path d="M99.5,61.1211 L99.5,88.1211 M86.5,69.1211 L112.5,69.1211 M99.5,88.1211 L86.5,103.1211 M99.5,88.1211 L112.5,103.1211 " fill="none" style="stroke:#181818;stroke-width:0.5;"/><text fill="#000000" font-family="sans-serif" font-size="14" lengthAdjust="spacing" textLength="133" x="30" y="620.0254">System Administrator</text><ellipse cx="99.5" cy="632.0391" fill="#E3E3E3" rx="8" ry="8" style="stroke:#181818;stroke-width:0.5;"/><path d="M99.5,640.0391 L99.5,667.0391 M86.5,648.0391 L112.5,648.0391 M99.5,667.0391 L86.5,682.0391 M99.5,667.0391 L112.5,682.0391 " fill="none" style="stroke:#181818;stroke-width:0.5;"/><rect fill="#E3E3E3" height="32.6211" rx="2.5" ry="2.5" style="stroke:#181818;stroke-width:0.5;" width="64" x="574.5" y="89.6211"/><text fill="#000000" font-family="sans-serif" font-size="14" lengthAdjust="spacing" textLength="50" x="581.5" y="111.7285">:System</text><rect fill="#E3E3E3" height="32.6211" rx="2.5" ry="2.5" style="stroke:#181818;stroke-width:0.5;" width="64" x="574.5" y="604.918"/><text fill="#000000" font-family="sans-serif" font-size="14" lengthAdjust="spacing" textLength="50" x="581.5" y="627.0254">:System</text><rect fill="#FFFFFF" height="463.6758" style="stroke:#181818;stroke-width:1.0;" width="10" x="99.5" y="133.2422"/><rect fill="#FFFFFF" height="463.6758" style="stroke:#181818;stroke-width:1.0;" width="10" x="99.5" y="133.2422"/><rect fill="#FFFFFF" height="31.291" style="stroke:#181818;stroke-width:1.0;" width="10" x="601.5" y="156.5332"/><rect fill="#FFFFFF" height="95.873" style="stroke:#181818;stroke-width:1.0;" width="10" x="601.5" y="219.1152"/><rect fill="#FFFFFF" height="249.6387" style="stroke:#181818;stroke-width:1.0;" width="10" x="601.5" y="346.2793"/><polygon fill="#181818" points="589.5,152.5332,599.5,156.5332,589.5,160.5332,593.5,156.5332" style="stroke:#181818;stroke-width:1.0;"/><line style="stroke:#181818;stroke-width:1.0;" x1="109.5" x2="595.5" y1="156.5332" y2="156.5332"/><text fill="#000000" font-family="sans-serif" font-size="13" font-weight="bold" lengthAdjust="spacing" textLength="7" x="116.5" y="151.2705">1</text><text fill="#000000" font-family="sans-serif" font-size="13" lengthAdjust="spacing" textLength="300" x="127.5" y="151.2705">asks to list import information from a legacy system</text><polygon fill="#181818" points="120.5,183.8242,110.5,187.8242,120.5,191.8242,116.5,187.8242" style="stroke:#181818;stroke-width:1.0;"/><line style="stroke:#181818;stroke-width:1.0;stroke-dasharray:2.0,2.0;" x1="114.5" x2="605.5" y1="187.8242" y2="187.8242"/><text fill="#000000" font-family="sans-serif" font-size="13" font-weight="bold" lengthAdjust="spacing" textLength="7" x="126.5" y="182.5615">2</text><text fill="#000000" font-family="sans-serif" font-size="13" lengthAdjust="spacing" textLength="351" x="137.5" y="182.5615">asks if the user wants to list requested format for the .csv file</text><polygon fill="#181818" points="589.5,215.1152,599.5,219.1152,589.5,223.1152,593.5,219.1152" style="stroke:#181818;stroke-width:1.0;"/><line style="stroke:#181818;stroke-width:1.0;" x1="109.5" x2="595.5" y1="219.1152" y2="219.1152"/><text fill="#000000" font-family="sans-serif" font-size="13" font-weight="bold" lengthAdjust="spacing" textLength="7" x="116.5" y="213.8525">3</text><text fill="#000000" font-family="sans-serif" font-size="13" lengthAdjust="spacing" textLength="178" x="127.5" y="213.8525">answers the question (Yes/No)</text><path d="M20,234.1152 L81,234.1152 L81,243.4063 L71,253.4063 L20,253.4063 L20,234.1152 " fill="#EEEEEE" style="stroke:#000000;stroke-width:1.5;"/><rect fill="none" height="50.582" style="stroke:#000000;stroke-width:1.5;" width="628.5" x="20" y="234.1152"/><text fill="#000000" font-family="sans-serif" font-size="13" font-weight="bold" lengthAdjust="spacing" textLength="16" x="35" y="249.1436">alt</text><text fill="#000000" font-family="sans-serif" font-size="11" font-weight="bold" lengthAdjust="spacing" textLength="93" x="96" y="247.9854">[answer is 'Yes']</text><polygon fill="#181818" points="120.5,272.6973,110.5,276.6973,120.5,280.6973,116.5,276.6973" style="stroke:#181818;stroke-width:1.0;"/><line style="stroke:#181818;stroke-width:1.0;stroke-dasharray:2.0,2.0;" x1="114.5" x2="600.5" y1="276.6973" y2="276.6973"/><text fill="#000000" font-family="sans-serif" font-size="13" font-weight="bold" lengthAdjust="spacing" textLength="7" x="126.5" y="271.4346">4</text><text fill="#000000" font-family="sans-serif" font-size="13" lengthAdjust="spacing" textLength="330" x="137.5" y="271.4346">prints requested format (what each line is and must have)</text><polygon fill="#181818" points="120.5,310.9883,110.5,314.9883,120.5,318.9883,116.5,314.9883" style="stroke:#181818;stroke-width:1.0;"/><line style="stroke:#181818;stroke-width:1.0;stroke-dasharray:2.0,2.0;" x1="114.5" x2="605.5" y1="314.9883" y2="314.9883"/><text fill="#000000" font-family="sans-serif" font-size="13" font-weight="bold" lengthAdjust="spacing" textLength="7" x="126.5" y="309.7256">5</text><text fill="#000000" font-family="sans-serif" font-size="13" lengthAdjust="spacing" textLength="146" x="137.5" y="309.7256">asks for the file's full path</text><polygon fill="#181818" points="589.5,342.2793,599.5,346.2793,589.5,350.2793,593.5,346.2793" style="stroke:#181818;stroke-width:1.0;"/><line style="stroke:#181818;stroke-width:1.0;" x1="109.5" x2="595.5" y1="346.2793" y2="346.2793"/><text fill="#000000" font-family="sans-serif" font-size="13" font-weight="bold" lengthAdjust="spacing" textLength="7" x="116.5" y="341.0166">6</text><text fill="#000000" font-family="sans-serif" font-size="13" lengthAdjust="spacing" textLength="145" x="127.5" y="341.0166">writes full path to .csv file</text><path d="M10,361.2793 L71,361.2793 L71,370.5703 L61,380.5703 L10,380.5703 L10,361.2793 " fill="#EEEEEE" style="stroke:#000000;stroke-width:1.5;"/><rect fill="none" height="227.6387" style="stroke:#000000;stroke-width:1.5;" width="648.5" x="10" y="361.2793"/><text fill="#000000" font-family="sans-serif" font-size="13" font-weight="bold" lengthAdjust="spacing" textLength="16" x="25" y="376.3076">alt</text><text fill="#000000" font-family="sans-serif" font-size="11" font-weight="bold" lengthAdjust="spacing" textLength="100" x="86" y="375.1494">[file doesn't exist]</text><polygon fill="#181818" points="120.5,399.8613,110.5,403.8613,120.5,407.8613,116.5,403.8613" style="stroke:#181818;stroke-width:1.0;"/><line style="stroke:#181818;stroke-width:1.0;stroke-dasharray:2.0,2.0;" x1="114.5" x2="600.5" y1="403.8613" y2="403.8613"/><text fill="#000000" font-family="sans-serif" font-size="13" font-weight="bold" lengthAdjust="spacing" textLength="7" x="126.5" y="398.5986">7</text><text fill="#000000" font-family="sans-serif" font-size="13" lengthAdjust="spacing" textLength="240" x="137.5" y="398.5986">tells user that the given file does not exist</text><line style="stroke:#000000;stroke-width:1.0;stroke-dasharray:2.0,2.0;" x1="10" x2="658.5" y1="412.8613" y2="412.8613"/><text fill="#000000" font-family="sans-serif" font-size="11" font-weight="bold" lengthAdjust="spacing" textLength="77" x="15" y="424.7314">[file isn't .csv]</text><polygon fill="#181818" points="120.5,447.7832,110.5,451.7832,120.5,455.7832,116.5,451.7832" style="stroke:#181818;stroke-width:1.0;"/><line style="stroke:#181818;stroke-width:1.0;stroke-dasharray:2.0,2.0;" x1="114.5" x2="600.5" y1="451.7832" y2="451.7832"/><text fill="#000000" font-family="sans-serif" font-size="13" font-weight="bold" lengthAdjust="spacing" textLength="7" x="126.5" y="446.5205">8</text><text fill="#000000" font-family="sans-serif" font-size="13" lengthAdjust="spacing" textLength="162" x="137.5" y="446.5205">tells user to insert a .csv file</text><line style="stroke:#000000;stroke-width:1.0;stroke-dasharray:2.0,2.0;" x1="10" x2="658.5" y1="460.7832" y2="460.7832"/><text fill="#000000" font-family="sans-serif" font-size="11" font-weight="bold" lengthAdjust="spacing" textLength="123" x="15" y="472.6533">[file exists and is .csv]</text><path d="M20,483.4141 L81,483.4141 L81,492.7051 L71,502.7051 L20,502.7051 L20,483.4141 " fill="#EEEEEE" style="stroke:#000000;stroke-width:1.5;"/><rect fill="none" height="98.5039" style="stroke:#000000;stroke-width:1.5;" width="628.5" x="20" y="483.4141"/><text fill="#000000" font-family="sans-serif" font-size="13" font-weight="bold" lengthAdjust="spacing" textLength="16" x="35" y="498.4424">alt</text><text fill="#000000" font-family="sans-serif" font-size="11" font-weight="bold" lengthAdjust="spacing" textLength="187" x="96" y="497.2842">[file isn't in the requested format]</text><polygon fill="#181818" points="120.5,521.9961,110.5,525.9961,120.5,529.9961,116.5,525.9961" style="stroke:#181818;stroke-width:1.0;"/><line style="stroke:#181818;stroke-width:1.0;stroke-dasharray:2.0,2.0;" x1="114.5" x2="600.5" y1="525.9961" y2="525.9961"/><text fill="#000000" font-family="sans-serif" font-size="13" font-weight="bold" lengthAdjust="spacing" textLength="7" x="126.5" y="520.7334">9</text><text fill="#000000" font-family="sans-serif" font-size="13" lengthAdjust="spacing" textLength="125" x="137.5" y="520.7334">displays operation fail</text><line style="stroke:#000000;stroke-width:1.0;stroke-dasharray:2.0,2.0;" x1="20" x2="648.5" y1="534.9961" y2="534.9961"/><text fill="#000000" font-family="sans-serif" font-size="11" font-weight="bold" lengthAdjust="spacing" textLength="66" x="25" y="546.8662">[file is valid]</text><polygon fill="#181818" points="120.5,569.918,110.5,573.918,120.5,577.918,116.5,573.918" style="stroke:#181818;stroke-width:1.0;"/><line style="stroke:#181818;stroke-width:1.0;stroke-dasharray:2.0,2.0;" x1="114.5" x2="600.5" y1="573.918" y2="573.918"/><text fill="#000000" font-family="sans-serif" font-size="13" font-weight="bold" lengthAdjust="spacing" textLength="14" x="126.5" y="568.6553">10</text><text fill="#000000" font-family="sans-serif" font-size="13" lengthAdjust="spacing" textLength="450" x="144.5" y="568.6553">registers all key information from the given file and displays operation success</text><!--SRC=[bLCxZzim3DxzAuWioGtfQxoXG86RRp4wT6HjsYOYIwues_M_BoNbdRXeCyIoJ7ulKN9WEw377dfdNTLvrnC4Fr8Xvoy3LWTigGoB8V1K1RIjkIwG3citissXGIDK5863bduNyb06vnVuzFaBxA5S950F9VqQoLO4RunjxD-LvTjBKU0Od1txd-HrNMaVR8uTt-gUBKlmgBiRG4dOXR87hdX06s3pcclJrxnCA3nXo5AA0lHtknLtaipzrvEwLmKu20G7HXc1-y5vVTZ6-Hu3EmkDXWG8Xbgi5f3CTODzue-RHzYzCYIc8put43g2CMxDQk32w6CysbD3feoFLFkXaWaQrkWZRarFwHxTM9d9Iq98mD72xWV9ntVtiYuRJJYs0WjijNwxOcVm7EK_oDxDdVwhoavzMOemQ6leH_NOuKIPd6pzrvnEvgFlhRwEnkX0Xkw_CfWz1xfgZbdVfhcQGQo0sf7OhPhvhGUqeZQGCPBFCqJZKNJB4zaB15XtZK5wL_97JkXHqJ-0Enr6NUZnt7cuu2ME7BUcViOz-ybyR9F8-uDRaL2p30ON0JUGFru4PFFW12OqNA-0U6fLMHn7rACuqF9uiUvoYnwUKCjOLIHo7g6RKNeo5dy0]--></g></svg>