<?xml version="1.0" encoding="us-ascii" standalone="no"?><svg xmlns="http://www.w3.org/2000/svg" xmlns:xlink="http://www.w3.org/1999/xlink" contentStyleType="text/css" height="572.4px" preserveAspectRatio="none" style="width:664px;height:572px;background:#FFFFFF;" version="1.1" viewBox="0 0 664 572" width="664.8px" zoomAndPan="magnify"><defs/><g><text fill="#000000" font-family="sans-serif" font-size="8.4" font-weight="bold" lengthAdjust="spacing" textLength="167.4" x="249.6" y="18.0645">User Story 007 - Sequence Diagram (SD)</text><rect fill="#FFFFFF" height="437.6355" style="stroke:#181818;stroke-width:0.6;" width="6" x="45" y="79.9453"/><rect fill="#FFFFFF" height="44.9473" style="stroke:#181818;stroke-width:0.6;" width="6" x="172.8" y="93.9199"/><rect fill="#FFFFFF" height="18.7746" style="stroke:#181818;stroke-width:0.6;" width="6" x="242.1" y="138.8672"/><rect fill="#FFFFFF" height="107.8711" style="stroke:#181818;stroke-width:0.6;" width="6" x="319.8" y="183.8145"/><rect fill="#FFFFFF" height="225.8953" style="stroke:#181818;stroke-width:0.6;" width="6" x="402.9" y="291.6855"/><rect fill="#FFFFFF" height="60.5238" style="stroke:#181818;stroke-width:0.6;" width="6" x="617.7" y="358.384"/><rect fill="none" height="189.9188" style="stroke:#000000;stroke-width:0.8999999999999999;" width="655.2" x="6" y="210.8145"/><line style="stroke:#181818;stroke-width:0.3;stroke-dasharray:5.0,5.0;" x1="48" x2="48" y1="73.9453" y2="522.9809"/><line style="stroke:#181818;stroke-width:0.3;stroke-dasharray:5.0,5.0;" x1="175.5" x2="175.5" y1="73.9453" y2="522.9809"/><line style="stroke:#181818;stroke-width:0.3;stroke-dasharray:5.0,5.0;" x1="244.8" x2="244.8" y1="117.8062" y2="522.9809"/><line style="stroke:#181818;stroke-width:0.3;stroke-dasharray:5.0,5.0;" x1="322.5" x2="322.5" y1="162.7535" y2="522.9809"/><line style="stroke:#181818;stroke-width:0.3;stroke-dasharray:5.0,5.0;" x1="405.6" x2="405.6" y1="270.6246" y2="522.9809"/><line style="stroke:#181818;stroke-width:0.3;stroke-dasharray:5.0,5.0;" x1="620.4" x2="620.4" y1="73.9453" y2="522.9809"/><text fill="#000000" font-family="sans-serif" font-size="8.4" lengthAdjust="spacing" textLength="68.4" x="12" y="71.8371">Unregistered User</text><ellipse cx="48" cy="31.8727" fill="#E2E2F0" rx="4.8" ry="4.8" style="stroke:#181818;stroke-width:0.3;"/><path d="M48,36.6727 L48,52.8727 M40.2,41.4727 L55.8,41.4727 M48,52.8727 L40.2,61.8727 M48,52.8727 L55.8,61.8727 " fill="none" style="stroke:#181818;stroke-width:0.3;"/><text fill="#000000" font-family="sans-serif" font-size="8.4" lengthAdjust="spacing" textLength="68.4" x="12" y="531.4453">Unregistered User</text><ellipse cx="48" cy="538.6535" fill="#E2E2F0" rx="4.8" ry="4.8" style="stroke:#181818;stroke-width:0.3;"/><path d="M48,543.4535 L48,559.6535 M40.2,548.2535 L55.8,548.2535 M48,559.6535 L40.2,568.6535 M48,559.6535 L55.8,568.6535 " fill="none" style="stroke:#181818;stroke-width:0.3;"/><rect fill="#E2E2F0" height="19.5727" rx="1.5" ry="1.5" style="stroke:#181818;stroke-width:0.3;" width="57" x="147.3" y="53.7727"/><text fill="#000000" font-family="sans-serif" font-size="8.4" lengthAdjust="spacing" textLength="48.6" x="151.5" y="67.0371">:MainMenuUI</text><rect fill="#E2E2F0" height="19.5727" rx="1.5" ry="1.5" style="stroke:#181818;stroke-width:0.3;" width="57" x="147.3" y="522.3809"/><text fill="#000000" font-family="sans-serif" font-size="8.4" lengthAdjust="spacing" textLength="48.6" x="151.5" y="535.6453">:MainMenuUI</text><rect fill="#E2E2F0" height="19.5727" rx="1.5" ry="1.5" style="stroke:#181818;stroke-width:0.3;" width="47.4" x="221.4" y="522.3809"/><text fill="#000000" font-family="sans-serif" font-size="8.4" lengthAdjust="spacing" textLength="39" x="225.6" y="535.6453">:MenuItem</text><rect fill="#E2E2F0" height="19.5727" rx="1.5" ry="1.5" style="stroke:#181818;stroke-width:0.3;" width="45" x="300.3" y="522.3809"/><text fill="#000000" font-family="sans-serif" font-size="8.4" lengthAdjust="spacing" textLength="36.6" x="304.5" y="535.6453">:SignUpUI</text><rect fill="#E2E2F0" height="19.5727" rx="1.5" ry="1.5" style="stroke:#181818;stroke-width:0.3;" width="75" x="368.4" y="522.3809"/><text fill="#000000" font-family="sans-serif" font-size="8.4" lengthAdjust="spacing" textLength="66.6" x="372.6" y="535.6453">:SignUpController</text><rect fill="#E2E2F0" height="19.5727" rx="1.5" ry="1.5" style="stroke:#181818;stroke-width:0.3;" width="69" x="586.2" y="53.7727"/><text fill="#000000" font-family="sans-serif" font-size="8.4" lengthAdjust="spacing" textLength="60.6" x="590.4" y="67.0371">:UserRepository</text><rect fill="#E2E2F0" height="19.5727" rx="1.5" ry="1.5" style="stroke:#181818;stroke-width:0.3;" width="69" x="586.2" y="522.3809"/><text fill="#000000" font-family="sans-serif" font-size="8.4" lengthAdjust="spacing" textLength="60.6" x="590.4" y="535.6453">:UserRepository</text><rect fill="#FFFFFF" height="437.6355" style="stroke:#181818;stroke-width:0.6;" width="6" x="45" y="79.9453"/><rect fill="#FFFFFF" height="44.9473" style="stroke:#181818;stroke-width:0.6;" width="6" x="172.8" y="93.9199"/><rect fill="#FFFFFF" height="18.7746" style="stroke:#181818;stroke-width:0.6;" width="6" x="242.1" y="138.8672"/><rect fill="#FFFFFF" height="107.8711" style="stroke:#181818;stroke-width:0.6;" width="6" x="319.8" y="183.8145"/><rect fill="#FFFFFF" height="225.8953" style="stroke:#181818;stroke-width:0.6;" width="6" x="402.9" y="291.6855"/><rect fill="#FFFFFF" height="60.5238" style="stroke:#181818;stroke-width:0.6;" width="6" x="617.7" y="358.384"/><polygon fill="#181818" points="165.6,91.5199,171.6,93.9199,165.6,96.3199,168,93.9199" style="stroke:#181818;stroke-width:0.6;"/><line style="stroke:#181818;stroke-width:0.6;" x1="51" x2="169.2" y1="93.9199" y2="93.9199"/><text fill="#000000" font-family="sans-serif" font-size="7.8" font-weight="bold" lengthAdjust="spacing" textLength="4.2" x="55.2" y="90.7623">1</text><text fill="#000000" font-family="sans-serif" font-size="7.8" lengthAdjust="spacing" textLength="103.8" x="61.8" y="90.7623">asks to register in the system</text><polygon fill="#181818" points="214.2,110.2945,220.2,112.6945,214.2,115.0945,216.6,112.6945" style="stroke:#181818;stroke-width:0.6;"/><line style="stroke:#181818;stroke-width:0.6;" x1="178.8" x2="217.8" y1="112.6945" y2="112.6945"/><text fill="#000000" font-family="sans-serif" font-size="7.8" font-weight="bold" lengthAdjust="spacing" textLength="4.2" x="183" y="109.5369">2</text><text fill="#000000" font-family="sans-serif" font-size="7.8" lengthAdjust="spacing" textLength="21.6" x="189.6" y="109.5369">create</text><rect fill="#E2E2F0" height="19.5727" rx="1.5" ry="1.5" style="stroke:#181818;stroke-width:0.3;" width="47.4" x="221.4" y="98.7199"/><text fill="#000000" font-family="sans-serif" font-size="8.4" lengthAdjust="spacing" textLength="39" x="225.6" y="111.9844">:MenuItem</text><polygon fill="#181818" points="234.9,136.4672,240.9,138.8672,234.9,141.2672,237.3,138.8672" style="stroke:#181818;stroke-width:0.6;"/><line style="stroke:#181818;stroke-width:0.6;" x1="175.8" x2="238.5" y1="138.8672" y2="138.8672"/><text fill="#000000" font-family="sans-serif" font-size="7.8" font-weight="bold" lengthAdjust="spacing" textLength="4.2" x="180" y="135.7096">3</text><text fill="#000000" font-family="sans-serif" font-size="7.8" lengthAdjust="spacing" textLength="28.8" x="186.6" y="135.7096">signUp()</text><polygon fill="#181818" points="293.1,155.2418,299.1,157.6418,293.1,160.0418,295.5,157.6418" style="stroke:#181818;stroke-width:0.6;"/><line style="stroke:#181818;stroke-width:0.6;" x1="245.1" x2="296.7" y1="157.6418" y2="157.6418"/><text fill="#000000" font-family="sans-serif" font-size="7.8" font-weight="bold" lengthAdjust="spacing" textLength="4.2" x="249.3" y="154.4842">4</text><text fill="#000000" font-family="sans-serif" font-size="7.8" lengthAdjust="spacing" textLength="15" x="255.9" y="154.4842">runs</text><rect fill="#E2E2F0" height="19.5727" rx="1.5" ry="1.5" style="stroke:#181818;stroke-width:0.3;" width="45" x="300.3" y="143.6672"/><text fill="#000000" font-family="sans-serif" font-size="8.4" lengthAdjust="spacing" textLength="36.6" x="304.5" y="156.9316">:SignUpUI</text><polygon fill="#181818" points="57.6,181.4145,51.6,183.8145,57.6,186.2145,55.2,183.8145" style="stroke:#181818;stroke-width:0.6;"/><line style="stroke:#181818;stroke-width:0.6;stroke-dasharray:2.0,2.0;" x1="54" x2="319.2" y1="183.8145" y2="183.8145"/><text fill="#000000" font-family="sans-serif" font-size="7.8" font-weight="bold" lengthAdjust="spacing" textLength="4.2" x="61.2" y="180.6568">5</text><text fill="#000000" font-family="sans-serif" font-size="7.8" lengthAdjust="spacing" textLength="85.8" x="67.8" y="180.6568">requests necessary data</text><path d="M6,210.8145 L49.8,210.8145 L49.8,216.3891 L43.8,222.3891 L6,222.3891 L6,210.8145 " fill="#EEEEEE" style="stroke:#000000;stroke-width:0.8999999999999999;"/><rect fill="none" height="189.9188" style="stroke:#000000;stroke-width:0.8999999999999999;" width="655.2" x="6" y="210.8145"/><text fill="#000000" font-family="sans-serif" font-size="7.8" font-weight="bold" lengthAdjust="spacing" textLength="16.8" x="15" y="219.8314">loop</text><text fill="#000000" font-family="sans-serif" font-size="6.6" font-weight="bold" lengthAdjust="spacing" textLength="25.8" x="58.8" y="219.1365">[invalid]</text><polygon fill="#181818" points="312.6,244.3383,318.6,246.7383,312.6,249.1383,315,246.7383" style="stroke:#181818;stroke-width:0.6;"/><line style="stroke:#181818;stroke-width:0.6;" x1="51" x2="316.2" y1="246.7383" y2="246.7383"/><text fill="#000000" font-family="sans-serif" font-size="7.8" font-weight="bold" lengthAdjust="spacing" textLength="4.2" x="55.2" y="238.3934">6</text><text fill="#000000" font-family="sans-serif" font-size="7.8" lengthAdjust="spacing" textLength="235.8" x="61.8" y="233.2061">types needed information (name, citizen's card number, tax number,</text><text fill="#000000" font-family="sans-serif" font-size="7.8" lengthAdjust="spacing" textLength="247.8" x="61.8" y="243.5807">email and contact telephone number) and optional information (address)</text><polygon fill="#181818" points="361.2,263.1129,367.2,265.5129,361.2,267.9129,363.6,265.5129" style="stroke:#181818;stroke-width:0.6;"/><line style="stroke:#181818;stroke-width:0.6;" x1="325.8" x2="364.8" y1="265.5129" y2="265.5129"/><text fill="#000000" font-family="sans-serif" font-size="7.8" font-weight="bold" lengthAdjust="spacing" textLength="4.2" x="330" y="262.3553">7</text><text fill="#000000" font-family="sans-serif" font-size="7.8" lengthAdjust="spacing" textLength="21.6" x="336.6" y="262.3553">create</text><rect fill="#E2E2F0" height="19.5727" rx="1.5" ry="1.5" style="stroke:#181818;stroke-width:0.3;" width="75" x="368.4" y="251.5383"/><text fill="#000000" font-family="sans-serif" font-size="8.4" lengthAdjust="spacing" textLength="66.6" x="372.6" y="264.8027">:SignUpController</text><polygon fill="#181818" points="395.7,289.2855,401.7,291.6855,395.7,294.0855,398.1,291.6855" style="stroke:#181818;stroke-width:0.6;"/><line style="stroke:#181818;stroke-width:0.6;" x1="322.8" x2="399.3" y1="291.6855" y2="291.6855"/><text fill="#000000" font-family="sans-serif" font-size="7.8" font-weight="bold" lengthAdjust="spacing" textLength="4.2" x="327" y="288.5279">8</text><text fill="#000000" font-family="sans-serif" font-size="7.8" lengthAdjust="spacing" textLength="15" x="333.6" y="288.5279">runs</text><polygon fill="#181818" points="57.6,308.0602,51.6,310.4602,57.6,312.8602,55.2,310.4602" style="stroke:#181818;stroke-width:0.6;"/><line style="stroke:#181818;stroke-width:0.6;stroke-dasharray:2.0,2.0;" x1="54" x2="402.3" y1="310.4602" y2="310.4602"/><text fill="#000000" font-family="sans-serif" font-size="7.8" font-weight="bold" lengthAdjust="spacing" textLength="4.2" x="61.2" y="307.3025">9</text><text fill="#000000" font-family="sans-serif" font-size="7.8" lengthAdjust="spacing" textLength="76.2" x="67.8" y="307.3025">shows requested data</text><polygon fill="#181818" points="395.7,326.8348,401.7,329.2348,395.7,331.6348,398.1,329.2348" style="stroke:#181818;stroke-width:0.6;"/><line style="stroke:#181818;stroke-width:0.6;" x1="51" x2="399.3" y1="329.2348" y2="329.2348"/><text fill="#000000" font-family="sans-serif" font-size="7.8" font-weight="bold" lengthAdjust="spacing" textLength="8.4" x="55.2" y="326.0771">10</text><text fill="#000000" font-family="sans-serif" font-size="7.8" lengthAdjust="spacing" textLength="45" x="66" y="326.0771">submits data</text><polygon fill="#181818" points="610.5,355.984,616.5,358.384,610.5,360.784,612.9,358.384" style="stroke:#181818;stroke-width:0.6;"/><line style="stroke:#181818;stroke-width:0.6;" x1="408.9" x2="614.1" y1="358.384" y2="358.384"/><text fill="#000000" font-family="sans-serif" font-size="7.8" font-weight="bold" lengthAdjust="spacing" textLength="8.4" x="413.1" y="350.0391">11</text><text fill="#000000" font-family="sans-serif" font-size="7.8" lengthAdjust="spacing" textLength="180" x="423.9" y="344.8518">verifyData(name, citizen's card number, tax number,</text><text fill="#000000" font-family="sans-serif" font-size="7.8" lengthAdjust="spacing" textLength="178.2" x="423.9" y="355.2264">email and contact telephone number (and address))</text><polygon fill="#181818" points="415.5,374.7586,409.5,377.1586,415.5,379.5586,413.1,377.1586" style="stroke:#181818;stroke-width:0.6;"/><line style="stroke:#181818;stroke-width:0.6;stroke-dasharray:2.0,2.0;" x1="411.9" x2="617.1" y1="377.1586" y2="377.1586"/><text fill="#000000" font-family="sans-serif" font-size="7.8" font-weight="bold" lengthAdjust="spacing" textLength="8.4" x="419.1" y="374.001">12</text><text fill="#000000" font-family="sans-serif" font-size="7.8" lengthAdjust="spacing" textLength="79.8" x="429.9" y="374.001">operation unsuccessful</text><polygon fill="#181818" points="57.6,393.5332,51.6,395.9332,57.6,398.3332,55.2,395.9332" style="stroke:#181818;stroke-width:0.6;"/><line style="stroke:#181818;stroke-width:0.6;stroke-dasharray:2.0,2.0;" x1="54" x2="402.3" y1="395.9332" y2="395.9332"/><text fill="#000000" font-family="sans-serif" font-size="7.8" font-weight="bold" lengthAdjust="spacing" textLength="8.4" x="61.2" y="392.7756">13</text><text fill="#000000" font-family="sans-serif" font-size="7.8" lengthAdjust="spacing" textLength="114.6" x="72" y="392.7756">operation unsuccessful, try again</text><polygon fill="#181818" points="415.5,416.5078,409.5,418.9078,415.5,421.3078,413.1,418.9078" style="stroke:#181818;stroke-width:0.6;"/><line style="stroke:#181818;stroke-width:0.6;stroke-dasharray:2.0,2.0;" x1="411.9" x2="620.1" y1="418.9078" y2="418.9078"/><text fill="#000000" font-family="sans-serif" font-size="7.8" font-weight="bold" lengthAdjust="spacing" textLength="8.4" x="419.1" y="415.7502">14</text><text fill="#000000" font-family="sans-serif" font-size="7.8" lengthAdjust="spacing" textLength="71.4" x="429.9" y="415.7502">operation successful</text><polygon fill="#181818" points="57.6,435.2824,51.6,437.6824,57.6,440.0824,55.2,437.6824" style="stroke:#181818;stroke-width:0.6;"/><line style="stroke:#181818;stroke-width:0.6;stroke-dasharray:2.0,2.0;" x1="54" x2="402.3" y1="437.6824" y2="437.6824"/><text fill="#000000" font-family="sans-serif" font-size="7.8" font-weight="bold" lengthAdjust="spacing" textLength="8.4" x="61.2" y="434.5248">15</text><text fill="#000000" font-family="sans-serif" font-size="7.8" lengthAdjust="spacing" textLength="71.4" x="72" y="434.5248">operation successful</text><line style="stroke:#181818;stroke-width:0.6;" x1="408.9" x2="434.1" y1="456.457" y2="456.457"/><line style="stroke:#181818;stroke-width:0.6;" x1="434.1" x2="434.1" y1="456.457" y2="464.257"/><line style="stroke:#181818;stroke-width:0.6;" x1="409.5" x2="434.1" y1="464.257" y2="464.257"/><polygon fill="#181818" points="415.5,461.857,409.5,464.257,415.5,466.657,413.1,464.257" style="stroke:#181818;stroke-width:0.6;"/><text fill="#000000" font-family="sans-serif" font-size="7.8" font-weight="bold" lengthAdjust="spacing" textLength="8.4" x="413.1" y="453.2994">16</text><text fill="#000000" font-family="sans-serif" font-size="7.8" lengthAdjust="spacing" textLength="69" x="423.9" y="453.2994">generatePassword()</text><polygon fill="#181818" points="613.5,491.0062,619.5,493.4063,613.5,495.8063,615.9,493.4063" style="stroke:#181818;stroke-width:0.6;"/><line style="stroke:#181818;stroke-width:0.6;" x1="408.9" x2="617.1" y1="493.4063" y2="493.4063"/><text fill="#000000" font-family="sans-serif" font-size="7.8" font-weight="bold" lengthAdjust="spacing" textLength="8.4" x="413.1" y="485.0613">17</text><text fill="#000000" font-family="sans-serif" font-size="7.8" lengthAdjust="spacing" textLength="184.2" x="423.9" y="479.874">createUser(name, citizen's card number, tax number,</text><text fill="#000000" font-family="sans-serif" font-size="7.8" lengthAdjust="spacing" textLength="178.2" x="423.9" y="490.2486">email and contact telephone number (and address))</text><polygon fill="#181818" points="57.6,509.7809,51.6,512.1809,57.6,514.5809,55.2,512.1809" style="stroke:#181818;stroke-width:0.6;"/><line style="stroke:#181818;stroke-width:0.6;stroke-dasharray:2.0,2.0;" x1="54" x2="402.3" y1="512.1809" y2="512.1809"/><text fill="#000000" font-family="sans-serif" font-size="7.8" font-weight="bold" lengthAdjust="spacing" textLength="8.4" x="61.2" y="509.0232">18</text><text fill="#000000" font-family="sans-serif" font-size="7.8" lengthAdjust="spacing" textLength="112.2" x="72" y="509.0232">sendPassword(email, password)</text><!--SRC=[jLJ1Zjf03BtFLrXSIbOWxQqI1oxB1QahLKkvzUBDc30YyQJZ2PH-VPq92IbGxQMzpSJFptxFdiZ1SOq1AwWnFs11ctWk2GBb4RaeoSW0a3rQVt9Sm0vB8MEYYmhT2WNOH1_EyFpy6UQmeHyDSKwmSbYqYTFDAZC6c-YvgTufw3bNF4os7AXm4YcGJJmJG4a7eoMZorsD766oU4N7hyJDTfqGEnSaRjUt80Mi8rK9qbvkuXjNyBQ-K0ZbdkqTHuTvyHo3ByjBGo_VthxSuDeUtwZsubhX2NMz9dtkYB4pnvXaqNpPzmqBnHy4eeTUFpY6k2UGizwgQtwlrFIfoj9AUtfIaZoGOcv36f2aOfePItTCmuVaa4aPcjdxaOX3mpBExQ2cny1S4v8cXRR3bYZ0b9C8wXPOZ7WjCnZze1TJUb-hz2EMpbvj6kei89vhQhd9weOutlbGONIUOSfOqGno5zqluay2EGOBtNxD8EBFuVoTgK9N0h85vOtQ1KGggTvxfWigIr5VjzHO_ba8hGsgB1l9NwQL6C_WDlR0nC68uKlQAsCIVcIfxFr9UcDLTl9pCEV2BirxvTJsBjXHB4Sxg90Z1RSxhnJmRyrIIpJQsv9TzOnVmAYJ-RLhNrFeR5LpchpTc5rJtZdm6AQTAXiM-YymXjX-N6HKOZI8KPj_BpnA7Tozy1V4BOg-eiZ91wllxF40kjregV_l0EutIDqPkajyC_szT_VC_0O0]--></g></svg>