<?xml version="1.0" encoding="us-ascii" standalone="no"?><svg xmlns="http://www.w3.org/2000/svg" xmlns:xlink="http://www.w3.org/1999/xlink" contentStyleType="text/css" height="925px" preserveAspectRatio="none" style="width:620px;height:925px;background:#FFFFFF;" version="1.1" viewBox="0 0 620 925" width="620px" zoomAndPan="magnify"><defs/><g><text fill="#000000" font-family="sans-serif" font-size="14" font-weight="bold" lengthAdjust="spacing" textLength="342" x="140" y="30.1074">User Story 002 - System Sequence Diagram (SSD)</text><rect fill="#FFFFFF" height="699.0332" style="stroke:#181818;stroke-width:1.0;" width="10" x="95" y="133.2422"/><rect fill="#FFFFFF" height="31.291" style="stroke:#181818;stroke-width:1.0;" width="10" x="546" y="156.5332"/><rect fill="#FFFFFF" height="31.291" style="stroke:#181818;stroke-width:1.0;" width="10" x="546" y="219.1152"/><rect fill="#FFFFFF" height="211.668" style="stroke:#181818;stroke-width:1.0;" width="10" x="546" y="281.6973"/><rect fill="#FFFFFF" height="127.1641" style="stroke:#181818;stroke-width:1.0;" width="10" x="546" y="524.6563"/><rect fill="#FFFFFF" height="150.1641" style="stroke:#181818;stroke-width:1.0;" width="10" x="546" y="683.1113"/><rect fill="none" height="528.5781" style="stroke:#000000;stroke-width:1.5;" width="603" x="10" y="296.6973"/><rect fill="none" height="398.7832" style="stroke:#000000;stroke-width:1.5;" width="583" x="20" y="419.4922"/><rect fill="none" height="81.873" style="stroke:#000000;stroke-width:1.5;" width="563" x="30" y="539.6563"/><rect fill="none" height="81.873" style="stroke:#000000;stroke-width:1.5;" width="563" x="30" y="698.1113"/><line style="stroke:#181818;stroke-width:0.5;stroke-dasharray:5.0,5.0;" x1="100" x2="100" y1="123.2422" y2="842.2754"/><line style="stroke:#181818;stroke-width:0.5;stroke-dasharray:5.0,5.0;" x1="551" x2="551" y1="123.2422" y2="842.2754"/><text fill="#000000" font-family="sans-serif" font-size="14" lengthAdjust="spacing" textLength="114" x="40" y="119.7285">Real Estate Agent</text><ellipse cx="100" cy="53.1211" fill="#E3E3E3" rx="8" ry="8" style="stroke:#181818;stroke-width:0.5;"/><path d="M100,61.1211 L100,88.1211 M87,69.1211 L113,69.1211 M100,88.1211 L87,103.1211 M100,88.1211 L113,103.1211 " fill="none" style="stroke:#181818;stroke-width:0.5;"/><text fill="#000000" font-family="sans-serif" font-size="14" lengthAdjust="spacing" textLength="114" x="40" y="856.3828">Real Estate Agent</text><ellipse cx="100" cy="868.3965" fill="#E3E3E3" rx="8" ry="8" style="stroke:#181818;stroke-width:0.5;"/><path d="M100,876.3965 L100,903.3965 M87,884.3965 L113,884.3965 M100,903.3965 L87,918.3965 M100,903.3965 L113,918.3965 " fill="none" style="stroke:#181818;stroke-width:0.5;"/><rect fill="#E3E3E3" height="32.6211" rx="2.5" ry="2.5" style="stroke:#181818;stroke-width:0.5;" width="64" x="519" y="89.6211"/><text fill="#000000" font-family="sans-serif" font-size="14" lengthAdjust="spacing" textLength="50" x="526" y="111.7285">:System</text><rect fill="#E3E3E3" height="32.6211" rx="2.5" ry="2.5" style="stroke:#181818;stroke-width:0.5;" width="64" x="519" y="841.2754"/><text fill="#000000" font-family="sans-serif" font-size="14" lengthAdjust="spacing" textLength="50" x="526" y="863.3828">:System</text><rect fill="#FFFFFF" height="699.0332" style="stroke:#181818;stroke-width:1.0;" width="10" x="95" y="133.2422"/><rect fill="#FFFFFF" height="31.291" style="stroke:#181818;stroke-width:1.0;" width="10" x="546" y="156.5332"/><rect fill="#FFFFFF" height="31.291" style="stroke:#181818;stroke-width:1.0;" width="10" x="546" y="219.1152"/><rect fill="#FFFFFF" height="211.668" style="stroke:#181818;stroke-width:1.0;" width="10" x="546" y="281.6973"/><rect fill="#FFFFFF" height="127.1641" style="stroke:#181818;stroke-width:1.0;" width="10" x="546" y="524.6563"/><rect fill="#FFFFFF" height="150.1641" style="stroke:#181818;stroke-width:1.0;" width="10" x="546" y="683.1113"/><polygon fill="#181818" points="534,152.5332,544,156.5332,534,160.5332,538,156.5332" style="stroke:#181818;stroke-width:1.0;"/><line style="stroke:#181818;stroke-width:1.0;" x1="105" x2="540" y1="156.5332" y2="156.5332"/><text fill="#000000" font-family="sans-serif" font-size="13" font-weight="bold" lengthAdjust="spacing" textLength="7" x="112" y="151.2705">1</text><text fill="#000000" font-family="sans-serif" font-size="13" lengthAdjust="spacing" textLength="186" x="123" y="151.2705">asks to list registered properties</text><polygon fill="#181818" points="116,183.8242,106,187.8242,116,191.8242,112,187.8242" style="stroke:#181818;stroke-width:1.0;"/><line style="stroke:#181818;stroke-width:1.0;stroke-dasharray:2.0,2.0;" x1="110" x2="550" y1="187.8242" y2="187.8242"/><text fill="#000000" font-family="sans-serif" font-size="13" font-weight="bold" lengthAdjust="spacing" textLength="7" x="122" y="182.5615">2</text><text fill="#000000" font-family="sans-serif" font-size="13" lengthAdjust="spacing" textLength="341" x="133" y="182.5615">asks if the user only wants to see 'for rent', 'for sale' or both</text><polygon fill="#181818" points="534,215.1152,544,219.1152,534,223.1152,538,219.1152" style="stroke:#181818;stroke-width:1.0;"/><line style="stroke:#181818;stroke-width:1.0;" x1="105" x2="540" y1="219.1152" y2="219.1152"/><text fill="#000000" font-family="sans-serif" font-size="13" font-weight="bold" lengthAdjust="spacing" textLength="7" x="112" y="213.8525">3</text><text fill="#000000" font-family="sans-serif" font-size="13" lengthAdjust="spacing" textLength="123" x="123" y="213.8525">answers the question</text><polygon fill="#181818" points="116,246.4063,106,250.4063,116,254.4063,112,250.4063" style="stroke:#181818;stroke-width:1.0;"/><line style="stroke:#181818;stroke-width:1.0;stroke-dasharray:2.0,2.0;" x1="110" x2="550" y1="250.4063" y2="250.4063"/><text fill="#000000" font-family="sans-serif" font-size="13" font-weight="bold" lengthAdjust="spacing" textLength="7" x="122" y="245.1436">4</text><text fill="#000000" font-family="sans-serif" font-size="13" lengthAdjust="spacing" textLength="406" x="133" y="245.1436">asks if they only want to see lands, apartments, houses or all of those</text><polygon fill="#181818" points="534,277.6973,544,281.6973,534,285.6973,538,281.6973" style="stroke:#181818;stroke-width:1.0;"/><line style="stroke:#181818;stroke-width:1.0;" x1="105" x2="540" y1="281.6973" y2="281.6973"/><text fill="#000000" font-family="sans-serif" font-size="13" font-weight="bold" lengthAdjust="spacing" textLength="7" x="112" y="276.4346">5</text><text fill="#000000" font-family="sans-serif" font-size="13" lengthAdjust="spacing" textLength="123" x="123" y="276.4346">answers the question</text><path d="M10,296.6973 L71,296.6973 L71,305.9883 L61,315.9883 L10,315.9883 L10,296.6973 " fill="#EEEEEE" style="stroke:#000000;stroke-width:1.5;"/><rect fill="none" height="528.5781" style="stroke:#000000;stroke-width:1.5;" width="603" x="10" y="296.6973"/><text fill="#000000" font-family="sans-serif" font-size="13" font-weight="bold" lengthAdjust="spacing" textLength="16" x="25" y="311.7256">alt</text><text fill="#000000" font-family="sans-serif" font-size="11" font-weight="bold" lengthAdjust="spacing" textLength="310" x="86" y="310.5674">[there aren't any requests with the given specifications]</text><polygon fill="#181818" points="116,352.5703,106,356.5703,116,360.5703,112,356.5703" style="stroke:#181818;stroke-width:1.0;"/><line style="stroke:#181818;stroke-width:1.0;stroke-dasharray:2.0,2.0;" x1="110" x2="545" y1="356.5703" y2="356.5703"/><text fill="#000000" font-family="sans-serif" font-size="13" font-weight="bold" lengthAdjust="spacing" textLength="7" x="122" y="342.6621">6</text><text fill="#000000" font-family="sans-serif" font-size="13" lengthAdjust="spacing" textLength="255" x="133" y="334.0166">shows message saying that there aren't any</text><text fill="#000000" font-family="sans-serif" font-size="13" lengthAdjust="spacing" textLength="243" x="133" y="351.3076">requests that meet the given requirements</text><line style="stroke:#000000;stroke-width:1.0;stroke-dasharray:2.0,2.0;" x1="10" x2="613" y1="365.5703" y2="365.5703"/><text fill="#000000" font-family="sans-serif" font-size="11" font-weight="bold" lengthAdjust="spacing" textLength="59" x="15" y="377.4404">[there are]</text><polygon fill="#181818" points="116,400.4922,106,404.4922,116,408.4922,112,404.4922" style="stroke:#181818;stroke-width:1.0;"/><line style="stroke:#181818;stroke-width:1.0;stroke-dasharray:2.0,2.0;" x1="110" x2="545" y1="404.4922" y2="404.4922"/><text fill="#000000" font-family="sans-serif" font-size="13" font-weight="bold" lengthAdjust="spacing" textLength="7" x="122" y="399.2295">7</text><text fill="#000000" font-family="sans-serif" font-size="13" lengthAdjust="spacing" textLength="308" x="133" y="399.2295">shows all property requests done to the current agent</text><path d="M20,419.4922 L93,419.4922 L93,428.7832 L83,438.7832 L20,438.7832 L20,419.4922 " fill="#EEEEEE" style="stroke:#000000;stroke-width:1.5;"/><rect fill="none" height="398.7832" style="stroke:#000000;stroke-width:1.5;" width="583" x="20" y="419.4922"/><text fill="#000000" font-family="sans-serif" font-size="13" font-weight="bold" lengthAdjust="spacing" textLength="28" x="35" y="434.5205">loop</text><text fill="#000000" font-family="sans-serif" font-size="11" font-weight="bold" lengthAdjust="spacing" textLength="197" x="108" y="433.3623">[while there are property requests]</text><polygon fill="#181818" points="534,458.0742,544,462.0742,534,466.0742,538,462.0742" style="stroke:#181818;stroke-width:1.0;"/><line style="stroke:#181818;stroke-width:1.0;" x1="105" x2="540" y1="462.0742" y2="462.0742"/><text fill="#000000" font-family="sans-serif" font-size="13" font-weight="bold" lengthAdjust="spacing" textLength="7" x="112" y="456.8115">8</text><text fill="#000000" font-family="sans-serif" font-size="13" lengthAdjust="spacing" textLength="215" x="123" y="456.8115">selects a property to set commission</text><polygon fill="#181818" points="116,489.3652,106,493.3652,116,497.3652,112,493.3652" style="stroke:#181818;stroke-width:1.0;"/><line style="stroke:#181818;stroke-width:1.0;stroke-dasharray:2.0,2.0;" x1="110" x2="550" y1="493.3652" y2="493.3652"/><text fill="#000000" font-family="sans-serif" font-size="13" font-weight="bold" lengthAdjust="spacing" textLength="7" x="122" y="488.1025">9</text><text fill="#000000" font-family="sans-serif" font-size="13" lengthAdjust="spacing" textLength="359" x="133" y="488.1025">asks if there is an agreement on the current commission value</text><polygon fill="#181818" points="534,520.6563,544,524.6563,534,528.6563,538,524.6563" style="stroke:#181818;stroke-width:1.0;"/><line style="stroke:#181818;stroke-width:1.0;" x1="105" x2="540" y1="524.6563" y2="524.6563"/><text fill="#000000" font-family="sans-serif" font-size="13" font-weight="bold" lengthAdjust="spacing" textLength="14" x="112" y="519.3936">10</text><text fill="#000000" font-family="sans-serif" font-size="13" lengthAdjust="spacing" textLength="123" x="130" y="519.3936">answers the question</text><path d="M30,539.6563 L91,539.6563 L91,548.9473 L81,558.9473 L30,558.9473 L30,539.6563 " fill="#EEEEEE" style="stroke:#000000;stroke-width:1.5;"/><rect fill="none" height="81.873" style="stroke:#000000;stroke-width:1.5;" width="563" x="30" y="539.6563"/><text fill="#000000" font-family="sans-serif" font-size="13" font-weight="bold" lengthAdjust="spacing" textLength="16" x="45" y="554.6846">alt</text><text fill="#000000" font-family="sans-serif" font-size="11" font-weight="bold" lengthAdjust="spacing" textLength="111" x="106" y="553.5264">[if the answer is no]</text><polygon fill="#181818" points="116,578.2383,106,582.2383,116,586.2383,112,582.2383" style="stroke:#181818;stroke-width:1.0;"/><line style="stroke:#181818;stroke-width:1.0;stroke-dasharray:2.0,2.0;" x1="110" x2="545" y1="582.2383" y2="582.2383"/><text fill="#000000" font-family="sans-serif" font-size="13" font-weight="bold" lengthAdjust="spacing" textLength="14" x="122" y="576.9756">11</text><text fill="#000000" font-family="sans-serif" font-size="13" lengthAdjust="spacing" textLength="277" x="140" y="576.9756">requests new commission value (% or flat value)</text><polygon fill="#181818" points="534,609.5293,544,613.5293,534,617.5293,538,613.5293" style="stroke:#181818;stroke-width:1.0;"/><line style="stroke:#181818;stroke-width:1.0;" x1="105" x2="540" y1="613.5293" y2="613.5293"/><text fill="#000000" font-family="sans-serif" font-size="13" font-weight="bold" lengthAdjust="spacing" textLength="14" x="112" y="608.2666">12</text><text fill="#000000" font-family="sans-serif" font-size="13" lengthAdjust="spacing" textLength="173" x="130" y="608.2666">inserts new commission value</text><polygon fill="#181818" points="116,647.8203,106,651.8203,116,655.8203,112,651.8203" style="stroke:#181818;stroke-width:1.0;"/><line style="stroke:#181818;stroke-width:1.0;stroke-dasharray:2.0,2.0;" x1="110" x2="550" y1="651.8203" y2="651.8203"/><text fill="#000000" font-family="sans-serif" font-size="13" font-weight="bold" lengthAdjust="spacing" textLength="14" x="122" y="646.5576">13</text><text fill="#000000" font-family="sans-serif" font-size="13" lengthAdjust="spacing" textLength="267" x="140" y="646.5576">asks if there is an agreement on the final price</text><polygon fill="#181818" points="534,679.1113,544,683.1113,534,687.1113,538,683.1113" style="stroke:#181818;stroke-width:1.0;"/><line style="stroke:#181818;stroke-width:1.0;" x1="105" x2="540" y1="683.1113" y2="683.1113"/><text fill="#000000" font-family="sans-serif" font-size="13" font-weight="bold" lengthAdjust="spacing" textLength="14" x="112" y="677.8486">14</text><text fill="#000000" font-family="sans-serif" font-size="13" lengthAdjust="spacing" textLength="123" x="130" y="677.8486">answers the question</text><path d="M30,698.1113 L91,698.1113 L91,707.4023 L81,717.4023 L30,717.4023 L30,698.1113 " fill="#EEEEEE" style="stroke:#000000;stroke-width:1.5;"/><rect fill="none" height="81.873" style="stroke:#000000;stroke-width:1.5;" width="563" x="30" y="698.1113"/><text fill="#000000" font-family="sans-serif" font-size="13" font-weight="bold" lengthAdjust="spacing" textLength="16" x="45" y="713.1396">alt</text><text fill="#000000" font-family="sans-serif" font-size="11" font-weight="bold" lengthAdjust="spacing" textLength="111" x="106" y="711.9814">[if the answer is no]</text><polygon fill="#181818" points="116,736.6934,106,740.6934,116,744.6934,112,740.6934" style="stroke:#181818;stroke-width:1.0;"/><line style="stroke:#181818;stroke-width:1.0;stroke-dasharray:2.0,2.0;" x1="110" x2="545" y1="740.6934" y2="740.6934"/><text fill="#000000" font-family="sans-serif" font-size="13" font-weight="bold" lengthAdjust="spacing" textLength="14" x="122" y="735.4307">15</text><text fill="#000000" font-family="sans-serif" font-size="13" lengthAdjust="spacing" textLength="187" x="140" y="735.4307">requests new final property price</text><polygon fill="#181818" points="534,767.9844,544,771.9844,534,775.9844,538,771.9844" style="stroke:#181818;stroke-width:1.0;"/><line style="stroke:#181818;stroke-width:1.0;" x1="105" x2="540" y1="771.9844" y2="771.9844"/><text fill="#000000" font-family="sans-serif" font-size="13" font-weight="bold" lengthAdjust="spacing" textLength="14" x="112" y="766.7217">16</text><text fill="#000000" font-family="sans-serif" font-size="13" lengthAdjust="spacing" textLength="176" x="130" y="766.7217">inserts new final property price</text><polygon fill="#181818" points="116,806.2754,106,810.2754,116,814.2754,112,810.2754" style="stroke:#181818;stroke-width:1.0;"/><line style="stroke:#181818;stroke-width:1.0;stroke-dasharray:2.0,2.0;" x1="110" x2="545" y1="810.2754" y2="810.2754"/><text fill="#000000" font-family="sans-serif" font-size="13" font-weight="bold" lengthAdjust="spacing" textLength="14" x="122" y="805.0127">17</text><text fill="#000000" font-family="sans-serif" font-size="13" lengthAdjust="spacing" textLength="158" x="140" y="805.0127">displays operation success</text><!--SRC=[rLLDYzim4BtxLmo1abtOmDBZ7Wg5xH-ewQsNMNbiYyYIgnd7-DztfCJvM2SRAEsXlaX8cZVlpJp9lBM-nuWTTC47qyRG4KWSgE3ZJezcYmsLCZc2I4RGD-xy0BTOXT7w1cfqJ4KXLlJe3wO8fOGumVFpPzX0ER5G1oNz6iWRWbUBJOf_AClNnwB0GO8VkZUAEZSQ1wllX0w-iQ0GV6t8omgGCt2XgSKQswCNMBtieVFkVbeK1UYdE7QNedDCMiciDbzcCYyQicMG0CwogBn61ufKGHz3Jvg3-19fna-B1v2DucNS0vgjGLg28Iq5xoOObMLEmaImhbLQL37hf_sSqT4QTF8MfCsu5LrDj-JkUQJ8EPiMbSK6_uTifnFJcQX3N_4JO2frftnrtWOLnOahEWSXHGRj-B_ZZ4xIoKY0MhArQFYanSk13AELDWCrTaSUk2TZQsimOUxRTbqtjs5aw8XPZQtrdv9vfSLbhf_-c2plTqHobZ5jsaYvEZaVwGKuWTobaAfuCDgPh2fuIar8USmGarS0a_sFU2w47iRMkhDaIw3ZyQkDO79wcPN3AJ0tNi24hhFCSsDkYpZpZ-QtYkMLQAHS43NKXO8JAkpG3NI1lNJFXznlccZ-Fa9BdZfSqJrEOkx3nPdhUeyTyZGkzC33ftGnQgSsoGkF2yI53kjrvGRUHJJvwc_qehOUa-Ei-U_BFqivM7UfwMx1xoBSBtfbkNSuwOke6FdP0HwCqOUbU0-InlSFPVuh_GO0]--></g></svg>