<?xml version="1.0" encoding="us-ascii" standalone="no"?><svg xmlns="http://www.w3.org/2000/svg" xmlns:xlink="http://www.w3.org/1999/xlink" contentStyleType="text/css" height="522.4px" preserveAspectRatio="none" style="width:412px;height:522px;background:#FFFFFF;" version="1.1" viewBox="0 0 412 522" width="412px" zoomAndPan="magnify"><defs/><g><text fill="#000000" font-family="sans-serif" font-size="11.2" font-weight="bold" lengthAdjust="spacing" textLength="273.6" x="68.4" y="24.0859">User Story 009 - System Sequence Diagram (SSD)</text><rect fill="#FFFFFF" height="342.6922" style="stroke:#181818;stroke-width:0.8000000000000002;" width="8" x="16.8" y="106.5938"/><rect fill="#FFFFFF" height="25.0328" style="stroke:#181818;stroke-width:0.8000000000000002;" width="8" x="377.6" y="125.2266"/><rect fill="#FFFFFF" height="25.0328" style="stroke:#181818;stroke-width:0.8000000000000002;" width="8" x="377.6" y="175.2922"/><rect fill="#FFFFFF" height="38.8656" style="stroke:#181818;stroke-width:0.8000000000000002;" width="8" x="377.6" y="225.3578"/><rect fill="#FFFFFF" height="25.0328" style="stroke:#181818;stroke-width:0.8000000000000002;" width="8" x="377.6" y="289.2563"/><rect fill="#FFFFFF" height="38.8656" style="stroke:#181818;stroke-width:0.8000000000000002;" width="8" x="377.6" y="339.3219"/><rect fill="#FFFFFF" height="25.0328" style="stroke:#181818;stroke-width:0.8000000000000002;" width="8" x="377.6" y="417.0531"/><line style="stroke:#181818;stroke-width:0.4000000000000001;stroke-dasharray:5.0,5.0;" x1="20.8" x2="20.8" y1="98.5938" y2="456.4859"/><line style="stroke:#181818;stroke-width:0.4000000000000001;stroke-dasharray:5.0,5.0;" x1="381.6" x2="381.6" y1="98.5938" y2="456.4859"/><text fill="#000000" font-family="sans-serif" font-size="11.2" lengthAdjust="spacing" textLength="28.8" x="4" y="95.7828">Client</text><ellipse cx="20.8" cy="42.4969" fill="#E3E3E3" rx="6.4" ry="6.4" style="stroke:#181818;stroke-width:0.4000000000000001;"/><path d="M20.8,48.8969 L20.8,70.4969 M10.4,55.2969 L31.2,55.2969 M20.8,70.4969 L10.4,82.4969 M20.8,70.4969 L31.2,82.4969 " fill="none" style="stroke:#181818;stroke-width:0.4000000000000001;"/><text fill="#000000" font-family="sans-serif" font-size="11.2" lengthAdjust="spacing" textLength="28.8" x="4" y="467.7719">Client</text><ellipse cx="20.8" cy="477.3828" fill="#E3E3E3" rx="6.4" ry="6.4" style="stroke:#181818;stroke-width:0.4000000000000001;"/><path d="M20.8,483.7828 L20.8,505.3828 M10.4,490.1828 L31.2,490.1828 M20.8,505.3828 L10.4,517.3828 M20.8,505.3828 L31.2,517.3828 " fill="none" style="stroke:#181818;stroke-width:0.4000000000000001;"/><rect fill="#E3E3E3" height="26.0969" rx="2" ry="2" style="stroke:#181818;stroke-width:0.4000000000000001;" width="51.2" x="356" y="71.6969"/><text fill="#000000" font-family="sans-serif" font-size="11.2" lengthAdjust="spacing" textLength="40" x="361.6" y="89.3828">:System</text><rect fill="#E3E3E3" height="26.0969" rx="2" ry="2" style="stroke:#181818;stroke-width:0.4000000000000001;" width="51.2" x="356" y="455.6859"/><text fill="#000000" font-family="sans-serif" font-size="11.2" lengthAdjust="spacing" textLength="40" x="361.6" y="473.3719">:System</text><rect fill="#FFFFFF" height="342.6922" style="stroke:#181818;stroke-width:0.8000000000000002;" width="8" x="16.8" y="106.5938"/><rect fill="#FFFFFF" height="25.0328" style="stroke:#181818;stroke-width:0.8000000000000002;" width="8" x="377.6" y="125.2266"/><rect fill="#FFFFFF" height="25.0328" style="stroke:#181818;stroke-width:0.8000000000000002;" width="8" x="377.6" y="175.2922"/><rect fill="#FFFFFF" height="38.8656" style="stroke:#181818;stroke-width:0.8000000000000002;" width="8" x="377.6" y="225.3578"/><rect fill="#FFFFFF" height="25.0328" style="stroke:#181818;stroke-width:0.8000000000000002;" width="8" x="377.6" y="289.2563"/><rect fill="#FFFFFF" height="38.8656" style="stroke:#181818;stroke-width:0.8000000000000002;" width="8" x="377.6" y="339.3219"/><rect fill="#FFFFFF" height="25.0328" style="stroke:#181818;stroke-width:0.8000000000000002;" width="8" x="377.6" y="417.0531"/><polygon fill="#181818" points="368,122.0266,376,125.2266,368,128.4266,371.2,125.2266" style="stroke:#181818;stroke-width:0.8000000000000002;"/><line style="stroke:#181818;stroke-width:0.8000000000000002;" x1="24.8" x2="372.8" y1="125.2266" y2="125.2266"/><text fill="#000000" font-family="sans-serif" font-size="10.4" font-weight="bold" lengthAdjust="spacing" textLength="5.6" x="30.4" y="121.0164">1</text><text fill="#000000" font-family="sans-serif" font-size="10.4" lengthAdjust="spacing" textLength="182.4" x="39.2" y="121.0164">asks to see properties to request a visit</text><polygon fill="#181818" points="33.6,147.0594,25.6,150.2594,33.6,153.4594,30.4,150.2594" style="stroke:#181818;stroke-width:0.8000000000000002;"/><line style="stroke:#181818;stroke-width:0.8000000000000002;stroke-dasharray:2.0,2.0;" x1="28.8" x2="380.8" y1="150.2594" y2="150.2594"/><text fill="#000000" font-family="sans-serif" font-size="10.4" font-weight="bold" lengthAdjust="spacing" textLength="5.6" x="38.4" y="146.0492">2</text><text fill="#000000" font-family="sans-serif" font-size="10.4" lengthAdjust="spacing" textLength="249.6" x="47.2" y="146.0492">asks if they only want to see 'for rent', 'for sale' or both</text><polygon fill="#181818" points="368,172.0922,376,175.2922,368,178.4922,371.2,175.2922" style="stroke:#181818;stroke-width:0.8000000000000002;"/><line style="stroke:#181818;stroke-width:0.8000000000000002;" x1="24.8" x2="372.8" y1="175.2922" y2="175.2922"/><text fill="#000000" font-family="sans-serif" font-size="10.4" font-weight="bold" lengthAdjust="spacing" textLength="5.6" x="30.4" y="171.082">3</text><text fill="#000000" font-family="sans-serif" font-size="10.4" lengthAdjust="spacing" textLength="98.4" x="39.2" y="171.082">answers the question</text><polygon fill="#181818" points="33.6,197.125,25.6,200.325,33.6,203.525,30.4,200.325" style="stroke:#181818;stroke-width:0.8000000000000002;"/><line style="stroke:#181818;stroke-width:0.8000000000000002;stroke-dasharray:2.0,2.0;" x1="28.8" x2="380.8" y1="200.325" y2="200.325"/><text fill="#000000" font-family="sans-serif" font-size="10.4" font-weight="bold" lengthAdjust="spacing" textLength="5.6" x="38.4" y="196.1148">4</text><text fill="#000000" font-family="sans-serif" font-size="10.4" lengthAdjust="spacing" textLength="324.8" x="47.2" y="196.1148">asks if they only want to see lands, apartments, houses or all of those</text><polygon fill="#181818" points="368,222.1578,376,225.3578,368,228.5578,371.2,225.3578" style="stroke:#181818;stroke-width:0.8000000000000002;"/><line style="stroke:#181818;stroke-width:0.8000000000000002;" x1="24.8" x2="372.8" y1="225.3578" y2="225.3578"/><text fill="#000000" font-family="sans-serif" font-size="10.4" font-weight="bold" lengthAdjust="spacing" textLength="5.6" x="30.4" y="221.1477">5</text><text fill="#000000" font-family="sans-serif" font-size="10.4" lengthAdjust="spacing" textLength="98.4" x="39.2" y="221.1477">answers the question</text><polygon fill="#181818" points="33.6,261.0234,25.6,264.2234,33.6,267.4234,30.4,264.2234" style="stroke:#181818;stroke-width:0.8000000000000002;"/><line style="stroke:#181818;stroke-width:0.8000000000000002;stroke-dasharray:2.0,2.0;" x1="28.8" x2="380.8" y1="264.2234" y2="264.2234"/><text fill="#000000" font-family="sans-serif" font-size="10.4" font-weight="bold" lengthAdjust="spacing" textLength="5.6" x="38.4" y="253.0969">6</text><text fill="#000000" font-family="sans-serif" font-size="10.4" lengthAdjust="spacing" textLength="307.2" x="47.2" y="246.1805">asks if the user wants to only see properties from a specific agent,</text><text fill="#000000" font-family="sans-serif" font-size="10.4" lengthAdjust="spacing" textLength="233.6" x="47.2" y="260.0133">printing a list of all agents registered in the system</text><polygon fill="#181818" points="368,286.0563,376,289.2563,368,292.4563,371.2,289.2563" style="stroke:#181818;stroke-width:0.8000000000000002;"/><line style="stroke:#181818;stroke-width:0.8000000000000002;" x1="24.8" x2="372.8" y1="289.2563" y2="289.2563"/><text fill="#000000" font-family="sans-serif" font-size="10.4" font-weight="bold" lengthAdjust="spacing" textLength="5.6" x="30.4" y="285.0461">7</text><text fill="#000000" font-family="sans-serif" font-size="10.4" lengthAdjust="spacing" textLength="308" x="39.2" y="285.0461">answers the question (choosing one of the agents or none of them)</text><polygon fill="#181818" points="33.6,311.0891,25.6,314.2891,33.6,317.4891,30.4,314.2891" style="stroke:#181818;stroke-width:0.8000000000000002;"/><line style="stroke:#181818;stroke-width:0.8000000000000002;stroke-dasharray:2.0,2.0;" x1="28.8" x2="380.8" y1="314.2891" y2="314.2891"/><text fill="#000000" font-family="sans-serif" font-size="10.4" font-weight="bold" lengthAdjust="spacing" textLength="5.6" x="38.4" y="310.0789">8</text><text fill="#000000" font-family="sans-serif" font-size="10.4" lengthAdjust="spacing" textLength="87.2" x="47.2" y="310.0789">shows property list</text><polygon fill="#181818" points="368,336.1219,376,339.3219,368,342.5219,371.2,339.3219" style="stroke:#181818;stroke-width:0.8000000000000002;"/><line style="stroke:#181818;stroke-width:0.8000000000000002;" x1="24.8" x2="372.8" y1="339.3219" y2="339.3219"/><text fill="#000000" font-family="sans-serif" font-size="10.4" font-weight="bold" lengthAdjust="spacing" textLength="5.6" x="30.4" y="335.1117">9</text><text fill="#000000" font-family="sans-serif" font-size="10.4" lengthAdjust="spacing" textLength="244.8" x="39.2" y="335.1117">types the number of visit requests they want to make</text><polygon fill="#181818" points="33.6,374.9875,25.6,378.1875,33.6,381.3875,30.4,378.1875" style="stroke:#181818;stroke-width:0.8000000000000002;"/><line style="stroke:#181818;stroke-width:0.8000000000000002;stroke-dasharray:2.0,2.0;" x1="28.8" x2="380.8" y1="378.1875" y2="378.1875"/><text fill="#000000" font-family="sans-serif" font-size="10.4" font-weight="bold" lengthAdjust="spacing" textLength="11.2" x="38.4" y="367.0609">10</text><text fill="#000000" font-family="sans-serif" font-size="10.4" lengthAdjust="spacing" textLength="302.4" x="52.8" y="360.1445">requests data to leave a message to the agent responsible for the</text><text fill="#000000" font-family="sans-serif" font-size="10.4" lengthAdjust="spacing" textLength="151.2" x="52.8" y="373.9773">property chosen in each iteration</text><polygon fill="#181818" points="368,413.8531,376,417.0531,368,420.2531,371.2,417.0531" style="stroke:#181818;stroke-width:0.8000000000000002;"/><line style="stroke:#181818;stroke-width:0.8000000000000002;" x1="24.8" x2="372.8" y1="417.0531" y2="417.0531"/><text fill="#000000" font-family="sans-serif" font-size="10.4" font-weight="bold" lengthAdjust="spacing" textLength="11.2" x="30.4" y="405.9266">11</text><text fill="#000000" font-family="sans-serif" font-size="10.4" lengthAdjust="spacing" textLength="253.6" x="44.8" y="399.0102">types requested data (text, preferred date, start of visit,</text><text fill="#000000" font-family="sans-serif" font-size="10.4" lengthAdjust="spacing" textLength="52" x="44.8" y="412.843">end of visit)</text><polygon fill="#181818" points="33.6,438.8859,25.6,442.0859,33.6,445.2859,30.4,442.0859" style="stroke:#181818;stroke-width:0.8000000000000002;"/><line style="stroke:#181818;stroke-width:0.8000000000000002;stroke-dasharray:2.0,2.0;" x1="28.8" x2="380.8" y1="442.0859" y2="442.0859"/><text fill="#000000" font-family="sans-serif" font-size="10.4" font-weight="bold" lengthAdjust="spacing" textLength="11.2" x="38.4" y="437.8758">12</text><text fill="#000000" font-family="sans-serif" font-size="10.4" lengthAdjust="spacing" textLength="126.4" x="52.8" y="437.8758">displays operation success</text><!--SRC=[nLInZjim3Dtz5KIMv804kBKt52XwVs1qwyB8T2n4bdGYdTH_NqgotQAzeK4BD1D3YNplyL7cg_KH4uum1X_CaC9886cYXhUJYEQA5sfbTWI9ZA2_k9yly81Tk5j_WHuTKzE85RtwXIb1Ao7DyFpy0KxGpYmqGajl4tb3y6hnakiFRVlwr3GuIV3JUAQaiT4ws7rsbhpi01a-TQFrZGAADJQY5zYzr8Rbk8QbqDvGQBdVWFvA2AUFAu4NBRWoI00cWfX29ErA9PCoEHP0k5csKXjiJLUKd5oQdRHl1LZQsXvae1c2TpFSCz45QD-hfAHwziSQCphQWmRd84FfsT6xKEy8y7odn1a92c4R_3-awj1tV0JCunwLiSP3c5X7f6pHEGYvCgZN_uqrJ7czCkdYMv7mYvszRhCQoP6CxQq1NM8lnwy-9kibhok2i-grYicQoZ6hGnTDKg8E53CZSINrrrBXO8OGE2C7JtM6jCBgOFsFxFZqq5nu27TUfSz5rKDqPOvKkTO7c5cK_L_V0zT5MNTan2izH71hqw5Wxk08RweTHcBM2UJKDWozpJ5ujcVzYkI7aa-oROiyapVFPtTKtW1MpS9jbVxOeQfv8QPc5sO7eMzor4bIJodLB1s1HH_2DXHT8VBTzlSngphBqU6iXiU5Dl1aZ8wXQNxd_Xq0]--></g></svg>