<?xml version="1.0" encoding="us-ascii" standalone="no"?><svg xmlns="http://www.w3.org/2000/svg" xmlns:xlink="http://www.w3.org/1999/xlink" contentStyleType="text/css" height="413.4px" preserveAspectRatio="none" style="width:351px;height:413px;background:#FFFFFF;" version="1.1" viewBox="0 0 351 413" width="351px" zoomAndPan="magnify"><defs/><g><text fill="#000000" font-family="sans-serif" font-size="8.4" font-weight="bold" lengthAdjust="spacing" textLength="205.2" x="73.5" y="18.0645">User Story 001 - System Sequence Diagram (SSD)</text><rect fill="#FFFFFF" height="278.5723" style="stroke:#181818;stroke-width:0.6;" width="6" x="48" y="79.9453"/><rect fill="#FFFFFF" height="278.5723" style="stroke:#181818;stroke-width:0.6;" width="6" x="48" y="79.9453"/><rect fill="#FFFFFF" height="18.7746" style="stroke:#181818;stroke-width:0.6;" width="6" x="318.6" y="93.9199"/><rect fill="#FFFFFF" height="18.7746" style="stroke:#181818;stroke-width:0.6;" width="6" x="318.6" y="131.4691"/><rect fill="#FFFFFF" height="29.1492" style="stroke:#181818;stroke-width:0.6;" width="6" x="318.6" y="169.0184"/><rect fill="#FFFFFF" height="39.5238" style="stroke:#181818;stroke-width:0.6;" width="6" x="318.6" y="216.9422"/><rect fill="#FFFFFF" height="82.677" style="stroke:#181818;stroke-width:0.6;" width="6" x="318.6" y="275.2406"/><rect fill="none" height="69.477" style="stroke:#000000;stroke-width:0.8999999999999999;" width="340.8" x="6" y="284.2406"/><line style="stroke:#181818;stroke-width:0.3;stroke-dasharray:5.0,5.0;" x1="48" x2="48" y1="73.9453" y2="363.9176"/><line style="stroke:#181818;stroke-width:0.3;stroke-dasharray:5.0,5.0;" x1="321.6" x2="321.6" y1="73.9453" y2="363.9176"/><text fill="#000000" font-family="sans-serif" font-size="8.4" lengthAdjust="spacing" textLength="68.4" x="12" y="71.8371">Unregistered User</text><ellipse cx="48" cy="31.8727" fill="#E3E3E3" rx="4.8" ry="4.8" style="stroke:#181818;stroke-width:0.3;"/><path d="M48,36.6727 L48,52.8727 M40.2,41.4727 L55.8,41.4727 M48,52.8727 L40.2,61.8727 M48,52.8727 L55.8,61.8727 " fill="none" style="stroke:#181818;stroke-width:0.3;"/><text fill="#000000" font-family="sans-serif" font-size="8.4" lengthAdjust="spacing" textLength="68.4" x="12" y="372.382">Unregistered User</text><ellipse cx="48" cy="379.5902" fill="#E3E3E3" rx="4.8" ry="4.8" style="stroke:#181818;stroke-width:0.3;"/><path d="M48,384.3902 L48,400.5902 M40.2,389.1902 L55.8,389.1902 M48,400.5902 L40.2,409.5902 M48,400.5902 L55.8,409.5902 " fill="none" style="stroke:#181818;stroke-width:0.3;"/><rect fill="#E3E3E3" height="19.5727" rx="1.5" ry="1.5" style="stroke:#181818;stroke-width:0.3;" width="38.4" x="302.4" y="53.7727"/><text fill="#000000" font-family="sans-serif" font-size="8.4" lengthAdjust="spacing" textLength="30" x="306.6" y="67.0371">:System</text><rect fill="#E3E3E3" height="19.5727" rx="1.5" ry="1.5" style="stroke:#181818;stroke-width:0.3;" width="38.4" x="302.4" y="363.3176"/><text fill="#000000" font-family="sans-serif" font-size="8.4" lengthAdjust="spacing" textLength="30" x="306.6" y="376.582">:System</text><rect fill="#FFFFFF" height="278.5723" style="stroke:#181818;stroke-width:0.6;" width="6" x="48" y="79.9453"/><rect fill="#FFFFFF" height="278.5723" style="stroke:#181818;stroke-width:0.6;" width="6" x="48" y="79.9453"/><rect fill="#FFFFFF" height="18.7746" style="stroke:#181818;stroke-width:0.6;" width="6" x="318.6" y="93.9199"/><rect fill="#FFFFFF" height="18.7746" style="stroke:#181818;stroke-width:0.6;" width="6" x="318.6" y="131.4691"/><rect fill="#FFFFFF" height="29.1492" style="stroke:#181818;stroke-width:0.6;" width="6" x="318.6" y="169.0184"/><rect fill="#FFFFFF" height="39.5238" style="stroke:#181818;stroke-width:0.6;" width="6" x="318.6" y="216.9422"/><rect fill="#FFFFFF" height="82.677" style="stroke:#181818;stroke-width:0.6;" width="6" x="318.6" y="275.2406"/><polygon fill="#181818" points="311.4,91.5199,317.4,93.9199,311.4,96.3199,313.8,93.9199" style="stroke:#181818;stroke-width:0.6;"/><line style="stroke:#181818;stroke-width:0.6;" x1="54" x2="315" y1="93.9199" y2="93.9199"/><text fill="#000000" font-family="sans-serif" font-size="7.8" font-weight="bold" lengthAdjust="spacing" textLength="4.2" x="58.2" y="90.7623">1</text><text fill="#000000" font-family="sans-serif" font-size="7.8" lengthAdjust="spacing" textLength="111.6" x="64.8" y="90.7623">asks to list registered properties</text><polygon fill="#181818" points="60.6,110.2945,54.6,112.6945,60.6,115.0945,58.2,112.6945" style="stroke:#181818;stroke-width:0.6;"/><line style="stroke:#181818;stroke-width:0.6;stroke-dasharray:2.0,2.0;" x1="57" x2="321" y1="112.6945" y2="112.6945"/><text fill="#000000" font-family="sans-serif" font-size="7.8" font-weight="bold" lengthAdjust="spacing" textLength="4.2" x="64.2" y="109.5369">2</text><text fill="#000000" font-family="sans-serif" font-size="7.8" lengthAdjust="spacing" textLength="204.6" x="70.8" y="109.5369">asks if the user only wants to see 'for rent', 'for sale' or both</text><polygon fill="#181818" points="311.4,129.0691,317.4,131.4691,311.4,133.8691,313.8,131.4691" style="stroke:#181818;stroke-width:0.6;"/><line style="stroke:#181818;stroke-width:0.6;" x1="54" x2="315" y1="131.4691" y2="131.4691"/><text fill="#000000" font-family="sans-serif" font-size="7.8" font-weight="bold" lengthAdjust="spacing" textLength="4.2" x="58.2" y="128.3115">3</text><text fill="#000000" font-family="sans-serif" font-size="7.8" lengthAdjust="spacing" textLength="73.8" x="64.8" y="128.3115">answers the question</text><polygon fill="#181818" points="60.6,147.8438,54.6,150.2438,60.6,152.6437,58.2,150.2438" style="stroke:#181818;stroke-width:0.6;"/><line style="stroke:#181818;stroke-width:0.6;stroke-dasharray:2.0,2.0;" x1="57" x2="321" y1="150.2438" y2="150.2438"/><text fill="#000000" font-family="sans-serif" font-size="7.8" font-weight="bold" lengthAdjust="spacing" textLength="4.2" x="64.2" y="147.0861">4</text><text fill="#000000" font-family="sans-serif" font-size="7.8" lengthAdjust="spacing" textLength="243.6" x="70.8" y="147.0861">asks if they only want to see lands, apartments, houses or all of those</text><polygon fill="#181818" points="311.4,166.6184,317.4,169.0184,311.4,171.4184,313.8,169.0184" style="stroke:#181818;stroke-width:0.6;"/><line style="stroke:#181818;stroke-width:0.6;" x1="54" x2="315" y1="169.0184" y2="169.0184"/><text fill="#000000" font-family="sans-serif" font-size="7.8" font-weight="bold" lengthAdjust="spacing" textLength="4.2" x="58.2" y="165.8607">5</text><text fill="#000000" font-family="sans-serif" font-size="7.8" lengthAdjust="spacing" textLength="73.8" x="64.8" y="165.8607">answers the question</text><polygon fill="#181818" points="60.6,195.7676,54.6,198.1676,60.6,200.5676,58.2,198.1676" style="stroke:#181818;stroke-width:0.6;"/><line style="stroke:#181818;stroke-width:0.6;stroke-dasharray:2.0,2.0;" x1="57" x2="321" y1="198.1676" y2="198.1676"/><text fill="#000000" font-family="sans-serif" font-size="7.8" font-weight="bold" lengthAdjust="spacing" textLength="4.2" x="64.2" y="189.8227">6</text><text fill="#000000" font-family="sans-serif" font-size="7.8" lengthAdjust="spacing" textLength="230.4" x="70.8" y="184.6354">asks if the user wants to only see properties from a specific agent,</text><text fill="#000000" font-family="sans-serif" font-size="7.8" lengthAdjust="spacing" textLength="175.2" x="70.8" y="195.01">printing a list of all agents registered in the system</text><polygon fill="#181818" points="311.4,214.5422,317.4,216.9422,311.4,219.3422,313.8,216.9422" style="stroke:#181818;stroke-width:0.6;"/><line style="stroke:#181818;stroke-width:0.6;" x1="54" x2="315" y1="216.9422" y2="216.9422"/><text fill="#000000" font-family="sans-serif" font-size="7.8" font-weight="bold" lengthAdjust="spacing" textLength="4.2" x="58.2" y="213.7846">7</text><text fill="#000000" font-family="sans-serif" font-size="7.8" lengthAdjust="spacing" textLength="73.8" x="64.8" y="213.7846">answers the question</text><polygon fill="#181818" points="60.6,254.066,54.6,256.466,60.6,258.866,58.2,256.466" style="stroke:#181818;stroke-width:0.6;"/><line style="stroke:#181818;stroke-width:0.6;stroke-dasharray:2.0,2.0;" x1="57" x2="321" y1="256.466" y2="256.466"/><text fill="#000000" font-family="sans-serif" font-size="7.8" font-weight="bold" lengthAdjust="spacing" textLength="4.2" x="64.2" y="242.9338">8</text><text fill="#000000" font-family="sans-serif" font-size="7.8" lengthAdjust="spacing" textLength="184.8" x="70.8" y="232.5592">asks if they want to sort by price, area, distance from</text><text fill="#000000" font-family="sans-serif" font-size="7.8" lengthAdjust="spacing" textLength="150" x="70.8" y="242.9338">city centre, number of photos (in ascending</text><text fill="#000000" font-family="sans-serif" font-size="7.8" lengthAdjust="spacing" textLength="127.2" x="70.8" y="253.3084">or descending order) or none of them</text><polygon fill="#181818" points="311.4,272.8406,317.4,275.2406,311.4,277.6406,313.8,275.2406" style="stroke:#181818;stroke-width:0.6;"/><line style="stroke:#181818;stroke-width:0.6;" x1="54" x2="315" y1="275.2406" y2="275.2406"/><text fill="#000000" font-family="sans-serif" font-size="7.8" font-weight="bold" lengthAdjust="spacing" textLength="4.2" x="58.2" y="272.083">9</text><text fill="#000000" font-family="sans-serif" font-size="7.8" lengthAdjust="spacing" textLength="61.8" x="64.8" y="272.083">gives their answer</text><path d="M6,284.2406 L42.6,284.2406 L42.6,289.8152 L36.6,295.8152 L6,295.8152 L6,284.2406 " fill="#EEEEEE" style="stroke:#000000;stroke-width:0.8999999999999999;"/><rect fill="none" height="69.477" style="stroke:#000000;stroke-width:0.8999999999999999;" width="340.8" x="6" y="284.2406"/><text fill="#000000" font-family="sans-serif" font-size="7.8" font-weight="bold" lengthAdjust="spacing" textLength="9.6" x="15" y="293.2576">alt</text><text fill="#000000" font-family="sans-serif" font-size="6.6" font-weight="bold" lengthAdjust="spacing" textLength="186" x="51.6" y="292.5627">[there aren't any requests with the given specifications]</text><polygon fill="#181818" points="60.6,317.7645,54.6,320.1645,60.6,322.5645,58.2,320.1645" style="stroke:#181818;stroke-width:0.6;"/><line style="stroke:#181818;stroke-width:0.6;stroke-dasharray:2.0,2.0;" x1="57" x2="318" y1="320.1645" y2="320.1645"/><text fill="#000000" font-family="sans-serif" font-size="7.8" font-weight="bold" lengthAdjust="spacing" textLength="8.4" x="64.2" y="311.8195">10</text><text fill="#000000" font-family="sans-serif" font-size="7.8" lengthAdjust="spacing" textLength="153" x="75" y="306.6322">shows message saying that there aren't any</text><text fill="#000000" font-family="sans-serif" font-size="7.8" lengthAdjust="spacing" textLength="145.8" x="75" y="317.0068">requests that meet the given requirements</text><line style="stroke:#000000;stroke-width:0.6;stroke-dasharray:2.0,2.0;" x1="6" x2="346.8" y1="325.5645" y2="325.5645"/><text fill="#000000" font-family="sans-serif" font-size="6.6" font-weight="bold" lengthAdjust="spacing" textLength="35.4" x="9" y="332.6865">[there are]</text><polygon fill="#181818" points="60.6,346.5176,54.6,348.9176,60.6,351.3176,58.2,348.9176" style="stroke:#181818;stroke-width:0.6;"/><line style="stroke:#181818;stroke-width:0.6;stroke-dasharray:2.0,2.0;" x1="57" x2="318" y1="348.9176" y2="348.9176"/><text fill="#000000" font-family="sans-serif" font-size="7.8" font-weight="bold" lengthAdjust="spacing" textLength="8.4" x="64.2" y="345.76">11</text><text fill="#000000" font-family="sans-serif" font-size="7.8" lengthAdjust="spacing" textLength="173.4" x="75" y="345.76">shows all property requests as the user requested</text><!--SRC=[nLIvRkD03Etr5OGR9u0DPDiKM-KFX7Hkw14j3Innj4CwXlv-oP5y15aliDl45Jt7E_WuacFa4JCEC2HEeSjf8D1yeagkEoE68xPKwzGJP0gAtFRt1wJ39fqZjt30NgYgDAeTVHVAK6lA4xoy_80jr9Ce3L3JhnDn87YBsFhzfxf-UwugF6dYqx2dR7MmUx1wvqnjj5kPceAt0fHIL4QjCSGHMM7rEaENtRai4F43TTPHLM2_pqk-KZHkVrwalHh0KK0JzCOAT-HZJYCP8ybdf0kRBouWMyChk0jQF81s12TVIjnFS3RDXKI8O7qmevbOrvkv5knf3LRiatO5jw4_qdtLpdAcB8NDMYmQ4_-dskccz2AqHsva0-YD7qolrLqoK-9QiUyX-Sra-N-Jvhd3r-OM0oxy5XqSRBu1GKOAyH03s5YpRdOyviZg0unpy6R57PLjkH-3o8L9PatV5iurbvGLzfDPZ84icqouWSR4ehylTxlZ47M2O4QodPZVb_iRkwH9uCaSeTXsO_PtR54sTFbhmJQKdprVJanpmFzekuqVL4p7lBJWiMdirKzcSYEyLhimMVDBjmJEKRlIFOVaQuReZPG7JPCkdGK64h4exMLDxaex_CgpuojHsH-8z8xDDsEcClU5Y-n3TmFvAxrFqZA3TtPGRZExB58pGtFpgCM_0G00]--></g></svg>