<?xml version="1.0" encoding="us-ascii" standalone="no"?><svg xmlns="http://www.w3.org/2000/svg" xmlns:xlink="http://www.w3.org/1999/xlink" contentStyleType="text/css" height="475.7px" preserveAspectRatio="none" style="width:399px;height:475px;background:#FFFFFF;" version="1.1" viewBox="0 0 399 475" width="399.73px" zoomAndPan="magnify"><defs/><g><text fill="#000000" font-family="sans-serif" font-size="9.94" font-weight="bold" lengthAdjust="spacing" textLength="242.82" x="79.165" y="21.3763">User Story 010 - System Sequence Diagram (SSD)</text><rect fill="#FFFFFF" height="316.1677" style="stroke:#181818;stroke-width:0.71;" width="7.1" x="32.66" y="94.602"/><rect fill="#FFFFFF" height="22.2166" style="stroke:#181818;stroke-width:0.71;" width="7.1" x="354.29" y="111.1386"/><rect fill="#FFFFFF" height="22.2166" style="stroke:#181818;stroke-width:0.71;" width="7.1" x="354.29" y="155.5718"/><rect fill="#FFFFFF" height="40.8832" style="stroke:#181818;stroke-width:0.71;" width="7.1" x="354.29" y="200.0051"/><rect fill="#FFFFFF" height="147.6647" style="stroke:#181818;stroke-width:0.71;" width="7.1" x="354.29" y="263.1049"/><rect fill="none" height="194.4346" style="stroke:#000000;stroke-width:1.065;" width="387.66" x="7.1" y="210.6551"/><rect fill="none" height="92.3402" style="stroke:#000000;stroke-width:1.065;" width="373.46" x="14.2" y="273.7549"/><line style="stroke:#181818;stroke-width:0.355;stroke-dasharray:5.0,5.0;" x1="36.21" x2="36.21" y1="87.502" y2="417.1597"/><line style="stroke:#181818;stroke-width:0.355;stroke-dasharray:5.0,5.0;" x1="357.84" x2="357.84" y1="87.502" y2="417.1597"/><text fill="#000000" font-family="sans-serif" font-size="9.94" lengthAdjust="spacing" textLength="25.56" x="21.3" y="85.0072">Client</text><ellipse cx="36.21" cy="37.716" fill="#E3E3E3" rx="5.68" ry="5.68" style="stroke:#181818;stroke-width:0.355;"/><path d="M36.21,43.396 L36.21,62.566 M26.98,49.076 L45.44,49.076 M36.21,62.566 L26.98,73.216 M36.21,62.566 L45.44,73.216 " fill="none" style="stroke:#181818;stroke-width:0.355;"/><text fill="#000000" font-family="sans-serif" font-size="9.94" lengthAdjust="spacing" textLength="25.56" x="21.3" y="427.1759">Client</text><ellipse cx="36.21" cy="435.7056" fill="#E3E3E3" rx="5.68" ry="5.68" style="stroke:#181818;stroke-width:0.355;"/><path d="M36.21,441.3856 L36.21,460.5556 M26.98,447.0656 L45.44,447.0656 M36.21,460.5556 L26.98,471.2056 M36.21,460.5556 L45.44,471.2056 " fill="none" style="stroke:#181818;stroke-width:0.355;"/><rect fill="#E3E3E3" height="23.161" rx="1.775" ry="1.775" style="stroke:#181818;stroke-width:0.355;" width="45.44" x="335.12" y="63.631"/><text fill="#000000" font-family="sans-serif" font-size="9.94" lengthAdjust="spacing" textLength="35.5" x="340.09" y="79.3272">:System</text><rect fill="#E3E3E3" height="23.161" rx="1.775" ry="1.775" style="stroke:#181818;stroke-width:0.355;" width="45.44" x="335.12" y="416.4497"/><text fill="#000000" font-family="sans-serif" font-size="9.94" lengthAdjust="spacing" textLength="35.5" x="340.09" y="432.1459">:System</text><rect fill="#FFFFFF" height="316.1677" style="stroke:#181818;stroke-width:0.71;" width="7.1" x="32.66" y="94.602"/><rect fill="#FFFFFF" height="22.2166" style="stroke:#181818;stroke-width:0.71;" width="7.1" x="354.29" y="111.1386"/><rect fill="#FFFFFF" height="22.2166" style="stroke:#181818;stroke-width:0.71;" width="7.1" x="354.29" y="155.5718"/><rect fill="#FFFFFF" height="40.8832" style="stroke:#181818;stroke-width:0.71;" width="7.1" x="354.29" y="200.0051"/><rect fill="#FFFFFF" height="147.6647" style="stroke:#181818;stroke-width:0.71;" width="7.1" x="354.29" y="263.1049"/><polygon fill="#181818" points="345.77,108.2986,352.87,111.1386,345.77,113.9786,348.61,111.1386" style="stroke:#181818;stroke-width:0.71;"/><line style="stroke:#181818;stroke-width:0.71;" x1="39.76" x2="350.03" y1="111.1386" y2="111.1386"/><text fill="#000000" font-family="sans-serif" font-size="9.23" font-weight="bold" lengthAdjust="spacing" textLength="4.97" x="44.73" y="107.4021">1</text><text fill="#000000" font-family="sans-serif" font-size="9.23" lengthAdjust="spacing" textLength="91.59" x="52.54" y="107.4021">asks to place an order</text><polygon fill="#181818" points="47.57,130.5152,40.47,133.3552,47.57,136.1952,44.73,133.3552" style="stroke:#181818;stroke-width:0.71;"/><line style="stroke:#181818;stroke-width:0.71;stroke-dasharray:2.0,2.0;" x1="43.31" x2="357.13" y1="133.3552" y2="133.3552"/><text fill="#000000" font-family="sans-serif" font-size="9.23" font-weight="bold" lengthAdjust="spacing" textLength="4.97" x="51.83" y="129.6187">2</text><text fill="#000000" font-family="sans-serif" font-size="9.23" lengthAdjust="spacing" textLength="214.42" x="59.64" y="129.6187">request to select desired Filters to list the properties</text><polygon fill="#181818" points="345.77,152.7318,352.87,155.5718,345.77,158.4118,348.61,155.5718" style="stroke:#181818;stroke-width:0.71;"/><line style="stroke:#181818;stroke-width:0.71;" x1="39.76" x2="350.03" y1="155.5718" y2="155.5718"/><text fill="#000000" font-family="sans-serif" font-size="9.23" font-weight="bold" lengthAdjust="spacing" textLength="4.97" x="44.73" y="151.8353">3</text><text fill="#000000" font-family="sans-serif" font-size="9.23" lengthAdjust="spacing" textLength="106.5" x="52.54" y="151.8353">selects the desired Filters</text><polygon fill="#181818" points="47.57,174.9484,40.47,177.7884,47.57,180.6284,44.73,177.7884" style="stroke:#181818;stroke-width:0.71;"/><line style="stroke:#181818;stroke-width:0.71;stroke-dasharray:2.0,2.0;" x1="43.31" x2="357.13" y1="177.7884" y2="177.7884"/><text fill="#000000" font-family="sans-serif" font-size="9.23" font-weight="bold" lengthAdjust="spacing" textLength="4.97" x="51.83" y="174.0519">4</text><text fill="#000000" font-family="sans-serif" font-size="9.23" lengthAdjust="spacing" textLength="162.59" x="59.64" y="174.0519">list properties and request to select one</text><polygon fill="#181818" points="345.77,197.1651,352.87,200.0051,345.77,202.8451,348.61,200.0051" style="stroke:#181818;stroke-width:0.71;"/><line style="stroke:#181818;stroke-width:0.71;" x1="39.76" x2="350.03" y1="200.0051" y2="200.0051"/><text fill="#000000" font-family="sans-serif" font-size="9.23" font-weight="bold" lengthAdjust="spacing" textLength="4.97" x="44.73" y="196.2685">5</text><text fill="#000000" font-family="sans-serif" font-size="9.23" lengthAdjust="spacing" textLength="83.78" x="52.54" y="196.2685">selects one property</text><path d="M7.1,210.6551 L50.41,210.6551 L50.41,217.2517 L43.31,224.3517 L7.1,224.3517 L7.1,210.6551 " fill="#EEEEEE" style="stroke:#000000;stroke-width:1.065;"/><rect fill="none" height="194.4346" style="stroke:#000000;stroke-width:1.065;" width="387.66" x="7.1" y="210.6551"/><text fill="#000000" font-family="sans-serif" font-size="9.23" font-weight="bold" lengthAdjust="spacing" textLength="11.36" x="17.75" y="221.3252">alt</text><text fill="#000000" font-family="sans-serif" font-size="7.81" font-weight="bold" lengthAdjust="spacing" textLength="218.68" x="61.06" y="220.5028">[if the client hasn't registered an offer for this property]</text><polygon fill="#181818" points="47.57,238.0483,40.47,240.8883,47.57,243.7283,44.73,240.8883" style="stroke:#181818;stroke-width:0.71;"/><line style="stroke:#181818;stroke-width:0.71;stroke-dasharray:2.0,2.0;" x1="43.31" x2="357.13" y1="240.8883" y2="240.8883"/><text fill="#000000" font-family="sans-serif" font-size="9.23" font-weight="bold" lengthAdjust="spacing" textLength="4.97" x="51.83" y="237.1518">6</text><text fill="#000000" font-family="sans-serif" font-size="9.23" lengthAdjust="spacing" textLength="79.52" x="59.64" y="237.1518">request the amount</text><polygon fill="#181818" points="345.77,260.2649,352.87,263.1049,345.77,265.9449,348.61,263.1049" style="stroke:#181818;stroke-width:0.71;"/><line style="stroke:#181818;stroke-width:0.71;" x1="39.76" x2="350.03" y1="263.1049" y2="263.1049"/><text fill="#000000" font-family="sans-serif" font-size="9.23" font-weight="bold" lengthAdjust="spacing" textLength="4.97" x="44.73" y="259.3684">7</text><text fill="#000000" font-family="sans-serif" font-size="9.23" lengthAdjust="spacing" textLength="117.15" x="52.54" y="259.3684">sends the requested amount</text><path d="M14.2,273.7549 L57.51,273.7549 L57.51,280.3515 L50.41,287.4515 L14.2,287.4515 L14.2,273.7549 " fill="#EEEEEE" style="stroke:#000000;stroke-width:1.065;"/><rect fill="none" height="92.3402" style="stroke:#000000;stroke-width:1.065;" width="373.46" x="14.2" y="273.7549"/><text fill="#000000" font-family="sans-serif" font-size="9.23" font-weight="bold" lengthAdjust="spacing" textLength="11.36" x="24.85" y="284.425">alt</text><text fill="#000000" font-family="sans-serif" font-size="7.81" font-weight="bold" lengthAdjust="spacing" textLength="211.58" x="68.16" y="283.6027">[Client has sent an amount that is equal to the amount</text><text fill="#000000" font-family="sans-serif" font-size="7.81" font-weight="bold" lengthAdjust="spacing" textLength="144.84" x="68.16" y="293.9906">from another client for this property]</text><polygon fill="#181818" points="47.57,323.5506,40.47,326.3906,47.57,329.2306,44.73,326.3906" style="stroke:#181818;stroke-width:0.71;"/><line style="stroke:#181818;stroke-width:0.71;stroke-dasharray:2.0,2.0;" x1="43.31" x2="353.58" y1="326.3906" y2="326.3906"/><text fill="#000000" font-family="sans-serif" font-size="9.23" font-weight="bold" lengthAdjust="spacing" textLength="4.97" x="51.83" y="316.5158">8</text><text fill="#000000" font-family="sans-serif" font-size="9.23" lengthAdjust="spacing" textLength="286.84" x="59.64" y="310.3775">Displays "An order with the same amount has already been registered</text><text fill="#000000" font-family="sans-serif" font-size="9.23" lengthAdjust="spacing" textLength="138.45" x="59.64" y="322.6541">by another client for this property"</text><line style="stroke:#000000;stroke-width:0.71;stroke-dasharray:2.0,2.0;" x1="14.2" x2="387.66" y1="332.7806" y2="332.7806"/><text fill="#000000" font-family="sans-serif" font-size="7.81" font-weight="bold" lengthAdjust="spacing" textLength="22.72" x="17.75" y="341.2084">[else]</text><polygon fill="#181818" points="47.57,357.5751,40.47,360.4151,47.57,363.2551,44.73,360.4151" style="stroke:#181818;stroke-width:0.71;"/><line style="stroke:#181818;stroke-width:0.71;stroke-dasharray:2.0,2.0;" x1="43.31" x2="353.58" y1="360.4151" y2="360.4151"/><text fill="#000000" font-family="sans-serif" font-size="9.23" font-weight="bold" lengthAdjust="spacing" textLength="4.97" x="51.83" y="356.6786">9</text><text fill="#000000" font-family="sans-serif" font-size="9.23" lengthAdjust="spacing" textLength="94.43" x="59.64" y="356.6786">displays: Order placed!</text><line style="stroke:#000000;stroke-width:0.71;stroke-dasharray:2.0,2.0;" x1="7.1" x2="394.76" y1="371.7751" y2="371.7751"/><text fill="#000000" font-family="sans-serif" font-size="7.81" font-weight="bold" lengthAdjust="spacing" textLength="224.36" x="10.65" y="380.2029">[if client has already registered an offer for this property]</text><polygon fill="#181818" points="47.57,396.5697,40.47,399.4097,47.57,402.2497,44.73,399.4097" style="stroke:#181818;stroke-width:0.71;"/><line style="stroke:#181818;stroke-width:0.71;stroke-dasharray:2.0,2.0;" x1="43.31" x2="353.58" y1="399.4097" y2="399.4097"/><text fill="#000000" font-family="sans-serif" font-size="9.23" font-weight="bold" lengthAdjust="spacing" textLength="9.94" x="51.83" y="395.6732">10</text><text fill="#000000" font-family="sans-serif" font-size="9.23" lengthAdjust="spacing" textLength="197.38" x="64.61" y="395.6732">Displays "Order already placed for this property"</text><!--SRC=[dPCzZzim38Pt_mhMIziXm7NDKA2ue6i7ezijZ4tRGcJ95UaU_EzBIVv8h-arLms6O94ldvUY-6BSY0476BppTH_yG21XeeAtan7h2tPKoMm90jM2hhFN0TnZuv-Dww15orGKOaH3lpC5gCI76Hu-FS01gfc51gZenqIk9ZWPx6B-XwewVImAdCIxQJXJq7sjUL0-MaDEIa26l2sqefZQZEW4ocDMJETvcpBDJnHQ4mhGbVTm-Bmo73NbmY0UHekAWWvyQBHoZDuaLarOrf9yK9r5yQWDKJSiKOh9QdUW8JQ16lXgh518HQo94Jt16Fn8we0uYJPqizODtApDIUH5WRSp9vmTHTqtDtnuH_y9gPch_FntEhG2fasEwgpL8xlteYYT0bAq6E-bRNMEMXq7wGtlklVTYehZu2STXBTQSKtkzY8LONQXbpAhdyVDI5IGo9-pL0hLBeEgeOrTtj7WoRNwy3JOwy-mTkDFot2rRha-6TPndXdAByiymxEHFfLY7BPw4Gzj86ncE1Evwuu_kVFyJvBoDnJIHvy-hrv9iy0TuLiYIm-lURVbQCFpRIGv7OnzA3RO-oRZlXPbYbKvqxpcDFBz0W00]--></g></svg>