<?xml version="1.0" encoding="us-ascii" standalone="no"?><svg xmlns="http://www.w3.org/2000/svg" xmlns:xlink="http://www.w3.org/1999/xlink" contentStyleType="text/css" height="2139px" preserveAspectRatio="none" style="width:2133px;height:2139px;background:#FFFFFF;" version="1.1" viewBox="0 0 2133 2139" width="2133px" zoomAndPan="magnify"><defs/><g><text fill="#000000" font-family="sans-serif" font-size="14" font-weight="bold" lengthAdjust="spacing" textLength="279" x="928.5" y="30.1074">User Story 009 - Sequence Diagram (SD)</text><rect fill="#FFFFFF" height="1904.957" style="stroke:#181818;stroke-width:1.0;" width="10" x="21.5" y="133.2422"/><rect fill="#FFFFFF" height="1007.0605" style="stroke:#181818;stroke-width:1.0;" width="10" x="290.5" y="173.8242"/><rect fill="#FFFFFF" height="826.0234" style="stroke:#181818;stroke-width:1.0;" width="10" x="290.5" y="1212.1758"/><rect fill="#FFFFFF" height="525.3652" style="stroke:#181818;stroke-width:1.0;" width="10" x="696.5" y="248.7363"/><rect fill="#FFFFFF" height="193.7461" style="stroke:#181818;stroke-width:1.0;" width="10" x="701.5" y="288.0273"/><rect fill="#FFFFFF" height="193.7461" style="stroke:#181818;stroke-width:1.0;" width="10" x="701.5" y="535.0645"/><rect fill="#FFFFFF" height="281.6191" style="stroke:#181818;stroke-width:1.0;" width="10" x="696.5" y="805.3926"/><rect fill="#FFFFFF" height="31.291" style="stroke:#181818;stroke-width:1.0;" width="10" x="696.5" y="1118.3027"/><rect fill="#FFFFFF" height="31.291" style="stroke:#181818;stroke-width:1.0;" width="10" x="696.5" y="1243.4668"/><rect fill="#FFFFFF" height="31.291" style="stroke:#181818;stroke-width:1.0;" width="10" x="909.5" y="350.6094"/><rect fill="#FFFFFF" height="31.291" style="stroke:#181818;stroke-width:1.0;" width="10" x="909.5" y="597.6465"/><rect fill="#FFFFFF" height="31.291" style="stroke:#181818;stroke-width:1.0;" width="10" x="1016.5" y="413.1914"/><rect fill="#FFFFFF" height="31.291" style="stroke:#181818;stroke-width:1.0;" width="10" x="1016.5" y="660.2285"/><rect fill="#FFFFFF" height="31.291" style="stroke:#181818;stroke-width:1.0;" width="10" x="1163" y="836.6836"/><rect fill="#FFFFFF" height="31.291" style="stroke:#181818;stroke-width:1.0;" width="10" x="1311.5" y="899.2656"/><rect fill="#FFFFFF" height="31.291" style="stroke:#181818;stroke-width:1.0;" width="10" x="1443.5" y="961.8477"/><rect fill="#FFFFFF" height="31.291" style="stroke:#181818;stroke-width:1.0;" width="10" x="1586" y="1024.4297"/><rect fill="#FFFFFF" height="741.1504" style="stroke:#181818;stroke-width:1.0;" width="10" x="1586" y="1306.0488"/><rect fill="#FFFFFF" height="104.873" style="stroke:#181818;stroke-width:1.0;" width="10" x="1591" y="1477.834"/><rect fill="#FFFFFF" height="282.0371" style="stroke:#181818;stroke-width:1.0;" width="10" x="1591" y="1662.2891"/><rect fill="#FFFFFF" height="193.4551" style="stroke:#181818;stroke-width:1.0;" width="10" x="1596" y="1706.5801"/><rect fill="#FFFFFF" height="104.873" style="stroke:#181818;stroke-width:1.0;" width="10" x="1601" y="1750.8711"/><rect fill="#FFFFFF" height="31.291" style="stroke:#181818;stroke-width:1.0;" width="10" x="1986" y="1380.9609"/><rect fill="#FFFFFF" height="31.291" style="stroke:#181818;stroke-width:1.0;" width="10" x="2074.5" y="1514.125"/><rect fill="#FFFFFF" height="31.291" style="stroke:#181818;stroke-width:1.0;" width="10" x="2074.5" y="1787.1621"/><rect fill="none" height="188.7461" style="stroke:#000000;stroke-width:1.5;" width="465" x="615" y="308.0273"/><rect fill="none" height="188.7461" style="stroke:#000000;stroke-width:1.5;" width="465" x="615" y="555.0645"/><rect fill="none" height="170.4551" style="stroke:#000000;stroke-width:1.5;" width="607" x="1520" y="1427.252"/><rect fill="none" height="347.6191" style="stroke:#000000;stroke-width:1.5;" width="607" x="1520" y="1611.707"/><line style="stroke:#181818;stroke-width:0.5;stroke-dasharray:5.0,5.0;" x1="26" x2="26" y1="123.2422" y2="2056.1992"/><line style="stroke:#181818;stroke-width:0.5;stroke-dasharray:5.0,5.0;" x1="295" x2="295" y1="123.2422" y2="2056.1992"/><line style="stroke:#181818;stroke-width:0.5;stroke-dasharray:5.0,5.0;" x1="701" x2="701" y1="213.6348" y2="2056.1992"/><line style="stroke:#181818;stroke-width:0.5;stroke-dasharray:5.0,5.0;" x1="914" x2="914" y1="123.2422" y2="2056.1992"/><line style="stroke:#181818;stroke-width:0.5;stroke-dasharray:5.0,5.0;" x1="1021" x2="1021" y1="123.2422" y2="2056.1992"/><line style="stroke:#181818;stroke-width:0.5;stroke-dasharray:5.0,5.0;" x1="1168" x2="1168" y1="123.2422" y2="2056.1992"/><line style="stroke:#181818;stroke-width:0.5;stroke-dasharray:5.0,5.0;" x1="1316" x2="1316" y1="123.2422" y2="2056.1992"/><line style="stroke:#181818;stroke-width:0.5;stroke-dasharray:5.0,5.0;" x1="1448" x2="1448" y1="123.2422" y2="2056.1992"/><line style="stroke:#181818;stroke-width:0.5;stroke-dasharray:5.0,5.0;" x1="1591" x2="1591" y1="123.2422" y2="2056.1992"/><line style="stroke:#181818;stroke-width:0.5;stroke-dasharray:5.0,5.0;" x1="1991" x2="1991" y1="1345.8594" y2="2056.1992"/><line style="stroke:#181818;stroke-width:0.5;stroke-dasharray:5.0,5.0;" x1="2079" x2="2079" y1="123.2422" y2="2056.1992"/><text fill="#000000" font-family="sans-serif" font-size="14" lengthAdjust="spacing" textLength="37" x="5" y="119.7285">Agent</text><ellipse cx="26.5" cy="53.1211" fill="#E3E3E3" rx="8" ry="8" style="stroke:#181818;stroke-width:0.5;"/><path d="M26.5,61.1211 L26.5,88.1211 M13.5,69.1211 L39.5,69.1211 M26.5,88.1211 L13.5,103.1211 M26.5,88.1211 L39.5,103.1211 " fill="none" style="stroke:#181818;stroke-width:0.5;"/><text fill="#000000" font-family="sans-serif" font-size="14" lengthAdjust="spacing" textLength="37" x="5" y="2070.3066">Agent</text><ellipse cx="26.5" cy="2082.3203" fill="#E3E3E3" rx="8" ry="8" style="stroke:#181818;stroke-width:0.5;"/><path d="M26.5,2090.3203 L26.5,2117.3203 M13.5,2098.3203 L39.5,2098.3203 M26.5,2117.3203 L13.5,2132.3203 M26.5,2117.3203 L39.5,2132.3203 " fill="none" style="stroke:#181818;stroke-width:0.5;"/><rect fill="#E3E3E3" height="32.6211" rx="2.5" ry="2.5" style="stroke:#181818;stroke-width:0.5;" width="103" x="244" y="89.6211"/><text fill="#000000" font-family="sans-serif" font-size="14" lengthAdjust="spacing" textLength="89" x="251" y="111.7285">:CheckVisitsUI</text><rect fill="#E3E3E3" height="32.6211" rx="2.5" ry="2.5" style="stroke:#181818;stroke-width:0.5;" width="103" x="244" y="2055.1992"/><text fill="#000000" font-family="sans-serif" font-size="14" lengthAdjust="spacing" textLength="89" x="251" y="2077.3066">:CheckVisitsUI</text><rect fill="#E3E3E3" height="32.6211" rx="2.5" ry="2.5" style="stroke:#181818;stroke-width:0.5;" width="153" x="625" y="2055.1992"/><text fill="#000000" font-family="sans-serif" font-size="14" lengthAdjust="spacing" textLength="139" x="632" y="2077.3066">:CheckVisitsController</text><rect fill="#E3E3E3" height="32.6211" rx="2.5" ry="2.5" style="stroke:#181818;stroke-width:0.5;" width="97" x="866" y="89.6211"/><text fill="#000000" font-family="sans-serif" font-size="14" lengthAdjust="spacing" textLength="83" x="873" y="111.7285">:Repositories</text><rect fill="#E3E3E3" height="32.6211" rx="2.5" ry="2.5" style="stroke:#181818;stroke-width:0.5;" width="97" x="866" y="2055.1992"/><text fill="#000000" font-family="sans-serif" font-size="14" lengthAdjust="spacing" textLength="83" x="873" y="2077.3066">:Repositories</text><rect fill="#E3E3E3" height="51.2422" rx="2.5" ry="2.5" style="stroke:#181818;stroke-width:0.5;" width="97" x="973" y="71"/><text fill="#000000" font-family="sans-serif" font-size="14" lengthAdjust="spacing" textLength="74" x="984.5" y="93.1074">repositories</text><text fill="#000000" font-family="sans-serif" font-size="14" lengthAdjust="spacing" textLength="83" x="980" y="111.7285">:Repositories</text><rect fill="#E3E3E3" height="51.2422" rx="2.5" ry="2.5" style="stroke:#181818;stroke-width:0.5;" width="97" x="973" y="2055.1992"/><text fill="#000000" font-family="sans-serif" font-size="14" lengthAdjust="spacing" textLength="74" x="984.5" y="2077.3066">repositories</text><text fill="#000000" font-family="sans-serif" font-size="14" lengthAdjust="spacing" textLength="83" x="980" y="2095.9277">:Repositories</text><rect fill="#E3E3E3" height="51.2422" rx="2.5" ry="2.5" style="stroke:#181818;stroke-width:0.5;" width="176" x="1080" y="71"/><text fill="#000000" font-family="sans-serif" font-size="14" lengthAdjust="spacing" textLength="157" x="1089.5" y="93.1074">authenticationRepository</text><text fill="#000000" font-family="sans-serif" font-size="14" lengthAdjust="spacing" textLength="162" x="1087" y="111.7285">:AuthenticationRepository</text><rect fill="#E3E3E3" height="51.2422" rx="2.5" ry="2.5" style="stroke:#181818;stroke-width:0.5;" width="176" x="1080" y="2055.1992"/><text fill="#000000" font-family="sans-serif" font-size="14" lengthAdjust="spacing" textLength="157" x="1089.5" y="2077.3066">authenticationRepository</text><text fill="#000000" font-family="sans-serif" font-size="14" lengthAdjust="spacing" textLength="162" x="1087" y="2095.9277">:AuthenticationRepository</text><rect fill="#E3E3E3" height="51.2422" rx="2.5" ry="2.5" style="stroke:#181818;stroke-width:0.5;" width="101" x="1266" y="71"/><text fill="#000000" font-family="sans-serif" font-size="14" lengthAdjust="spacing" textLength="78" x="1277.5" y="93.1074">userSession</text><text fill="#000000" font-family="sans-serif" font-size="14" lengthAdjust="spacing" textLength="87" x="1273" y="111.7285">:User Session</text><rect fill="#E3E3E3" height="51.2422" rx="2.5" ry="2.5" style="stroke:#181818;stroke-width:0.5;" width="101" x="1266" y="2055.1992"/><text fill="#000000" font-family="sans-serif" font-size="14" lengthAdjust="spacing" textLength="78" x="1277.5" y="2077.3066">userSession</text><text fill="#000000" font-family="sans-serif" font-size="14" lengthAdjust="spacing" textLength="87" x="1273" y="2095.9277">:User Session</text><rect fill="#E3E3E3" height="51.2422" rx="2.5" ry="2.5" style="stroke:#181818;stroke-width:0.5;" width="143" x="1377" y="71"/><text fill="#000000" font-family="sans-serif" font-size="14" lengthAdjust="spacing" textLength="125" x="1386" y="93.1074">messageRepository</text><text fill="#000000" font-family="sans-serif" font-size="14" lengthAdjust="spacing" textLength="129" x="1384" y="111.7285">:MessageRepository</text><rect fill="#E3E3E3" height="51.2422" rx="2.5" ry="2.5" style="stroke:#181818;stroke-width:0.5;" width="143" x="1377" y="2055.1992"/><text fill="#000000" font-family="sans-serif" font-size="14" lengthAdjust="spacing" textLength="125" x="1386" y="2077.3066">messageRepository</text><text fill="#000000" font-family="sans-serif" font-size="14" lengthAdjust="spacing" textLength="129" x="1384" y="2095.9277">:MessageRepository</text><rect fill="#E3E3E3" height="32.6211" rx="2.5" ry="2.5" style="stroke:#181818;stroke-width:0.5;" width="122" x="1530" y="89.6211"/><text fill="#000000" font-family="sans-serif" font-size="14" lengthAdjust="spacing" textLength="108" x="1537" y="111.7285">:EditAndSortLists</text><rect fill="#E3E3E3" height="32.6211" rx="2.5" ry="2.5" style="stroke:#181818;stroke-width:0.5;" width="122" x="1530" y="2055.1992"/><text fill="#000000" font-family="sans-serif" font-size="14" lengthAdjust="spacing" textLength="108" x="1537" y="2077.3066">:EditAndSortLists</text><rect fill="#E3E3E3" height="32.6211" rx="2.5" ry="2.5" style="stroke:#181818;stroke-width:0.5;" width="82" x="1950" y="2055.1992"/><text fill="#000000" font-family="sans-serif" font-size="14" lengthAdjust="spacing" textLength="68" x="1957" y="2077.3066">:ConfigFile</text><rect fill="#E3E3E3" height="32.6211" rx="2.5" ry="2.5" style="stroke:#181818;stroke-width:0.5;" width="75" x="2042" y="89.6211"/><text fill="#000000" font-family="sans-serif" font-size="14" lengthAdjust="spacing" textLength="61" x="2049" y="111.7285">:Message</text><rect fill="#E3E3E3" height="32.6211" rx="2.5" ry="2.5" style="stroke:#181818;stroke-width:0.5;" width="75" x="2042" y="2055.1992"/><text fill="#000000" font-family="sans-serif" font-size="14" lengthAdjust="spacing" textLength="61" x="2049" y="2077.3066">:Message</text><rect fill="#FFFFFF" height="1904.957" style="stroke:#181818;stroke-width:1.0;" width="10" x="21.5" y="133.2422"/><rect fill="#FFFFFF" height="1007.0605" style="stroke:#181818;stroke-width:1.0;" width="10" x="290.5" y="173.8242"/><rect fill="#FFFFFF" height="826.0234" style="stroke:#181818;stroke-width:1.0;" width="10" x="290.5" y="1212.1758"/><rect fill="#FFFFFF" height="525.3652" style="stroke:#181818;stroke-width:1.0;" width="10" x="696.5" y="248.7363"/><rect fill="#FFFFFF" height="193.7461" style="stroke:#181818;stroke-width:1.0;" width="10" x="701.5" y="288.0273"/><rect fill="#FFFFFF" height="193.7461" style="stroke:#181818;stroke-width:1.0;" width="10" x="701.5" y="535.0645"/><rect fill="#FFFFFF" height="281.6191" style="stroke:#181818;stroke-width:1.0;" width="10" x="696.5" y="805.3926"/><rect fill="#FFFFFF" height="31.291" style="stroke:#181818;stroke-width:1.0;" width="10" x="696.5" y="1118.3027"/><rect fill="#FFFFFF" height="31.291" style="stroke:#181818;stroke-width:1.0;" width="10" x="696.5" y="1243.4668"/><rect fill="#FFFFFF" height="31.291" style="stroke:#181818;stroke-width:1.0;" width="10" x="909.5" y="350.6094"/><rect fill="#FFFFFF" height="31.291" style="stroke:#181818;stroke-width:1.0;" width="10" x="909.5" y="597.6465"/><rect fill="#FFFFFF" height="31.291" style="stroke:#181818;stroke-width:1.0;" width="10" x="1016.5" y="413.1914"/><rect fill="#FFFFFF" height="31.291" style="stroke:#181818;stroke-width:1.0;" width="10" x="1016.5" y="660.2285"/><rect fill="#FFFFFF" height="31.291" style="stroke:#181818;stroke-width:1.0;" width="10" x="1163" y="836.6836"/><rect fill="#FFFFFF" height="31.291" style="stroke:#181818;stroke-width:1.0;" width="10" x="1311.5" y="899.2656"/><rect fill="#FFFFFF" height="31.291" style="stroke:#181818;stroke-width:1.0;" width="10" x="1443.5" y="961.8477"/><rect fill="#FFFFFF" height="31.291" style="stroke:#181818;stroke-width:1.0;" width="10" x="1586" y="1024.4297"/><rect fill="#FFFFFF" height="741.1504" style="stroke:#181818;stroke-width:1.0;" width="10" x="1586" y="1306.0488"/><rect fill="#FFFFFF" height="104.873" style="stroke:#181818;stroke-width:1.0;" width="10" x="1591" y="1477.834"/><rect fill="#FFFFFF" height="282.0371" style="stroke:#181818;stroke-width:1.0;" width="10" x="1591" y="1662.2891"/><rect fill="#FFFFFF" height="193.4551" style="stroke:#181818;stroke-width:1.0;" width="10" x="1596" y="1706.5801"/><rect fill="#FFFFFF" height="104.873" style="stroke:#181818;stroke-width:1.0;" width="10" x="1601" y="1750.8711"/><rect fill="#FFFFFF" height="31.291" style="stroke:#181818;stroke-width:1.0;" width="10" x="1986" y="1380.9609"/><rect fill="#FFFFFF" height="31.291" style="stroke:#181818;stroke-width:1.0;" width="10" x="2074.5" y="1514.125"/><rect fill="#FFFFFF" height="31.291" style="stroke:#181818;stroke-width:1.0;" width="10" x="2074.5" y="1787.1621"/><polygon fill="#181818" points="278.5,169.8242,288.5,173.8242,278.5,177.8242,282.5,173.8242" style="stroke:#181818;stroke-width:1.0;"/><line style="stroke:#181818;stroke-width:1.0;" x1="31.5" x2="284.5" y1="173.8242" y2="173.8242"/><text fill="#000000" font-family="sans-serif" font-size="13" font-weight="bold" lengthAdjust="spacing" textLength="7" x="38.5" y="159.916">1</text><text fill="#000000" font-family="sans-serif" font-size="13" lengthAdjust="spacing" textLength="210" x="49.5" y="151.2705">requests to see all booking requests</text><text fill="#000000" font-family="sans-serif" font-size="13" lengthAdjust="spacing" textLength="73" x="49.5" y="168.5615">sent to them</text><polygon fill="#181818" points="613,201.1152,623,205.1152,613,209.1152,617,205.1152" style="stroke:#181818;stroke-width:1.0;"/><line style="stroke:#181818;stroke-width:1.0;" x1="300.5" x2="619" y1="205.1152" y2="205.1152"/><text fill="#000000" font-family="sans-serif" font-size="13" font-weight="bold" lengthAdjust="spacing" textLength="7" x="307.5" y="199.8525">2</text><text fill="#000000" font-family="sans-serif" font-size="13" lengthAdjust="spacing" textLength="36" x="318.5" y="199.8525">create</text><rect fill="#E3E3E3" height="32.6211" rx="2.5" ry="2.5" style="stroke:#181818;stroke-width:0.5;" width="153" x="625" y="181.8242"/><text fill="#000000" font-family="sans-serif" font-size="14" lengthAdjust="spacing" textLength="139" x="632" y="203.9316">:CheckVisitsController</text><polygon fill="#181818" points="684.5,244.7363,694.5,248.7363,684.5,252.7363,688.5,248.7363" style="stroke:#181818;stroke-width:1.0;"/><line style="stroke:#181818;stroke-width:1.0;" x1="300.5" x2="690.5" y1="248.7363" y2="248.7363"/><text fill="#000000" font-family="sans-serif" font-size="13" font-weight="bold" lengthAdjust="spacing" textLength="7" x="307.5" y="243.4736">3</text><text fill="#000000" font-family="sans-serif" font-size="13" lengthAdjust="spacing" textLength="133" x="318.5" y="243.4736">CheckVisitsController()</text><line style="stroke:#181818;stroke-width:1.0;" x1="706.5" x2="753.5" y1="275.0273" y2="275.0273"/><line style="stroke:#181818;stroke-width:1.0;" x1="753.5" x2="753.5" y1="275.0273" y2="288.0273"/><line style="stroke:#181818;stroke-width:1.0;" x1="712.5" x2="753.5" y1="288.0273" y2="288.0273"/><polygon fill="#181818" points="722.5,284.0273,712.5,288.0273,722.5,292.0273,718.5,288.0273" style="stroke:#181818;stroke-width:1.0;"/><text fill="#000000" font-family="sans-serif" font-size="13" font-weight="bold" lengthAdjust="spacing" textLength="7" x="718.5" y="269.7646">4</text><text fill="#000000" font-family="sans-serif" font-size="13" lengthAdjust="spacing" textLength="141" x="729.5" y="269.7646">getMessageRepository()</text><path d="M615,308.0273 L676,308.0273 L676,317.3184 L666,327.3184 L615,327.3184 L615,308.0273 " fill="#EEEEEE" style="stroke:#000000;stroke-width:1.5;"/><rect fill="none" height="188.7461" style="stroke:#000000;stroke-width:1.5;" width="465" x="615" y="308.0273"/><text fill="#000000" font-family="sans-serif" font-size="13" font-weight="bold" lengthAdjust="spacing" textLength="16" x="630" y="323.0557">alt</text><text fill="#000000" font-family="sans-serif" font-size="11" font-weight="bold" lengthAdjust="spacing" textLength="152" x="691" y="321.8975">[messageRepository = null]</text><polygon fill="#181818" points="897.5,346.6094,907.5,350.6094,897.5,354.6094,901.5,350.6094" style="stroke:#181818;stroke-width:1.0;"/><line style="stroke:#181818;stroke-width:1.0;" x1="711.5" x2="903.5" y1="350.6094" y2="350.6094"/><text fill="#000000" font-family="sans-serif" font-size="13" font-weight="bold" lengthAdjust="spacing" textLength="7" x="718.5" y="345.3467">5</text><text fill="#000000" font-family="sans-serif" font-size="13" lengthAdjust="spacing" textLength="75" x="729.5" y="345.3467">getInstance()</text><polygon fill="#181818" points="722.5,377.9004,712.5,381.9004,722.5,385.9004,718.5,381.9004" style="stroke:#181818;stroke-width:1.0;"/><line style="stroke:#181818;stroke-width:1.0;stroke-dasharray:2.0,2.0;" x1="716.5" x2="913.5" y1="381.9004" y2="381.9004"/><text fill="#000000" font-family="sans-serif" font-size="13" font-weight="bold" lengthAdjust="spacing" textLength="7" x="728.5" y="376.6377">6</text><text fill="#000000" font-family="sans-serif" font-size="13" lengthAdjust="spacing" textLength="67" x="739.5" y="376.6377">repositories</text><polygon fill="#181818" points="1004.5,409.1914,1014.5,413.1914,1004.5,417.1914,1008.5,413.1914" style="stroke:#181818;stroke-width:1.0;"/><line style="stroke:#181818;stroke-width:1.0;" x1="711.5" x2="1010.5" y1="413.1914" y2="413.1914"/><text fill="#000000" font-family="sans-serif" font-size="13" font-weight="bold" lengthAdjust="spacing" textLength="7" x="718.5" y="407.9287">7</text><text fill="#000000" font-family="sans-serif" font-size="13" lengthAdjust="spacing" textLength="141" x="729.5" y="407.9287">getMessageRepository()</text><polygon fill="#181818" points="722.5,440.4824,712.5,444.4824,722.5,448.4824,718.5,444.4824" style="stroke:#181818;stroke-width:1.0;"/><line style="stroke:#181818;stroke-width:1.0;stroke-dasharray:2.0,2.0;" x1="716.5" x2="1020.5" y1="444.4824" y2="444.4824"/><text fill="#000000" font-family="sans-serif" font-size="13" font-weight="bold" lengthAdjust="spacing" textLength="7" x="728.5" y="439.2197">8</text><text fill="#000000" font-family="sans-serif" font-size="13" lengthAdjust="spacing" textLength="115" x="739.5" y="439.2197">messageRepository</text><line style="stroke:#181818;stroke-width:1.0;stroke-dasharray:2.0,2.0;" x1="711.5" x2="753.5" y1="480.7734" y2="480.7734"/><line style="stroke:#181818;stroke-width:1.0;stroke-dasharray:2.0,2.0;" x1="753.5" x2="753.5" y1="480.7734" y2="493.7734"/><line style="stroke:#181818;stroke-width:1.0;stroke-dasharray:2.0,2.0;" x1="706.5" x2="753.5" y1="493.7734" y2="493.7734"/><polygon fill="#181818" points="716.5,489.7734,706.5,493.7734,716.5,497.7734,712.5,493.7734" style="stroke:#181818;stroke-width:1.0;"/><text fill="#000000" font-family="sans-serif" font-size="13" font-weight="bold" lengthAdjust="spacing" textLength="7" x="718.5" y="475.5107">9</text><text fill="#000000" font-family="sans-serif" font-size="13" lengthAdjust="spacing" textLength="115" x="729.5" y="475.5107">messageRepository</text><line style="stroke:#181818;stroke-width:1.0;" x1="706.5" x2="753.5" y1="522.0645" y2="522.0645"/><line style="stroke:#181818;stroke-width:1.0;" x1="753.5" x2="753.5" y1="522.0645" y2="535.0645"/><line style="stroke:#181818;stroke-width:1.0;" x1="712.5" x2="753.5" y1="535.0645" y2="535.0645"/><polygon fill="#181818" points="722.5,531.0645,712.5,535.0645,722.5,539.0645,718.5,535.0645" style="stroke:#181818;stroke-width:1.0;"/><text fill="#000000" font-family="sans-serif" font-size="13" font-weight="bold" lengthAdjust="spacing" textLength="14" x="718.5" y="516.8018">10</text><text fill="#000000" font-family="sans-serif" font-size="13" lengthAdjust="spacing" textLength="171" x="736.5" y="516.8018">getAuthenticationRepository()</text><path d="M615,555.0645 L676,555.0645 L676,564.3555 L666,574.3555 L615,574.3555 L615,555.0645 " fill="#EEEEEE" style="stroke:#000000;stroke-width:1.5;"/><rect fill="none" height="188.7461" style="stroke:#000000;stroke-width:1.5;" width="465" x="615" y="555.0645"/><text fill="#000000" font-family="sans-serif" font-size="13" font-weight="bold" lengthAdjust="spacing" textLength="16" x="630" y="570.0928">alt</text><text fill="#000000" font-family="sans-serif" font-size="11" font-weight="bold" lengthAdjust="spacing" textLength="178" x="691" y="568.9346">[authenticationRepository = null]</text><polygon fill="#181818" points="897.5,593.6465,907.5,597.6465,897.5,601.6465,901.5,597.6465" style="stroke:#181818;stroke-width:1.0;"/><line style="stroke:#181818;stroke-width:1.0;" x1="711.5" x2="903.5" y1="597.6465" y2="597.6465"/><text fill="#000000" font-family="sans-serif" font-size="13" font-weight="bold" lengthAdjust="spacing" textLength="14" x="718.5" y="592.3838">11</text><text fill="#000000" font-family="sans-serif" font-size="13" lengthAdjust="spacing" textLength="75" x="736.5" y="592.3838">getInstance()</text><polygon fill="#181818" points="722.5,624.9375,712.5,628.9375,722.5,632.9375,718.5,628.9375" style="stroke:#181818;stroke-width:1.0;"/><line style="stroke:#181818;stroke-width:1.0;stroke-dasharray:2.0,2.0;" x1="716.5" x2="913.5" y1="628.9375" y2="628.9375"/><text fill="#000000" font-family="sans-serif" font-size="13" font-weight="bold" lengthAdjust="spacing" textLength="14" x="728.5" y="623.6748">12</text><text fill="#000000" font-family="sans-serif" font-size="13" lengthAdjust="spacing" textLength="67" x="746.5" y="623.6748">repositories</text><polygon fill="#181818" points="1004.5,656.2285,1014.5,660.2285,1004.5,664.2285,1008.5,660.2285" style="stroke:#181818;stroke-width:1.0;"/><line style="stroke:#181818;stroke-width:1.0;" x1="711.5" x2="1010.5" y1="660.2285" y2="660.2285"/><text fill="#000000" font-family="sans-serif" font-size="13" font-weight="bold" lengthAdjust="spacing" textLength="14" x="718.5" y="654.9658">13</text><text fill="#000000" font-family="sans-serif" font-size="13" lengthAdjust="spacing" textLength="171" x="736.5" y="654.9658">getAuthenticationRepository()</text><polygon fill="#181818" points="722.5,687.5195,712.5,691.5195,722.5,695.5195,718.5,691.5195" style="stroke:#181818;stroke-width:1.0;"/><line style="stroke:#181818;stroke-width:1.0;stroke-dasharray:2.0,2.0;" x1="716.5" x2="1020.5" y1="691.5195" y2="691.5195"/><text fill="#000000" font-family="sans-serif" font-size="13" font-weight="bold" lengthAdjust="spacing" textLength="14" x="728.5" y="686.2568">14</text><text fill="#000000" font-family="sans-serif" font-size="13" lengthAdjust="spacing" textLength="143" x="746.5" y="686.2568">authenticationRepository</text><line style="stroke:#181818;stroke-width:1.0;stroke-dasharray:2.0,2.0;" x1="711.5" x2="753.5" y1="727.8105" y2="727.8105"/><line style="stroke:#181818;stroke-width:1.0;stroke-dasharray:2.0,2.0;" x1="753.5" x2="753.5" y1="727.8105" y2="740.8105"/><line style="stroke:#181818;stroke-width:1.0;stroke-dasharray:2.0,2.0;" x1="706.5" x2="753.5" y1="740.8105" y2="740.8105"/><polygon fill="#181818" points="716.5,736.8105,706.5,740.8105,716.5,744.8105,712.5,740.8105" style="stroke:#181818;stroke-width:1.0;"/><text fill="#000000" font-family="sans-serif" font-size="13" font-weight="bold" lengthAdjust="spacing" textLength="14" x="718.5" y="722.5479">15</text><text fill="#000000" font-family="sans-serif" font-size="13" lengthAdjust="spacing" textLength="143" x="736.5" y="722.5479">authenticationRepository</text><polygon fill="#181818" points="311.5,770.1016,301.5,774.1016,311.5,778.1016,307.5,774.1016" style="stroke:#181818;stroke-width:1.0;"/><line style="stroke:#181818;stroke-width:1.0;stroke-dasharray:2.0,2.0;" x1="305.5" x2="700.5" y1="774.1016" y2="774.1016"/><text fill="#000000" font-family="sans-serif" font-size="13" font-weight="bold" lengthAdjust="spacing" textLength="14" x="317.5" y="768.8389">16</text><text fill="#000000" font-family="sans-serif" font-size="13" lengthAdjust="spacing" textLength="4" x="335.5" y="768.8389">&#160;</text><polygon fill="#181818" points="684.5,801.3926,694.5,805.3926,684.5,809.3926,688.5,805.3926" style="stroke:#181818;stroke-width:1.0;"/><line style="stroke:#181818;stroke-width:1.0;" x1="300.5" x2="690.5" y1="805.3926" y2="805.3926"/><text fill="#000000" font-family="sans-serif" font-size="13" font-weight="bold" lengthAdjust="spacing" textLength="14" x="307.5" y="800.1299">17</text><text fill="#000000" font-family="sans-serif" font-size="13" lengthAdjust="spacing" textLength="86" x="325.5" y="800.1299">getMessages()</text><polygon fill="#181818" points="1151,832.6836,1161,836.6836,1151,840.6836,1155,836.6836" style="stroke:#181818;stroke-width:1.0;"/><line style="stroke:#181818;stroke-width:1.0;" x1="706.5" x2="1157" y1="836.6836" y2="836.6836"/><text fill="#000000" font-family="sans-serif" font-size="13" font-weight="bold" lengthAdjust="spacing" textLength="14" x="713.5" y="831.4209">18</text><text fill="#000000" font-family="sans-serif" font-size="13" lengthAdjust="spacing" textLength="142" x="731.5" y="831.4209">getCurrentUserSession()</text><polygon fill="#181818" points="717.5,863.9746,707.5,867.9746,717.5,871.9746,713.5,867.9746" style="stroke:#181818;stroke-width:1.0;"/><line style="stroke:#181818;stroke-width:1.0;stroke-dasharray:2.0,2.0;" x1="711.5" x2="1167" y1="867.9746" y2="867.9746"/><text fill="#000000" font-family="sans-serif" font-size="13" font-weight="bold" lengthAdjust="spacing" textLength="14" x="723.5" y="862.7119">19</text><text fill="#000000" font-family="sans-serif" font-size="13" lengthAdjust="spacing" textLength="72" x="741.5" y="862.7119">userSession</text><polygon fill="#181818" points="1299.5,895.2656,1309.5,899.2656,1299.5,903.2656,1303.5,899.2656" style="stroke:#181818;stroke-width:1.0;"/><line style="stroke:#181818;stroke-width:1.0;" x1="706.5" x2="1305.5" y1="899.2656" y2="899.2656"/><text fill="#000000" font-family="sans-serif" font-size="13" font-weight="bold" lengthAdjust="spacing" textLength="14" x="713.5" y="894.0029">20</text><text fill="#000000" font-family="sans-serif" font-size="13" lengthAdjust="spacing" textLength="57" x="731.5" y="894.0029">getUserID</text><polygon fill="#181818" points="717.5,926.5566,707.5,930.5566,717.5,934.5566,713.5,930.5566" style="stroke:#181818;stroke-width:1.0;"/><line style="stroke:#181818;stroke-width:1.0;stroke-dasharray:2.0,2.0;" x1="711.5" x2="1315.5" y1="930.5566" y2="930.5566"/><text fill="#000000" font-family="sans-serif" font-size="13" font-weight="bold" lengthAdjust="spacing" textLength="14" x="723.5" y="925.2939">21</text><text fill="#000000" font-family="sans-serif" font-size="13" lengthAdjust="spacing" textLength="44" x="741.5" y="925.2939">agentID</text><polygon fill="#181818" points="1431.5,957.8477,1441.5,961.8477,1431.5,965.8477,1435.5,961.8477" style="stroke:#181818;stroke-width:1.0;"/><line style="stroke:#181818;stroke-width:1.0;" x1="706.5" x2="1437.5" y1="961.8477" y2="961.8477"/><text fill="#000000" font-family="sans-serif" font-size="13" font-weight="bold" lengthAdjust="spacing" textLength="14" x="713.5" y="956.585">22</text><text fill="#000000" font-family="sans-serif" font-size="13" lengthAdjust="spacing" textLength="86" x="731.5" y="956.585">getMessages()</text><polygon fill="#181818" points="717.5,989.1387,707.5,993.1387,717.5,997.1387,713.5,993.1387" style="stroke:#181818;stroke-width:1.0;"/><line style="stroke:#181818;stroke-width:1.0;stroke-dasharray:2.0,2.0;" x1="711.5" x2="1447.5" y1="993.1387" y2="993.1387"/><text fill="#000000" font-family="sans-serif" font-size="13" font-weight="bold" lengthAdjust="spacing" textLength="14" x="723.5" y="987.876">23</text><text fill="#000000" font-family="sans-serif" font-size="13" lengthAdjust="spacing" textLength="60" x="741.5" y="987.876">messages</text><polygon fill="#181818" points="1574,1020.4297,1584,1024.4297,1574,1028.4297,1578,1024.4297" style="stroke:#181818;stroke-width:1.0;"/><line style="stroke:#181818;stroke-width:1.0;" x1="706.5" x2="1580" y1="1024.4297" y2="1024.4297"/><text fill="#000000" font-family="sans-serif" font-size="13" font-weight="bold" lengthAdjust="spacing" textLength="14" x="713.5" y="1019.167">24</text><text fill="#000000" font-family="sans-serif" font-size="13" lengthAdjust="spacing" textLength="231" x="731.5" y="1019.167">getMessagesDoneToXAgent(messages)</text><polygon fill="#181818" points="717.5,1051.7207,707.5,1055.7207,717.5,1059.7207,713.5,1055.7207" style="stroke:#181818;stroke-width:1.0;"/><line style="stroke:#181818;stroke-width:1.0;stroke-dasharray:2.0,2.0;" x1="711.5" x2="1590" y1="1055.7207" y2="1055.7207"/><text fill="#000000" font-family="sans-serif" font-size="13" font-weight="bold" lengthAdjust="spacing" textLength="14" x="723.5" y="1050.458">25</text><text fill="#000000" font-family="sans-serif" font-size="13" lengthAdjust="spacing" textLength="60" x="741.5" y="1050.458">messages</text><polygon fill="#181818" points="311.5,1083.0117,301.5,1087.0117,311.5,1091.0117,307.5,1087.0117" style="stroke:#181818;stroke-width:1.0;"/><line style="stroke:#181818;stroke-width:1.0;stroke-dasharray:2.0,2.0;" x1="305.5" x2="700.5" y1="1087.0117" y2="1087.0117"/><text fill="#000000" font-family="sans-serif" font-size="13" font-weight="bold" lengthAdjust="spacing" textLength="14" x="317.5" y="1081.749">26</text><text fill="#000000" font-family="sans-serif" font-size="13" lengthAdjust="spacing" textLength="74" x="335.5" y="1081.749">messageList</text><polygon fill="#181818" points="684.5,1114.3027,694.5,1118.3027,684.5,1122.3027,688.5,1118.3027" style="stroke:#181818;stroke-width:1.0;"/><line style="stroke:#181818;stroke-width:1.0;" x1="300.5" x2="690.5" y1="1118.3027" y2="1118.3027"/><text fill="#000000" font-family="sans-serif" font-size="13" font-weight="bold" lengthAdjust="spacing" textLength="14" x="307.5" y="1113.04">27</text><text fill="#000000" font-family="sans-serif" font-size="13" lengthAdjust="spacing" textLength="134" x="325.5" y="1113.04">getDates(messageList)</text><polygon fill="#181818" points="311.5,1145.5938,301.5,1149.5938,311.5,1153.5938,307.5,1149.5938" style="stroke:#181818;stroke-width:1.0;"/><line style="stroke:#181818;stroke-width:1.0;stroke-dasharray:2.0,2.0;" x1="305.5" x2="700.5" y1="1149.5938" y2="1149.5938"/><text fill="#000000" font-family="sans-serif" font-size="13" font-weight="bold" lengthAdjust="spacing" textLength="14" x="317.5" y="1144.3311">28</text><text fill="#000000" font-family="sans-serif" font-size="13" lengthAdjust="spacing" textLength="46" x="335.5" y="1144.3311">dateList</text><polygon fill="#181818" points="42.5,1176.8848,32.5,1180.8848,42.5,1184.8848,38.5,1180.8848" style="stroke:#181818;stroke-width:1.0;"/><line style="stroke:#181818;stroke-width:1.0;stroke-dasharray:2.0,2.0;" x1="36.5" x2="294.5" y1="1180.8848" y2="1180.8848"/><text fill="#000000" font-family="sans-serif" font-size="13" font-weight="bold" lengthAdjust="spacing" textLength="14" x="48.5" y="1175.6221">29</text><text fill="#000000" font-family="sans-serif" font-size="13" lengthAdjust="spacing" textLength="212" x="66.5" y="1175.6221">asks for them to select a time period</text><polygon fill="#181818" points="278.5,1208.1758,288.5,1212.1758,278.5,1216.1758,282.5,1212.1758" style="stroke:#181818;stroke-width:1.0;"/><line style="stroke:#181818;stroke-width:1.0;" x1="31.5" x2="284.5" y1="1212.1758" y2="1212.1758"/><text fill="#000000" font-family="sans-serif" font-size="13" font-weight="bold" lengthAdjust="spacing" textLength="14" x="38.5" y="1206.9131">30</text><text fill="#000000" font-family="sans-serif" font-size="13" lengthAdjust="spacing" textLength="185" x="56.5" y="1206.9131">selects begin date and end date</text><polygon fill="#181818" points="684.5,1239.4668,694.5,1243.4668,684.5,1247.4668,688.5,1243.4668" style="stroke:#181818;stroke-width:1.0;"/><line style="stroke:#181818;stroke-width:1.0;" x1="300.5" x2="690.5" y1="1243.4668" y2="1243.4668"/><text fill="#000000" font-family="sans-serif" font-size="13" font-weight="bold" lengthAdjust="spacing" textLength="14" x="307.5" y="1238.2041">31</text><text fill="#000000" font-family="sans-serif" font-size="13" lengthAdjust="spacing" textLength="359" x="325.5" y="1238.2041">changeListWithTimePeriod(messageList, beginDate, endDate)</text><polygon fill="#181818" points="311.5,1270.7578,301.5,1274.7578,311.5,1278.7578,307.5,1274.7578" style="stroke:#181818;stroke-width:1.0;"/><line style="stroke:#181818;stroke-width:1.0;stroke-dasharray:2.0,2.0;" x1="305.5" x2="700.5" y1="1274.7578" y2="1274.7578"/><text fill="#000000" font-family="sans-serif" font-size="13" font-weight="bold" lengthAdjust="spacing" textLength="14" x="317.5" y="1269.4951">32</text><text fill="#000000" font-family="sans-serif" font-size="13" lengthAdjust="spacing" textLength="74" x="335.5" y="1269.4951">messageList</text><polygon fill="#181818" points="1574,1302.0488,1584,1306.0488,1574,1310.0488,1578,1306.0488" style="stroke:#181818;stroke-width:1.0;"/><line style="stroke:#181818;stroke-width:1.0;" x1="300.5" x2="1580" y1="1306.0488" y2="1306.0488"/><text fill="#000000" font-family="sans-serif" font-size="13" font-weight="bold" lengthAdjust="spacing" textLength="14" x="307.5" y="1300.7861">33</text><text fill="#000000" font-family="sans-serif" font-size="13" lengthAdjust="spacing" textLength="228" x="325.5" y="1300.7861">sortListThroughConfigFile(messageList)</text><polygon fill="#181818" points="1938,1333.3398,1948,1337.3398,1938,1341.3398,1942,1337.3398" style="stroke:#181818;stroke-width:1.0;"/><line style="stroke:#181818;stroke-width:1.0;" x1="1596" x2="1944" y1="1337.3398" y2="1337.3398"/><text fill="#000000" font-family="sans-serif" font-size="13" font-weight="bold" lengthAdjust="spacing" textLength="14" x="1603" y="1332.0771">34</text><text fill="#000000" font-family="sans-serif" font-size="13" lengthAdjust="spacing" textLength="36" x="1621" y="1332.0771">create</text><rect fill="#E3E3E3" height="32.6211" rx="2.5" ry="2.5" style="stroke:#181818;stroke-width:0.5;" width="82" x="1950" y="1314.0488"/><text fill="#000000" font-family="sans-serif" font-size="14" lengthAdjust="spacing" textLength="68" x="1957" y="1336.1563">:ConfigFile</text><polygon fill="#181818" points="1974,1376.9609,1984,1380.9609,1974,1384.9609,1978,1380.9609" style="stroke:#181818;stroke-width:1.0;"/><line style="stroke:#181818;stroke-width:1.0;" x1="1596" x2="1980" y1="1380.9609" y2="1380.9609"/><text fill="#000000" font-family="sans-serif" font-size="13" font-weight="bold" lengthAdjust="spacing" textLength="14" x="1603" y="1375.6982">35</text><text fill="#000000" font-family="sans-serif" font-size="13" lengthAdjust="spacing" textLength="138" x="1621" y="1375.6982">getProperty("algorithm")</text><polygon fill="#181818" points="1607,1408.252,1597,1412.252,1607,1416.252,1603,1412.252" style="stroke:#181818;stroke-width:1.0;"/><line style="stroke:#181818;stroke-width:1.0;stroke-dasharray:2.0,2.0;" x1="1601" x2="1990" y1="1412.252" y2="1412.252"/><text fill="#000000" font-family="sans-serif" font-size="13" font-weight="bold" lengthAdjust="spacing" textLength="14" x="1613" y="1406.9893">36</text><text fill="#000000" font-family="sans-serif" font-size="13" lengthAdjust="spacing" textLength="53" x="1631" y="1406.9893">algorithm</text><path d="M1520,1427.252 L1581,1427.252 L1581,1436.543 L1571,1446.543 L1520,1446.543 L1520,1427.252 " fill="#EEEEEE" style="stroke:#000000;stroke-width:1.5;"/><rect fill="none" height="170.4551" style="stroke:#000000;stroke-width:1.5;" width="607" x="1520" y="1427.252"/><text fill="#000000" font-family="sans-serif" font-size="13" font-weight="bold" lengthAdjust="spacing" textLength="16" x="1535" y="1442.2803">alt</text><text fill="#000000" font-family="sans-serif" font-size="11" font-weight="bold" lengthAdjust="spacing" textLength="111" x="1596" y="1441.1221">[algorithm = bubble]</text><line style="stroke:#181818;stroke-width:1.0;" x1="1596" x2="1643" y1="1464.834" y2="1464.834"/><line style="stroke:#181818;stroke-width:1.0;" x1="1643" x2="1643" y1="1464.834" y2="1477.834"/><line style="stroke:#181818;stroke-width:1.0;" x1="1602" x2="1643" y1="1477.834" y2="1477.834"/><polygon fill="#181818" points="1612,1473.834,1602,1477.834,1612,1481.834,1608,1477.834" style="stroke:#181818;stroke-width:1.0;"/><text fill="#000000" font-family="sans-serif" font-size="13" font-weight="bold" lengthAdjust="spacing" textLength="14" x="1608" y="1459.5713">37</text><text fill="#000000" font-family="sans-serif" font-size="13" lengthAdjust="spacing" textLength="87" x="1626" y="1459.5713">bubbleSort(list)</text><polygon fill="#181818" points="2062.5,1510.125,2072.5,1514.125,2062.5,1518.125,2066.5,1514.125" style="stroke:#181818;stroke-width:1.0;"/><line style="stroke:#181818;stroke-width:1.0;" x1="1601" x2="2068.5" y1="1514.125" y2="1514.125"/><text fill="#000000" font-family="sans-serif" font-size="13" font-weight="bold" lengthAdjust="spacing" textLength="14" x="1608" y="1508.8623">38</text><text fill="#000000" font-family="sans-serif" font-size="13" lengthAdjust="spacing" textLength="198" x="1626" y="1508.8623">getPreferredDateInComparableInt()</text><polygon fill="#181818" points="1612,1541.416,1602,1545.416,1612,1549.416,1608,1545.416" style="stroke:#181818;stroke-width:1.0;"/><line style="stroke:#181818;stroke-width:1.0;stroke-dasharray:2.0,2.0;" x1="1606" x2="2078.5" y1="1545.416" y2="1545.416"/><text fill="#000000" font-family="sans-serif" font-size="13" font-weight="bold" lengthAdjust="spacing" textLength="14" x="1618" y="1540.1533">39</text><text fill="#000000" font-family="sans-serif" font-size="13" lengthAdjust="spacing" textLength="91" x="1636" y="1540.1533">preferredDateInt</text><line style="stroke:#181818;stroke-width:1.0;stroke-dasharray:2.0,2.0;" x1="1601" x2="1643" y1="1581.707" y2="1581.707"/><line style="stroke:#181818;stroke-width:1.0;stroke-dasharray:2.0,2.0;" x1="1643" x2="1643" y1="1581.707" y2="1594.707"/><line style="stroke:#181818;stroke-width:1.0;stroke-dasharray:2.0,2.0;" x1="1596" x2="1643" y1="1594.707" y2="1594.707"/><polygon fill="#181818" points="1606,1590.707,1596,1594.707,1606,1598.707,1602,1594.707" style="stroke:#181818;stroke-width:1.0;"/><text fill="#000000" font-family="sans-serif" font-size="13" font-weight="bold" lengthAdjust="spacing" textLength="14" x="1608" y="1576.4443">40</text><text fill="#000000" font-family="sans-serif" font-size="13" lengthAdjust="spacing" textLength="17" x="1626" y="1576.4443">list</text><path d="M1520,1611.707 L1581,1611.707 L1581,1620.998 L1571,1630.998 L1520,1630.998 L1520,1611.707 " fill="#EEEEEE" style="stroke:#000000;stroke-width:1.5;"/><rect fill="none" height="347.6191" style="stroke:#000000;stroke-width:1.5;" width="607" x="1520" y="1611.707"/><text fill="#000000" font-family="sans-serif" font-size="13" font-weight="bold" lengthAdjust="spacing" textLength="16" x="1535" y="1626.7354">alt</text><text fill="#000000" font-family="sans-serif" font-size="11" font-weight="bold" lengthAdjust="spacing" textLength="110" x="1596" y="1625.5771">[algorithm = merge]</text><line style="stroke:#181818;stroke-width:1.0;" x1="1596" x2="1643" y1="1649.2891" y2="1649.2891"/><line style="stroke:#181818;stroke-width:1.0;" x1="1643" x2="1643" y1="1649.2891" y2="1662.2891"/><line style="stroke:#181818;stroke-width:1.0;" x1="1602" x2="1643" y1="1662.2891" y2="1662.2891"/><polygon fill="#181818" points="1612,1658.2891,1602,1662.2891,1612,1666.2891,1608,1662.2891" style="stroke:#181818;stroke-width:1.0;"/><text fill="#000000" font-family="sans-serif" font-size="13" font-weight="bold" lengthAdjust="spacing" textLength="14" x="1608" y="1644.0264">41</text><text fill="#000000" font-family="sans-serif" font-size="13" lengthAdjust="spacing" textLength="155" x="1626" y="1644.0264">genericMergeSortStart(list)</text><line style="stroke:#181818;stroke-width:1.0;" x1="1601" x2="1648" y1="1693.5801" y2="1693.5801"/><line style="stroke:#181818;stroke-width:1.0;" x1="1648" x2="1648" y1="1693.5801" y2="1706.5801"/><line style="stroke:#181818;stroke-width:1.0;" x1="1607" x2="1648" y1="1706.5801" y2="1706.5801"/><polygon fill="#181818" points="1617,1702.5801,1607,1706.5801,1617,1710.5801,1613,1706.5801" style="stroke:#181818;stroke-width:1.0;"/><text fill="#000000" font-family="sans-serif" font-size="13" font-weight="bold" lengthAdjust="spacing" textLength="14" x="1613" y="1688.3174">42</text><text fill="#000000" font-family="sans-serif" font-size="13" lengthAdjust="spacing" textLength="261" x="1631" y="1688.3174">mergeSortMessageList((List&lt;Message&gt;) list)</text><line style="stroke:#181818;stroke-width:1.0;" x1="1606" x2="1653" y1="1737.8711" y2="1737.8711"/><line style="stroke:#181818;stroke-width:1.0;" x1="1653" x2="1653" y1="1737.8711" y2="1750.8711"/><line style="stroke:#181818;stroke-width:1.0;" x1="1612" x2="1653" y1="1750.8711" y2="1750.8711"/><polygon fill="#181818" points="1622,1746.8711,1612,1750.8711,1622,1754.8711,1618,1750.8711" style="stroke:#181818;stroke-width:1.0;"/><text fill="#000000" font-family="sans-serif" font-size="13" font-weight="bold" lengthAdjust="spacing" textLength="14" x="1618" y="1732.6084">43</text><text fill="#000000" font-family="sans-serif" font-size="13" lengthAdjust="spacing" textLength="348" x="1636" y="1732.6084">mergeArrayList(messageList, leftSideOfList, rightSideOfList)</text><polygon fill="#181818" points="2062.5,1783.1621,2072.5,1787.1621,2062.5,1791.1621,2066.5,1787.1621" style="stroke:#181818;stroke-width:1.0;"/><line style="stroke:#181818;stroke-width:1.0;" x1="1611" x2="2068.5" y1="1787.1621" y2="1787.1621"/><text fill="#000000" font-family="sans-serif" font-size="13" font-weight="bold" lengthAdjust="spacing" textLength="14" x="1618" y="1781.8994">44</text><text fill="#000000" font-family="sans-serif" font-size="13" lengthAdjust="spacing" textLength="198" x="1636" y="1781.8994">getPreferredDateInComparableInt()</text><polygon fill="#181818" points="1622,1814.4531,1612,1818.4531,1622,1822.4531,1618,1818.4531" style="stroke:#181818;stroke-width:1.0;"/><line style="stroke:#181818;stroke-width:1.0;stroke-dasharray:2.0,2.0;" x1="1616" x2="2078.5" y1="1818.4531" y2="1818.4531"/><text fill="#000000" font-family="sans-serif" font-size="13" font-weight="bold" lengthAdjust="spacing" textLength="14" x="1628" y="1813.1904">45</text><text fill="#000000" font-family="sans-serif" font-size="13" lengthAdjust="spacing" textLength="91" x="1646" y="1813.1904">preferredDateInt</text><line style="stroke:#181818;stroke-width:1.0;stroke-dasharray:2.0,2.0;" x1="1611" x2="1653" y1="1854.7441" y2="1854.7441"/><line style="stroke:#181818;stroke-width:1.0;stroke-dasharray:2.0,2.0;" x1="1653" x2="1653" y1="1854.7441" y2="1867.7441"/><line style="stroke:#181818;stroke-width:1.0;stroke-dasharray:2.0,2.0;" x1="1606" x2="1653" y1="1867.7441" y2="1867.7441"/><polygon fill="#181818" points="1616,1863.7441,1606,1867.7441,1616,1871.7441,1612,1867.7441" style="stroke:#181818;stroke-width:1.0;"/><text fill="#000000" font-family="sans-serif" font-size="13" font-weight="bold" lengthAdjust="spacing" textLength="14" x="1618" y="1849.4814">46</text><text fill="#000000" font-family="sans-serif" font-size="13" lengthAdjust="spacing" textLength="4" x="1636" y="1849.4814">&#160;</text><line style="stroke:#181818;stroke-width:1.0;stroke-dasharray:2.0,2.0;" x1="1606" x2="1648" y1="1899.0352" y2="1899.0352"/><line style="stroke:#181818;stroke-width:1.0;stroke-dasharray:2.0,2.0;" x1="1648" x2="1648" y1="1899.0352" y2="1912.0352"/><line style="stroke:#181818;stroke-width:1.0;stroke-dasharray:2.0,2.0;" x1="1601" x2="1648" y1="1912.0352" y2="1912.0352"/><polygon fill="#181818" points="1611,1908.0352,1601,1912.0352,1611,1916.0352,1607,1912.0352" style="stroke:#181818;stroke-width:1.0;"/><text fill="#000000" font-family="sans-serif" font-size="13" font-weight="bold" lengthAdjust="spacing" textLength="14" x="1613" y="1893.7725">47</text><text fill="#000000" font-family="sans-serif" font-size="13" lengthAdjust="spacing" textLength="4" x="1631" y="1893.7725">&#160;</text><line style="stroke:#181818;stroke-width:1.0;stroke-dasharray:2.0,2.0;" x1="1601" x2="1643" y1="1943.3262" y2="1943.3262"/><line style="stroke:#181818;stroke-width:1.0;stroke-dasharray:2.0,2.0;" x1="1643" x2="1643" y1="1943.3262" y2="1956.3262"/><line style="stroke:#181818;stroke-width:1.0;stroke-dasharray:2.0,2.0;" x1="1596" x2="1643" y1="1956.3262" y2="1956.3262"/><polygon fill="#181818" points="1606,1952.3262,1596,1956.3262,1606,1960.3262,1602,1956.3262" style="stroke:#181818;stroke-width:1.0;"/><text fill="#000000" font-family="sans-serif" font-size="13" font-weight="bold" lengthAdjust="spacing" textLength="14" x="1608" y="1938.0635">48</text><text fill="#000000" font-family="sans-serif" font-size="13" lengthAdjust="spacing" textLength="17" x="1626" y="1938.0635">list</text><polygon fill="#181818" points="311.5,1985.6172,301.5,1989.6172,311.5,1993.6172,307.5,1989.6172" style="stroke:#181818;stroke-width:1.0;"/><line style="stroke:#181818;stroke-width:1.0;" x1="305.5" x2="1585" y1="1989.6172" y2="1989.6172"/><text fill="#000000" font-family="sans-serif" font-size="13" font-weight="bold" lengthAdjust="spacing" textLength="14" x="317.5" y="1984.3545">49</text><text fill="#000000" font-family="sans-serif" font-size="13" lengthAdjust="spacing" textLength="74" x="335.5" y="1984.3545">messageList</text><polygon fill="#181818" points="37.5,2034.1992,27.5,2038.1992,37.5,2042.1992,33.5,2038.1992" style="stroke:#181818;stroke-width:1.0;"/><line style="stroke:#181818;stroke-width:1.0;stroke-dasharray:2.0,2.0;" x1="31.5" x2="294.5" y1="2038.1992" y2="2038.1992"/><text fill="#000000" font-family="sans-serif" font-size="13" font-weight="bold" lengthAdjust="spacing" textLength="14" x="43.5" y="2024.291">50</text><text fill="#000000" font-family="sans-serif" font-size="13" lengthAdjust="spacing" textLength="214" x="61.5" y="2015.6455">shows the list of all booking requests</text><text fill="#000000" font-family="sans-serif" font-size="13" lengthAdjust="spacing" textLength="217" x="61.5" y="2032.9365">made to that agent in that time period</text><!--SRC=[xLXBRziu4BxhLn0-EKK3vBf16y2mqww0k0agkzr3BxH4IuGbqajIM_ZVxv3KWxGUZfpiRNq8977cczV7uJ3oGDaH2roWWZCUPu8N12bHaa0sAqSS7t1A8dNA2H8aLfYbkIiWCvpmtvIbQ8zpIO90KGMYMqa4YXGN9tHtzmUwHH7vkoGi9cX5SQeLvz7g9WXmgJWhYnqHy1o3F9ejKiBK36695gjr05OKZUaHCuLczykCn8SVL58bjw6HsOR1iCoICoLudXDXP9URxqzdmj_9aOCa5vH88zDyE4LKXmhk-Ih2qVZ5kW0lJukDhm4nPX0IZR6YdBK6G7ini6J3tsx-R3_vc2NaDo9IWXR0s6pRLwCQFKPH-FpDrob006hfER0-_sRKrz7N8SFtZmbL2vP4NAWdAfKD-d4LRe9E8JZRq_GBpOdD_lEtB-7NCvdAlhLgdm57Ku7-WnKn50WG_E01tJv0kT4zy12u1AQHuaWIWd2Uentd1yt2UkqNav1OBG4PBYn6Wwf9WweV80AkfiQ73u0T2m8IVSkms4kj-KqhxLanTFEM34m5TuzIeZhfFmUx0DY8v0froei-8rRcUR-6wquFvv5nBsGIDdnC-hpgzR1lzungzfc-RJBaxhLXd8HSPxyEN-zOzFfoz0PkTlsegB7IXjQfrhYs4-EuAHjKIza9TXmRmqmZBBd0wQ6UzWPg3tNG_na-bU5JYlC-H1-gtN_4z-dchgEzPzizJov2UYTAstJaX7F4hQq_9HZ4PIa4v63RpWYZU-zipkW8-kjEQPqXfAlbvE2IWJgKQcgnQT7UXwiHj-iPfoDHmxYiq3Db7vhZvI1UxPut5OtNpdFKdwOwSZvijtNBKQylWDU-wm7DTtd56TdmlyoqFQzDZOLXPxppPGCyrUakbBELMX0zNxvXOwr0JCuThAc3MkrE0aAlyCN-N6_qzeIv5VWd3nBjuNQZXr4xjkPmcK8OAGgNhYCHb5SDne5rsuex_rfbYNOafSnuXp1BT8yoBwrIBr8dLN46bpeJu4-giWquz6BySLFtqHhJAVse3Uc7QzCvlRhMtOh3ihfvRE32MgPPUyiOAFK0wonn7wfhIU_ixujOKhq83jLIf_aCvoaSsoehPdt6gjjEir1XtBPnDFgja9k0Ij-1reDGhGEJpwxSxV8URojukwolQVDyKaAg1b67I_O4JXDJy90jUQ6l_G0SGjVemsmkSKrxg-2So8y-gEfDG0UewJGLIkxnPx2xc9DxE8i54Ubm4g4vmbQ8rrf8fp9IU78-AwYYnbYtB9tFzTzFrPU76tGzya88V3AOtgxDoLv5D27FU_ikQ9ev7oxRUXTsN6R9LMoPp9fNqELDyXDPUPxRuUxe7IOoux-bFacCCSJt0_y0AN12x3z0iB8J48BZmhnTEdNSuMsr_XS0]--></g></svg>