<?xml version="1.0" encoding="us-ascii" standalone="no"?><svg xmlns="http://www.w3.org/2000/svg" xmlns:xlink="http://www.w3.org/1999/xlink" contentStyleType="text/css" height="1117.8px" preserveAspectRatio="none" style="width:612px;height:1117px;background:#FFFFFF;" version="1.1" viewBox="0 0 612 1117" width="612.9px" zoomAndPan="magnify"><defs/><g><text fill="#000000" font-family="sans-serif" font-size="12.6" font-weight="bold" lengthAdjust="spacing" textLength="265.5" x="167.625" y="22.5967">US015 Listing all bookings - Class Diagram</text><!--class Agent--><g id="elem_Agent"><rect codeLine="7" fill="#F1F1F1" height="177.2719" id="Agent" rx="2.25" ry="2.25" style="stroke:#181818;stroke-width:0.45;" width="132.3" x="162.45" y="41.959"/><ellipse cx="208.125" cy="56.359" fill="#ADD1B2" rx="9.9" ry="9.9" style="stroke:#181818;stroke-width:0.9;"/><path d="M210.6141,52.6465 Q210.7547,52.4496 210.9234,52.3512 Q211.0922,52.2527 211.2891,52.2527 Q211.6266,52.2527 211.8375,52.4918 Q212.0484,52.7168 212.0484,53.2652 L212.0484,54.573 Q212.0484,55.1215 211.8375,55.3605 Q211.6266,55.5996 211.2891,55.5996 Q210.9797,55.5996 210.7969,55.4168 Q210.6141,55.248 210.5156,54.784 Q210.4734,54.4605 210.3047,54.2918 Q210.0094,53.9543 209.4609,53.7574 Q208.9125,53.5605 208.35,53.5605 Q207.6609,53.5605 207.0844,53.8559 Q206.5219,54.1512 206.0719,54.8262 Q205.6359,55.5012 205.6359,56.4293 L205.6359,57.4137 Q205.6359,58.5246 206.4375,59.2699 Q207.2391,60.0012 208.6734,60.0012 Q209.5172,60.0012 210.1078,59.7762 Q210.4594,59.6355 210.8391,59.2418 Q211.0781,59.0027 211.2047,58.9324 Q211.3453,58.8621 211.5281,58.8621 Q211.8234,58.8621 212.0484,59.1012 Q212.2875,59.3262 212.2875,59.6355 Q212.2875,59.9449 211.9781,60.3105 Q211.5281,60.8309 210.8109,61.1262 Q209.8406,61.534 208.6734,61.534 Q207.3094,61.534 206.2266,60.9715 Q205.3406,60.5215 204.7219,59.5652 Q204.1031,58.5949 204.1031,57.4418 L204.1031,56.4012 Q204.1031,55.2059 204.6516,54.1793 Q205.2141,53.1387 206.1984,52.5902 Q207.1828,52.0277 208.2938,52.0277 Q208.9547,52.0277 209.5313,52.1824 Q210.1219,52.323 210.6141,52.6465 Z " fill="#000000"/><text fill="#000000" font-family="sans-serif" font-size="12.6" lengthAdjust="spacing" textLength="33.3" x="226.575" y="61.5762">Agent</text><line style="stroke:#181818;stroke-width:0.45;" x1="163.35" x2="293.85" y1="70.759" y2="70.759"/><text fill="#000000" font-family="sans-serif" font-size="12.6" lengthAdjust="spacing" textLength="71.1" x="167.85" y="87.9557">-String email</text><text fill="#000000" font-family="sans-serif" font-size="12.6" lengthAdjust="spacing" textLength="72.9" x="167.85" y="104.7146">-String name</text><text fill="#000000" font-family="sans-serif" font-size="12.6" lengthAdjust="spacing" textLength="121.5" x="167.85" y="121.4736">-String phoneNumber</text><text fill="#000000" font-family="sans-serif" font-size="12.6" lengthAdjust="spacing" textLength="87.3" x="167.85" y="138.2326">-String address</text><text fill="#000000" font-family="sans-serif" font-size="12.6" lengthAdjust="spacing" textLength="70.2" x="167.85" y="154.9916">-String store</text><text fill="#000000" font-family="sans-serif" font-size="12.6" lengthAdjust="spacing" textLength="78.3" x="167.85" y="171.7506">-int ccNumber</text><text fill="#000000" font-family="sans-serif" font-size="12.6" lengthAdjust="spacing" textLength="81.9" x="167.85" y="188.5096">-int taxNumber</text><text fill="#000000" font-family="sans-serif" font-size="12.6" lengthAdjust="spacing" textLength="63.9" x="167.85" y="205.2686">-String pwd</text><line style="stroke:#181818;stroke-width:0.45;" x1="163.35" x2="293.85" y1="212.0309" y2="212.0309"/></g><!--class CheckVisitsUI--><g id="elem_CheckVisitsUI"><rect codeLine="19" fill="#F1F1F1" height="59.959" id="CheckVisitsUI" rx="2.25" ry="2.25" style="stroke:#181818;stroke-width:0.45;" width="193.5" x="326.25" y="100.459"/><ellipse cx="380.925" cy="114.859" fill="#ADD1B2" rx="9.9" ry="9.9" style="stroke:#181818;stroke-width:0.9;"/><path d="M383.4141,111.1465 Q383.5547,110.9496 383.7234,110.8512 Q383.8922,110.7527 384.0891,110.7527 Q384.4266,110.7527 384.6375,110.9918 Q384.8484,111.2168 384.8484,111.7652 L384.8484,113.073 Q384.8484,113.6215 384.6375,113.8605 Q384.4266,114.0996 384.0891,114.0996 Q383.7797,114.0996 383.5969,113.9168 Q383.4141,113.748 383.3156,113.284 Q383.2734,112.9605 383.1047,112.7918 Q382.8094,112.4543 382.2609,112.2574 Q381.7125,112.0605 381.15,112.0605 Q380.4609,112.0605 379.8844,112.3559 Q379.3219,112.6512 378.8719,113.3262 Q378.4359,114.0012 378.4359,114.9293 L378.4359,115.9137 Q378.4359,117.0246 379.2375,117.7699 Q380.0391,118.5012 381.4734,118.5012 Q382.3172,118.5012 382.9078,118.2762 Q383.2594,118.1355 383.6391,117.7418 Q383.8781,117.5027 384.0047,117.4324 Q384.1453,117.3621 384.3281,117.3621 Q384.6234,117.3621 384.8484,117.6012 Q385.0875,117.8262 385.0875,118.1355 Q385.0875,118.4449 384.7781,118.8105 Q384.3281,119.3309 383.6109,119.6262 Q382.6406,120.034 381.4734,120.034 Q380.1094,120.034 379.0266,119.4715 Q378.1406,119.0215 377.5219,118.0652 Q376.9031,117.0949 376.9031,115.9418 L376.9031,114.9012 Q376.9031,113.7059 377.4516,112.6793 Q378.0141,111.6387 378.9984,111.0902 Q379.9828,110.5277 381.0938,110.5277 Q381.7547,110.5277 382.3313,110.6824 Q382.9219,110.823 383.4141,111.1465 Z " fill="#000000"/><text fill="#000000" font-family="sans-serif" font-size="12.6" lengthAdjust="spacing" textLength="76.5" x="399.375" y="120.0762">CheckVisitsUI</text><line style="stroke:#181818;stroke-width:0.45;" x1="327.15" x2="518.85" y1="129.259" y2="129.259"/><text fill="#000000" font-family="sans-serif" font-size="12.6" lengthAdjust="spacing" textLength="182.7" x="331.65" y="146.4557">-CheckVisitsController controller</text><line style="stroke:#181818;stroke-width:0.45;" x1="327.15" x2="518.85" y1="153.218" y2="153.218"/></g><!--class CheckVisitsController--><g id="elem_CheckVisitsController"><rect codeLine="24" fill="#F1F1F1" height="126.9949" id="CheckVisitsController" rx="2.25" ry="2.25" style="stroke:#181818;stroke-width:0.45;" width="302.4" x="271.8" y="290.359"/><ellipse cx="358.425" cy="304.759" fill="#ADD1B2" rx="9.9" ry="9.9" style="stroke:#181818;stroke-width:0.9;"/><path d="M360.9141,301.0465 Q361.0547,300.8496 361.2234,300.7512 Q361.3922,300.6527 361.5891,300.6527 Q361.9266,300.6527 362.1375,300.8918 Q362.3484,301.1168 362.3484,301.6652 L362.3484,302.973 Q362.3484,303.5215 362.1375,303.7605 Q361.9266,303.9996 361.5891,303.9996 Q361.2797,303.9996 361.0969,303.8168 Q360.9141,303.648 360.8156,303.184 Q360.7734,302.8605 360.6047,302.6918 Q360.3094,302.3543 359.7609,302.1574 Q359.2125,301.9605 358.65,301.9605 Q357.9609,301.9605 357.3844,302.2559 Q356.8219,302.5512 356.3719,303.2262 Q355.9359,303.9012 355.9359,304.8293 L355.9359,305.8137 Q355.9359,306.9246 356.7375,307.6699 Q357.5391,308.4012 358.9734,308.4012 Q359.8172,308.4012 360.4078,308.1762 Q360.7594,308.0355 361.1391,307.6418 Q361.3781,307.4027 361.5047,307.3324 Q361.6453,307.2621 361.8281,307.2621 Q362.1234,307.2621 362.3484,307.5012 Q362.5875,307.7262 362.5875,308.0355 Q362.5875,308.3449 362.2781,308.7105 Q361.8281,309.2309 361.1109,309.5262 Q360.1406,309.934 358.9734,309.934 Q357.6094,309.934 356.5266,309.3715 Q355.6406,308.9215 355.0219,307.9652 Q354.4031,306.9949 354.4031,305.8418 L354.4031,304.8012 Q354.4031,303.6059 354.9516,302.5793 Q355.5141,301.5387 356.4984,300.9902 Q357.4828,300.4277 358.5938,300.4277 Q359.2547,300.4277 359.8313,300.5824 Q360.4219,300.723 360.9141,301.0465 Z " fill="#000000"/><text fill="#000000" font-family="sans-serif" font-size="12.6" lengthAdjust="spacing" textLength="121.5" x="376.875" y="309.9762">CheckVisitsController</text><line style="stroke:#181818;stroke-width:0.45;" x1="272.7" x2="573.3" y1="319.159" y2="319.159"/><text fill="#000000" font-family="sans-serif" font-size="12.6" lengthAdjust="spacing" textLength="291.6" x="277.2" y="336.3557">-AuthenticationRepository authenticationRepository</text><text fill="#000000" font-family="sans-serif" font-size="12.6" lengthAdjust="spacing" textLength="233.1" x="277.2" y="353.1146">-MessageRepository messageRepository</text><line style="stroke:#181818;stroke-width:0.45;" x1="272.7" x2="573.3" y1="359.877" y2="359.877"/><text fill="#000000" font-family="sans-serif" font-size="12.6" lengthAdjust="spacing" textLength="137.7" x="277.2" y="377.0736">+CheckVisitsController()</text><text fill="#000000" font-family="sans-serif" font-size="12.6" lengthAdjust="spacing" textLength="144" x="277.2" y="393.8326">-getMessageRepository()</text><text fill="#000000" font-family="sans-serif" font-size="12.6" lengthAdjust="spacing" textLength="173.7" x="277.2" y="410.5916">-getAuthenticationRepository()</text></g><!--class Repositories--><g id="elem_Repositories"><rect codeLine="33" fill="#F1F1F1" height="143.7539" id="Repositories" rx="2.25" ry="2.25" style="stroke:#181818;stroke-width:0.45;" width="302.4" x="271.8" y="488.359"/><ellipse cx="383.625" cy="502.759" fill="#ADD1B2" rx="9.9" ry="9.9" style="stroke:#181818;stroke-width:0.9;"/><path d="M386.1141,499.0465 Q386.2547,498.8496 386.4234,498.7512 Q386.5922,498.6527 386.7891,498.6527 Q387.1266,498.6527 387.3375,498.8918 Q387.5484,499.1168 387.5484,499.6652 L387.5484,500.973 Q387.5484,501.5215 387.3375,501.7605 Q387.1266,501.9996 386.7891,501.9996 Q386.4797,501.9996 386.2969,501.8168 Q386.1141,501.648 386.0156,501.184 Q385.9734,500.8605 385.8047,500.6918 Q385.5094,500.3543 384.9609,500.1574 Q384.4125,499.9605 383.85,499.9605 Q383.1609,499.9605 382.5844,500.2559 Q382.0219,500.5512 381.5719,501.2262 Q381.1359,501.9012 381.1359,502.8293 L381.1359,503.8137 Q381.1359,504.9246 381.9375,505.6699 Q382.7391,506.4012 384.1734,506.4012 Q385.0172,506.4012 385.6078,506.1762 Q385.9594,506.0355 386.3391,505.6418 Q386.5781,505.4027 386.7047,505.3324 Q386.8453,505.2621 387.0281,505.2621 Q387.3234,505.2621 387.5484,505.5012 Q387.7875,505.7262 387.7875,506.0355 Q387.7875,506.3449 387.4781,506.7105 Q387.0281,507.2309 386.3109,507.5262 Q385.3406,507.934 384.1734,507.934 Q382.8094,507.934 381.7266,507.3715 Q380.8406,506.9215 380.2219,505.9652 Q379.6031,504.9949 379.6031,503.8418 L379.6031,502.8012 Q379.6031,501.6059 380.1516,500.5793 Q380.7141,499.5387 381.6984,498.9902 Q382.6828,498.4277 383.7938,498.4277 Q384.4547,498.4277 385.0313,498.5824 Q385.6219,498.723 386.1141,499.0465 Z " fill="#000000"/><text fill="#000000" font-family="sans-serif" font-size="12.6" lengthAdjust="spacing" textLength="71.1" x="402.075" y="507.9762">Repositories</text><line style="stroke:#181818;stroke-width:0.45;" x1="272.7" x2="573.3" y1="517.159" y2="517.159"/><text fill="#000000" font-family="sans-serif" font-size="12.6" lengthAdjust="spacing" textLength="126.9" x="277.2" y="534.3557">-Repositories instance</text><text fill="#000000" font-family="sans-serif" font-size="12.6" lengthAdjust="spacing" textLength="233.1" x="277.2" y="551.1146">-MessageRepository messageRepository</text><text fill="#000000" font-family="sans-serif" font-size="12.6" lengthAdjust="spacing" textLength="291.6" x="277.2" y="567.8736">-AuthenticationRepository authenticationRepository</text><line style="stroke:#181818;stroke-width:0.45;" x1="272.7" x2="573.3" y1="574.6359" y2="574.6359"/><text fill="#000000" font-family="sans-serif" font-size="12.6" lengthAdjust="spacing" textLength="81.9" x="277.2" y="591.8326">+getInstance()</text><text fill="#000000" font-family="sans-serif" font-size="12.6" lengthAdjust="spacing" textLength="146.7" x="277.2" y="608.5916">+getMessageRepository()</text><text fill="#000000" font-family="sans-serif" font-size="12.6" lengthAdjust="spacing" textLength="176.4" x="277.2" y="625.3506">+getAuthenticationRepository()</text></g><!--class MessageRepository--><g id="elem_MessageRepository"><rect codeLine="43" fill="#F1F1F1" height="110.2359" id="MessageRepository" rx="2.25" ry="2.25" style="stroke:#181818;stroke-width:0.45;" width="348.3" x="15.75" y="703.459"/><ellipse cx="129.825" cy="717.859" fill="#ADD1B2" rx="9.9" ry="9.9" style="stroke:#181818;stroke-width:0.9;"/><path d="M132.3141,714.1465 Q132.4547,713.9496 132.6234,713.8512 Q132.7922,713.7527 132.9891,713.7527 Q133.3266,713.7527 133.5375,713.9918 Q133.7484,714.2168 133.7484,714.7652 L133.7484,716.073 Q133.7484,716.6215 133.5375,716.8605 Q133.3266,717.0996 132.9891,717.0996 Q132.6797,717.0996 132.4969,716.9168 Q132.3141,716.748 132.2156,716.284 Q132.1734,715.9605 132.0047,715.7918 Q131.7094,715.4543 131.1609,715.2574 Q130.6125,715.0605 130.05,715.0605 Q129.3609,715.0605 128.7844,715.3559 Q128.2219,715.6512 127.7719,716.3262 Q127.3359,717.0012 127.3359,717.9293 L127.3359,718.9137 Q127.3359,720.0246 128.1375,720.7699 Q128.9391,721.5012 130.3734,721.5012 Q131.2172,721.5012 131.8078,721.2762 Q132.1594,721.1355 132.5391,720.7418 Q132.7781,720.5027 132.9047,720.4324 Q133.0453,720.3621 133.2281,720.3621 Q133.5234,720.3621 133.7484,720.6012 Q133.9875,720.8262 133.9875,721.1355 Q133.9875,721.4449 133.6781,721.8105 Q133.2281,722.3309 132.5109,722.6262 Q131.5406,723.034 130.3734,723.034 Q129.0094,723.034 127.9266,722.4715 Q127.0406,722.0215 126.4219,721.0652 Q125.8031,720.0949 125.8031,718.9418 L125.8031,717.9012 Q125.8031,716.7059 126.3516,715.6793 Q126.9141,714.6387 127.8984,714.0902 Q128.8828,713.5277 129.9938,713.5277 Q130.6547,713.5277 131.2313,713.6824 Q131.8219,713.823 132.3141,714.1465 Z " fill="#000000"/><text fill="#000000" font-family="sans-serif" font-size="12.6" lengthAdjust="spacing" textLength="112.5" x="148.275" y="723.0762">MessageRepository</text><line style="stroke:#181818;stroke-width:0.45;" x1="16.65" x2="363.15" y1="732.259" y2="732.259"/><text fill="#000000" font-family="sans-serif" font-size="12.6" lengthAdjust="spacing" textLength="151.2" x="21.15" y="749.4557">-List&lt;Message&gt; messages</text><line style="stroke:#181818;stroke-width:0.45;" x1="16.65" x2="363.15" y1="756.218" y2="756.218"/><text fill="#000000" font-family="sans-serif" font-size="12.6" lengthAdjust="spacing" textLength="337.5" x="21.15" y="773.4146">+create(text, name, phoneNumber, preferredDate, timeSlot)</text><text fill="#000000" font-family="sans-serif" font-size="12.6" lengthAdjust="spacing" textLength="140.4" x="21.15" y="790.1736">+addMessage(message)</text><text fill="#000000" font-family="sans-serif" font-size="12.6" lengthAdjust="spacing" textLength="162.9" x="21.15" y="806.9326">+validateMessage(message)</text></g><!--class AuthenticationRepository--><g id="elem_AuthenticationRepository"><rect codeLine="51" fill="#F1F1F1" height="76.718" id="AuthenticationRepository" rx="2.25" ry="2.25" style="stroke:#181818;stroke-width:0.45;" width="211.5" x="395.55" y="720.109"/><ellipse cx="427.275" cy="734.509" fill="#ADD1B2" rx="9.9" ry="9.9" style="stroke:#181818;stroke-width:0.9;"/><path d="M429.7641,730.7965 Q429.9047,730.5996 430.0734,730.5012 Q430.2422,730.4027 430.4391,730.4027 Q430.7766,730.4027 430.9875,730.6418 Q431.1984,730.8668 431.1984,731.4152 L431.1984,732.723 Q431.1984,733.2715 430.9875,733.5105 Q430.7766,733.7496 430.4391,733.7496 Q430.1297,733.7496 429.9469,733.5668 Q429.7641,733.398 429.6656,732.934 Q429.6234,732.6105 429.4547,732.4418 Q429.1594,732.1043 428.6109,731.9074 Q428.0625,731.7105 427.5,731.7105 Q426.8109,731.7105 426.2344,732.0059 Q425.6719,732.3012 425.2219,732.9762 Q424.7859,733.6512 424.7859,734.5793 L424.7859,735.5637 Q424.7859,736.6746 425.5875,737.4199 Q426.3891,738.1512 427.8234,738.1512 Q428.6672,738.1512 429.2578,737.9262 Q429.6094,737.7855 429.9891,737.3918 Q430.2281,737.1527 430.3547,737.0824 Q430.4953,737.0121 430.6781,737.0121 Q430.9734,737.0121 431.1984,737.2512 Q431.4375,737.4762 431.4375,737.7855 Q431.4375,738.0949 431.1281,738.4605 Q430.6781,738.9809 429.9609,739.2762 Q428.9906,739.684 427.8234,739.684 Q426.4594,739.684 425.3766,739.1215 Q424.4906,738.6715 423.8719,737.7152 Q423.2531,736.7449 423.2531,735.5918 L423.2531,734.5512 Q423.2531,733.3559 423.8016,732.3293 Q424.3641,731.2887 425.3484,730.7402 Q426.3328,730.1777 427.4438,730.1777 Q428.1047,730.1777 428.6813,730.3324 Q429.2719,730.473 429.7641,730.7965 Z " fill="#000000"/><text fill="#000000" font-family="sans-serif" font-size="12.6" lengthAdjust="spacing" textLength="142.2" x="443.925" y="739.7262">AuthenticationRepository</text><line style="stroke:#181818;stroke-width:0.45;" x1="396.45" x2="606.15" y1="748.909" y2="748.909"/><text fill="#000000" font-family="sans-serif" font-size="12.6" lengthAdjust="spacing" textLength="200.7" x="400.95" y="766.1057">-AuthFacade authenticationFacade</text><line style="stroke:#181818;stroke-width:0.45;" x1="396.45" x2="606.15" y1="772.868" y2="772.868"/><text fill="#000000" font-family="sans-serif" font-size="12.6" lengthAdjust="spacing" textLength="148.5" x="400.95" y="790.0646">+getCurrentUserSession()</text></g><!--class Message--><g id="elem_Message"><rect codeLine="57" fill="#F1F1F1" height="227.5488" id="Message" rx="2.25" ry="2.25" style="stroke:#181818;stroke-width:0.45;" width="367.2" x="6.3" y="884.359"/><ellipse cx="160.425" cy="898.759" fill="#ADD1B2" rx="9.9" ry="9.9" style="stroke:#181818;stroke-width:0.9;"/><path d="M162.9141,895.0465 Q163.0547,894.8496 163.2234,894.7512 Q163.3922,894.6527 163.5891,894.6527 Q163.9266,894.6527 164.1375,894.8918 Q164.3484,895.1168 164.3484,895.6652 L164.3484,896.973 Q164.3484,897.5215 164.1375,897.7605 Q163.9266,897.9996 163.5891,897.9996 Q163.2797,897.9996 163.0969,897.8168 Q162.9141,897.648 162.8156,897.184 Q162.7734,896.8605 162.6047,896.6918 Q162.3094,896.3543 161.7609,896.1574 Q161.2125,895.9605 160.65,895.9605 Q159.9609,895.9605 159.3844,896.2559 Q158.8219,896.5512 158.3719,897.2262 Q157.9359,897.9012 157.9359,898.8293 L157.9359,899.8137 Q157.9359,900.9246 158.7375,901.6699 Q159.5391,902.4012 160.9734,902.4012 Q161.8172,902.4012 162.4078,902.1762 Q162.7594,902.0355 163.1391,901.6418 Q163.3781,901.4027 163.5047,901.3324 Q163.6453,901.2621 163.8281,901.2621 Q164.1234,901.2621 164.3484,901.5012 Q164.5875,901.7262 164.5875,902.0355 Q164.5875,902.3449 164.2781,902.7105 Q163.8281,903.2309 163.1109,903.5262 Q162.1406,903.934 160.9734,903.934 Q159.6094,903.934 158.5266,903.3715 Q157.6406,902.9215 157.0219,901.9652 Q156.4031,900.9949 156.4031,899.8418 L156.4031,898.8012 Q156.4031,897.6059 156.9516,896.5793 Q157.5141,895.5387 158.4984,894.9902 Q159.4828,894.4277 160.5938,894.4277 Q161.2547,894.4277 161.8313,894.5824 Q162.4219,894.723 162.9141,895.0465 Z " fill="#000000"/><text fill="#000000" font-family="sans-serif" font-size="12.6" lengthAdjust="spacing" textLength="51.3" x="178.875" y="903.9762">Message</text><line style="stroke:#181818;stroke-width:0.45;" x1="7.2" x2="372.6" y1="913.159" y2="913.159"/><text fill="#000000" font-family="sans-serif" font-size="12.6" lengthAdjust="spacing" textLength="108" x="11.7" y="930.3557">-Property property;</text><text fill="#000000" font-family="sans-serif" font-size="12.6" lengthAdjust="spacing" textLength="89.1" x="11.7" y="947.1146">-String agentID;</text><text fill="#000000" font-family="sans-serif" font-size="12.6" lengthAdjust="spacing" textLength="64.8" x="11.7" y="963.8736">-String text;</text><text fill="#000000" font-family="sans-serif" font-size="12.6" lengthAdjust="spacing" textLength="76.5" x="11.7" y="980.6326">-String name;</text><text fill="#000000" font-family="sans-serif" font-size="12.6" lengthAdjust="spacing" textLength="125.1" x="11.7" y="997.3916">-String phoneNumber;</text><text fill="#000000" font-family="sans-serif" font-size="12.6" lengthAdjust="spacing" textLength="125.1" x="11.7" y="1014.1506">-String preferredDate;</text><text fill="#000000" font-family="sans-serif" font-size="12.6" lengthAdjust="spacing" textLength="87.3" x="11.7" y="1030.9096">-int startOfVisit;</text><text fill="#000000" font-family="sans-serif" font-size="12.6" lengthAdjust="spacing" textLength="83.7" x="11.7" y="1047.6686">-int endOfVisit;</text><line style="stroke:#181818;stroke-width:0.45;" x1="7.2" x2="372.6" y1="1054.4309" y2="1054.4309"/><text fill="#000000" font-family="sans-serif" font-size="12.6" lengthAdjust="spacing" textLength="356.4" x="11.7" y="1071.6275">+Message (text, name, phoneNumber, preferredDate, timeSlot)</text><text fill="#000000" font-family="sans-serif" font-size="12.6" lengthAdjust="spacing" textLength="60.3" x="11.7" y="1088.3865">+toString()</text><text fill="#000000" font-family="sans-serif" font-size="12.6" lengthAdjust="spacing" textLength="3.6" x="11.7" y="1105.1455">&#160;</text></g><!--link Agent to CheckVisitsUI--><g id="link_Agent_CheckVisitsUI"><path codeLine="72" d="M295.047,130.609 C303.84,130.609 312.642,130.609 321.435,130.609 " fill="none" id="Agent-to-CheckVisitsUI" style="stroke:#181818;stroke-width:0.9;"/><polygon fill="#181818" points="326.034,130.609,317.934,127.009,321.534,130.609,317.934,134.209,326.034,130.609" style="stroke:#181818;stroke-width:0.9;"/></g><!--link CheckVisitsUI to CheckVisitsController--><g id="link_CheckVisitsUI_CheckVisitsController"><path codeLine="73" d="M423,160.912 C423,192.574 423,244.018 423,285.688 " fill="none" id="CheckVisitsUI-to-CheckVisitsController" style="stroke:#181818;stroke-width:0.9;"/><polygon fill="#181818" points="423,290.197,426.6,282.097,423,285.697,419.4,282.097,423,290.197" style="stroke:#181818;stroke-width:0.9;"/><text fill="#000000" font-family="sans-serif" font-size="11.7" lengthAdjust="spacing" textLength="47.7" x="423.9" y="259.7845">controller</text></g><!--link CheckVisitsController to Repositories--><g id="link_CheckVisitsController_Repositories"><path codeLine="74" d="M423,417.529 C423,438.382 423,461.827 423,483.553 " fill="none" id="CheckVisitsController-to-Repositories" style="stroke:#181818;stroke-width:0.9;"/><polygon fill="#181818" points="423,488.161,426.6,480.061,423,483.661,419.4,480.061,423,488.161" style="stroke:#181818;stroke-width:0.9;"/><text fill="#000000" font-family="sans-serif" font-size="11.7" lengthAdjust="spacing" textLength="60.3" x="423.9" y="457.7845">repositories</text></g><!--link Repositories to MessageRepository--><g id="link_Repositories_MessageRepository"><path codeLine="75" d="M338.517,632.368 C312.066,654.634 283.221,678.907 258.048,700.102 " fill="none" id="Repositories-to-MessageRepository" style="stroke:#181818;stroke-width:0.9;"/><polygon fill="#181818" points="254.358,703.207,262.8664,700.7216,257.7928,700.2997,258.2147,695.226,254.358,703.207" style="stroke:#181818;stroke-width:0.9;"/><text fill="#000000" font-family="sans-serif" font-size="11.7" lengthAdjust="spacing" textLength="103.5" x="306.9" y="672.8845">messageRepository</text></g><!--link Repositories to AuthenticationRepository--><g id="link_Repositories_AuthenticationRepository"><path codeLine="76" d="M451.377,632.368 C462.501,660.241 474.885,691.273 484.533,715.456 " fill="none" id="Repositories-to-AuthenticationRepository" style="stroke:#181818;stroke-width:0.9;"/><polygon fill="#181818" points="486.306,719.884,486.6403,711.0263,484.6347,715.7058,479.9552,713.7003,486.306,719.884" style="stroke:#181818;stroke-width:0.9;"/><text fill="#000000" font-family="sans-serif" font-size="11.7" lengthAdjust="spacing" textLength="128.7" x="467.1" y="672.8845">authenticationRepository</text></g><!--link MessageRepository to Message--><g id="link_MessageRepository_Message"><path codeLine="77" d="M189.9,813.277 C189.9,833.077 189.9,856.351 189.9,879.553 " fill="none" id="MessageRepository-to-Message" style="stroke:#181818;stroke-width:0.9;"/><polygon fill="#181818" points="189.9,884.197,193.5,876.097,189.9,879.697,186.3,876.097,189.9,884.197" style="stroke:#181818;stroke-width:0.9;"/><text fill="#000000" font-family="sans-serif" font-size="11.7" lengthAdjust="spacing" textLength="44.1" x="190.8" y="853.7845">contains</text></g><!--SRC=[dLHDYzim4BthL-YOqXYsXxqaPI4a50BTjjIarp2H9uw8B1bfqjsqzBztv3YE7TkmxCtp_TvediDHsn8y5B84TOGSKpeRb1uLWSqDYj0aX0DaxaNRNEx1X7P46GXXGUJrxaIuLiwc-W_A1o584tVRf0-V7kLN7IXMWp5ovnnNvq4cSXcBvKf3pgs4g7h9HOwM_eeavPvSWWLeqrWM2coCyk0iVZiLE_ID3xBCOmYD7SXvhj2Mf5BNt6WHlDwLbY-Ps6wtujyLoVA0wlXB1qrXisP4BNlfB7bd37gfci_HwbisTrcSwC0CjGBIplx4qd6AysS98m6HF3CZVfzMRd7lgMP_79mv-I2I7AdNfFQFuU5mmwNnQWnCeMrARGFVYyAtmNm7_OgPPAJhUX8Zg-mXHbNWBPHwnSmhdkddEl1q1Hzg0CeZ44u8NsbQtU6qVO1iUDoZzvYjE6qgIHUO6aSH4XzbtNLIDutUts1qnhczK8DnZ4TzHLz0GOPtYxiuRqjRdXYJfKr0d_80pXZO0ZVyuLs9dixCu_8nlsagAdAzkZdY3kOTJSw7HDbojdSplmYGtzBJztrrhRKBRTOuBWHgVF9TQoTt6S-48-FgnoAJfwwkHSUIIJVUqlcihVJXb5ZSqSQC_wOtKtHYCRclcDc0PdfbengQZQkeFwe5e2O7hEN_]--></g></svg>