<?xml version="1.0" encoding="us-ascii" standalone="no"?><svg xmlns="http://www.w3.org/2000/svg" xmlns:xlink="http://www.w3.org/1999/xlink" contentStyleType="text/css" height="1330px" preserveAspectRatio="none" style="width:1128px;height:1330px;background:#FFFFFF;" version="1.1" viewBox="0 0 1128 1330" width="1128px" zoomAndPan="magnify"><defs/><g><text fill="#000000" font-family="sans-serif" font-size="14" font-weight="bold" lengthAdjust="spacing" textLength="334" x="390.25" y="25.1074">US001 Display Listed Properties - Class Diagram</text><!--class UnregisteredUser--><g id="elem_UnregisteredUser"><rect codeLine="7" fill="#F1F1F1" height="48" id="UnregisteredUser" rx="2.5" ry="2.5" style="stroke:#181818;stroke-width:0.5;" width="142" x="19" y="46.6211"/><ellipse cx="34" cy="62.6211" fill="#ADD1B2" rx="11" ry="11" style="stroke:#181818;stroke-width:1.0;"/><path d="M36.7656,58.4961 Q36.9219,58.2773 37.1094,58.168 Q37.2969,58.0586 37.5156,58.0586 Q37.8906,58.0586 38.125,58.3242 Q38.3594,58.5742 38.3594,59.1836 L38.3594,60.6367 Q38.3594,61.2461 38.125,61.5117 Q37.8906,61.7773 37.5156,61.7773 Q37.1719,61.7773 36.9688,61.5742 Q36.7656,61.3867 36.6563,60.8711 Q36.6094,60.5117 36.4219,60.3242 Q36.0938,59.9492 35.4844,59.7305 Q34.875,59.5117 34.25,59.5117 Q33.4844,59.5117 32.8438,59.8398 Q32.2188,60.168 31.7188,60.918 Q31.2344,61.668 31.2344,62.6992 L31.2344,63.793 Q31.2344,65.0273 32.125,65.8555 Q33.0156,66.668 34.6094,66.668 Q35.5469,66.668 36.2031,66.418 Q36.5938,66.2617 37.0156,65.8242 Q37.2813,65.5586 37.4219,65.4805 Q37.5781,65.4023 37.7813,65.4023 Q38.1094,65.4023 38.3594,65.668 Q38.625,65.918 38.625,66.2617 Q38.625,66.6055 38.2813,67.0117 Q37.7813,67.5898 36.9844,67.918 Q35.9063,68.3711 34.6094,68.3711 Q33.0938,68.3711 31.8906,67.7461 Q30.9063,67.2461 30.2188,66.1836 Q29.5313,65.1055 29.5313,63.8242 L29.5313,62.668 Q29.5313,61.3398 30.1406,60.1992 Q30.7656,59.043 31.8594,58.4336 Q32.9531,57.8086 34.1875,57.8086 Q34.9219,57.8086 35.5625,57.9805 Q36.2188,58.1367 36.7656,58.4961 Z " fill="#000000"/><text fill="#000000" font-family="sans-serif" font-size="14" lengthAdjust="spacing" textLength="110" x="48" y="68.418">UnregisteredUser</text><line style="stroke:#181818;stroke-width:0.5;" x1="20" x2="160" y1="78.6211" y2="78.6211"/><line style="stroke:#181818;stroke-width:0.5;" x1="20" x2="160" y1="86.6211" y2="86.6211"/></g><!--class MainMenuUI--><g id="elem_MainMenuUI"><rect codeLine="11" fill="#F1F1F1" height="85.2422" id="MainMenuUI" rx="2.5" ry="2.5" style="stroke:#181818;stroke-width:0.5;" width="166" x="7" y="183.1211"/><ellipse cx="47.65" cy="199.1211" fill="#ADD1B2" rx="11" ry="11" style="stroke:#181818;stroke-width:1.0;"/><path d="M50.4156,194.9961 Q50.5719,194.7773 50.7594,194.668 Q50.9469,194.5586 51.1656,194.5586 Q51.5406,194.5586 51.775,194.8242 Q52.0094,195.0742 52.0094,195.6836 L52.0094,197.1367 Q52.0094,197.7461 51.775,198.0117 Q51.5406,198.2773 51.1656,198.2773 Q50.8219,198.2773 50.6188,198.0742 Q50.4156,197.8867 50.3063,197.3711 Q50.2594,197.0117 50.0719,196.8242 Q49.7438,196.4492 49.1344,196.2305 Q48.525,196.0117 47.9,196.0117 Q47.1344,196.0117 46.4938,196.3398 Q45.8688,196.668 45.3688,197.418 Q44.8844,198.168 44.8844,199.1992 L44.8844,200.293 Q44.8844,201.5273 45.775,202.3555 Q46.6656,203.168 48.2594,203.168 Q49.1969,203.168 49.8531,202.918 Q50.2438,202.7617 50.6656,202.3242 Q50.9313,202.0586 51.0719,201.9805 Q51.2281,201.9023 51.4313,201.9023 Q51.7594,201.9023 52.0094,202.168 Q52.275,202.418 52.275,202.7617 Q52.275,203.1055 51.9313,203.5117 Q51.4313,204.0898 50.6344,204.418 Q49.5563,204.8711 48.2594,204.8711 Q46.7438,204.8711 45.5406,204.2461 Q44.5563,203.7461 43.8688,202.6836 Q43.1813,201.6055 43.1813,200.3242 L43.1813,199.168 Q43.1813,197.8398 43.7906,196.6992 Q44.4156,195.543 45.5094,194.9336 Q46.6031,194.3086 47.8375,194.3086 Q48.5719,194.3086 49.2125,194.4805 Q49.8688,194.6367 50.4156,194.9961 Z " fill="#000000"/><text fill="#000000" font-family="sans-serif" font-size="14" lengthAdjust="spacing" textLength="77" x="67.35" y="204.918">MainMenuUI</text><line style="stroke:#181818;stroke-width:0.5;" x1="8" x2="172" y1="215.1211" y2="215.1211"/><text fill="#000000" font-family="sans-serif" font-size="14" lengthAdjust="spacing" textLength="154" x="13" y="234.2285">-List&lt;MenuItem&gt; options</text><line style="stroke:#181818;stroke-width:0.5;" x1="8" x2="172" y1="241.7422" y2="241.7422"/><text fill="#000000" font-family="sans-serif" font-size="14" lengthAdjust="spacing" textLength="39" x="13" y="260.8496">+run()</text></g><!--class MenuItem--><g id="elem_MenuItem"><rect codeLine="17" fill="#F1F1F1" height="103.8633" id="MenuItem" rx="2.5" ry="2.5" style="stroke:#181818;stroke-width:0.5;" width="127" x="296.5" y="173.6211"/><ellipse cx="326.8" cy="189.6211" fill="#ADD1B2" rx="11" ry="11" style="stroke:#181818;stroke-width:1.0;"/><path d="M329.5656,185.4961 Q329.7219,185.2773 329.9094,185.168 Q330.0969,185.0586 330.3156,185.0586 Q330.6906,185.0586 330.925,185.3242 Q331.1594,185.5742 331.1594,186.1836 L331.1594,187.6367 Q331.1594,188.2461 330.925,188.5117 Q330.6906,188.7773 330.3156,188.7773 Q329.9719,188.7773 329.7688,188.5742 Q329.5656,188.3867 329.4563,187.8711 Q329.4094,187.5117 329.2219,187.3242 Q328.8938,186.9492 328.2844,186.7305 Q327.675,186.5117 327.05,186.5117 Q326.2844,186.5117 325.6438,186.8398 Q325.0188,187.168 324.5188,187.918 Q324.0344,188.668 324.0344,189.6992 L324.0344,190.793 Q324.0344,192.0273 324.925,192.8555 Q325.8156,193.668 327.4094,193.668 Q328.3469,193.668 329.0031,193.418 Q329.3938,193.2617 329.8156,192.8242 Q330.0813,192.5586 330.2219,192.4805 Q330.3781,192.4023 330.5813,192.4023 Q330.9094,192.4023 331.1594,192.668 Q331.425,192.918 331.425,193.2617 Q331.425,193.6055 331.0813,194.0117 Q330.5813,194.5898 329.7844,194.918 Q328.7063,195.3711 327.4094,195.3711 Q325.8938,195.3711 324.6906,194.7461 Q323.7063,194.2461 323.0188,193.1836 Q322.3313,192.1055 322.3313,190.8242 L322.3313,189.668 Q322.3313,188.3398 322.9406,187.1992 Q323.5656,186.043 324.6594,185.4336 Q325.7531,184.8086 326.9875,184.8086 Q327.7219,184.8086 328.3625,184.9805 Q329.0188,185.1367 329.5656,185.4961 Z " fill="#000000"/><text fill="#000000" font-family="sans-serif" font-size="14" lengthAdjust="spacing" textLength="61" x="344.2" y="195.418">MenuItem</text><line style="stroke:#181818;stroke-width:0.5;" x1="297.5" x2="422.5" y1="205.6211" y2="205.6211"/><text fill="#000000" font-family="sans-serif" font-size="14" lengthAdjust="spacing" textLength="115" x="302.5" y="224.7285">-String description</text><text fill="#000000" font-family="sans-serif" font-size="14" lengthAdjust="spacing" textLength="81" x="302.5" y="243.3496">-Runnable ui</text><line style="stroke:#181818;stroke-width:0.5;" x1="297.5" x2="422.5" y1="250.8633" y2="250.8633"/><text fill="#000000" font-family="sans-serif" font-size="14" lengthAdjust="spacing" textLength="39" x="302.5" y="269.9707">+run()</text></g><!--class ListPropertiesUI--><g id="elem_ListPropertiesUI"><rect codeLine="24" fill="#F1F1F1" height="85.2422" id="ListPropertiesUI" rx="2.5" ry="2.5" style="stroke:#181818;stroke-width:0.5;" width="287" x="485.5" y="183.1211"/><ellipse cx="575.25" cy="199.1211" fill="#ADD1B2" rx="11" ry="11" style="stroke:#181818;stroke-width:1.0;"/><path d="M578.0156,194.9961 Q578.1719,194.7773 578.3594,194.668 Q578.5469,194.5586 578.7656,194.5586 Q579.1406,194.5586 579.375,194.8242 Q579.6094,195.0742 579.6094,195.6836 L579.6094,197.1367 Q579.6094,197.7461 579.375,198.0117 Q579.1406,198.2773 578.7656,198.2773 Q578.4219,198.2773 578.2188,198.0742 Q578.0156,197.8867 577.9063,197.3711 Q577.8594,197.0117 577.6719,196.8242 Q577.3438,196.4492 576.7344,196.2305 Q576.125,196.0117 575.5,196.0117 Q574.7344,196.0117 574.0938,196.3398 Q573.4688,196.668 572.9688,197.418 Q572.4844,198.168 572.4844,199.1992 L572.4844,200.293 Q572.4844,201.5273 573.375,202.3555 Q574.2656,203.168 575.8594,203.168 Q576.7969,203.168 577.4531,202.918 Q577.8438,202.7617 578.2656,202.3242 Q578.5313,202.0586 578.6719,201.9805 Q578.8281,201.9023 579.0313,201.9023 Q579.3594,201.9023 579.6094,202.168 Q579.875,202.418 579.875,202.7617 Q579.875,203.1055 579.5313,203.5117 Q579.0313,204.0898 578.2344,204.418 Q577.1563,204.8711 575.8594,204.8711 Q574.3438,204.8711 573.1406,204.2461 Q572.1563,203.7461 571.4688,202.6836 Q570.7813,201.6055 570.7813,200.3242 L570.7813,199.168 Q570.7813,197.8398 571.3906,196.6992 Q572.0156,195.543 573.1094,194.9336 Q574.2031,194.3086 575.4375,194.3086 Q576.1719,194.3086 576.8125,194.4805 Q577.4688,194.6367 578.0156,194.9961 Z " fill="#000000"/><text fill="#000000" font-family="sans-serif" font-size="14" lengthAdjust="spacing" textLength="99" x="595.75" y="204.918">ListPropertiesUI</text><line style="stroke:#181818;stroke-width:0.5;" x1="486.5" x2="771.5" y1="215.1211" y2="215.1211"/><text fill="#000000" font-family="sans-serif" font-size="14" lengthAdjust="spacing" textLength="275" x="491.5" y="234.2285">ListPropertyController listPropertyController</text><line style="stroke:#181818;stroke-width:0.5;" x1="486.5" x2="771.5" y1="241.7422" y2="241.7422"/><text fill="#000000" font-family="sans-serif" font-size="14" lengthAdjust="spacing" textLength="39" x="491.5" y="260.8496">+run()</text></g><!--class ListPropertyController--><g id="elem_ListPropertyController"><rect codeLine="30" fill="#F1F1F1" height="85.2422" id="ListPropertyController" rx="2.5" ry="2.5" style="stroke:#181818;stroke-width:0.5;" width="259" x="499.5" y="356.6211"/><ellipse cx="555.75" cy="372.6211" fill="#ADD1B2" rx="11" ry="11" style="stroke:#181818;stroke-width:1.0;"/><path d="M558.5156,368.4961 Q558.6719,368.2773 558.8594,368.168 Q559.0469,368.0586 559.2656,368.0586 Q559.6406,368.0586 559.875,368.3242 Q560.1094,368.5742 560.1094,369.1836 L560.1094,370.6367 Q560.1094,371.2461 559.875,371.5117 Q559.6406,371.7773 559.2656,371.7773 Q558.9219,371.7773 558.7188,371.5742 Q558.5156,371.3867 558.4063,370.8711 Q558.3594,370.5117 558.1719,370.3242 Q557.8438,369.9492 557.2344,369.7305 Q556.625,369.5117 556,369.5117 Q555.2344,369.5117 554.5938,369.8398 Q553.9688,370.168 553.4688,370.918 Q552.9844,371.668 552.9844,372.6992 L552.9844,373.793 Q552.9844,375.0273 553.875,375.8555 Q554.7656,376.668 556.3594,376.668 Q557.2969,376.668 557.9531,376.418 Q558.3438,376.2617 558.7656,375.8242 Q559.0313,375.5586 559.1719,375.4805 Q559.3281,375.4023 559.5313,375.4023 Q559.8594,375.4023 560.1094,375.668 Q560.375,375.918 560.375,376.2617 Q560.375,376.6055 560.0313,377.0117 Q559.5313,377.5898 558.7344,377.918 Q557.6563,378.3711 556.3594,378.3711 Q554.8438,378.3711 553.6406,377.7461 Q552.6563,377.2461 551.9688,376.1836 Q551.2813,375.1055 551.2813,373.8242 L551.2813,372.668 Q551.2813,371.3398 551.8906,370.1992 Q552.5156,369.043 553.6094,368.4336 Q554.7031,367.8086 555.9375,367.8086 Q556.6719,367.8086 557.3125,367.9805 Q557.9688,368.1367 558.5156,368.4961 Z " fill="#000000"/><text fill="#000000" font-family="sans-serif" font-size="14" lengthAdjust="spacing" textLength="138" x="576.25" y="378.418">ListPropertyController</text><line style="stroke:#181818;stroke-width:0.5;" x1="500.5" x2="757.5" y1="388.6211" y2="388.6211"/><text fill="#000000" font-family="sans-serif" font-size="14" lengthAdjust="spacing" textLength="247" x="505.5" y="407.7285">PropertyRepository propertyAnnouncementRepository</text><line style="stroke:#181818;stroke-width:0.5;" x1="500.5" x2="757.5" y1="415.2422" y2="415.2422"/><text fill="#000000" font-family="sans-serif" font-size="14" lengthAdjust="spacing" textLength="157" x="505.5" y="434.3496">+printPropertiesToUser()</text></g><!--class Repositories--><g id="elem_Repositories"><rect codeLine="36" fill="#F1F1F1" height="122.4844" id="Repositories" rx="2.5" ry="2.5" style="stroke:#181818;stroke-width:0.5;" width="264" x="342" y="556.6211"/><ellipse cx="430.25" cy="572.6211" fill="#ADD1B2" rx="11" ry="11" style="stroke:#181818;stroke-width:1.0;"/><path d="M433.0156,568.4961 Q433.1719,568.2773 433.3594,568.168 Q433.5469,568.0586 433.7656,568.0586 Q434.1406,568.0586 434.375,568.3242 Q434.6094,568.5742 434.6094,569.1836 L434.6094,570.6367 Q434.6094,571.2461 434.375,571.5117 Q434.1406,571.7773 433.7656,571.7773 Q433.4219,571.7773 433.2188,571.5742 Q433.0156,571.3867 432.9063,570.8711 Q432.8594,570.5117 432.6719,570.3242 Q432.3438,569.9492 431.7344,569.7305 Q431.125,569.5117 430.5,569.5117 Q429.7344,569.5117 429.0938,569.8398 Q428.4688,570.168 427.9688,570.918 Q427.4844,571.668 427.4844,572.6992 L427.4844,573.793 Q427.4844,575.0273 428.375,575.8555 Q429.2656,576.668 430.8594,576.668 Q431.7969,576.668 432.4531,576.418 Q432.8438,576.2617 433.2656,575.8242 Q433.5313,575.5586 433.6719,575.4805 Q433.8281,575.4023 434.0313,575.4023 Q434.3594,575.4023 434.6094,575.668 Q434.875,575.918 434.875,576.2617 Q434.875,576.6055 434.5313,577.0117 Q434.0313,577.5898 433.2344,577.918 Q432.1563,578.3711 430.8594,578.3711 Q429.3438,578.3711 428.1406,577.7461 Q427.1563,577.2461 426.4688,576.1836 Q425.7813,575.1055 425.7813,573.8242 L425.7813,572.668 Q425.7813,571.3398 426.3906,570.1992 Q427.0156,569.043 428.1094,568.4336 Q429.2031,567.8086 430.4375,567.8086 Q431.1719,567.8086 431.8125,567.9805 Q432.4688,568.1367 433.0156,568.4961 Z " fill="#000000"/><text fill="#000000" font-family="sans-serif" font-size="14" lengthAdjust="spacing" textLength="79" x="450.75" y="578.418">Repositories</text><line style="stroke:#181818;stroke-width:0.5;" x1="343" x2="605" y1="588.6211" y2="588.6211"/><text fill="#000000" font-family="sans-serif" font-size="14" lengthAdjust="spacing" textLength="141" x="348" y="607.7285">-Repositories instance</text><text fill="#000000" font-family="sans-serif" font-size="14" lengthAdjust="spacing" textLength="252" x="348" y="626.3496">-PropertyRepository propertyAnnouncementRepository</text><line style="stroke:#181818;stroke-width:0.5;" x1="343" x2="605" y1="633.8633" y2="633.8633"/><text fill="#000000" font-family="sans-serif" font-size="14" lengthAdjust="spacing" textLength="91" x="348" y="652.9707">+getInstance()</text><text fill="#000000" font-family="sans-serif" font-size="14" lengthAdjust="spacing" textLength="160" x="348" y="671.5918">+getPropertyRepository()</text></g><!--class PropertyRepository--><g id="elem_PropertyRepository"><rect codeLine="44" fill="#F1F1F1" height="159.7266" id="PropertyRepository" rx="2.5" ry="2.5" style="stroke:#181818;stroke-width:0.5;" width="186" x="692" y="537.6211"/><ellipse cx="721.4" cy="553.6211" fill="#ADD1B2" rx="11" ry="11" style="stroke:#181818;stroke-width:1.0;"/><path d="M724.1656,549.4961 Q724.3219,549.2773 724.5094,549.168 Q724.6969,549.0586 724.9156,549.0586 Q725.2906,549.0586 725.525,549.3242 Q725.7594,549.5742 725.7594,550.1836 L725.7594,551.6367 Q725.7594,552.2461 725.525,552.5117 Q725.2906,552.7773 724.9156,552.7773 Q724.5719,552.7773 724.3688,552.5742 Q724.1656,552.3867 724.0563,551.8711 Q724.0094,551.5117 723.8219,551.3242 Q723.4938,550.9492 722.8844,550.7305 Q722.275,550.5117 721.65,550.5117 Q720.8844,550.5117 720.2438,550.8398 Q719.6188,551.168 719.1188,551.918 Q718.6344,552.668 718.6344,553.6992 L718.6344,554.793 Q718.6344,556.0273 719.525,556.8555 Q720.4156,557.668 722.0094,557.668 Q722.9469,557.668 723.6031,557.418 Q723.9938,557.2617 724.4156,556.8242 Q724.6813,556.5586 724.8219,556.4805 Q724.9781,556.4023 725.1813,556.4023 Q725.5094,556.4023 725.7594,556.668 Q726.025,556.918 726.025,557.2617 Q726.025,557.6055 725.6813,558.0117 Q725.1813,558.5898 724.3844,558.918 Q723.3063,559.3711 722.0094,559.3711 Q720.4938,559.3711 719.2906,558.7461 Q718.3063,558.2461 717.6188,557.1836 Q716.9313,556.1055 716.9313,554.8242 L716.9313,553.668 Q716.9313,552.3398 717.5406,551.1992 Q718.1656,550.043 719.2594,549.4336 Q720.3531,548.8086 721.5875,548.8086 Q722.3219,548.8086 722.9625,548.9805 Q723.6188,549.1367 724.1656,549.4961 Z " fill="#000000"/><text fill="#000000" font-family="sans-serif" font-size="14" lengthAdjust="spacing" textLength="122" x="738.6" y="559.418">PropertyRepository</text><line style="stroke:#181818;stroke-width:0.5;" x1="693" x2="877" y1="569.6211" y2="569.6211"/><text fill="#000000" font-family="sans-serif" font-size="14" lengthAdjust="spacing" textLength="165" x="698" y="588.7285">-List&lt;Property&gt; properties</text><line style="stroke:#181818;stroke-width:0.5;" x1="693" x2="877" y1="596.2422" y2="596.2422"/><text fill="#000000" font-family="sans-serif" font-size="14" lengthAdjust="spacing" textLength="67" x="698" y="615.3496">+isEmpty()</text><text fill="#000000" font-family="sans-serif" font-size="14" lengthAdjust="spacing" textLength="95" x="698" y="633.9707">+add(property)</text><text fill="#000000" font-family="sans-serif" font-size="14" lengthAdjust="spacing" textLength="174" x="698" y="652.5918">+validateProperty(property)</text><text fill="#000000" font-family="sans-serif" font-size="14" lengthAdjust="spacing" textLength="111" x="698" y="671.2129">+printProperties()</text><text fill="#000000" font-family="sans-serif" font-size="14" lengthAdjust="spacing" textLength="103" x="698" y="689.834">+getProperties()</text></g><!--class Property--><g id="elem_Property"><rect codeLine="54" fill="#F1F1F1" height="85.2422" id="Property" rx="2.5" ry="2.5" style="stroke:#181818;stroke-width:0.5;" width="110" x="730" y="776.6211"/><ellipse cx="755.8" cy="792.6211" fill="#B4A7E5" rx="11" ry="11" style="stroke:#181818;stroke-width:1.0;"/><path d="M756.7531,789.2617 L756.7531,795.918 L758.4719,795.918 Q759.0813,795.918 759.3469,796.1523 Q759.6125,796.3867 759.6125,796.7773 Q759.6125,797.1523 759.3469,797.3867 Q759.0813,797.6211 758.4719,797.6211 L753.3313,797.6211 Q752.7219,797.6211 752.4563,797.3867 Q752.1906,797.1523 752.1906,796.7617 Q752.1906,796.3867 752.4563,796.1523 Q752.7219,795.918 753.3313,795.918 L755.05,795.918 L755.05,789.2617 L753.3313,789.2617 Q752.7219,789.2617 752.4563,789.0273 Q752.1906,788.793 752.1906,788.4023 Q752.1906,788.0273 752.4563,787.793 Q752.7219,787.5586 753.3313,787.5586 L758.4719,787.5586 Q759.0813,787.5586 759.3469,787.793 Q759.6125,788.0273 759.6125,788.4023 Q759.6125,788.793 759.3469,789.0273 Q759.0813,789.2617 758.4719,789.2617 L756.7531,789.2617 Z " fill="#000000"/><text fill="#000000" font-family="sans-serif" font-size="14" font-style="italic" lengthAdjust="spacing" textLength="54" x="772.2" y="798.418">Property</text><line style="stroke:#181818;stroke-width:0.5;" x1="731" x2="839" y1="808.6211" y2="808.6211"/><line style="stroke:#181818;stroke-width:0.5;" x1="731" x2="839" y1="816.6211" y2="816.6211"/><text fill="#000000" font-family="sans-serif" font-size="14" lengthAdjust="spacing" textLength="98" x="736" y="835.7285">+equals(object)</text><text fill="#000000" font-family="sans-serif" font-size="14" lengthAdjust="spacing" textLength="52" x="736" y="854.3496">+clone()</text></g><!--class Apartment--><g id="elem_Apartment"><rect codeLine="60" fill="#F1F1F1" height="327.3164" id="Apartment" rx="2.5" ry="2.5" style="stroke:#181818;stroke-width:0.5;" width="201" x="448.5" y="968.6211"/><ellipse cx="512.25" cy="984.6211" fill="#ADD1B2" rx="11" ry="11" style="stroke:#181818;stroke-width:1.0;"/><path d="M515.0156,980.4961 Q515.1719,980.2773 515.3594,980.168 Q515.5469,980.0586 515.7656,980.0586 Q516.1406,980.0586 516.375,980.3242 Q516.6094,980.5742 516.6094,981.1836 L516.6094,982.6367 Q516.6094,983.2461 516.375,983.5117 Q516.1406,983.7773 515.7656,983.7773 Q515.4219,983.7773 515.2188,983.5742 Q515.0156,983.3867 514.9063,982.8711 Q514.8594,982.5117 514.6719,982.3242 Q514.3438,981.9492 513.7344,981.7305 Q513.125,981.5117 512.5,981.5117 Q511.7344,981.5117 511.0938,981.8398 Q510.4688,982.168 509.9688,982.918 Q509.4844,983.668 509.4844,984.6992 L509.4844,985.793 Q509.4844,987.0273 510.375,987.8555 Q511.2656,988.668 512.8594,988.668 Q513.7969,988.668 514.4531,988.418 Q514.8438,988.2617 515.2656,987.8242 Q515.5313,987.5586 515.6719,987.4805 Q515.8281,987.4023 516.0313,987.4023 Q516.3594,987.4023 516.6094,987.668 Q516.875,987.918 516.875,988.2617 Q516.875,988.6055 516.5313,989.0117 Q516.0313,989.5898 515.2344,989.918 Q514.1563,990.3711 512.8594,990.3711 Q511.3438,990.3711 510.1406,989.7461 Q509.1563,989.2461 508.4688,988.1836 Q507.7813,987.1055 507.7813,985.8242 L507.7813,984.668 Q507.7813,983.3398 508.3906,982.1992 Q509.0156,981.043 510.1094,980.4336 Q511.2031,979.8086 512.4375,979.8086 Q513.1719,979.8086 513.8125,979.9805 Q514.4688,980.1367 515.0156,980.4961 Z " fill="#000000"/><text fill="#000000" font-family="sans-serif" font-size="14" lengthAdjust="spacing" textLength="65" x="532.75" y="990.418">Apartment</text><line style="stroke:#181818;stroke-width:0.5;" x1="449.5" x2="648.5" y1="1000.6211" y2="1000.6211"/><text fill="#000000" font-family="sans-serif" font-size="14" lengthAdjust="spacing" textLength="73" x="454.5" y="1019.7285">-String type</text><text fill="#000000" font-family="sans-serif" font-size="14" lengthAdjust="spacing" textLength="65" x="454.5" y="1038.3496">-float area</text><text fill="#000000" font-family="sans-serif" font-size="14" lengthAdjust="spacing" textLength="95" x="454.5" y="1056.9707">-String location</text><text fill="#000000" font-family="sans-serif" font-size="14" lengthAdjust="spacing" textLength="189" x="454.5" y="1075.5918">-float distanceFromCityCentre</text><text fill="#000000" font-family="sans-serif" font-size="14" lengthAdjust="spacing" textLength="132" x="454.5" y="1094.2129">-float requestedPrice</text><text fill="#000000" font-family="sans-serif" font-size="14" lengthAdjust="spacing" textLength="87" x="454.5" y="1112.834">-int bedrooms</text><text fill="#000000" font-family="sans-serif" font-size="14" lengthAdjust="spacing" textLength="91" x="454.5" y="1131.4551">-int bathrooms</text><text fill="#000000" font-family="sans-serif" font-size="14" lengthAdjust="spacing" textLength="118" x="454.5" y="1150.0762">-int parkingSpaces</text><text fill="#000000" font-family="sans-serif" font-size="14" lengthAdjust="spacing" textLength="169" x="454.5" y="1168.6973">-String availableEquipment</text><text fill="#000000" font-family="sans-serif" font-size="14" lengthAdjust="spacing" textLength="120" x="454.5" y="1187.3184">-File[] photographs</text><text fill="#000000" font-family="sans-serif" font-size="14" lengthAdjust="spacing" textLength="149" x="454.5" y="1205.9395">-String commissionDate</text><text fill="#000000" font-family="sans-serif" font-size="14" lengthAdjust="spacing" textLength="145" x="454.5" y="1224.5605">-float commissionValue</text><line style="stroke:#181818;stroke-width:0.5;" x1="449.5" x2="648.5" y1="1232.0742" y2="1232.0742"/><text fill="#000000" font-family="sans-serif" font-size="14" lengthAdjust="spacing" textLength="98" x="454.5" y="1251.1816">+equals(object)</text><text fill="#000000" font-family="sans-serif" font-size="14" lengthAdjust="spacing" textLength="52" x="454.5" y="1269.8027">+clone()</text><text fill="#000000" font-family="sans-serif" font-size="14" lengthAdjust="spacing" textLength="67" x="454.5" y="1288.4238">+toString()</text></g><!--class House--><g id="elem_House"><rect codeLine="79" fill="#F1F1F1" height="383.1797" id="House" rx="2.5" ry="2.5" style="stroke:#181818;stroke-width:0.5;" width="201" x="684.5" y="940.6211"/><ellipse cx="760.75" cy="956.6211" fill="#ADD1B2" rx="11" ry="11" style="stroke:#181818;stroke-width:1.0;"/><path d="M763.5156,952.4961 Q763.6719,952.2773 763.8594,952.168 Q764.0469,952.0586 764.2656,952.0586 Q764.6406,952.0586 764.875,952.3242 Q765.1094,952.5742 765.1094,953.1836 L765.1094,954.6367 Q765.1094,955.2461 764.875,955.5117 Q764.6406,955.7773 764.2656,955.7773 Q763.9219,955.7773 763.7188,955.5742 Q763.5156,955.3867 763.4063,954.8711 Q763.3594,954.5117 763.1719,954.3242 Q762.8438,953.9492 762.2344,953.7305 Q761.625,953.5117 761,953.5117 Q760.2344,953.5117 759.5938,953.8398 Q758.9688,954.168 758.4688,954.918 Q757.9844,955.668 757.9844,956.6992 L757.9844,957.793 Q757.9844,959.0273 758.875,959.8555 Q759.7656,960.668 761.3594,960.668 Q762.2969,960.668 762.9531,960.418 Q763.3438,960.2617 763.7656,959.8242 Q764.0313,959.5586 764.1719,959.4805 Q764.3281,959.4023 764.5313,959.4023 Q764.8594,959.4023 765.1094,959.668 Q765.375,959.918 765.375,960.2617 Q765.375,960.6055 765.0313,961.0117 Q764.5313,961.5898 763.7344,961.918 Q762.6563,962.3711 761.3594,962.3711 Q759.8438,962.3711 758.6406,961.7461 Q757.6563,961.2461 756.9688,960.1836 Q756.2813,959.1055 756.2813,957.8242 L756.2813,956.668 Q756.2813,955.3398 756.8906,954.1992 Q757.5156,953.043 758.6094,952.4336 Q759.7031,951.8086 760.9375,951.8086 Q761.6719,951.8086 762.3125,951.9805 Q762.9688,952.1367 763.5156,952.4961 Z " fill="#000000"/><text fill="#000000" font-family="sans-serif" font-size="14" lengthAdjust="spacing" textLength="40" x="781.25" y="962.418">House</text><line style="stroke:#181818;stroke-width:0.5;" x1="685.5" x2="884.5" y1="972.6211" y2="972.6211"/><text fill="#000000" font-family="sans-serif" font-size="14" lengthAdjust="spacing" textLength="73" x="690.5" y="991.7285">-String type</text><text fill="#000000" font-family="sans-serif" font-size="14" lengthAdjust="spacing" textLength="65" x="690.5" y="1010.3496">-float area</text><text fill="#000000" font-family="sans-serif" font-size="14" lengthAdjust="spacing" textLength="95" x="690.5" y="1028.9707">-String location</text><text fill="#000000" font-family="sans-serif" font-size="14" lengthAdjust="spacing" textLength="189" x="690.5" y="1047.5918">-float distanceFromCityCentre</text><text fill="#000000" font-family="sans-serif" font-size="14" lengthAdjust="spacing" textLength="132" x="690.5" y="1066.2129">-float requestedPrice</text><text fill="#000000" font-family="sans-serif" font-size="14" lengthAdjust="spacing" textLength="87" x="690.5" y="1084.834">-int bedrooms</text><text fill="#000000" font-family="sans-serif" font-size="14" lengthAdjust="spacing" textLength="91" x="690.5" y="1103.4551">-int bathrooms</text><text fill="#000000" font-family="sans-serif" font-size="14" lengthAdjust="spacing" textLength="118" x="690.5" y="1122.0762">-int parkingSpaces</text><text fill="#000000" font-family="sans-serif" font-size="14" lengthAdjust="spacing" textLength="169" x="690.5" y="1140.6973">-String availableEquipment</text><text fill="#000000" font-family="sans-serif" font-size="14" lengthAdjust="spacing" textLength="122" x="690.5" y="1159.3184">-boolean basement</text><text fill="#000000" font-family="sans-serif" font-size="14" lengthAdjust="spacing" textLength="153" x="690.5" y="1177.9395">-boolean inhabitableLoft</text><text fill="#000000" font-family="sans-serif" font-size="14" lengthAdjust="spacing" textLength="118" x="690.5" y="1196.5605">-float sunExposure</text><text fill="#000000" font-family="sans-serif" font-size="14" lengthAdjust="spacing" textLength="120" x="690.5" y="1215.1816">-File[] photographs</text><text fill="#000000" font-family="sans-serif" font-size="14" lengthAdjust="spacing" textLength="149" x="690.5" y="1233.8027">-String commissionDate</text><text fill="#000000" font-family="sans-serif" font-size="14" lengthAdjust="spacing" textLength="145" x="690.5" y="1252.4238">-float commissionValue</text><line style="stroke:#181818;stroke-width:0.5;" x1="685.5" x2="884.5" y1="1259.9375" y2="1259.9375"/><text fill="#000000" font-family="sans-serif" font-size="14" lengthAdjust="spacing" textLength="98" x="690.5" y="1279.0449">+equals(object)</text><text fill="#000000" font-family="sans-serif" font-size="14" lengthAdjust="spacing" textLength="52" x="690.5" y="1297.666">+clone()</text><text fill="#000000" font-family="sans-serif" font-size="14" lengthAdjust="spacing" textLength="67" x="690.5" y="1316.2871">+toString()</text></g><!--class Land--><g id="elem_Land"><rect codeLine="101" fill="#F1F1F1" height="252.832" id="Land" rx="2.5" ry="2.5" style="stroke:#181818;stroke-width:0.5;" width="201" x="920.5" y="1005.6211"/><ellipse cx="1000.75" cy="1021.6211" fill="#ADD1B2" rx="11" ry="11" style="stroke:#181818;stroke-width:1.0;"/><path d="M1003.5156,1017.4961 Q1003.6719,1017.2773 1003.8594,1017.168 Q1004.0469,1017.0586 1004.2656,1017.0586 Q1004.6406,1017.0586 1004.875,1017.3242 Q1005.1094,1017.5742 1005.1094,1018.1836 L1005.1094,1019.6367 Q1005.1094,1020.2461 1004.875,1020.5117 Q1004.6406,1020.7773 1004.2656,1020.7773 Q1003.9219,1020.7773 1003.7188,1020.5742 Q1003.5156,1020.3867 1003.4063,1019.8711 Q1003.3594,1019.5117 1003.1719,1019.3242 Q1002.8438,1018.9492 1002.2344,1018.7305 Q1001.625,1018.5117 1001,1018.5117 Q1000.2344,1018.5117 999.5938,1018.8398 Q998.9688,1019.168 998.4688,1019.918 Q997.9844,1020.668 997.9844,1021.6992 L997.9844,1022.793 Q997.9844,1024.0273 998.875,1024.8555 Q999.7656,1025.668 1001.3594,1025.668 Q1002.2969,1025.668 1002.9531,1025.418 Q1003.3438,1025.2617 1003.7656,1024.8242 Q1004.0313,1024.5586 1004.1719,1024.4805 Q1004.3281,1024.4023 1004.5313,1024.4023 Q1004.8594,1024.4023 1005.1094,1024.668 Q1005.375,1024.918 1005.375,1025.2617 Q1005.375,1025.6055 1005.0313,1026.0117 Q1004.5313,1026.5898 1003.7344,1026.918 Q1002.6563,1027.3711 1001.3594,1027.3711 Q999.8438,1027.3711 998.6406,1026.7461 Q997.6563,1026.2461 996.9688,1025.1836 Q996.2813,1024.1055 996.2813,1022.8242 L996.2813,1021.668 Q996.2813,1020.3398 996.8906,1019.1992 Q997.5156,1018.043 998.6094,1017.4336 Q999.7031,1016.8086 1000.9375,1016.8086 Q1001.6719,1016.8086 1002.3125,1016.9805 Q1002.9688,1017.1367 1003.5156,1017.4961 Z " fill="#000000"/><text fill="#000000" font-family="sans-serif" font-size="14" lengthAdjust="spacing" textLength="32" x="1021.25" y="1027.418">Land</text><line style="stroke:#181818;stroke-width:0.5;" x1="921.5" x2="1120.5" y1="1037.6211" y2="1037.6211"/><text fill="#000000" font-family="sans-serif" font-size="14" lengthAdjust="spacing" textLength="73" x="926.5" y="1056.7285">-String type</text><text fill="#000000" font-family="sans-serif" font-size="14" lengthAdjust="spacing" textLength="65" x="926.5" y="1075.3496">-float area</text><text fill="#000000" font-family="sans-serif" font-size="14" lengthAdjust="spacing" textLength="95" x="926.5" y="1093.9707">-String location</text><text fill="#000000" font-family="sans-serif" font-size="14" lengthAdjust="spacing" textLength="189" x="926.5" y="1112.5918">-float distanceFromCityCentre</text><text fill="#000000" font-family="sans-serif" font-size="14" lengthAdjust="spacing" textLength="132" x="926.5" y="1131.2129">-float requestedPrice</text><text fill="#000000" font-family="sans-serif" font-size="14" lengthAdjust="spacing" textLength="120" x="926.5" y="1149.834">-File[] photographs</text><text fill="#000000" font-family="sans-serif" font-size="14" lengthAdjust="spacing" textLength="149" x="926.5" y="1168.4551">-String commissionDate</text><text fill="#000000" font-family="sans-serif" font-size="14" lengthAdjust="spacing" textLength="145" x="926.5" y="1187.0762">-float commissionValue</text><line style="stroke:#181818;stroke-width:0.5;" x1="921.5" x2="1120.5" y1="1194.5898" y2="1194.5898"/><text fill="#000000" font-family="sans-serif" font-size="14" lengthAdjust="spacing" textLength="98" x="926.5" y="1213.6973">+equals(object)</text><text fill="#000000" font-family="sans-serif" font-size="14" lengthAdjust="spacing" textLength="52" x="926.5" y="1232.3184">+clone()</text><text fill="#000000" font-family="sans-serif" font-size="14" lengthAdjust="spacing" textLength="67" x="926.5" y="1250.9395">+toString()</text></g><!--link UnregisteredUser to MainMenuUI--><g id="link_UnregisteredUser_MainMenuUI"><path codeLine="117" d="M90,94.8611 C90,116.8111 90,150.3911 90,177.8911 " fill="none" id="UnregisteredUser-to-MainMenuUI" style="stroke:#181818;stroke-width:1.0;"/><polygon fill="#181818" points="90,182.9511,94,173.9511,90,177.9511,86,173.9511,90,182.9511" style="stroke:#181818;stroke-width:1.0;"/><text fill="#000000" font-family="sans-serif" font-size="13" lengthAdjust="spacing" textLength="77" x="91" y="139.6494">interacts with</text></g><!--link MainMenuUI to MenuItem--><g id="link_MainMenuUI_MenuItem"><path codeLine="119" d="M173.27,244.3811 C200.05,248.3211 229.87,250.5211 257.25,247.6211 C268.34,246.4511 279.99,244.5811 291.31,242.4111 " fill="none" id="MainMenuUI-to-MenuItem" style="stroke:#181818;stroke-width:1.0;"/><polygon fill="#181818" points="296.48,241.4011,286.8801,239.2007,291.5727,242.3597,288.4138,247.0523,296.48,241.4011" style="stroke:#181818;stroke-width:1.0;"/><text fill="#000000" font-family="sans-serif" font-size="13" lengthAdjust="spacing" textLength="43" x="213.25" y="243.6494">creates</text></g><!--link MainMenuUI to MenuItem--><g id="link_MainMenuUI_MenuItem"><path codeLine="120" d="M173.21,225.6211 C211.02,225.6211 255.21,225.6211 291.12,225.6211 " fill="none" id="MainMenuUI-to-MenuItem-1" style="stroke:#181818;stroke-width:1.0;"/><polygon fill="#181818" points="296.36,225.6211,287.36,221.6211,291.36,225.6211,287.36,229.6211,296.36,225.6211" style="stroke:#181818;stroke-width:1.0;"/><text fill="#000000" font-family="sans-serif" font-size="13" lengthAdjust="spacing" textLength="87" x="191.25" y="201.6494">requests to get</text><text fill="#000000" font-family="sans-serif" font-size="13" lengthAdjust="spacing" textLength="74" x="197.75" y="218.9404">all properties</text></g><!--link MenuItem to ListPropertiesUI--><g id="link_MenuItem_ListPropertiesUI"><path codeLine="122" d="M423.75,225.6211 C441.01,225.6211 460.44,225.6211 480.29,225.6211 " fill="none" id="MenuItem-to-ListPropertiesUI" style="stroke:#181818;stroke-width:1.0;"/><polygon fill="#181818" points="485.34,225.6211,476.34,221.6211,480.34,225.6211,476.34,229.6211,485.34,225.6211" style="stroke:#181818;stroke-width:1.0;"/><text fill="#000000" font-family="sans-serif" font-size="13" lengthAdjust="spacing" textLength="25" x="442" y="218.6494">runs</text></g><!--link ListPropertiesUI to ListPropertiesUI--><g id="link_ListPropertiesUI_ListPropertiesUI"><path codeLine="124" d="M772.57,210.3911 C793.44,212.8111 807.5,217.8911 807.5,225.6211 C807.5,232.6911 795.75,237.5411 777.79,240.1711 " fill="none" id="ListPropertiesUI-to-ListPropertiesUI" style="stroke:#181818;stroke-width:1.0;"/><polygon fill="#181818" points="772.57,240.8511,782.0087,243.6639,777.5287,240.2099,780.9827,235.7299,772.57,240.8511" style="stroke:#181818;stroke-width:1.0;"/><text fill="#000000" font-family="sans-serif" font-size="13" lengthAdjust="spacing" textLength="125" x="813.5" y="222.6494">implements Runnable</text><text fill="#000000" font-family="sans-serif" font-size="13" lengthAdjust="spacing" textLength="49" x="851.5" y="239.9404">interface</text></g><!--link ListPropertiesUI to ListPropertyController--><g id="link_ListPropertiesUI_ListPropertyController"><path codeLine="125" d="M629,268.1411 C629,293.2311 629,325.2811 629,351.2811 " fill="none" id="ListPropertiesUI-to-ListPropertyController" style="stroke:#181818;stroke-width:1.0;"/><polygon fill="#181818" points="629,356.3911,633,347.3911,629,351.3911,625,347.3911,629,356.3911" style="stroke:#181818;stroke-width:1.0;"/><text fill="#000000" font-family="sans-serif" font-size="13" lengthAdjust="spacing" textLength="25" x="630" y="322.6494">runs</text></g><!--link ListPropertyController to Repositories--><g id="link_ListPropertyController_Repositories"><path codeLine="126" d="M599.11,441.8611 C576.71,473.1511 545.65,516.5511 520.07,552.2711 " fill="none" id="ListPropertyController-to-Repositories" style="stroke:#181818;stroke-width:1.0;"/><polygon fill="#181818" points="516.98,556.5811,525.471,551.5909,519.8902,552.5153,518.9658,546.9345,516.98,556.5811" style="stroke:#181818;stroke-width:1.0;"/><text fill="#000000" font-family="sans-serif" font-size="13" lengthAdjust="spacing" textLength="25" x="595" y="486.6494">gets</text><text fill="#000000" font-family="sans-serif" font-size="13" lengthAdjust="spacing" textLength="63" x="576" y="503.9404">instance of</text></g><!--link Repositories to PropertyRepository--><g id="link_Repositories_PropertyRepository"><path codeLine="127" d="M606.34,617.6211 C633.31,617.6211 661.23,617.6211 686.76,617.6211 " fill="none" id="Repositories-to-PropertyRepository" style="stroke:#181818;stroke-width:1.0;"/><polygon fill="#181818" points="691.83,617.6211,682.83,613.6211,686.83,617.6211,682.83,621.6211,691.83,617.6211" style="stroke:#181818;stroke-width:1.0;"/><text fill="#000000" font-family="sans-serif" font-size="13" lengthAdjust="spacing" textLength="49" x="624.5" y="610.6494">contains</text></g><!--link ListPropertyController to PropertyRepository--><g id="link_ListPropertyController_PropertyRepository"><path codeLine="128" d="M659.08,441.8611 C677.72,467.7311 702.32,501.8811 724.83,533.1211 " fill="none" id="ListPropertyController-to-PropertyRepository" style="stroke:#181818;stroke-width:1.0;"/><polygon fill="#181818" points="727.85,537.3111,725.8258,527.6725,724.9236,533.2569,719.3391,532.3548,727.85,537.3111" style="stroke:#181818;stroke-width:1.0;"/><text fill="#000000" font-family="sans-serif" font-size="13" lengthAdjust="spacing" textLength="76" x="704" y="486.6494">gets property</text><text fill="#000000" font-family="sans-serif" font-size="13" lengthAdjust="spacing" textLength="46" x="719" y="503.9404">list from</text></g><!--link PropertyRepository to Property--><g id="link_PropertyRepository_Property"><path codeLine="130" d="M785,697.7511 C785,722.6311 785,749.3011 785,771.1911 " fill="none" id="PropertyRepository-to-Property" style="stroke:#181818;stroke-width:1.0;"/><polygon fill="#181818" points="785,776.3611,789,767.3611,785,771.3611,781,767.3611,785,776.3611" style="stroke:#181818;stroke-width:1.0;"/><text fill="#000000" font-family="sans-serif" font-size="13" lengthAdjust="spacing" textLength="49" x="786" y="742.6494">contains</text></g><!--link Property to Apartment--><g id="link_Property_Apartment"><path codeLine="132" d="M739.68,861.7711 C716.64,884.0511 688.95,912.6211 667,940.6211 C661.13,948.1111 655.3,955.9111 649.56,963.8911 " fill="none" id="Property-to-Apartment" style="stroke:#181818;stroke-width:1.0;"/><polygon fill="#181818" points="646.38,968.3511,654.8677,963.3553,649.2875,964.2834,648.3594,958.7032,646.38,968.3511" style="stroke:#181818;stroke-width:1.0;"/><text fill="#000000" font-family="sans-serif" font-size="13" lengthAdjust="spacing" textLength="39" x="711" y="906.6494">can be</text></g><!--link Property to House--><g id="link_Property_House"><path codeLine="133" d="M785,861.7411 C785,881.9211 785,907.7611 785,935.4211 " fill="none" id="Property-to-House" style="stroke:#181818;stroke-width:1.0;"/><polygon fill="#181818" points="785,940.6111,789,931.6111,785,935.6111,781,931.6111,785,940.6111" style="stroke:#181818;stroke-width:1.0;"/><text fill="#000000" font-family="sans-serif" font-size="13" lengthAdjust="spacing" textLength="39" x="786" y="906.6494">can be</text></g><!--link Property to Land--><g id="link_Property_Land"><path codeLine="134" d="M830.32,861.7711 C853.36,884.0511 881.05,912.6211 903,940.6211 C917.79,959.4911 932.29,980.3111 945.79,1001.0511 " fill="none" id="Property-to-Land" style="stroke:#181818;stroke-width:1.0;"/><polygon fill="#181818" points="948.66,1005.4711,947.1345,995.7411,945.9461,1001.2717,940.4155,1000.0833,948.66,1005.4711" style="stroke:#181818;stroke-width:1.0;"/><text fill="#000000" font-family="sans-serif" font-size="13" lengthAdjust="spacing" textLength="39" x="878" y="906.6494">can be</text></g><!--SRC=[rLLDRzim3BthL-ZO8J3GNOEXGD4FB40B5CsoopeKZCquMcL9bUXsMR7_FifVKHgtnGxRiAD4liT7YgJ2dJ8EF5JIGNu79Svfer5wp0bCgL64mI6ieR2FofHo1Jgabbn32CT4NYrhmbbkpLpzG7ae12bYjiNyyF2zF5N1QTZ82nK82tdbhKDF2eFCv4baO0yecK-8Xb0kZCSoEdii5W6zV1AtjxVYPs-_16KkqTIB6LkoIFiX7cU4rP6qZfGreK5CV6qEtYN0pYl2vgoQKoemv5ur695TryR0aeNNQXGVGstbD-6Jgys9DUIjrgnOZrw_HPeoF8d-yXgT3OgitqYtTzLIEiubKVR9nhAbGGP0B3jdltDM9l2ZvoYotmXP8iqw70UAntrmgc24kd-ytdJK1sDHRH0LpYf7aMS2HN7GQ-7Z0sXL066FJMtFgh4hhxrWMUo3VWKv3jAwFflWVSsDVc2NttWQ69nhQp3DvPZRdoeqb3GIRHmNSAKja0IFC1YqpQ5jhzPOgBPgvzvM9uhVd7dy0FKS7EESN7aLNuHLoYKMtjegT2UWTN9aAJoFvPp7cAlM1uK7K3gsyjbzhLoKAh9pfV7BL-dMbYoFcrjltNDRLIe4LddADUsrR6y_WwxnzU9CoBPaQQ4-sZhWVrMafRKQmJ11mDqRPTQmL1JzB-oAUYsXDcVVkQNhAEyVbFW2JF772_nNyn9x-p_BZjAbFvNDx49EGJugMWkH6ADhl-QdCkSQ43_vYmvTfa6IbRmaRWnedQuXCVWoRc__CxxclqRi6R9nRrKvtRGLR-Jkhxanmo9waoRz7xhGBrWZS6V7JsDs8GPhtrtQbTXnOC38YkOACYaNxzL8ey0OR_WzRapy4UMAkqsCVMmfInfqy6qyjdkNNUAGugwzNJVZjZWdMvFu1G00]--></g></svg>