<?xml version="1.0" encoding="us-ascii" standalone="no"?><svg xmlns="http://www.w3.org/2000/svg" xmlns:xlink="http://www.w3.org/1999/xlink" contentStyleType="text/css" height="563.4px" preserveAspectRatio="none" style="width:1053px;height:563px;background:#FFFFFF;" version="1.1" viewBox="0 0 1053 563" width="1053px" zoomAndPan="magnify"><defs/><g><text fill="#000000" font-family="sans-serif" font-size="12.6" font-weight="bold" lengthAdjust="spacing" textLength="251.1" x="400.05" y="27.0967">User Story 001 - Sequence Diagram (SD)</text><rect fill="#FFFFFF" height="361.0371" style="stroke:#181818;stroke-width:0.9;" width="9" x="54" y="119.918"/><rect fill="#FFFFFF" height="67.4209" style="stroke:#181818;stroke-width:0.9;" width="9" x="272.7" y="140.8799"/><rect fill="#FFFFFF" height="28.1619" style="stroke:#181818;stroke-width:0.9;" width="9" x="385.2" y="208.3008"/><rect fill="#FFFFFF" height="168.9715" style="stroke:#181818;stroke-width:0.9;" width="9" x="496.35" y="275.7217"/><rect fill="#FFFFFF" height="205.2334" style="stroke:#181818;stroke-width:0.9;" width="9" x="641.25" y="275.7217"/><rect fill="#FFFFFF" height="28.1619" style="stroke:#181818;stroke-width:0.9;" width="9" x="769.05" y="303.8836"/><rect fill="#FFFFFF" height="28.1619" style="stroke:#181818;stroke-width:0.9;" width="9" x="865.35" y="360.2074"/><rect fill="#FFFFFF" height="28.1619" style="stroke:#181818;stroke-width:0.9;" width="9" x="980.55" y="416.5313"/><line style="stroke:#181818;stroke-width:0.45;stroke-dasharray:5.0,5.0;" x1="58.5" x2="58.5" y1="110.918" y2="489.0551"/><line style="stroke:#181818;stroke-width:0.45;stroke-dasharray:5.0,5.0;" x1="276.75" x2="276.75" y1="110.918" y2="489.0551"/><line style="stroke:#181818;stroke-width:0.45;stroke-dasharray:5.0,5.0;" x1="389.25" x2="389.25" y1="176.7094" y2="489.0551"/><line style="stroke:#181818;stroke-width:0.45;stroke-dasharray:5.0,5.0;" x1="500.4" x2="500.4" y1="244.1303" y2="489.0551"/><line style="stroke:#181818;stroke-width:0.45;stroke-dasharray:5.0,5.0;" x1="645.3" x2="645.3" y1="110.918" y2="489.0551"/><line style="stroke:#181818;stroke-width:0.45;stroke-dasharray:5.0,5.0;" x1="773.1" x2="773.1" y1="110.918" y2="489.0551"/><line style="stroke:#181818;stroke-width:0.45;stroke-dasharray:5.0,5.0;" x1="869.4" x2="869.4" y1="110.918" y2="489.0551"/><line style="stroke:#181818;stroke-width:0.45;stroke-dasharray:5.0,5.0;" x1="984.6" x2="984.6" y1="110.918" y2="489.0551"/><text fill="#000000" font-family="sans-serif" font-size="12.6" lengthAdjust="spacing" textLength="102.6" x="4.5" y="107.7557">Unregistered User</text><ellipse cx="58.5" cy="47.809" fill="#E2E2F0" rx="7.2" ry="7.2" style="stroke:#181818;stroke-width:0.45;"/><path d="M58.5,55.009 L58.5,79.309 M46.8,62.209 L70.2,62.209 M58.5,79.309 L46.8,92.809 M58.5,79.309 L70.2,92.809 " fill="none" style="stroke:#181818;stroke-width:0.45;"/><text fill="#000000" font-family="sans-serif" font-size="12.6" lengthAdjust="spacing" textLength="102.6" x="4.5" y="501.7518">Unregistered User</text><ellipse cx="58.5" cy="512.5641" fill="#E2E2F0" rx="7.2" ry="7.2" style="stroke:#181818;stroke-width:0.45;"/><path d="M58.5,519.7641 L58.5,544.0641 M46.8,526.9641 L70.2,526.9641 M58.5,544.0641 L46.8,557.5641 M58.5,544.0641 L70.2,557.5641 " fill="none" style="stroke:#181818;stroke-width:0.45;"/><rect fill="#E2E2F0" height="29.359" rx="2.25" ry="2.25" style="stroke:#181818;stroke-width:0.45;" width="85.5" x="234.45" y="80.659"/><text fill="#000000" font-family="sans-serif" font-size="12.6" lengthAdjust="spacing" textLength="72.9" x="240.75" y="100.5557">:MainMenuUI</text><rect fill="#E2E2F0" height="29.359" rx="2.25" ry="2.25" style="stroke:#181818;stroke-width:0.45;" width="85.5" x="234.45" y="488.1551"/><text fill="#000000" font-family="sans-serif" font-size="12.6" lengthAdjust="spacing" textLength="72.9" x="240.75" y="508.0518">:MainMenuUI</text><rect fill="#E2E2F0" height="29.359" rx="2.25" ry="2.25" style="stroke:#181818;stroke-width:0.45;" width="71.1" x="354.15" y="488.1551"/><text fill="#000000" font-family="sans-serif" font-size="12.6" lengthAdjust="spacing" textLength="58.5" x="360.45" y="508.0518">:MenuItem</text><rect fill="#E2E2F0" height="29.359" rx="2.25" ry="2.25" style="stroke:#181818;stroke-width:0.45;" width="105.3" x="448.2" y="488.1551"/><text fill="#000000" font-family="sans-serif" font-size="12.6" lengthAdjust="spacing" textLength="92.7" x="454.5" y="508.0518">:ListPropertiesUI</text><rect fill="#E2E2F0" height="29.359" rx="2.25" ry="2.25" style="stroke:#181818;stroke-width:0.45;" width="150.3" x="570.6" y="80.659"/><text fill="#000000" font-family="sans-serif" font-size="12.6" lengthAdjust="spacing" textLength="137.7" x="576.9" y="100.5557">:ListPropertiesController</text><rect fill="#E2E2F0" height="29.359" rx="2.25" ry="2.25" style="stroke:#181818;stroke-width:0.45;" width="150.3" x="570.6" y="488.1551"/><text fill="#000000" font-family="sans-serif" font-size="12.6" lengthAdjust="spacing" textLength="137.7" x="576.9" y="508.0518">:ListPropertiesController</text><rect fill="#E2E2F0" height="29.359" rx="2.25" ry="2.25" style="stroke:#181818;stroke-width:0.45;" width="87.3" x="729.9" y="80.659"/><text fill="#000000" font-family="sans-serif" font-size="12.6" lengthAdjust="spacing" textLength="74.7" x="736.2" y="100.5557">:Repositories</text><rect fill="#E2E2F0" height="29.359" rx="2.25" ry="2.25" style="stroke:#181818;stroke-width:0.45;" width="87.3" x="729.9" y="488.1551"/><text fill="#000000" font-family="sans-serif" font-size="12.6" lengthAdjust="spacing" textLength="74.7" x="736.2" y="508.0518">:Repositories</text><rect fill="#E2E2F0" height="46.118" rx="2.25" ry="2.25" style="stroke:#181818;stroke-width:0.45;" width="87.3" x="826.2" y="63.9"/><text fill="#000000" font-family="sans-serif" font-size="12.6" lengthAdjust="spacing" textLength="66.6" x="836.55" y="83.7967">repositories</text><text fill="#000000" font-family="sans-serif" font-size="12.6" lengthAdjust="spacing" textLength="74.7" x="832.5" y="100.5557">:Repositories</text><rect fill="#E2E2F0" height="46.118" rx="2.25" ry="2.25" style="stroke:#181818;stroke-width:0.45;" width="87.3" x="826.2" y="488.1551"/><text fill="#000000" font-family="sans-serif" font-size="12.6" lengthAdjust="spacing" textLength="66.6" x="836.55" y="508.0518">repositories</text><text fill="#000000" font-family="sans-serif" font-size="12.6" lengthAdjust="spacing" textLength="74.7" x="832.5" y="524.8107">:Repositories</text><rect fill="#E2E2F0" height="46.118" rx="2.25" ry="2.25" style="stroke:#181818;stroke-width:0.45;" width="125.1" x="922.5" y="63.9"/><text fill="#000000" font-family="sans-serif" font-size="12.6" lengthAdjust="spacing" textLength="112.5" x="928.8" y="83.7967">propertyAnnouncementRepository:</text><text fill="#000000" font-family="sans-serif" font-size="12.6" lengthAdjust="spacing" textLength="108.9" x="930.6" y="100.5557">propertyAnnouncementRepository</text><rect fill="#E2E2F0" height="46.118" rx="2.25" ry="2.25" style="stroke:#181818;stroke-width:0.45;" width="125.1" x="922.5" y="488.1551"/><text fill="#000000" font-family="sans-serif" font-size="12.6" lengthAdjust="spacing" textLength="112.5" x="928.8" y="508.0518">propertyAnnouncementRepository:</text><text fill="#000000" font-family="sans-serif" font-size="12.6" lengthAdjust="spacing" textLength="108.9" x="930.6" y="524.8107">propertyAnnouncementRepository</text><rect fill="#FFFFFF" height="361.0371" style="stroke:#181818;stroke-width:0.9;" width="9" x="54" y="119.918"/><rect fill="#FFFFFF" height="67.4209" style="stroke:#181818;stroke-width:0.9;" width="9" x="272.7" y="140.8799"/><rect fill="#FFFFFF" height="28.1619" style="stroke:#181818;stroke-width:0.9;" width="9" x="385.2" y="208.3008"/><rect fill="#FFFFFF" height="168.9715" style="stroke:#181818;stroke-width:0.9;" width="9" x="496.35" y="275.7217"/><rect fill="#FFFFFF" height="205.2334" style="stroke:#181818;stroke-width:0.9;" width="9" x="641.25" y="275.7217"/><rect fill="#FFFFFF" height="28.1619" style="stroke:#181818;stroke-width:0.9;" width="9" x="769.05" y="303.8836"/><rect fill="#FFFFFF" height="28.1619" style="stroke:#181818;stroke-width:0.9;" width="9" x="865.35" y="360.2074"/><rect fill="#FFFFFF" height="28.1619" style="stroke:#181818;stroke-width:0.9;" width="9" x="980.55" y="416.5313"/><polygon fill="#181818" points="261.9,137.2799,270.9,140.8799,261.9,144.4799,265.5,140.8799" style="stroke:#181818;stroke-width:0.9;"/><line style="stroke:#181818;stroke-width:0.9;" x1="63" x2="267.3" y1="140.8799" y2="140.8799"/><text fill="#000000" font-family="sans-serif" font-size="11.7" font-weight="bold" lengthAdjust="spacing" textLength="6.3" x="69.3" y="136.1435">1</text><text fill="#000000" font-family="sans-serif" font-size="11.7" lengthAdjust="spacing" textLength="182.7" x="79.2" y="136.1435">requests to see all listed properties</text><polygon fill="#181818" points="343.35,165.4418,352.35,169.0418,343.35,172.6418,346.95,169.0418" style="stroke:#181818;stroke-width:0.9;"/><line style="stroke:#181818;stroke-width:0.9;" x1="281.7" x2="348.75" y1="169.0418" y2="169.0418"/><text fill="#000000" font-family="sans-serif" font-size="11.7" font-weight="bold" lengthAdjust="spacing" textLength="6.3" x="288" y="164.3054">2</text><text fill="#000000" font-family="sans-serif" font-size="11.7" lengthAdjust="spacing" textLength="32.4" x="297.9" y="164.3054">create</text><rect fill="#E2E2F0" height="29.359" rx="2.25" ry="2.25" style="stroke:#181818;stroke-width:0.45;" width="71.1" x="354.15" y="148.0799"/><text fill="#000000" font-family="sans-serif" font-size="12.6" lengthAdjust="spacing" textLength="58.5" x="360.45" y="167.9766">:MenuItem</text><polygon fill="#181818" points="374.4,204.7008,383.4,208.3008,374.4,211.9008,378,208.3008" style="stroke:#181818;stroke-width:0.9;"/><line style="stroke:#181818;stroke-width:0.9;" x1="277.2" x2="379.8" y1="208.3008" y2="208.3008"/><text fill="#000000" font-family="sans-serif" font-size="11.7" font-weight="bold" lengthAdjust="spacing" textLength="6.3" x="283.5" y="203.5644">3</text><text fill="#000000" font-family="sans-serif" font-size="11.7" lengthAdjust="spacing" textLength="76.5" x="293.4" y="203.5644">getProperties()</text><polygon fill="#181818" points="437.4,232.8627,446.4,236.4627,437.4,240.0627,441,236.4627" style="stroke:#181818;stroke-width:0.9;"/><line style="stroke:#181818;stroke-width:0.9;" x1="389.7" x2="442.8" y1="236.4627" y2="236.4627"/><text fill="#000000" font-family="sans-serif" font-size="11.7" font-weight="bold" lengthAdjust="spacing" textLength="6.3" x="396" y="231.7263">4</text><text fill="#000000" font-family="sans-serif" font-size="11.7" lengthAdjust="spacing" textLength="22.5" x="405.9" y="231.7263">runs</text><rect fill="#E2E2F0" height="29.359" rx="2.25" ry="2.25" style="stroke:#181818;stroke-width:0.45;" width="105.3" x="448.2" y="215.5008"/><text fill="#000000" font-family="sans-serif" font-size="12.6" lengthAdjust="spacing" textLength="92.7" x="454.5" y="235.3975">:ListPropertiesUI</text><polygon fill="#181818" points="630.45,272.1217,639.45,275.7217,630.45,279.3217,634.05,275.7217" style="stroke:#181818;stroke-width:0.9;"/><line style="stroke:#181818;stroke-width:0.9;" x1="505.35" x2="635.85" y1="275.7217" y2="275.7217"/><text fill="#000000" font-family="sans-serif" font-size="11.7" font-weight="bold" lengthAdjust="spacing" textLength="6.3" x="511.65" y="270.9853">5</text><text fill="#000000" font-family="sans-serif" font-size="11.7" lengthAdjust="spacing" textLength="113.4" x="521.55" y="270.9853">runs item from class..</text><polygon fill="#181818" points="758.25,300.2836,767.25,303.8836,758.25,307.4836,761.85,303.8836" style="stroke:#181818;stroke-width:0.9;"/><line style="stroke:#181818;stroke-width:0.9;" x1="650.25" x2="763.65" y1="303.8836" y2="303.8836"/><text fill="#000000" font-family="sans-serif" font-size="11.7" font-weight="bold" lengthAdjust="spacing" textLength="6.3" x="656.55" y="299.1472">6</text><text fill="#000000" font-family="sans-serif" font-size="11.7" lengthAdjust="spacing" textLength="67.5" x="666.45" y="299.1472">getInstance()</text><polygon fill="#181818" points="660.15,328.4455,651.15,332.0455,660.15,335.6455,656.55,332.0455" style="stroke:#181818;stroke-width:0.9;"/><line style="stroke:#181818;stroke-width:0.9;stroke-dasharray:2.0,2.0;" x1="654.75" x2="772.65" y1="332.0455" y2="332.0455"/><text fill="#000000" font-family="sans-serif" font-size="11.7" font-weight="bold" lengthAdjust="spacing" textLength="6.3" x="665.55" y="327.3091">7</text><text fill="#000000" font-family="sans-serif" font-size="11.7" lengthAdjust="spacing" textLength="60.3" x="675.45" y="327.3091">repositories</text><polygon fill="#181818" points="854.55,356.6074,863.55,360.2074,854.55,363.8074,858.15,360.2074" style="stroke:#181818;stroke-width:0.9;"/><line style="stroke:#181818;stroke-width:0.9;" x1="650.25" x2="859.95" y1="360.2074" y2="360.2074"/><text fill="#000000" font-family="sans-serif" font-size="11.7" font-weight="bold" lengthAdjust="spacing" textLength="6.3" x="656.55" y="355.471">8</text><text fill="#000000" font-family="sans-serif" font-size="11.7" lengthAdjust="spacing" textLength="123.3" x="666.45" y="355.471">getPropertyRepository()</text><polygon fill="#181818" points="660.15,384.7693,651.15,388.3693,660.15,391.9693,656.55,388.3693" style="stroke:#181818;stroke-width:0.9;"/><line style="stroke:#181818;stroke-width:0.9;stroke-dasharray:2.0,2.0;" x1="654.75" x2="868.95" y1="388.3693" y2="388.3693"/><text fill="#000000" font-family="sans-serif" font-size="11.7" font-weight="bold" lengthAdjust="spacing" textLength="6.3" x="665.55" y="383.6329">9</text><text fill="#000000" font-family="sans-serif" font-size="11.7" lengthAdjust="spacing" textLength="98.1" x="675.45" y="383.6329">propertyAnnouncementRepository</text><polygon fill="#181818" points="969.75,412.9313,978.75,416.5313,969.75,420.1313,973.35,416.5313" style="stroke:#181818;stroke-width:0.9;"/><line style="stroke:#181818;stroke-width:0.9;" x1="650.25" x2="975.15" y1="416.5313" y2="416.5313"/><text fill="#000000" font-family="sans-serif" font-size="11.7" font-weight="bold" lengthAdjust="spacing" textLength="12.6" x="656.55" y="411.7948">10</text><text fill="#000000" font-family="sans-serif" font-size="11.7" lengthAdjust="spacing" textLength="76.5" x="672.75" y="411.7948">getProperties()</text><polygon fill="#181818" points="660.15,441.0932,651.15,444.6932,660.15,448.2932,656.55,444.6932" style="stroke:#181818;stroke-width:0.9;"/><line style="stroke:#181818;stroke-width:0.9;stroke-dasharray:2.0,2.0;" x1="654.75" x2="984.15" y1="444.6932" y2="444.6932"/><text fill="#000000" font-family="sans-serif" font-size="11.7" font-weight="bold" lengthAdjust="spacing" textLength="12.6" x="665.55" y="439.9567">11</text><text fill="#000000" font-family="sans-serif" font-size="11.7" lengthAdjust="spacing" textLength="61.2" x="681.75" y="439.9567">propertyList</text><polygon fill="#181818" points="72.9,469.2551,63.9,472.8551,72.9,476.4551,69.3,472.8551" style="stroke:#181818;stroke-width:0.9;"/><line style="stroke:#181818;stroke-width:0.9;stroke-dasharray:2.0,2.0;" x1="67.5" x2="640.35" y1="472.8551" y2="472.8551"/><text fill="#000000" font-family="sans-serif" font-size="11.7" font-weight="bold" lengthAdjust="spacing" textLength="12.6" x="78.3" y="468.1187">12</text><text fill="#000000" font-family="sans-serif" font-size="11.7" lengthAdjust="spacing" textLength="293.4" x="94.5" y="468.1187">prints all properties (along with price, location and agent)</text><!--SRC=[XLJ1JkCm4BtxAqOz5KGHU-q12S6bKf4GeJSknXc2XMjdRMTH_tx74s-QnAcsXoePl_VyF6-SyArjAxqyGYlLjsomYYU3u555QHk38Wo0y2LhzwDj0v_I11GYwaZGGq0FLNJ-17Ttls035Vxkq2g49osRH5nNJrT2o2uwsnq_qDEp8Zoi3jPZeqD4ZpNhh406VX2qPTHAjz96M6sVfRRFQBl3ZX7fzR2ROsXz5_7O8-XbjhwdZLwyQv6A6B9IAXPAK-IZiz4xOxAxnxVN_Gp_YgqBcav4QCOCXLEbKnFfu5EA7p7URIdmidzucpBQti_fBBrzjsMnPnTb8RZd-e-CVM120FqukirzxYTiANQABiG0qK5016aCc1HG3UtG4AOEQZaBBcQTf4ZzlxucHUMHK0khjDRWgCthAmRLE5UUxfPoxTMI1cdr2V9UlhEX44c4LEE_7fneASPC0KrJ0v_U7K4P6SBjxNJFF2EJ6ay1brY811Soxu-uiu6kai9ym45YQKWOiQIq6LaU3Slyj1Sr_xbCWpNf_6X8vWPv2Bd4h965SkxcHixSOUU2Ss42pXeBOynkIgK5RocrmjL_VUUiHyv9cQz9KjQMhaQw4-VB06jf77qIVtJyIWY5Ds2Sab5JQjBMG9zK6o_DjX1_0G00]--></g></svg>