<?xml version="1.0" encoding="us-ascii" standalone="no"?><svg xmlns="http://www.w3.org/2000/svg" xmlns:xlink="http://www.w3.org/1999/xlink" contentStyleType="text/css" height="677.35px" preserveAspectRatio="none" style="width:506px;height:677px;background:#FFFFFF;" version="1.1" viewBox="0 0 506 677" width="506.54px" zoomAndPan="magnify"><defs/><g><text fill="#000000" font-family="sans-serif" font-size="4.34" font-weight="bold" lengthAdjust="spacing" textLength="79.05" x="211.575" y="7.7833">US011 Accept Offers - Class Diagram</text><!--class PropertyAnnouncementRepository--><g id="elem_PropertyAnnouncementRepository"><rect codeLine="11" fill="#F1F1F1" height="49.5152" id="PropertyAnnouncementRepository" rx="0.775" ry="0.775" style="stroke:#181818;stroke-width:0.155;" width="77.19" x="293.725" y="385.8325"/><ellipse cx="298.375" cy="390.7925" fill="#ADD1B2" rx="3.41" ry="3.41" style="stroke:#181818;stroke-width:0.31;"/><path d="M299.2323,389.5138 Q299.2808,389.446 299.3389,389.4121 Q299.397,389.3782 299.4648,389.3782 Q299.5811,389.3782 299.6538,389.4605 Q299.7264,389.538 299.7264,389.7269 L299.7264,390.1774 Q299.7264,390.3663 299.6538,390.4486 Q299.5811,390.531 299.4648,390.531 Q299.3583,390.531 299.2953,390.468 Q299.2323,390.4099 299.1984,390.25 Q299.1839,390.1386 299.1258,390.0805 Q299.0241,389.9643 298.8352,389.8964 Q298.6463,389.8286 298.4525,389.8286 Q298.2152,389.8286 298.0166,389.9304 Q297.8228,390.0321 297.6678,390.2646 Q297.5177,390.4971 297.5177,390.8168 L297.5177,391.1558 Q297.5177,391.5385 297.7938,391.7952 Q298.0698,392.0471 298.5639,392.0471 Q298.8545,392.0471 299.058,391.9696 Q299.1791,391.9211 299.3098,391.7855 Q299.3922,391.7032 299.4358,391.6789 Q299.4842,391.6547 299.5472,391.6547 Q299.6489,391.6547 299.7264,391.7371 Q299.8088,391.8146 299.8088,391.9211 Q299.8088,392.0277 299.7022,392.1536 Q299.5472,392.3329 299.3002,392.4346 Q298.9659,392.575 298.5639,392.575 Q298.0941,392.575 297.7211,392.3813 Q297.4159,392.2263 297.2028,391.8969 Q296.9897,391.5627 296.9897,391.1655 L296.9897,390.8071 Q296.9897,390.3954 297.1786,390.0418 Q297.3723,389.6833 297.7114,389.4944 Q298.0505,389.3007 298.4331,389.3007 Q298.6608,389.3007 298.8594,389.3539 Q299.0628,389.4024 299.2323,389.5138 Z " fill="#000000"/><text fill="#000000" font-family="sans-serif" font-size="4.34" lengthAdjust="spacing" textLength="67.27" x="302.715" y="392.5896">PropertyAnnouncementRepository</text><line style="stroke:#181818;stroke-width:0.155;" x1="294.035" x2="370.605" y1="395.7525" y2="395.7525"/><text fill="#000000" font-family="sans-serif" font-size="4.34" lengthAdjust="spacing" textLength="62.62" x="295.585" y="401.6758">-List&lt;Property&gt; announcements</text><line style="stroke:#181818;stroke-width:0.155;" x1="294.035" x2="370.605" y1="404.0051" y2="404.0051"/><text fill="#000000" font-family="sans-serif" font-size="4.34" lengthAdjust="spacing" textLength="20.77" x="295.585" y="409.9284">+isEmpty()</text><text fill="#000000" font-family="sans-serif" font-size="4.34" lengthAdjust="spacing" textLength="29.45" x="295.585" y="415.7009">+add(property)</text><text fill="#000000" font-family="sans-serif" font-size="4.34" lengthAdjust="spacing" textLength="53.01" x="295.585" y="421.4735">-validateProperty(property)</text><text fill="#000000" font-family="sans-serif" font-size="4.34" lengthAdjust="spacing" textLength="31.93" x="295.585" y="427.246">+remove(object)</text><text fill="#000000" font-family="sans-serif" font-size="4.34" lengthAdjust="spacing" textLength="31.93" x="295.585" y="433.0185">+getProperties()</text></g><!--class PropertySoldRepository--><g id="elem_PropertySoldRepository"><rect codeLine="21" fill="#F1F1F1" height="43.7427" id="PropertySoldRepository" rx="0.775" ry="0.775" style="stroke:#181818;stroke-width:0.155;" width="63.24" x="219.17" y="388.7775"/><ellipse cx="226.889" cy="393.7375" fill="#ADD1B2" rx="3.41" ry="3.41" style="stroke:#181818;stroke-width:0.31;"/><path d="M227.7463,392.4588 Q227.7948,392.391 227.8529,392.3571 Q227.911,392.3232 227.9788,392.3232 Q228.0951,392.3232 228.1677,392.4055 Q228.2404,392.483 228.2404,392.6719 L228.2404,393.1224 Q228.2404,393.3113 228.1677,393.3936 Q228.0951,393.476 227.9788,393.476 Q227.8723,393.476 227.8093,393.413 Q227.7463,393.3549 227.7124,393.195 Q227.6979,393.0836 227.6398,393.0255 Q227.5381,392.9093 227.3492,392.8414 Q227.1603,392.7736 226.9665,392.7736 Q226.7292,392.7736 226.5306,392.8754 Q226.3368,392.9771 226.1818,393.2096 Q226.0317,393.4421 226.0317,393.7618 L226.0317,394.1008 Q226.0317,394.4835 226.3078,394.7402 Q226.5838,394.9921 227.0779,394.9921 Q227.3685,394.9921 227.572,394.9146 Q227.6931,394.8661 227.8238,394.7305 Q227.9062,394.6482 227.9498,394.6239 Q227.9982,394.5997 228.0612,394.5997 Q228.1629,394.5997 228.2404,394.6821 Q228.3227,394.7596 228.3227,394.8661 Q228.3227,394.9727 228.2162,395.0986 Q228.0612,395.2779 227.8142,395.3796 Q227.4799,395.52 227.0779,395.52 Q226.6081,395.52 226.2351,395.3263 Q225.9299,395.1713 225.7168,394.8419 Q225.5037,394.5077 225.5037,394.1105 L225.5037,393.7521 Q225.5037,393.3404 225.6926,392.9868 Q225.8863,392.6283 226.2254,392.4394 Q226.5645,392.2457 226.9471,392.2457 Q227.1748,392.2457 227.3734,392.2989 Q227.5768,392.3474 227.7463,392.4588 Z " fill="#000000"/><text fill="#000000" font-family="sans-serif" font-size="4.34" lengthAdjust="spacing" textLength="46.5" x="231.911" y="395.5346">PropertySoldRepository</text><line style="stroke:#181818;stroke-width:0.155;" x1="219.48" x2="282.1" y1="398.6975" y2="398.6975"/><text fill="#000000" font-family="sans-serif" font-size="4.34" lengthAdjust="spacing" textLength="59.52" x="221.03" y="404.6208">-List&lt;Property&gt; soldProperties</text><line style="stroke:#181818;stroke-width:0.155;" x1="219.48" x2="282.1" y1="406.9501" y2="406.9501"/><text fill="#000000" font-family="sans-serif" font-size="4.34" lengthAdjust="spacing" textLength="20.77" x="221.03" y="412.8734">+isEmpty()</text><text fill="#000000" font-family="sans-serif" font-size="4.34" lengthAdjust="spacing" textLength="29.45" x="221.03" y="418.6459">+add(property)</text><text fill="#000000" font-family="sans-serif" font-size="4.34" lengthAdjust="spacing" textLength="53.01" x="221.03" y="424.4185">-validateProperty(property)</text><text fill="#000000" font-family="sans-serif" font-size="4.34" lengthAdjust="spacing" textLength="31.93" x="221.03" y="430.191">+getProperties()</text></g><!--class OrderRepository--><g id="elem_OrderRepository"><rect codeLine="30" fill="#F1F1F1" height="43.7427" id="OrderRepository" rx="0.775" ry="0.775" style="stroke:#181818;stroke-width:0.155;" width="45.57" x="103.075" y="388.7775"/><ellipse cx="109.12" cy="393.7375" fill="#ADD1B2" rx="3.41" ry="3.41" style="stroke:#181818;stroke-width:0.31;"/><path d="M109.9773,392.4588 Q110.0258,392.391 110.0839,392.3571 Q110.142,392.3232 110.2098,392.3232 Q110.3261,392.3232 110.3987,392.4055 Q110.4714,392.483 110.4714,392.6719 L110.4714,393.1224 Q110.4714,393.3113 110.3987,393.3936 Q110.3261,393.476 110.2098,393.476 Q110.1033,393.476 110.0403,393.413 Q109.9773,393.3549 109.9434,393.195 Q109.9289,393.0836 109.8708,393.0255 Q109.7691,392.9093 109.5802,392.8414 Q109.3913,392.7736 109.1975,392.7736 Q108.9602,392.7736 108.7616,392.8754 Q108.5678,392.9771 108.4128,393.2096 Q108.2627,393.4421 108.2627,393.7618 L108.2627,394.1008 Q108.2627,394.4835 108.5388,394.7402 Q108.8148,394.9921 109.3089,394.9921 Q109.5995,394.9921 109.803,394.9146 Q109.9241,394.8661 110.0548,394.7305 Q110.1372,394.6482 110.1808,394.6239 Q110.2292,394.5997 110.2922,394.5997 Q110.3939,394.5997 110.4714,394.6821 Q110.5538,394.7596 110.5538,394.8661 Q110.5538,394.9727 110.4472,395.0986 Q110.2922,395.2779 110.0452,395.3796 Q109.7109,395.52 109.3089,395.52 Q108.8391,395.52 108.4661,395.3263 Q108.1609,395.1713 107.9478,394.8419 Q107.7347,394.5077 107.7347,394.1105 L107.7347,393.7521 Q107.7347,393.3404 107.9236,392.9868 Q108.1173,392.6283 108.4564,392.4394 Q108.7955,392.2457 109.1781,392.2457 Q109.4058,392.2457 109.6044,392.2989 Q109.8078,392.3474 109.9773,392.4588 Z " fill="#000000"/><text fill="#000000" font-family="sans-serif" font-size="4.34" lengthAdjust="spacing" textLength="32.55" x="113.77" y="395.5346">OrderRepository</text><line style="stroke:#181818;stroke-width:0.155;" x1="103.385" x2="148.335" y1="398.6975" y2="398.6975"/><text fill="#000000" font-family="sans-serif" font-size="4.34" lengthAdjust="spacing" textLength="38.75" x="104.935" y="404.6208">-List&lt;Order&gt; orders</text><line style="stroke:#181818;stroke-width:0.155;" x1="103.385" x2="148.335" y1="406.9501" y2="406.9501"/><text fill="#000000" font-family="sans-serif" font-size="4.34" lengthAdjust="spacing" textLength="23.56" x="104.935" y="412.8734">+add(order)</text><text fill="#000000" font-family="sans-serif" font-size="4.34" lengthAdjust="spacing" textLength="41.85" x="104.935" y="418.6459">-validateOrder(order)</text><text fill="#000000" font-family="sans-serif" font-size="4.34" lengthAdjust="spacing" textLength="31.93" x="104.935" y="424.4185">+remove(object)</text><text fill="#000000" font-family="sans-serif" font-size="4.34" lengthAdjust="spacing" textLength="25.42" x="104.935" y="430.191">+getOrders()</text></g><!--class Employee--><g id="elem_Employee"><rect codeLine="39" fill="#F1F1F1" height="66.8329" id="Employee" rx="0.775" ry="0.775" style="stroke:#181818;stroke-width:0.155;" width="45.57" x="298.065" y="128.8425"/><ellipse cx="310.1085" cy="133.8025" fill="#ADD1B2" rx="3.41" ry="3.41" style="stroke:#181818;stroke-width:0.31;"/><path d="M310.9658,132.5238 Q311.0143,132.456 311.0724,132.4221 Q311.1305,132.3882 311.1983,132.3882 Q311.3146,132.3882 311.3873,132.4705 Q311.4599,132.548 311.4599,132.7369 L311.4599,133.1874 Q311.4599,133.3763 311.3873,133.4586 Q311.3146,133.541 311.1983,133.541 Q311.0918,133.541 311.0288,133.478 Q310.9658,133.4199 310.9319,133.26 Q310.9174,133.1486 310.8593,133.0905 Q310.7576,132.9743 310.5687,132.9064 Q310.3798,132.8386 310.186,132.8386 Q309.9487,132.8386 309.7501,132.9404 Q309.5563,133.0421 309.4013,133.2746 Q309.2512,133.5071 309.2512,133.8268 L309.2512,134.1658 Q309.2512,134.5485 309.5273,134.8052 Q309.8033,135.0571 310.2974,135.0571 Q310.588,135.0571 310.7915,134.9796 Q310.9126,134.9311 311.0433,134.7955 Q311.1257,134.7132 311.1693,134.6889 Q311.2177,134.6647 311.2807,134.6647 Q311.3824,134.6647 311.4599,134.7471 Q311.5423,134.8246 311.5423,134.9311 Q311.5423,135.0377 311.4357,135.1636 Q311.2807,135.3429 311.0337,135.4446 Q310.6994,135.585 310.2974,135.585 Q309.8276,135.585 309.4546,135.3913 Q309.1494,135.2363 308.9363,134.9069 Q308.7232,134.5727 308.7232,134.1755 L308.7232,133.8171 Q308.7232,133.4054 308.9121,133.0518 Q309.1058,132.6933 309.4449,132.5044 Q309.784,132.3107 310.1666,132.3107 Q310.3943,132.3107 310.5929,132.3639 Q310.7963,132.4124 310.9658,132.5238 Z " fill="#000000"/><text fill="#000000" font-family="sans-serif" font-size="4.34" lengthAdjust="spacing" textLength="19.22" x="316.0915" y="135.5996">Employee</text><line style="stroke:#181818;stroke-width:0.155;" x1="298.375" x2="343.325" y1="138.7625" y2="138.7625"/><text fill="#000000" font-family="sans-serif" font-size="4.34" lengthAdjust="spacing" textLength="21.7" x="299.925" y="144.6858">-String role</text><text fill="#000000" font-family="sans-serif" font-size="4.34" lengthAdjust="spacing" textLength="24.49" x="299.925" y="150.4584">-String email</text><text fill="#000000" font-family="sans-serif" font-size="4.34" lengthAdjust="spacing" textLength="25.11" x="299.925" y="156.2309">-String name</text><text fill="#000000" font-family="sans-serif" font-size="4.34" lengthAdjust="spacing" textLength="41.85" x="299.925" y="162.0035">-String phoneNumber</text><text fill="#000000" font-family="sans-serif" font-size="4.34" lengthAdjust="spacing" textLength="30.07" x="299.925" y="167.776">-String address</text><text fill="#000000" font-family="sans-serif" font-size="4.34" lengthAdjust="spacing" textLength="24.18" x="299.925" y="173.5485">-String store</text><text fill="#000000" font-family="sans-serif" font-size="4.34" lengthAdjust="spacing" textLength="26.97" x="299.925" y="179.3211">-int ccNumber</text><text fill="#000000" font-family="sans-serif" font-size="4.34" lengthAdjust="spacing" textLength="28.21" x="299.925" y="185.0936">-int taxNumber</text><text fill="#000000" font-family="sans-serif" font-size="4.34" lengthAdjust="spacing" textLength="22.01" x="299.925" y="190.8662">-String pwd</text><line style="stroke:#181818;stroke-width:0.155;" x1="298.375" x2="343.325" y1="193.1954" y2="193.1954"/></g><!--class Order--><g id="elem_Order"><rect codeLine="51" fill="#F1F1F1" height="37.9702" id="Order" rx="0.775" ry="0.775" style="stroke:#181818;stroke-width:0.155;" width="39.68" x="106.02" y="476.8175"/><ellipse cx="118.9005" cy="481.7775" fill="#ADD1B2" rx="3.41" ry="3.41" style="stroke:#181818;stroke-width:0.31;"/><path d="M119.7578,480.4988 Q119.8063,480.431 119.8644,480.3971 Q119.9225,480.3632 119.9903,480.3632 Q120.1066,480.3632 120.1793,480.4455 Q120.2519,480.523 120.2519,480.7119 L120.2519,481.1624 Q120.2519,481.3513 120.1793,481.4336 Q120.1066,481.516 119.9903,481.516 Q119.8838,481.516 119.8208,481.453 Q119.7578,481.3949 119.7239,481.235 Q119.7094,481.1236 119.6513,481.0655 Q119.5496,480.9493 119.3607,480.8814 Q119.1718,480.8136 118.978,480.8136 Q118.7407,480.8136 118.5421,480.9154 Q118.3483,481.0171 118.1933,481.2496 Q118.0432,481.4821 118.0432,481.8018 L118.0432,482.1408 Q118.0432,482.5235 118.3193,482.7802 Q118.5953,483.0321 119.0894,483.0321 Q119.38,483.0321 119.5835,482.9546 Q119.7046,482.9061 119.8353,482.7705 Q119.9177,482.6882 119.9613,482.6639 Q120.0097,482.6397 120.0727,482.6397 Q120.1744,482.6397 120.2519,482.7221 Q120.3343,482.7996 120.3343,482.9061 Q120.3343,483.0127 120.2277,483.1386 Q120.0727,483.3179 119.8257,483.4196 Q119.4914,483.56 119.0894,483.56 Q118.6196,483.56 118.2466,483.3663 Q117.9414,483.2113 117.7283,482.8819 Q117.5152,482.5477 117.5152,482.1505 L117.5152,481.7921 Q117.5152,481.3804 117.7041,481.0268 Q117.8978,480.6683 118.2369,480.4794 Q118.576,480.2857 118.9586,480.2857 Q119.1863,480.2857 119.3849,480.3389 Q119.5883,480.3874 119.7578,480.4988 Z " fill="#000000"/><text fill="#000000" font-family="sans-serif" font-size="4.34" lengthAdjust="spacing" textLength="11.47" x="125.0695" y="483.5746">Order</text><line style="stroke:#181818;stroke-width:0.155;" x1="106.33" x2="145.39" y1="486.7375" y2="486.7375"/><text fill="#000000" font-family="sans-serif" font-size="4.34" lengthAdjust="spacing" textLength="35.03" x="107.88" y="492.6608">-String clientEmail</text><text fill="#000000" font-family="sans-serif" font-size="4.34" lengthAdjust="spacing" textLength="35.96" x="107.88" y="498.4334">-Property property</text><text fill="#000000" font-family="sans-serif" font-size="4.34" lengthAdjust="spacing" textLength="25.73" x="107.88" y="504.2059">-float amount</text><text fill="#000000" font-family="sans-serif" font-size="4.34" lengthAdjust="spacing" textLength="23.87" x="107.88" y="509.9785">-String state</text><line style="stroke:#181818;stroke-width:0.155;" x1="106.33" x2="145.39" y1="512.3077" y2="512.3077"/></g><!--class Agent--><g id="elem_Agent"><rect codeLine="58" fill="#F1F1F1" height="89.923" id="Agent" rx="0.775" ry="0.775" style="stroke:#181818;stroke-width:0.155;" width="49.91" x="335.265" y="14.4525"/><ellipse cx="353.1675" cy="19.4125" fill="#ADD1B2" rx="3.41" ry="3.41" style="stroke:#181818;stroke-width:0.31;"/><path d="M354.0248,18.1338 Q354.0733,18.066 354.1314,18.0321 Q354.1895,17.9982 354.2573,17.9982 Q354.3736,17.9982 354.4463,18.0805 Q354.5189,18.158 354.5189,18.3469 L354.5189,18.7974 Q354.5189,18.9863 354.4463,19.0686 Q354.3736,19.151 354.2573,19.151 Q354.1508,19.151 354.0878,19.088 Q354.0248,19.0299 353.9909,18.87 Q353.9764,18.7586 353.9183,18.7005 Q353.8166,18.5843 353.6277,18.5164 Q353.4387,18.4486 353.245,18.4486 Q353.0077,18.4486 352.8091,18.5504 Q352.6153,18.6521 352.4603,18.8846 Q352.3102,19.1171 352.3102,19.4368 L352.3102,19.7758 Q352.3102,20.1585 352.5863,20.4152 Q352.8623,20.6671 353.3564,20.6671 Q353.647,20.6671 353.8505,20.5896 Q353.9716,20.5411 354.1023,20.4055 Q354.1847,20.3232 354.2283,20.2989 Q354.2767,20.2747 354.3397,20.2747 Q354.4414,20.2747 354.5189,20.3571 Q354.6013,20.4346 354.6013,20.5411 Q354.6013,20.6477 354.4947,20.7736 Q354.3397,20.9529 354.0927,21.0546 Q353.7584,21.195 353.3564,21.195 Q352.8866,21.195 352.5136,21.0013 Q352.2084,20.8463 351.9953,20.5169 Q351.7822,20.1827 351.7822,19.7855 L351.7822,19.4271 Q351.7822,19.0154 351.9711,18.6618 Q352.1648,18.3033 352.5039,18.1144 Q352.843,17.9207 353.2256,17.9207 Q353.4533,17.9207 353.6519,17.9739 Q353.8553,18.0224 354.0248,18.1338 Z " fill="#000000"/><text fill="#000000" font-family="sans-serif" font-size="4.34" lengthAdjust="spacing" textLength="11.47" x="359.5225" y="21.2096">Agent</text><line style="stroke:#181818;stroke-width:0.155;" x1="335.575" x2="384.865" y1="24.3725" y2="24.3725"/><text fill="#000000" font-family="sans-serif" font-size="4.34" lengthAdjust="spacing" textLength="24.49" x="337.125" y="30.2958">-String email</text><text fill="#000000" font-family="sans-serif" font-size="4.34" lengthAdjust="spacing" textLength="25.11" x="337.125" y="36.0684">-String name</text><text fill="#000000" font-family="sans-serif" font-size="4.34" lengthAdjust="spacing" textLength="41.85" x="337.125" y="41.8409">-String phoneNumber</text><text fill="#000000" font-family="sans-serif" font-size="4.34" lengthAdjust="spacing" textLength="30.07" x="337.125" y="47.6135">-String address</text><text fill="#000000" font-family="sans-serif" font-size="4.34" lengthAdjust="spacing" textLength="24.18" x="337.125" y="53.386">-String store</text><text fill="#000000" font-family="sans-serif" font-size="4.34" lengthAdjust="spacing" textLength="26.97" x="337.125" y="59.1585">-int ccNumber</text><text fill="#000000" font-family="sans-serif" font-size="4.34" lengthAdjust="spacing" textLength="28.21" x="337.125" y="64.9311">-int taxNumber</text><text fill="#000000" font-family="sans-serif" font-size="4.34" lengthAdjust="spacing" textLength="22.01" x="337.125" y="70.7036">-String pwd</text><line style="stroke:#181818;stroke-width:0.31;" x1="335.575" x2="384.865" y1="73.0329" y2="73.0329"/><text fill="#000000" font-family="sans-serif" font-size="4.34" lengthAdjust="spacing" textLength="46.19" x="337.125" y="78.9562">+hasEmail(String email)</text><text fill="#000000" font-family="sans-serif" font-size="4.34" lengthAdjust="spacing" textLength="22.94" x="337.125" y="84.7287">+getName()</text><text fill="#000000" font-family="sans-serif" font-size="4.34" lengthAdjust="spacing" textLength="22.32" x="337.125" y="90.5012">+getEmail()</text><text fill="#000000" font-family="sans-serif" font-size="4.34" lengthAdjust="spacing" textLength="20.77" x="337.125" y="96.2738">+toString()</text><text fill="#000000" font-family="sans-serif" font-size="4.34" lengthAdjust="spacing" textLength="16.12" x="337.125" y="102.0463">+clone()</text></g><!--class Client--><g id="elem_Client"><rect codeLine="75" fill="#F1F1F1" height="49.5152" id="Client" rx="0.775" ry="0.775" style="stroke:#181818;stroke-width:0.155;" width="60.14" x="2.17" y="385.8325"/><ellipse cx="25.3425" cy="390.7925" fill="#ADD1B2" rx="3.41" ry="3.41" style="stroke:#181818;stroke-width:0.31;"/><path d="M26.1998,389.5138 Q26.2483,389.446 26.3064,389.4121 Q26.3645,389.3782 26.4323,389.3782 Q26.5486,389.3782 26.6213,389.4605 Q26.6939,389.538 26.6939,389.7269 L26.6939,390.1774 Q26.6939,390.3663 26.6213,390.4486 Q26.5486,390.531 26.4323,390.531 Q26.3258,390.531 26.2628,390.468 Q26.1998,390.4099 26.1659,390.25 Q26.1514,390.1386 26.0933,390.0805 Q25.9916,389.9643 25.8027,389.8964 Q25.6138,389.8286 25.42,389.8286 Q25.1827,389.8286 24.9841,389.9304 Q24.7903,390.0321 24.6353,390.2646 Q24.4852,390.4971 24.4852,390.8168 L24.4852,391.1558 Q24.4852,391.5385 24.7613,391.7952 Q25.0373,392.0471 25.5314,392.0471 Q25.822,392.0471 26.0255,391.9696 Q26.1466,391.9211 26.2773,391.7855 Q26.3597,391.7032 26.4033,391.6789 Q26.4517,391.6547 26.5147,391.6547 Q26.6164,391.6547 26.6939,391.7371 Q26.7763,391.8146 26.7763,391.9211 Q26.7763,392.0277 26.6697,392.1536 Q26.5147,392.3329 26.2677,392.4346 Q25.9334,392.575 25.5314,392.575 Q25.0616,392.575 24.6886,392.3813 Q24.3834,392.2263 24.1703,391.8969 Q23.9572,391.5627 23.9572,391.1655 L23.9572,390.8071 Q23.9572,390.3954 24.1461,390.0418 Q24.3398,389.6833 24.6789,389.4944 Q25.018,389.3007 25.4006,389.3007 Q25.6283,389.3007 25.8269,389.3539 Q26.0303,389.4024 26.1998,389.5138 Z " fill="#000000"/><text fill="#000000" font-family="sans-serif" font-size="4.34" lengthAdjust="spacing" textLength="11.16" x="31.6975" y="392.5896">Client</text><line style="stroke:#181818;stroke-width:0.155;" x1="2.48" x2="62" y1="395.7525" y2="395.7525"/><text fill="#000000" font-family="sans-serif" font-size="4.34" lengthAdjust="spacing" textLength="25.11" x="4.03" y="401.6758">-String name</text><text fill="#000000" font-family="sans-serif" font-size="4.34" lengthAdjust="spacing" textLength="39.68" x="4.03" y="407.4484">-int passportNumber</text><text fill="#000000" font-family="sans-serif" font-size="4.34" lengthAdjust="spacing" textLength="56.42" x="4.03" y="413.2209">-String socialSecurityNumber</text><text fill="#000000" font-family="sans-serif" font-size="4.34" lengthAdjust="spacing" textLength="24.49" x="4.03" y="418.9935">-String email</text><text fill="#000000" font-family="sans-serif" font-size="4.34" lengthAdjust="spacing" textLength="41.85" x="4.03" y="424.766">-String phoneNumber</text><text fill="#000000" font-family="sans-serif" font-size="4.34" lengthAdjust="spacing" textLength="22.01" x="4.03" y="430.5385">-String pwd</text><line style="stroke:#181818;stroke-width:0.155;" x1="2.48" x2="62" y1="432.8678" y2="432.8678"/></g><!--class Property--><g id="elem_Property"><rect codeLine="84" fill="#F1F1F1" height="55.2878" id="Property" rx="0.775" ry="0.775" style="stroke:#181818;stroke-width:0.155;" width="62.62" x="249.86" y="468.1375"/><ellipse cx="271.4825" cy="473.0975" fill="#B4A7E5" rx="3.41" ry="3.41" style="stroke:#181818;stroke-width:0.31;"/><path d="M271.778,472.0561 L271.778,474.1196 L272.3108,474.1196 Q272.4997,474.1196 272.582,474.1922 Q272.6644,474.2649 272.6644,474.386 Q272.6644,474.5022 272.582,474.5749 Q272.4997,474.6475 272.3108,474.6475 L270.7172,474.6475 Q270.5283,474.6475 270.4459,474.5749 Q270.3636,474.5022 270.3636,474.3811 Q270.3636,474.2649 270.4459,474.1922 Q270.5283,474.1196 270.7172,474.1196 L271.25,474.1196 L271.25,472.0561 L270.7172,472.0561 Q270.5283,472.0561 270.4459,471.9835 Q270.3636,471.9108 270.3636,471.7897 Q270.3636,471.6735 270.4459,471.6008 Q270.5283,471.5282 270.7172,471.5282 L272.3108,471.5282 Q272.4997,471.5282 272.582,471.6008 Q272.6644,471.6735 272.6644,471.7897 Q272.6644,471.9108 272.582,471.9835 Q272.4997,472.0561 272.3108,472.0561 L271.778,472.0561 Z " fill="#000000"/><text fill="#000000" font-family="sans-serif" font-size="4.34" font-style="italic" lengthAdjust="spacing" textLength="16.74" x="277.8375" y="474.8946">Property</text><line style="stroke:#181818;stroke-width:0.155;" x1="250.17" x2="312.17" y1="478.0575" y2="478.0575"/><text fill="#000000" font-family="sans-serif" font-size="4.34" lengthAdjust="spacing" textLength="22.63" x="251.72" y="483.9808">-String type</text><text fill="#000000" font-family="sans-serif" font-size="4.34" lengthAdjust="spacing" textLength="20.15" x="251.72" y="489.7534">-float area</text><text fill="#000000" font-family="sans-serif" font-size="4.34" lengthAdjust="spacing" textLength="29.45" x="251.72" y="495.5259">-String location</text><text fill="#000000" font-family="sans-serif" font-size="4.34" lengthAdjust="spacing" textLength="58.9" x="251.72" y="501.2985">-float distance from city centre</text><text fill="#000000" font-family="sans-serif" font-size="4.34" lengthAdjust="spacing" textLength="41.85" x="251.72" y="507.071">-float requested price</text><line style="stroke:#181818;stroke-width:0.31;" x1="250.17" x2="312.17" y1="509.4002" y2="509.4002"/><text fill="#000000" font-family="sans-serif" font-size="4.34" lengthAdjust="spacing" textLength="30.38" x="251.72" y="515.3235">+equals(object)</text><text fill="#000000" font-family="sans-serif" font-size="4.34" lengthAdjust="spacing" textLength="16.12" x="251.72" y="521.0961">+clone()</text></g><!--class AcceptOffersUI--><g id="elem_AcceptOffersUI"><rect codeLine="95" fill="#F1F1F1" height="37.9702" id="AcceptOffersUI" rx="0.775" ry="0.775" style="stroke:#181818;stroke-width:0.155;" width="78.74" x="281.48" y="244.7825"/><ellipse cx="304.9625" cy="249.7425" fill="#ADD1B2" rx="3.41" ry="3.41" style="stroke:#181818;stroke-width:0.31;"/><path d="M305.8198,248.4638 Q305.8683,248.396 305.9264,248.3621 Q305.9845,248.3282 306.0523,248.3282 Q306.1686,248.3282 306.2413,248.4105 Q306.3139,248.488 306.3139,248.6769 L306.3139,249.1274 Q306.3139,249.3163 306.2413,249.3986 Q306.1686,249.481 306.0523,249.481 Q305.9458,249.481 305.8828,249.418 Q305.8198,249.3599 305.7859,249.2 Q305.7714,249.0886 305.7133,249.0305 Q305.6116,248.9143 305.4227,248.8464 Q305.2338,248.7786 305.04,248.7786 Q304.8027,248.7786 304.6041,248.8804 Q304.4103,248.9821 304.2553,249.2146 Q304.1052,249.4471 304.1052,249.7668 L304.1052,250.1058 Q304.1052,250.4885 304.3813,250.7452 Q304.6573,250.9971 305.1514,250.9971 Q305.442,250.9971 305.6455,250.9196 Q305.7666,250.8711 305.8973,250.7355 Q305.9797,250.6532 306.0233,250.6289 Q306.0717,250.6047 306.1347,250.6047 Q306.2364,250.6047 306.3139,250.6871 Q306.3963,250.7646 306.3963,250.8711 Q306.3963,250.9777 306.2897,251.1036 Q306.1347,251.2829 305.8877,251.3846 Q305.5534,251.525 305.1514,251.525 Q304.6816,251.525 304.3086,251.3313 Q304.0034,251.1763 303.7903,250.8469 Q303.5772,250.5127 303.5772,250.1155 L303.5772,249.7571 Q303.5772,249.3454 303.7661,248.9918 Q303.9598,248.6333 304.2989,248.4444 Q304.638,248.2507 305.0206,248.2507 Q305.2483,248.2507 305.4469,248.3039 Q305.6503,248.3524 305.8198,248.4638 Z " fill="#000000"/><text fill="#000000" font-family="sans-serif" font-size="4.34" lengthAdjust="spacing" textLength="29.14" x="311.3175" y="251.5396">AcceptOffersUI</text><line style="stroke:#181818;stroke-width:0.155;" x1="281.79" x2="359.91" y1="254.7025" y2="254.7025"/><text fill="#000000" font-family="sans-serif" font-size="4.34" lengthAdjust="spacing" textLength="53.32" x="283.34" y="260.6258">-AcceptOffersController ctrl</text><line style="stroke:#181818;stroke-width:0.155;" x1="281.79" x2="359.91" y1="262.9551" y2="262.9551"/><text fill="#000000" font-family="sans-serif" font-size="4.34" lengthAdjust="spacing" textLength="12.09" x="283.34" y="268.8784">+run()</text><text fill="#000000" font-family="sans-serif" font-size="4.34" lengthAdjust="spacing" textLength="73.16" x="283.34" y="274.6509">+manageOrdersByProperty(property)</text><text fill="#000000" font-family="sans-serif" font-size="4.34" lengthAdjust="spacing" textLength="75.02" x="283.34" y="280.4235">-printAllOrdersForXProperty(orderList)</text></g><!--class AcceptOffersController--><g id="elem_AcceptOffersController"><rect codeLine="103" fill="#F1F1F1" height="43.7427" id="AcceptOffersController" rx="0.775" ry="0.775" style="stroke:#181818;stroke-width:0.155;" width="87.42" x="174.84" y="307.0925"/><ellipse cx="194.9125" cy="312.0525" fill="#ADD1B2" rx="3.41" ry="3.41" style="stroke:#181818;stroke-width:0.31;"/><path d="M195.7698,310.7738 Q195.8183,310.706 195.8764,310.6721 Q195.9345,310.6382 196.0023,310.6382 Q196.1186,310.6382 196.1913,310.7205 Q196.2639,310.798 196.2639,310.9869 L196.2639,311.4374 Q196.2639,311.6263 196.1913,311.7086 Q196.1186,311.791 196.0023,311.791 Q195.8958,311.791 195.8328,311.728 Q195.7698,311.6699 195.7359,311.51 Q195.7214,311.3986 195.6633,311.3405 Q195.5616,311.2243 195.3727,311.1564 Q195.1838,311.0886 194.99,311.0886 Q194.7527,311.0886 194.5541,311.1904 Q194.3603,311.2921 194.2053,311.5246 Q194.0552,311.7571 194.0552,312.0768 L194.0552,312.4158 Q194.0552,312.7985 194.3313,313.0552 Q194.6073,313.3071 195.1014,313.3071 Q195.392,313.3071 195.5955,313.2296 Q195.7166,313.1811 195.8473,313.0455 Q195.9297,312.9632 195.9733,312.9389 Q196.0217,312.9147 196.0847,312.9147 Q196.1864,312.9147 196.2639,312.9971 Q196.3463,313.0746 196.3463,313.1811 Q196.3463,313.2877 196.2397,313.4136 Q196.0847,313.5929 195.8377,313.6946 Q195.5034,313.835 195.1014,313.835 Q194.6316,313.835 194.2586,313.6413 Q193.9534,313.4863 193.7403,313.1569 Q193.5272,312.8227 193.5272,312.4255 L193.5272,312.0671 Q193.5272,311.6554 193.7161,311.3018 Q193.9098,310.9433 194.2489,310.7544 Q194.588,310.5607 194.9706,310.5607 Q195.1983,310.5607 195.3969,310.6139 Q195.6003,310.6624 195.7698,310.7738 Z " fill="#000000"/><text fill="#000000" font-family="sans-serif" font-size="4.34" lengthAdjust="spacing" textLength="44.64" x="201.2675" y="313.8496">AcceptOffersController</text><line style="stroke:#181818;stroke-width:0.155;" x1="175.15" x2="261.95" y1="317.0125" y2="317.0125"/><text fill="#000000" font-family="sans-serif" font-size="4.34" lengthAdjust="spacing" textLength="66.96" x="176.7" y="322.9358">-EditAndSortLists editAndSortLists</text><line style="stroke:#181818;stroke-width:0.155;" x1="175.15" x2="261.95" y1="325.2651" y2="325.2651"/><text fill="#000000" font-family="sans-serif" font-size="4.34" lengthAdjust="spacing" textLength="73.47" x="176.7" y="331.1884">+getPropertiesByCurrentAgent(email)</text><text fill="#000000" font-family="sans-serif" font-size="4.34" lengthAdjust="spacing" textLength="66.34" x="176.7" y="336.9609">+getOrdersToXProperty(property)</text><text fill="#000000" font-family="sans-serif" font-size="4.34" lengthAdjust="spacing" textLength="83.7" x="176.7" y="342.7335">+acceptOffer(property, listOfOrders, index)</text><text fill="#000000" font-family="sans-serif" font-size="4.34" lengthAdjust="spacing" textLength="39.68" x="176.7" y="348.506">+declineOffer(index)</text></g><!--class Repositories--><g id="elem_Repositories"><rect codeLine="112" fill="#F1F1F1" height="37.9702" id="Repositories" rx="0.775" ry="0.775" style="stroke:#181818;stroke-width:0.155;" width="81.84" x="338.83" y="310.0375"/><ellipse cx="366.1875" cy="314.9975" fill="#ADD1B2" rx="3.41" ry="3.41" style="stroke:#181818;stroke-width:0.31;"/><path d="M367.0448,313.7188 Q367.0933,313.651 367.1514,313.6171 Q367.2095,313.5832 367.2773,313.5832 Q367.3936,313.5832 367.4663,313.6655 Q367.5389,313.743 367.5389,313.9319 L367.5389,314.3824 Q367.5389,314.5713 367.4663,314.6536 Q367.3936,314.736 367.2773,314.736 Q367.1708,314.736 367.1078,314.673 Q367.0448,314.6149 367.0109,314.455 Q366.9964,314.3436 366.9383,314.2855 Q366.8366,314.1693 366.6477,314.1014 Q366.4588,314.0336 366.265,314.0336 Q366.0277,314.0336 365.8291,314.1354 Q365.6353,314.2371 365.4803,314.4696 Q365.3302,314.7021 365.3302,315.0218 L365.3302,315.3608 Q365.3302,315.7435 365.6063,316.0002 Q365.8823,316.2521 366.3764,316.2521 Q366.667,316.2521 366.8705,316.1746 Q366.9916,316.1261 367.1223,315.9905 Q367.2047,315.9082 367.2483,315.8839 Q367.2967,315.8597 367.3597,315.8597 Q367.4614,315.8597 367.5389,315.9421 Q367.6213,316.0196 367.6213,316.1261 Q367.6213,316.2327 367.5147,316.3586 Q367.3597,316.5379 367.1127,316.6396 Q366.7784,316.78 366.3764,316.78 Q365.9066,316.78 365.5336,316.5863 Q365.2284,316.4313 365.0153,316.1019 Q364.8022,315.7677 364.8022,315.3705 L364.8022,315.0121 Q364.8022,314.6004 364.9911,314.2468 Q365.1848,313.8883 365.5239,313.6994 Q365.863,313.5057 366.2456,313.5057 Q366.4733,313.5057 366.6719,313.5589 Q366.8753,313.6074 367.0448,313.7188 Z " fill="#000000"/><text fill="#000000" font-family="sans-serif" font-size="4.34" lengthAdjust="spacing" textLength="24.49" x="372.5425" y="316.7946">Repositories</text><line style="stroke:#181818;stroke-width:0.155;" x1="339.14" x2="420.36" y1="319.9575" y2="319.9575"/><text fill="#000000" font-family="sans-serif" font-size="4.34" lengthAdjust="spacing" textLength="43.71" x="340.69" y="325.8808">-Repositories instance</text><text fill="#000000" font-family="sans-serif" font-size="4.34" lengthAdjust="spacing" textLength="78.12" x="340.69" y="331.6534">-PropertyRepository propertyRepository</text><line style="stroke:#181818;stroke-width:0.155;" x1="339.14" x2="420.36" y1="333.9826" y2="333.9826"/><text fill="#000000" font-family="sans-serif" font-size="4.34" lengthAdjust="spacing" textLength="28.21" x="340.69" y="339.9059">+getInstance()</text><text fill="#000000" font-family="sans-serif" font-size="4.34" lengthAdjust="spacing" textLength="49.6" x="340.69" y="345.6785">+getPropertyRepository()</text></g><!--class Request--><g id="elem_Request"><rect codeLine="120" fill="#F1F1F1" height="61.0603" id="Request" rx="0.775" ry="0.775" style="stroke:#181818;stroke-width:0.155;" width="51.77" x="330.305" y="465.1925"/><ellipse cx="346.6575" cy="470.1525" fill="#ADD1B2" rx="3.41" ry="3.41" style="stroke:#181818;stroke-width:0.31;"/><path d="M347.5148,468.8738 Q347.5633,468.806 347.6214,468.7721 Q347.6795,468.7382 347.7473,468.7382 Q347.8636,468.7382 347.9363,468.8205 Q348.0089,468.898 348.0089,469.0869 L348.0089,469.5374 Q348.0089,469.7263 347.9363,469.8086 Q347.8636,469.891 347.7473,469.891 Q347.6408,469.891 347.5778,469.828 Q347.5148,469.7699 347.4809,469.61 Q347.4664,469.4986 347.4083,469.4405 Q347.3066,469.3243 347.1177,469.2564 Q346.9288,469.1886 346.735,469.1886 Q346.4977,469.1886 346.2991,469.2904 Q346.1053,469.3921 345.9503,469.6246 Q345.8002,469.8571 345.8002,470.1768 L345.8002,470.5158 Q345.8002,470.8985 346.0763,471.1552 Q346.3523,471.4071 346.8464,471.4071 Q347.137,471.4071 347.3405,471.3296 Q347.4616,471.2811 347.5923,471.1455 Q347.6747,471.0632 347.7183,471.0389 Q347.7667,471.0147 347.8297,471.0147 Q347.9314,471.0147 348.0089,471.0971 Q348.0913,471.1746 348.0913,471.2811 Q348.0913,471.3877 347.9847,471.5136 Q347.8297,471.6929 347.5827,471.7946 Q347.2484,471.935 346.8464,471.935 Q346.3766,471.935 346.0036,471.7413 Q345.6984,471.5863 345.4853,471.2569 Q345.2722,470.9227 345.2722,470.5255 L345.2722,470.1671 Q345.2722,469.7554 345.4611,469.4018 Q345.6548,469.0433 345.9939,468.8544 Q346.333,468.6607 346.7156,468.6607 Q346.9433,468.6607 347.1419,468.7139 Q347.3453,468.7624 347.5148,468.8738 Z " fill="#000000"/><text fill="#000000" font-family="sans-serif" font-size="4.34" lengthAdjust="spacing" textLength="16.43" x="353.0125" y="471.9496">Request</text><line style="stroke:#181818;stroke-width:0.155;" x1="330.615" x2="381.765" y1="475.1125" y2="475.1125"/><text fill="#000000" font-family="sans-serif" font-size="4.34" lengthAdjust="spacing" textLength="22.63" x="332.165" y="481.0358">-String type</text><text fill="#000000" font-family="sans-serif" font-size="4.34" lengthAdjust="spacing" textLength="20.77" x="332.165" y="486.8084">-float price</text><text fill="#000000" font-family="sans-serif" font-size="4.34" lengthAdjust="spacing" textLength="31.31" x="332.165" y="492.5809">-String priceUnit</text><text fill="#000000" font-family="sans-serif" font-size="4.34" lengthAdjust="spacing" textLength="43.09" x="332.165" y="498.3535">-boolean isItPublished</text><text fill="#000000" font-family="sans-serif" font-size="4.34" lengthAdjust="spacing" textLength="46.19" x="332.165" y="504.126">-String commissionDate</text><text fill="#000000" font-family="sans-serif" font-size="4.34" lengthAdjust="spacing" textLength="27.28" x="332.165" y="509.8985">-Owner owner</text><text fill="#000000" font-family="sans-serif" font-size="4.34" lengthAdjust="spacing" textLength="48.05" x="332.165" y="515.6711">-String commissionValue</text><text fill="#000000" font-family="sans-serif" font-size="4.34" lengthAdjust="spacing" textLength="23.56" x="332.165" y="521.4436">-int duration</text><line style="stroke:#181818;stroke-width:0.155;" x1="330.615" x2="381.765" y1="523.7729" y2="523.7729"/></g><!--class Land--><g id="elem_Land"><rect codeLine="131" fill="#F1F1F1" height="78.3779" id="Land" rx="0.775" ry="0.775" style="stroke:#181818;stroke-width:0.155;" width="62.31" x="176.855" y="573.8475"/><ellipse cx="201.7325" cy="578.8075" fill="#ADD1B2" rx="3.41" ry="3.41" style="stroke:#181818;stroke-width:0.31;"/><path d="M202.5898,577.5288 Q202.6383,577.461 202.6964,577.4271 Q202.7545,577.3932 202.8223,577.3932 Q202.9386,577.3932 203.0113,577.4755 Q203.0839,577.553 203.0839,577.7419 L203.0839,578.1924 Q203.0839,578.3813 203.0113,578.4636 Q202.9386,578.546 202.8223,578.546 Q202.7158,578.546 202.6528,578.483 Q202.5898,578.4249 202.5559,578.265 Q202.5414,578.1536 202.4833,578.0955 Q202.3816,577.9793 202.1927,577.9114 Q202.0038,577.8436 201.81,577.8436 Q201.5727,577.8436 201.3741,577.9454 Q201.1803,578.0471 201.0253,578.2796 Q200.8752,578.5121 200.8752,578.8318 L200.8752,579.1708 Q200.8752,579.5535 201.1513,579.8102 Q201.4273,580.0621 201.9214,580.0621 Q202.212,580.0621 202.4155,579.9846 Q202.5366,579.9361 202.6673,579.8005 Q202.7497,579.7182 202.7933,579.6939 Q202.8417,579.6697 202.9047,579.6697 Q203.0064,579.6697 203.0839,579.7521 Q203.1663,579.8296 203.1663,579.9361 Q203.1663,580.0427 203.0597,580.1686 Q202.9047,580.3479 202.6577,580.4496 Q202.3234,580.59 201.9214,580.59 Q201.4516,580.59 201.0786,580.3963 Q200.7734,580.2413 200.5603,579.9119 Q200.3472,579.5777 200.3472,579.1805 L200.3472,578.8221 Q200.3472,578.4104 200.5361,578.0568 Q200.7298,577.6983 201.0689,577.5094 Q201.408,577.3157 201.7906,577.3157 Q202.0183,577.3157 202.2169,577.3689 Q202.4203,577.4174 202.5898,577.5288 Z " fill="#000000"/><text fill="#000000" font-family="sans-serif" font-size="4.34" lengthAdjust="spacing" textLength="9.92" x="208.0875" y="580.6046">Land</text><line style="stroke:#181818;stroke-width:0.155;" x1="177.165" x2="238.855" y1="583.7675" y2="583.7675"/><text fill="#000000" font-family="sans-serif" font-size="4.34" lengthAdjust="spacing" textLength="20.15" x="178.715" y="589.6908">-float area</text><text fill="#000000" font-family="sans-serif" font-size="4.34" lengthAdjust="spacing" textLength="29.45" x="178.715" y="595.4634">-String location</text><text fill="#000000" font-family="sans-serif" font-size="4.34" lengthAdjust="spacing" textLength="58.59" x="178.715" y="601.2359">-float distanceFromCityCentre</text><text fill="#000000" font-family="sans-serif" font-size="4.34" lengthAdjust="spacing" textLength="25.42" x="178.715" y="607.0085">-Agent agent</text><text fill="#000000" font-family="sans-serif" font-size="4.34" lengthAdjust="spacing" textLength="37.2" x="178.715" y="612.781">-File[] photographs</text><text fill="#000000" font-family="sans-serif" font-size="4.34" lengthAdjust="spacing" textLength="29.14" x="178.715" y="618.5535">-float finalPrice</text><text fill="#000000" font-family="sans-serif" font-size="4.34" lengthAdjust="spacing" textLength="52.7" x="178.715" y="624.3261">-String announcementDate</text><text fill="#000000" font-family="sans-serif" font-size="4.34" lengthAdjust="spacing" textLength="34.1" x="178.715" y="630.0986">-Request request</text><line style="stroke:#181818;stroke-width:0.155;" x1="177.165" x2="238.855" y1="632.4279" y2="632.4279"/><text fill="#000000" font-family="sans-serif" font-size="4.34" lengthAdjust="spacing" textLength="30.38" x="178.715" y="638.3512">+equals(object)</text><text fill="#000000" font-family="sans-serif" font-size="4.34" lengthAdjust="spacing" textLength="16.12" x="178.715" y="644.1237">+clone()</text><text fill="#000000" font-family="sans-serif" font-size="4.34" lengthAdjust="spacing" textLength="20.77" x="178.715" y="649.8962">+toString()</text></g><!--class Apartment--><g id="elem_Apartment"><rect codeLine="146" fill="#F1F1F1" height="107.2406" id="Apartment" rx="0.775" ry="0.775" style="stroke:#181818;stroke-width:0.155;" width="62.31" x="250.015" y="559.4325"/><ellipse cx="269.7775" cy="564.3925" fill="#ADD1B2" rx="3.41" ry="3.41" style="stroke:#181818;stroke-width:0.31;"/><path d="M270.6348,563.1138 Q270.6833,563.046 270.7414,563.0121 Q270.7995,562.9782 270.8673,562.9782 Q270.9836,562.9782 271.0563,563.0605 Q271.1289,563.138 271.1289,563.3269 L271.1289,563.7774 Q271.1289,563.9663 271.0563,564.0486 Q270.9836,564.131 270.8673,564.131 Q270.7608,564.131 270.6978,564.068 Q270.6348,564.0099 270.6009,563.85 Q270.5864,563.7386 270.5283,563.6805 Q270.4266,563.5643 270.2377,563.4964 Q270.0488,563.4286 269.855,563.4286 Q269.6177,563.4286 269.4191,563.5304 Q269.2253,563.6321 269.0703,563.8646 Q268.9202,564.0971 268.9202,564.4168 L268.9202,564.7558 Q268.9202,565.1385 269.1963,565.3952 Q269.4723,565.6471 269.9664,565.6471 Q270.257,565.6471 270.4605,565.5696 Q270.5816,565.5211 270.7123,565.3855 Q270.7947,565.3032 270.8383,565.2789 Q270.8867,565.2547 270.9497,565.2547 Q271.0514,565.2547 271.1289,565.3371 Q271.2113,565.4146 271.2113,565.5211 Q271.2113,565.6277 271.1047,565.7536 Q270.9497,565.9329 270.7027,566.0346 Q270.3684,566.175 269.9664,566.175 Q269.4966,566.175 269.1236,565.9813 Q268.8184,565.8263 268.6053,565.4969 Q268.3922,565.1627 268.3922,564.7655 L268.3922,564.4071 Q268.3922,563.9954 268.5811,563.6418 Q268.7748,563.2833 269.1139,563.0944 Q269.453,562.9007 269.8356,562.9007 Q270.0633,562.9007 270.2619,562.9539 Q270.4653,563.0024 270.6348,563.1138 Z " fill="#000000"/><text fill="#000000" font-family="sans-serif" font-size="4.34" lengthAdjust="spacing" textLength="20.15" x="276.1325" y="566.1896">Apartment</text><line style="stroke:#181818;stroke-width:0.155;" x1="250.325" x2="312.015" y1="569.3525" y2="569.3525"/><text fill="#000000" font-family="sans-serif" font-size="4.34" lengthAdjust="spacing" textLength="20.15" x="251.875" y="575.2758">-float area</text><text fill="#000000" font-family="sans-serif" font-size="4.34" lengthAdjust="spacing" textLength="29.45" x="251.875" y="581.0484">-String location</text><text fill="#000000" font-family="sans-serif" font-size="4.34" lengthAdjust="spacing" textLength="58.59" x="251.875" y="586.8209">-float distanceFromCityCentre</text><text fill="#000000" font-family="sans-serif" font-size="4.34" lengthAdjust="spacing" textLength="25.42" x="251.875" y="592.5935">-Agent agent</text><text fill="#000000" font-family="sans-serif" font-size="4.34" lengthAdjust="spacing" textLength="40.3" x="251.875" y="598.366">-int numOfBedrooms</text><text fill="#000000" font-family="sans-serif" font-size="4.34" lengthAdjust="spacing" textLength="41.54" x="251.875" y="604.1385">-int numOfBathrooms</text><text fill="#000000" font-family="sans-serif" font-size="4.34" lengthAdjust="spacing" textLength="49.91" x="251.875" y="609.9111">-int numOfParkingSpaces</text><text fill="#000000" font-family="sans-serif" font-size="4.34" lengthAdjust="spacing" textLength="46.81" x="251.875" y="615.6836">-boolean centralHeating</text><text fill="#000000" font-family="sans-serif" font-size="4.34" lengthAdjust="spacing" textLength="48.05" x="251.875" y="621.4562">-boolean airConditioning</text><text fill="#000000" font-family="sans-serif" font-size="4.34" lengthAdjust="spacing" textLength="37.2" x="251.875" y="627.2287">-File[] photographs</text><text fill="#000000" font-family="sans-serif" font-size="4.34" lengthAdjust="spacing" textLength="29.14" x="251.875" y="633.0012">-float finalPrice</text><text fill="#000000" font-family="sans-serif" font-size="4.34" lengthAdjust="spacing" textLength="52.7" x="251.875" y="638.7738">-String announcementDate</text><text fill="#000000" font-family="sans-serif" font-size="4.34" lengthAdjust="spacing" textLength="34.1" x="251.875" y="644.5463">-Request request</text><line style="stroke:#181818;stroke-width:0.155;" x1="250.325" x2="312.015" y1="646.8755" y2="646.8755"/><text fill="#000000" font-family="sans-serif" font-size="4.34" lengthAdjust="spacing" textLength="30.38" x="251.875" y="652.7988">+equals(object)</text><text fill="#000000" font-family="sans-serif" font-size="4.34" lengthAdjust="spacing" textLength="16.12" x="251.875" y="658.5714">+clone()</text><text fill="#000000" font-family="sans-serif" font-size="4.34" lengthAdjust="spacing" textLength="20.77" x="251.875" y="664.3439">+toString()</text></g><!--class House--><g id="elem_House"><rect codeLine="166" fill="#F1F1F1" height="124.5582" id="House" rx="0.775" ry="0.775" style="stroke:#181818;stroke-width:0.155;" width="62.31" x="323.175" y="550.7525"/><ellipse cx="346.8125" cy="555.7125" fill="#ADD1B2" rx="3.41" ry="3.41" style="stroke:#181818;stroke-width:0.31;"/><path d="M347.6698,554.4338 Q347.7183,554.366 347.7764,554.3321 Q347.8345,554.2982 347.9023,554.2982 Q348.0186,554.2982 348.0913,554.3805 Q348.1639,554.458 348.1639,554.6469 L348.1639,555.0974 Q348.1639,555.2863 348.0913,555.3686 Q348.0186,555.451 347.9023,555.451 Q347.7958,555.451 347.7328,555.388 Q347.6698,555.3299 347.6359,555.17 Q347.6214,555.0586 347.5633,555.0005 Q347.4616,554.8843 347.2727,554.8164 Q347.0838,554.7486 346.89,554.7486 Q346.6527,554.7486 346.4541,554.8504 Q346.2603,554.9521 346.1053,555.1846 Q345.9552,555.4171 345.9552,555.7368 L345.9552,556.0758 Q345.9552,556.4585 346.2313,556.7152 Q346.5073,556.9671 347.0014,556.9671 Q347.292,556.9671 347.4955,556.8896 Q347.6166,556.8411 347.7473,556.7055 Q347.8297,556.6232 347.8733,556.5989 Q347.9217,556.5747 347.9847,556.5747 Q348.0864,556.5747 348.1639,556.6571 Q348.2463,556.7346 348.2463,556.8411 Q348.2463,556.9477 348.1397,557.0736 Q347.9847,557.2529 347.7377,557.3546 Q347.4034,557.495 347.0014,557.495 Q346.5316,557.495 346.1586,557.3013 Q345.8534,557.1463 345.6403,556.8169 Q345.4272,556.4827 345.4272,556.0855 L345.4272,555.7271 Q345.4272,555.3154 345.6161,554.9618 Q345.8098,554.6033 346.1489,554.4144 Q346.488,554.2207 346.8706,554.2207 Q347.0983,554.2207 347.2969,554.2739 Q347.5003,554.3224 347.6698,554.4338 Z " fill="#000000"/><text fill="#000000" font-family="sans-serif" font-size="4.34" lengthAdjust="spacing" textLength="12.4" x="353.1675" y="557.5096">House</text><line style="stroke:#181818;stroke-width:0.155;" x1="323.485" x2="385.175" y1="560.6725" y2="560.6725"/><text fill="#000000" font-family="sans-serif" font-size="4.34" lengthAdjust="spacing" textLength="20.15" x="325.035" y="566.5958">-float area</text><text fill="#000000" font-family="sans-serif" font-size="4.34" lengthAdjust="spacing" textLength="29.45" x="325.035" y="572.3684">-String location</text><text fill="#000000" font-family="sans-serif" font-size="4.34" lengthAdjust="spacing" textLength="58.59" x="325.035" y="578.1409">-float distanceFromCityCentre</text><text fill="#000000" font-family="sans-serif" font-size="4.34" lengthAdjust="spacing" textLength="25.42" x="325.035" y="583.9135">-Agent agent</text><text fill="#000000" font-family="sans-serif" font-size="4.34" lengthAdjust="spacing" textLength="40.3" x="325.035" y="589.686">-int numOfBedrooms</text><text fill="#000000" font-family="sans-serif" font-size="4.34" lengthAdjust="spacing" textLength="41.54" x="325.035" y="595.4585">-int numOfBathrooms</text><text fill="#000000" font-family="sans-serif" font-size="4.34" lengthAdjust="spacing" textLength="49.91" x="325.035" y="601.2311">-int numOfParkingSpaces</text><text fill="#000000" font-family="sans-serif" font-size="4.34" lengthAdjust="spacing" textLength="46.81" x="325.035" y="607.0036">-boolean centralHeating</text><text fill="#000000" font-family="sans-serif" font-size="4.34" lengthAdjust="spacing" textLength="48.05" x="325.035" y="612.7762">-boolean airConditioning</text><text fill="#000000" font-family="sans-serif" font-size="4.34" lengthAdjust="spacing" textLength="37.82" x="325.035" y="618.5487">-boolean basement</text><text fill="#000000" font-family="sans-serif" font-size="4.34" lengthAdjust="spacing" textLength="47.43" x="325.035" y="624.3212">-boolean inhabitableLoft</text><text fill="#000000" font-family="sans-serif" font-size="4.34" lengthAdjust="spacing" textLength="39.68" x="325.035" y="630.0938">-String sunExposure</text><text fill="#000000" font-family="sans-serif" font-size="4.34" lengthAdjust="spacing" textLength="37.2" x="325.035" y="635.8663">-File[] photographs</text><text fill="#000000" font-family="sans-serif" font-size="4.34" lengthAdjust="spacing" textLength="29.14" x="325.035" y="641.6388">-float finalPrice</text><text fill="#000000" font-family="sans-serif" font-size="4.34" lengthAdjust="spacing" textLength="52.7" x="325.035" y="647.4114">-String announcementDate</text><text fill="#000000" font-family="sans-serif" font-size="4.34" lengthAdjust="spacing" textLength="34.1" x="325.035" y="653.1839">-Request request</text><line style="stroke:#181818;stroke-width:0.155;" x1="323.485" x2="385.175" y1="655.5132" y2="655.5132"/><text fill="#000000" font-family="sans-serif" font-size="4.34" lengthAdjust="spacing" textLength="30.38" x="325.035" y="661.4365">+equals(object)</text><text fill="#000000" font-family="sans-serif" font-size="4.34" lengthAdjust="spacing" textLength="16.12" x="325.035" y="667.209">+clone()</text><text fill="#000000" font-family="sans-serif" font-size="4.34" lengthAdjust="spacing" textLength="20.77" x="325.035" y="672.9815">+toString()</text></g><!--link Agent to AcceptOffersUI--><g id="link_Agent_AcceptOffersUI"><path codeLine="190" d="M335.1875,77.1748 C319.7216,89.581 301.2394,107.7439 292.64,128.8425 C276.8424,167.5987 295.926,216.3896 309.5133,243.2821 " fill="none" id="Agent-to-AcceptOffersUI" style="stroke:#181818;stroke-width:0.31;"/><polygon fill="#181818" points="310.2387,244.7019,310.0845,241.6527,309.5384,243.3191,307.872,242.7731,310.2387,244.7019" style="stroke:#181818;stroke-width:0.31;"/><text fill="#000000" font-family="sans-serif" font-size="4.03" lengthAdjust="spacing" textLength="14.26" x="303.49" y="209.7613">asks for</text><text fill="#000000" font-family="sans-serif" font-size="4.03" lengthAdjust="spacing" textLength="25.42" x="297.91" y="215.1215">property offers</text></g><!--link AcceptOffersUI to Agent--><g id="link_AcceptOffersUI_Agent"><path codeLine="191" d="M360.2913,247.6624 C373.2772,240.2658 386.0926,229.9893 392.77,216.2625 C409.7146,181.4247 398.5143,138.0495 384.8154,105.7971 " fill="none" id="AcceptOffersUI-to-Agent" style="stroke:#181818;stroke-width:0.31;"/><polygon fill="#181818" points="384.2047,104.3649,384.1674,107.4179,384.8169,105.7889,386.4458,106.4384,384.2047,104.3649" style="stroke:#181818;stroke-width:0.31;"/><text fill="#000000" font-family="sans-serif" font-size="4.03" lengthAdjust="spacing" textLength="26.35" x="397.11" y="209.7613">send the list of</text><text fill="#000000" font-family="sans-serif" font-size="4.03" lengthAdjust="spacing" textLength="25.42" x="397.575" y="215.1215">property offers</text></g><!--link Agent to AcceptOffersUI--><g id="link_Agent_AcceptOffersUI"><path codeLine="194" d="M360.065,104.4021 C359.1071,131.2326 356.345,165.8565 349.06,195.8025 C345.03,212.3689 337.4784,230.1257 331.204,243.279 " fill="none" id="Agent-to-AcceptOffersUI-1" style="stroke:#181818;stroke-width:0.31;"/><polygon fill="#181818" points="330.5251,244.6988,332.8519,242.7221,331.197,243.302,330.617,241.6471,330.5251,244.6988" style="stroke:#181818;stroke-width:0.31;"/><text fill="#000000" font-family="sans-serif" font-size="4.03" lengthAdjust="spacing" textLength="31.62" x="346.58" y="209.7613">sends the answer</text><text fill="#000000" font-family="sans-serif" font-size="4.03" lengthAdjust="spacing" textLength="22.01" x="351.385" y="215.1215">to each offer</text></g><!--link AcceptOffersController to OrderRepository--><g id="link_AcceptOffersController_OrderRepository"><path codeLine="192" d="M174.8028,331.5949 C132.6149,334.8716 73.0856,342.5441 58.59,360.1025 C53.94,365.7321 54.7553,370.317 58.59,376.5325 C63.5531,384.5801 84.3944,394.3234 101.5777,401.2767 " fill="none" id="AcceptOffersController-to-OrderRepository" style="stroke:#181818;stroke-width:0.31;"/><polygon fill="#181818" points="103.0192,401.8564,100.8893,399.6689,101.5801,401.2808,99.9682,401.9716,103.0192,401.8564" style="stroke:#181818;stroke-width:0.31;"/><text fill="#000000" font-family="sans-serif" font-size="4.03" lengthAdjust="spacing" textLength="44.33" x="63.395" y="367.3963">updates list of orders, an</text><text fill="#000000" font-family="sans-serif" font-size="4.03" lengthAdjust="spacing" textLength="53.32" x="58.9" y="372.7565">email to the respective clients</text></g><!--link AcceptOffersController to OrderRepository--><g id="link_AcceptOffersController_OrderRepository"><path codeLine="201" d="M174.8121,335.1258 C159.0362,339.4689 142.5535,347.0081 132.06,360.1025 C126.0615,367.589 124.0527,377.8221 123.721,387.1004 " fill="none" id="AcceptOffersController-to-OrderRepository-1" style="stroke:#181818;stroke-width:0.31;"/><polygon fill="#181818" points="123.6807,388.7,124.992,385.9428,123.7205,387.1506,122.5128,385.8791,123.6807,388.7" style="stroke:#181818;stroke-width:0.31;"/><text fill="#000000" font-family="sans-serif" font-size="4.03" lengthAdjust="spacing" textLength="33.48" x="132.37" y="370.0313">gets order list from</text></g><!--link AcceptOffersUI to AcceptOffersController--><g id="link_AcceptOffersUI_AcceptOffersController"><path codeLine="195" d="M291.3969,282.6118 C279.7223,289.9867 266.197,298.5334 253.9923,306.2462 " fill="none" id="AcceptOffersUI-to-AcceptOffersController" style="stroke:#181818;stroke-width:0.31;"/><polygon fill="#181818" points="252.6624,307.0832,255.6834,306.6414,253.9728,306.2554,254.3588,304.5448,252.6624,307.0832" style="stroke:#181818;stroke-width:0.31;"/><text fill="#000000" font-family="sans-serif" font-size="4.03" lengthAdjust="spacing" textLength="13.33" x="275.9" y="296.5613">creates</text></g><!--link AcceptOffersController to Repositories--><g id="link_AcceptOffersController_Repositories"><path codeLine="196" d="M262.2786,328.9475 C285.5441,328.9475 314.03,328.9475 337.125,328.9475 " fill="none" id="AcceptOffersController-to-Repositories" style="stroke:#181818;stroke-width:0.31;"/><polygon fill="#181818" points="338.7804,328.9475,335.9904,327.7075,337.2304,328.9475,335.9904,330.1875,338.7804,328.9475" style="stroke:#181818;stroke-width:0.31;"/><text fill="#000000" font-family="sans-serif" font-size="4.03" lengthAdjust="spacing" textLength="28.52" x="286.285" y="326.7863">gets instance of</text></g><!--link Repositories to OrderRepository--><g id="link_Repositories_OrderRepository"><path codeLine="197" d="M338.8083,333.3774 C316.6371,337.3175 289.8097,345.0272 270.01,360.1025 C263.2241,365.2702 267.065,371.6252 260.09,376.5325 C242.9625,388.5822 234.2639,380.9562 213.9,385.8325 C192.2589,391.0126 167.9022,397.8698 150.3035,403.0096 " fill="none" id="Repositories-to-OrderRepository" style="stroke:#181818;stroke-width:0.31;"/><polygon fill="#181818" points="148.7287,403.4684,151.7554,403.8693,150.2155,403.0304,151.0545,401.4905,148.7287,403.4684" style="stroke:#181818;stroke-width:0.31;"/><text fill="#000000" font-family="sans-serif" font-size="4.03" lengthAdjust="spacing" textLength="15.19" x="270.32" y="370.0313">contains</text></g><!--link Repositories to PropertySoldRepository--><g id="link_Repositories_PropertySoldRepository"><path codeLine="198" d="M399.0506,347.8761 C406.4658,357.235 411.525,368.302 403.93,376.5325 C386.4491,395.4766 312.6939,377.4966 288.3,385.8325 C286.4245,386.4742 284.549,387.2306 282.6921,388.0738 " fill="none" id="Repositories-to-PropertySoldRepository" style="stroke:#181818;stroke-width:0.31;"/><polygon fill="#181818" points="281.2785,388.7341,284.3311,388.6774,282.683,388.0784,283.282,386.4303,281.2785,388.7341" style="stroke:#181818;stroke-width:0.31;"/><text fill="#000000" font-family="sans-serif" font-size="4.03" lengthAdjust="spacing" textLength="15.19" x="407.96" y="370.0313">contains</text></g><!--link Repositories to PropertyAnnouncementRepository--><g id="link_Repositories_PropertyAnnouncementRepository"><path codeLine="199" d="M420.6948,344.9621 C435.8507,353.205 447.3827,364.1604 438.34,376.5325 C430.3203,387.5034 399.0909,396.6236 372.589,402.6097 " fill="none" id="Repositories-to-PropertyAnnouncementRepository" style="stroke:#181818;stroke-width:0.31;"/><polygon fill="#181818" points="371.0111,402.9662,374.0053,403.5631,372.5232,402.6258,373.4606,401.1437,371.0111,402.9662" style="stroke:#181818;stroke-width:0.31;"/><text fill="#000000" font-family="sans-serif" font-size="4.03" lengthAdjust="spacing" textLength="15.19" x="441.75" y="370.0313">contains</text></g><!--link AcceptOffersController to PropertyAnnouncementRepository--><g id="link_AcceptOffersController_PropertyAnnouncementRepository"><path codeLine="202" d="M262.322,344.1282 C271.4701,348.4248 280.6492,353.7196 288.3,360.1025 C295.0797,365.7569 293.8831,369.6908 299.46,376.5325 C301.6145,379.1768 303.9395,381.8552 306.3203,384.4871 " fill="none" id="AcceptOffersController-to-PropertyAnnouncementRepository" style="stroke:#181818;stroke-width:0.31;"/><polygon fill="#181818" points="307.4952,385.7736,306.5332,382.876,306.4515,384.6277,304.6997,384.546,307.4952,385.7736" style="stroke:#181818;stroke-width:0.31;"/><text fill="#000000" font-family="sans-serif" font-size="4.03" lengthAdjust="spacing" textLength="50.84" x="299.77" y="370.0313">gets announcement list from</text></g><!--link AcceptOffersController to PropertyAnnouncementRepository--><g id="link_AcceptOffersController_PropertyAnnouncementRepository"><path codeLine="207" d="M262.2941,336.5828 C299.0322,343.1765 346.4405,352.9136 352.16,360.1025 C357.7865,367.1767 356.3605,376.0458 352.3956,384.3538 " fill="none" id="AcceptOffersController-to-PropertyAnnouncementRepository-1" style="stroke:#181818;stroke-width:0.31;"/><polygon fill="#181818" points="351.6826,385.7922,354.0369,383.8483,352.374,384.405,351.8173,382.7421,351.6826,385.7922" style="stroke:#181818;stroke-width:0.31;"/><text fill="#000000" font-family="sans-serif" font-size="4.03" lengthAdjust="spacing" textLength="31.93" x="362.7" y="364.7613">updates the list of</text><text fill="#000000" font-family="sans-serif" font-size="4.03" lengthAdjust="spacing" textLength="44.95" x="356.19" y="370.1215">announcements, deleting</text><text fill="#000000" font-family="sans-serif" font-size="4.03" lengthAdjust="spacing" textLength="31.93" x="362.7" y="375.4817">the accepted offer</text></g><!--link AcceptOffersController to PropertySoldRepository--><g id="link_AcceptOffersController_PropertySoldRepository"><path codeLine="203" d="M179.0126,350.818 C170.3357,358.3789 165.3261,367.3007 171.43,376.5325 C181.7096,392.0852 200.7591,400.5017 217.62,405.0432 " fill="none" id="AcceptOffersController-to-PropertySoldRepository" style="stroke:#181818;stroke-width:0.31;"/><polygon fill="#181818" points="219.139,405.4462,216.7553,403.5384,217.6398,405.0526,216.1256,405.9371,219.139,405.4462" style="stroke:#181818;stroke-width:0.31;"/><text fill="#000000" font-family="sans-serif" font-size="4.03" lengthAdjust="spacing" textLength="16.43" x="180.11" y="367.3963">gets sold</text><text fill="#000000" font-family="sans-serif" font-size="4.03" lengthAdjust="spacing" textLength="33.17" x="171.74" y="372.7565">properties list from</text></g><!--link AcceptOffersController to PropertySoldRepository--><g id="link_AcceptOffersController_PropertySoldRepository"><path codeLine="208" d="M214.5572,350.8707 C213.9279,359.1663 214.3588,368.5531 217.62,376.5325 C219.2134,380.4292 221.495,384.1182 224.13,387.5282 " fill="none" id="AcceptOffersController-to-PropertySoldRepository-1" style="stroke:#181818;stroke-width:0.31;"/><polygon fill="#181818" points="225.1158,388.7713,224.3557,385.8143,224.1535,387.5562,222.4116,387.354,225.1158,388.7713" style="stroke:#181818;stroke-width:0.31;"/><text fill="#000000" font-family="sans-serif" font-size="4.03" lengthAdjust="spacing" textLength="31.93" x="222.27" y="364.7613">updates the list of</text><text fill="#000000" font-family="sans-serif" font-size="4.03" lengthAdjust="spacing" textLength="40.61" x="217.93" y="370.1215">sold properties, adding</text><text fill="#000000" font-family="sans-serif" font-size="4.03" lengthAdjust="spacing" textLength="31.93" x="222.27" y="375.4817">the accepted offer</text></g><!--link AcceptOffersController to Client--><g id="link_AcceptOffersController_Client"><path codeLine="205" d="M174.7222,329.2389 C119.5515,330.2588 29.4221,335.7365 8.37,360.1025 C2.2847,367.1457 4.1695,376.0086 8.8846,384.3197 " fill="none" id="AcceptOffersController-to-Client" style="stroke:#181818;stroke-width:0.31;"/><polygon fill="#181818" points="9.7309,385.755,9.3899,382.721,8.9471,384.4178,7.2503,383.975,9.7309,385.755" style="stroke:#181818;stroke-width:0.31;"/><text fill="#000000" font-family="sans-serif" font-size="4.03" lengthAdjust="spacing" textLength="44.02" x="8.68" y="370.0313">notify the client via email</text></g><!--link Agent to Employee--><g id="link_Agent_Employee"><path codeLine="210" d="M343.0088,104.4331 C340.0607,112.0963 337.0382,119.9517 334.2079,127.3018 " fill="none" id="Agent-to-Employee" style="stroke:#181818;stroke-width:0.31;"/><polygon fill="#181818" points="333.6437,128.765,335.8004,126.6039,334.1986,127.3178,333.4848,125.716,333.6437,128.765" style="stroke:#181818;stroke-width:0.31;"/><text fill="#000000" font-family="sans-serif" font-size="4.03" lengthAdjust="spacing" textLength="6.51" x="339.45" y="118.3113">is a</text></g><!--link Client to Order--><g id="link_Client_Order"><path codeLine="212" d="M59.4456,435.4883 C73.8575,448.4928 91.295,464.2284 104.6839,476.3091 " fill="none" id="Client-to-Order" style="stroke:#181818;stroke-width:0.31;"/><polygon fill="#181818" points="105.8867,477.3941,104.6483,474.6034,104.7368,476.3548,102.9854,476.4433,105.8867,477.3941" style="stroke:#181818;stroke-width:0.31;"/><text fill="#000000" font-family="sans-serif" font-size="4.03" lengthAdjust="spacing" textLength="11.78" x="86.18" y="449.3913">placed</text><text fill="#000000" font-family="sans-serif" font-size="4.03" lengthAdjust="spacing" textLength="19.22" x="82.46" y="454.7515">order(s) on</text></g><!--link Order to Property--><g id="link_Order_Property"><path codeLine="214" d="M145.7682,495.7275 C171.647,495.7275 217.1953,495.7275 248.2542,495.7275 " fill="none" id="Order-to-Property" style="stroke:#181818;stroke-width:0.31;"/><polygon fill="#181818" points="249.8135,495.7275,247.0235,494.4875,248.2635,495.7275,247.0235,496.9675,249.8135,495.7275" style="stroke:#181818;stroke-width:0.31;"/><text fill="#000000" font-family="sans-serif" font-size="4.03" lengthAdjust="spacing" textLength="16.43" x="189.565" y="493.5663">regarding</text></g><!--link Agent to Property--><g id="link_Agent_Property"><path codeLine="216" d="M385.1905,69.2264 C418.5124,83.7437 473.37,114.8088 473.37,162.0125 C473.37,162.0125 473.37,162.0125 473.37,410.9425 C473.37,481.204 387.7325,433.7864 324.88,465.1925 C321.2034,467.0277 317.4865,469.1419 313.8502,471.377 " fill="none" id="Agent-to-Property" style="stroke:#181818;stroke-width:0.31;"/><polygon fill="#181818" points="312.5141,472.2078,315.5385,471.7898,313.831,471.3903,314.2305,469.6828,312.5141,472.2078" style="stroke:#181818;stroke-width:0.31;"/><text fill="#000000" font-family="sans-serif" font-size="4.03" lengthAdjust="spacing" textLength="30.38" x="473.68" y="265.4063">is responsible for</text></g><!--link PropertyAnnouncementRepository to Property--><g id="link_PropertyAnnouncementRepository_Property"><path codeLine="218" d="M317.4555,435.4883 C311.5562,445.2347 304.73,456.5094 298.5982,466.634 " fill="none" id="PropertyAnnouncementRepository-to-Property" style="stroke:#181818;stroke-width:0.31;"/><polygon fill="#181818" points="297.7767,467.9918,300.2797,466.2435,298.5774,466.6647,298.1563,464.9624,297.7767,467.9918" style="stroke:#181818;stroke-width:0.31;"/><text fill="#000000" font-family="sans-serif" font-size="4.03" lengthAdjust="spacing" textLength="15.19" x="323.175" y="449.3913">contains</text><text fill="#000000" font-family="sans-serif" font-size="4.03" lengthAdjust="spacing" textLength="38.44" x="311.55" y="454.7515">announced properties</text></g><!--link PropertySoldRepository to Property--><g id="link_PropertySoldRepository_Property"><path codeLine="219" d="M258.5741,432.5867 C262.291,442.9252 266.7953,455.4461 270.7974,466.5782 " fill="none" id="PropertySoldRepository-to-Property" style="stroke:#181818;stroke-width:0.31;"/><polygon fill="#181818" points="271.3337,468.0693,271.5537,465.0241,270.8079,466.6112,269.2208,465.8654,271.3337,468.0693" style="stroke:#181818;stroke-width:0.31;"/><text fill="#000000" font-family="sans-serif" font-size="4.03" lengthAdjust="spacing" textLength="15.19" x="272.49" y="449.3913">contains</text><text fill="#000000" font-family="sans-serif" font-size="4.03" lengthAdjust="spacing" textLength="26.35" x="266.91" y="454.7515">sold properties</text></g><!--link OrderRepository to Order--><g id="link_OrderRepository_Order"><path codeLine="220" d="M125.86,432.5867 C125.86,445.6656 125.86,462.2351 125.86,475.0722 " fill="none" id="OrderRepository-to-Order" style="stroke:#181818;stroke-width:0.31;"/><polygon fill="#181818" points="125.86,476.6997,127.1,473.9097,125.86,475.1497,124.62,473.9097,125.86,476.6997" style="stroke:#181818;stroke-width:0.31;"/><text fill="#000000" font-family="sans-serif" font-size="4.03" lengthAdjust="spacing" textLength="15.19" x="126.17" y="452.0263">contains</text></g><!--link Property to Request--><g id="link_Property_Request"><path codeLine="222" d="M312.5513,495.7275 C317.8988,495.7275 323.4199,495.7275 328.6589,495.7275 " fill="none" id="Property-to-Request" style="stroke:#181818;stroke-width:0.31;"/><polygon fill="#181818" points="330.274,495.7275,327.484,494.4875,328.724,495.7275,327.484,496.9675,330.274,495.7275" style="stroke:#181818;stroke-width:0.31;"/><text fill="#000000" font-family="sans-serif" font-size="4.03" lengthAdjust="spacing" textLength="6.51" x="318.1375" y="493.5663">has</text></g><!--link Property to Apartment--><g id="link_Property_Apartment"><path codeLine="224" d="M281.17,523.4012 C281.17,533.718 281.17,545.8576 281.17,557.805 " fill="none" id="Property-to-Apartment" style="stroke:#181818;stroke-width:0.31;"/><polygon fill="#181818" points="281.17,559.4108,282.41,556.6208,281.17,557.8608,279.93,556.6208,281.17,559.4108" style="stroke:#181818;stroke-width:0.31;"/><text fill="#000000" font-family="sans-serif" font-size="4.03" lengthAdjust="spacing" textLength="12.09" x="281.48" y="540.2213">can be</text></g><!--link Property to Land--><g id="link_Property_Land"><path codeLine="225" d="M262.4429,523.395 C256.618,532.075 250.2444,541.7563 244.59,550.7525 C240.2221,557.6996 235.6899,565.1644 231.3623,572.4184 " fill="none" id="Property-to-Land" style="stroke:#181818;stroke-width:0.31;"/><polygon fill="#181818" points="230.5563,573.77,233.0507,572.0095,231.3505,572.439,230.921,570.7388,230.5563,573.77" style="stroke:#181818;stroke-width:0.31;"/><text fill="#000000" font-family="sans-serif" font-size="4.03" lengthAdjust="spacing" textLength="12.09" x="253.58" y="540.2213">can be</text></g><!--link Property to House--><g id="link_Property_House"><path codeLine="226" d="M299.8971,523.395 C305.722,532.075 312.0956,541.7563 317.75,550.7525 C319.2504,553.1395 320.7725,555.5885 322.2977,558.0716 " fill="none" id="Property-to-House" style="stroke:#181818;stroke-width:0.31;"/><polygon fill="#181818" points="323.144,559.4511,322.7407,556.4248,322.3329,558.1303,320.6273,557.7225,323.144,559.4511" style="stroke:#181818;stroke-width:0.31;"/><text fill="#000000" font-family="sans-serif" font-size="4.03" lengthAdjust="spacing" textLength="12.09" x="311.24" y="540.2213">can be</text></g><!--SRC=[rLVVRzis47xdNy6tE4WCjA_64C1n4pH0q0JpCXHOXu2cJZONYjH8AebNx7_VaTGFIfQI1IrMh0-foJlUVNVyxdWwiWz2bSomWXPQQRupkW3gJ0MaavICFx0jhDrU0ZN07LDRcIhO7Slqar1RcZDfWHnr8YaKk7q9L1kdINA6IsRjqZaZDfM3AwxLMlm5z1qXJZZqSxT-z_uzNN8EfQCtUGx6qZbT-LFqWs1Rj478aOJSKQUf4TkTevdmw8HM95YdjqQNODn-gPIk58S2bFiPIcs5qsPFlvBvjR3kfqRjZB94qPBx-tjo8kn5KRhzx9YSi2oRbRNkCPa_CYaovg0vdiXE31Jw4MPwymS2mlKMNAqcmAAjlya0ubhBx4Le5XKw4z-2RHBBZSd0Z808-sTuW_XVxTcx2-l4Lr1hTiSo41Hw7X6-r7i0xsgDL4066OtKQXPGC27RbM959oftMi6dgjY0QVSGbG5hsxN5CF24K8votkZwbMFFWwFbKpP8H8A9Iu64k8XWcfJI9gLadalD76K5SiSbpZ4ddStb5aqaDl_RqERuZvpic0r1p58CyMu-8O1P_1bLyBVJKS__vX8nfLUt2Zb90eeXU0Wboakizm4EgxbWSWsyCiBj1y9-EiOoKDyGEW2JCmvjwNGGVADfRyC0QmLISnRwGYtCaDOCwvpcsEyeHpYKOpIcFMtWpmgiWmnlMN0W8NsuX-sje_H1JcAtYitgxihd9jrPQVIWfKHgSMTaB2HJAP_UWYdiiB50plSZLJj77CejfOmwbzfyRhL2oVbAdO3IEKP45vbmIvMjyNxy4KjXi15nzPh4-NvL6OC92YIU9RI9Q7xHdySQ3UimjDkd-29Ot8i7JwbG6JoZRWRSFnLHkTviWsbx4cBnMUsjXOftsLLcqiBAWwqslAlwtApN4XFDMGz1uCCurMgAD3prgpibi1DiD3OpfgYmL-wssc3aEyYwhgABGbYBjFpWEyNyvaaXDRJ_EwBpAvDLNLzPPIARMtZNJ6LVtyJyIoJ-2dc_gcaVsnFpVydyKaZuxNTVXKxZGrlkR7Cy5uh9srwywPiP0wcJrHHHpFXKyQHTfcClpWYkgFlBzuhAfqvLnKr-3fdHkh3f5dExuTujCpYjRDSu_k23srvcQ1HCVWH4eBRTFXC62msB2N45mG_FuaTTMVW_Px0HR9WDYKagIktOHZYsaN2jy-JHhTJ5CnPmvR7_m0iWCM_-sJqRFWiBoko3fRasNrJJdwWEKZ9G3QUzfGMre3BgTX3w9wg_V3PvQz34SB1RqAhq4vjjZDMptIbcuOiAxTqFrTuR3XsbdwaVePw2R1VRCB88qePpJDadm03H332-YnX7mnj7lQ0SwOeGNmYhzmmiA3RnxZL0XwGddu_c0Jyx7CCpXxeJW_c_EJBnkP4SVTDTXRZ21SNhyZFB2mPUHH7ifNH_azc3V0Hp_kkaPQHeY1LCJjf4et68N52bdSZtWJYHPVHHi7ecVEdygx4sFEyLJkyhxvHc8C4t8YIh9sxmXeFV8MCdd1zaPDIfpn3j4dJg9_effqc5jLz82vmYA2EadhjREgEWbDXVCVs18pDxJB6jaoXCOAAYWIqptclg8P6Z1r_lMbc1ZTLtA49UIV70GiFmBibfq6GYPPD61aaZm-98iz0LLsigz8ZOn1SKFtvIaMyzxPI1f_qp0tsvdwecHF5fRMN_0000]--></g></svg>