<?xml version="1.0" encoding="us-ascii" standalone="no"?><svg xmlns="http://www.w3.org/2000/svg" xmlns:xlink="http://www.w3.org/1999/xlink" contentStyleType="text/css" height="334.8px" preserveAspectRatio="none" style="width:265px;height:334px;background:#FFFFFF;" version="1.1" viewBox="0 0 265 334" width="265.2px" zoomAndPan="magnify"><defs/><g><text fill="#000000" font-family="sans-serif" font-size="2.8" font-weight="bold" lengthAdjust="spacing" textLength="51" x="105.7" y="5.0215">US011 Accept Offers - Class Diagram</text><!--class PropertyAnnouncementRepository--><g id="elem_PropertyAnnouncementRepository"><rect codeLine="11" fill="#F1F1F1" height="31.9453" id="PropertyAnnouncementRepository" rx="0.5" ry="0.5" style="stroke:#181818;stroke-width:0.10000000000000002;" width="49.8" x="179.1" y="301.5242"/><ellipse cx="182.1" cy="304.7242" fill="#ADD1B2" rx="2.2" ry="2.2" style="stroke:#181818;stroke-width:0.20000000000000004;"/><path d="M182.6531,303.8992 Q182.6844,303.8555 182.7219,303.8336 Q182.7594,303.8117 182.8031,303.8117 Q182.8781,303.8117 182.925,303.8648 Q182.9719,303.9148 182.9719,304.0367 L182.9719,304.3273 Q182.9719,304.4492 182.925,304.5023 Q182.8781,304.5555 182.8031,304.5555 Q182.7344,304.5555 182.6938,304.5148 Q182.6531,304.4773 182.6313,304.3742 Q182.6219,304.3023 182.5844,304.2648 Q182.5188,304.1898 182.3969,304.1461 Q182.275,304.1023 182.15,304.1023 Q181.9969,304.1023 181.8688,304.168 Q181.7438,304.2336 181.6438,304.3836 Q181.5469,304.5336 181.5469,304.7398 L181.5469,304.9586 Q181.5469,305.2055 181.725,305.3711 Q181.9031,305.5336 182.2219,305.5336 Q182.4094,305.5336 182.5406,305.4836 Q182.6188,305.4523 182.7031,305.3648 Q182.7563,305.3117 182.7844,305.2961 Q182.8156,305.2805 182.8563,305.2805 Q182.9219,305.2805 182.9719,305.3336 Q183.025,305.3836 183.025,305.4523 Q183.025,305.5211 182.9563,305.6023 Q182.8563,305.718 182.6969,305.7836 Q182.4813,305.8742 182.2219,305.8742 Q181.9188,305.8742 181.6781,305.7492 Q181.4813,305.6492 181.3438,305.4367 Q181.2063,305.2211 181.2063,304.9648 L181.2063,304.7336 Q181.2063,304.468 181.3281,304.2398 Q181.4531,304.0086 181.6719,303.8867 Q181.8906,303.7617 182.1375,303.7617 Q182.2844,303.7617 182.4125,303.7961 Q182.5438,303.8273 182.6531,303.8992 Z " fill="#000000"/><text fill="#000000" font-family="sans-serif" font-size="2.8" lengthAdjust="spacing" textLength="43.4" x="184.9" y="305.8836">PropertyAnnouncementRepository</text><line style="stroke:#181818;stroke-width:0.10000000000000002;" x1="179.3" x2="228.7" y1="307.9242" y2="307.9242"/><text fill="#000000" font-family="sans-serif" font-size="2.8" lengthAdjust="spacing" textLength="40.4" x="180.3" y="311.7457">-List&lt;Property&gt; announcements</text><line style="stroke:#181818;stroke-width:0.10000000000000002;" x1="179.3" x2="228.7" y1="313.2484" y2="313.2484"/><text fill="#000000" font-family="sans-serif" font-size="2.8" lengthAdjust="spacing" textLength="13.4" x="180.3" y="317.0699">+isEmpty()</text><text fill="#000000" font-family="sans-serif" font-size="2.8" lengthAdjust="spacing" textLength="19" x="180.3" y="320.7941">+add(property)</text><text fill="#000000" font-family="sans-serif" font-size="2.8" lengthAdjust="spacing" textLength="34.2" x="180.3" y="324.5184">-validateProperty(property)</text><text fill="#000000" font-family="sans-serif" font-size="2.8" lengthAdjust="spacing" textLength="20.6" x="180.3" y="328.2426">+remove(object)</text><text fill="#000000" font-family="sans-serif" font-size="2.8" lengthAdjust="spacing" textLength="20.6" x="180.3" y="331.9668">+getProperties()</text></g><!--class PropertySoldRepository--><g id="elem_PropertySoldRepository"><rect codeLine="21" fill="#F1F1F1" height="28.2211" id="PropertySoldRepository" rx="0.5" ry="0.5" style="stroke:#181818;stroke-width:0.10000000000000002;" width="40.8" x="95.4" y="303.4242"/><ellipse cx="100.38" cy="306.6242" fill="#ADD1B2" rx="2.2" ry="2.2" style="stroke:#181818;stroke-width:0.20000000000000004;"/><path d="M100.9331,305.7992 Q100.9644,305.7555 101.0019,305.7336 Q101.0394,305.7117 101.0831,305.7117 Q101.1581,305.7117 101.205,305.7648 Q101.2519,305.8148 101.2519,305.9367 L101.2519,306.2273 Q101.2519,306.3492 101.205,306.4023 Q101.1581,306.4555 101.0831,306.4555 Q101.0144,306.4555 100.9738,306.4148 Q100.9331,306.3773 100.9113,306.2742 Q100.9019,306.2023 100.8644,306.1648 Q100.7988,306.0898 100.6769,306.0461 Q100.555,306.0023 100.43,306.0023 Q100.2769,306.0023 100.1488,306.068 Q100.0238,306.1336 99.9238,306.2836 Q99.8269,306.4336 99.8269,306.6398 L99.8269,306.8586 Q99.8269,307.1055 100.005,307.2711 Q100.1831,307.4336 100.5019,307.4336 Q100.6894,307.4336 100.8206,307.3836 Q100.8988,307.3523 100.9831,307.2648 Q101.0363,307.2117 101.0644,307.1961 Q101.0956,307.1805 101.1363,307.1805 Q101.2019,307.1805 101.2519,307.2336 Q101.305,307.2836 101.305,307.3523 Q101.305,307.4211 101.2363,307.5023 Q101.1363,307.618 100.9769,307.6836 Q100.7613,307.7742 100.5019,307.7742 Q100.1988,307.7742 99.9581,307.6492 Q99.7613,307.5492 99.6238,307.3367 Q99.4863,307.1211 99.4863,306.8648 L99.4863,306.6336 Q99.4863,306.368 99.6081,306.1398 Q99.7331,305.9086 99.9519,305.7867 Q100.1706,305.6617 100.4175,305.6617 Q100.5644,305.6617 100.6925,305.6961 Q100.8238,305.7273 100.9331,305.7992 Z " fill="#000000"/><text fill="#000000" font-family="sans-serif" font-size="2.8" lengthAdjust="spacing" textLength="30" x="103.62" y="307.7836">PropertySoldRepository</text><line style="stroke:#181818;stroke-width:0.10000000000000002;" x1="95.6" x2="136" y1="309.8242" y2="309.8242"/><text fill="#000000" font-family="sans-serif" font-size="2.8" lengthAdjust="spacing" textLength="38.4" x="96.6" y="313.6457">-List&lt;Property&gt; soldProperties</text><line style="stroke:#181818;stroke-width:0.10000000000000002;" x1="95.6" x2="136" y1="315.1484" y2="315.1484"/><text fill="#000000" font-family="sans-serif" font-size="2.8" lengthAdjust="spacing" textLength="13.4" x="96.6" y="318.9699">+isEmpty()</text><text fill="#000000" font-family="sans-serif" font-size="2.8" lengthAdjust="spacing" textLength="19" x="96.6" y="322.6941">+add(property)</text><text fill="#000000" font-family="sans-serif" font-size="2.8" lengthAdjust="spacing" textLength="34.2" x="96.6" y="326.4184">-validateProperty(property)</text><text fill="#000000" font-family="sans-serif" font-size="2.8" lengthAdjust="spacing" textLength="20.6" x="96.6" y="330.1426">+getProperties()</text></g><!--class OrderRepository--><g id="elem_OrderRepository"><rect codeLine="30" fill="#F1F1F1" height="28.2211" id="OrderRepository" rx="0.5" ry="0.5" style="stroke:#181818;stroke-width:0.10000000000000002;" width="29.4" x="69.9" y="197.4242"/><ellipse cx="73.8" cy="200.6242" fill="#ADD1B2" rx="2.2" ry="2.2" style="stroke:#181818;stroke-width:0.20000000000000004;"/><path d="M74.3531,199.7992 Q74.3844,199.7555 74.4219,199.7336 Q74.4594,199.7117 74.5031,199.7117 Q74.5781,199.7117 74.625,199.7648 Q74.6719,199.8148 74.6719,199.9367 L74.6719,200.2273 Q74.6719,200.3492 74.625,200.4023 Q74.5781,200.4555 74.5031,200.4555 Q74.4344,200.4555 74.3938,200.4148 Q74.3531,200.3773 74.3313,200.2742 Q74.3219,200.2023 74.2844,200.1648 Q74.2188,200.0898 74.0969,200.0461 Q73.975,200.0023 73.85,200.0023 Q73.6969,200.0023 73.5688,200.068 Q73.4438,200.1336 73.3438,200.2836 Q73.2469,200.4336 73.2469,200.6398 L73.2469,200.8586 Q73.2469,201.1055 73.425,201.2711 Q73.6031,201.4336 73.9219,201.4336 Q74.1094,201.4336 74.2406,201.3836 Q74.3188,201.3523 74.4031,201.2648 Q74.4563,201.2117 74.4844,201.1961 Q74.5156,201.1805 74.5563,201.1805 Q74.6219,201.1805 74.6719,201.2336 Q74.725,201.2836 74.725,201.3523 Q74.725,201.4211 74.6563,201.5023 Q74.5563,201.618 74.3969,201.6836 Q74.1813,201.7742 73.9219,201.7742 Q73.6188,201.7742 73.3781,201.6492 Q73.1813,201.5492 73.0438,201.3367 Q72.9063,201.1211 72.9063,200.8648 L72.9063,200.6336 Q72.9063,200.368 73.0281,200.1398 Q73.1531,199.9086 73.3719,199.7867 Q73.5906,199.6617 73.8375,199.6617 Q73.9844,199.6617 74.1125,199.6961 Q74.2438,199.7273 74.3531,199.7992 Z " fill="#000000"/><text fill="#000000" font-family="sans-serif" font-size="2.8" lengthAdjust="spacing" textLength="21" x="76.8" y="201.7836">OrderRepository</text><line style="stroke:#181818;stroke-width:0.10000000000000002;" x1="70.1" x2="99.1" y1="203.8242" y2="203.8242"/><text fill="#000000" font-family="sans-serif" font-size="2.8" lengthAdjust="spacing" textLength="25" x="71.1" y="207.6457">-List&lt;Order&gt; orders</text><line style="stroke:#181818;stroke-width:0.10000000000000002;" x1="70.1" x2="99.1" y1="209.1484" y2="209.1484"/><text fill="#000000" font-family="sans-serif" font-size="2.8" lengthAdjust="spacing" textLength="15.2" x="71.1" y="212.9699">+add(order)</text><text fill="#000000" font-family="sans-serif" font-size="2.8" lengthAdjust="spacing" textLength="27" x="71.1" y="216.6941">-validateOrder(order)</text><text fill="#000000" font-family="sans-serif" font-size="2.8" lengthAdjust="spacing" textLength="20.6" x="71.1" y="220.4184">+remove(object)</text><text fill="#000000" font-family="sans-serif" font-size="2.8" lengthAdjust="spacing" textLength="16.4" x="71.1" y="224.1426">+getOrders()</text></g><!--class Order--><g id="elem_Order"><rect codeLine="39" fill="#F1F1F1" height="24.4969" id="Order" rx="0.5" ry="0.5" style="stroke:#181818;stroke-width:0.10000000000000002;" width="25.6" x="53.8" y="252.3242"/><ellipse cx="62.11" cy="255.5242" fill="#ADD1B2" rx="2.2" ry="2.2" style="stroke:#181818;stroke-width:0.20000000000000004;"/><path d="M62.6631,254.6992 Q62.6944,254.6555 62.7319,254.6336 Q62.7694,254.6117 62.8131,254.6117 Q62.8881,254.6117 62.935,254.6648 Q62.9819,254.7148 62.9819,254.8367 L62.9819,255.1273 Q62.9819,255.2492 62.935,255.3023 Q62.8881,255.3555 62.8131,255.3555 Q62.7444,255.3555 62.7038,255.3148 Q62.6631,255.2773 62.6413,255.1742 Q62.6319,255.1023 62.5944,255.0648 Q62.5288,254.9898 62.4069,254.9461 Q62.285,254.9023 62.16,254.9023 Q62.0069,254.9023 61.8788,254.968 Q61.7538,255.0336 61.6538,255.1836 Q61.5569,255.3336 61.5569,255.5398 L61.5569,255.7586 Q61.5569,256.0055 61.735,256.1711 Q61.9131,256.3336 62.2319,256.3336 Q62.4194,256.3336 62.5506,256.2836 Q62.6288,256.2523 62.7131,256.1648 Q62.7663,256.1117 62.7944,256.0961 Q62.8256,256.0805 62.8663,256.0805 Q62.9319,256.0805 62.9819,256.1336 Q63.035,256.1836 63.035,256.2523 Q63.035,256.3211 62.9663,256.4023 Q62.8663,256.518 62.7069,256.5836 Q62.4913,256.6742 62.2319,256.6742 Q61.9288,256.6742 61.6881,256.5492 Q61.4913,256.4492 61.3538,256.2367 Q61.2163,256.0211 61.2163,255.7648 L61.2163,255.5336 Q61.2163,255.268 61.3381,255.0398 Q61.4631,254.8086 61.6819,254.6867 Q61.9006,254.5617 62.1475,254.5617 Q62.2944,254.5617 62.4225,254.5961 Q62.5538,254.6273 62.6631,254.6992 Z " fill="#000000"/><text fill="#000000" font-family="sans-serif" font-size="2.8" lengthAdjust="spacing" textLength="7.4" x="66.09" y="256.6836">Order</text><line style="stroke:#181818;stroke-width:0.10000000000000002;" x1="54" x2="79.2" y1="258.7242" y2="258.7242"/><text fill="#000000" font-family="sans-serif" font-size="2.8" lengthAdjust="spacing" textLength="22.6" x="55" y="262.5457">-String clientEmail</text><text fill="#000000" font-family="sans-serif" font-size="2.8" lengthAdjust="spacing" textLength="23.2" x="55" y="266.2699">-Property property</text><text fill="#000000" font-family="sans-serif" font-size="2.8" lengthAdjust="spacing" textLength="16.6" x="55" y="269.9941">-float amount</text><text fill="#000000" font-family="sans-serif" font-size="2.8" lengthAdjust="spacing" textLength="15.4" x="55" y="273.7184">-String state</text><line style="stroke:#181818;stroke-width:0.10000000000000002;" x1="54" x2="79.2" y1="275.2211" y2="275.2211"/></g><!--class Agent--><g id="elem_Agent"><rect codeLine="46" fill="#F1F1F1" height="58.0148" id="Agent" rx="0.5" ry="0.5" style="stroke:#181818;stroke-width:0.10000000000000002;" width="32.2" x="82.7" y="9.3242"/><ellipse cx="94.25" cy="12.5242" fill="#ADD1B2" rx="2.2" ry="2.2" style="stroke:#181818;stroke-width:0.20000000000000004;"/><path d="M94.8031,11.6992 Q94.8344,11.6555 94.8719,11.6336 Q94.9094,11.6117 94.9531,11.6117 Q95.0281,11.6117 95.075,11.6648 Q95.1219,11.7148 95.1219,11.8367 L95.1219,12.1273 Q95.1219,12.2492 95.075,12.3023 Q95.0281,12.3555 94.9531,12.3555 Q94.8844,12.3555 94.8438,12.3148 Q94.8031,12.2773 94.7813,12.1742 Q94.7719,12.1023 94.7344,12.0648 Q94.6688,11.9898 94.5469,11.9461 Q94.425,11.9023 94.3,11.9023 Q94.1469,11.9023 94.0188,11.968 Q93.8938,12.0336 93.7938,12.1836 Q93.6969,12.3336 93.6969,12.5398 L93.6969,12.7586 Q93.6969,13.0055 93.875,13.1711 Q94.0531,13.3336 94.3719,13.3336 Q94.5594,13.3336 94.6906,13.2836 Q94.7688,13.2523 94.8531,13.1648 Q94.9063,13.1117 94.9344,13.0961 Q94.9656,13.0805 95.0063,13.0805 Q95.0719,13.0805 95.1219,13.1336 Q95.175,13.1836 95.175,13.2523 Q95.175,13.3211 95.1063,13.4023 Q95.0063,13.518 94.8469,13.5836 Q94.6313,13.6742 94.3719,13.6742 Q94.0688,13.6742 93.8281,13.5492 Q93.6313,13.4492 93.4938,13.2367 Q93.3563,13.0211 93.3563,12.7648 L93.3563,12.5336 Q93.3563,12.268 93.4781,12.0398 Q93.6031,11.8086 93.8219,11.6867 Q94.0406,11.5617 94.2875,11.5617 Q94.4344,11.5617 94.5625,11.5961 Q94.6938,11.6273 94.8031,11.6992 Z " fill="#000000"/><text fill="#000000" font-family="sans-serif" font-size="2.8" lengthAdjust="spacing" textLength="7.4" x="98.35" y="13.6836">Agent</text><line style="stroke:#181818;stroke-width:0.10000000000000002;" x1="82.9" x2="114.7" y1="15.7242" y2="15.7242"/><text fill="#000000" font-family="sans-serif" font-size="2.8" lengthAdjust="spacing" textLength="15.8" x="83.9" y="19.5457">-String email</text><text fill="#000000" font-family="sans-serif" font-size="2.8" lengthAdjust="spacing" textLength="16.2" x="83.9" y="23.2699">-String name</text><text fill="#000000" font-family="sans-serif" font-size="2.8" lengthAdjust="spacing" textLength="27" x="83.9" y="26.9941">-String phoneNumber</text><text fill="#000000" font-family="sans-serif" font-size="2.8" lengthAdjust="spacing" textLength="19.4" x="83.9" y="30.7184">-String address</text><text fill="#000000" font-family="sans-serif" font-size="2.8" lengthAdjust="spacing" textLength="15.6" x="83.9" y="34.4426">-String store</text><text fill="#000000" font-family="sans-serif" font-size="2.8" lengthAdjust="spacing" textLength="17.4" x="83.9" y="38.1668">-int ccNumber</text><text fill="#000000" font-family="sans-serif" font-size="2.8" lengthAdjust="spacing" textLength="18.2" x="83.9" y="41.891">-int taxNumber</text><text fill="#000000" font-family="sans-serif" font-size="2.8" lengthAdjust="spacing" textLength="14.2" x="83.9" y="45.6152">-String pwd</text><line style="stroke:#181818;stroke-width:0.20000000000000004;" x1="82.9" x2="114.7" y1="47.118" y2="47.118"/><text fill="#000000" font-family="sans-serif" font-size="2.8" lengthAdjust="spacing" textLength="29.8" x="83.9" y="50.9395">+hasEmail(String email)</text><text fill="#000000" font-family="sans-serif" font-size="2.8" lengthAdjust="spacing" textLength="14.8" x="83.9" y="54.6637">+getName()</text><text fill="#000000" font-family="sans-serif" font-size="2.8" lengthAdjust="spacing" textLength="14.4" x="83.9" y="58.3879">+getEmail()</text><text fill="#000000" font-family="sans-serif" font-size="2.8" lengthAdjust="spacing" textLength="13.4" x="83.9" y="62.1121">+toString()</text><text fill="#000000" font-family="sans-serif" font-size="2.8" lengthAdjust="spacing" textLength="10.4" x="83.9" y="65.8363">+clone()</text></g><!--class Client--><g id="elem_Client"><rect codeLine="63" fill="#F1F1F1" height="31.9453" id="Client" rx="0.5" ry="0.5" style="stroke:#181818;stroke-width:0.10000000000000002;" width="38.8" x="24" y="195.5242"/><ellipse cx="38.95" cy="198.7242" fill="#ADD1B2" rx="2.2" ry="2.2" style="stroke:#181818;stroke-width:0.20000000000000004;"/><path d="M39.5031,197.8992 Q39.5344,197.8555 39.5719,197.8336 Q39.6094,197.8117 39.6531,197.8117 Q39.7281,197.8117 39.775,197.8648 Q39.8219,197.9148 39.8219,198.0367 L39.8219,198.3273 Q39.8219,198.4492 39.775,198.5023 Q39.7281,198.5555 39.6531,198.5555 Q39.5844,198.5555 39.5438,198.5148 Q39.5031,198.4773 39.4813,198.3742 Q39.4719,198.3023 39.4344,198.2648 Q39.3688,198.1898 39.2469,198.1461 Q39.125,198.1023 39,198.1023 Q38.8469,198.1023 38.7188,198.168 Q38.5938,198.2336 38.4938,198.3836 Q38.3969,198.5336 38.3969,198.7398 L38.3969,198.9586 Q38.3969,199.2055 38.575,199.3711 Q38.7531,199.5336 39.0719,199.5336 Q39.2594,199.5336 39.3906,199.4836 Q39.4688,199.4523 39.5531,199.3648 Q39.6063,199.3117 39.6344,199.2961 Q39.6656,199.2805 39.7063,199.2805 Q39.7719,199.2805 39.8219,199.3336 Q39.875,199.3836 39.875,199.4523 Q39.875,199.5211 39.8063,199.6023 Q39.7063,199.718 39.5469,199.7836 Q39.3313,199.8742 39.0719,199.8742 Q38.7688,199.8742 38.5281,199.7492 Q38.3313,199.6492 38.1938,199.4367 Q38.0563,199.2211 38.0563,198.9648 L38.0563,198.7336 Q38.0563,198.468 38.1781,198.2398 Q38.3031,198.0086 38.5219,197.8867 Q38.7406,197.7617 38.9875,197.7617 Q39.1344,197.7617 39.2625,197.7961 Q39.3938,197.8273 39.5031,197.8992 Z " fill="#000000"/><text fill="#000000" font-family="sans-serif" font-size="2.8" lengthAdjust="spacing" textLength="7.2" x="43.05" y="199.8836">Client</text><line style="stroke:#181818;stroke-width:0.10000000000000002;" x1="24.2" x2="62.6" y1="201.9242" y2="201.9242"/><text fill="#000000" font-family="sans-serif" font-size="2.8" lengthAdjust="spacing" textLength="16.2" x="25.2" y="205.7457">-String name</text><text fill="#000000" font-family="sans-serif" font-size="2.8" lengthAdjust="spacing" textLength="25.6" x="25.2" y="209.4699">-int passportNumber</text><text fill="#000000" font-family="sans-serif" font-size="2.8" lengthAdjust="spacing" textLength="36.4" x="25.2" y="213.1941">-String socialSecurityNumber</text><text fill="#000000" font-family="sans-serif" font-size="2.8" lengthAdjust="spacing" textLength="15.8" x="25.2" y="216.9184">-String email</text><text fill="#000000" font-family="sans-serif" font-size="2.8" lengthAdjust="spacing" textLength="27" x="25.2" y="220.6426">-String phoneNumber</text><text fill="#000000" font-family="sans-serif" font-size="2.8" lengthAdjust="spacing" textLength="14.2" x="25.2" y="224.3668">-String pwd</text><line style="stroke:#181818;stroke-width:0.10000000000000002;" x1="24.2" x2="62.6" y1="225.8695" y2="225.8695"/></g><!--class Property--><g id="elem_Property"><rect codeLine="72" fill="#F1F1F1" height="35.6695" id="Property" rx="0.5" ry="0.5" style="stroke:#181818;stroke-width:0.10000000000000002;" width="40.4" x="126.8" y="246.7242"/><ellipse cx="140.75" cy="249.9242" fill="#B4A7E5" rx="2.2" ry="2.2" style="stroke:#181818;stroke-width:0.20000000000000004;"/><path d="M140.9406,249.2523 L140.9406,250.5836 L141.2844,250.5836 Q141.4063,250.5836 141.4594,250.6305 Q141.5125,250.6773 141.5125,250.7555 Q141.5125,250.8305 141.4594,250.8773 Q141.4063,250.9242 141.2844,250.9242 L140.2563,250.9242 Q140.1344,250.9242 140.0813,250.8773 Q140.0281,250.8305 140.0281,250.7523 Q140.0281,250.6773 140.0813,250.6305 Q140.1344,250.5836 140.2563,250.5836 L140.6,250.5836 L140.6,249.2523 L140.2563,249.2523 Q140.1344,249.2523 140.0813,249.2055 Q140.0281,249.1586 140.0281,249.0805 Q140.0281,249.0055 140.0813,248.9586 Q140.1344,248.9117 140.2563,248.9117 L141.2844,248.9117 Q141.4063,248.9117 141.4594,248.9586 Q141.5125,249.0055 141.5125,249.0805 Q141.5125,249.1586 141.4594,249.2055 Q141.4063,249.2523 141.2844,249.2523 L140.9406,249.2523 Z " fill="#000000"/><text fill="#000000" font-family="sans-serif" font-size="2.8" font-style="italic" lengthAdjust="spacing" textLength="10.8" x="144.85" y="251.0836">Property</text><line style="stroke:#181818;stroke-width:0.10000000000000002;" x1="127" x2="167" y1="253.1242" y2="253.1242"/><text fill="#000000" font-family="sans-serif" font-size="2.8" lengthAdjust="spacing" textLength="14.6" x="128" y="256.9457">-String type</text><text fill="#000000" font-family="sans-serif" font-size="2.8" lengthAdjust="spacing" textLength="13" x="128" y="260.6699">-float area</text><text fill="#000000" font-family="sans-serif" font-size="2.8" lengthAdjust="spacing" textLength="19" x="128" y="264.3941">-String location</text><text fill="#000000" font-family="sans-serif" font-size="2.8" lengthAdjust="spacing" textLength="38" x="128" y="268.1184">-float distance from city centre</text><text fill="#000000" font-family="sans-serif" font-size="2.8" lengthAdjust="spacing" textLength="27" x="128" y="271.8426">-float requested price</text><line style="stroke:#181818;stroke-width:0.20000000000000004;" x1="127" x2="167" y1="273.3453" y2="273.3453"/><text fill="#000000" font-family="sans-serif" font-size="2.8" lengthAdjust="spacing" textLength="19.6" x="128" y="277.1668">+equals(object)</text><text fill="#000000" font-family="sans-serif" font-size="2.8" lengthAdjust="spacing" textLength="10.4" x="128" y="280.891">+clone()</text></g><!--class AcceptOffersUI--><g id="elem_AcceptOffersUI"><rect codeLine="83" fill="#F1F1F1" height="24.4969" id="AcceptOffersUI" rx="0.5" ry="0.5" style="stroke:#181818;stroke-width:0.10000000000000002;" width="50.8" x="48.4" y="111.3242"/><ellipse cx="63.55" cy="114.5242" fill="#ADD1B2" rx="2.2" ry="2.2" style="stroke:#181818;stroke-width:0.20000000000000004;"/><path d="M64.1031,113.6992 Q64.1344,113.6555 64.1719,113.6336 Q64.2094,113.6117 64.2531,113.6117 Q64.3281,113.6117 64.375,113.6648 Q64.4219,113.7148 64.4219,113.8367 L64.4219,114.1273 Q64.4219,114.2492 64.375,114.3023 Q64.3281,114.3555 64.2531,114.3555 Q64.1844,114.3555 64.1438,114.3148 Q64.1031,114.2773 64.0813,114.1742 Q64.0719,114.1023 64.0344,114.0648 Q63.9688,113.9898 63.8469,113.9461 Q63.725,113.9023 63.6,113.9023 Q63.4469,113.9023 63.3188,113.968 Q63.1938,114.0336 63.0938,114.1836 Q62.9969,114.3336 62.9969,114.5398 L62.9969,114.7586 Q62.9969,115.0055 63.175,115.1711 Q63.3531,115.3336 63.6719,115.3336 Q63.8594,115.3336 63.9906,115.2836 Q64.0688,115.2523 64.1531,115.1648 Q64.2063,115.1117 64.2344,115.0961 Q64.2656,115.0805 64.3063,115.0805 Q64.3719,115.0805 64.4219,115.1336 Q64.475,115.1836 64.475,115.2523 Q64.475,115.3211 64.4063,115.4023 Q64.3063,115.518 64.1469,115.5836 Q63.9313,115.6742 63.6719,115.6742 Q63.3688,115.6742 63.1281,115.5492 Q62.9313,115.4492 62.7938,115.2367 Q62.6563,115.0211 62.6563,114.7648 L62.6563,114.5336 Q62.6563,114.268 62.7781,114.0398 Q62.9031,113.8086 63.1219,113.6867 Q63.3406,113.5617 63.5875,113.5617 Q63.7344,113.5617 63.8625,113.5961 Q63.9938,113.6273 64.1031,113.6992 Z " fill="#000000"/><text fill="#000000" font-family="sans-serif" font-size="2.8" lengthAdjust="spacing" textLength="18.8" x="67.65" y="115.6836">AcceptOffersUI</text><line style="stroke:#181818;stroke-width:0.10000000000000002;" x1="48.6" x2="99" y1="117.7242" y2="117.7242"/><text fill="#000000" font-family="sans-serif" font-size="2.8" lengthAdjust="spacing" textLength="34.4" x="49.6" y="121.5457">-AcceptOffersController ctrl</text><line style="stroke:#181818;stroke-width:0.10000000000000002;" x1="48.6" x2="99" y1="123.0484" y2="123.0484"/><text fill="#000000" font-family="sans-serif" font-size="2.8" lengthAdjust="spacing" textLength="7.8" x="49.6" y="126.8699">+run()</text><text fill="#000000" font-family="sans-serif" font-size="2.8" lengthAdjust="spacing" textLength="47.2" x="49.6" y="130.5941">+manageOrdersByProperty(property)</text><text fill="#000000" font-family="sans-serif" font-size="2.8" lengthAdjust="spacing" textLength="48.4" x="49.6" y="134.3184">-printAllOrdersForXProperty(orderList)</text></g><!--class AcceptOffersController--><g id="elem_AcceptOffersController"><rect codeLine="91" fill="#F1F1F1" height="28.2211" id="AcceptOffersController" rx="0.5" ry="0.5" style="stroke:#181818;stroke-width:0.10000000000000002;" width="56.4" x="1.4" y="151.5242"/><ellipse cx="14.35" cy="154.7242" fill="#ADD1B2" rx="2.2" ry="2.2" style="stroke:#181818;stroke-width:0.20000000000000004;"/><path d="M14.9031,153.8992 Q14.9344,153.8555 14.9719,153.8336 Q15.0094,153.8117 15.0531,153.8117 Q15.1281,153.8117 15.175,153.8648 Q15.2219,153.9148 15.2219,154.0367 L15.2219,154.3273 Q15.2219,154.4492 15.175,154.5023 Q15.1281,154.5555 15.0531,154.5555 Q14.9844,154.5555 14.9438,154.5148 Q14.9031,154.4773 14.8813,154.3742 Q14.8719,154.3023 14.8344,154.2648 Q14.7688,154.1898 14.6469,154.1461 Q14.525,154.1023 14.4,154.1023 Q14.2469,154.1023 14.1188,154.168 Q13.9938,154.2336 13.8938,154.3836 Q13.7969,154.5336 13.7969,154.7398 L13.7969,154.9586 Q13.7969,155.2055 13.975,155.3711 Q14.1531,155.5336 14.4719,155.5336 Q14.6594,155.5336 14.7906,155.4836 Q14.8688,155.4523 14.9531,155.3648 Q15.0063,155.3117 15.0344,155.2961 Q15.0656,155.2805 15.1063,155.2805 Q15.1719,155.2805 15.2219,155.3336 Q15.275,155.3836 15.275,155.4523 Q15.275,155.5211 15.2063,155.6023 Q15.1063,155.718 14.9469,155.7836 Q14.7313,155.8742 14.4719,155.8742 Q14.1688,155.8742 13.9281,155.7492 Q13.7313,155.6492 13.5938,155.4367 Q13.4563,155.2211 13.4563,154.9648 L13.4563,154.7336 Q13.4563,154.468 13.5781,154.2398 Q13.7031,154.0086 13.9219,153.8867 Q14.1406,153.7617 14.3875,153.7617 Q14.5344,153.7617 14.6625,153.7961 Q14.7938,153.8273 14.9031,153.8992 Z " fill="#000000"/><text fill="#000000" font-family="sans-serif" font-size="2.8" lengthAdjust="spacing" textLength="28.8" x="18.45" y="155.8836">AcceptOffersController</text><line style="stroke:#181818;stroke-width:0.10000000000000002;" x1="1.6" x2="57.6" y1="157.9242" y2="157.9242"/><text fill="#000000" font-family="sans-serif" font-size="2.8" lengthAdjust="spacing" textLength="43.2" x="2.6" y="161.7457">-EditAndSortLists editAndSortLists</text><line style="stroke:#181818;stroke-width:0.10000000000000002;" x1="1.6" x2="57.6" y1="163.2484" y2="163.2484"/><text fill="#000000" font-family="sans-serif" font-size="2.8" lengthAdjust="spacing" textLength="47.4" x="2.6" y="167.0699">+getPropertiesByCurrentAgent(email)</text><text fill="#000000" font-family="sans-serif" font-size="2.8" lengthAdjust="spacing" textLength="42.8" x="2.6" y="170.7941">+getOrdersToXProperty(property)</text><text fill="#000000" font-family="sans-serif" font-size="2.8" lengthAdjust="spacing" textLength="54" x="2.6" y="174.5184">+acceptOffer(property, listOfOrders, index)</text><text fill="#000000" font-family="sans-serif" font-size="2.8" lengthAdjust="spacing" textLength="25.6" x="2.6" y="178.2426">+declineOffer(index)</text></g><!--class Repositories--><g id="elem_Repositories"><rect codeLine="100" fill="#F1F1F1" height="24.4969" id="Repositories" rx="0.5" ry="0.5" style="stroke:#181818;stroke-width:0.10000000000000002;" width="52.8" x="83.6" y="153.4242"/><ellipse cx="101.25" cy="156.6242" fill="#ADD1B2" rx="2.2" ry="2.2" style="stroke:#181818;stroke-width:0.20000000000000004;"/><path d="M101.8031,155.7992 Q101.8344,155.7555 101.8719,155.7336 Q101.9094,155.7117 101.9531,155.7117 Q102.0281,155.7117 102.075,155.7648 Q102.1219,155.8148 102.1219,155.9367 L102.1219,156.2273 Q102.1219,156.3492 102.075,156.4023 Q102.0281,156.4555 101.9531,156.4555 Q101.8844,156.4555 101.8438,156.4148 Q101.8031,156.3773 101.7813,156.2742 Q101.7719,156.2023 101.7344,156.1648 Q101.6688,156.0898 101.5469,156.0461 Q101.425,156.0023 101.3,156.0023 Q101.1469,156.0023 101.0188,156.068 Q100.8938,156.1336 100.7938,156.2836 Q100.6969,156.4336 100.6969,156.6398 L100.6969,156.8586 Q100.6969,157.1055 100.875,157.2711 Q101.0531,157.4336 101.3719,157.4336 Q101.5594,157.4336 101.6906,157.3836 Q101.7688,157.3523 101.8531,157.2648 Q101.9063,157.2117 101.9344,157.1961 Q101.9656,157.1805 102.0063,157.1805 Q102.0719,157.1805 102.1219,157.2336 Q102.175,157.2836 102.175,157.3523 Q102.175,157.4211 102.1063,157.5023 Q102.0063,157.618 101.8469,157.6836 Q101.6313,157.7742 101.3719,157.7742 Q101.0688,157.7742 100.8281,157.6492 Q100.6313,157.5492 100.4938,157.3367 Q100.3563,157.1211 100.3563,156.8648 L100.3563,156.6336 Q100.3563,156.368 100.4781,156.1398 Q100.6031,155.9086 100.8219,155.7867 Q101.0406,155.6617 101.2875,155.6617 Q101.4344,155.6617 101.5625,155.6961 Q101.6938,155.7273 101.8031,155.7992 Z " fill="#000000"/><text fill="#000000" font-family="sans-serif" font-size="2.8" lengthAdjust="spacing" textLength="15.8" x="105.35" y="157.7836">Repositories</text><line style="stroke:#181818;stroke-width:0.10000000000000002;" x1="83.8" x2="136.2" y1="159.8242" y2="159.8242"/><text fill="#000000" font-family="sans-serif" font-size="2.8" lengthAdjust="spacing" textLength="28.2" x="84.8" y="163.6457">-Repositories instance</text><text fill="#000000" font-family="sans-serif" font-size="2.8" lengthAdjust="spacing" textLength="50.4" x="84.8" y="167.3699">-PropertyRepository propertyRepository</text><line style="stroke:#181818;stroke-width:0.10000000000000002;" x1="83.8" x2="136.2" y1="168.8727" y2="168.8727"/><text fill="#000000" font-family="sans-serif" font-size="2.8" lengthAdjust="spacing" textLength="18.2" x="84.8" y="172.6941">+getInstance()</text><text fill="#000000" font-family="sans-serif" font-size="2.8" lengthAdjust="spacing" textLength="32" x="84.8" y="176.4184">+getPropertyRepository()</text></g><!--link Agent to AcceptOffersUI--><g id="link_Agent_AcceptOffersUI"><path codeLine="109" d="M90.302,67.3522 C86.008,81.9162 81.01,98.8702 77.648,110.2702 " fill="none" id="Agent-to-AcceptOffersUI" style="stroke:#181818;stroke-width:0.20000000000000004;"/><polygon fill="#181818" points="77.348,111.2862,78.6241,109.7857,77.6306,110.327,77.0894,109.3335,77.348,111.2862" style="stroke:#181818;stroke-width:0.20000000000000004;"/><text fill="#000000" font-family="sans-serif" font-size="2.6" lengthAdjust="spacing" textLength="9.2" x="88.6" y="88.7299">asks for</text><text fill="#000000" font-family="sans-serif" font-size="2.6" lengthAdjust="spacing" textLength="16.4" x="85" y="92.1881">property offers</text></g><!--link AcceptOffersUI to Agent--><g id="link_AcceptOffersUI_Agent"><path codeLine="110" d="M67.028,111.2802 C63.728,103.8482 61.014,94.1582 63.8,85.7242 C67.48,74.5802 74.922,63.9202 82,55.5602 " fill="none" id="AcceptOffersUI-to-Agent" style="stroke:#181818;stroke-width:0.20000000000000004;"/><polygon fill="#181818" points="82.682,54.7582,80.905,55.6081,82.0329,55.5189,82.1221,56.6467,82.682,54.7582" style="stroke:#181818;stroke-width:0.20000000000000004;"/><text fill="#000000" font-family="sans-serif" font-size="2.6" lengthAdjust="spacing" textLength="17" x="64" y="88.7299">send the list of</text><text fill="#000000" font-family="sans-serif" font-size="2.6" lengthAdjust="spacing" textLength="16.4" x="64.3" y="92.1881">property offers</text></g><!--link Agent to AcceptOffersUI--><g id="link_Agent_AcceptOffersUI"><path codeLine="112" d="M105.97,67.3682 C106.808,75.8462 106.416,84.9742 103.2,92.9242 C100.484,99.6382 95.496,105.6922 90.39,110.5982 " fill="none" id="Agent-to-AcceptOffersUI-1" style="stroke:#181818;stroke-width:0.20000000000000004;"/><polygon fill="#181818" points="89.636,111.3122,91.4924,110.6536,90.3614,110.6239,90.3911,109.4929,89.636,111.3122" style="stroke:#181818;stroke-width:0.20000000000000004;"/><text fill="#000000" font-family="sans-serif" font-size="2.6" lengthAdjust="spacing" textLength="20.4" x="105.4" y="88.7299">sends the answer</text><text fill="#000000" font-family="sans-serif" font-size="2.6" lengthAdjust="spacing" textLength="14.2" x="108.5" y="92.1881">to each offer</text></g><!--link AcceptOffersUI to AcceptOffersController--><g id="link_AcceptOffersUI_AcceptOffersController"><path codeLine="113" d="M61.074,135.7302 C56.092,140.4302 50.328,145.8682 45.106,150.7962 " fill="none" id="AcceptOffersUI-to-AcceptOffersController" style="stroke:#181818;stroke-width:0.20000000000000004;"/><polygon fill="#181818" points="44.338,151.5182,46.1971,150.8671,45.0662,150.8329,45.1005,149.702,44.338,151.5182" style="stroke:#181818;stroke-width:0.20000000000000004;"/><text fill="#000000" font-family="sans-serif" font-size="2.6" lengthAdjust="spacing" textLength="8.6" x="54.6" y="144.7299">creates</text></g><!--link AcceptOffersController to Repositories--><g id="link_AcceptOffersController_Repositories"><path codeLine="114" d="M57.832,165.6242 C65.844,165.6242 74.552,165.6242 82.518,165.6242 " fill="none" id="AcceptOffersController-to-Repositories" style="stroke:#181818;stroke-width:0.20000000000000004;"/><polygon fill="#181818" points="83.586,165.6242,81.786,164.8242,82.586,165.6242,81.786,166.4242,83.586,165.6242" style="stroke:#181818;stroke-width:0.20000000000000004;"/><text fill="#000000" font-family="sans-serif" font-size="2.6" lengthAdjust="spacing" textLength="18.4" x="61.5" y="164.2299">gets instance of</text></g><!--link Repositories to OrderRepository--><g id="link_Repositories_OrderRepository"><path codeLine="115" d="M99.812,177.8602 C97.942,180.3702 96.108,183.0642 94.6,185.7242 C92.718,189.0442 91.036,192.7882 89.614,196.3682 " fill="none" id="Repositories-to-OrderRepository" style="stroke:#181818;stroke-width:0.20000000000000004;"/><polygon fill="#181818" points="89.218,197.3722,90.6205,195.9891,89.5835,196.4414,89.1312,195.4044,89.218,197.3722" style="stroke:#181818;stroke-width:0.20000000000000004;"/><text fill="#000000" font-family="sans-serif" font-size="2.6" lengthAdjust="spacing" textLength="9.8" x="94.8" y="188.7299">contains</text></g><!--link Repositories to PropertySoldRepository--><g id="link_Repositories_PropertySoldRepository"><path codeLine="116" d="M110.46,177.8382 C111.51,205.2462 114.078,272.3282 115.228,302.3602 " fill="none" id="Repositories-to-PropertySoldRepository" style="stroke:#181818;stroke-width:0.20000000000000004;"/><polygon fill="#181818" points="115.268,303.4122,116.0004,301.5837,115.2308,302.4129,114.4016,301.6432,115.268,303.4122" style="stroke:#181818;stroke-width:0.20000000000000004;"/><text fill="#000000" font-family="sans-serif" font-size="2.6" lengthAdjust="spacing" textLength="9.8" x="113" y="238.2299">contains</text></g><!--link Repositories to PropertyAnnouncementRepository--><g id="link_Repositories_PropertyAnnouncementRepository"><path codeLine="117" d="M136.408,167.8642 C165.594,170.5582 210.318,176.1222 224.2,185.7242 C246.792,201.3522 258.866,214.0262 252.4,240.7242 C245.952,267.3462 239.92,273.0942 224.2,295.5242 C222.992,297.2482 221.654,298.9782 220.26,300.6662 " fill="none" id="Repositories-to-PropertyAnnouncementRepository" style="stroke:#181818;stroke-width:0.20000000000000004;"/><polygon fill="#181818" points="219.572,301.4922,221.3405,300.6248,220.2136,300.7252,220.1132,299.5983,219.572,301.4922" style="stroke:#181818;stroke-width:0.20000000000000004;"/><text fill="#000000" font-family="sans-serif" font-size="2.6" lengthAdjust="spacing" textLength="9.8" x="253.8" y="238.2299">contains</text></g><!--link AcceptOffersController to OrderRepository--><g id="link_AcceptOffersController_OrderRepository"><path codeLine="119" d="M49.736,179.7502 C52.354,181.7022 54.97,183.7262 57.4,185.7242 C61.532,189.1222 65.826,192.9882 69.748,196.6682 " fill="none" id="AcceptOffersController-to-OrderRepository" style="stroke:#181818;stroke-width:0.20000000000000004;"/><polygon fill="#181818" points="70.528,197.4022,69.7617,195.5876,69.7984,196.7184,68.6676,196.755,70.528,197.4022" style="stroke:#181818;stroke-width:0.20000000000000004;"/><text fill="#000000" font-family="sans-serif" font-size="2.6" lengthAdjust="spacing" textLength="21.6" x="61.6" y="188.7299">gets order list from</text></g><!--link AcceptOffersController to PropertyAnnouncementRepository--><g id="link_AcceptOffersController_PropertyAnnouncementRepository"><path codeLine="120" d="M57.844,173.8142 C65.114,175.8062 72.934,177.8942 80.2,179.7242 C91.784,182.6402 95.87,180.0842 106.4,185.7242 C164.764,216.9822 188.348,227.4582 214.4,288.3242 C216.066,292.2162 215.708,296.4742 214.418,300.5002 " fill="none" id="AcceptOffersController-to-PropertyAnnouncementRepository" style="stroke:#181818;stroke-width:0.20000000000000004;"/><polygon fill="#181818" points="214.09,301.4622,215.4286,300.0172,214.4131,300.5158,213.9144,299.5003,214.09,301.4622" style="stroke:#181818;stroke-width:0.20000000000000004;"/><text fill="#000000" font-family="sans-serif" font-size="2.6" lengthAdjust="spacing" textLength="32.8" x="186.8" y="238.2299">gets announcement list from</text></g><!--link AcceptOffersController to PropertySoldRepository--><g id="link_AcceptOffersController_PropertySoldRepository"><path codeLine="121" d="M24.342,179.7482 C22.74,184.6582 21.196,190.2662 20.4,195.5242 C18.272,209.5862 16.894,213.7402 20.4,227.5242 C27.234,254.3922 30.518,262.7982 50.2,282.3242 C62.684,294.7102 80.458,303.8242 94.356,309.6422 " fill="none" id="AcceptOffersController-to-PropertySoldRepository" style="stroke:#181818;stroke-width:0.20000000000000004;"/><polygon fill="#181818" points="95.35,310.0562,93.994,308.6275,94.4263,309.673,93.3808,310.1054,95.35,310.0562" style="stroke:#181818;stroke-width:0.20000000000000004;"/><text fill="#000000" font-family="sans-serif" font-size="2.6" lengthAdjust="spacing" textLength="10.6" x="29.6" y="236.5299">gets sold</text><text fill="#000000" font-family="sans-serif" font-size="2.6" lengthAdjust="spacing" textLength="21.4" x="24.2" y="239.9881">properties list from</text></g><!--link AcceptOffersController to Client--><g id="link_AcceptOffersController_Client"><path codeLine="123" d="M26.776,179.7562 C26.596,183.0182 26.81,186.4402 27.8,189.5242 C28.352,191.2442 29.096,192.9442 29.958,194.5902 " fill="none" id="AcceptOffersController-to-Client" style="stroke:#181818;stroke-width:0.20000000000000004;"/><polygon fill="#181818" points="30.45,195.4982,30.3002,193.5341,29.9756,194.6179,28.8918,194.2933,30.45,195.4982" style="stroke:#181818;stroke-width:0.20000000000000004;"/><text fill="#000000" font-family="sans-serif" font-size="2.6" lengthAdjust="spacing" textLength="28.4" x="28" y="188.7299">notify the client via email</text></g><!--link Client to Order--><g id="link_Client_Order"><path codeLine="124" d="M50.392,227.5782 C53.738,235.1622 57.694,244.1302 60.86,251.3102 " fill="none" id="Client-to-Order" style="stroke:#181818;stroke-width:0.20000000000000004;"/><polygon fill="#181818" points="61.282,252.2662,61.2831,250.2964,60.8764,251.3522,59.8207,250.9454,61.282,252.2662" style="stroke:#181818;stroke-width:0.20000000000000004;"/><text fill="#000000" font-family="sans-serif" font-size="2.6" lengthAdjust="spacing" textLength="7.6" x="58.4" y="236.5299">placed</text><text fill="#000000" font-family="sans-serif" font-size="2.6" lengthAdjust="spacing" textLength="12.4" x="56" y="239.9881">order(s) on</text></g><!--link Order to Property--><g id="link_Order_Property"><path codeLine="126" d="M79.428,264.5242 C91.876,264.5242 110.99,264.5242 125.718,264.5242 " fill="none" id="Order-to-Property" style="stroke:#181818;stroke-width:0.20000000000000004;"/><polygon fill="#181818" points="126.77,264.5242,124.97,263.7242,125.77,264.5242,124.97,265.3242,126.77,264.5242" style="stroke:#181818;stroke-width:0.20000000000000004;"/><text fill="#000000" font-family="sans-serif" font-size="2.6" lengthAdjust="spacing" textLength="10.6" x="97.8" y="263.1299">regarding</text></g><!--link Agent to Property--><g id="link_Agent_Property"><path codeLine="128" d="M114.916,44.4682 C128.928,50.8002 147,62.3042 147,79.5242 C147,79.5242 147,79.5242 147,211.7242 C147,222.9802 147,235.5922 147,245.6442 " fill="none" id="Agent-to-Property" style="stroke:#181818;stroke-width:0.20000000000000004;"/><polygon fill="#181818" points="147,246.6702,147.8,244.8702,147,245.6702,146.2,244.8702,147,246.6702" style="stroke:#181818;stroke-width:0.20000000000000004;"/><text fill="#000000" font-family="sans-serif" font-size="2.6" lengthAdjust="spacing" textLength="19.6" x="147.2" y="124.6299">is responsible for</text></g><!--link Property to PropertyAnnouncementRepository--><g id="link_Property_PropertyAnnouncementRepository"><path codeLine="130" d="M155.022,282.3442 C157.686,286.9922 160.97,291.7562 164.8,295.5242 C168.694,299.3542 173.396,302.7222 178.172,305.5922 " fill="none" id="Property-to-PropertyAnnouncementRepository" style="stroke:#181818;stroke-width:0.20000000000000004;"/><polygon fill="#181818" points="179.064,306.1222,177.9282,304.5129,178.2052,305.6098,177.1083,305.8869,179.064,306.1222" style="stroke:#181818;stroke-width:0.20000000000000004;"/><text fill="#000000" font-family="sans-serif" font-size="2.6" lengthAdjust="spacing" textLength="15.4" x="165" y="293.0299">removed from</text></g><!--link PropertyAnnouncementRepository to Property--><g id="link_PropertyAnnouncementRepository_Property"><path codeLine="133" d="M193.092,301.5222 C189.618,297.0142 185.584,292.2622 181.4,288.3242 C177.378,284.5402 172.7,280.9162 168.114,277.6922 " fill="none" id="PropertyAnnouncementRepository-to-Property" style="stroke:#181818;stroke-width:0.20000000000000004;"/><polygon fill="#181818" points="167.258,277.0942,168.2774,278.7797,168.0784,277.666,169.1922,277.467,167.258,277.0942" style="stroke:#181818;stroke-width:0.20000000000000004;"/><text fill="#000000" font-family="sans-serif" font-size="2.6" lengthAdjust="spacing" textLength="9.8" x="195.3" y="291.3299">contains</text><text fill="#000000" font-family="sans-serif" font-size="2.6" lengthAdjust="spacing" textLength="24.8" x="187.8" y="294.7881">announced properties</text></g><!--link Property to PropertySoldRepository--><g id="link_Property_PropertySoldRepository"><path codeLine="131" d="M126.77,280.4462 C124.558,282.8802 122.55,285.5242 121,288.3242 C118.64,292.5862 117.318,297.6902 116.586,302.4202 " fill="none" id="Property-to-PropertySoldRepository" style="stroke:#181818;stroke-width:0.20000000000000004;"/><polygon fill="#181818" points="116.438,303.4222,117.4919,301.7581,116.5838,302.4329,115.909,301.5248,116.438,303.4222" style="stroke:#181818;stroke-width:0.20000000000000004;"/><text fill="#000000" font-family="sans-serif" font-size="2.6" lengthAdjust="spacing" textLength="10" x="121.2" y="293.0299">added to</text></g><!--link PropertySoldRepository to Property--><g id="link_PropertySoldRepository_Property"><path codeLine="134" d="M126.894,303.4182 C128.756,300.8542 130.6,298.1542 132.2,295.5242 C134.536,291.6842 136.786,287.4182 138.796,283.3162 " fill="none" id="PropertySoldRepository-to-Property" style="stroke:#181818;stroke-width:0.20000000000000004;"/><polygon fill="#181818" points="139.248,282.3882,137.742,283.6578,138.8111,283.2877,139.1812,284.3569,139.248,282.3882" style="stroke:#181818;stroke-width:0.20000000000000004;"/><text fill="#000000" font-family="sans-serif" font-size="2.6" lengthAdjust="spacing" textLength="9.8" x="139.6" y="291.3299">contains</text><text fill="#000000" font-family="sans-serif" font-size="2.6" lengthAdjust="spacing" textLength="17" x="136" y="294.7881">sold properties</text></g><!--link OrderRepository to Order--><g id="link_OrderRepository_Order"><path codeLine="135" d="M79.824,225.6822 C77.112,233.6042 73.74,243.4602 71.08,251.2342 " fill="none" id="OrderRepository-to-Order" style="stroke:#181818;stroke-width:0.20000000000000004;"/><polygon fill="#181818" points="70.726,252.2682,72.0646,250.8232,71.0491,251.3218,70.5504,250.3063,70.726,252.2682" style="stroke:#181818;stroke-width:0.20000000000000004;"/><text fill="#000000" font-family="sans-serif" font-size="2.6" lengthAdjust="spacing" textLength="9.8" x="77" y="238.2299">contains</text></g><!--SRC=[fLPBRnit4BxpLypDCXm1oLKe32YE2nWeag9gW1m263GvAx7cabkIihC9-jyx97Uvr4fo4iGNBpclRxvvK1V-KPcEEzv2QuqLEsTRXE3so2P9nyKZt-8cz1h1eGZSR7Mju7TSscTbjj1mxP5TJ2Aj38Q-Gx0kM5RP2CszNuVWrCC-u9smPgE-8hncBAX0SJvkNhzv0siXi0lmeMdGULZ2JRI2TufloGTZ5ngR0C62KzjT0AaYEcKDIzxXJsSxTA5V6sFtHc2B9lo5dVKgMDV3DxRyG_dmswXs3RnIzEp-_fvTAN_RTg5VNB8hBkMY6tGlsVA9QoLvmD6yabqvREqJBkp3FmI8pbiCWvf2Jxx-OpE86wlbYz0yAKmkVWNRMImVd4Ht0aIwlwOAqhyXSWoNpbMif3RUdc8WAHn7Z74sr0VKFa8hOlwsvKgpvOWTHknisMZB0_2MYXIAaGyKVFAvtfABoYTcRyF9y1RBeTjPW-_txGEwSaUPEVI-ycuTMIZoASIe6q-1VvcPTi-IBUcFNUsuJqaiQWoPXFS4O94_imfz1vlruhVGXAdcw2PnKYMKKuWGEf9tD5Wp7DuAnVK6nTwfqC-4XtISOY2cGT4f0Bg62omzEa684rsguP0NWRQ2fm4SX9BwXzD0GKEB1GJ10K7Pk6BjyDyz-e2Iggm4iaGVtT4UcNhdY9Ey5l9M-7WNkQblRYn5i5fJQudWTEvOjpUHtfORMcMv4z_s9yPZIJXCM6kTTNwtxbFHIhqTH-8Cb2am8RgLAgoDt51zeea7d5raN0VJ-BQ_sJj71AKcNbHjaz7yRJ-TccW-OIZNhsZrUhhBXgz06ObVI5UYY3ivAm-N9Pao_8GbidfmLYRNSfhCQbTqHrSblRl1Rd6mUohDN5cM1pSEqFMym2lW_j53OzrdCqO2cwHiffgiewSLU3GImWuJ4wH-R5jYpYDcOv-ikV7FI87fcK4kTjdsPDZJFRW2GICIy11gfK2c1qIlW6YQ-AQ0x40UOyrtDGKXXvniZdNFl34_OdBcvQnCNqZg66FAAqrHhadS2Yyu-2wAvAz-j7_AxH4VoLryQ4kdH3ucbsTzajEyfbTWR51DdnedlsRmfFYmTOTLNkf78JjD6vRY9L8M_X9eTx8ih92IeiCjTv9sRDsqbLnvKg7Nm7ZrG3-VQ5GOA-8VAcb-iMLEzQJf4M7qM991_67t7Uypi6FtV3PZyIHCZBCpySuwYIMhxUUDLnDU6lT_]--></g></svg>