<?xml version="1.0" encoding="us-ascii" standalone="no"?><svg xmlns="http://www.w3.org/2000/svg" xmlns:xlink="http://www.w3.org/1999/xlink" contentStyleType="text/css" height="759px" preserveAspectRatio="none" style="width:1205px;height:759px;background:#FFFFFF;" version="1.1" viewBox="0 0 1205 759" width="1205px" zoomAndPan="magnify"><defs/><g><text fill="#000000" font-family="sans-serif" font-size="14" font-weight="bold" lengthAdjust="spacing" textLength="279" x="462.25" y="30.1074">User Story 005 - Sequence Diagram (SD)</text><rect fill="#FFFFFF" height="533.7324" style="stroke:#181818;stroke-width:1.0;" width="10" x="69.5" y="133.2422"/><rect fill="#FFFFFF" height="31.291" style="stroke:#181818;stroke-width:1.0;" width="10" x="272.5" y="156.5332"/><rect fill="#FFFFFF" height="137.4941" style="stroke:#181818;stroke-width:1.0;" width="10" x="391.5" y="187.8242"/><rect fill="#FFFFFF" height="83.1641" style="stroke:#181818;stroke-width:1.0;" width="10" x="391.5" y="408.4824"/><rect fill="#FFFFFF" height="31.291" style="stroke:#181818;stroke-width:1.0;" width="10" x="684.5" y="262.7363"/><rect fill="#FFFFFF" height="83.1641" style="stroke:#181818;stroke-width:1.0;" width="10" x="684.5" y="491.6465"/><rect fill="#FFFFFF" height="83.1641" style="stroke:#181818;stroke-width:1.0;" width="10" x="984.5" y="574.8105"/><line style="stroke:#181818;stroke-width:0.5;stroke-dasharray:5.0,5.0;" x1="74" x2="74" y1="123.2422" y2="675.9746"/><line style="stroke:#181818;stroke-width:0.5;stroke-dasharray:5.0,5.0;" x1="277" x2="277" y1="123.2422" y2="675.9746"/><line style="stroke:#181818;stroke-width:0.5;stroke-dasharray:5.0,5.0;" x1="396" x2="396" y1="123.2422" y2="675.9746"/><line style="stroke:#181818;stroke-width:0.5;stroke-dasharray:5.0,5.0;" x1="689" x2="689" y1="227.6348" y2="675.9746"/><line style="stroke:#181818;stroke-width:0.5;stroke-dasharray:5.0,5.0;" x1="989.5" x2="989.5" y1="123.2422" y2="675.9746"/><line style="stroke:#181818;stroke-width:0.5;stroke-dasharray:5.0,5.0;" x1="1129.5" x2="1129.5" y1="123.2422" y2="675.9746"/><text fill="#000000" font-family="sans-serif" font-size="14" lengthAdjust="spacing" textLength="133" x="5" y="119.7285">System Administrator</text><ellipse cx="74.5" cy="53.1211" fill="#E3E3E3" rx="8" ry="8" style="stroke:#181818;stroke-width:0.5;"/><path d="M74.5,61.1211 L74.5,88.1211 M61.5,69.1211 L87.5,69.1211 M74.5,88.1211 L61.5,103.1211 M74.5,88.1211 L87.5,103.1211 " fill="none" style="stroke:#181818;stroke-width:0.5;"/><text fill="#000000" font-family="sans-serif" font-size="14" lengthAdjust="spacing" textLength="133" x="5" y="690.082">System Administrator</text><ellipse cx="74.5" cy="702.0957" fill="#E3E3E3" rx="8" ry="8" style="stroke:#181818;stroke-width:0.5;"/><path d="M74.5,710.0957 L74.5,737.0957 M61.5,718.0957 L87.5,718.0957 M74.5,737.0957 L61.5,752.0957 M74.5,737.0957 L87.5,752.0957 " fill="none" style="stroke:#181818;stroke-width:0.5;"/><rect fill="#E3E3E3" height="32.6211" rx="2.5" ry="2.5" style="stroke:#181818;stroke-width:0.5;" width="69" x="243" y="89.6211"/><text fill="#000000" font-family="sans-serif" font-size="14" lengthAdjust="spacing" textLength="55" x="250" y="111.7285">:AdminUI</text><rect fill="#E3E3E3" height="32.6211" rx="2.5" ry="2.5" style="stroke:#181818;stroke-width:0.5;" width="69" x="243" y="674.9746"/><text fill="#000000" font-family="sans-serif" font-size="14" lengthAdjust="spacing" textLength="55" x="250" y="697.082">:AdminUI</text><rect fill="#E3E3E3" height="32.6211" rx="2.5" ry="2.5" style="stroke:#181818;stroke-width:0.5;" width="107" x="343" y="89.6211"/><text fill="#000000" font-family="sans-serif" font-size="14" lengthAdjust="spacing" textLength="93" x="350" y="111.7285">:CreateStoreUI</text><rect fill="#E3E3E3" height="32.6211" rx="2.5" ry="2.5" style="stroke:#181818;stroke-width:0.5;" width="107" x="343" y="674.9746"/><text fill="#000000" font-family="sans-serif" font-size="14" lengthAdjust="spacing" textLength="93" x="350" y="697.082">:CreateStoreUI</text><rect fill="#E3E3E3" height="32.6211" rx="2.5" ry="2.5" style="stroke:#181818;stroke-width:0.5;" width="157" x="611" y="674.9746"/><text fill="#000000" font-family="sans-serif" font-size="14" lengthAdjust="spacing" textLength="143" x="618" y="697.082">:CreateStoreController</text><rect fill="#E3E3E3" height="32.6211" rx="2.5" ry="2.5" style="stroke:#181818;stroke-width:0.5;" width="120" x="929.5" y="89.6211"/><text fill="#000000" font-family="sans-serif" font-size="14" lengthAdjust="spacing" textLength="106" x="936.5" y="111.7285">:StoreRepository</text><rect fill="#E3E3E3" height="32.6211" rx="2.5" ry="2.5" style="stroke:#181818;stroke-width:0.5;" width="120" x="929.5" y="674.9746"/><text fill="#000000" font-family="sans-serif" font-size="14" lengthAdjust="spacing" textLength="106" x="936.5" y="697.082">:StoreRepository</text><rect fill="#E3E3E3" height="32.6211" rx="2.5" ry="2.5" style="stroke:#181818;stroke-width:0.5;" width="140" x="1059.5" y="89.6211"/><text fill="#000000" font-family="sans-serif" font-size="14" lengthAdjust="spacing" textLength="126" x="1066.5" y="111.7285">:System Admistrator</text><rect fill="#E3E3E3" height="32.6211" rx="2.5" ry="2.5" style="stroke:#181818;stroke-width:0.5;" width="140" x="1059.5" y="674.9746"/><text fill="#000000" font-family="sans-serif" font-size="14" lengthAdjust="spacing" textLength="126" x="1066.5" y="697.082">:System Admistrator</text><rect fill="#FFFFFF" height="533.7324" style="stroke:#181818;stroke-width:1.0;" width="10" x="69.5" y="133.2422"/><rect fill="#FFFFFF" height="31.291" style="stroke:#181818;stroke-width:1.0;" width="10" x="272.5" y="156.5332"/><rect fill="#FFFFFF" height="137.4941" style="stroke:#181818;stroke-width:1.0;" width="10" x="391.5" y="187.8242"/><rect fill="#FFFFFF" height="83.1641" style="stroke:#181818;stroke-width:1.0;" width="10" x="391.5" y="408.4824"/><rect fill="#FFFFFF" height="31.291" style="stroke:#181818;stroke-width:1.0;" width="10" x="684.5" y="262.7363"/><rect fill="#FFFFFF" height="83.1641" style="stroke:#181818;stroke-width:1.0;" width="10" x="684.5" y="491.6465"/><rect fill="#FFFFFF" height="83.1641" style="stroke:#181818;stroke-width:1.0;" width="10" x="984.5" y="574.8105"/><polygon fill="#181818" points="260.5,152.5332,270.5,156.5332,260.5,160.5332,264.5,156.5332" style="stroke:#181818;stroke-width:1.0;"/><line style="stroke:#181818;stroke-width:1.0;" x1="79.5" x2="266.5" y1="156.5332" y2="156.5332"/><text fill="#000000" font-family="sans-serif" font-size="13" font-weight="bold" lengthAdjust="spacing" textLength="7" x="86.5" y="151.2705">1</text><text fill="#000000" font-family="sans-serif" font-size="13" lengthAdjust="spacing" textLength="163" x="97.5" y="151.2705">Requests to register a Store</text><polygon fill="#181818" points="379.5,183.8242,389.5,187.8242,379.5,191.8242,383.5,187.8242" style="stroke:#181818;stroke-width:1.0;"/><line style="stroke:#181818;stroke-width:1.0;" x1="277.5" x2="385.5" y1="187.8242" y2="187.8242"/><text fill="#000000" font-family="sans-serif" font-size="13" font-weight="bold" lengthAdjust="spacing" textLength="7" x="284.5" y="182.5615">2</text><text fill="#000000" font-family="sans-serif" font-size="13" lengthAdjust="spacing" textLength="4" x="295.5" y="182.5615">&#160;</text><polygon fill="#181818" points="599,215.1152,609,219.1152,599,223.1152,603,219.1152" style="stroke:#181818;stroke-width:1.0;"/><line style="stroke:#181818;stroke-width:1.0;" x1="401.5" x2="605" y1="219.1152" y2="219.1152"/><text fill="#000000" font-family="sans-serif" font-size="13" font-weight="bold" lengthAdjust="spacing" textLength="7" x="408.5" y="213.8525">3</text><text fill="#000000" font-family="sans-serif" font-size="13" lengthAdjust="spacing" textLength="36" x="419.5" y="213.8525">create</text><rect fill="#E3E3E3" height="32.6211" rx="2.5" ry="2.5" style="stroke:#181818;stroke-width:0.5;" width="157" x="611" y="195.8242"/><text fill="#000000" font-family="sans-serif" font-size="14" lengthAdjust="spacing" textLength="143" x="618" y="217.9316">:CreateStoreController</text><polygon fill="#181818" points="672.5,258.7363,682.5,262.7363,672.5,266.7363,676.5,262.7363" style="stroke:#181818;stroke-width:1.0;"/><line style="stroke:#181818;stroke-width:1.0;" x1="401.5" x2="678.5" y1="262.7363" y2="262.7363"/><text fill="#000000" font-family="sans-serif" font-size="13" font-weight="bold" lengthAdjust="spacing" textLength="7" x="408.5" y="257.4736">4</text><text fill="#000000" font-family="sans-serif" font-size="13" lengthAdjust="spacing" textLength="82" x="419.5" y="257.4736">registerStore()</text><polygon fill="#181818" points="412.5,290.0273,402.5,294.0273,412.5,298.0273,408.5,294.0273" style="stroke:#181818;stroke-width:1.0;"/><line style="stroke:#181818;stroke-width:1.0;stroke-dasharray:2.0,2.0;" x1="406.5" x2="688.5" y1="294.0273" y2="294.0273"/><text fill="#000000" font-family="sans-serif" font-size="13" font-weight="bold" lengthAdjust="spacing" textLength="7" x="418.5" y="288.7646">5</text><text fill="#000000" font-family="sans-serif" font-size="13" lengthAdjust="spacing" textLength="79" x="429.5" y="288.7646">requests data</text><polygon fill="#181818" points="90.5,321.3184,80.5,325.3184,90.5,329.3184,86.5,325.3184" style="stroke:#181818;stroke-width:1.0;"/><line style="stroke:#181818;stroke-width:1.0;stroke-dasharray:2.0,2.0;" x1="84.5" x2="395.5" y1="325.3184" y2="325.3184"/><text fill="#000000" font-family="sans-serif" font-size="13" font-weight="bold" lengthAdjust="spacing" textLength="7" x="96.5" y="320.0557">6</text><text fill="#000000" font-family="sans-serif" font-size="13" lengthAdjust="spacing" textLength="79" x="107.5" y="320.0557">requests data</text><polygon fill="#181818" points="379.5,404.4824,389.5,408.4824,379.5,412.4824,383.5,408.4824" style="stroke:#181818;stroke-width:1.0;"/><line style="stroke:#181818;stroke-width:1.0;" x1="79.5" x2="385.5" y1="408.4824" y2="408.4824"/><text fill="#000000" font-family="sans-serif" font-size="13" font-weight="bold" lengthAdjust="spacing" textLength="7" x="86.5" y="377.2832">7</text><text fill="#000000" font-family="sans-serif" font-size="13" lengthAdjust="spacing" textLength="282" x="97.5" y="351.3467">types requested data (storeName, storeAddress,</text><text fill="#000000" font-family="sans-serif" font-size="13" lengthAdjust="spacing" textLength="249" x="101.5" y="368.6377">phoneNumber, id , taxIdentificationNumber,</text><text fill="#000000" font-family="sans-serif" font-size="13" lengthAdjust="spacing" textLength="248" x="101.5" y="385.9287">businessLicense, bankAccountInformation,</text><text fill="#000000" font-family="sans-serif" font-size="13" lengthAdjust="spacing" textLength="145" x="101.5" y="403.2197">products, website, email)</text><polygon fill="#181818" points="672.5,487.6465,682.5,491.6465,672.5,495.6465,676.5,491.6465" style="stroke:#181818;stroke-width:1.0;"/><line style="stroke:#181818;stroke-width:1.0;" x1="396.5" x2="678.5" y1="491.6465" y2="491.6465"/><text fill="#000000" font-family="sans-serif" font-size="13" font-weight="bold" lengthAdjust="spacing" textLength="7" x="403.5" y="460.4473">8</text><text fill="#000000" font-family="sans-serif" font-size="13" lengthAdjust="spacing" textLength="242" x="414.5" y="434.5107">sendStoreData(storeName, storeAddress,</text><text fill="#000000" font-family="sans-serif" font-size="13" lengthAdjust="spacing" textLength="249" x="418.5" y="451.8018">phoneNumber, id , taxIdentificationNumber,</text><text fill="#000000" font-family="sans-serif" font-size="13" lengthAdjust="spacing" textLength="248" x="418.5" y="469.0928">businessLicense, bankAccountInformation,</text><text fill="#000000" font-family="sans-serif" font-size="13" lengthAdjust="spacing" textLength="145" x="418.5" y="486.3838">products, website, email)</text><polygon fill="#181818" points="972.5,570.8105,982.5,574.8105,972.5,578.8105,976.5,574.8105" style="stroke:#181818;stroke-width:1.0;"/><line style="stroke:#181818;stroke-width:1.0;" x1="689.5" x2="978.5" y1="574.8105" y2="574.8105"/><text fill="#000000" font-family="sans-serif" font-size="13" font-weight="bold" lengthAdjust="spacing" textLength="7" x="696.5" y="543.6113">9</text><text fill="#000000" font-family="sans-serif" font-size="13" lengthAdjust="spacing" textLength="243" x="707.5" y="517.6748">verifyStoreData(storeName, storeAddress,</text><text fill="#000000" font-family="sans-serif" font-size="13" lengthAdjust="spacing" textLength="249" x="711.5" y="534.9658">phoneNumber, id , taxIdentificationNumber,</text><text fill="#000000" font-family="sans-serif" font-size="13" lengthAdjust="spacing" textLength="248" x="711.5" y="552.2568">businessLicense, bankAccountInformation,</text><text fill="#000000" font-family="sans-serif" font-size="13" lengthAdjust="spacing" textLength="145" x="711.5" y="569.5479">products, website, email)</text><polygon fill="#181818" points="977.5,653.9746,987.5,657.9746,977.5,661.9746,981.5,657.9746" style="stroke:#181818;stroke-width:1.0;"/><line style="stroke:#181818;stroke-width:1.0;" x1="689.5" x2="983.5" y1="657.9746" y2="657.9746"/><text fill="#000000" font-family="sans-serif" font-size="13" font-weight="bold" lengthAdjust="spacing" textLength="14" x="696.5" y="626.7754">10</text><text fill="#000000" font-family="sans-serif" font-size="13" lengthAdjust="spacing" textLength="223" x="714.5" y="600.8389">createStore(storeName, storeAddress,</text><text fill="#000000" font-family="sans-serif" font-size="13" lengthAdjust="spacing" textLength="249" x="718.5" y="618.1299">phoneNumber, id , taxIdentificationNumber,</text><text fill="#000000" font-family="sans-serif" font-size="13" lengthAdjust="spacing" textLength="248" x="718.5" y="635.4209">businessLicense, bankAccountInformation,</text><text fill="#000000" font-family="sans-serif" font-size="13" lengthAdjust="spacing" textLength="145" x="718.5" y="652.7119">products, website, email)</text><!--SRC=[rPGzRwD0441xViN8bHrXASqrAI9PkB5qb-AGksl6ksEyCknokqDo_FkRNN1iIEGwQH3ilFbu0tOu6zkYnmOQPvqwUTSGiEye2- -H5jKPAogvhmayAKPRrRT0EA5sRyPMSCGwK9QnOK7tWJoKx7mFZuy_O0qb_Ut8AeAjmIecBiljAikmOsUxva1UxfNmi2ZxmDJ0HZV6ci0UvNG16A3SR7zbqfMDCYrQXiLJWlQx59ReVZUB5vwGASv18rMKzw32MVQkhicFS35Z4_MRMXTCb4lKzN4ENqqc7h56qZMlqdZmok8Lri-31Zn9LLbOu03iPF6LL92DueVamJeRiYGz-MMQvi3xym34wu0N3m_IJQKTJCxbzD8tDLsk9bMA21Um7dicUfnO8-DaXf6EfGLFflVnEE9b8MDrxbiAboJIAGkM8KxsWWtba6utMdiA8VzZeJqvIo_fsyh1QCY1yTzEasLpD0hPE3j61JvqmLX9_6aKsI3L3cZF6wLSPtbdZyutAI7LzKvtYaCERtIGzoumDMZgrRqbYq0WgzCYjpBv5nlym_8_UT7FDn-wwBoIDyV-MmWLDputFzRFlTJrt-3hEaqiPgx_0G00]--></g></svg>