<?xml version="1.0" encoding="us-ascii" standalone="no"?><svg xmlns="http://www.w3.org/2000/svg" xmlns:xlink="http://www.w3.org/1999/xlink" contentStyleType="text/css" height="521.22px" preserveAspectRatio="none" style="width:402px;height:521px;background:#FFFFFF;" version="1.1" viewBox="0 0 402 521" width="402.39px" zoomAndPan="magnify"><defs/><g><text fill="#000000" font-family="sans-serif" font-size="7.14" font-weight="bold" lengthAdjust="spacing" textLength="139.23" x="128.1375" y="12.8048">US005 Register a Store - Class Diagram</text><!--class Store--><g id="elem_Store"><rect codeLine="6" fill="#F1F1F1" height="119.4476" id="Store" rx="1.275" ry="1.275" style="stroke:#181818;stroke-width:0.255;" width="95.88" x="290.445" y="398.6268"/><ellipse cx="327.5475" cy="406.7868" fill="#ADD1B2" rx="5.61" ry="5.61" style="stroke:#181818;stroke-width:0.51;"/><path d="M328.958,404.683 Q329.0377,404.5714 329.1333,404.5157 Q329.2289,404.4599 329.3405,404.4599 Q329.5317,404.4599 329.6513,404.5954 Q329.7708,404.7229 329.7708,405.0336 L329.7708,405.7747 Q329.7708,406.0855 329.6513,406.221 Q329.5317,406.3564 329.3405,406.3564 Q329.1652,406.3564 329.0616,406.2529 Q328.958,406.1572 328.9022,405.8943 Q328.8783,405.711 328.7827,405.6154 Q328.6153,405.4241 328.3045,405.3125 Q327.9938,405.201 327.675,405.201 Q327.2845,405.201 326.9578,405.3683 Q326.6391,405.5357 326.3841,405.9182 Q326.137,406.3007 326.137,406.8266 L326.137,407.3844 Q326.137,408.0139 326.5913,408.4363 Q327.0455,408.8507 327.8583,408.8507 Q328.3364,408.8507 328.6711,408.7232 Q328.8703,408.6435 329.0855,408.4204 Q329.2209,408.2849 329.2927,408.245 Q329.3723,408.2052 329.4759,408.2052 Q329.6433,408.2052 329.7708,408.3407 Q329.9063,408.4682 329.9063,408.6435 Q329.9063,408.8188 329.7309,409.026 Q329.4759,409.3208 329.0695,409.4882 Q328.5197,409.7193 327.8583,409.7193 Q327.0853,409.7193 326.4717,409.4005 Q325.9697,409.1455 325.6191,408.6036 Q325.2684,408.0538 325.2684,407.4004 L325.2684,406.8107 Q325.2684,406.1333 325.5792,405.5516 Q325.898,404.9619 326.4558,404.6511 Q327.0136,404.3324 327.6431,404.3324 Q328.0177,404.3324 328.3444,404.42 Q328.6791,404.4997 328.958,404.683 Z " fill="#000000"/><text fill="#000000" font-family="sans-serif" font-size="7.14" lengthAdjust="spacing" textLength="17.34" x="338.0025" y="409.7432">Store</text><line style="stroke:#181818;stroke-width:0.255;" x1="290.955" x2="385.815" y1="414.9468" y2="414.9468"/><text fill="#000000" font-family="sans-serif" font-size="7.14" lengthAdjust="spacing" textLength="58.14" x="293.505" y="424.6915">-String storeName</text><text fill="#000000" font-family="sans-serif" font-size="7.14" lengthAdjust="spacing" textLength="49.47" x="293.505" y="434.1883">-String address</text><text fill="#000000" font-family="sans-serif" font-size="7.14" lengthAdjust="spacing" textLength="57.63" x="293.505" y="443.6851">-int phoneNumber</text><text fill="#000000" font-family="sans-serif" font-size="7.14" lengthAdjust="spacing" textLength="17.85" x="293.505" y="453.1818">-int id</text><text fill="#000000" font-family="sans-serif" font-size="7.14" lengthAdjust="spacing" textLength="86.7" x="293.505" y="462.6786">-int taxIdentificationNumber</text><text fill="#000000" font-family="sans-serif" font-size="7.14" lengthAdjust="spacing" textLength="69.87" x="293.505" y="472.1753">-int businessLicensee</text><text fill="#000000" font-family="sans-serif" font-size="7.14" lengthAdjust="spacing" textLength="89.76" x="293.505" y="481.6721">-int bankAccountInformation</text><text fill="#000000" font-family="sans-serif" font-size="7.14" lengthAdjust="spacing" textLength="51.51" x="293.505" y="491.1688">-String products</text><text fill="#000000" font-family="sans-serif" font-size="7.14" lengthAdjust="spacing" textLength="47.43" x="293.505" y="500.6656">-String website</text><text fill="#000000" font-family="sans-serif" font-size="7.14" lengthAdjust="spacing" textLength="40.29" x="293.505" y="510.1624">-String email</text><line style="stroke:#181818;stroke-width:0.255;" x1="290.955" x2="385.815" y1="513.9943" y2="513.9943"/></g><!--class SystemAdministrator--><g id="elem_SystemAdministrator"><rect codeLine="20" fill="#F1F1F1" height="119.4476" id="SystemAdministrator" rx="1.275" ry="1.275" style="stroke:#181818;stroke-width:0.255;" width="95.88" x="176.715" y="23.7768"/><ellipse cx="190.5615" cy="31.9368" fill="#ADD1B2" rx="5.61" ry="5.61" style="stroke:#181818;stroke-width:0.51;"/><path d="M191.972,29.833 Q192.0517,29.7214 192.1473,29.6657 Q192.2429,29.6099 192.3545,29.6099 Q192.5457,29.6099 192.6653,29.7454 Q192.7848,29.8729 192.7848,30.1836 L192.7848,30.9247 Q192.7848,31.2355 192.6653,31.371 Q192.5457,31.5064 192.3545,31.5064 Q192.1792,31.5064 192.0756,31.4029 Q191.972,31.3072 191.9162,31.0443 Q191.8923,30.861 191.7967,30.7654 Q191.6293,30.5741 191.3185,30.4625 Q191.0078,30.351 190.689,30.351 Q190.2985,30.351 189.9718,30.5183 Q189.6531,30.6857 189.3981,31.0682 Q189.151,31.4507 189.151,31.9766 L189.151,32.5344 Q189.151,33.1639 189.6052,33.5863 Q190.0595,34.0007 190.8723,34.0007 Q191.3504,34.0007 191.6851,33.8732 Q191.8843,33.7935 192.0995,33.5704 Q192.2349,33.4349 192.3067,33.395 Q192.3863,33.3552 192.4899,33.3552 Q192.6573,33.3552 192.7848,33.4907 Q192.9202,33.6182 192.9202,33.7935 Q192.9202,33.9688 192.7449,34.176 Q192.4899,34.4708 192.0835,34.6382 Q191.5337,34.8693 190.8723,34.8693 Q190.0993,34.8693 189.4857,34.5505 Q188.9837,34.2955 188.6331,33.7536 Q188.2824,33.2038 188.2824,32.5504 L188.2824,31.9607 Q188.2824,31.2833 188.5932,30.7016 Q188.912,30.1119 189.4698,29.8011 Q190.0276,29.4824 190.6571,29.4824 Q191.0317,29.4824 191.3584,29.57 Q191.6931,29.6497 191.972,29.833 Z " fill="#000000"/><text fill="#000000" font-family="sans-serif" font-size="7.14" lengthAdjust="spacing" textLength="65.79" x="199.0785" y="34.8932">SystemAdministrator</text><line style="stroke:#181818;stroke-width:0.255;" x1="177.225" x2="272.085" y1="40.0968" y2="40.0968"/><text fill="#000000" font-family="sans-serif" font-size="7.14" lengthAdjust="spacing" textLength="58.14" x="179.775" y="49.8415">-String storeName</text><text fill="#000000" font-family="sans-serif" font-size="7.14" lengthAdjust="spacing" textLength="49.47" x="179.775" y="59.3383">-String address</text><text fill="#000000" font-family="sans-serif" font-size="7.14" lengthAdjust="spacing" textLength="57.63" x="179.775" y="68.8351">-int phoneNumber</text><text fill="#000000" font-family="sans-serif" font-size="7.14" lengthAdjust="spacing" textLength="17.85" x="179.775" y="78.3318">-int id</text><text fill="#000000" font-family="sans-serif" font-size="7.14" lengthAdjust="spacing" textLength="86.7" x="179.775" y="87.8286">-int taxIdentificationNumber</text><text fill="#000000" font-family="sans-serif" font-size="7.14" lengthAdjust="spacing" textLength="69.87" x="179.775" y="97.3253">-int businessLicensee</text><text fill="#000000" font-family="sans-serif" font-size="7.14" lengthAdjust="spacing" textLength="89.76" x="179.775" y="106.8221">-int bankAccountInformation</text><text fill="#000000" font-family="sans-serif" font-size="7.14" lengthAdjust="spacing" textLength="51.51" x="179.775" y="116.3188">-String products</text><text fill="#000000" font-family="sans-serif" font-size="7.14" lengthAdjust="spacing" textLength="47.43" x="179.775" y="125.8156">-String website</text><text fill="#000000" font-family="sans-serif" font-size="7.14" lengthAdjust="spacing" textLength="40.29" x="179.775" y="135.3124">-String email</text><line style="stroke:#181818;stroke-width:0.255;" x1="177.225" x2="272.085" y1="139.1443" y2="139.1443"/></g><!--class StoreRepository--><g id="elem_StoreRepository"><rect codeLine="34" fill="#F1F1F1" height="33.9768" id="StoreRepository" rx="1.275" ry="1.275" style="stroke:#181818;stroke-width:0.255;" width="74.97" x="266.22" y="324.1668"/><ellipse cx="276.8535" cy="332.3268" fill="#ADD1B2" rx="5.61" ry="5.61" style="stroke:#181818;stroke-width:0.51;"/><path d="M278.264,330.223 Q278.3437,330.1114 278.4393,330.0557 Q278.5349,329.9999 278.6465,329.9999 Q278.8377,329.9999 278.9573,330.1354 Q279.0768,330.2629 279.0768,330.5736 L279.0768,331.3147 Q279.0768,331.6255 278.9573,331.761 Q278.8377,331.8964 278.6465,331.8964 Q278.4712,331.8964 278.3676,331.7929 Q278.264,331.6972 278.2082,331.4343 Q278.1843,331.251 278.0887,331.1554 Q277.9213,330.9641 277.6105,330.8525 Q277.2998,330.741 276.981,330.741 Q276.5905,330.741 276.2638,330.9083 Q275.9451,331.0757 275.6901,331.4582 Q275.443,331.8407 275.443,332.3666 L275.443,332.9244 Q275.443,333.5539 275.8973,333.9763 Q276.3515,334.3907 277.1643,334.3907 Q277.6424,334.3907 277.9771,334.2632 Q278.1763,334.1835 278.3915,333.9604 Q278.5269,333.8249 278.5987,333.785 Q278.6783,333.7452 278.7819,333.7452 Q278.9493,333.7452 279.0768,333.8807 Q279.2123,334.0082 279.2123,334.1835 Q279.2123,334.3588 279.0369,334.566 Q278.7819,334.8608 278.3755,335.0282 Q277.8257,335.2593 277.1643,335.2593 Q276.3913,335.2593 275.7777,334.9405 Q275.2757,334.6855 274.9251,334.1436 Q274.5744,333.5938 274.5744,332.9404 L274.5744,332.3507 Q274.5744,331.6733 274.8852,331.0916 Q275.204,330.5019 275.7618,330.1911 Q276.3196,329.8724 276.9491,329.8724 Q277.3237,329.8724 277.6504,329.96 Q277.9851,330.0397 278.264,330.223 Z " fill="#000000"/><text fill="#000000" font-family="sans-serif" font-size="7.14" lengthAdjust="spacing" textLength="52.02" x="284.6565" y="335.2832">StoreRepository</text><line style="stroke:#181818;stroke-width:0.255;" x1="266.73" x2="340.68" y1="340.4868" y2="340.4868"/><text fill="#000000" font-family="sans-serif" font-size="7.14" lengthAdjust="spacing" textLength="68.85" x="269.28" y="350.2315">-List&lt;Store&gt; storeList</text><line style="stroke:#181818;stroke-width:0.255;" x1="266.73" x2="340.68" y1="354.0635" y2="354.0635"/></g><!--class CreateStoreUI--><g id="elem_CreateStoreUI"><rect codeLine="39" fill="#F1F1F1" height="81.4605" id="CreateStoreUI" rx="1.275" ry="1.275" style="stroke:#181818;stroke-width:0.255;" width="149.43" x="3.57" y="192.8418"/><ellipse cx="53.4225" cy="201.0018" fill="#ADD1B2" rx="5.61" ry="5.61" style="stroke:#181818;stroke-width:0.51;"/><path d="M54.833,198.898 Q54.9127,198.7864 55.0083,198.7307 Q55.1039,198.6749 55.2155,198.6749 Q55.4067,198.6749 55.5263,198.8104 Q55.6458,198.9379 55.6458,199.2486 L55.6458,199.9897 Q55.6458,200.3005 55.5263,200.436 Q55.4067,200.5714 55.2155,200.5714 Q55.0402,200.5714 54.9366,200.4679 Q54.833,200.3722 54.7772,200.1093 Q54.7533,199.926 54.6577,199.8304 Q54.4903,199.6391 54.1795,199.5275 Q53.8688,199.416 53.55,199.416 Q53.1595,199.416 52.8328,199.5833 Q52.5141,199.7507 52.2591,200.1332 Q52.012,200.5157 52.012,201.0416 L52.012,201.5994 Q52.012,202.2289 52.4663,202.6513 Q52.9205,203.0657 53.7333,203.0657 Q54.2114,203.0657 54.5461,202.9382 Q54.7453,202.8585 54.9605,202.6354 Q55.0959,202.4999 55.1677,202.46 Q55.2473,202.4202 55.3509,202.4202 Q55.5183,202.4202 55.6458,202.5557 Q55.7813,202.6832 55.7813,202.8585 Q55.7813,203.0338 55.6059,203.241 Q55.3509,203.5358 54.9445,203.7032 Q54.3947,203.9343 53.7333,203.9343 Q52.9603,203.9343 52.3467,203.6155 Q51.8447,203.3605 51.4941,202.8186 Q51.1434,202.2688 51.1434,201.6154 L51.1434,201.0257 Q51.1434,200.3483 51.4542,199.7666 Q51.773,199.1769 52.3308,198.8661 Q52.8886,198.5474 53.5181,198.5474 Q53.8927,198.5474 54.2194,198.635 Q54.5541,198.7147 54.833,198.898 Z " fill="#000000"/><text fill="#000000" font-family="sans-serif" font-size="7.14" lengthAdjust="spacing" textLength="45.39" x="63.8775" y="203.9582">CreateStoreUI</text><line style="stroke:#181818;stroke-width:0.255;" x1="4.08" x2="152.49" y1="209.1618" y2="209.1618"/><line style="stroke:#181818;stroke-width:0.255;" x1="4.08" x2="152.49" y1="213.2418" y2="213.2418"/><text fill="#000000" font-family="sans-serif" font-size="7.14" lengthAdjust="spacing" textLength="19.89" x="6.63" y="222.9865">+run()</text><text fill="#000000" font-family="sans-serif" font-size="7.14" lengthAdjust="spacing" textLength="64.26" x="6.63" y="232.4833">+registerNewStore()</text><text fill="#000000" font-family="sans-serif" font-size="7.14" lengthAdjust="spacing" textLength="106.08" x="6.63" y="241.9801">+verifyData(storeName, address,</text><text fill="#000000" font-family="sans-serif" font-size="7.14" lengthAdjust="spacing" textLength="135.66" x="8.67" y="251.4768">phoneNumber, id, taxIdentificationNumber,</text><text fill="#000000" font-family="sans-serif" font-size="7.14" lengthAdjust="spacing" textLength="141.27" x="8.67" y="260.9736">businessLicensee, bankAccountInformation,</text><text fill="#000000" font-family="sans-serif" font-size="7.14" lengthAdjust="spacing" textLength="79.56" x="8.67" y="270.4703">products, website, email)</text></g><!--class CreateStoreController--><g id="elem_CreateStoreController"><rect codeLine="46" fill="#F1F1F1" height="100.4541" id="CreateStoreController" rx="1.275" ry="1.275" style="stroke:#181818;stroke-width:0.255;" width="149.43" x="193.8" y="183.4068"/><ellipse cx="230.9025" cy="191.5668" fill="#ADD1B2" rx="5.61" ry="5.61" style="stroke:#181818;stroke-width:0.51;"/><path d="M232.313,189.463 Q232.3927,189.3514 232.4883,189.2957 Q232.5839,189.2399 232.6955,189.2399 Q232.8867,189.2399 233.0063,189.3754 Q233.1258,189.5029 233.1258,189.8136 L233.1258,190.5547 Q233.1258,190.8655 233.0063,191.001 Q232.8867,191.1364 232.6955,191.1364 Q232.5202,191.1364 232.4166,191.0329 Q232.313,190.9372 232.2572,190.6743 Q232.2333,190.491 232.1377,190.3954 Q231.9703,190.2041 231.6595,190.0925 Q231.3488,189.981 231.03,189.981 Q230.6395,189.981 230.3128,190.1483 Q229.9941,190.3157 229.7391,190.6982 Q229.492,191.0807 229.492,191.6066 L229.492,192.1644 Q229.492,192.7939 229.9463,193.2163 Q230.4005,193.6307 231.2133,193.6307 Q231.6914,193.6307 232.0261,193.5032 Q232.2253,193.4235 232.4405,193.2004 Q232.5759,193.0649 232.6477,193.025 Q232.7273,192.9852 232.8309,192.9852 Q232.9983,192.9852 233.1258,193.1207 Q233.2613,193.2482 233.2613,193.4235 Q233.2613,193.5988 233.0859,193.806 Q232.8309,194.1008 232.4245,194.2682 Q231.8747,194.4993 231.2133,194.4993 Q230.4403,194.4993 229.8267,194.1805 Q229.3247,193.9255 228.9741,193.3836 Q228.6234,192.8338 228.6234,192.1804 L228.6234,191.5907 Q228.6234,190.9133 228.9342,190.3316 Q229.253,189.7419 229.8108,189.4311 Q230.3686,189.1124 230.9981,189.1124 Q231.3727,189.1124 231.6994,189.2 Q232.0341,189.2797 232.313,189.463 Z " fill="#000000"/><text fill="#000000" font-family="sans-serif" font-size="7.14" lengthAdjust="spacing" textLength="70.89" x="241.3575" y="194.5232">CreateStoreController</text><line style="stroke:#181818;stroke-width:0.255;" x1="194.31" x2="342.72" y1="199.7268" y2="199.7268"/><line style="stroke:#181818;stroke-width:0.255;" x1="194.31" x2="342.72" y1="203.8068" y2="203.8068"/><text fill="#000000" font-family="sans-serif" font-size="7.14" lengthAdjust="spacing" textLength="124.95" x="196.86" y="213.5515">+verifyIfNewStore(storeName, address,</text><text fill="#000000" font-family="sans-serif" font-size="7.14" lengthAdjust="spacing" textLength="135.66" x="198.9" y="223.0483">phoneNumber, id, taxIdentificationNumber,</text><text fill="#000000" font-family="sans-serif" font-size="7.14" lengthAdjust="spacing" textLength="141.27" x="198.9" y="232.5451">businessLicensee, bankAccountInformation,</text><text fill="#000000" font-family="sans-serif" font-size="7.14" lengthAdjust="spacing" textLength="79.56" x="198.9" y="242.0418">products, website, email)</text><text fill="#000000" font-family="sans-serif" font-size="7.14" lengthAdjust="spacing" textLength="111.18" x="196.86" y="251.5386">+createStore(storeName, address,</text><text fill="#000000" font-family="sans-serif" font-size="7.14" lengthAdjust="spacing" textLength="135.66" x="198.9" y="261.0353">phoneNumber, id, taxIdentificationNumber,</text><text fill="#000000" font-family="sans-serif" font-size="7.14" lengthAdjust="spacing" textLength="141.27" x="198.9" y="270.5321">businessLicensee, bankAccountInformation,</text><text fill="#000000" font-family="sans-serif" font-size="7.14" lengthAdjust="spacing" textLength="79.56" x="198.9" y="280.0288">products, website, email)</text></g><!--link SystemAdministrator to CreateStoreUI--><g id="link_SystemAdministrator_CreateStoreUI"><path codeLine="52" d="M176.5263,133.0086 C158.1969,151.6899 137.4807,172.7988 119.8143,190.8069 " fill="none" id="SystemAdministrator-to-CreateStoreUI" style="stroke:#181818;stroke-width:0.51;"/><polygon fill="#181818" points="117.8967,192.7602,122.5664,190.9098,119.6815,190.9389,119.6524,188.0541,117.8967,192.7602" style="stroke:#181818;stroke-width:0.51;"/><text fill="#000000" font-family="sans-serif" font-size="6.63" lengthAdjust="spacing" textLength="12.75" x="152.235" y="166.0812">runs</text></g><!--link CreateStoreUI to CreateStoreController--><g id="link_CreateStoreUI_CreateStoreController"><path codeLine="53" d="M153.0612,233.6418 C165.5409,233.6418 178.5102,233.6418 191.0562,233.6418 " fill="none" id="CreateStoreUI-to-CreateStoreController" style="stroke:#181818;stroke-width:0.51;stroke-dasharray:7.0,7.0;"/><polygon fill="#181818" points="193.7286,233.6418,189.1386,231.6018,191.1786,233.6418,189.1386,235.6818,193.7286,233.6418" style="stroke:#181818;stroke-width:0.51;"/><text fill="#000000" font-family="sans-serif" font-size="6.63" lengthAdjust="spacing" textLength="21.93" x="162.435" y="230.0862">creates</text></g><!--link SystemAdministrator to Store--><g id="link_SystemAdministrator_Store"><path codeLine="54" d="M272.6817,107.1567 C301.4916,123.9408 335.6514,149.604 352.155,183.4068 C384.8868,250.4514 372.4785,338.0031 357.8721,395.9748 " fill="none" id="SystemAdministrator-to-Store" style="stroke:#181818;stroke-width:0.51;"/><polygon fill="#181818" points="357.2193,398.5401,360.3253,394.5926,357.8463,396.0684,356.3706,393.5894,357.2193,398.5401" style="stroke:#181818;stroke-width:0.51;"/><text fill="#000000" font-family="sans-serif" font-size="6.63" lengthAdjust="spacing" textLength="25.5" x="373.065" y="306.8412">registers</text><text fill="#000000" font-family="sans-serif" font-size="6.63" lengthAdjust="spacing" textLength="3.57" x="276.6511" y="107.1867">1</text><text fill="#000000" font-family="sans-serif" font-size="6.63" lengthAdjust="spacing" textLength="2.55" x="355.7942" y="392.9199">*</text></g><!--link CreateStoreController to StoreRepository--><g id="link_CreateStoreController_StoreRepository"><path codeLine="55" d="M284.9778,284.0145 C289.3842,297.3561 293.8824,310.9884 297.3657,321.5403 " fill="none" id="CreateStoreController-to-StoreRepository" style="stroke:#181818;stroke-width:0.51;"/><polygon fill="#181818" points="298.1868,324.0189,298.6932,319.0215,297.3914,321.5961,294.8168,320.2942,298.1868,324.0189" style="stroke:#181818;stroke-width:0.51;"/><text fill="#000000" font-family="sans-serif" font-size="6.63" lengthAdjust="spacing" textLength="47.43" x="292.995" y="306.8412">StoreRepository</text><text fill="#000000" font-family="sans-serif" font-size="6.63" lengthAdjust="spacing" textLength="3.57" x="293.2246" y="318.4245">1</text></g><!--link StoreRepository to Store--><g id="link_StoreRepository_Store"><path codeLine="56" d="M308.6724,358.3878 C311.6865,368.4705 315.7461,382.0416 319.8873,395.9085 " fill="none" id="StoreRepository-to-Store" style="stroke:#181818;stroke-width:0.51;"/><polygon fill="#181818" points="320.6625,398.4993,321.3044,393.5175,319.9331,396.0558,317.3948,394.6845,320.6625,398.4993" style="stroke:#181818;stroke-width:0.51;"/><text fill="#000000" font-family="sans-serif" font-size="6.63" lengthAdjust="spacing" textLength="15.81" x="315.945" y="381.3012">Store</text></g><!--SRC=[tLHDQ-im4BphLmYV-k4yqaClfGH2UZ6K71fwAuIDl7QNs9AHratJqlzUIR7pOP9xUIUBqUpipdXjjoRTW8LQDg3MKEA2jnLAYuf1bnKAjoUuTyZDXdGf2wZSyOsgmBafiwLLovWfenVqXN8icDYBlIx6utlvWYKvHYj1BjXOb2Cv2tNoYQ3qAa94cUxoMupyoOPkBW1pgF40GPvRTCu3f5asxqRZlArNQ3k4ykx0y9dbg9aAKi1az0bjrJhINkUP56g7sCEWrrEbJAivquMnTQmyT6-ioLl5xe1iSEM8ZmR46gWIo-LI_EnzRRtxUfhNf7qE5hoh_z5biF62ZV5COxVUuBDt-nZXoSva04wBPXQ1CN9UCnzAkBorhRwwzezkRUQuYOI0VQ2bOli435VxsD8-hlHD7sUL-fZIIma5xZ2Uz48oKRVB9EspI7SPN9_rCZEQhQagjBsdtU1PiJVpLyQ_LOUn_rAcvpwQqMWos9W7wPV5YLFmt-J2ktYGExFkh7fobyGEoKtI_OgyUhU3Jehpah7WBXbkloyT86B829Lzc_Zy1G00]--></g></svg>