<?xml version="1.0" encoding="us-ascii" standalone="no"?><svg xmlns="http://www.w3.org/2000/svg" xmlns:xlink="http://www.w3.org/1999/xlink" contentStyleType="text/css" height="992.6px" preserveAspectRatio="none" style="width:857px;height:992px;background:#FFFFFF;" version="1.1" viewBox="0 0 857 992" width="857.5px" zoomAndPan="magnify"><defs/><g><text fill="#000000" font-family="sans-serif" font-size="9.8" font-weight="bold" lengthAdjust="spacing" textLength="233.8" x="307.125" y="17.5752">US001 Display Listed Properties - Class Diagram</text><!--class UnregisteredUser--><g id="elem_UnregisteredUser"><rect codeLine="7" fill="#F1F1F1" height="33.6" id="UnregisteredUser" rx="1.75" ry="1.75" style="stroke:#181818;stroke-width:0.3499999999999999;" width="99.4" x="4.9" y="54.8687"/><ellipse cx="15.4" cy="66.0687" fill="#ADD1B2" rx="7.7" ry="7.7" style="stroke:#181818;stroke-width:0.6999999999999998;"/><path d="M17.3359,63.1812 Q17.4453,63.028 17.5766,62.9515 Q17.7078,62.8749 17.8609,62.8749 Q18.1234,62.8749 18.2875,63.0608 Q18.4516,63.2358 18.4516,63.6624 L18.4516,64.6796 Q18.4516,65.1062 18.2875,65.2921 Q18.1234,65.478 17.8609,65.478 Q17.6203,65.478 17.4781,65.3358 Q17.3359,65.2046 17.2594,64.8437 Q17.2266,64.5921 17.0953,64.4608 Q16.8656,64.1983 16.4391,64.0452 Q16.0125,63.8921 15.575,63.8921 Q15.0391,63.8921 14.5906,64.1218 Q14.1531,64.3515 13.8031,64.8765 Q13.4641,65.4015 13.4641,66.1233 L13.4641,66.889 Q13.4641,67.753 14.0875,68.3327 Q14.7109,68.9015 15.8266,68.9015 Q16.4828,68.9015 16.9422,68.7265 Q17.2156,68.6171 17.5109,68.3108 Q17.6969,68.1249 17.7953,68.0702 Q17.9047,68.0155 18.0469,68.0155 Q18.2766,68.0155 18.4516,68.2015 Q18.6375,68.3765 18.6375,68.6171 Q18.6375,68.8577 18.3969,69.1421 Q18.0469,69.5468 17.4891,69.7765 Q16.7344,70.0937 15.8266,70.0937 Q14.7656,70.0937 13.9234,69.6562 Q13.2344,69.3062 12.7531,68.5624 Q12.2719,67.8077 12.2719,66.9108 L12.2719,66.1015 Q12.2719,65.1718 12.6984,64.3733 Q13.1359,63.564 13.9016,63.1374 Q14.6672,62.6999 15.5312,62.6999 Q16.0453,62.6999 16.4937,62.8202 Q16.9531,62.9296 17.3359,63.1812 Z " fill="#000000"/><text fill="#000000" font-family="sans-serif" font-size="9.8" lengthAdjust="spacing" textLength="77" x="25.2" y="70.1265">UnregisteredUser</text><line style="stroke:#181818;stroke-width:0.3499999999999999;" x1="5.6" x2="103.6" y1="77.2687" y2="77.2687"/><line style="stroke:#181818;stroke-width:0.3499999999999999;" x1="5.6" x2="103.6" y1="82.8687" y2="82.8687"/></g><!--class ListPropertiesUI--><g id="elem_ListPropertiesUI"><rect codeLine="11" fill="#F1F1F1" height="59.6695" id="ListPropertiesUI" rx="1.75" ry="1.75" style="stroke:#181818;stroke-width:0.3499999999999999;" width="200.9" x="234.15" y="41.9187"/><ellipse cx="296.975" cy="53.1187" fill="#ADD1B2" rx="7.7" ry="7.7" style="stroke:#181818;stroke-width:0.6999999999999998;"/><path d="M298.9109,50.2312 Q299.0203,50.078 299.1516,50.0015 Q299.2828,49.9249 299.4359,49.9249 Q299.6984,49.9249 299.8625,50.1108 Q300.0266,50.2858 300.0266,50.7124 L300.0266,51.7296 Q300.0266,52.1562 299.8625,52.3421 Q299.6984,52.528 299.4359,52.528 Q299.1953,52.528 299.0531,52.3858 Q298.9109,52.2546 298.8344,51.8937 Q298.8016,51.6421 298.6703,51.5108 Q298.4406,51.2483 298.0141,51.0952 Q297.5875,50.9421 297.15,50.9421 Q296.6141,50.9421 296.1656,51.1718 Q295.7281,51.4015 295.3781,51.9265 Q295.0391,52.4515 295.0391,53.1733 L295.0391,53.939 Q295.0391,54.803 295.6625,55.3827 Q296.2859,55.9515 297.4016,55.9515 Q298.0578,55.9515 298.5172,55.7765 Q298.7906,55.6671 299.0859,55.3608 Q299.2719,55.1749 299.3703,55.1202 Q299.4797,55.0655 299.6219,55.0655 Q299.8516,55.0655 300.0266,55.2515 Q300.2125,55.4265 300.2125,55.6671 Q300.2125,55.9077 299.9719,56.1921 Q299.6219,56.5968 299.0641,56.8265 Q298.3094,57.1437 297.4016,57.1437 Q296.3406,57.1437 295.4984,56.7062 Q294.8094,56.3562 294.3281,55.6124 Q293.8469,54.8577 293.8469,53.9608 L293.8469,53.1515 Q293.8469,52.2218 294.2734,51.4233 Q294.7109,50.614 295.4766,50.1874 Q296.2422,49.7499 297.1062,49.7499 Q297.6203,49.7499 298.0687,49.8702 Q298.5281,49.9796 298.9109,50.2312 Z " fill="#000000"/><text fill="#000000" font-family="sans-serif" font-size="9.8" lengthAdjust="spacing" textLength="69.3" x="311.325" y="57.1765">ListPropertiesUI</text><line style="stroke:#181818;stroke-width:0.3499999999999999;" x1="234.85" x2="434.35" y1="64.3187" y2="64.3187"/><text fill="#000000" font-family="sans-serif" font-size="9.8" lengthAdjust="spacing" textLength="192.5" x="238.35" y="77.6938">ListPropertyController listPropertyController</text><line style="stroke:#181818;stroke-width:0.3499999999999999;" x1="234.85" x2="434.35" y1="82.9534" y2="82.9534"/><text fill="#000000" font-family="sans-serif" font-size="9.8" lengthAdjust="spacing" textLength="27.3" x="238.35" y="96.3286">+run()</text></g><!--class ListPropertyController--><g id="elem_ListPropertyController"><rect codeLine="17" fill="#F1F1F1" height="59.6695" id="ListPropertyController" rx="1.75" ry="1.75" style="stroke:#181818;stroke-width:0.3499999999999999;" width="181.3" x="243.95" y="252.2687"/><ellipse cx="283.325" cy="263.4687" fill="#ADD1B2" rx="7.7" ry="7.7" style="stroke:#181818;stroke-width:0.6999999999999998;"/><path d="M285.2609,260.5812 Q285.3703,260.428 285.5016,260.3515 Q285.6328,260.2749 285.7859,260.2749 Q286.0484,260.2749 286.2125,260.4608 Q286.3766,260.6358 286.3766,261.0624 L286.3766,262.0796 Q286.3766,262.5062 286.2125,262.6921 Q286.0484,262.878 285.7859,262.878 Q285.5453,262.878 285.4031,262.7358 Q285.2609,262.6046 285.1844,262.2437 Q285.1516,261.9921 285.0203,261.8608 Q284.7906,261.5983 284.3641,261.4452 Q283.9375,261.2921 283.5,261.2921 Q282.9641,261.2921 282.5156,261.5218 Q282.0781,261.7515 281.7281,262.2765 Q281.3891,262.8015 281.3891,263.5233 L281.3891,264.289 Q281.3891,265.153 282.0125,265.7327 Q282.6359,266.3015 283.7516,266.3015 Q284.4078,266.3015 284.8672,266.1265 Q285.1406,266.0171 285.4359,265.7108 Q285.6219,265.5249 285.7203,265.4702 Q285.8297,265.4155 285.9719,265.4155 Q286.2016,265.4155 286.3766,265.6015 Q286.5625,265.7765 286.5625,266.0171 Q286.5625,266.2577 286.3219,266.5421 Q285.9719,266.9468 285.4141,267.1765 Q284.6594,267.4937 283.7516,267.4937 Q282.6906,267.4937 281.8484,267.0562 Q281.1594,266.7062 280.6781,265.9624 Q280.1969,265.2077 280.1969,264.3108 L280.1969,263.5015 Q280.1969,262.5718 280.6234,261.7733 Q281.0609,260.964 281.8266,260.5374 Q282.5922,260.0999 283.4562,260.0999 Q283.9703,260.0999 284.4187,260.2202 Q284.8781,260.3296 285.2609,260.5812 Z " fill="#000000"/><text fill="#000000" font-family="sans-serif" font-size="9.8" lengthAdjust="spacing" textLength="96.6" x="297.675" y="267.5265">ListPropertyController</text><line style="stroke:#181818;stroke-width:0.3499999999999999;" x1="244.65" x2="424.55" y1="274.6687" y2="274.6687"/><text fill="#000000" font-family="sans-serif" font-size="9.8" lengthAdjust="spacing" textLength="172.9" x="248.15" y="288.0438">PropertyRepository propertyRepository</text><line style="stroke:#181818;stroke-width:0.3499999999999999;" x1="244.65" x2="424.55" y1="293.3034" y2="293.3034"/><text fill="#000000" font-family="sans-serif" font-size="9.8" lengthAdjust="spacing" textLength="109.9" x="248.15" y="306.6786">+printPropertiesToUser()</text></g><!--class Repositories--><g id="elem_Repositories"><rect codeLine="23" fill="#F1F1F1" height="85.7391" id="Repositories" rx="1.75" ry="1.75" style="stroke:#181818;stroke-width:0.3499999999999999;" width="184.8" x="133.7" y="464.0187"/><ellipse cx="195.475" cy="475.2187" fill="#ADD1B2" rx="7.7" ry="7.7" style="stroke:#181818;stroke-width:0.6999999999999998;"/><path d="M197.4109,472.3312 Q197.5203,472.178 197.6516,472.1015 Q197.7828,472.0249 197.9359,472.0249 Q198.1984,472.0249 198.3625,472.2108 Q198.5266,472.3858 198.5266,472.8124 L198.5266,473.8296 Q198.5266,474.2562 198.3625,474.4421 Q198.1984,474.628 197.9359,474.628 Q197.6953,474.628 197.5531,474.4858 Q197.4109,474.3546 197.3344,473.9937 Q197.3016,473.7421 197.1703,473.6108 Q196.9406,473.3483 196.5141,473.1952 Q196.0875,473.0421 195.65,473.0421 Q195.1141,473.0421 194.6656,473.2718 Q194.2281,473.5015 193.8781,474.0265 Q193.5391,474.5515 193.5391,475.2733 L193.5391,476.039 Q193.5391,476.903 194.1625,477.4827 Q194.7859,478.0515 195.9016,478.0515 Q196.5578,478.0515 197.0172,477.8765 Q197.2906,477.7671 197.5859,477.4608 Q197.7719,477.2749 197.8703,477.2202 Q197.9797,477.1655 198.1219,477.1655 Q198.3516,477.1655 198.5266,477.3515 Q198.7125,477.5265 198.7125,477.7671 Q198.7125,478.0077 198.4719,478.2921 Q198.1219,478.6968 197.5641,478.9265 Q196.8094,479.2437 195.9016,479.2437 Q194.8406,479.2437 193.9984,478.8062 Q193.3094,478.4562 192.8281,477.7124 Q192.3469,476.9577 192.3469,476.0608 L192.3469,475.2515 Q192.3469,474.3218 192.7734,473.5233 Q193.2109,472.714 193.9766,472.2874 Q194.7422,471.8499 195.6062,471.8499 Q196.1203,471.8499 196.5687,471.9702 Q197.0281,472.0796 197.4109,472.3312 Z " fill="#000000"/><text fill="#000000" font-family="sans-serif" font-size="9.8" lengthAdjust="spacing" textLength="55.3" x="209.825" y="479.2765">Repositories</text><line style="stroke:#181818;stroke-width:0.3499999999999999;" x1="134.4" x2="317.8" y1="486.4187" y2="486.4187"/><text fill="#000000" font-family="sans-serif" font-size="9.8" lengthAdjust="spacing" textLength="98.7" x="137.9" y="499.7938">-Repositories instance</text><text fill="#000000" font-family="sans-serif" font-size="9.8" lengthAdjust="spacing" textLength="176.4" x="137.9" y="512.8286">-PropertyRepository propertyRepository</text><line style="stroke:#181818;stroke-width:0.3499999999999999;" x1="134.4" x2="317.8" y1="518.0882" y2="518.0882"/><text fill="#000000" font-family="sans-serif" font-size="9.8" lengthAdjust="spacing" textLength="63.7" x="137.9" y="531.4634">+getInstance()</text><text fill="#000000" font-family="sans-serif" font-size="9.8" lengthAdjust="spacing" textLength="112" x="137.9" y="544.4981">+getPropertyRepository()</text></g><!--class PropertyRepository--><g id="elem_PropertyRepository"><rect codeLine="31" fill="#F1F1F1" height="111.8086" id="PropertyRepository" rx="1.75" ry="1.75" style="stroke:#181818;stroke-width:0.3499999999999999;" width="130.2" x="378.7" y="450.7187"/><ellipse cx="399.28" cy="461.9187" fill="#ADD1B2" rx="7.7" ry="7.7" style="stroke:#181818;stroke-width:0.6999999999999998;"/><path d="M401.2159,459.0312 Q401.3253,458.878 401.4566,458.8015 Q401.5878,458.7249 401.7409,458.7249 Q402.0034,458.7249 402.1675,458.9108 Q402.3316,459.0858 402.3316,459.5124 L402.3316,460.5296 Q402.3316,460.9562 402.1675,461.1421 Q402.0034,461.328 401.7409,461.328 Q401.5003,461.328 401.3581,461.1858 Q401.2159,461.0546 401.1394,460.6937 Q401.1066,460.4421 400.9753,460.3108 Q400.7456,460.0483 400.3191,459.8952 Q399.8925,459.7421 399.455,459.7421 Q398.9191,459.7421 398.4706,459.9718 Q398.0331,460.2015 397.6831,460.7265 Q397.3441,461.2515 397.3441,461.9733 L397.3441,462.739 Q397.3441,463.603 397.9675,464.1827 Q398.5909,464.7515 399.7066,464.7515 Q400.3628,464.7515 400.8222,464.5765 Q401.0956,464.4671 401.3909,464.1608 Q401.5769,463.9749 401.6753,463.9202 Q401.7847,463.8655 401.9269,463.8655 Q402.1566,463.8655 402.3316,464.0515 Q402.5175,464.2265 402.5175,464.4671 Q402.5175,464.7077 402.2769,464.9921 Q401.9269,465.3968 401.3691,465.6265 Q400.6144,465.9437 399.7066,465.9437 Q398.6456,465.9437 397.8034,465.5062 Q397.1144,465.1562 396.6331,464.4124 Q396.1519,463.6577 396.1519,462.7608 L396.1519,461.9515 Q396.1519,461.0218 396.5784,460.2233 Q397.0159,459.414 397.7816,458.9874 Q398.5472,458.5499 399.4112,458.5499 Q399.9253,458.5499 400.3737,458.6702 Q400.8331,458.7796 401.2159,459.0312 Z " fill="#000000"/><text fill="#000000" font-family="sans-serif" font-size="9.8" lengthAdjust="spacing" textLength="85.4" x="411.32" y="465.9765">PropertyRepository</text><line style="stroke:#181818;stroke-width:0.3499999999999999;" x1="379.4" x2="508.2" y1="473.1187" y2="473.1187"/><text fill="#000000" font-family="sans-serif" font-size="9.8" lengthAdjust="spacing" textLength="115.5" x="382.9" y="486.4938">-List&lt;Property&gt; properties</text><line style="stroke:#181818;stroke-width:0.3499999999999999;" x1="379.4" x2="508.2" y1="491.7534" y2="491.7534"/><text fill="#000000" font-family="sans-serif" font-size="9.8" lengthAdjust="spacing" textLength="46.9" x="382.9" y="505.1286">+isEmpty()</text><text fill="#000000" font-family="sans-serif" font-size="9.8" lengthAdjust="spacing" textLength="66.5" x="382.9" y="518.1634">+add(property)</text><text fill="#000000" font-family="sans-serif" font-size="9.8" lengthAdjust="spacing" textLength="121.8" x="382.9" y="531.1981">+validateProperty(property)</text><text fill="#000000" font-family="sans-serif" font-size="9.8" lengthAdjust="spacing" textLength="77.7" x="382.9" y="544.2329">+printProperties()</text><text fill="#000000" font-family="sans-serif" font-size="9.8" lengthAdjust="spacing" textLength="72.1" x="382.9" y="557.2677">+getProperties()</text></g><!--class Property--><g id="elem_Property"><rect codeLine="41" fill="#F1F1F1" height="176.9824" id="Property" rx="1.75" ry="1.75" style="stroke:#181818;stroke-width:0.3499999999999999;" width="140.7" x="373.45" y="618.0187"/><ellipse cx="421.925" cy="629.2187" fill="#B4A7E5" rx="7.7" ry="7.7" style="stroke:#181818;stroke-width:0.6999999999999998;"/><path d="M422.5922,626.8671 L422.5922,631.5265 L423.7953,631.5265 Q424.2219,631.5265 424.4078,631.6905 Q424.5937,631.8546 424.5937,632.128 Q424.5937,632.3905 424.4078,632.5546 Q424.2219,632.7187 423.7953,632.7187 L420.1969,632.7187 Q419.7703,632.7187 419.5844,632.5546 Q419.3984,632.3905 419.3984,632.1171 Q419.3984,631.8546 419.5844,631.6905 Q419.7703,631.5265 420.1969,631.5265 L421.4,631.5265 L421.4,626.8671 L420.1969,626.8671 Q419.7703,626.8671 419.5844,626.703 Q419.3984,626.539 419.3984,626.2655 Q419.3984,626.003 419.5844,625.839 Q419.7703,625.6749 420.1969,625.6749 L423.7953,625.6749 Q424.2219,625.6749 424.4078,625.839 Q424.5937,626.003 424.5937,626.2655 Q424.5937,626.539 424.4078,626.703 Q424.2219,626.8671 423.7953,626.8671 L422.5922,626.8671 Z " fill="#000000"/><text fill="#000000" font-family="sans-serif" font-size="9.8" font-style="italic" lengthAdjust="spacing" textLength="37.8" x="436.275" y="633.2765">Property</text><line style="stroke:#181818;stroke-width:0.3499999999999999;" x1="374.15" x2="513.45" y1="640.4187" y2="640.4187"/><text fill="#000000" font-family="sans-serif" font-size="9.8" lengthAdjust="spacing" textLength="45.5" x="377.65" y="653.7938">-float area</text><text fill="#000000" font-family="sans-serif" font-size="9.8" lengthAdjust="spacing" textLength="66.5" x="377.65" y="666.8286">-String location</text><text fill="#000000" font-family="sans-serif" font-size="9.8" lengthAdjust="spacing" textLength="132.3" x="377.65" y="679.8634">-float distanceFromCityCentre</text><text fill="#000000" font-family="sans-serif" font-size="9.8" lengthAdjust="spacing" textLength="57.4" x="377.65" y="692.8981">-Agent agent</text><text fill="#000000" font-family="sans-serif" font-size="9.8" lengthAdjust="spacing" textLength="84" x="377.65" y="705.9329">-File[] photographs</text><text fill="#000000" font-family="sans-serif" font-size="9.8" lengthAdjust="spacing" textLength="65.8" x="377.65" y="718.9677">-float finalPrice</text><text fill="#000000" font-family="sans-serif" font-size="9.8" lengthAdjust="spacing" textLength="119" x="377.65" y="732.0024">-String announcementDate</text><text fill="#000000" font-family="sans-serif" font-size="9.8" lengthAdjust="spacing" textLength="77" x="377.65" y="745.0372">-Request request</text><line style="stroke:#181818;stroke-width:0.3499999999999999;" x1="374.15" x2="513.45" y1="750.2968" y2="750.2968"/><text fill="#000000" font-family="sans-serif" font-size="9.8" lengthAdjust="spacing" textLength="68.6" x="377.65" y="763.672">+equals(object)</text><text fill="#000000" font-family="sans-serif" font-size="9.8" lengthAdjust="spacing" textLength="36.4" x="377.65" y="776.7067">+clone()</text><text fill="#000000" font-family="sans-serif" font-size="9.8" lengthAdjust="spacing" textLength="46.9" x="377.65" y="789.7415">+toString()</text></g><!--class Request--><g id="elem_Request"><rect codeLine="56" fill="#F1F1F1" height="137.8781" id="Request" rx="1.75" ry="1.75" style="stroke:#181818;stroke-width:0.3499999999999999;" width="116.9" x="574.35" y="637.6187"/><ellipse cx="611.275" cy="648.8187" fill="#ADD1B2" rx="7.7" ry="7.7" style="stroke:#181818;stroke-width:0.6999999999999998;"/><path d="M613.2109,645.9312 Q613.3203,645.778 613.4516,645.7015 Q613.5828,645.6249 613.7359,645.6249 Q613.9984,645.6249 614.1625,645.8108 Q614.3266,645.9858 614.3266,646.4124 L614.3266,647.4296 Q614.3266,647.8562 614.1625,648.0421 Q613.9984,648.228 613.7359,648.228 Q613.4953,648.228 613.3531,648.0858 Q613.2109,647.9546 613.1344,647.5937 Q613.1016,647.3421 612.9703,647.2108 Q612.7406,646.9483 612.3141,646.7952 Q611.8875,646.6421 611.45,646.6421 Q610.9141,646.6421 610.4656,646.8718 Q610.0281,647.1015 609.6781,647.6265 Q609.3391,648.1515 609.3391,648.8733 L609.3391,649.639 Q609.3391,650.503 609.9625,651.0827 Q610.5859,651.6515 611.7016,651.6515 Q612.3578,651.6515 612.8172,651.4765 Q613.0906,651.3671 613.3859,651.0608 Q613.5719,650.8749 613.6703,650.8202 Q613.7797,650.7655 613.9219,650.7655 Q614.1516,650.7655 614.3266,650.9515 Q614.5125,651.1265 614.5125,651.3671 Q614.5125,651.6077 614.2719,651.8921 Q613.9219,652.2968 613.3641,652.5265 Q612.6094,652.8437 611.7016,652.8437 Q610.6406,652.8437 609.7984,652.4062 Q609.1094,652.0562 608.6281,651.3124 Q608.1469,650.5577 608.1469,649.6608 L608.1469,648.8515 Q608.1469,647.9218 608.5734,647.1233 Q609.0109,646.314 609.7766,645.8874 Q610.5422,645.4499 611.4062,645.4499 Q611.9203,645.4499 612.3687,645.5702 Q612.8281,645.6796 613.2109,645.9312 Z " fill="#000000"/><text fill="#000000" font-family="sans-serif" font-size="9.8" lengthAdjust="spacing" textLength="37.1" x="625.625" y="652.8765">Request</text><line style="stroke:#181818;stroke-width:0.3499999999999999;" x1="575.05" x2="690.55" y1="660.0187" y2="660.0187"/><text fill="#000000" font-family="sans-serif" font-size="9.8" lengthAdjust="spacing" textLength="51.1" x="578.55" y="673.3938">-String type</text><text fill="#000000" font-family="sans-serif" font-size="9.8" lengthAdjust="spacing" textLength="46.9" x="578.55" y="686.4286">-float price</text><text fill="#000000" font-family="sans-serif" font-size="9.8" lengthAdjust="spacing" textLength="70.7" x="578.55" y="699.4634">-String priceUnit</text><text fill="#000000" font-family="sans-serif" font-size="9.8" lengthAdjust="spacing" textLength="97.3" x="578.55" y="712.4981">-boolean isItPublished</text><text fill="#000000" font-family="sans-serif" font-size="9.8" lengthAdjust="spacing" textLength="104.3" x="578.55" y="725.5329">-String commissionDate</text><text fill="#000000" font-family="sans-serif" font-size="9.8" lengthAdjust="spacing" textLength="61.6" x="578.55" y="738.5677">-Owner owner</text><text fill="#000000" font-family="sans-serif" font-size="9.8" lengthAdjust="spacing" textLength="108.5" x="578.55" y="751.6024">-String commissionValue</text><text fill="#000000" font-family="sans-serif" font-size="9.8" lengthAdjust="spacing" textLength="53.2" x="578.55" y="764.6372">-int duration</text><line style="stroke:#181818;stroke-width:0.3499999999999999;" x1="575.05" x2="690.55" y1="769.8968" y2="769.8968"/></g><!--class Land--><g id="elem_Land"><rect codeLine="67" fill="#F1F1F1" height="33.6" id="Land" rx="1.75" ry="1.75" style="stroke:#181818;stroke-width:0.3499999999999999;" width="44.8" x="313.6" y="902.5687"/><ellipse cx="324.1" cy="913.7687" fill="#ADD1B2" rx="7.7" ry="7.7" style="stroke:#181818;stroke-width:0.6999999999999998;"/><path d="M326.0359,910.8812 Q326.1453,910.728 326.2766,910.6515 Q326.4078,910.5749 326.5609,910.5749 Q326.8234,910.5749 326.9875,910.7608 Q327.1516,910.9358 327.1516,911.3624 L327.1516,912.3796 Q327.1516,912.8062 326.9875,912.9921 Q326.8234,913.178 326.5609,913.178 Q326.3203,913.178 326.1781,913.0358 Q326.0359,912.9046 325.9594,912.5437 Q325.9266,912.2921 325.7953,912.1608 Q325.5656,911.8983 325.1391,911.7452 Q324.7125,911.5921 324.275,911.5921 Q323.7391,911.5921 323.2906,911.8218 Q322.8531,912.0515 322.5031,912.5765 Q322.1641,913.1015 322.1641,913.8233 L322.1641,914.589 Q322.1641,915.453 322.7875,916.0327 Q323.4109,916.6015 324.5266,916.6015 Q325.1828,916.6015 325.6422,916.4265 Q325.9156,916.3171 326.2109,916.0108 Q326.3969,915.8249 326.4953,915.7702 Q326.6047,915.7155 326.7469,915.7155 Q326.9766,915.7155 327.1516,915.9015 Q327.3375,916.0765 327.3375,916.3171 Q327.3375,916.5577 327.0969,916.8421 Q326.7469,917.2468 326.1891,917.4765 Q325.4344,917.7937 324.5266,917.7937 Q323.4656,917.7937 322.6234,917.3562 Q321.9344,917.0062 321.4531,916.2624 Q320.9719,915.5077 320.9719,914.6108 L320.9719,913.8015 Q320.9719,912.8718 321.3984,912.0733 Q321.8359,911.264 322.6016,910.8374 Q323.3672,910.3999 324.2312,910.3999 Q324.7453,910.3999 325.1937,910.5202 Q325.6531,910.6296 326.0359,910.8812 Z " fill="#000000"/><text fill="#000000" font-family="sans-serif" font-size="9.8" lengthAdjust="spacing" textLength="22.4" x="333.9" y="917.8265">Land</text><line style="stroke:#181818;stroke-width:0.3499999999999999;" x1="314.3" x2="357.7" y1="924.9687" y2="924.9687"/><line style="stroke:#181818;stroke-width:0.3499999999999999;" x1="314.3" x2="357.7" y1="930.5687" y2="930.5687"/></g><!--class Apartment--><g id="elem_Apartment"><rect codeLine="70" fill="#F1F1F1" height="98.7738" id="Apartment" rx="1.75" ry="1.75" style="stroke:#181818;stroke-width:0.3499999999999999;" width="121.1" x="383.25" y="870.0187"/><ellipse cx="418.075" cy="881.2187" fill="#ADD1B2" rx="7.7" ry="7.7" style="stroke:#181818;stroke-width:0.6999999999999998;"/><path d="M420.0109,878.3312 Q420.1203,878.178 420.2516,878.1015 Q420.3828,878.0249 420.5359,878.0249 Q420.7984,878.0249 420.9625,878.2108 Q421.1266,878.3858 421.1266,878.8124 L421.1266,879.8296 Q421.1266,880.2562 420.9625,880.4421 Q420.7984,880.628 420.5359,880.628 Q420.2953,880.628 420.1531,880.4858 Q420.0109,880.3546 419.9344,879.9937 Q419.9016,879.7421 419.7703,879.6108 Q419.5406,879.3483 419.1141,879.1952 Q418.6875,879.0421 418.25,879.0421 Q417.7141,879.0421 417.2656,879.2718 Q416.8281,879.5015 416.4781,880.0265 Q416.1391,880.5515 416.1391,881.2733 L416.1391,882.039 Q416.1391,882.903 416.7625,883.4827 Q417.3859,884.0515 418.5016,884.0515 Q419.1578,884.0515 419.6172,883.8765 Q419.8906,883.7671 420.1859,883.4608 Q420.3719,883.2749 420.4703,883.2202 Q420.5797,883.1655 420.7219,883.1655 Q420.9516,883.1655 421.1266,883.3515 Q421.3125,883.5265 421.3125,883.7671 Q421.3125,884.0077 421.0719,884.2921 Q420.7219,884.6968 420.1641,884.9265 Q419.4094,885.2437 418.5016,885.2437 Q417.4406,885.2437 416.5984,884.8062 Q415.9094,884.4562 415.4281,883.7124 Q414.9469,882.9577 414.9469,882.0608 L414.9469,881.2515 Q414.9469,880.3218 415.3734,879.5233 Q415.8109,878.714 416.5766,878.2874 Q417.3422,877.8499 418.2062,877.8499 Q418.7203,877.8499 419.1687,877.9702 Q419.6281,878.0796 420.0109,878.3312 Z " fill="#000000"/><text fill="#000000" font-family="sans-serif" font-size="9.8" lengthAdjust="spacing" textLength="45.5" x="432.425" y="885.2765">Apartment</text><line style="stroke:#181818;stroke-width:0.3499999999999999;" x1="383.95" x2="503.65" y1="892.4187" y2="892.4187"/><text fill="#000000" font-family="sans-serif" font-size="9.8" lengthAdjust="spacing" textLength="91" x="387.45" y="905.7938">-int numOfBedrooms</text><text fill="#000000" font-family="sans-serif" font-size="9.8" lengthAdjust="spacing" textLength="93.8" x="387.45" y="918.8286">-int numOfBathrooms</text><text fill="#000000" font-family="sans-serif" font-size="9.8" lengthAdjust="spacing" textLength="112.7" x="387.45" y="931.8634">-int numOfParkingSpaces</text><text fill="#000000" font-family="sans-serif" font-size="9.8" lengthAdjust="spacing" textLength="105.7" x="387.45" y="944.8981">-boolean centralHeating</text><text fill="#000000" font-family="sans-serif" font-size="9.8" lengthAdjust="spacing" textLength="108.5" x="387.45" y="957.9329">-boolean airConditioning</text><line style="stroke:#181818;stroke-width:0.3499999999999999;" x1="383.95" x2="503.65" y1="963.1925" y2="963.1925"/></g><!--class House--><g id="elem_House"><rect codeLine="78" fill="#F1F1F1" height="137.8781" id="House" rx="1.75" ry="1.75" style="stroke:#181818;stroke-width:0.3499999999999999;" width="121.1" x="528.85" y="850.4187"/><ellipse cx="572.425" cy="861.6187" fill="#ADD1B2" rx="7.7" ry="7.7" style="stroke:#181818;stroke-width:0.6999999999999998;"/><path d="M574.3609,858.7312 Q574.4703,858.578 574.6016,858.5015 Q574.7328,858.4249 574.8859,858.4249 Q575.1484,858.4249 575.3125,858.6108 Q575.4766,858.7858 575.4766,859.2124 L575.4766,860.2296 Q575.4766,860.6562 575.3125,860.8421 Q575.1484,861.028 574.8859,861.028 Q574.6453,861.028 574.5031,860.8858 Q574.3609,860.7546 574.2844,860.3937 Q574.2516,860.1421 574.1203,860.0108 Q573.8906,859.7483 573.4641,859.5952 Q573.0375,859.4421 572.6,859.4421 Q572.0641,859.4421 571.6156,859.6718 Q571.1781,859.9015 570.8281,860.4265 Q570.4891,860.9515 570.4891,861.6733 L570.4891,862.439 Q570.4891,863.303 571.1125,863.8827 Q571.7359,864.4515 572.8516,864.4515 Q573.5078,864.4515 573.9672,864.2765 Q574.2406,864.1671 574.5359,863.8608 Q574.7219,863.6749 574.8203,863.6202 Q574.9297,863.5655 575.0719,863.5655 Q575.3016,863.5655 575.4766,863.7515 Q575.6625,863.9265 575.6625,864.1671 Q575.6625,864.4077 575.4219,864.6921 Q575.0719,865.0968 574.5141,865.3265 Q573.7594,865.6437 572.8516,865.6437 Q571.7906,865.6437 570.9484,865.2062 Q570.2594,864.8562 569.7781,864.1124 Q569.2969,863.3577 569.2969,862.4608 L569.2969,861.6515 Q569.2969,860.7218 569.7234,859.9233 Q570.1609,859.114 570.9266,858.6874 Q571.6922,858.2499 572.5562,858.2499 Q573.0703,858.2499 573.5187,858.3702 Q573.9781,858.4796 574.3609,858.7312 Z " fill="#000000"/><text fill="#000000" font-family="sans-serif" font-size="9.8" lengthAdjust="spacing" textLength="28" x="586.775" y="865.6765">House</text><line style="stroke:#181818;stroke-width:0.3499999999999999;" x1="529.55" x2="649.25" y1="872.8187" y2="872.8187"/><text fill="#000000" font-family="sans-serif" font-size="9.8" lengthAdjust="spacing" textLength="91" x="533.05" y="886.1938">-int numOfBedrooms</text><text fill="#000000" font-family="sans-serif" font-size="9.8" lengthAdjust="spacing" textLength="93.8" x="533.05" y="899.2286">-int numOfBathrooms</text><text fill="#000000" font-family="sans-serif" font-size="9.8" lengthAdjust="spacing" textLength="112.7" x="533.05" y="912.2634">-int numOfParkingSpaces</text><text fill="#000000" font-family="sans-serif" font-size="9.8" lengthAdjust="spacing" textLength="105.7" x="533.05" y="925.2981">-boolean centralHeating</text><text fill="#000000" font-family="sans-serif" font-size="9.8" lengthAdjust="spacing" textLength="108.5" x="533.05" y="938.3329">-boolean airConditioning</text><text fill="#000000" font-family="sans-serif" font-size="9.8" lengthAdjust="spacing" textLength="85.4" x="533.05" y="951.3677">-boolean basement</text><text fill="#000000" font-family="sans-serif" font-size="9.8" lengthAdjust="spacing" textLength="107.1" x="533.05" y="964.4024">-boolean inhabitableLoft</text><text fill="#000000" font-family="sans-serif" font-size="9.8" lengthAdjust="spacing" textLength="89.6" x="533.05" y="977.4372">-String sunExposure</text><line style="stroke:#181818;stroke-width:0.3499999999999999;" x1="529.55" x2="649.25" y1="982.6968" y2="982.6968"/></g><!--class EditAndSortLists--><g id="elem_EditAndSortLists"><rect codeLine="90" fill="#F1F1F1" height="203.052" id="EditAndSortLists" rx="1.75" ry="1.75" style="stroke:#181818;stroke-width:0.3499999999999999;" width="286.3" x="566.65" y="180.5187"/><ellipse cx="670.425" cy="191.7187" fill="#ADD1B2" rx="7.7" ry="7.7" style="stroke:#181818;stroke-width:0.6999999999999998;"/><path d="M672.3609,188.8312 Q672.4703,188.678 672.6016,188.6015 Q672.7328,188.5249 672.8859,188.5249 Q673.1484,188.5249 673.3125,188.7108 Q673.4766,188.8858 673.4766,189.3124 L673.4766,190.3296 Q673.4766,190.7562 673.3125,190.9421 Q673.1484,191.128 672.8859,191.128 Q672.6453,191.128 672.5031,190.9858 Q672.3609,190.8546 672.2844,190.4937 Q672.2516,190.2421 672.1203,190.1108 Q671.8906,189.8483 671.4641,189.6952 Q671.0375,189.5421 670.6,189.5421 Q670.0641,189.5421 669.6156,189.7718 Q669.1781,190.0015 668.8281,190.5265 Q668.4891,191.0515 668.4891,191.7733 L668.4891,192.539 Q668.4891,193.403 669.1125,193.9827 Q669.7359,194.5515 670.8516,194.5515 Q671.5078,194.5515 671.9672,194.3765 Q672.2406,194.2671 672.5359,193.9608 Q672.7219,193.7749 672.8203,193.7202 Q672.9297,193.6655 673.0719,193.6655 Q673.3016,193.6655 673.4766,193.8515 Q673.6625,194.0265 673.6625,194.2671 Q673.6625,194.5077 673.4219,194.7921 Q673.0719,195.1968 672.5141,195.4265 Q671.7594,195.7437 670.8516,195.7437 Q669.7906,195.7437 668.9484,195.3062 Q668.2594,194.9562 667.7781,194.2124 Q667.2969,193.4577 667.2969,192.5608 L667.2969,191.7515 Q667.2969,190.8218 667.7234,190.0233 Q668.1609,189.214 668.9266,188.7874 Q669.6922,188.3499 670.5562,188.3499 Q671.0703,188.3499 671.5187,188.4702 Q671.9781,188.5796 672.3609,188.8312 Z " fill="#000000"/><text fill="#000000" font-family="sans-serif" font-size="9.8" lengthAdjust="spacing" textLength="72.8" x="684.775" y="195.7765">EditAndSortLists</text><line style="stroke:#181818;stroke-width:0.3499999999999999;" x1="567.35" x2="852.25" y1="202.9187" y2="202.9187"/><line style="stroke:#181818;stroke-width:0.3499999999999999;" x1="567.35" x2="852.25" y1="208.5187" y2="208.5187"/><text fill="#000000" font-family="sans-serif" font-size="9.8" lengthAdjust="spacing" textLength="226.8" x="570.85" y="221.8938">+getPropertiesWithXTypeOfSale(propertyList, type)</text><text fill="#000000" font-family="sans-serif" font-size="9.8" lengthAdjust="spacing" textLength="189.7" x="570.85" y="234.9286">+getPropertiesIfTheyAreLand(propertyList)</text><text fill="#000000" font-family="sans-serif" font-size="9.8" lengthAdjust="spacing" textLength="212.8" x="570.85" y="247.9634">+getPropertiesIfTheyAreApartment(propertyList)</text><text fill="#000000" font-family="sans-serif" font-size="9.8" lengthAdjust="spacing" textLength="195.3" x="570.85" y="260.9981">+getPropertiesIfTheyAreHouse(propertyList)</text><text fill="#000000" font-family="sans-serif" font-size="9.8" lengthAdjust="spacing" textLength="216.3" x="570.85" y="274.0329">getPropertiesByXAgent(propertyList, agentEmail)</text><text fill="#000000" font-family="sans-serif" font-size="9.8" lengthAdjust="spacing" textLength="207.2" x="570.85" y="287.0677">+sortPropertiesByAscendingPrice(propertyList)</text><text fill="#000000" font-family="sans-serif" font-size="9.8" lengthAdjust="spacing" textLength="213.5" x="570.85" y="300.1024">+sortPropertiesByDescendingPrice(propertyList)</text><text fill="#000000" font-family="sans-serif" font-size="9.8" lengthAdjust="spacing" textLength="205.8" x="570.85" y="313.1372">+sortPropertiesByAscendingArea(propertyList)</text><text fill="#000000" font-family="sans-serif" font-size="9.8" lengthAdjust="spacing" textLength="212.1" x="570.85" y="326.172">+sortPropertiesByDescendingArea(propertyList)</text><text fill="#000000" font-family="sans-serif" font-size="9.8" lengthAdjust="spacing" textLength="223.3" x="570.85" y="339.2067">+sortPropertiesByAscendingDistance(propertyList)</text><text fill="#000000" font-family="sans-serif" font-size="9.8" lengthAdjust="spacing" textLength="229.6" x="570.85" y="352.2415">+sortPropertiesByDescendingDistance(propertyList)</text><text fill="#000000" font-family="sans-serif" font-size="9.8" lengthAdjust="spacing" textLength="271.6" x="570.85" y="365.2763">+sortPropertiesByAscendingNumOfPhotographs(propertyList)</text><text fill="#000000" font-family="sans-serif" font-size="9.8" lengthAdjust="spacing" textLength="277.9" x="570.85" y="378.311">+sortPropertiesByDescendingNumOfPhotographs(propertyList)</text></g><!--link UnregisteredUser to ListPropertiesUI--><g id="link_UnregisteredUser_ListPropertiesUI"><path codeLine="107" d="M74.851,88.4827 C86.436,96.9947 101.696,106.4447 117.075,110.8687 C139.349,117.2807 198.52,114.7117 221.375,110.8687 C232.806,108.9437 244.629,106.0037 256.13,102.5737 " fill="none" id="UnregisteredUser-to-ListPropertiesUI" style="stroke:#181818;stroke-width:0.6999999999999998;"/><polygon fill="#181818" points="259.686,101.4957,252.8459,100.6334,256.335,102.506,254.4624,105.995,259.686,101.4957" style="stroke:#181818;stroke-width:0.6999999999999998;"/><text fill="#000000" font-family="sans-serif" font-size="9.1" lengthAdjust="spacing" textLength="2.8" x="167.825" y="84.2885">&#160;</text><text fill="#000000" font-family="sans-serif" font-size="9.1" lengthAdjust="spacing" textLength="2.8" x="167.825" y="96.3922">&#160;</text><text fill="#000000" font-family="sans-serif" font-size="9.1" lengthAdjust="spacing" textLength="102.9" x="117.775" y="108.4959">requests to list properties</text></g><!--link ListPropertiesUI to UnregisteredUser--><g id="link_ListPropertiesUI_UnregisteredUser"><path codeLine="109" d="M234.017,71.6687 C191.429,71.6687 143.542,71.6687 107.961,71.6687 " fill="none" id="ListPropertiesUI-to-UnregisteredUser" style="stroke:#181818;stroke-width:0.6999999999999998;"/><polygon fill="#181818" points="104.335,71.6687,110.635,74.4687,107.835,71.6687,110.635,68.8687,104.335,71.6687" style="stroke:#181818;stroke-width:0.6999999999999998;"/><text fill="#000000" font-family="sans-serif" font-size="9.1" lengthAdjust="spacing" textLength="66.5" x="135.975" y="42.9885">asks about what</text><text fill="#000000" font-family="sans-serif" font-size="9.1" lengthAdjust="spacing" textLength="104.3" x="117.075" y="55.0922">filters and sorting settings</text><text fill="#000000" font-family="sans-serif" font-size="9.1" lengthAdjust="spacing" textLength="39.2" x="149.625" y="67.1959">they want</text></g><!--link ListPropertiesUI to ListPropertyController--><g id="link_ListPropertiesUI_ListPropertyController"><path codeLine="110" d="M282.065,101.5167 C275.317,107.5297 269.353,114.4877 265.3,122.4187 C257.796,137.0977 261.086,143.5797 265.3,159.5187 C273.994,192.3837 293.846,225.6547 310.079,249.1047 " fill="none" id="ListPropertiesUI-to-ListPropertyController" style="stroke:#181818;stroke-width:0.6999999999999998;"/><polygon fill="#181818" points="312.242,252.1987,310.9215,245.4321,310.2342,249.3318,306.3345,248.6446,312.242,252.1987" style="stroke:#181818;stroke-width:0.6999999999999998;"/><text fill="#000000" font-family="sans-serif" font-size="9.1" lengthAdjust="spacing" textLength="54.6" x="291.2" y="132.9385">tells it to filter</text><text fill="#000000" font-family="sans-serif" font-size="9.1" lengthAdjust="spacing" textLength="105" x="266" y="145.0422">and sort the list according</text><text fill="#000000" font-family="sans-serif" font-size="9.1" lengthAdjust="spacing" textLength="87.5" x="274.75" y="157.1459">to the agent's request</text></g><!--link ListPropertiesUI to ListPropertyController--><g id="link_ListPropertiesUI_ListPropertyController"><path codeLine="115" d="M363.111,101.6077 C367.787,108.0057 371.931,115.0757 374.5,122.4187 C389.48,165.2447 370.3,216.4007 353.71,248.8737 " fill="none" id="ListPropertiesUI-to-ListPropertyController-1" style="stroke:#181818;stroke-width:0.6999999999999998;"/><polygon fill="#181818" points="352.016,252.1497,357.3989,247.8421,353.6251,249.0415,352.4258,245.2676,352.016,252.1497" style="stroke:#181818;stroke-width:0.6999999999999998;"/><text fill="#000000" font-family="sans-serif" font-size="9.1" lengthAdjust="spacing" textLength="17.5" x="380.8" y="144.8385">runs</text></g><!--link ListPropertyController to EditAndSortLists--><g id="link_ListPropertyController_EditAndSortLists"><path codeLine="112" d="M425.425,282.0187 C466.697,282.0187 516.572,282.0187 562.954,282.0187 " fill="none" id="ListPropertyController-to-EditAndSortLists" style="stroke:#181818;stroke-width:0.6999999999999998;"/><polygon fill="#181818" points="566.573,282.0187,560.273,279.2187,563.073,282.0187,560.273,284.8187,566.573,282.0187" style="stroke:#181818;stroke-width:0.6999999999999998;"/><text fill="#000000" font-family="sans-serif" font-size="9.1" lengthAdjust="spacing" textLength="115.5" x="438.2" y="265.2385">runs the necessary methods</text><text fill="#000000" font-family="sans-serif" font-size="9.1" lengthAdjust="spacing" textLength="93.1" x="449.4" y="277.3422">for the requested result</text></g><!--link ListPropertiesUI to ListPropertiesUI--><g id="link_ListPropertiesUI_ListPropertiesUI"><path codeLine="114" d="M435.099,60.0627 C449.708,61.9037 459.55,65.7747 459.55,71.6687 C459.55,77.0587 451.325,80.7547 438.753,82.7567 " fill="none" id="ListPropertiesUI-to-ListPropertiesUI" style="stroke:#181818;stroke-width:0.6999999999999998;"/><polygon fill="#181818" points="435.099,83.2747,441.7286,85.1663,438.5646,82.7853,440.9456,79.6213,435.099,83.2747" style="stroke:#181818;stroke-width:0.6999999999999998;"/><text fill="#000000" font-family="sans-serif" font-size="9.1" lengthAdjust="spacing" textLength="87.5" x="463.75" y="69.5885">implements Runnable</text><text fill="#000000" font-family="sans-serif" font-size="9.1" lengthAdjust="spacing" textLength="34.3" x="490.35" y="81.6922">interface</text></g><!--link ListPropertyController to Repositories--><g id="link_ListPropertyController_Repositories"><path codeLine="116" d="M320.418,311.9087 C302.015,349.7787 269.724,416.2367 248.122,460.6937 " fill="none" id="ListPropertyController-to-Repositories" style="stroke:#181818;stroke-width:0.6999999999999998;"/><polygon fill="#181818" points="246.589,463.8507,251.8601,459.4071,248.1182,460.7024,246.8229,456.9604,246.589,463.8507" style="stroke:#181818;stroke-width:0.6999999999999998;"/><text fill="#000000" font-family="sans-serif" font-size="9.1" lengthAdjust="spacing" textLength="17.5" x="288.4" y="415.0385">gets</text><text fill="#000000" font-family="sans-serif" font-size="9.1" lengthAdjust="spacing" textLength="44.1" x="275.1" y="427.1422">instance of</text></g><!--link Repositories to PropertyRepository--><g id="link_Repositories_PropertyRepository"><path codeLine="117" d="M318.738,506.7187 C337.617,506.7187 357.161,506.7187 375.032,506.7187 " fill="none" id="Repositories-to-PropertyRepository" style="stroke:#181818;stroke-width:0.6999999999999998;"/><polygon fill="#181818" points="378.581,506.7187,372.281,503.9187,375.081,506.7187,372.281,509.5187,378.581,506.7187" style="stroke:#181818;stroke-width:0.6999999999999998;"/><text fill="#000000" font-family="sans-serif" font-size="9.1" lengthAdjust="spacing" textLength="34.3" x="331.45" y="501.8385">contains</text></g><!--link ListPropertyController to PropertyRepository--><g id="link_ListPropertyController_PropertyRepository"><path codeLine="118" d="M348.873,311.9087 C365.61,346.1317 393.764,403.6997 415.072,447.2817 " fill="none" id="ListPropertyController-to-PropertyRepository" style="stroke:#181818;stroke-width:0.6999999999999998;"/><polygon fill="#181818" points="416.724,450.6557,416.4725,443.766,415.1868,447.5113,411.4415,446.2256,416.724,450.6557" style="stroke:#181818;stroke-width:0.6999999999999998;"/><text fill="#000000" font-family="sans-serif" font-size="9.1" lengthAdjust="spacing" textLength="53.2" x="406.7" y="415.0385">gets property</text><text fill="#000000" font-family="sans-serif" font-size="9.1" lengthAdjust="spacing" textLength="32.2" x="417.2" y="427.1422">list from</text></g><!--link PropertyRepository to Property--><g id="link_PropertyRepository_Property"><path codeLine="120" d="M443.8,562.9637 C443.8,578.9797 443.8,596.8927 443.8,614.4767 " fill="none" id="PropertyRepository-to-Property" style="stroke:#181818;stroke-width:0.6999999999999998;"/><polygon fill="#181818" points="443.8,617.9907,446.6,611.6907,443.8,614.4907,441,611.6907,443.8,617.9907" style="stroke:#181818;stroke-width:0.6999999999999998;"/><text fill="#000000" font-family="sans-serif" font-size="9.1" lengthAdjust="spacing" textLength="34.3" x="444.5" y="594.2385">contains</text></g><!--link Property to Request--><g id="link_Property_Request"><path codeLine="122" d="M514.178,706.5687 C532.672,706.5687 552.496,706.5687 570.535,706.5687 " fill="none" id="Property-to-Request" style="stroke:#181818;stroke-width:0.6999999999999998;"/><polygon fill="#181818" points="574.119,706.5687,567.819,703.7687,570.619,706.5687,567.819,709.3687,574.119,706.5687" style="stroke:#181818;stroke-width:0.6999999999999998;"/><text fill="#000000" font-family="sans-serif" font-size="9.1" lengthAdjust="spacing" textLength="34.3" x="527.1" y="701.6885">contains</text></g><!--link Property to Apartment--><g id="link_Property_Apartment"><path codeLine="124" d="M443.8,795.3917 C443.8,819.4857 443.8,844.8397 443.8,866.2457 " fill="none" id="Property-to-Apartment" style="stroke:#181818;stroke-width:0.6999999999999998;"/><polygon fill="#181818" points="443.8,869.9137,446.6,863.6137,443.8,866.4137,441,863.6137,443.8,869.9137" style="stroke:#181818;stroke-width:0.6999999999999998;"/><text fill="#000000" font-family="sans-serif" font-size="9.1" lengthAdjust="spacing" textLength="27.3" x="444.5" y="826.6385">can be</text></g><!--link Property to House--><g id="link_Property_House"><path codeLine="125" d="M504.49,795.3917 C516.446,812.7377 528.843,830.7417 540.351,847.4507 " fill="none" id="Property-to-House" style="stroke:#181818;stroke-width:0.6999999999999998;"/><polygon fill="#181818" points="542.339,850.3347,541.0612,843.5599,540.3494,847.4552,536.4541,846.7433,542.339,850.3347" style="stroke:#181818;stroke-width:0.6999999999999998;"/><text fill="#000000" font-family="sans-serif" font-size="9.1" lengthAdjust="spacing" textLength="27.3" x="525.7" y="826.6385">can be</text></g><!--link Property to Land--><g id="link_Property_Land"><path codeLine="126" d="M398.867,795.3917 C379.26,833.8287 358.029,875.4647 345.94,899.1737 " fill="none" id="Property-to-Land" style="stroke:#181818;stroke-width:0.6999999999999998;"/><polygon fill="#181818" points="344.225,902.5407,349.5803,898.1989,345.8142,899.4222,344.5908,895.6562,344.225,902.5407" style="stroke:#181818;stroke-width:0.6999999999999998;"/><text fill="#000000" font-family="sans-serif" font-size="9.1" lengthAdjust="spacing" textLength="27.3" x="387.8" y="826.6385">can be</text></g><!--SRC=[nLPDR-Cs4BthL_3M55i3wTKe5l0cMQo1HHFKSRj0NGHZQMIneKYLf9gwHlzx7ocBbcsbwvnwiKpEp9ll6RfdgHkoL8k6ycVQyC9l5GlBkIUzKPovnE0gAioBr1jHad93Igx8kPdtLgvRp_FSw8NycyLrbddfWRPSN5z_BswbQnHjnMVfF1VYmPg6hPVin4JS10Hmq0PuMHO1nL9RtWHcoyNIiHMxxEdfAVkdfmUW0yfo3lhWQdjZjBT6AGYgqUk8ziws-khRKT0XmYxhBt_YnZZfZTsAvkogWsoir0FB7asmVgWa2GJlTzdaw2orG-nppYPlKBbXFz_BGL4udWiFBHY1XXt1-HzwqljU6Opgb4XtLpS-uBoZehZgRS7nJrAo8C-zx91s4erZyxeBc0KUjYNbd4mB1fNAa1TacRB90lM5ubCc9o-Dxec5xDp-Q4rz8v4qHj8GlDa6VmI5tspoKIh-zJVHLCORb5XJkLwyb9hKWvKXtdiDfBLfWLX3z1PEXVpyqRBpQ8luxQA1_-Y3AxF-7Sq2ft9bT0o-DntGSSQZv2ufyTk6UnkQ8_NnjDGIPg-DKKnQI3Vt3-qQPLnnaHXpKzVIESIYi_B-HQDIJVWTuVcPL0icn5aKhUr2UAXwqiNkS9oXhtrmF-GWIEYslYy_S66DgTtmYdnrUlT05fDXiy10GU4a7_AG5rAV6Ahrvd1FqgBF2XaC2eHan2VJEluV34Y4DRbO0uCyw8hMqjDQyMTJ-XHbr-gxlz18BGeFzkyTk0FcJ1SBOtreBBTBhNee_b-ahxuyeXRkomKfJdqJ1BwBHNBQBlFoiUBjp7B8sH7_gvmfdPUnny2Vi1vnVjX-YTrrOctijRkQf0AqWzT3YPb3_0i4A_RQgI6dtBVy9lO43klfSknBk1FqxNxEN0v_gKHIyMEitiECkbpLLoHHasVBTFB-V85EnKglz7xAEU5Dt9p3FP2ToKm0T0O-5UIUdQ2rQRrugSYlT2aLwBZJXGYEnBvX7xvkfJrAJxmGccrKmIjRUIeyAuMLwOEjdOQLxZK8W7OEK9uR6-84HIPUnrhzngM9_jhB0RfFsnXQyMPm4KOpHemZRC-QVMKAU58Q6qbxPBnqBBjM-UohdlKva7MZuk31scYr3jDcfTD-V6E0WgclEWV1ewV7LA3FNL3MLQumPNR4086HbyCKQqPxal-jQLGmw4kFcfMEsIgnoREnzzOGPQWqyOheKBUhn-bWE2mti8GnpyVqRk-CqyBCFP2oVm40]--></g></svg>