<?xml version="1.0" encoding="us-ascii" standalone="no"?><svg xmlns="http://www.w3.org/2000/svg" xmlns:xlink="http://www.w3.org/1999/xlink" contentStyleType="text/css" height="723px" preserveAspectRatio="none" style="width:1205px;height:723px;background:#FFFFFF;" version="1.1" viewBox="0 0 1205 723" width="1205px" zoomAndPan="magnify"><defs/><g><text fill="#000000" font-family="sans-serif" font-size="14" font-weight="bold" lengthAdjust="spacing" textLength="279" x="462" y="30.1074">User Story 002 - Sequence Diagram (SD)</text><rect fill="#FFFFFF" height="40.582" style="stroke:#181818;stroke-width:1.0;" width="10" x="23.5" y="133.2422"/><rect fill="#FFFFFF" height="457.7344" style="stroke:#181818;stroke-width:1.0;" width="10" x="151.5" y="173.8242"/><rect fill="#FFFFFF" height="74.9121" style="stroke:#181818;stroke-width:1.0;" width="10" x="278.5" y="222.4063"/><rect fill="#FFFFFF" height="31.291" style="stroke:#181818;stroke-width:1.0;" width="10" x="416.5" y="297.3184"/><rect fill="#FFFFFF" height="74.9121" style="stroke:#181818;stroke-width:1.0;" width="10" x="529.5" y="328.6094"/><rect fill="#FFFFFF" height="228.0371" style="stroke:#181818;stroke-width:1.0;" width="10" x="699.5" y="403.5215"/><rect fill="#FFFFFF" height="31.291" style="stroke:#181818;stroke-width:1.0;" width="10" x="841" y="434.8125"/><rect fill="#FFFFFF" height="31.291" style="stroke:#181818;stroke-width:1.0;" width="10" x="942.5" y="497.3945"/><rect fill="#FFFFFF" height="31.291" style="stroke:#181818;stroke-width:1.0;" width="10" x="1097.5" y="559.9766"/><line style="stroke:#181818;stroke-width:0.5;stroke-dasharray:5.0,5.0;" x1="28" x2="28" y1="123.2422" y2="640.5586"/><line style="stroke:#181818;stroke-width:0.5;stroke-dasharray:5.0,5.0;" x1="156" x2="156" y1="123.2422" y2="640.5586"/><line style="stroke:#181818;stroke-width:0.5;stroke-dasharray:5.0,5.0;" x1="283" x2="283" y1="123.2422" y2="640.5586"/><line style="stroke:#181818;stroke-width:0.5;stroke-dasharray:5.0,5.0;" x1="421" x2="421" y1="262.2168" y2="640.5586"/><line style="stroke:#181818;stroke-width:0.5;stroke-dasharray:5.0,5.0;" x1="534" x2="534" y1="123.2422" y2="640.5586"/><line style="stroke:#181818;stroke-width:0.5;stroke-dasharray:5.0,5.0;" x1="704" x2="704" y1="368.4199" y2="640.5586"/><line style="stroke:#181818;stroke-width:0.5;stroke-dasharray:5.0,5.0;" x1="846" x2="846" y1="123.2422" y2="640.5586"/><line style="stroke:#181818;stroke-width:0.5;stroke-dasharray:5.0,5.0;" x1="947" x2="947" y1="123.2422" y2="640.5586"/><line style="stroke:#181818;stroke-width:0.5;stroke-dasharray:5.0,5.0;" x1="1102" x2="1102" y1="123.2422" y2="640.5586"/><text fill="#000000" font-family="sans-serif" font-size="14" lengthAdjust="spacing" textLength="41" x="5" y="119.7285">Owner</text><ellipse cx="28.5" cy="53.1211" fill="#E2E2F0" rx="8" ry="8" style="stroke:#181818;stroke-width:0.5;"/><path d="M28.5,61.1211 L28.5,88.1211 M15.5,69.1211 L41.5,69.1211 M28.5,88.1211 L15.5,103.1211 M28.5,88.1211 L41.5,103.1211 " fill="none" style="stroke:#181818;stroke-width:0.5;"/><text fill="#000000" font-family="sans-serif" font-size="14" lengthAdjust="spacing" textLength="41" x="5" y="654.666">Owner</text><ellipse cx="28.5" cy="666.6797" fill="#E2E2F0" rx="8" ry="8" style="stroke:#181818;stroke-width:0.5;"/><path d="M28.5,674.6797 L28.5,701.6797 M15.5,682.6797 L41.5,682.6797 M28.5,701.6797 L15.5,716.6797 M28.5,701.6797 L41.5,716.6797 " fill="none" style="stroke:#181818;stroke-width:0.5;"/><text fill="#000000" font-family="sans-serif" font-size="14" lengthAdjust="spacing" textLength="37" x="135" y="119.7285">Agent</text><ellipse cx="156.5" cy="53.1211" fill="#E2E2F0" rx="8" ry="8" style="stroke:#181818;stroke-width:0.5;"/><path d="M156.5,61.1211 L156.5,88.1211 M143.5,69.1211 L169.5,69.1211 M156.5,88.1211 L143.5,103.1211 M156.5,88.1211 L169.5,103.1211 " fill="none" style="stroke:#181818;stroke-width:0.5;"/><text fill="#000000" font-family="sans-serif" font-size="14" lengthAdjust="spacing" textLength="37" x="135" y="654.666">Agent</text><ellipse cx="156.5" cy="666.6797" fill="#E2E2F0" rx="8" ry="8" style="stroke:#181818;stroke-width:0.5;"/><path d="M156.5,674.6797 L156.5,701.6797 M143.5,682.6797 L169.5,682.6797 M156.5,701.6797 L143.5,716.6797 M156.5,701.6797 L169.5,716.6797 " fill="none" style="stroke:#181818;stroke-width:0.5;"/><rect fill="#E2E2F0" height="32.6211" rx="2.5" ry="2.5" style="stroke:#181818;stroke-width:0.5;" width="69" x="249" y="89.6211"/><text fill="#000000" font-family="sans-serif" font-size="14" lengthAdjust="spacing" textLength="55" x="256" y="111.7285">:AdminUI</text><rect fill="#E2E2F0" height="32.6211" rx="2.5" ry="2.5" style="stroke:#181818;stroke-width:0.5;" width="69" x="249" y="639.5586"/><text fill="#000000" font-family="sans-serif" font-size="14" lengthAdjust="spacing" textLength="55" x="256" y="661.666">:AdminUI</text><rect fill="#E2E2F0" height="32.6211" rx="2.5" ry="2.5" style="stroke:#181818;stroke-width:0.5;" width="79" x="382" y="639.5586"/><text fill="#000000" font-family="sans-serif" font-size="14" lengthAdjust="spacing" textLength="65" x="389" y="661.666">:MenuItem</text><rect fill="#E2E2F0" height="32.6211" rx="2.5" ry="2.5" style="stroke:#181818;stroke-width:0.5;" width="127" x="471" y="89.6211"/><text fill="#000000" font-family="sans-serif" font-size="14" lengthAdjust="spacing" textLength="113" x="478" y="111.7285">:SetCommissionUI</text><rect fill="#E2E2F0" height="32.6211" rx="2.5" ry="2.5" style="stroke:#181818;stroke-width:0.5;" width="127" x="471" y="639.5586"/><text fill="#000000" font-family="sans-serif" font-size="14" lengthAdjust="spacing" textLength="113" x="478" y="661.666">:SetCommissionUI</text><rect fill="#E2E2F0" height="32.6211" rx="2.5" ry="2.5" style="stroke:#181818;stroke-width:0.5;" width="177" x="616" y="639.5586"/><text fill="#000000" font-family="sans-serif" font-size="14" lengthAdjust="spacing" textLength="163" x="623" y="661.666">:SetCommissionController</text><rect fill="#E2E2F0" height="32.6211" rx="2.5" ry="2.5" style="stroke:#181818;stroke-width:0.5;" width="86" x="803" y="89.6211"/><text fill="#000000" font-family="sans-serif" font-size="14" lengthAdjust="spacing" textLength="72" x="810" y="111.7285">:Repository</text><rect fill="#E2E2F0" height="32.6211" rx="2.5" ry="2.5" style="stroke:#181818;stroke-width:0.5;" width="86" x="803" y="639.5586"/><text fill="#000000" font-family="sans-serif" font-size="14" lengthAdjust="spacing" textLength="72" x="810" y="661.666">:Repository</text><rect fill="#E2E2F0" height="51.2422" rx="2.5" ry="2.5" style="stroke:#181818;stroke-width:0.5;" width="97" x="899" y="71"/><text fill="#000000" font-family="sans-serif" font-size="14" lengthAdjust="spacing" textLength="74" x="910.5" y="93.1074">repositories</text><text fill="#000000" font-family="sans-serif" font-size="14" lengthAdjust="spacing" textLength="83" x="906" y="111.7285">:Repositories</text><rect fill="#E2E2F0" height="51.2422" rx="2.5" ry="2.5" style="stroke:#181818;stroke-width:0.5;" width="97" x="899" y="639.5586"/><text fill="#000000" font-family="sans-serif" font-size="14" lengthAdjust="spacing" textLength="74" x="910.5" y="661.666">repositories</text><text fill="#000000" font-family="sans-serif" font-size="14" lengthAdjust="spacing" textLength="83" x="906" y="680.2871">:Repositories</text><rect fill="#E2E2F0" height="32.6211" rx="2.5" ry="2.5" style="stroke:#181818;stroke-width:0.5;" width="193" x="1006" y="89.6211"/><text fill="#000000" font-family="sans-serif" font-size="14" lengthAdjust="spacing" textLength="179" x="1013" y="111.7285">:PropertyRequestRepository</text><rect fill="#E2E2F0" height="32.6211" rx="2.5" ry="2.5" style="stroke:#181818;stroke-width:0.5;" width="193" x="1006" y="639.5586"/><text fill="#000000" font-family="sans-serif" font-size="14" lengthAdjust="spacing" textLength="179" x="1013" y="661.666">:PropertyRequestRepository</text><rect fill="#FFFFFF" height="40.582" style="stroke:#181818;stroke-width:1.0;" width="10" x="23.5" y="133.2422"/><rect fill="#FFFFFF" height="457.7344" style="stroke:#181818;stroke-width:1.0;" width="10" x="151.5" y="173.8242"/><rect fill="#FFFFFF" height="74.9121" style="stroke:#181818;stroke-width:1.0;" width="10" x="278.5" y="222.4063"/><rect fill="#FFFFFF" height="31.291" style="stroke:#181818;stroke-width:1.0;" width="10" x="416.5" y="297.3184"/><rect fill="#FFFFFF" height="74.9121" style="stroke:#181818;stroke-width:1.0;" width="10" x="529.5" y="328.6094"/><rect fill="#FFFFFF" height="228.0371" style="stroke:#181818;stroke-width:1.0;" width="10" x="699.5" y="403.5215"/><rect fill="#FFFFFF" height="31.291" style="stroke:#181818;stroke-width:1.0;" width="10" x="841" y="434.8125"/><rect fill="#FFFFFF" height="31.291" style="stroke:#181818;stroke-width:1.0;" width="10" x="942.5" y="497.3945"/><rect fill="#FFFFFF" height="31.291" style="stroke:#181818;stroke-width:1.0;" width="10" x="1097.5" y="559.9766"/><polygon fill="#181818" points="139.5,169.8242,149.5,173.8242,139.5,177.8242,143.5,173.8242" style="stroke:#181818;stroke-width:1.0;"/><line style="stroke:#181818;stroke-width:1.0;" x1="28.5" x2="145.5" y1="173.8242" y2="173.8242"/><text fill="#000000" font-family="sans-serif" font-size="13" font-weight="bold" lengthAdjust="spacing" textLength="7" x="35.5" y="159.916">1</text><text fill="#000000" font-family="sans-serif" font-size="13" lengthAdjust="spacing" textLength="88" x="46.5" y="151.2705">sends Property</text><text fill="#000000" font-family="sans-serif" font-size="13" lengthAdjust="spacing" textLength="71" x="46.5" y="168.5615">Request to..</text><polygon fill="#181818" points="266.5,218.4063,276.5,222.4063,266.5,226.4063,270.5,222.4063" style="stroke:#181818;stroke-width:1.0;"/><line style="stroke:#181818;stroke-width:1.0;" x1="161.5" x2="272.5" y1="222.4063" y2="222.4063"/><text fill="#000000" font-family="sans-serif" font-size="13" font-weight="bold" lengthAdjust="spacing" textLength="7" x="168.5" y="208.498">2</text><text fill="#000000" font-family="sans-serif" font-size="13" lengthAdjust="spacing" textLength="87" x="179.5" y="199.8525">requests to set</text><text fill="#000000" font-family="sans-serif" font-size="13" lengthAdjust="spacing" textLength="77" x="179.5" y="217.1436">commissions</text><polygon fill="#181818" points="370,249.6973,380,253.6973,370,257.6973,374,253.6973" style="stroke:#181818;stroke-width:1.0;"/><line style="stroke:#181818;stroke-width:1.0;" x1="288.5" x2="376" y1="253.6973" y2="253.6973"/><text fill="#000000" font-family="sans-serif" font-size="13" font-weight="bold" lengthAdjust="spacing" textLength="7" x="295.5" y="248.4346">3</text><text fill="#000000" font-family="sans-serif" font-size="13" lengthAdjust="spacing" textLength="36" x="306.5" y="248.4346">create</text><rect fill="#E2E2F0" height="32.6211" rx="2.5" ry="2.5" style="stroke:#181818;stroke-width:0.5;" width="79" x="382" y="230.4063"/><text fill="#000000" font-family="sans-serif" font-size="14" lengthAdjust="spacing" textLength="65" x="389" y="252.5137">:MenuItem</text><polygon fill="#181818" points="404.5,293.3184,414.5,297.3184,404.5,301.3184,408.5,297.3184" style="stroke:#181818;stroke-width:1.0;"/><line style="stroke:#181818;stroke-width:1.0;" x1="283.5" x2="410.5" y1="297.3184" y2="297.3184"/><text fill="#000000" font-family="sans-serif" font-size="13" font-weight="bold" lengthAdjust="spacing" textLength="7" x="290.5" y="292.0557">4</text><text fill="#000000" font-family="sans-serif" font-size="13" lengthAdjust="spacing" textLength="98" x="301.5" y="292.0557">setCommission()</text><polygon fill="#181818" points="517.5,324.6094,527.5,328.6094,517.5,332.6094,521.5,328.6094" style="stroke:#181818;stroke-width:1.0;"/><line style="stroke:#181818;stroke-width:1.0;" x1="421.5" x2="523.5" y1="328.6094" y2="328.6094"/><text fill="#000000" font-family="sans-serif" font-size="13" font-weight="bold" lengthAdjust="spacing" textLength="7" x="428.5" y="323.3467">5</text><text fill="#000000" font-family="sans-serif" font-size="13" lengthAdjust="spacing" textLength="26" x="439.5" y="323.3467">run()</text><polygon fill="#181818" points="604,355.9004,614,359.9004,604,363.9004,608,359.9004" style="stroke:#181818;stroke-width:1.0;"/><line style="stroke:#181818;stroke-width:1.0;" x1="539.5" x2="610" y1="359.9004" y2="359.9004"/><text fill="#000000" font-family="sans-serif" font-size="13" font-weight="bold" lengthAdjust="spacing" textLength="7" x="546.5" y="354.6377">6</text><text fill="#000000" font-family="sans-serif" font-size="13" lengthAdjust="spacing" textLength="36" x="557.5" y="354.6377">create</text><rect fill="#E2E2F0" height="32.6211" rx="2.5" ry="2.5" style="stroke:#181818;stroke-width:0.5;" width="177" x="616" y="336.6094"/><text fill="#000000" font-family="sans-serif" font-size="14" lengthAdjust="spacing" textLength="163" x="623" y="358.7168">:SetCommissionController</text><polygon fill="#181818" points="687.5,399.5215,697.5,403.5215,687.5,407.5215,691.5,403.5215" style="stroke:#181818;stroke-width:1.0;"/><line style="stroke:#181818;stroke-width:1.0;" x1="534.5" x2="693.5" y1="403.5215" y2="403.5215"/><text fill="#000000" font-family="sans-serif" font-size="13" font-weight="bold" lengthAdjust="spacing" textLength="7" x="541.5" y="398.2588">7</text><text fill="#000000" font-family="sans-serif" font-size="13" lengthAdjust="spacing" textLength="130" x="552.5" y="398.2588">getPropertyRequests()</text><polygon fill="#181818" points="829,430.8125,839,434.8125,829,438.8125,833,434.8125" style="stroke:#181818;stroke-width:1.0;"/><line style="stroke:#181818;stroke-width:1.0;" x1="709.5" x2="835" y1="434.8125" y2="434.8125"/><text fill="#000000" font-family="sans-serif" font-size="13" font-weight="bold" lengthAdjust="spacing" textLength="7" x="716.5" y="429.5498">8</text><text fill="#000000" font-family="sans-serif" font-size="13" lengthAdjust="spacing" textLength="75" x="727.5" y="429.5498">getInstance()</text><polygon fill="#181818" points="720.5,462.1035,710.5,466.1035,720.5,470.1035,716.5,466.1035" style="stroke:#181818;stroke-width:1.0;"/><line style="stroke:#181818;stroke-width:1.0;stroke-dasharray:2.0,2.0;" x1="714.5" x2="845" y1="466.1035" y2="466.1035"/><text fill="#000000" font-family="sans-serif" font-size="13" font-weight="bold" lengthAdjust="spacing" textLength="7" x="726.5" y="460.8408">9</text><text fill="#000000" font-family="sans-serif" font-size="13" lengthAdjust="spacing" textLength="67" x="737.5" y="460.8408">repositories</text><polygon fill="#181818" points="930.5,493.3945,940.5,497.3945,930.5,501.3945,934.5,497.3945" style="stroke:#181818;stroke-width:1.0;"/><line style="stroke:#181818;stroke-width:1.0;" x1="709.5" x2="936.5" y1="497.3945" y2="497.3945"/><text fill="#000000" font-family="sans-serif" font-size="13" font-weight="bold" lengthAdjust="spacing" textLength="14" x="716.5" y="492.1318">10</text><text fill="#000000" font-family="sans-serif" font-size="13" lengthAdjust="spacing" textLength="185" x="734.5" y="492.1318">getPropertyRequestRepository()</text><polygon fill="#181818" points="720.5,524.6855,710.5,528.6855,720.5,532.6855,716.5,528.6855" style="stroke:#181818;stroke-width:1.0;"/><line style="stroke:#181818;stroke-width:1.0;stroke-dasharray:2.0,2.0;" x1="714.5" x2="946.5" y1="528.6855" y2="528.6855"/><text fill="#000000" font-family="sans-serif" font-size="13" font-weight="bold" lengthAdjust="spacing" textLength="14" x="726.5" y="523.4229">11</text><text fill="#000000" font-family="sans-serif" font-size="13" lengthAdjust="spacing" textLength="157" x="744.5" y="523.4229">requestRepository</text><polygon fill="#181818" points="1085.5,555.9766,1095.5,559.9766,1085.5,563.9766,1089.5,559.9766" style="stroke:#181818;stroke-width:1.0;"/><line style="stroke:#181818;stroke-width:1.0;" x1="709.5" x2="1091.5" y1="559.9766" y2="559.9766"/><text fill="#000000" font-family="sans-serif" font-size="13" font-weight="bold" lengthAdjust="spacing" textLength="14" x="716.5" y="554.7139">12</text><text fill="#000000" font-family="sans-serif" font-size="13" lengthAdjust="spacing" textLength="130" x="734.5" y="554.7139">getPropertyRequests()</text><polygon fill="#181818" points="720.5,587.2676,710.5,591.2676,720.5,595.2676,716.5,591.2676" style="stroke:#181818;stroke-width:1.0;"/><line style="stroke:#181818;stroke-width:1.0;stroke-dasharray:2.0,2.0;" x1="714.5" x2="1101.5" y1="591.2676" y2="591.2676"/><text fill="#000000" font-family="sans-serif" font-size="13" font-weight="bold" lengthAdjust="spacing" textLength="14" x="726.5" y="586.0049">13</text><text fill="#000000" font-family="sans-serif" font-size="13" lengthAdjust="spacing" textLength="116" x="744.5" y="586.0049">propertyRequestList</text><polygon fill="#181818" points="172.5,618.5586,162.5,622.5586,172.5,626.5586,168.5,622.5586" style="stroke:#181818;stroke-width:1.0;"/><line style="stroke:#181818;stroke-width:1.0;stroke-dasharray:2.0,2.0;" x1="166.5" x2="698.5" y1="622.5586" y2="622.5586"/><text fill="#000000" font-family="sans-serif" font-size="13" font-weight="bold" lengthAdjust="spacing" textLength="14" x="178.5" y="617.2959">14</text><text fill="#000000" font-family="sans-serif" font-size="13" lengthAdjust="spacing" textLength="377" x="196.5" y="617.2959">prints all property requests (along with the necessary information)</text><!--SRC=[VPJDRkem48NtVWgB5LIYghhiuag8Rf2eRaNQ7HitJ8D5Ciwr9qMy_HtR935Mw0RvPyutXvbnt4bZgwngPAlAawgWe4iDqa992giQX1i2t54Tp5bZ9RzLxK08qiIXdmwiBCZOYtnwUfPBMS2_3h04-QfLvONpudKXXEh8ODTyWULroV5ozlUCO6TIEHbM_V6g0gHm75Q2qvCkTQkGvEnbTMWqVcxYVLnd4M-0tOQW2I5-azqNG6lJDDevRNfITlQROcsGhAdhg_NrnswRXU-WDKxxaeI8SLjeNrEkmwt0zW4Qt1v7EMy3u7sx-iXIl5lJWgNBpXVRKPOnknMXulf74Lmh7Nxbya-ii7oH3l0mwlPuLKeoZu_Y09bysCO6YKZnkDWG1je8S4nWEEsn70he4lsrWQ8NCiDtxE614QK5ZiclWjca7VD5wgy73WUX_o886P2rsVliCa8G3BjyBeJ84Kpr8v0wlXF20HLGrXjtcptFDro4CHC1mxY9aOhq3Jf-k2KmTP1EpP-O8Yn7e-b8flucMRqhFwUJVt9KfRx2M8iWIZAtzwIfZIWTyjvAxjPvbEVl8oVSzxFL79ywoL7HLFAqMgkHtu6gwu4rlewvgWr_KS-QZfAE815AS4xnnrJZjx6D8fw3XVWF]--></g></svg>