<?xml version="1.0" encoding="us-ascii" standalone="no"?><svg xmlns="http://www.w3.org/2000/svg" xmlns:xlink="http://www.w3.org/1999/xlink" contentStyleType="text/css" height="943.8px" preserveAspectRatio="none" style="width:808px;height:943px;background:#FFFFFF;" version="1.1" viewBox="0 0 808 943" width="808.8px" zoomAndPan="magnify"><defs/><g><text fill="#000000" font-family="sans-serif" font-size="8.4" font-weight="bold" lengthAdjust="spacing" textLength="165" x="317.85" y="15.0645">US002 Real State Agent - Class Diagram</text><!--class Agent--><g id="elem_Agent"><rect codeLine="6" fill="#F1F1F1" height="118.1812" id="Agent" rx="1.5" ry="1.5" style="stroke:#181818;stroke-width:0.3;" width="96.6" x="4.2" y="27.9727"/><ellipse cx="38.85" cy="37.5727" fill="#ADD1B2" rx="6.6" ry="6.6" style="stroke:#181818;stroke-width:0.6;"/><path d="M40.5094,35.0977 Q40.6031,34.9664 40.7156,34.9008 Q40.8281,34.8352 40.9594,34.8352 Q41.1844,34.8352 41.325,34.9945 Q41.4656,35.1445 41.4656,35.5102 L41.4656,36.382 Q41.4656,36.7477 41.325,36.907 Q41.1844,37.0664 40.9594,37.0664 Q40.7531,37.0664 40.6313,36.9445 Q40.5094,36.832 40.4438,36.5227 Q40.4156,36.307 40.3031,36.1945 Q40.1062,35.9695 39.7406,35.8383 Q39.375,35.707 39,35.707 Q38.5406,35.707 38.1563,35.9039 Q37.7813,36.1008 37.4812,36.5508 Q37.1906,37.0008 37.1906,37.6195 L37.1906,38.2758 Q37.1906,39.0164 37.725,39.5133 Q38.2594,40.0008 39.2156,40.0008 Q39.7781,40.0008 40.1719,39.8508 Q40.4063,39.757 40.6594,39.4945 Q40.8188,39.3352 40.9031,39.2883 Q40.9969,39.2414 41.1188,39.2414 Q41.3156,39.2414 41.4656,39.4008 Q41.625,39.5508 41.625,39.757 Q41.625,39.9633 41.4187,40.207 Q41.1188,40.5539 40.6406,40.7508 Q39.9938,41.0227 39.2156,41.0227 Q38.3063,41.0227 37.5844,40.6477 Q36.9938,40.3477 36.5813,39.7102 Q36.1687,39.0633 36.1687,38.2945 L36.1687,37.6008 Q36.1687,36.8039 36.5344,36.1195 Q36.9094,35.4258 37.5656,35.0602 Q38.2219,34.6852 38.9625,34.6852 Q39.4031,34.6852 39.7875,34.7883 Q40.1813,34.882 40.5094,35.0977 Z " fill="#000000"/><text fill="#000000" font-family="sans-serif" font-size="8.4" lengthAdjust="spacing" textLength="22.2" x="51.15" y="41.0508">Agent</text><line style="stroke:#181818;stroke-width:0.3;" x1="4.8" x2="100.2" y1="47.1727" y2="47.1727"/><text fill="#000000" font-family="sans-serif" font-size="8.4" lengthAdjust="spacing" textLength="24" x="7.8" y="58.6371">-name</text><text fill="#000000" font-family="sans-serif" font-size="8.4" lengthAdjust="spacing" textLength="22.8" x="7.8" y="69.8098">-email</text><text fill="#000000" font-family="sans-serif" font-size="8.4" lengthAdjust="spacing" textLength="18" x="7.8" y="80.9824">-pwd</text><line style="stroke:#181818;stroke-width:0.6;" x1="4.8" x2="100.2" y1="85.4906" y2="85.4906"/><text fill="#000000" font-family="sans-serif" font-size="8.4" lengthAdjust="spacing" textLength="89.4" x="7.8" y="96.9551">+hasEmail(String email)</text><text fill="#000000" font-family="sans-serif" font-size="8.4" lengthAdjust="spacing" textLength="44.4" x="7.8" y="108.1277">+getName()</text><text fill="#000000" font-family="sans-serif" font-size="8.4" lengthAdjust="spacing" textLength="43.2" x="7.8" y="119.3004">+getEmail()</text><text fill="#000000" font-family="sans-serif" font-size="8.4" lengthAdjust="spacing" textLength="40.2" x="7.8" y="130.473">+toString()</text><text fill="#000000" font-family="sans-serif" font-size="8.4" lengthAdjust="spacing" textLength="31.2" x="7.8" y="141.6457">+clone()</text></g><!--class AgentUI--><g id="elem_AgentUI"><rect codeLine="18" fill="#F1F1F1" height="39.9727" id="AgentUI" rx="1.5" ry="1.5" style="stroke:#181818;stroke-width:0.3;" width="48.6" x="28.2" y="203.7727"/><ellipse cx="37.2" cy="213.3727" fill="#ADD1B2" rx="6.6" ry="6.6" style="stroke:#181818;stroke-width:0.6;"/><path d="M38.8594,210.8977 Q38.9531,210.7664 39.0656,210.7008 Q39.1781,210.6352 39.3094,210.6352 Q39.5344,210.6352 39.675,210.7945 Q39.8156,210.9445 39.8156,211.3102 L39.8156,212.182 Q39.8156,212.5477 39.675,212.707 Q39.5344,212.8664 39.3094,212.8664 Q39.1031,212.8664 38.9812,212.7445 Q38.8594,212.632 38.7937,212.3227 Q38.7656,212.107 38.6531,211.9945 Q38.4563,211.7695 38.0906,211.6383 Q37.725,211.507 37.35,211.507 Q36.8906,211.507 36.5063,211.7039 Q36.1313,211.9008 35.8313,212.3508 Q35.5406,212.8008 35.5406,213.4195 L35.5406,214.0758 Q35.5406,214.8164 36.075,215.3133 Q36.6094,215.8008 37.5656,215.8008 Q38.1281,215.8008 38.5219,215.6508 Q38.7563,215.557 39.0094,215.2945 Q39.1687,215.1352 39.2531,215.0883 Q39.3469,215.0414 39.4688,215.0414 Q39.6656,215.0414 39.8156,215.2008 Q39.975,215.3508 39.975,215.557 Q39.975,215.7633 39.7688,216.007 Q39.4688,216.3539 38.9906,216.5508 Q38.3438,216.8227 37.5656,216.8227 Q36.6563,216.8227 35.9344,216.4477 Q35.3438,216.1477 34.9313,215.5102 Q34.5188,214.8633 34.5188,214.0945 L34.5188,213.4008 Q34.5188,212.6039 34.8844,211.9195 Q35.2594,211.2258 35.9156,210.8602 Q36.5719,210.4852 37.3125,210.4852 Q37.7531,210.4852 38.1375,210.5883 Q38.5313,210.682 38.8594,210.8977 Z " fill="#000000"/><text fill="#000000" font-family="sans-serif" font-size="8.4" lengthAdjust="spacing" textLength="29.4" x="45.6" y="216.8508">AgentUI</text><line style="stroke:#181818;stroke-width:0.3;" x1="28.8" x2="76.2" y1="222.9727" y2="222.9727"/><line style="stroke:#181818;stroke-width:0.6;" x1="28.8" x2="76.2" y1="227.7727" y2="227.7727"/><text fill="#000000" font-family="sans-serif" font-size="8.4" lengthAdjust="spacing" textLength="23.4" x="31.8" y="239.2371">+run()</text></g><!--class Repository--><g id="elem_Repository"><rect codeLine="23" fill="#F1F1F1" height="73.4906" id="Repository" rx="1.5" ry="1.5" style="stroke:#181818;stroke-width:0.3;" width="158.4" x="646.5" y="302.7727"/><ellipse cx="702.75" cy="312.3727" fill="#ADD1B2" rx="6.6" ry="6.6" style="stroke:#181818;stroke-width:0.6;"/><path d="M704.4094,309.8977 Q704.5031,309.7664 704.6156,309.7008 Q704.7281,309.6352 704.8594,309.6352 Q705.0844,309.6352 705.225,309.7945 Q705.3656,309.9445 705.3656,310.3102 L705.3656,311.182 Q705.3656,311.5477 705.225,311.707 Q705.0844,311.8664 704.8594,311.8664 Q704.6531,311.8664 704.5313,311.7445 Q704.4094,311.632 704.3438,311.3227 Q704.3156,311.107 704.2031,310.9945 Q704.0063,310.7695 703.6406,310.6383 Q703.275,310.507 702.9,310.507 Q702.4406,310.507 702.0563,310.7039 Q701.6813,310.9008 701.3813,311.3508 Q701.0906,311.8008 701.0906,312.4195 L701.0906,313.0758 Q701.0906,313.8164 701.625,314.3133 Q702.1594,314.8008 703.1156,314.8008 Q703.6781,314.8008 704.0719,314.6508 Q704.3063,314.557 704.5594,314.2945 Q704.7188,314.1352 704.8031,314.0883 Q704.8969,314.0414 705.0188,314.0414 Q705.2156,314.0414 705.3656,314.2008 Q705.525,314.3508 705.525,314.557 Q705.525,314.7633 705.3188,315.007 Q705.0188,315.3539 704.5406,315.5508 Q703.8938,315.8227 703.1156,315.8227 Q702.2063,315.8227 701.4844,315.4477 Q700.8938,315.1477 700.4812,314.5102 Q700.0688,313.8633 700.0688,313.0945 L700.0688,312.4008 Q700.0688,311.6039 700.4344,310.9195 Q700.8094,310.2258 701.4656,309.8602 Q702.1219,309.4852 702.8625,309.4852 Q703.3031,309.4852 703.6875,309.5883 Q704.0813,309.682 704.4094,309.8977 Z " fill="#000000"/><text fill="#000000" font-family="sans-serif" font-size="8.4" lengthAdjust="spacing" textLength="40.8" x="715.05" y="315.8508">Repository</text><line style="stroke:#181818;stroke-width:0.3;" x1="647.1" x2="804.3" y1="321.9727" y2="321.9727"/><text fill="#000000" font-family="sans-serif" font-size="8.4" lengthAdjust="spacing" textLength="84.6" x="650.1" y="333.4371">-Repositories instance</text><text fill="#000000" font-family="sans-serif" font-size="8.4" lengthAdjust="spacing" textLength="151.2" x="650.1" y="344.6098">-PropertyRepository propertyAnnouncementRepository</text><line style="stroke:#181818;stroke-width:0.3;" x1="647.1" x2="804.3" y1="349.118" y2="349.118"/><text fill="#000000" font-family="sans-serif" font-size="8.4" lengthAdjust="spacing" textLength="54.6" x="650.1" y="360.5824">+getInstance()</text><text fill="#000000" font-family="sans-serif" font-size="8.4" lengthAdjust="spacing" textLength="96" x="650.1" y="371.7551">+getPropertyRepository()</text></g><!--class PropertyRepository--><g id="elem_PropertyRepository"><rect codeLine="31" fill="#F1F1F1" height="95.8359" id="PropertyRepository" rx="1.5" ry="1.5" style="stroke:#181818;stroke-width:0.3;" width="111.6" x="472.5" y="434.7727"/><ellipse cx="490.14" cy="444.3727" fill="#ADD1B2" rx="6.6" ry="6.6" style="stroke:#181818;stroke-width:0.6;"/><path d="M491.7994,441.8977 Q491.8931,441.7664 492.0056,441.7008 Q492.1181,441.6352 492.2494,441.6352 Q492.4744,441.6352 492.615,441.7945 Q492.7556,441.9445 492.7556,442.3102 L492.7556,443.182 Q492.7556,443.5477 492.615,443.707 Q492.4744,443.8664 492.2494,443.8664 Q492.0431,443.8664 491.9213,443.7445 Q491.7994,443.632 491.7338,443.3227 Q491.7056,443.107 491.5931,442.9945 Q491.3962,442.7695 491.0306,442.6383 Q490.665,442.507 490.29,442.507 Q489.8306,442.507 489.4462,442.7039 Q489.0712,442.9008 488.7712,443.3508 Q488.4806,443.8008 488.4806,444.4195 L488.4806,445.0758 Q488.4806,445.8164 489.015,446.3133 Q489.5494,446.8008 490.5056,446.8008 Q491.0681,446.8008 491.4619,446.6508 Q491.6962,446.557 491.9494,446.2945 Q492.1088,446.1352 492.1931,446.0883 Q492.2869,446.0414 492.4087,446.0414 Q492.6056,446.0414 492.7556,446.2008 Q492.915,446.3508 492.915,446.557 Q492.915,446.7633 492.7087,447.007 Q492.4087,447.3539 491.9306,447.5508 Q491.2837,447.8227 490.5056,447.8227 Q489.5962,447.8227 488.8744,447.4477 Q488.2837,447.1477 487.8713,446.5102 Q487.4587,445.8633 487.4587,445.0945 L487.4587,444.4008 Q487.4587,443.6039 487.8244,442.9195 Q488.1994,442.2258 488.8556,441.8602 Q489.5119,441.4852 490.2525,441.4852 Q490.6931,441.4852 491.0775,441.5883 Q491.4712,441.682 491.7994,441.8977 Z " fill="#000000"/><text fill="#000000" font-family="sans-serif" font-size="8.4" lengthAdjust="spacing" textLength="73.2" x="500.46" y="447.8508">PropertyRepository</text><line style="stroke:#181818;stroke-width:0.3;" x1="473.1" x2="583.5" y1="453.9727" y2="453.9727"/><text fill="#000000" font-family="sans-serif" font-size="8.4" lengthAdjust="spacing" textLength="99" x="476.1" y="465.4371">-List&lt;Property&gt; properties</text><line style="stroke:#181818;stroke-width:0.3;" x1="473.1" x2="583.5" y1="469.9453" y2="469.9453"/><text fill="#000000" font-family="sans-serif" font-size="8.4" lengthAdjust="spacing" textLength="40.2" x="476.1" y="481.4098">+isEmpty()</text><text fill="#000000" font-family="sans-serif" font-size="8.4" lengthAdjust="spacing" textLength="57" x="476.1" y="492.5824">+add(property)</text><text fill="#000000" font-family="sans-serif" font-size="8.4" lengthAdjust="spacing" textLength="104.4" x="476.1" y="503.7551">+validateProperty(property)</text><text fill="#000000" font-family="sans-serif" font-size="8.4" lengthAdjust="spacing" textLength="66.6" x="476.1" y="514.9277">+printProperties()</text><text fill="#000000" font-family="sans-serif" font-size="8.4" lengthAdjust="spacing" textLength="61.8" x="476.1" y="526.1004">+getProperties()</text></g><!--class Property--><g id="elem_Property"><rect codeLine="41" fill="#F1F1F1" height="107.0086" id="Property" rx="1.5" ry="1.5" style="stroke:#181818;stroke-width:0.3;" width="121.2" x="467.7" y="578.1727"/><ellipse cx="509.55" cy="587.7727" fill="#B4A7E5" rx="6.6" ry="6.6" style="stroke:#181818;stroke-width:0.6;"/><path d="M510.1219,585.757 L510.1219,589.7508 L511.1531,589.7508 Q511.5187,589.7508 511.6781,589.8914 Q511.8375,590.032 511.8375,590.2664 Q511.8375,590.4914 511.6781,590.632 Q511.5187,590.7727 511.1531,590.7727 L508.0687,590.7727 Q507.7031,590.7727 507.5438,590.632 Q507.3844,590.4914 507.3844,590.257 Q507.3844,590.032 507.5438,589.8914 Q507.7031,589.7508 508.0687,589.7508 L509.1,589.7508 L509.1,585.757 L508.0687,585.757 Q507.7031,585.757 507.5438,585.6164 Q507.3844,585.4758 507.3844,585.2414 Q507.3844,585.0164 507.5438,584.8758 Q507.7031,584.7352 508.0687,584.7352 L511.1531,584.7352 Q511.5187,584.7352 511.6781,584.8758 Q511.8375,585.0164 511.8375,585.2414 Q511.8375,585.4758 511.6781,585.6164 Q511.5187,585.757 511.1531,585.757 L510.1219,585.757 Z " fill="#000000"/><text fill="#000000" font-family="sans-serif" font-size="8.4" font-style="italic" lengthAdjust="spacing" textLength="32.4" x="521.85" y="591.2508">Property</text><line style="stroke:#181818;stroke-width:0.3;" x1="468.3" x2="588.3" y1="597.3727" y2="597.3727"/><text fill="#000000" font-family="sans-serif" font-size="8.4" lengthAdjust="spacing" textLength="43.8" x="471.3" y="608.8371">-String type</text><text fill="#000000" font-family="sans-serif" font-size="8.4" lengthAdjust="spacing" textLength="39" x="471.3" y="620.0098">-float area</text><text fill="#000000" font-family="sans-serif" font-size="8.4" lengthAdjust="spacing" textLength="57" x="471.3" y="631.1824">-String location</text><text fill="#000000" font-family="sans-serif" font-size="8.4" lengthAdjust="spacing" textLength="114" x="471.3" y="642.3551">-float distance from city centre</text><text fill="#000000" font-family="sans-serif" font-size="8.4" lengthAdjust="spacing" textLength="81" x="471.3" y="653.5277">-float requested price</text><line style="stroke:#181818;stroke-width:0.6;" x1="468.3" x2="588.3" y1="658.0359" y2="658.0359"/><text fill="#000000" font-family="sans-serif" font-size="8.4" lengthAdjust="spacing" textLength="58.8" x="471.3" y="669.5004">+equals(object)</text><text fill="#000000" font-family="sans-serif" font-size="8.4" lengthAdjust="spacing" textLength="31.2" x="471.3" y="680.673">+clone()</text></g><!--class SetCommissionUI--><g id="elem_SetCommissionUI"><rect codeLine="52" fill="#F1F1F1" height="39.9727" id="SetCommissionUI" rx="1.5" ry="1.5" style="stroke:#181818;stroke-width:0.3;" width="84.6" x="10.2" y="319.2727"/><ellipse cx="19.2" cy="328.8727" fill="#ADD1B2" rx="6.6" ry="6.6" style="stroke:#181818;stroke-width:0.6;"/><path d="M20.8594,326.3977 Q20.9531,326.2664 21.0656,326.2008 Q21.1781,326.1352 21.3094,326.1352 Q21.5344,326.1352 21.675,326.2945 Q21.8156,326.4445 21.8156,326.8102 L21.8156,327.682 Q21.8156,328.0477 21.675,328.207 Q21.5344,328.3664 21.3094,328.3664 Q21.1031,328.3664 20.9813,328.2445 Q20.8594,328.132 20.7938,327.8227 Q20.7656,327.607 20.6531,327.4945 Q20.4563,327.2695 20.0906,327.1383 Q19.725,327.007 19.35,327.007 Q18.8906,327.007 18.5062,327.2039 Q18.1312,327.4008 17.8313,327.8508 Q17.5406,328.3008 17.5406,328.9195 L17.5406,329.5758 Q17.5406,330.3164 18.075,330.8133 Q18.6094,331.3008 19.5656,331.3008 Q20.1281,331.3008 20.5219,331.1508 Q20.7562,331.057 21.0094,330.7945 Q21.1688,330.6352 21.2531,330.5883 Q21.3469,330.5414 21.4688,330.5414 Q21.6656,330.5414 21.8156,330.7008 Q21.975,330.8508 21.975,331.057 Q21.975,331.2633 21.7688,331.507 Q21.4688,331.8539 20.9906,332.0508 Q20.3438,332.3227 19.5656,332.3227 Q18.6563,332.3227 17.9344,331.9477 Q17.3438,331.6477 16.9313,331.0102 Q16.5188,330.3633 16.5188,329.5945 L16.5188,328.9008 Q16.5188,328.1039 16.8844,327.4195 Q17.2594,326.7258 17.9156,326.3602 Q18.5719,325.9852 19.3125,325.9852 Q19.7531,325.9852 20.1375,326.0883 Q20.5313,326.182 20.8594,326.3977 Z " fill="#000000"/><text fill="#000000" font-family="sans-serif" font-size="8.4" lengthAdjust="spacing" textLength="65.4" x="27.6" y="332.3508">SetCommissionUI</text><line style="stroke:#181818;stroke-width:0.3;" x1="10.8" x2="94.2" y1="338.4727" y2="338.4727"/><line style="stroke:#181818;stroke-width:0.3;" x1="10.8" x2="94.2" y1="343.2727" y2="343.2727"/><text fill="#000000" font-family="sans-serif" font-size="8.4" lengthAdjust="spacing" textLength="23.4" x="13.8" y="354.7371">+run()</text></g><!--class SetCommissionController--><g id="elem_SetCommissionController"><rect codeLine="57" fill="#F1F1F1" height="95.8359" id="SetCommissionController" rx="1.5" ry="1.5" style="stroke:#181818;stroke-width:0.3;" width="378" x="142.5" y="291.3727"/><ellipse cx="281.25" cy="300.9727" fill="#ADD1B2" rx="6.6" ry="6.6" style="stroke:#181818;stroke-width:0.6;"/><path d="M282.9094,298.4977 Q283.0031,298.3664 283.1156,298.3008 Q283.2281,298.2352 283.3594,298.2352 Q283.5844,298.2352 283.725,298.3945 Q283.8656,298.5445 283.8656,298.9102 L283.8656,299.782 Q283.8656,300.1477 283.725,300.307 Q283.5844,300.4664 283.3594,300.4664 Q283.1531,300.4664 283.0313,300.3445 Q282.9094,300.232 282.8438,299.9227 Q282.8156,299.707 282.7031,299.5945 Q282.5062,299.3695 282.1406,299.2383 Q281.775,299.107 281.4,299.107 Q280.9406,299.107 280.5563,299.3039 Q280.1813,299.5008 279.8812,299.9508 Q279.5906,300.4008 279.5906,301.0195 L279.5906,301.6758 Q279.5906,302.4164 280.125,302.9133 Q280.6594,303.4008 281.6156,303.4008 Q282.1781,303.4008 282.5719,303.2508 Q282.8063,303.157 283.0594,302.8945 Q283.2188,302.7352 283.3031,302.6883 Q283.3969,302.6414 283.5188,302.6414 Q283.7156,302.6414 283.8656,302.8008 Q284.025,302.9508 284.025,303.157 Q284.025,303.3633 283.8187,303.607 Q283.5188,303.9539 283.0406,304.1508 Q282.3938,304.4227 281.6156,304.4227 Q280.7063,304.4227 279.9844,304.0477 Q279.3938,303.7477 278.9813,303.1102 Q278.5687,302.4633 278.5687,301.6945 L278.5687,301.0008 Q278.5687,300.2039 278.9344,299.5195 Q279.3094,298.8258 279.9656,298.4602 Q280.6219,298.0852 281.3625,298.0852 Q281.8031,298.0852 282.1875,298.1883 Q282.5813,298.282 282.9094,298.4977 Z " fill="#000000"/><text fill="#000000" font-family="sans-serif" font-size="8.4" lengthAdjust="spacing" textLength="95.4" x="293.55" y="304.4508">SetCommissionController</text><line style="stroke:#181818;stroke-width:0.3;" x1="143.1" x2="519.9" y1="310.5727" y2="310.5727"/><line style="stroke:#181818;stroke-width:0.3;" x1="143.1" x2="519.9" y1="315.3727" y2="315.3727"/><text fill="#000000" font-family="sans-serif" font-size="8.4" lengthAdjust="spacing" textLength="112.2" x="146.1" y="326.8371">+setCommissionFromOwner()</text><text fill="#000000" font-family="sans-serif" font-size="8.4" lengthAdjust="spacing" textLength="253.2" x="146.1" y="338.0098">+printPropertyRequests(List&lt;PropertyRequest&gt; propertyRequests)</text><text fill="#000000" font-family="sans-serif" font-size="8.4" lengthAdjust="spacing" textLength="313.8" x="146.1" y="349.1824">+choosePropertyRequest(PropertyRequestRepository requestRepository,</text><text fill="#000000" font-family="sans-serif" font-size="8.4" lengthAdjust="spacing" textLength="208.8" x="146.1" y="360.3551">List&lt;PropertyRequest&gt; propertyRequests, Scanner ler)</text><text fill="#000000" font-family="sans-serif" font-size="8.4" lengthAdjust="spacing" textLength="342" x="146.1" y="371.5277">+setCommission(PropertyRequest propertyRequest, VerifyInput verifyInput, Scanner input)</text><text fill="#000000" font-family="sans-serif" font-size="8.4" lengthAdjust="spacing" textLength="370.8" x="146.1" y="382.7004">+setCommissionValue(float finalValue, String wantedRange, Scanner input, VerifyInput verifyInput)</text></g><!--class House--><g id="elem_House"><rect codeLine="66" fill="#F1F1F1" height="207.5625" id="House" rx="1.5" ry="1.5" style="stroke:#181818;stroke-width:0.3;" width="120.6" x="326.4" y="732.3727"/><ellipse cx="372.15" cy="741.9727" fill="#ADD1B2" rx="6.6" ry="6.6" style="stroke:#181818;stroke-width:0.6;"/><path d="M373.8094,739.4977 Q373.9031,739.3664 374.0156,739.3008 Q374.1281,739.2352 374.2594,739.2352 Q374.4844,739.2352 374.625,739.3945 Q374.7656,739.5445 374.7656,739.9102 L374.7656,740.782 Q374.7656,741.1477 374.625,741.307 Q374.4844,741.4664 374.2594,741.4664 Q374.0531,741.4664 373.9313,741.3445 Q373.8094,741.232 373.7438,740.9227 Q373.7156,740.707 373.6031,740.5945 Q373.4063,740.3695 373.0406,740.2383 Q372.675,740.107 372.3,740.107 Q371.8406,740.107 371.4563,740.3039 Q371.0813,740.5008 370.7813,740.9508 Q370.4906,741.4008 370.4906,742.0195 L370.4906,742.6758 Q370.4906,743.4164 371.025,743.9133 Q371.5594,744.4008 372.5156,744.4008 Q373.0781,744.4008 373.4719,744.2508 Q373.7063,744.157 373.9594,743.8945 Q374.1188,743.7352 374.2031,743.6883 Q374.2969,743.6414 374.4188,743.6414 Q374.6156,743.6414 374.7656,743.8008 Q374.925,743.9508 374.925,744.157 Q374.925,744.3633 374.7188,744.607 Q374.4188,744.9539 373.9406,745.1508 Q373.2938,745.4227 372.5156,745.4227 Q371.6063,745.4227 370.8844,745.0477 Q370.2938,744.7477 369.8812,744.1102 Q369.4688,743.4633 369.4688,742.6945 L369.4688,742.0008 Q369.4688,741.2039 369.8344,740.5195 Q370.2094,739.8258 370.8656,739.4602 Q371.5219,739.0852 372.2625,739.0852 Q372.7031,739.0852 373.0875,739.1883 Q373.4813,739.282 373.8094,739.4977 Z " fill="#000000"/><text fill="#000000" font-family="sans-serif" font-size="8.4" lengthAdjust="spacing" textLength="24" x="384.45" y="745.4508">House</text><line style="stroke:#181818;stroke-width:0.3;" x1="327" x2="446.4" y1="751.5727" y2="751.5727"/><text fill="#000000" font-family="sans-serif" font-size="8.4" lengthAdjust="spacing" textLength="43.8" x="330" y="763.0371">-String type</text><text fill="#000000" font-family="sans-serif" font-size="8.4" lengthAdjust="spacing" textLength="39" x="330" y="774.2098">-float area</text><text fill="#000000" font-family="sans-serif" font-size="8.4" lengthAdjust="spacing" textLength="57" x="330" y="785.3824">-String location</text><text fill="#000000" font-family="sans-serif" font-size="8.4" lengthAdjust="spacing" textLength="113.4" x="330" y="796.5551">-float distanceFromCityCentre</text><text fill="#000000" font-family="sans-serif" font-size="8.4" lengthAdjust="spacing" textLength="79.2" x="330" y="807.7277">-float requestedPrice</text><text fill="#000000" font-family="sans-serif" font-size="8.4" lengthAdjust="spacing" textLength="67.8" x="330" y="818.9004">-png photographs</text><text fill="#000000" font-family="sans-serif" font-size="8.4" lengthAdjust="spacing" textLength="52.2" x="330" y="830.073">-int bedrooms</text><text fill="#000000" font-family="sans-serif" font-size="8.4" lengthAdjust="spacing" textLength="54.6" x="330" y="841.2457">-int bathrooms</text><text fill="#000000" font-family="sans-serif" font-size="8.4" lengthAdjust="spacing" textLength="70.8" x="330" y="852.4184">-int parkingSpaces</text><text fill="#000000" font-family="sans-serif" font-size="8.4" lengthAdjust="spacing" textLength="101.4" x="330" y="863.591">-String availableEquipment</text><text fill="#000000" font-family="sans-serif" font-size="8.4" lengthAdjust="spacing" textLength="73.2" x="330" y="874.7637">-boolean basement</text><text fill="#000000" font-family="sans-serif" font-size="8.4" lengthAdjust="spacing" textLength="91.8" x="330" y="885.9363">-boolean inhabitableLoft</text><text fill="#000000" font-family="sans-serif" font-size="8.4" lengthAdjust="spacing" textLength="70.8" x="330" y="897.109">-float sunExposure</text><line style="stroke:#181818;stroke-width:0.3;" x1="327" x2="446.4" y1="901.6172" y2="901.6172"/><text fill="#000000" font-family="sans-serif" font-size="8.4" lengthAdjust="spacing" textLength="58.8" x="330" y="913.0816">+equals(object)</text><text fill="#000000" font-family="sans-serif" font-size="8.4" lengthAdjust="spacing" textLength="31.2" x="330" y="924.2543">+clone()</text><text fill="#000000" font-family="sans-serif" font-size="8.4" lengthAdjust="spacing" textLength="40.2" x="330" y="935.427">+toString()</text></g><!--class Apartment--><g id="elem_Apartment"><rect codeLine="86" fill="#F1F1F1" height="174.0445" id="Apartment" rx="1.5" ry="1.5" style="stroke:#181818;stroke-width:0.3;" width="120.6" x="468" y="749.1727"/><ellipse cx="506.25" cy="758.7727" fill="#ADD1B2" rx="6.6" ry="6.6" style="stroke:#181818;stroke-width:0.6;"/><path d="M507.9094,756.2977 Q508.0031,756.1664 508.1156,756.1008 Q508.2281,756.0352 508.3594,756.0352 Q508.5844,756.0352 508.725,756.1945 Q508.8656,756.3445 508.8656,756.7102 L508.8656,757.582 Q508.8656,757.9477 508.725,758.107 Q508.5844,758.2664 508.3594,758.2664 Q508.1531,758.2664 508.0313,758.1445 Q507.9094,758.032 507.8438,757.7227 Q507.8156,757.507 507.7031,757.3945 Q507.5062,757.1695 507.1406,757.0383 Q506.775,756.907 506.4,756.907 Q505.9406,756.907 505.5563,757.1039 Q505.1813,757.3008 504.8812,757.7508 Q504.5906,758.2008 504.5906,758.8195 L504.5906,759.4758 Q504.5906,760.2164 505.125,760.7133 Q505.6594,761.2008 506.6156,761.2008 Q507.1781,761.2008 507.5719,761.0508 Q507.8063,760.957 508.0594,760.6945 Q508.2188,760.5352 508.3031,760.4883 Q508.3969,760.4414 508.5187,760.4414 Q508.7156,760.4414 508.8656,760.6008 Q509.025,760.7508 509.025,760.957 Q509.025,761.1633 508.8187,761.407 Q508.5187,761.7539 508.0406,761.9508 Q507.3937,762.2227 506.6156,762.2227 Q505.7062,762.2227 504.9844,761.8477 Q504.3937,761.5477 503.9813,760.9102 Q503.5687,760.2633 503.5687,759.4945 L503.5687,758.8008 Q503.5687,758.0039 503.9344,757.3195 Q504.3094,756.6258 504.9656,756.2602 Q505.6219,755.8852 506.3625,755.8852 Q506.8031,755.8852 507.1875,755.9883 Q507.5812,756.082 507.9094,756.2977 Z " fill="#000000"/><text fill="#000000" font-family="sans-serif" font-size="8.4" lengthAdjust="spacing" textLength="39" x="518.55" y="762.2508">Apartment</text><line style="stroke:#181818;stroke-width:0.3;" x1="468.6" x2="588" y1="768.3727" y2="768.3727"/><text fill="#000000" font-family="sans-serif" font-size="8.4" lengthAdjust="spacing" textLength="43.8" x="471.6" y="779.8371">-String type</text><text fill="#000000" font-family="sans-serif" font-size="8.4" lengthAdjust="spacing" textLength="39" x="471.6" y="791.0098">-float area</text><text fill="#000000" font-family="sans-serif" font-size="8.4" lengthAdjust="spacing" textLength="57" x="471.6" y="802.1824">-String location</text><text fill="#000000" font-family="sans-serif" font-size="8.4" lengthAdjust="spacing" textLength="113.4" x="471.6" y="813.3551">-float distanceFromCityCentre</text><text fill="#000000" font-family="sans-serif" font-size="8.4" lengthAdjust="spacing" textLength="79.2" x="471.6" y="824.5277">-float requestedPrice</text><text fill="#000000" font-family="sans-serif" font-size="8.4" lengthAdjust="spacing" textLength="67.8" x="471.6" y="835.7004">-png photographs</text><text fill="#000000" font-family="sans-serif" font-size="8.4" lengthAdjust="spacing" textLength="52.2" x="471.6" y="846.873">-int bedrooms</text><text fill="#000000" font-family="sans-serif" font-size="8.4" lengthAdjust="spacing" textLength="54.6" x="471.6" y="858.0457">-int bathrooms</text><text fill="#000000" font-family="sans-serif" font-size="8.4" lengthAdjust="spacing" textLength="70.8" x="471.6" y="869.2184">-int parkingSpaces</text><text fill="#000000" font-family="sans-serif" font-size="8.4" lengthAdjust="spacing" textLength="101.4" x="471.6" y="880.391">-String availableEquipment</text><line style="stroke:#181818;stroke-width:0.3;" x1="468.6" x2="588" y1="884.8992" y2="884.8992"/><text fill="#000000" font-family="sans-serif" font-size="8.4" lengthAdjust="spacing" textLength="58.8" x="471.6" y="896.3637">+equals(object)</text><text fill="#000000" font-family="sans-serif" font-size="8.4" lengthAdjust="spacing" textLength="31.2" x="471.6" y="907.5363">+clone()</text><text fill="#000000" font-family="sans-serif" font-size="8.4" lengthAdjust="spacing" textLength="40.2" x="471.6" y="918.709">+toString()</text></g><!--class Land--><g id="elem_Land"><rect codeLine="103" fill="#F1F1F1" height="129.3539" id="Land" rx="1.5" ry="1.5" style="stroke:#181818;stroke-width:0.3;" width="120.6" x="609.6" y="771.3727"/><ellipse cx="657.75" cy="780.9727" fill="#ADD1B2" rx="6.6" ry="6.6" style="stroke:#181818;stroke-width:0.6;"/><path d="M659.4094,778.4977 Q659.5031,778.3664 659.6156,778.3008 Q659.7281,778.2352 659.8594,778.2352 Q660.0844,778.2352 660.225,778.3945 Q660.3656,778.5445 660.3656,778.9102 L660.3656,779.782 Q660.3656,780.1477 660.225,780.307 Q660.0844,780.4664 659.8594,780.4664 Q659.6531,780.4664 659.5313,780.3445 Q659.4094,780.232 659.3438,779.9227 Q659.3156,779.707 659.2031,779.5945 Q659.0063,779.3695 658.6406,779.2383 Q658.275,779.107 657.9,779.107 Q657.4406,779.107 657.0563,779.3039 Q656.6813,779.5008 656.3813,779.9508 Q656.0906,780.4008 656.0906,781.0195 L656.0906,781.6758 Q656.0906,782.4164 656.625,782.9133 Q657.1594,783.4008 658.1156,783.4008 Q658.6781,783.4008 659.0719,783.2508 Q659.3063,783.157 659.5594,782.8945 Q659.7188,782.7352 659.8031,782.6883 Q659.8969,782.6414 660.0188,782.6414 Q660.2156,782.6414 660.3656,782.8008 Q660.525,782.9508 660.525,783.157 Q660.525,783.3633 660.3188,783.607 Q660.0188,783.9539 659.5406,784.1508 Q658.8938,784.4227 658.1156,784.4227 Q657.2063,784.4227 656.4844,784.0477 Q655.8938,783.7477 655.4812,783.1102 Q655.0688,782.4633 655.0688,781.6945 L655.0688,781.0008 Q655.0688,780.2039 655.4344,779.5195 Q655.8094,778.8258 656.4656,778.4602 Q657.1219,778.0852 657.8625,778.0852 Q658.3031,778.0852 658.6875,778.1883 Q659.0813,778.282 659.4094,778.4977 Z " fill="#000000"/><text fill="#000000" font-family="sans-serif" font-size="8.4" lengthAdjust="spacing" textLength="19.2" x="670.05" y="784.4508">Land</text><line style="stroke:#181818;stroke-width:0.3;" x1="610.2" x2="729.6" y1="790.5727" y2="790.5727"/><text fill="#000000" font-family="sans-serif" font-size="8.4" lengthAdjust="spacing" textLength="43.8" x="613.2" y="802.0371">-String type</text><text fill="#000000" font-family="sans-serif" font-size="8.4" lengthAdjust="spacing" textLength="39" x="613.2" y="813.2098">-float area</text><text fill="#000000" font-family="sans-serif" font-size="8.4" lengthAdjust="spacing" textLength="57" x="613.2" y="824.3824">-String location</text><text fill="#000000" font-family="sans-serif" font-size="8.4" lengthAdjust="spacing" textLength="113.4" x="613.2" y="835.5551">-float distanceFromCityCentre</text><text fill="#000000" font-family="sans-serif" font-size="8.4" lengthAdjust="spacing" textLength="79.2" x="613.2" y="846.7277">-float requestedPrice</text><text fill="#000000" font-family="sans-serif" font-size="8.4" lengthAdjust="spacing" textLength="67.8" x="613.2" y="857.9004">-png photographs</text><line style="stroke:#181818;stroke-width:0.3;" x1="610.2" x2="729.6" y1="862.4086" y2="862.4086"/><text fill="#000000" font-family="sans-serif" font-size="8.4" lengthAdjust="spacing" textLength="58.8" x="613.2" y="873.873">+equals(object)</text><text fill="#000000" font-family="sans-serif" font-size="8.4" lengthAdjust="spacing" textLength="31.2" x="613.2" y="885.0457">+clone()</text><text fill="#000000" font-family="sans-serif" font-size="8.4" lengthAdjust="spacing" textLength="40.2" x="613.2" y="896.2184">+toString()</text></g><!--link Agent to AgentUI--><g id="link_Agent_AgentUI"><path codeLine="116" d="M52.5,146.3587 C52.5,165.5407 52.5,185.7067 52.5,200.5807 " fill="none" id="Agent-to-AgentUI" style="stroke:#181818;stroke-width:0.6;"/><polygon fill="#181818" points="52.5,203.6707,54.9,198.2707,52.5,200.6707,50.1,198.2707,52.5,203.6707" style="stroke:#181818;stroke-width:0.6;"/><text fill="#000000" font-family="sans-serif" font-size="7.8" lengthAdjust="spacing" textLength="71.4" x="74.7" y="173.1896">sends request to the</text><text fill="#000000" font-family="sans-serif" font-size="7.8" lengthAdjust="spacing" textLength="114.6" x="53.1" y="183.5643">PropertyRepository to insert data</text></g><!--link AgentUI to SetCommissionUI--><g id="link_AgentUI_SetCommissionUI"><path codeLine="117" d="M52.5,244.1227 C52.5,264.1387 52.5,295.1407 52.5,316.1647 " fill="none" id="AgentUI-to-SetCommissionUI" style="stroke:#181818;stroke-width:0.6;"/><polygon fill="#181818" points="52.5,319.1887,54.9,313.7887,52.5,316.1887,50.1,313.7887,52.5,319.1887" style="stroke:#181818;stroke-width:0.6;"/><text fill="#000000" font-family="sans-serif" font-size="7.8" lengthAdjust="spacing" textLength="15" x="53.1" y="270.9896">runs</text></g><!--link SetCommissionUI to SetCommissionController--><g id="link_SetCommissionUI_SetCommissionController"><path codeLine="118" d="M94.872,339.3727 C107.862,339.3727 123.078,339.3727 139.422,339.3727 " fill="none" id="SetCommissionUI-to-SetCommissionController" style="stroke:#181818;stroke-width:0.6;"/><polygon fill="#181818" points="142.488,339.3727,137.088,336.9727,139.488,339.3727,137.088,341.7727,142.488,339.3727" style="stroke:#181818;stroke-width:0.6;"/><text fill="#000000" font-family="sans-serif" font-size="7.8" lengthAdjust="spacing" textLength="25.8" x="105.75" y="335.1896">creates</text></g><!--link SetCommissionController to Repository--><g id="link_SetCommissionController_Repository"><path codeLine="119" d="M520.518,339.3727 C563.76,339.3727 607.524,339.3727 643.464,339.3727 " fill="none" id="SetCommissionController-to-Repository" style="stroke:#181818;stroke-width:0.6;"/><polygon fill="#181818" points="646.476,339.3727,641.076,336.9727,643.476,339.3727,641.076,341.7727,646.476,339.3727" style="stroke:#181818;stroke-width:0.6;"/><text fill="#000000" font-family="sans-serif" font-size="7.8" lengthAdjust="spacing" textLength="103.8" x="531.6" y="324.9896">ask for the property repository</text><text fill="#000000" font-family="sans-serif" font-size="7.8" lengthAdjust="spacing" textLength="76.2" x="546.6" y="335.3643">to insert property data</text></g><!--link Repository to PropertyRepository--><g id="link_Repository_PropertyRepository"><path codeLine="120" d="M675.63,376.0387 C648.576,395.5267 615.024,419.7007 586.776,440.0467 " fill="none" id="Repository-to-PropertyRepository" style="stroke:#181818;stroke-width:0.6;"/><polygon fill="#181818" points="584.232,441.8827,590.018,440.6815,586.6686,440.1325,587.2176,436.7831,584.232,441.8827" style="stroke:#181818;stroke-width:0.6;"/><text fill="#000000" font-family="sans-serif" font-size="7.8" lengthAdjust="spacing" textLength="29.4" x="633.3" y="414.3896">contains</text></g><!--link PropertyRepository to Property--><g id="link_PropertyRepository_Property"><path codeLine="121" d="M528.3,530.8867 C528.3,544.8907 528.3,560.3467 528.3,574.8427 " fill="none" id="PropertyRepository-to-Property" style="stroke:#181818;stroke-width:0.6;"/><polygon fill="#181818" points="528.3,577.9147,530.7,572.5147,528.3,574.9147,525.9,572.5147,528.3,577.9147" style="stroke:#181818;stroke-width:0.6;"/><text fill="#000000" font-family="sans-serif" font-size="7.8" lengthAdjust="spacing" textLength="31.2" x="528.9" y="557.7896">gets new</text></g><!--link SetCommissionController to PropertyRepository--><g id="link_SetCommissionController_PropertyRepository"><path codeLine="122" d="M397.308,387.5227 C420.81,404.5027 447.108,423.5047 469.938,440.0047 " fill="none" id="SetCommissionController-to-PropertyRepository" style="stroke:#181818;stroke-width:0.6;"/><polygon fill="#181818" points="472.422,441.7987,469.4482,436.6921,469.9895,440.0428,466.6388,440.5841,472.422,441.7987" style="stroke:#181818;stroke-width:0.6;"/><text fill="#000000" font-family="sans-serif" font-size="7.8" lengthAdjust="spacing" textLength="71.4" x="436.5" y="414.3896">inserts property data</text></g><!--link Property to House--><g id="link_Property_House"><path codeLine="123" d="M490.686,685.1167 C479.922,700.3447 468.21,716.9887 457.5,732.3727 C454.674,736.4347 451.788,740.5867 448.878,744.7867 " fill="none" id="Property-to-House" style="stroke:#181818;stroke-width:0.6;"/><polygon fill="#181818" points="447.066,747.4087,452.1174,744.3422,448.7772,744.9445,448.1748,741.6043,447.066,747.4087" style="stroke:#181818;stroke-width:0.6;"/><text fill="#000000" font-family="sans-serif" font-size="7.8" lengthAdjust="spacing" textLength="23.4" x="477.9" y="711.9896">can be</text></g><!--link Property to Apartment--><g id="link_Property_Apartment"><path codeLine="124" d="M528.3,685.0807 C528.3,703.7047 528.3,725.1907 528.3,745.9867 " fill="none" id="Property-to-Apartment" style="stroke:#181818;stroke-width:0.6;"/><polygon fill="#181818" points="528.3,749.0527,530.7,743.6527,528.3,746.0527,525.9,743.6527,528.3,749.0527" style="stroke:#181818;stroke-width:0.6;"/><text fill="#000000" font-family="sans-serif" font-size="7.8" lengthAdjust="spacing" textLength="23.4" x="528.9" y="711.9896">can be</text></g><!--link Property to Land--><g id="link_Property_Land"><path codeLine="125" d="M565.914,685.1167 C576.678,700.3447 588.39,716.9887 599.1,732.3727 C607.272,744.1087 615.924,756.6307 624.264,768.7627 " fill="none" id="Property-to-Land" style="stroke:#181818;stroke-width:0.6;"/><polygon fill="#181818" points="626.04,771.3427,624.9678,765.5314,624.3444,768.8678,621.008,768.2444,626.04,771.3427" style="stroke:#181818;stroke-width:0.6;"/><text fill="#000000" font-family="sans-serif" font-size="7.8" lengthAdjust="spacing" textLength="23.4" x="585.9" y="711.9896">can be</text></g><!--SRC=[rLLDQzmm4BthL-Zea2o47aC9X6rA5q8ROf9J8CpQuxKQMt8aETjjwN_lax_MwpYbeL2eJzBCcvat7nwvHwKhibJAYf97sd3iTmLBouadlIbOk07WSahDLkcDpAXmOqrIa7CNtbkrhZsl4gDZzPtbgV3AmzbjV7hwJjum5JBsv5bUR5XxkP3BO2S_ADh0Yn2DcqxvGomqbImMN98gnABQfcA1Jnpdv2w3B8eH3sGQm94uth3_38keFROGdBrfSU6S54O7mC-3MBUh4AtnRMizLjzmPPponku2OhWfTb9fXm8b87XjJSNMxqRWweL8F3myDBnMdLr7ywNnEFwCQ_2uKiw_xrNdVJ2GQeCebAVomSynfMdKSy7rcGgLelwzxLXNeKOz6xWwfDSAG0iOjXabF503dwuFVbUX6bbXo4koJ8EYC0bvPNIlJ5LR0fbPWzbHVYSJjC4ErfQVQdQUK-IcGeb3Qo33r4Lc_HMZETVBcFtIbALo3h6QdZRbcBJq0BKq26kAWcq7TcFjHz3xijLieqbzq8-6e8iEMj59pqVjRs61RMwCumaocjnd9sYYERdNVnRqHCO9QR2NIEzeajeqyjJwHDwnLTbkfQlQo-VzUUzLXUlKxnqLDKTj5pEbgMW4C6edOKkOd_G6YuKdZbuDE6hT9rCxbdynSA6XIupRSdxQhjjXg-2XoeqtM4fLxiG2ZPThJgqnPNyZdu-kM89OXPiO6nG_OS-2dh61Q5tmvLEjgX8nnM9jJC6auS3neKJfdDRA1_oLoNnFpjNwyXjwNuDlCw6l_GRZFRTVRs3coswT_hTLUtlULwJJVvxnMsXs3-3YV7Y1pgHZdRe-YlH6-fplzSmJ01LU7mWbbZc9taFmDjs1PnBhpucfU8hSxq5O92YHvudH207Z4PapAIMvHvaP6mWFYmI9z9XxFQ8yw1lk8qU1_aoou8FG16inenqR0OeNoqdDszzndutHadCJTeFd4ARTFg0JVby-rEt_itbzcCUzIlm2]--></g></svg>