<?xml version="1.0" encoding="us-ascii" standalone="no"?><svg xmlns="http://www.w3.org/2000/svg" xmlns:xlink="http://www.w3.org/1999/xlink" contentStyleType="text/css" height="683.2px" preserveAspectRatio="none" style="width:955px;height:683px;background:#FFFFFF;" version="1.1" viewBox="0 0 955 683" width="955.5px" zoomAndPan="magnify"><defs/><g><text fill="#000000" font-family="sans-serif" font-size="9.8" font-weight="bold" lengthAdjust="spacing" textLength="195.3" x="381.15" y="21.0752">User Story 002 - Sequence Diagram (SD)</text><rect fill="#FFFFFF" height="28.4074" style="stroke:#181818;stroke-width:0.6999999999999998;" width="7" x="16.45" y="93.2695"/><rect fill="#FFFFFF" height="497.0437" style="stroke:#181818;stroke-width:0.6999999999999998;" width="7" x="106.05" y="121.677"/><rect fill="#FFFFFF" height="52.4385" style="stroke:#181818;stroke-width:0.6999999999999998;" width="7" x="194.95" y="155.6844"/><rect fill="#FFFFFF" height="21.9037" style="stroke:#181818;stroke-width:0.6999999999999998;" width="7" x="291.55" y="208.1229"/><rect fill="#FFFFFF" height="52.4385" style="stroke:#181818;stroke-width:0.6999999999999998;" width="7" x="370.65" y="230.0266"/><rect fill="#FFFFFF" height="303.152" style="stroke:#181818;stroke-width:0.6999999999999998;" width="7" x="489.65" y="282.465"/><rect fill="#FFFFFF" height="21.9037" style="stroke:#181818;stroke-width:0.6999999999999998;" width="7" x="588.7" y="304.3687"/><rect fill="#FFFFFF" height="21.9037" style="stroke:#181818;stroke-width:0.6999999999999998;" width="7" x="588.7" y="498.0021"/><rect fill="#FFFFFF" height="21.9037" style="stroke:#181818;stroke-width:0.6999999999999998;" width="7" x="659.75" y="348.1762"/><rect fill="#FFFFFF" height="21.9037" style="stroke:#181818;stroke-width:0.6999999999999998;" width="7" x="659.75" y="541.8096"/><rect fill="#FFFFFF" height="21.9037" style="stroke:#181818;stroke-width:0.6999999999999998;" width="7" x="768.25" y="391.9836"/><rect fill="#FFFFFF" height="21.9037" style="stroke:#181818;stroke-width:0.6999999999999998;" width="7" x="891.8" y="585.617"/><rect fill="none" height="166.8297" style="stroke:#000000;stroke-width:1.0499999999999998;" width="863.8" x="87.5" y="446.291"/><line style="stroke:#181818;stroke-width:0.3499999999999999;stroke-dasharray:5.0,5.0;" x1="19.6" x2="19.6" y1="86.2695" y2="625.0207"/><line style="stroke:#181818;stroke-width:0.3499999999999999;stroke-dasharray:5.0,5.0;" x1="109.2" x2="109.2" y1="86.2695" y2="625.0207"/><line style="stroke:#181818;stroke-width:0.3499999999999999;stroke-dasharray:5.0,5.0;" x1="198.1" x2="198.1" y1="86.2695" y2="625.0207"/><line style="stroke:#181818;stroke-width:0.3499999999999999;stroke-dasharray:5.0,5.0;" x1="294.7" x2="294.7" y1="183.5518" y2="625.0207"/><line style="stroke:#181818;stroke-width:0.3499999999999999;stroke-dasharray:5.0,5.0;" x1="373.8" x2="373.8" y1="86.2695" y2="625.0207"/><line style="stroke:#181818;stroke-width:0.3499999999999999;stroke-dasharray:5.0,5.0;" x1="492.8" x2="492.8" y1="257.8939" y2="625.0207"/><line style="stroke:#181818;stroke-width:0.3499999999999999;stroke-dasharray:5.0,5.0;" x1="592.2" x2="592.2" y1="86.2695" y2="625.0207"/><line style="stroke:#181818;stroke-width:0.3499999999999999;stroke-dasharray:5.0,5.0;" x1="662.9" x2="662.9" y1="86.2695" y2="625.0207"/><line style="stroke:#181818;stroke-width:0.3499999999999999;stroke-dasharray:5.0,5.0;" x1="771.4" x2="771.4" y1="86.2695" y2="625.0207"/><line style="stroke:#181818;stroke-width:0.3499999999999999;stroke-dasharray:5.0,5.0;" x1="895.3" x2="895.3" y1="86.2695" y2="625.0207"/><text fill="#000000" font-family="sans-serif" font-size="9.8" lengthAdjust="spacing" textLength="28.7" x="3.5" y="83.81">Owner</text><ellipse cx="19.95" cy="37.1848" fill="#E2E2F0" rx="5.6" ry="5.6" style="stroke:#181818;stroke-width:0.3499999999999999;"/><path d="M19.95,42.7848 L19.95,61.6848 M10.85,48.3848 L29.05,48.3848 M19.95,61.6848 L10.85,72.1848 M19.95,61.6848 L29.05,72.1848 " fill="none" style="stroke:#181818;stroke-width:0.3499999999999999;"/><text fill="#000000" font-family="sans-serif" font-size="9.8" lengthAdjust="spacing" textLength="28.7" x="3.5" y="634.8959">Owner</text><ellipse cx="19.95" cy="643.3055" fill="#E2E2F0" rx="5.6" ry="5.6" style="stroke:#181818;stroke-width:0.3499999999999999;"/><path d="M19.95,648.9055 L19.95,667.8055 M10.85,654.5055 L29.05,654.5055 M19.95,667.8055 L10.85,678.3055 M19.95,667.8055 L29.05,678.3055 " fill="none" style="stroke:#181818;stroke-width:0.3499999999999999;"/><text fill="#000000" font-family="sans-serif" font-size="9.8" lengthAdjust="spacing" textLength="25.9" x="94.5" y="83.81">Agent</text><ellipse cx="109.55" cy="37.1848" fill="#E2E2F0" rx="5.6" ry="5.6" style="stroke:#181818;stroke-width:0.3499999999999999;"/><path d="M109.55,42.7848 L109.55,61.6848 M100.45,48.3848 L118.65,48.3848 M109.55,61.6848 L100.45,72.1848 M109.55,61.6848 L118.65,72.1848 " fill="none" style="stroke:#181818;stroke-width:0.3499999999999999;"/><text fill="#000000" font-family="sans-serif" font-size="9.8" lengthAdjust="spacing" textLength="25.9" x="94.5" y="634.8959">Agent</text><ellipse cx="109.55" cy="643.3055" fill="#E2E2F0" rx="5.6" ry="5.6" style="stroke:#181818;stroke-width:0.3499999999999999;"/><path d="M109.55,648.9055 L109.55,667.8055 M100.45,654.5055 L118.65,654.5055 M109.55,667.8055 L100.45,678.3055 M109.55,667.8055 L118.65,678.3055 " fill="none" style="stroke:#181818;stroke-width:0.3499999999999999;"/><rect fill="#E2E2F0" height="22.8348" rx="1.75" ry="1.75" style="stroke:#181818;stroke-width:0.3499999999999999;" width="48.3" x="174.3" y="62.7348"/><text fill="#000000" font-family="sans-serif" font-size="9.8" lengthAdjust="spacing" textLength="38.5" x="179.2" y="78.21">:AdminUI</text><rect fill="#E2E2F0" height="22.8348" rx="1.75" ry="1.75" style="stroke:#181818;stroke-width:0.3499999999999999;" width="48.3" x="174.3" y="624.3207"/><text fill="#000000" font-family="sans-serif" font-size="9.8" lengthAdjust="spacing" textLength="38.5" x="179.2" y="639.7959">:AdminUI</text><rect fill="#E2E2F0" height="22.8348" rx="1.75" ry="1.75" style="stroke:#181818;stroke-width:0.3499999999999999;" width="55.3" x="267.4" y="624.3207"/><text fill="#000000" font-family="sans-serif" font-size="9.8" lengthAdjust="spacing" textLength="45.5" x="272.3" y="639.7959">:MenuItem</text><rect fill="#E2E2F0" height="22.8348" rx="1.75" ry="1.75" style="stroke:#181818;stroke-width:0.3499999999999999;" width="88.9" x="329.7" y="62.7348"/><text fill="#000000" font-family="sans-serif" font-size="9.8" lengthAdjust="spacing" textLength="79.1" x="334.6" y="78.21">:SetCommissionUI</text><rect fill="#E2E2F0" height="22.8348" rx="1.75" ry="1.75" style="stroke:#181818;stroke-width:0.3499999999999999;" width="88.9" x="329.7" y="624.3207"/><text fill="#000000" font-family="sans-serif" font-size="9.8" lengthAdjust="spacing" textLength="79.1" x="334.6" y="639.7959">:SetCommissionUI</text><rect fill="#E2E2F0" height="22.8348" rx="1.75" ry="1.75" style="stroke:#181818;stroke-width:0.3499999999999999;" width="123.9" x="431.2" y="624.3207"/><text fill="#000000" font-family="sans-serif" font-size="9.8" lengthAdjust="spacing" textLength="114.1" x="436.1" y="639.7959">:SetCommissionController</text><rect fill="#E2E2F0" height="22.8348" rx="1.75" ry="1.75" style="stroke:#181818;stroke-width:0.3499999999999999;" width="60.2" x="562.1" y="62.7348"/><text fill="#000000" font-family="sans-serif" font-size="9.8" lengthAdjust="spacing" textLength="50.4" x="567" y="78.21">:Repository</text><rect fill="#E2E2F0" height="22.8348" rx="1.75" ry="1.75" style="stroke:#181818;stroke-width:0.3499999999999999;" width="60.2" x="562.1" y="624.3207"/><text fill="#000000" font-family="sans-serif" font-size="9.8" lengthAdjust="spacing" textLength="50.4" x="567" y="639.7959">:Repository</text><rect fill="#E2E2F0" height="35.8695" rx="1.75" ry="1.75" style="stroke:#181818;stroke-width:0.3499999999999999;" width="67.9" x="629.3" y="49.7"/><text fill="#000000" font-family="sans-serif" font-size="9.8" lengthAdjust="spacing" textLength="51.8" x="637.35" y="65.1752">repositories</text><text fill="#000000" font-family="sans-serif" font-size="9.8" lengthAdjust="spacing" textLength="58.1" x="634.2" y="78.21">:Repositories</text><rect fill="#E2E2F0" height="35.8695" rx="1.75" ry="1.75" style="stroke:#181818;stroke-width:0.3499999999999999;" width="67.9" x="629.3" y="624.3207"/><text fill="#000000" font-family="sans-serif" font-size="9.8" lengthAdjust="spacing" textLength="51.8" x="637.35" y="639.7959">repositories</text><text fill="#000000" font-family="sans-serif" font-size="9.8" lengthAdjust="spacing" textLength="58.1" x="634.2" y="652.8307">:Repositories</text><rect fill="#E2E2F0" height="22.8348" rx="1.75" ry="1.75" style="stroke:#181818;stroke-width:0.3499999999999999;" width="135.1" x="704.2" y="62.7348"/><text fill="#000000" font-family="sans-serif" font-size="9.8" lengthAdjust="spacing" textLength="125.3" x="709.1" y="78.21">:PropertyRequestRepository</text><rect fill="#E2E2F0" height="22.8348" rx="1.75" ry="1.75" style="stroke:#181818;stroke-width:0.3499999999999999;" width="135.1" x="704.2" y="624.3207"/><text fill="#000000" font-family="sans-serif" font-size="9.8" lengthAdjust="spacing" textLength="125.3" x="709.1" y="639.7959">:PropertyRequestRepository</text><rect fill="#E2E2F0" height="22.8348" rx="1.75" ry="1.75" style="stroke:#181818;stroke-width:0.3499999999999999;" width="98" x="846.3" y="62.7348"/><text fill="#000000" font-family="sans-serif" font-size="9.8" lengthAdjust="spacing" textLength="88.2" x="851.2" y="78.21">:PropertyRepository</text><rect fill="#E2E2F0" height="22.8348" rx="1.75" ry="1.75" style="stroke:#181818;stroke-width:0.3499999999999999;" width="98" x="846.3" y="624.3207"/><text fill="#000000" font-family="sans-serif" font-size="9.8" lengthAdjust="spacing" textLength="88.2" x="851.2" y="639.7959">:PropertyRepository</text><rect fill="#FFFFFF" height="28.4074" style="stroke:#181818;stroke-width:0.6999999999999998;" width="7" x="16.45" y="93.2695"/><rect fill="#FFFFFF" height="497.0437" style="stroke:#181818;stroke-width:0.6999999999999998;" width="7" x="106.05" y="121.677"/><rect fill="#FFFFFF" height="52.4385" style="stroke:#181818;stroke-width:0.6999999999999998;" width="7" x="194.95" y="155.6844"/><rect fill="#FFFFFF" height="21.9037" style="stroke:#181818;stroke-width:0.6999999999999998;" width="7" x="291.55" y="208.1229"/><rect fill="#FFFFFF" height="52.4385" style="stroke:#181818;stroke-width:0.6999999999999998;" width="7" x="370.65" y="230.0266"/><rect fill="#FFFFFF" height="303.152" style="stroke:#181818;stroke-width:0.6999999999999998;" width="7" x="489.65" y="282.465"/><rect fill="#FFFFFF" height="21.9037" style="stroke:#181818;stroke-width:0.6999999999999998;" width="7" x="588.7" y="304.3687"/><rect fill="#FFFFFF" height="21.9037" style="stroke:#181818;stroke-width:0.6999999999999998;" width="7" x="588.7" y="498.0021"/><rect fill="#FFFFFF" height="21.9037" style="stroke:#181818;stroke-width:0.6999999999999998;" width="7" x="659.75" y="348.1762"/><rect fill="#FFFFFF" height="21.9037" style="stroke:#181818;stroke-width:0.6999999999999998;" width="7" x="659.75" y="541.8096"/><rect fill="#FFFFFF" height="21.9037" style="stroke:#181818;stroke-width:0.6999999999999998;" width="7" x="768.25" y="391.9836"/><rect fill="#FFFFFF" height="21.9037" style="stroke:#181818;stroke-width:0.6999999999999998;" width="7" x="891.8" y="585.617"/><polygon fill="#181818" points="97.65,118.877,104.65,121.677,97.65,124.477,100.45,121.677" style="stroke:#181818;stroke-width:0.6999999999999998;"/><line style="stroke:#181818;stroke-width:0.6999999999999998;" x1="19.95" x2="101.85" y1="121.677" y2="121.677"/><text fill="#000000" font-family="sans-serif" font-size="9.1" font-weight="bold" lengthAdjust="spacing" textLength="4.9" x="24.85" y="111.9412">1</text><text fill="#000000" font-family="sans-serif" font-size="9.1" lengthAdjust="spacing" textLength="61.6" x="32.55" y="105.8894">sends Property</text><text fill="#000000" font-family="sans-serif" font-size="9.1" lengthAdjust="spacing" textLength="49.7" x="32.55" y="117.9931">Request to..</text><polygon fill="#181818" points="186.55,152.8844,193.55,155.6844,186.55,158.4844,189.35,155.6844" style="stroke:#181818;stroke-width:0.6999999999999998;"/><line style="stroke:#181818;stroke-width:0.6999999999999998;" x1="113.05" x2="190.75" y1="155.6844" y2="155.6844"/><text fill="#000000" font-family="sans-serif" font-size="9.1" font-weight="bold" lengthAdjust="spacing" textLength="4.9" x="117.95" y="145.9486">2</text><text fill="#000000" font-family="sans-serif" font-size="9.1" lengthAdjust="spacing" textLength="60.9" x="125.65" y="139.8968">requests to set</text><text fill="#000000" font-family="sans-serif" font-size="9.1" lengthAdjust="spacing" textLength="53.9" x="125.65" y="152.0005">commissions</text><polygon fill="#181818" points="259,174.7881,266,177.5881,259,180.3881,261.8,177.5881" style="stroke:#181818;stroke-width:0.6999999999999998;"/><line style="stroke:#181818;stroke-width:0.6999999999999998;" x1="201.95" x2="263.2" y1="177.5881" y2="177.5881"/><text fill="#000000" font-family="sans-serif" font-size="9.1" font-weight="bold" lengthAdjust="spacing" textLength="4.9" x="206.85" y="173.9042">3</text><text fill="#000000" font-family="sans-serif" font-size="9.1" lengthAdjust="spacing" textLength="25.2" x="214.55" y="173.9042">create</text><rect fill="#E2E2F0" height="22.8348" rx="1.75" ry="1.75" style="stroke:#181818;stroke-width:0.3499999999999999;" width="55.3" x="267.4" y="161.2844"/><text fill="#000000" font-family="sans-serif" font-size="9.8" lengthAdjust="spacing" textLength="45.5" x="272.3" y="176.7596">:MenuItem</text><polygon fill="#181818" points="283.15,205.3229,290.15,208.1229,283.15,210.9229,285.95,208.1229" style="stroke:#181818;stroke-width:0.6999999999999998;"/><line style="stroke:#181818;stroke-width:0.6999999999999998;" x1="198.45" x2="287.35" y1="208.1229" y2="208.1229"/><text fill="#000000" font-family="sans-serif" font-size="9.1" font-weight="bold" lengthAdjust="spacing" textLength="4.9" x="203.35" y="204.439">4</text><text fill="#000000" font-family="sans-serif" font-size="9.1" lengthAdjust="spacing" textLength="68.6" x="211.05" y="204.439">setCommission()</text><polygon fill="#181818" points="362.25,227.2266,369.25,230.0266,362.25,232.8266,365.05,230.0266" style="stroke:#181818;stroke-width:0.6999999999999998;"/><line style="stroke:#181818;stroke-width:0.6999999999999998;" x1="295.05" x2="366.45" y1="230.0266" y2="230.0266"/><text fill="#000000" font-family="sans-serif" font-size="9.1" font-weight="bold" lengthAdjust="spacing" textLength="4.9" x="299.95" y="226.3427">5</text><text fill="#000000" font-family="sans-serif" font-size="9.1" lengthAdjust="spacing" textLength="18.2" x="307.65" y="226.3427">run()</text><polygon fill="#181818" points="422.8,249.1303,429.8,251.9303,422.8,254.7303,425.6,251.9303" style="stroke:#181818;stroke-width:0.6999999999999998;"/><line style="stroke:#181818;stroke-width:0.6999999999999998;" x1="377.65" x2="427" y1="251.9303" y2="251.9303"/><text fill="#000000" font-family="sans-serif" font-size="9.1" font-weight="bold" lengthAdjust="spacing" textLength="4.9" x="382.55" y="248.2464">6</text><text fill="#000000" font-family="sans-serif" font-size="9.1" lengthAdjust="spacing" textLength="25.2" x="390.25" y="248.2464">create</text><rect fill="#E2E2F0" height="22.8348" rx="1.75" ry="1.75" style="stroke:#181818;stroke-width:0.3499999999999999;" width="123.9" x="431.2" y="235.6266"/><text fill="#000000" font-family="sans-serif" font-size="9.8" lengthAdjust="spacing" textLength="114.1" x="436.1" y="251.1018">:SetCommissionController</text><polygon fill="#181818" points="481.25,279.665,488.25,282.465,481.25,285.265,484.05,282.465" style="stroke:#181818;stroke-width:0.6999999999999998;"/><line style="stroke:#181818;stroke-width:0.6999999999999998;" x1="374.15" x2="485.45" y1="282.465" y2="282.465"/><text fill="#000000" font-family="sans-serif" font-size="9.1" font-weight="bold" lengthAdjust="spacing" textLength="4.9" x="379.05" y="278.7812">7</text><text fill="#000000" font-family="sans-serif" font-size="9.1" lengthAdjust="spacing" textLength="91" x="386.75" y="278.7812">getPropertyRequests()</text><polygon fill="#181818" points="580.3,301.5687,587.3,304.3687,580.3,307.1687,583.1,304.3687" style="stroke:#181818;stroke-width:0.6999999999999998;"/><line style="stroke:#181818;stroke-width:0.6999999999999998;" x1="496.65" x2="584.5" y1="304.3687" y2="304.3687"/><text fill="#000000" font-family="sans-serif" font-size="9.1" font-weight="bold" lengthAdjust="spacing" textLength="4.9" x="501.55" y="300.6849">8</text><text fill="#000000" font-family="sans-serif" font-size="9.1" lengthAdjust="spacing" textLength="52.5" x="509.25" y="300.6849">getInstance()</text><polygon fill="#181818" points="504.35,323.4725,497.35,326.2725,504.35,329.0725,501.55,326.2725" style="stroke:#181818;stroke-width:0.6999999999999998;"/><line style="stroke:#181818;stroke-width:0.6999999999999998;stroke-dasharray:2.0,2.0;" x1="500.15" x2="591.5" y1="326.2725" y2="326.2725"/><text fill="#000000" font-family="sans-serif" font-size="9.1" font-weight="bold" lengthAdjust="spacing" textLength="4.9" x="508.55" y="322.5886">9</text><text fill="#000000" font-family="sans-serif" font-size="9.1" lengthAdjust="spacing" textLength="46.9" x="516.25" y="322.5886">repositories</text><polygon fill="#181818" points="651.35,345.3762,658.35,348.1762,651.35,350.9762,654.15,348.1762" style="stroke:#181818;stroke-width:0.6999999999999998;"/><line style="stroke:#181818;stroke-width:0.6999999999999998;" x1="496.65" x2="655.55" y1="348.1762" y2="348.1762"/><text fill="#000000" font-family="sans-serif" font-size="9.1" font-weight="bold" lengthAdjust="spacing" textLength="9.8" x="501.55" y="344.4923">10</text><text fill="#000000" font-family="sans-serif" font-size="9.1" lengthAdjust="spacing" textLength="129.5" x="514.15" y="344.4923">getPropertyRequestRepository()</text><polygon fill="#181818" points="504.35,367.2799,497.35,370.0799,504.35,372.8799,501.55,370.0799" style="stroke:#181818;stroke-width:0.6999999999999998;"/><line style="stroke:#181818;stroke-width:0.6999999999999998;stroke-dasharray:2.0,2.0;" x1="500.15" x2="662.55" y1="370.0799" y2="370.0799"/><text fill="#000000" font-family="sans-serif" font-size="9.1" font-weight="bold" lengthAdjust="spacing" textLength="9.8" x="508.55" y="366.396">11</text><text fill="#000000" font-family="sans-serif" font-size="9.1" lengthAdjust="spacing" textLength="109.9" x="521.15" y="366.396">requestRepository</text><polygon fill="#181818" points="759.85,389.1836,766.85,391.9836,759.85,394.7836,762.65,391.9836" style="stroke:#181818;stroke-width:0.6999999999999998;"/><line style="stroke:#181818;stroke-width:0.6999999999999998;" x1="496.65" x2="764.05" y1="391.9836" y2="391.9836"/><text fill="#000000" font-family="sans-serif" font-size="9.1" font-weight="bold" lengthAdjust="spacing" textLength="9.8" x="501.55" y="388.2997">12</text><text fill="#000000" font-family="sans-serif" font-size="9.1" lengthAdjust="spacing" textLength="91" x="514.15" y="388.2997">getPropertyRequests()</text><polygon fill="#181818" points="504.35,411.0873,497.35,413.8873,504.35,416.6873,501.55,413.8873" style="stroke:#181818;stroke-width:0.6999999999999998;"/><line style="stroke:#181818;stroke-width:0.6999999999999998;stroke-dasharray:2.0,2.0;" x1="500.15" x2="771.05" y1="413.8873" y2="413.8873"/><text fill="#000000" font-family="sans-serif" font-size="9.1" font-weight="bold" lengthAdjust="spacing" textLength="9.8" x="508.55" y="410.2034">13</text><text fill="#000000" font-family="sans-serif" font-size="9.1" lengthAdjust="spacing" textLength="81.2" x="521.15" y="410.2034">propertyRequestList</text><polygon fill="#181818" points="120.75,432.991,113.75,435.791,120.75,438.591,117.95,435.791" style="stroke:#181818;stroke-width:0.6999999999999998;"/><line style="stroke:#181818;stroke-width:0.6999999999999998;stroke-dasharray:2.0,2.0;" x1="116.55" x2="488.95" y1="435.791" y2="435.791"/><text fill="#000000" font-family="sans-serif" font-size="9.1" font-weight="bold" lengthAdjust="spacing" textLength="9.8" x="124.95" y="432.1071">14</text><text fill="#000000" font-family="sans-serif" font-size="9.1" lengthAdjust="spacing" textLength="263.9" x="137.55" y="432.1071">prints all property requests (along with the necessary information)</text><path d="M87.5,446.291 L138.6,446.291 L138.6,452.7947 L131.6,459.7947 L87.5,459.7947 L87.5,446.291 " fill="#EEEEEE" style="stroke:#000000;stroke-width:1.0499999999999998;"/><rect fill="none" height="166.8297" style="stroke:#000000;stroke-width:1.0499999999999998;" width="863.8" x="87.5" y="446.291"/><text fill="#000000" font-family="sans-serif" font-size="9.1" font-weight="bold" lengthAdjust="spacing" textLength="19.6" x="98" y="456.8108">loop</text><text fill="#000000" font-family="sans-serif" font-size="7.7" font-weight="bold" lengthAdjust="spacing" textLength="108.5" x="149.1" y="456.0001">[for every PropertyRequest]</text><polygon fill="#181818" points="481.25,473.2984,488.25,476.0984,481.25,478.8984,484.05,476.0984" style="stroke:#181818;stroke-width:0.6999999999999998;"/><line style="stroke:#181818;stroke-width:0.6999999999999998;" x1="113.05" x2="485.45" y1="476.0984" y2="476.0984"/><text fill="#000000" font-family="sans-serif" font-size="9.1" font-weight="bold" lengthAdjust="spacing" textLength="9.8" x="117.95" y="472.4146">15</text><text fill="#000000" font-family="sans-serif" font-size="9.1" lengthAdjust="spacing" textLength="177.1" x="130.55" y="472.4146">setCommission() (percentage or fixed value)</text><polygon fill="#181818" points="580.3,495.2021,587.3,498.0021,580.3,500.8021,583.1,498.0021" style="stroke:#181818;stroke-width:0.6999999999999998;"/><line style="stroke:#181818;stroke-width:0.6999999999999998;" x1="496.65" x2="584.5" y1="498.0021" y2="498.0021"/><text fill="#000000" font-family="sans-serif" font-size="9.1" font-weight="bold" lengthAdjust="spacing" textLength="9.8" x="501.55" y="494.3183">16</text><text fill="#000000" font-family="sans-serif" font-size="9.1" lengthAdjust="spacing" textLength="52.5" x="514.15" y="494.3183">getInstance()</text><polygon fill="#181818" points="504.35,517.1059,497.35,519.9059,504.35,522.7059,501.55,519.9059" style="stroke:#181818;stroke-width:0.6999999999999998;"/><line style="stroke:#181818;stroke-width:0.6999999999999998;stroke-dasharray:2.0,2.0;" x1="500.15" x2="591.5" y1="519.9059" y2="519.9059"/><text fill="#000000" font-family="sans-serif" font-size="9.1" font-weight="bold" lengthAdjust="spacing" textLength="9.8" x="508.55" y="516.222">17</text><text fill="#000000" font-family="sans-serif" font-size="9.1" lengthAdjust="spacing" textLength="46.9" x="521.15" y="516.222">repositories</text><polygon fill="#181818" points="651.35,539.0096,658.35,541.8096,651.35,544.6096,654.15,541.8096" style="stroke:#181818;stroke-width:0.6999999999999998;"/><line style="stroke:#181818;stroke-width:0.6999999999999998;" x1="496.65" x2="655.55" y1="541.8096" y2="541.8096"/><text fill="#000000" font-family="sans-serif" font-size="9.1" font-weight="bold" lengthAdjust="spacing" textLength="9.8" x="501.55" y="538.1257">18</text><text fill="#000000" font-family="sans-serif" font-size="9.1" lengthAdjust="spacing" textLength="95.9" x="514.15" y="538.1257">getPropertyRepository()</text><polygon fill="#181818" points="504.35,560.9133,497.35,563.7133,504.35,566.5133,501.55,563.7133" style="stroke:#181818;stroke-width:0.6999999999999998;"/><line style="stroke:#181818;stroke-width:0.6999999999999998;stroke-dasharray:2.0,2.0;" x1="500.15" x2="662.55" y1="563.7133" y2="563.7133"/><text fill="#000000" font-family="sans-serif" font-size="9.1" font-weight="bold" lengthAdjust="spacing" textLength="9.8" x="508.55" y="560.0294">19</text><text fill="#000000" font-family="sans-serif" font-size="9.1" lengthAdjust="spacing" textLength="76.3" x="521.15" y="560.0294">propertyAnnouncementRepository</text><polygon fill="#181818" points="883.4,582.817,890.4,585.617,883.4,588.417,886.2,585.617" style="stroke:#181818;stroke-width:0.6999999999999998;"/><line style="stroke:#181818;stroke-width:0.6999999999999998;" x1="493.15" x2="887.6" y1="585.617" y2="585.617"/><text fill="#000000" font-family="sans-serif" font-size="9.1" font-weight="bold" lengthAdjust="spacing" textLength="9.8" x="498.05" y="581.9331">20</text><text fill="#000000" font-family="sans-serif" font-size="9.1" lengthAdjust="spacing" textLength="72.8" x="510.65" y="581.9331">adds Property to..</text><polygon fill="#181818" points="120.75,604.7207,113.75,607.5207,120.75,610.3207,117.95,607.5207" style="stroke:#181818;stroke-width:0.6999999999999998;"/><line style="stroke:#181818;stroke-width:0.6999999999999998;stroke-dasharray:2.0,2.0;" x1="116.55" x2="894.6" y1="607.5207" y2="607.5207"/><text fill="#000000" font-family="sans-serif" font-size="9.1" font-weight="bold" lengthAdjust="spacing" textLength="9.8" x="124.95" y="603.8368">21</text><text fill="#000000" font-family="sans-serif" font-size="9.1" lengthAdjust="spacing" textLength="132.3" x="137.55" y="603.8368">displays operation's (un)success</text><!--SRC=[rLMnRjim4Dtv5OSijGCu23fcA60uYm4N3Qnayy9IPva8HQeaPTT_toDbIJGZ1qMtBWR9U-_TcVUESkzIDzpo6Xektdc5XJyh18l2SrqfP6u0k0ClpKdg2lPSEMJCIq_GDuSM2c_i6HuVly822lpLeXO8pv9NWJWhdkUCyTORtTO_qT9Q41xkVfmqsZlW3kAgFrvMg7qyZYj6wRqKik7QmztJigobVbjtyMwT8RwZRjSUwmW9conUe5-PkfREITChPMUVCLP6UskKkfI-UjrkClWM6-Dak9A86BU537TAzt1Di3r0ejlfaKxRAF2oMRvcALwiQT3wypPSjlDPnYnwapj9YksHH-xnqfRu2ujlNJlW2HpgSiJlz2KDUFFmm4hCwCEswoRhL89SrpqIj9s08mKIzpijXjjs2V_IRTOJIIEqz_wU98H5mkIXM6pIkzayhQyN70wYMLWaaa3cYL1dcob4mh3BJSHOBa6gmIzfnJSW1AZGPurqrzdpV4CWUf956PARy5-dljQEfbmWgGxKAREoAON5M6ZgtxI-IQs-gc3goJyvijAwuWomI4eoDxUeQHaTTSXxJRbvpoCz6oQMAzokPoC9drQIItL59QFLMAbf3hXIWzOu7JEk33s_9-aFu0y86WKwn-dbbNflRCqz-O2UMcLC0tG0U4GAvbc70RmKdKq8p0Wj249V0o2HlVoD9HovQd7-FvhgNzpqzpOY6Y-Jr_338nXdyOC31XDTTR-Khb7yx234OZU_KDTRFNUj2AsUyXAZn_WF]--></g></svg>