<?xml version="1.0" encoding="us-ascii" standalone="no"?><svg xmlns="http://www.w3.org/2000/svg" xmlns:xlink="http://www.w3.org/1999/xlink" contentStyleType="text/css" height="508.2px" preserveAspectRatio="none" style="width:371px;height:508px;background:#FFFFFF;" version="1.1" viewBox="0 0 371 508" width="371.4px" zoomAndPan="magnify"><defs/><g><text fill="#000000" font-family="sans-serif" font-size="8.4" font-weight="bold" lengthAdjust="spacing" textLength="205.2" x="83.7" y="18.0645">User Story 010 - System Sequence Diagram (SSD)</text><rect fill="#FFFFFF" height="373.418" style="stroke:#181818;stroke-width:0.6;" width="6" x="39.6" y="79.9453"/><rect fill="#FFFFFF" height="63.3023" style="stroke:#181818;stroke-width:0.6;" width="6" x="321" y="93.9199"/><rect fill="#FFFFFF" height="72.0809" style="stroke:#181818;stroke-width:0.6;" width="6" x="321" y="175.9969"/><rect fill="#FFFFFF" height="34.5492" style="stroke:#181818;stroke-width:0.6;" width="6" x="321" y="266.8523"/><rect fill="#FFFFFF" height="115.1871" style="stroke:#181818;stroke-width:0.6;" width="6" x="321" y="320.1762"/><rect fill="none" height="345.6434" style="stroke:#000000;stroke-width:0.8999999999999999;" width="361.2" x="6" y="102.9199"/><rect fill="none" height="259.3664" style="stroke:#000000;stroke-width:0.8999999999999999;" width="349.2" x="12" y="184.9969"/><rect fill="none" height="164.3109" style="stroke:#000000;stroke-width:0.8999999999999999;" width="337.2" x="18" y="275.8523"/><rect fill="none" height="78.034" style="stroke:#000000;stroke-width:0.8999999999999999;" width="325.2" x="24" y="329.1762"/><line style="stroke:#181818;stroke-width:0.3;stroke-dasharray:5.0,5.0;" x1="42.6" x2="42.6" y1="73.9453" y2="458.7633"/><line style="stroke:#181818;stroke-width:0.3;stroke-dasharray:5.0,5.0;" x1="324" x2="324" y1="73.9453" y2="458.7633"/><text fill="#000000" font-family="sans-serif" font-size="8.4" lengthAdjust="spacing" textLength="21.6" x="30" y="71.8371">Client</text><ellipse cx="42.6" cy="31.8727" fill="#E3E3E3" rx="4.8" ry="4.8" style="stroke:#181818;stroke-width:0.3;"/><path d="M42.6,36.6727 L42.6,52.8727 M34.8,41.4727 L50.4,41.4727 M42.6,52.8727 L34.8,61.8727 M42.6,52.8727 L50.4,61.8727 " fill="none" style="stroke:#181818;stroke-width:0.3;"/><text fill="#000000" font-family="sans-serif" font-size="8.4" lengthAdjust="spacing" textLength="21.6" x="30" y="467.2277">Client</text><ellipse cx="42.6" cy="474.4359" fill="#E3E3E3" rx="4.8" ry="4.8" style="stroke:#181818;stroke-width:0.3;"/><path d="M42.6,479.2359 L42.6,495.4359 M34.8,484.0359 L50.4,484.0359 M42.6,495.4359 L34.8,504.4359 M42.6,495.4359 L50.4,504.4359 " fill="none" style="stroke:#181818;stroke-width:0.3;"/><rect fill="#E3E3E3" height="19.5727" rx="1.5" ry="1.5" style="stroke:#181818;stroke-width:0.3;" width="38.4" x="304.8" y="53.7727"/><text fill="#000000" font-family="sans-serif" font-size="8.4" lengthAdjust="spacing" textLength="30" x="309" y="67.0371">:System</text><rect fill="#E3E3E3" height="19.5727" rx="1.5" ry="1.5" style="stroke:#181818;stroke-width:0.3;" width="38.4" x="304.8" y="458.1633"/><text fill="#000000" font-family="sans-serif" font-size="8.4" lengthAdjust="spacing" textLength="30" x="309" y="471.4277">:System</text><rect fill="#FFFFFF" height="373.418" style="stroke:#181818;stroke-width:0.6;" width="6" x="39.6" y="79.9453"/><rect fill="#FFFFFF" height="63.3023" style="stroke:#181818;stroke-width:0.6;" width="6" x="321" y="93.9199"/><rect fill="#FFFFFF" height="72.0809" style="stroke:#181818;stroke-width:0.6;" width="6" x="321" y="175.9969"/><rect fill="#FFFFFF" height="34.5492" style="stroke:#181818;stroke-width:0.6;" width="6" x="321" y="266.8523"/><rect fill="#FFFFFF" height="115.1871" style="stroke:#181818;stroke-width:0.6;" width="6" x="321" y="320.1762"/><polygon fill="#181818" points="313.8,91.5199,319.8,93.9199,313.8,96.3199,316.2,93.9199" style="stroke:#181818;stroke-width:0.6;"/><line style="stroke:#181818;stroke-width:0.6;" x1="45.6" x2="317.4" y1="93.9199" y2="93.9199"/><text fill="#000000" font-family="sans-serif" font-size="7.8" font-weight="bold" lengthAdjust="spacing" textLength="4.2" x="49.8" y="90.7623">1</text><text fill="#000000" font-family="sans-serif" font-size="7.8" lengthAdjust="spacing" textLength="77.4" x="56.4" y="90.7623">asks to place an order</text><path d="M6,102.9199 L42.6,102.9199 L42.6,108.4945 L36.6,114.4945 L6,114.4945 L6,102.9199 " fill="#EEEEEE" style="stroke:#000000;stroke-width:0.8999999999999999;"/><rect fill="none" height="345.6434" style="stroke:#000000;stroke-width:0.8999999999999999;" width="361.2" x="6" y="102.9199"/><text fill="#000000" font-family="sans-serif" font-size="7.8" font-weight="bold" lengthAdjust="spacing" textLength="9.6" x="15" y="111.9369">alt</text><text fill="#000000" font-family="sans-serif" font-size="6.6" font-weight="bold" lengthAdjust="spacing" textLength="130.2" x="51.6" y="111.242">[there are no properties in the system]</text><polygon fill="#181818" points="52.2,126.0691,46.2,128.4691,52.2,130.8691,49.8,128.4691" style="stroke:#181818;stroke-width:0.6;"/><line style="stroke:#181818;stroke-width:0.6;stroke-dasharray:2.0,2.0;" x1="48.6" x2="320.4" y1="128.4691" y2="128.4691"/><text fill="#000000" font-family="sans-serif" font-size="7.8" font-weight="bold" lengthAdjust="spacing" textLength="4.2" x="55.8" y="125.3115">2</text><text fill="#000000" font-family="sans-serif" font-size="7.8" lengthAdjust="spacing" textLength="190.8" x="62.4" y="125.3115">tells the user that there are no properties in the system</text><line style="stroke:#000000;stroke-width:0.6;stroke-dasharray:2.0,2.0;" x1="6" x2="367.2" y1="133.8691" y2="133.8691"/><text fill="#000000" font-family="sans-serif" font-size="6.6" font-weight="bold" lengthAdjust="spacing" textLength="120" x="9" y="140.9912">[there are properties in the system]</text><polygon fill="#181818" points="52.2,154.8223,46.2,157.2223,52.2,159.6223,49.8,157.2223" style="stroke:#181818;stroke-width:0.6;"/><line style="stroke:#181818;stroke-width:0.6;stroke-dasharray:2.0,2.0;" x1="48.6" x2="323.4" y1="157.2223" y2="157.2223"/><text fill="#000000" font-family="sans-serif" font-size="7.8" font-weight="bold" lengthAdjust="spacing" textLength="4.2" x="55.8" y="154.0646">3</text><text fill="#000000" font-family="sans-serif" font-size="7.8" lengthAdjust="spacing" textLength="181.2" x="62.4" y="154.0646">request to select desired Filters to list the properties</text><polygon fill="#181818" points="313.8,173.5969,319.8,175.9969,313.8,178.3969,316.2,175.9969" style="stroke:#181818;stroke-width:0.6;"/><line style="stroke:#181818;stroke-width:0.6;" x1="45.6" x2="317.4" y1="175.9969" y2="175.9969"/><text fill="#000000" font-family="sans-serif" font-size="7.8" font-weight="bold" lengthAdjust="spacing" textLength="4.2" x="49.8" y="172.8393">4</text><text fill="#000000" font-family="sans-serif" font-size="7.8" lengthAdjust="spacing" textLength="114" x="56.4" y="172.8393">selects the desired filters (or not)</text><path d="M12,184.9969 L48.6,184.9969 L48.6,190.5715 L42.6,196.5715 L12,196.5715 L12,184.9969 " fill="#EEEEEE" style="stroke:#000000;stroke-width:0.8999999999999999;"/><rect fill="none" height="259.3664" style="stroke:#000000;stroke-width:0.8999999999999999;" width="349.2" x="12" y="184.9969"/><text fill="#000000" font-family="sans-serif" font-size="7.8" font-weight="bold" lengthAdjust="spacing" textLength="9.6" x="21" y="194.0139">alt</text><text fill="#000000" font-family="sans-serif" font-size="6.6" font-weight="bold" lengthAdjust="spacing" textLength="224.4" x="57.6" y="193.3189">[there are no properties in the system that meet the chosen filters]</text><polygon fill="#181818" points="52.2,208.1461,46.2,210.5461,52.2,212.9461,49.8,210.5461" style="stroke:#181818;stroke-width:0.6;"/><line style="stroke:#181818;stroke-width:0.6;stroke-dasharray:2.0,2.0;" x1="48.6" x2="320.4" y1="210.5461" y2="210.5461"/><text fill="#000000" font-family="sans-serif" font-size="7.8" font-weight="bold" lengthAdjust="spacing" textLength="4.2" x="55.8" y="207.3885">5</text><text fill="#000000" font-family="sans-serif" font-size="7.8" lengthAdjust="spacing" textLength="254.4" x="62.4" y="207.3885">tells the user that there are no properties in the system with those criteria</text><line style="stroke:#000000;stroke-width:0.6;stroke-dasharray:2.0,2.0;" x1="12" x2="361.2" y1="215.9461" y2="215.9461"/><text fill="#000000" font-family="sans-serif" font-size="6.6" font-weight="bold" lengthAdjust="spacing" textLength="151.2" x="15" y="223.0682">[there are properties in the system that meet</text><text fill="#000000" font-family="sans-serif" font-size="6.6" font-weight="bold" lengthAdjust="spacing" textLength="157.2" x="15" y="231.8467">those criteria or they didn't choose any criteria]</text><polygon fill="#181818" points="52.2,245.6777,46.2,248.0777,52.2,250.4777,49.8,248.0777" style="stroke:#181818;stroke-width:0.6;"/><line style="stroke:#181818;stroke-width:0.6;stroke-dasharray:2.0,2.0;" x1="48.6" x2="323.4" y1="248.0777" y2="248.0777"/><text fill="#000000" font-family="sans-serif" font-size="7.8" font-weight="bold" lengthAdjust="spacing" textLength="4.2" x="55.8" y="244.9201">6</text><text fill="#000000" font-family="sans-serif" font-size="7.8" lengthAdjust="spacing" textLength="137.4" x="62.4" y="244.9201">list properties and request to select one</text><polygon fill="#181818" points="313.8,264.4523,319.8,266.8523,313.8,269.2523,316.2,266.8523" style="stroke:#181818;stroke-width:0.6;"/><line style="stroke:#181818;stroke-width:0.6;" x1="45.6" x2="317.4" y1="266.8523" y2="266.8523"/><text fill="#000000" font-family="sans-serif" font-size="7.8" font-weight="bold" lengthAdjust="spacing" textLength="4.2" x="49.8" y="263.6947">7</text><text fill="#000000" font-family="sans-serif" font-size="7.8" lengthAdjust="spacing" textLength="70.8" x="56.4" y="263.6947">selects one property</text><path d="M18,275.8523 L54.6,275.8523 L54.6,281.427 L48.6,287.427 L18,287.427 L18,275.8523 " fill="#EEEEEE" style="stroke:#000000;stroke-width:0.8999999999999999;"/><rect fill="none" height="164.3109" style="stroke:#000000;stroke-width:0.8999999999999999;" width="337.2" x="18" y="275.8523"/><text fill="#000000" font-family="sans-serif" font-size="7.8" font-weight="bold" lengthAdjust="spacing" textLength="9.6" x="27" y="284.8693">alt</text><text fill="#000000" font-family="sans-serif" font-size="6.6" font-weight="bold" lengthAdjust="spacing" textLength="184.8" x="63.6" y="284.1744">[if the client hasn't registered an offer for this property]</text><polygon fill="#181818" points="52.2,299.0016,46.2,301.4016,52.2,303.8016,49.8,301.4016" style="stroke:#181818;stroke-width:0.6;"/><line style="stroke:#181818;stroke-width:0.6;stroke-dasharray:2.0,2.0;" x1="48.6" x2="323.4" y1="301.4016" y2="301.4016"/><text fill="#000000" font-family="sans-serif" font-size="7.8" font-weight="bold" lengthAdjust="spacing" textLength="4.2" x="55.8" y="298.2439">8</text><text fill="#000000" font-family="sans-serif" font-size="7.8" lengthAdjust="spacing" textLength="67.2" x="62.4" y="298.2439">request the amount</text><polygon fill="#181818" points="313.8,317.7762,319.8,320.1762,313.8,322.5762,316.2,320.1762" style="stroke:#181818;stroke-width:0.6;"/><line style="stroke:#181818;stroke-width:0.6;" x1="45.6" x2="317.4" y1="320.1762" y2="320.1762"/><text fill="#000000" font-family="sans-serif" font-size="7.8" font-weight="bold" lengthAdjust="spacing" textLength="4.2" x="49.8" y="317.0186">9</text><text fill="#000000" font-family="sans-serif" font-size="7.8" lengthAdjust="spacing" textLength="99" x="56.4" y="317.0186">sends the requested amount</text><path d="M24,329.1762 L60.6,329.1762 L60.6,334.7508 L54.6,340.7508 L24,340.7508 L24,329.1762 " fill="#EEEEEE" style="stroke:#000000;stroke-width:0.8999999999999999;"/><rect fill="none" height="78.034" style="stroke:#000000;stroke-width:0.8999999999999999;" width="325.2" x="24" y="329.1762"/><text fill="#000000" font-family="sans-serif" font-size="7.8" font-weight="bold" lengthAdjust="spacing" textLength="9.6" x="33" y="338.1932">alt</text><text fill="#000000" font-family="sans-serif" font-size="6.6" font-weight="bold" lengthAdjust="spacing" textLength="177.6" x="69.6" y="337.4982">[client has sent an amount that is equal to the amount</text><text fill="#000000" font-family="sans-serif" font-size="6.6" font-weight="bold" lengthAdjust="spacing" textLength="122.4" x="69.6" y="346.2768">from another client for this property]</text><polygon fill="#181818" points="52.2,371.257,46.2,373.657,52.2,376.057,49.8,373.657" style="stroke:#181818;stroke-width:0.6;"/><line style="stroke:#181818;stroke-width:0.6;stroke-dasharray:2.0,2.0;" x1="48.6" x2="320.4" y1="373.657" y2="373.657"/><text fill="#000000" font-family="sans-serif" font-size="7.8" font-weight="bold" lengthAdjust="spacing" textLength="8.4" x="55.8" y="365.3121">10</text><text fill="#000000" font-family="sans-serif" font-size="7.8" lengthAdjust="spacing" textLength="243.6" x="66.6" y="360.1248">displays: "An order with the same amount has already been registered</text><text fill="#000000" font-family="sans-serif" font-size="7.8" lengthAdjust="spacing" textLength="117" x="66.6" y="370.4994">by another client for this property"</text><line style="stroke:#000000;stroke-width:0.6;stroke-dasharray:2.0,2.0;" x1="24" x2="349.2" y1="379.057" y2="379.057"/><text fill="#000000" font-family="sans-serif" font-size="6.6" font-weight="bold" lengthAdjust="spacing" textLength="39" x="27" y="386.1791">[otherwise]</text><polygon fill="#181818" points="52.2,400.0102,46.2,402.4102,52.2,404.8102,49.8,402.4102" style="stroke:#181818;stroke-width:0.6;"/><line style="stroke:#181818;stroke-width:0.6;stroke-dasharray:2.0,2.0;" x1="48.6" x2="320.4" y1="402.4102" y2="402.4102"/><text fill="#000000" font-family="sans-serif" font-size="7.8" font-weight="bold" lengthAdjust="spacing" textLength="8.4" x="55.8" y="399.2525">11</text><text fill="#000000" font-family="sans-serif" font-size="7.8" lengthAdjust="spacing" textLength="88.8" x="66.6" y="399.2525">displays: ""Order placed!"</text><line style="stroke:#000000;stroke-width:0.6;stroke-dasharray:2.0,2.0;" x1="18" x2="355.2" y1="412.0102" y2="412.0102"/><text fill="#000000" font-family="sans-serif" font-size="6.6" font-weight="bold" lengthAdjust="spacing" textLength="189.6" x="21" y="419.1322">[if client has already registered an offer for this property]</text><polygon fill="#181818" points="52.2,432.9633,46.2,435.3633,52.2,437.7633,49.8,435.3633" style="stroke:#181818;stroke-width:0.6;"/><line style="stroke:#181818;stroke-width:0.6;stroke-dasharray:2.0,2.0;" x1="48.6" x2="323.4" y1="435.3633" y2="435.3633"/><text fill="#000000" font-family="sans-serif" font-size="7.8" font-weight="bold" lengthAdjust="spacing" textLength="8.4" x="55.8" y="432.2057">12</text><text fill="#000000" font-family="sans-serif" font-size="7.8" lengthAdjust="spacing" textLength="168" x="66.6" y="432.2057">displays: "Order already placed for this property"</text><!--SRC=[hLJ1Rjim3BtxApXVrXu2jDSS1Wmh1koqWz5RBen5nq9aoPFe1lxxKL8SEssp9bW5692jnyV7HrfXhssF7Zled7Lrwrr7m7wW8fnEUgptkAEAHqFWgMQqExC4X1QLEsYxWmPDeA9WpG9z3kIXOkT7U7XyW1LKOs3geA8_0zcQu4dZBiRVLTNJVL7WmCuEtPQyx6k9W_A7qMIv10oGjuLaP5th7Yr3kSwCwVpvLuhIByWqWGkGbVUm-YOGM0jq7u0Tz0P50bfmNad6Y3o5HwxqmJ1mIrvmybW9ygud4K01j8r749A2X8vBKgmaqp7d6fYC2GauH3UunLiOITnSm2zYBwRtqUh0iTv0Hbe7YeBsfE2dDam-EM5qIA8M_8bGqHj3NdcPENDz4t5p9BwJ_bd7z__fRBQi8yeIwzO5ibEIpxST3ffRUPSiK7ijIJJUqefPxiQUiyYSHTm8IYlxbMCbyHZjU9xelN9IXnOfqQftMkiitTWtYPXenyjzqassFdEq6A9yJpiHHR7ZyHzg6h6vIINgC7D-F9X2Z9qRv6UzLhfLkRD7YYXW9bY6J_fduJ6QezuSaPibUeK9JNHobWCRsyXbA60NkpwHl2qH5kjrbKe7kMR6i8Ro-_6YcGPC1WQxKxAe3OqdL2DiIGPyOU_6RiSFPPHdEjAmfe233bHS8Q_ydSIbIr5zcTd4xMAUVvc4XPcJuEj6uGeHMSD4cxNygzJpQLbAlhJ_2m00]--></g></svg>