<?xml version="1.0" encoding="us-ascii" standalone="no"?><svg xmlns="http://www.w3.org/2000/svg" xmlns:xlink="http://www.w3.org/1999/xlink" contentStyleType="text/css" height="1001.6px" preserveAspectRatio="none" style="width:1144px;height:1001px;background:#FFFFFF;" version="1.1" viewBox="0 0 1144 1001" width="1144.8px" zoomAndPan="magnify"><defs/><g><text fill="#000000" font-family="sans-serif" font-size="11.2" font-weight="bold" lengthAdjust="spacing" textLength="235.2" x="449.5242" y="20.0859">US009 Leaving a message - Class Diagram</text><!--class LeaveMessageUI--><g id="elem_LeaveMessageUI"><rect codeLine="7" fill="#F1F1F1" height="187.3688" id="LeaveMessageUI" rx="2" ry="2" style="stroke:#181818;stroke-width:0.4000000000000001;" width="190.4" x="19.9283" y="37.2969"/><ellipse cx="68.5283" cy="50.0969" fill="#ADD1B2" rx="8.8" ry="8.8" style="stroke:#181818;stroke-width:0.8000000000000002;"/><path d="M70.7408,46.7969 Q70.8658,46.6219 71.0158,46.5344 Q71.1658,46.4469 71.3408,46.4469 Q71.6408,46.4469 71.8283,46.6594 Q72.0158,46.8594 72.0158,47.3469 L72.0158,48.5094 Q72.0158,48.9969 71.8283,49.2094 Q71.6408,49.4219 71.3408,49.4219 Q71.0658,49.4219 70.9033,49.2594 Q70.7408,49.1094 70.6533,48.6969 Q70.6158,48.4094 70.4658,48.2594 Q70.2033,47.9594 69.7158,47.7844 Q69.2283,47.6094 68.7283,47.6094 Q68.1158,47.6094 67.6033,47.8719 Q67.1033,48.1344 66.7033,48.7344 Q66.3158,49.3344 66.3158,50.1594 L66.3158,51.0344 Q66.3158,52.0219 67.0283,52.6844 Q67.7408,53.3344 69.0158,53.3344 Q69.7658,53.3344 70.2908,53.1344 Q70.6033,53.0094 70.9408,52.6594 Q71.1533,52.4469 71.2658,52.3844 Q71.3908,52.3219 71.5533,52.3219 Q71.8158,52.3219 72.0158,52.5344 Q72.2283,52.7344 72.2283,53.0094 Q72.2283,53.2844 71.9533,53.6094 Q71.5533,54.0719 70.9158,54.3344 Q70.0533,54.6969 69.0158,54.6969 Q67.8033,54.6969 66.8408,54.1969 Q66.0533,53.7969 65.5033,52.9469 Q64.9533,52.0844 64.9533,51.0594 L64.9533,50.1344 Q64.9533,49.0719 65.4408,48.1594 Q65.9408,47.2344 66.8158,46.7469 Q67.6908,46.2469 68.6783,46.2469 Q69.2658,46.2469 69.7783,46.3844 Q70.3033,46.5094 70.7408,46.7969 Z " fill="#000000"/><text fill="#000000" font-family="sans-serif" font-size="11.2" lengthAdjust="spacing" textLength="86.4" x="84.9283" y="54.7344">LeaveMessageUI</text><line style="stroke:#181818;stroke-width:0.4000000000000001;" x1="20.7283" x2="209.5283" y1="62.8969" y2="62.8969"/><text fill="#000000" font-family="sans-serif" font-size="11.2" lengthAdjust="spacing" textLength="98.4" x="24.7283" y="78.1828">-Message message</text><text fill="#000000" font-family="sans-serif" font-size="11.2" lengthAdjust="spacing" textLength="140.8" x="24.7283" y="93.0797">-List&lt;Property&gt; propertyList</text><text fill="#000000" font-family="sans-serif" font-size="11.2" lengthAdjust="spacing" textLength="180.8" x="24.7283" y="107.9766">-LeaveMessageController controller</text><line style="stroke:#181818;stroke-width:0.4000000000000001;" x1="20.7283" x2="209.5283" y1="113.9875" y2="113.9875"/><text fill="#000000" font-family="sans-serif" font-size="11.2" lengthAdjust="spacing" textLength="31.2" x="24.7283" y="129.2734">+run()</text><text fill="#000000" font-family="sans-serif" font-size="11.2" lengthAdjust="spacing" textLength="87.2" x="24.7283" y="144.1703">+requestToVisit()</text><text fill="#000000" font-family="sans-serif" font-size="11.2" lengthAdjust="spacing" textLength="128" x="24.7283" y="159.0672">+sendMessageToAgent()</text><text fill="#000000" font-family="sans-serif" font-size="11.2" lengthAdjust="spacing" textLength="83.2" x="24.7283" y="173.9641">+writeMessage()</text><text fill="#000000" font-family="sans-serif" font-size="11.2" lengthAdjust="spacing" textLength="100.8" x="24.7283" y="188.8609">+showPropertyList()</text><text fill="#000000" font-family="sans-serif" font-size="11.2" lengthAdjust="spacing" textLength="161.6" x="24.7283" y="203.7578">+askAboutFilters(properties, sc)</text><text fill="#000000" font-family="sans-serif" font-size="11.2" lengthAdjust="spacing" textLength="157.6" x="24.7283" y="218.6547">+printPropertyList(propertyList)</text></g><!--class LeaveMessageController--><g id="elem_LeaveMessageController"><rect codeLine="21" fill="#F1F1F1" height="187.3688" id="LeaveMessageController" rx="2" ry="2" style="stroke:#181818;stroke-width:0.4000000000000001;" width="469.6" x="238.7283" y="37.2969"/><ellipse cx="406.9283" cy="50.0969" fill="#ADD1B2" rx="8.8" ry="8.8" style="stroke:#181818;stroke-width:0.8000000000000002;"/><path d="M409.1408,46.7969 Q409.2658,46.6219 409.4158,46.5344 Q409.5658,46.4469 409.7408,46.4469 Q410.0408,46.4469 410.2283,46.6594 Q410.4158,46.8594 410.4158,47.3469 L410.4158,48.5094 Q410.4158,48.9969 410.2283,49.2094 Q410.0408,49.4219 409.7408,49.4219 Q409.4658,49.4219 409.3033,49.2594 Q409.1408,49.1094 409.0533,48.6969 Q409.0158,48.4094 408.8658,48.2594 Q408.6033,47.9594 408.1158,47.7844 Q407.6283,47.6094 407.1283,47.6094 Q406.5158,47.6094 406.0033,47.8719 Q405.5033,48.1344 405.1033,48.7344 Q404.7158,49.3344 404.7158,50.1594 L404.7158,51.0344 Q404.7158,52.0219 405.4283,52.6844 Q406.1408,53.3344 407.4158,53.3344 Q408.1658,53.3344 408.6908,53.1344 Q409.0033,53.0094 409.3408,52.6594 Q409.5533,52.4469 409.6658,52.3844 Q409.7908,52.3219 409.9533,52.3219 Q410.2158,52.3219 410.4158,52.5344 Q410.6283,52.7344 410.6283,53.0094 Q410.6283,53.2844 410.3533,53.6094 Q409.9533,54.0719 409.3158,54.3344 Q408.4533,54.6969 407.4158,54.6969 Q406.2033,54.6969 405.2408,54.1969 Q404.4533,53.7969 403.9033,52.9469 Q403.3533,52.0844 403.3533,51.0594 L403.3533,50.1344 Q403.3533,49.0719 403.8408,48.1594 Q404.3408,47.2344 405.2158,46.7469 Q406.0908,46.2469 407.0783,46.2469 Q407.6658,46.2469 408.1783,46.3844 Q408.7033,46.5094 409.1408,46.7969 Z " fill="#000000"/><text fill="#000000" font-family="sans-serif" font-size="11.2" lengthAdjust="spacing" textLength="126.4" x="423.3283" y="54.7344">LeaveMessageController</text><line style="stroke:#181818;stroke-width:0.4000000000000001;" x1="239.5283" x2="707.5283" y1="62.8969" y2="62.8969"/><line style="stroke:#181818;stroke-width:0.4000000000000001;" x1="239.5283" x2="707.5283" y1="69.2969" y2="69.2969"/><text fill="#000000" font-family="sans-serif" font-size="11.2" lengthAdjust="spacing" textLength="460" x="243.5283" y="84.5828">+LeaveMessageController(authenticationRepository, clientRepository, messageRepository)</text><text fill="#000000" font-family="sans-serif" font-size="11.2" lengthAdjust="spacing" textLength="132.8" x="243.5283" y="99.4797">+verifyMessage(message)</text><text fill="#000000" font-family="sans-serif" font-size="11.2" lengthAdjust="spacing" textLength="236.8" x="243.5283" y="114.3766">+selectProperty(propertyList, input, verifyInput)</text><text fill="#000000" font-family="sans-serif" font-size="11.2" lengthAdjust="spacing" textLength="136.8" x="243.5283" y="129.2734">+requestData(propertyList)</text><text fill="#000000" font-family="sans-serif" font-size="11.2" lengthAdjust="spacing" textLength="198.4" x="243.5283" y="144.1703">+getEndOfVisit (start, input, verifyInput)</text><text fill="#000000" font-family="sans-serif" font-size="11.2" lengthAdjust="spacing" textLength="190.4" x="243.5283" y="159.0672">+askAboutTypeOfSale(properties, sc)</text><text fill="#000000" font-family="sans-serif" font-size="11.2" lengthAdjust="spacing" textLength="211.2" x="243.5283" y="173.9641">+askAboutTypeOfProperty(properties, sc)</text><text fill="#000000" font-family="sans-serif" font-size="11.2" lengthAdjust="spacing" textLength="212.8" x="243.5283" y="188.8609">+askAboutAgent(properties, sc, agentList)</text><text fill="#000000" font-family="sans-serif" font-size="11.2" lengthAdjust="spacing" textLength="102.4" x="243.5283" y="203.7578">+sortList(properties)</text><text fill="#000000" font-family="sans-serif" font-size="11.2" lengthAdjust="spacing" textLength="345.6" x="243.5283" y="218.6547">+createMessage(text, name, phoneNumber, preferredDate, timeSlot)</text></g><!--class EditAndSortLists--><g id="elem_EditAndSortLists"><rect codeLine="35" fill="#F1F1F1" height="97.9875" id="EditAndSortLists" rx="2" ry="2" style="stroke:#181818;stroke-width:0.4000000000000001;" width="263.2" x="130.7283" y="287.6969"/><ellipse cx="217.3283" cy="300.4969" fill="#ADD1B2" rx="8.8" ry="8.8" style="stroke:#181818;stroke-width:0.8000000000000002;"/><path d="M219.5408,297.1969 Q219.6658,297.0219 219.8158,296.9344 Q219.9658,296.8469 220.1408,296.8469 Q220.4408,296.8469 220.6283,297.0594 Q220.8158,297.2594 220.8158,297.7469 L220.8158,298.9094 Q220.8158,299.3969 220.6283,299.6094 Q220.4408,299.8219 220.1408,299.8219 Q219.8658,299.8219 219.7033,299.6594 Q219.5408,299.5094 219.4533,299.0969 Q219.4158,298.8094 219.2658,298.6594 Q219.0033,298.3594 218.5158,298.1844 Q218.0283,298.0094 217.5283,298.0094 Q216.9158,298.0094 216.4033,298.2719 Q215.9033,298.5344 215.5033,299.1344 Q215.1158,299.7344 215.1158,300.5594 L215.1158,301.4344 Q215.1158,302.4219 215.8283,303.0844 Q216.5408,303.7344 217.8158,303.7344 Q218.5658,303.7344 219.0908,303.5344 Q219.4033,303.4094 219.7408,303.0594 Q219.9533,302.8469 220.0658,302.7844 Q220.1908,302.7219 220.3533,302.7219 Q220.6158,302.7219 220.8158,302.9344 Q221.0283,303.1344 221.0283,303.4094 Q221.0283,303.6844 220.7533,304.0094 Q220.3533,304.4719 219.7158,304.7344 Q218.8533,305.0969 217.8158,305.0969 Q216.6033,305.0969 215.6408,304.5969 Q214.8533,304.1969 214.3033,303.3469 Q213.7533,302.4844 213.7533,301.4594 L213.7533,300.5344 Q213.7533,299.4719 214.2408,298.5594 Q214.7408,297.6344 215.6158,297.1469 Q216.4908,296.6469 217.4783,296.6469 Q218.0658,296.6469 218.5783,296.7844 Q219.1033,296.9094 219.5408,297.1969 Z " fill="#000000"/><text fill="#000000" font-family="sans-serif" font-size="11.2" lengthAdjust="spacing" textLength="83.2" x="233.7283" y="305.1344">EditAndSortLists</text><line style="stroke:#181818;stroke-width:0.4000000000000001;" x1="131.5283" x2="393.1283" y1="313.2969" y2="313.2969"/><line style="stroke:#181818;stroke-width:0.4000000000000001;" x1="131.5283" x2="393.1283" y1="319.6969" y2="319.6969"/><text fill="#000000" font-family="sans-serif" font-size="11.2" lengthAdjust="spacing" textLength="208" x="135.5283" y="334.9828">+getPropertiesIfTheyAreLand(properties)</text><text fill="#000000" font-family="sans-serif" font-size="11.2" lengthAdjust="spacing" textLength="243.2" x="135.5283" y="349.8797">+getPropertiesIfTheyAreApartment(propertyList)</text><text fill="#000000" font-family="sans-serif" font-size="11.2" lengthAdjust="spacing" textLength="223.2" x="135.5283" y="364.7766">+getPropertiesIfTheyAreHouse(propertyList)</text><text fill="#000000" font-family="sans-serif" font-size="11.2" lengthAdjust="spacing" textLength="253.6" x="135.5283" y="379.6734">+getPropertiesByXAgent(propertyList, agentEmail)</text></g><!--class Repositories--><g id="elem_Repositories"><rect codeLine="43" fill="#F1F1F1" height="112.8844" id="Repositories" rx="2" ry="2" style="stroke:#181818;stroke-width:0.4000000000000001;" width="166.4" x="839.9283" y="74.4969"/><ellipse cx="888.1283" cy="87.2969" fill="#ADD1B2" rx="8.8" ry="8.8" style="stroke:#181818;stroke-width:0.8000000000000002;"/><path d="M890.3408,83.9969 Q890.4658,83.8219 890.6158,83.7344 Q890.7658,83.6469 890.9408,83.6469 Q891.2408,83.6469 891.4283,83.8594 Q891.6158,84.0594 891.6158,84.5469 L891.6158,85.7094 Q891.6158,86.1969 891.4283,86.4094 Q891.2408,86.6219 890.9408,86.6219 Q890.6658,86.6219 890.5033,86.4594 Q890.3408,86.3094 890.2533,85.8969 Q890.2158,85.6094 890.0658,85.4594 Q889.8033,85.1594 889.3158,84.9844 Q888.8283,84.8094 888.3283,84.8094 Q887.7158,84.8094 887.2033,85.0719 Q886.7033,85.3344 886.3033,85.9344 Q885.9158,86.5344 885.9158,87.3594 L885.9158,88.2344 Q885.9158,89.2219 886.6283,89.8844 Q887.3408,90.5344 888.6158,90.5344 Q889.3658,90.5344 889.8908,90.3344 Q890.2033,90.2094 890.5408,89.8594 Q890.7533,89.6469 890.8658,89.5844 Q890.9908,89.5219 891.1533,89.5219 Q891.4158,89.5219 891.6158,89.7344 Q891.8283,89.9344 891.8283,90.2094 Q891.8283,90.4844 891.5533,90.8094 Q891.1533,91.2719 890.5158,91.5344 Q889.6533,91.8969 888.6158,91.8969 Q887.4033,91.8969 886.4408,91.3969 Q885.6533,90.9969 885.1033,90.1469 Q884.5533,89.2844 884.5533,88.2594 L884.5533,87.3344 Q884.5533,86.2719 885.0408,85.3594 Q885.5408,84.4344 886.4158,83.9469 Q887.2908,83.4469 888.2783,83.4469 Q888.8658,83.4469 889.3783,83.5844 Q889.9033,83.7094 890.3408,83.9969 Z " fill="#000000"/><text fill="#000000" font-family="sans-serif" font-size="11.2" lengthAdjust="spacing" textLength="63.2" x="904.5283" y="91.9344">Repositories</text><line style="stroke:#181818;stroke-width:0.4000000000000001;" x1="840.7283" x2="1005.5283" y1="100.0969" y2="100.0969"/><line style="stroke:#181818;stroke-width:0.4000000000000001;" x1="840.7283" x2="1005.5283" y1="106.4969" y2="106.4969"/><text fill="#000000" font-family="sans-serif" font-size="11.2" lengthAdjust="spacing" textLength="75.2" x="844.7283" y="121.7828">-Repositories()</text><text fill="#000000" font-family="sans-serif" font-size="11.2" lengthAdjust="spacing" textLength="145.6" x="844.7283" y="136.6797">+getInstance() : Repositories</text><text fill="#000000" font-family="sans-serif" font-size="11.2" lengthAdjust="spacing" textLength="156.8" x="844.7283" y="151.5766">+getAuthenticationRepository()</text><text fill="#000000" font-family="sans-serif" font-size="11.2" lengthAdjust="spacing" textLength="113.6" x="844.7283" y="166.4734">+getClientRepository()</text><text fill="#000000" font-family="sans-serif" font-size="11.2" lengthAdjust="spacing" textLength="130.4" x="844.7283" y="181.3703">+getMessageRepository()</text></g><!--class PropertyAnnouncementRepository--><g id="elem_PropertyAnnouncementRepository"><rect codeLine="52" fill="#F1F1F1" height="53.2969" id="PropertyAnnouncementRepository" rx="2" ry="2" style="stroke:#181818;stroke-width:0.4000000000000001;" width="199.2" x="874.7283" y="309.6969"/><ellipse cx="886.7283" cy="322.4969" fill="#ADD1B2" rx="8.8" ry="8.8" style="stroke:#181818;stroke-width:0.8000000000000002;"/><path d="M888.9408,319.1969 Q889.0658,319.0219 889.2158,318.9344 Q889.3658,318.8469 889.5408,318.8469 Q889.8408,318.8469 890.0283,319.0594 Q890.2158,319.2594 890.2158,319.7469 L890.2158,320.9094 Q890.2158,321.3969 890.0283,321.6094 Q889.8408,321.8219 889.5408,321.8219 Q889.2658,321.8219 889.1033,321.6594 Q888.9408,321.5094 888.8533,321.0969 Q888.8158,320.8094 888.6658,320.6594 Q888.4033,320.3594 887.9158,320.1844 Q887.4283,320.0094 886.9283,320.0094 Q886.3158,320.0094 885.8033,320.2719 Q885.3033,320.5344 884.9033,321.1344 Q884.5158,321.7344 884.5158,322.5594 L884.5158,323.4344 Q884.5158,324.4219 885.2283,325.0844 Q885.9408,325.7344 887.2158,325.7344 Q887.9658,325.7344 888.4908,325.5344 Q888.8033,325.4094 889.1408,325.0594 Q889.3533,324.8469 889.4658,324.7844 Q889.5908,324.7219 889.7533,324.7219 Q890.0158,324.7219 890.2158,324.9344 Q890.4283,325.1344 890.4283,325.4094 Q890.4283,325.6844 890.1533,326.0094 Q889.7533,326.4719 889.1158,326.7344 Q888.2533,327.0969 887.2158,327.0969 Q886.0033,327.0969 885.0408,326.5969 Q884.2533,326.1969 883.7033,325.3469 Q883.1533,324.4844 883.1533,323.4594 L883.1533,322.5344 Q883.1533,321.4719 883.6408,320.5594 Q884.1408,319.6344 885.0158,319.1469 Q885.8908,318.6469 886.8783,318.6469 Q887.4658,318.6469 887.9783,318.7844 Q888.5033,318.9094 888.9408,319.1969 Z " fill="#000000"/><text fill="#000000" font-family="sans-serif" font-size="11.2" lengthAdjust="spacing" textLength="173.6" x="897.9283" y="327.1344">PropertyAnnouncementRepository</text><line style="stroke:#181818;stroke-width:0.4000000000000001;" x1="875.5283" x2="1073.1283" y1="335.2969" y2="335.2969"/><text fill="#000000" font-family="sans-serif" font-size="11.2" lengthAdjust="spacing" textLength="161.6" x="879.5283" y="350.5828">-List&lt;Property&gt; announcements</text><line style="stroke:#181818;stroke-width:0.4000000000000001;" x1="875.5283" x2="1073.1283" y1="356.5938" y2="356.5938"/></g><!--class ClientRepository--><g id="elem_ClientRepository"><rect codeLine="57" fill="#F1F1F1" height="68.1938" id="ClientRepository" rx="2" ry="2" style="stroke:#181818;stroke-width:0.4000000000000001;" width="135.2" x="572.3283" y="302.4969"/><ellipse cx="596.2083" cy="315.2969" fill="#ADD1B2" rx="8.8" ry="8.8" style="stroke:#181818;stroke-width:0.8000000000000002;"/><path d="M598.4208,311.9969 Q598.5458,311.8219 598.6958,311.7344 Q598.8458,311.6469 599.0208,311.6469 Q599.3208,311.6469 599.5083,311.8594 Q599.6958,312.0594 599.6958,312.5469 L599.6958,313.7094 Q599.6958,314.1969 599.5083,314.4094 Q599.3208,314.6219 599.0208,314.6219 Q598.7458,314.6219 598.5833,314.4594 Q598.4208,314.3094 598.3333,313.8969 Q598.2958,313.6094 598.1458,313.4594 Q597.8833,313.1594 597.3958,312.9844 Q596.9083,312.8094 596.4083,312.8094 Q595.7958,312.8094 595.2833,313.0719 Q594.7833,313.3344 594.3833,313.9344 Q593.9958,314.5344 593.9958,315.3594 L593.9958,316.2344 Q593.9958,317.2219 594.7083,317.8844 Q595.4208,318.5344 596.6958,318.5344 Q597.4458,318.5344 597.9708,318.3344 Q598.2833,318.2094 598.6208,317.8594 Q598.8333,317.6469 598.9458,317.5844 Q599.0708,317.5219 599.2333,317.5219 Q599.4958,317.5219 599.6958,317.7344 Q599.9083,317.9344 599.9083,318.2094 Q599.9083,318.4844 599.6333,318.8094 Q599.2333,319.2719 598.5958,319.5344 Q597.7333,319.8969 596.6958,319.8969 Q595.4833,319.8969 594.5208,319.3969 Q593.7333,318.9969 593.1833,318.1469 Q592.6333,317.2844 592.6333,316.2594 L592.6333,315.3344 Q592.6333,314.2719 593.1208,313.3594 Q593.6208,312.4344 594.4958,311.9469 Q595.3708,311.4469 596.3583,311.4469 Q596.9458,311.4469 597.4583,311.5844 Q597.9833,311.7094 598.4208,311.9969 Z " fill="#000000"/><text fill="#000000" font-family="sans-serif" font-size="11.2" lengthAdjust="spacing" textLength="83.2" x="610.0483" y="319.9344">ClientRepository</text><line style="stroke:#181818;stroke-width:0.4000000000000001;" x1="573.1283" x2="706.7283" y1="328.0969" y2="328.0969"/><text fill="#000000" font-family="sans-serif" font-size="11.2" lengthAdjust="spacing" textLength="98.4" x="577.1283" y="343.3828">-List&lt;Client&gt; clients</text><line style="stroke:#181818;stroke-width:0.4000000000000001;" x1="573.1283" x2="706.7283" y1="349.3938" y2="349.3938"/><text fill="#000000" font-family="sans-serif" font-size="11.2" lengthAdjust="spacing" textLength="125.6" x="577.1283" y="364.6797">+getClientByEmail(email)</text></g><!--class AgentRepository--><g id="elem_AgentRepository"><rect codeLine="63" fill="#F1F1F1" height="68.1938" id="AgentRepository" rx="2" ry="2" style="stroke:#181818;stroke-width:0.4000000000000001;" width="111.2" x="735.5283" y="302.4969"/><ellipse cx="748.2483" cy="315.2969" fill="#ADD1B2" rx="8.8" ry="8.8" style="stroke:#181818;stroke-width:0.8000000000000002;"/><path d="M750.4608,311.9969 Q750.5858,311.8219 750.7358,311.7344 Q750.8858,311.6469 751.0608,311.6469 Q751.3608,311.6469 751.5483,311.8594 Q751.7358,312.0594 751.7358,312.5469 L751.7358,313.7094 Q751.7358,314.1969 751.5483,314.4094 Q751.3608,314.6219 751.0608,314.6219 Q750.7858,314.6219 750.6233,314.4594 Q750.4608,314.3094 750.3733,313.8969 Q750.3358,313.6094 750.1858,313.4594 Q749.9233,313.1594 749.4358,312.9844 Q748.9483,312.8094 748.4483,312.8094 Q747.8358,312.8094 747.3233,313.0719 Q746.8233,313.3344 746.4233,313.9344 Q746.0358,314.5344 746.0358,315.3594 L746.0358,316.2344 Q746.0358,317.2219 746.7483,317.8844 Q747.4608,318.5344 748.7358,318.5344 Q749.4858,318.5344 750.0108,318.3344 Q750.3233,318.2094 750.6608,317.8594 Q750.8733,317.6469 750.9858,317.5844 Q751.1108,317.5219 751.2733,317.5219 Q751.5358,317.5219 751.7358,317.7344 Q751.9483,317.9344 751.9483,318.2094 Q751.9483,318.4844 751.6733,318.8094 Q751.2733,319.2719 750.6358,319.5344 Q749.7733,319.8969 748.7358,319.8969 Q747.5233,319.8969 746.5608,319.3969 Q745.7733,318.9969 745.2233,318.1469 Q744.6733,317.2844 744.6733,316.2594 L744.6733,315.3344 Q744.6733,314.2719 745.1608,313.3594 Q745.6608,312.4344 746.5358,311.9469 Q747.4108,311.4469 748.3983,311.4469 Q748.9858,311.4469 749.4983,311.5844 Q750.0233,311.7094 750.4608,311.9969 Z " fill="#000000"/><text fill="#000000" font-family="sans-serif" font-size="11.2" lengthAdjust="spacing" textLength="84" x="759.6083" y="319.9344">AgentRepository</text><line style="stroke:#181818;stroke-width:0.4000000000000001;" x1="736.3283" x2="845.9283" y1="328.0969" y2="328.0969"/><text fill="#000000" font-family="sans-serif" font-size="11.2" lengthAdjust="spacing" textLength="101.6" x="740.3283" y="343.3828">-List&lt;Agent&gt; agents</text><line style="stroke:#181818;stroke-width:0.4000000000000001;" x1="736.3283" x2="845.9283" y1="349.3938" y2="349.3938"/><text fill="#000000" font-family="sans-serif" font-size="11.2" lengthAdjust="spacing" textLength="65.6" x="740.3283" y="364.6797">+getAgents()</text></g><!--class Client--><g id="elem_Client"><rect codeLine="69" fill="#F1F1F1" height="172.4719" id="Client" rx="2" ry="2" style="stroke:#181818;stroke-width:0.4000000000000001;" width="191.2" x="77.9283" y="434.0969"/><ellipse cx="155.7283" cy="446.8969" fill="#ADD1B2" rx="8.8" ry="8.8" style="stroke:#181818;stroke-width:0.8000000000000002;"/><path d="M157.9408,443.5969 Q158.0658,443.4219 158.2158,443.3344 Q158.3658,443.2469 158.5408,443.2469 Q158.8408,443.2469 159.0283,443.4594 Q159.2158,443.6594 159.2158,444.1469 L159.2158,445.3094 Q159.2158,445.7969 159.0283,446.0094 Q158.8408,446.2219 158.5408,446.2219 Q158.2658,446.2219 158.1033,446.0594 Q157.9408,445.9094 157.8533,445.4969 Q157.8158,445.2094 157.6658,445.0594 Q157.4033,444.7594 156.9158,444.5844 Q156.4283,444.4094 155.9283,444.4094 Q155.3158,444.4094 154.8033,444.6719 Q154.3033,444.9344 153.9033,445.5344 Q153.5158,446.1344 153.5158,446.9594 L153.5158,447.8344 Q153.5158,448.8219 154.2283,449.4844 Q154.9408,450.1344 156.2158,450.1344 Q156.9658,450.1344 157.4908,449.9344 Q157.8033,449.8094 158.1408,449.4594 Q158.3533,449.2469 158.4658,449.1844 Q158.5908,449.1219 158.7533,449.1219 Q159.0158,449.1219 159.2158,449.3344 Q159.4283,449.5344 159.4283,449.8094 Q159.4283,450.0844 159.1533,450.4094 Q158.7533,450.8719 158.1158,451.1344 Q157.2533,451.4969 156.2158,451.4969 Q155.0033,451.4969 154.0408,450.9969 Q153.2533,450.5969 152.7033,449.7469 Q152.1533,448.8844 152.1533,447.8594 L152.1533,446.9344 Q152.1533,445.8719 152.6408,444.9594 Q153.1408,444.0344 154.0158,443.5469 Q154.8908,443.0469 155.8783,443.0469 Q156.4658,443.0469 156.9783,443.1844 Q157.5033,443.3094 157.9408,443.5969 Z " fill="#000000"/><text fill="#000000" font-family="sans-serif" font-size="11.2" lengthAdjust="spacing" textLength="28.8" x="172.1283" y="451.5344">Client</text><line style="stroke:#181818;stroke-width:0.4000000000000001;" x1="78.7283" x2="268.3283" y1="459.6969" y2="459.6969"/><text fill="#000000" font-family="sans-serif" font-size="11.2" lengthAdjust="spacing" textLength="64.8" x="82.7283" y="474.9828">-String name</text><text fill="#000000" font-family="sans-serif" font-size="11.2" lengthAdjust="spacing" textLength="102.4" x="82.7283" y="489.8797">-int passportNumber</text><text fill="#000000" font-family="sans-serif" font-size="11.2" lengthAdjust="spacing" textLength="112.8" x="82.7283" y="504.7766">-socialSecurityNumber</text><text fill="#000000" font-family="sans-serif" font-size="11.2" lengthAdjust="spacing" textLength="63.2" x="82.7283" y="519.6734">-String email</text><text fill="#000000" font-family="sans-serif" font-size="11.2" lengthAdjust="spacing" textLength="108" x="82.7283" y="534.5703">-String phoneNumber</text><text fill="#000000" font-family="sans-serif" font-size="11.2" lengthAdjust="spacing" textLength="56.8" x="82.7283" y="549.4672">-String pwd</text><line style="stroke:#181818;stroke-width:0.4000000000000001;" x1="78.7283" x2="268.3283" y1="555.4781" y2="555.4781"/><text fill="#000000" font-family="sans-serif" font-size="11.2" lengthAdjust="spacing" textLength="181.6" x="82.7283" y="570.7641">+Client(email, name, phoneNumber)</text><text fill="#000000" font-family="sans-serif" font-size="11.2" lengthAdjust="spacing" textLength="102.4" x="82.7283" y="585.6609">+getPhoneNumber()</text><text fill="#000000" font-family="sans-serif" font-size="11.2" lengthAdjust="spacing" textLength="59.2" x="82.7283" y="600.5578">+getName()</text></g><!--class MessageRepository--><g id="elem_MessageRepository"><rect codeLine="82" fill="#F1F1F1" height="97.9875" id="MessageRepository" rx="2" ry="2" style="stroke:#181818;stroke-width:0.4000000000000001;" width="309.6" x="297.1283" y="471.6969"/><ellipse cx="398.5283" cy="484.4969" fill="#ADD1B2" rx="8.8" ry="8.8" style="stroke:#181818;stroke-width:0.8000000000000002;"/><path d="M400.7408,481.1969 Q400.8658,481.0219 401.0158,480.9344 Q401.1658,480.8469 401.3408,480.8469 Q401.6408,480.8469 401.8283,481.0594 Q402.0158,481.2594 402.0158,481.7469 L402.0158,482.9094 Q402.0158,483.3969 401.8283,483.6094 Q401.6408,483.8219 401.3408,483.8219 Q401.0658,483.8219 400.9033,483.6594 Q400.7408,483.5094 400.6533,483.0969 Q400.6158,482.8094 400.4658,482.6594 Q400.2033,482.3594 399.7158,482.1844 Q399.2283,482.0094 398.7283,482.0094 Q398.1158,482.0094 397.6033,482.2719 Q397.1033,482.5344 396.7033,483.1344 Q396.3158,483.7344 396.3158,484.5594 L396.3158,485.4344 Q396.3158,486.4219 397.0283,487.0844 Q397.7408,487.7344 399.0158,487.7344 Q399.7658,487.7344 400.2908,487.5344 Q400.6033,487.4094 400.9408,487.0594 Q401.1533,486.8469 401.2658,486.7844 Q401.3908,486.7219 401.5533,486.7219 Q401.8158,486.7219 402.0158,486.9344 Q402.2283,487.1344 402.2283,487.4094 Q402.2283,487.6844 401.9533,488.0094 Q401.5533,488.4719 400.9158,488.7344 Q400.0533,489.0969 399.0158,489.0969 Q397.8033,489.0969 396.8408,488.5969 Q396.0533,488.1969 395.5033,487.3469 Q394.9533,486.4844 394.9533,485.4594 L394.9533,484.5344 Q394.9533,483.4719 395.4408,482.5594 Q395.9408,481.6344 396.8158,481.1469 Q397.6908,480.6469 398.6783,480.6469 Q399.2658,480.6469 399.7783,480.7844 Q400.3033,480.9094 400.7408,481.1969 Z " fill="#000000"/><text fill="#000000" font-family="sans-serif" font-size="11.2" lengthAdjust="spacing" textLength="100" x="414.9283" y="489.1344">MessageRepository</text><line style="stroke:#181818;stroke-width:0.4000000000000001;" x1="297.9283" x2="605.9283" y1="497.2969" y2="497.2969"/><text fill="#000000" font-family="sans-serif" font-size="11.2" lengthAdjust="spacing" textLength="134.4" x="301.9283" y="512.5828">-List&lt;Message&gt; messages</text><line style="stroke:#181818;stroke-width:0.4000000000000001;" x1="297.9283" x2="605.9283" y1="518.5938" y2="518.5938"/><text fill="#000000" font-family="sans-serif" font-size="11.2" lengthAdjust="spacing" textLength="300" x="301.9283" y="533.8797">+create(text, name, phoneNumber, preferredDate, timeSlot)</text><text fill="#000000" font-family="sans-serif" font-size="11.2" lengthAdjust="spacing" textLength="124.8" x="301.9283" y="548.7766">+addMessage(message)</text><text fill="#000000" font-family="sans-serif" font-size="11.2" lengthAdjust="spacing" textLength="144.8" x="301.9283" y="563.6734">+validateMessage(message)</text></g><!--class Message--><g id="elem_Message"><rect codeLine="90" fill="#F1F1F1" height="276.75" id="Message" rx="2" ry="2" style="stroke:#181818;stroke-width:0.4000000000000001;" width="326.4" x="10.3283" y="719.6969"/><ellipse cx="147.3283" cy="732.4969" fill="#ADD1B2" rx="8.8" ry="8.8" style="stroke:#181818;stroke-width:0.8000000000000002;"/><path d="M149.5408,729.1969 Q149.6658,729.0219 149.8158,728.9344 Q149.9658,728.8469 150.1408,728.8469 Q150.4408,728.8469 150.6283,729.0594 Q150.8158,729.2594 150.8158,729.7469 L150.8158,730.9094 Q150.8158,731.3969 150.6283,731.6094 Q150.4408,731.8219 150.1408,731.8219 Q149.8658,731.8219 149.7033,731.6594 Q149.5408,731.5094 149.4533,731.0969 Q149.4158,730.8094 149.2658,730.6594 Q149.0033,730.3594 148.5158,730.1844 Q148.0283,730.0094 147.5283,730.0094 Q146.9158,730.0094 146.4033,730.2719 Q145.9033,730.5344 145.5033,731.1344 Q145.1158,731.7344 145.1158,732.5594 L145.1158,733.4344 Q145.1158,734.4219 145.8283,735.0844 Q146.5408,735.7344 147.8158,735.7344 Q148.5658,735.7344 149.0908,735.5344 Q149.4033,735.4094 149.7408,735.0594 Q149.9533,734.8469 150.0658,734.7844 Q150.1908,734.7219 150.3533,734.7219 Q150.6158,734.7219 150.8158,734.9344 Q151.0283,735.1344 151.0283,735.4094 Q151.0283,735.6844 150.7533,736.0094 Q150.3533,736.4719 149.7158,736.7344 Q148.8533,737.0969 147.8158,737.0969 Q146.6033,737.0969 145.6408,736.5969 Q144.8533,736.1969 144.3033,735.3469 Q143.7533,734.4844 143.7533,733.4594 L143.7533,732.5344 Q143.7533,731.4719 144.2408,730.5594 Q144.7408,729.6344 145.6158,729.1469 Q146.4908,728.6469 147.4783,728.6469 Q148.0658,728.6469 148.5783,728.7844 Q149.1033,728.9094 149.5408,729.1969 Z " fill="#000000"/><text fill="#000000" font-family="sans-serif" font-size="11.2" lengthAdjust="spacing" textLength="45.6" x="163.7283" y="737.1344">Message</text><line style="stroke:#181818;stroke-width:0.4000000000000001;" x1="11.1283" x2="335.9283" y1="745.2969" y2="745.2969"/><text fill="#000000" font-family="sans-serif" font-size="11.2" lengthAdjust="spacing" textLength="96" x="15.1283" y="760.5828">-Property property;</text><text fill="#000000" font-family="sans-serif" font-size="11.2" lengthAdjust="spacing" textLength="79.2" x="15.1283" y="775.4797">-String agentID;</text><text fill="#000000" font-family="sans-serif" font-size="11.2" lengthAdjust="spacing" textLength="57.6" x="15.1283" y="790.3766">-String text;</text><text fill="#000000" font-family="sans-serif" font-size="11.2" lengthAdjust="spacing" textLength="68" x="15.1283" y="805.2734">-String name;</text><text fill="#000000" font-family="sans-serif" font-size="11.2" lengthAdjust="spacing" textLength="111.2" x="15.1283" y="820.1703">-String phoneNumber;</text><text fill="#000000" font-family="sans-serif" font-size="11.2" lengthAdjust="spacing" textLength="111.2" x="15.1283" y="835.0672">-String preferredDate;</text><text fill="#000000" font-family="sans-serif" font-size="11.2" lengthAdjust="spacing" textLength="77.6" x="15.1283" y="849.9641">-int startOfVisit;</text><text fill="#000000" font-family="sans-serif" font-size="11.2" lengthAdjust="spacing" textLength="74.4" x="15.1283" y="864.8609">-int endOfVisit;</text><line style="stroke:#181818;stroke-width:0.4000000000000001;" x1="11.1283" x2="335.9283" y1="870.8719" y2="870.8719"/><text fill="#000000" font-family="sans-serif" font-size="11.2" lengthAdjust="spacing" textLength="316.8" x="15.1283" y="886.1578">+Message (text, name, phoneNumber, preferredDate, timeSlot)</text><text fill="#000000" font-family="sans-serif" font-size="11.2" lengthAdjust="spacing" textLength="53.6" x="15.1283" y="901.0547">+toString()</text><text fill="#000000" font-family="sans-serif" font-size="11.2" lengthAdjust="spacing" textLength="41.6" x="15.1283" y="915.9516">+clone()</text><text fill="#000000" font-family="sans-serif" font-size="11.2" lengthAdjust="spacing" textLength="70.4" x="15.1283" y="930.8484">+getAgentID()</text><text fill="#000000" font-family="sans-serif" font-size="11.2" lengthAdjust="spacing" textLength="102.4" x="15.1283" y="945.7453">+getPreferredDate()</text><text fill="#000000" font-family="sans-serif" font-size="11.2" lengthAdjust="spacing" textLength="102.4" x="15.1283" y="960.6422">+getPhoneNumber()</text><text fill="#000000" font-family="sans-serif" font-size="11.2" lengthAdjust="spacing" textLength="87.2" x="15.1283" y="975.5391">+getStartOfVisit()</text><text fill="#000000" font-family="sans-serif" font-size="11.2" lengthAdjust="spacing" textLength="83.2" x="15.1283" y="990.4359">+getEndOfVisit()</text></g><!--link LeaveMessageUI to LeaveMessageController--><g id="link_LeaveMessageUI_LeaveMessageController"><path codeLine="110" d="M210.6803,130.8969 C218.6163,130.8969 226.5603,130.8969 234.5043,130.8969 " fill="none" id="LeaveMessageUI-to-LeaveMessageController" style="stroke:#181818;stroke-width:0.8000000000000002;stroke-dasharray:7.0,7.0;"/><polygon fill="#181818" points="238.6563,130.8969,231.4563,127.6969,234.6563,130.8969,231.4563,134.0969,238.6563,130.8969" style="stroke:#181818;stroke-width:0.8000000000000002;"/></g><!--link Repositories to Repositories--><g id="link_Repositories_Repositories"><path codeLine="111" d="M1006.5363,108.5369 C1022.7923,111.1369 1034.3283,118.5849 1034.3283,130.8969 C1034.3283,142.1449 1024.6883,149.3449 1010.6163,152.4809 " fill="none" id="Repositories-to-Repositories" style="stroke:#181818;stroke-width:0.8000000000000002;"/><polygon fill="#181818" points="1006.5363,153.2569,1014.2053,155.0644,1010.4668,152.5142,1013.017,148.7757,1006.5363,153.2569" style="stroke:#181818;stroke-width:0.8000000000000002;"/><text fill="#000000" font-family="sans-serif" font-size="10.4" lengthAdjust="spacing" textLength="39.2" x="1039.1283" y="135.3195">instance</text></g><!--link LeaveMessageController to Repositories--><g id="link_LeaveMessageController_Repositories"><path codeLine="112" d="M708.5363,130.8969 C753.8963,130.8969 798.7043,130.8969 835.5443,130.8969 " fill="none" id="LeaveMessageController-to-Repositories" style="stroke:#181818;stroke-width:0.8000000000000002;stroke-dasharray:7.0,7.0;"/><polygon fill="#181818" points="839.7683,130.8969,832.5683,127.6969,835.7683,130.8969,832.5683,134.0969,839.7683,130.8969" style="stroke:#181818;stroke-width:0.8000000000000002;"/><text fill="#000000" font-family="sans-serif" font-size="10.4" lengthAdjust="spacing" textLength="53.6" x="747.3283" y="125.3195">repositories</text></g><!--link LeaveMessageController to ClientRepository--><g id="link_LeaveMessageController_ClientRepository"><path codeLine="113" d="M476.0403,224.6569 C479.7203,238.7449 485.4963,252.3449 494.3283,263.6969 C510.9523,285.0729 525.9283,275.9609 550.3283,287.6969 C558.6803,291.7129 567.3683,296.0969 575.9123,300.5369 " fill="none" id="LeaveMessageController-to-ClientRepository" style="stroke:#181818;stroke-width:0.8000000000000002;stroke-dasharray:7.0,7.0;"/><polygon fill="#181818" points="579.5683,302.4409,574.6692,296.2701,576.0232,300.5883,571.705,301.9423,579.5683,302.4409" style="stroke:#181818;stroke-width:0.8000000000000002;"/><text fill="#000000" font-family="sans-serif" font-size="10.4" lengthAdjust="spacing" textLength="74.4" x="495.1283" y="260.5195">clientRepository</text></g><!--link LeaveMessageController to MessageRepository--><g id="link_LeaveMessageController_MessageRepository"><path codeLine="114" d="M468.2723,224.4969 C467.1043,245.2889 465.8723,267.2489 464.7283,287.6969 C461.2883,349.3689 457.3843,420.2729 454.8003,467.2969 " fill="none" id="LeaveMessageController-to-MessageRepository" style="stroke:#181818;stroke-width:0.8000000000000002;stroke-dasharray:7.0,7.0;"/><polygon fill="#181818" points="454.5683,471.4889,458.155,464.4735,454.7857,467.4948,451.7644,464.1256,454.5683,471.4889" style="stroke:#181818;stroke-width:0.8000000000000002;"/><text fill="#000000" font-family="sans-serif" font-size="10.4" lengthAdjust="spacing" textLength="92" x="465.5283" y="340.9195">messageRepository</text></g><!--link LeaveMessageController to AgentRepository--><g id="link_LeaveMessageController_AgentRepository"><path codeLine="115" d="M549.6643,224.5449 C565.6803,239.5209 583.4803,253.4489 602.3283,263.6969 C649.8003,289.5209 671.7763,266.5929 721.5283,287.6969 C729.4963,291.0809 737.4883,295.4489 745.0643,300.1689 " fill="none" id="LeaveMessageController-to-AgentRepository" style="stroke:#181818;stroke-width:0.8000000000000002;stroke-dasharray:7.0,7.0;"/><polygon fill="#181818" points="748.5203,302.3609,744.1683,295.7928,745.1471,300.2112,740.7287,301.19,748.5203,302.3609" style="stroke:#181818;stroke-width:0.8000000000000002;"/><text fill="#000000" font-family="sans-serif" font-size="10.4" lengthAdjust="spacing" textLength="75.2" x="603.1283" y="260.5195">agentRepository</text></g><!--link LeaveMessageController to PropertyAnnouncementRepository--><g id="link_LeaveMessageController_PropertyAnnouncementRepository"><path codeLine="116" d="M688.2643,224.5049 C721.4643,238.0809 755.4883,251.5609 787.9283,263.6969 C819.8403,275.6329 828.8323,275.7209 860.7283,287.6969 C877.3123,293.9209 895.0483,301.1369 911.4483,308.0569 " fill="none" id="LeaveMessageController-to-PropertyAnnouncementRepository" style="stroke:#181818;stroke-width:0.8000000000000002;stroke-dasharray:7.0,7.0;"/><polygon fill="#181818" points="915.1443,309.6169,909.7503,303.8736,911.4578,308.0646,907.2667,309.7721,915.1443,309.6169" style="stroke:#181818;stroke-width:0.8000000000000002;"/><text fill="#000000" font-family="sans-serif" font-size="10.4" lengthAdjust="spacing" textLength="156.8" x="788.7283" y="260.5195">propertyAnnouncementRepository</text></g><!--link LeaveMessageController to EditAndSortLists--><g id="link_LeaveMessageController_EditAndSortLists"><path codeLine="117" d="M375.8643,224.6489 C367.4803,232.7049 359.1443,240.7369 351.1283,248.4969 C339.1043,260.1369 326.2323,272.7129 314.1203,284.5929 " fill="none" id="LeaveMessageController-to-EditAndSortLists" style="stroke:#181818;stroke-width:0.8000000000000002;stroke-dasharray:7.0,7.0;"/><polygon fill="#181818" points="311.0563,287.5929,318.4384,284.8389,313.9132,284.7932,313.9589,280.2679,311.0563,287.5929" style="stroke:#181818;stroke-width:0.8000000000000002;"/><text fill="#000000" font-family="sans-serif" font-size="10.4" lengthAdjust="spacing" textLength="76.8" x="351.9283" y="260.5195">editAndSortLists</text></g><!--link Repositories to ClientRepository--><g id="link_Repositories_ClientRepository"><path codeLine="118" d="M915.0883,187.5049 C908.2963,214.4809 895.7763,244.9929 872.7283,263.6969 C819.8963,306.5689 785.5683,264.7129 721.5283,287.6969 C712.1043,291.0809 702.5443,295.5689 693.4483,300.4489 " fill="none" id="Repositories-to-ClientRepository" style="stroke:#181818;stroke-width:0.8000000000000002;"/><polygon fill="#181818" points="689.8563,302.4089,697.7102,301.7794,693.3701,300.4975,694.652,296.1573,689.8563,302.4089" style="stroke:#181818;stroke-width:0.8000000000000002;"/><text fill="#000000" font-family="sans-serif" font-size="10.4" lengthAdjust="spacing" textLength="5.6" x="691.7673" y="293.5181">1</text></g><!--link Repositories to MessageRepository--><g id="link_Repositories_MessageRepository"><path codeLine="119" d="M1001.2963,187.4089 C1066.0963,240.3849 1139.8483,321.2649 1087.9283,385.2969 C1028.9843,457.9929 779.4483,492.9129 611.0243,508.4809 " fill="none" id="Repositories-to-MessageRepository" style="stroke:#181818;stroke-width:0.8000000000000002;"/><polygon fill="#181818" points="606.8163,508.8729,614.2791,511.4001,610.7995,508.5066,613.693,505.027,606.8163,508.8729" style="stroke:#181818;stroke-width:0.8000000000000002;"/><text fill="#000000" font-family="sans-serif" font-size="10.4" lengthAdjust="spacing" textLength="5.6" x="612.976" y="505.7728">1</text></g><!--link Repositories to AgentRepository--><g id="link_Repositories_AgentRepository"><path codeLine="120" d="M926.7843,187.4969 C925.8003,212.7289 920.7363,241.7449 905.5283,263.6969 C892.6643,282.2649 880.0083,275.9369 860.7283,287.6969 C854.3843,291.5689 847.8243,295.7849 841.3923,300.0569 " fill="none" id="Repositories-to-AgentRepository" style="stroke:#181818;stroke-width:0.8000000000000002;"/><polygon fill="#181818" points="837.8323,302.4329,845.5949,301.0832,841.1552,300.2062,842.0322,295.7665,837.8323,302.4329" style="stroke:#181818;stroke-width:0.8000000000000002;"/><text fill="#000000" font-family="sans-serif" font-size="10.4" lengthAdjust="spacing" textLength="5.6" x="839.2295" y="293.5459">1</text></g><!--link Repositories to PropertyAnnouncementRepository--><g id="link_Repositories_PropertyAnnouncementRepository"><path codeLine="121" d="M937.1203,187.4409 C946.6643,225.4889 958.9523,274.4329 966.7363,305.4409 " fill="none" id="Repositories-to-PropertyAnnouncementRepository" style="stroke:#181818;stroke-width:0.8000000000000002;"/><polygon fill="#181818" points="967.7523,309.5129,969.1051,301.7508,966.7795,305.633,962.8973,303.3073,967.7523,309.5129" style="stroke:#181818;stroke-width:0.8000000000000002;"/><text fill="#000000" font-family="sans-serif" font-size="10.4" lengthAdjust="spacing" textLength="5.6" x="960.365" y="300.7465">1</text></g><!--link ClientRepository to Client--><g id="link_ClientRepository_Client"><path codeLine="122" d="M584.2643,370.5289 C573.2883,376.0969 561.6563,381.3369 550.3283,385.2969 C436.3683,425.1289 393.2643,384.6649 283.1283,434.0969 C279.7283,435.6249 276.3443,437.2729 272.9843,439.0329 " fill="none" id="ClientRepository-to-Client" style="stroke:#181818;stroke-width:0.8000000000000002;"/><polygon fill="#181818" points="269.3443,440.9769,277.2028,440.4082,272.8728,439.0927,274.1882,434.7627,269.3443,440.9769" style="stroke:#181818;stroke-width:0.8000000000000002;"/><text fill="#000000" font-family="sans-serif" font-size="10.4" lengthAdjust="spacing" textLength="4" x="275.6106" y="433.0876">*</text></g><!--link MessageRepository to Message--><g id="link_MessageRepository_Message"><path codeLine="123" d="M412.0403,569.4409 C380.1283,607.9529 333.6723,664.0169 290.2323,716.4489 " fill="none" id="MessageRepository-to-Message" style="stroke:#181818;stroke-width:0.8000000000000002;"/><polygon fill="#181818" points="287.6403,719.5769,294.7067,716.0917,290.1999,716.5031,289.7886,711.9963,287.6403,719.5769" style="stroke:#181818;stroke-width:0.8000000000000002;"/><text fill="#000000" font-family="sans-serif" font-size="10.4" lengthAdjust="spacing" textLength="4" x="288.7204" y="710.6211">*</text></g><!--link LeaveMessageController to Client--><g id="link_LeaveMessageController_Client"><path codeLine="124" d="M238.4883,221.4729 C162.2483,251.6969 95.6403,279.8009 90.3283,287.6969 C61.3523,330.7769 78.5363,385.1449 104.6323,430.4089 " fill="none" id="LeaveMessageController-to-Client" style="stroke:#181818;stroke-width:0.8000000000000002;stroke-dasharray:7.0,7.0;"/><polygon fill="#181818" points="106.6883,433.9289,105.8084,426.0991,104.6657,430.4779,100.2869,429.3352,106.6883,433.9289" style="stroke:#181818;stroke-width:0.8000000000000002;"/><text fill="#000000" font-family="sans-serif" font-size="10.4" lengthAdjust="spacing" textLength="24.8" x="91.1283" y="340.9195">client</text><text fill="#000000" font-family="sans-serif" font-size="10.4" lengthAdjust="spacing" textLength="5.6" x="96.1917" y="425.0063">1</text></g><!--link LeaveMessageController to Message--><g id="link_LeaveMessageController_Message"><path codeLine="125" d="M238.6083,219.8249 C233.6803,221.4169 228.7843,222.9769 223.9283,224.4969 C182.9443,237.3289 169.6803,231.3049 130.3283,248.4969 C100.8643,261.3689 95.9203,269.3289 69.5283,287.6969 C40.3443,308.0089 5.5283,300.1449 5.5283,335.6969 C5.5283,335.6969 5.5283,335.6969 5.5283,664.0969 C5.5283,682.2809 9.8163,699.5849 17.0243,715.8249 " fill="none" id="LeaveMessageController-to-Message" style="stroke:#181818;stroke-width:0.8000000000000002;stroke-dasharray:7.0,7.0;"/><polygon fill="#181818" points="18.7123,719.4969,18.6163,711.6184,17.0433,715.8617,12.8,714.2887,18.7123,719.4969" style="stroke:#181818;stroke-width:0.8000000000000002;"/><text fill="#000000" font-family="sans-serif" font-size="10.4" lengthAdjust="spacing" textLength="42.4" x="6.3283" y="524.9195">message</text><text fill="#000000" font-family="sans-serif" font-size="10.4" lengthAdjust="spacing" textLength="4" x="7.6066" y="710.5375">*</text></g><!--link Client to Message--><g id="link_Client_Message"><path codeLine="126" d="M173.5283,606.9529 C173.5283,639.9689 173.5283,678.6249 173.5283,715.5449 " fill="none" id="Client-to-Message" style="stroke:#181818;stroke-width:0.8000000000000002;"/><polygon fill="#181818" points="173.5283,719.5689,176.7283,712.3689,173.5283,715.5689,170.3283,712.3689,173.5283,719.5689" style="stroke:#181818;stroke-width:0.8000000000000002;"/><text fill="#000000" font-family="sans-serif" font-size="10.4" lengthAdjust="spacing" textLength="28" x="174.3283" y="667.7195">sends</text><text fill="#000000" font-family="sans-serif" font-size="10.4" lengthAdjust="spacing" textLength="4" x="169.4377" y="710.6128">*</text></g><!--SRC=[dLPTRzCm57tthx1uwg2TnYCKLUe-49MsCP4DyJPvoMrhBRM3xMo4YV_EJMmdZfCMjAUbvtxut7ElhwSVkIYOOZjQiFIHRI0nLGvKGMgOsEH0TEkWjooJprniw9hbEhIaETDwQOpY3wM1LIf5mdy3FI74S8FPxfAJam_q4jXJ7Ste3hJ6e-YCdjMHz9op3UOXf4dKECALzRbRlP2P-_PnP7R9jVbqesG1obGBMhYl6aPZ47ucXL4opq7HjFqaz_Vtv9qgnUG8_y3F4hIvbT-vvgP6D8ZCXT_AvGP4WpuhRdpMncihds-2SskCwSVbWopDPvuRK7hYU77GKwfJT2WK5wON5L8_8d_69EXgUB7CzrWdh3HRPCjJPhWKtw2GM95KrHGRnD4G8axA3a9sz0aKNrU-IETI6pJaE12UU8_qbE8KbFZ71g_g7tM8q_MS6HOL-Ovkm5o8xEkwaPnEj65gRnwlwMrLmDTrmd8OoXevnJn776rR-_OfPJNgIMgfJDWYzAhXL07h1i70BwGis0wcjDXA0TVbxW4K_b2m1gKWGm7GPlWEabo6BRx8k5cAB777QDzS5EUcFN6rljr2jLHmoKGMCHbtNEALDBkWkb3r4VylijHmsFUq-j7Jo_MzKUjYntWULDKE5CRPYcOzREAohmHsNQHubUZ7deCrB_UCiWy_YmRQurVnM4y2RdukbaB84i_UzLAy3DOA2_nqKqkRAZxV1rjyuIwSxbfg3QTLezS48jKQUOVP6dXXXGvoDR0EAxFPASObk8HnnzOJIMQuR72jQrtWZDd193CjKyxo1D8I5rhbKHVMy6f_1GFTOS-P8sBFjAMCN04_HHtYUtIDhY7vGSzy-SwmyClAIs2lu2lk7jx_B1jPRqyivrbmgrjJp16P-V5e7vrvgqtJfzLv1zGCvxsUpCV43S2G-TmsiDcERbSw2DhbENUI-1VoLQ8OQO-l6vJc65D_-3bRdRjVDs42Z_MxYqWIi7LGj-fjr_lFEprUx7dFIBWMw6pHMnEuDRXR8MJFWtyyY53XdjaNXM7nxSRG-0NT7uxnWud618C7zn21Q1zWEDlyv_6BVwmvp5KST3YKEdwpC1b4KDGrRDkRzsy6Yevx3NGRTulK6NSwh08PjBY9U-kPac4BPzx3cGxfr9NSZiv1zovhDocE8esEHOVw7rHDo5y0]--></g></svg>