<?xml version="1.0" encoding="us-ascii" standalone="no"?><svg xmlns="http://www.w3.org/2000/svg" xmlns:xlink="http://www.w3.org/1999/xlink" contentStyleType="text/css" height="1252px" preserveAspectRatio="none" style="width:1830px;height:1252px;background:#FFFFFF;" version="1.1" viewBox="0 0 1830 1252" width="1830px" zoomAndPan="magnify"><defs/><g><text fill="#000000" font-family="sans-serif" font-size="14" font-weight="bold" lengthAdjust="spacing" textLength="294" x="761.105" y="25.1074">US009 Leaving a message - Class Diagram</text><!--class LeaveMessageUI--><g id="elem_LeaveMessageUI"><rect codeLine="9" fill="#F1F1F1" height="234.2109" id="LeaveMessageUI" rx="2.5" ry="2.5" style="stroke:#181818;stroke-width:0.5;" width="238" x="374.5" y="46.6211"/><ellipse cx="435.25" cy="62.6211" fill="#ADD1B2" rx="11" ry="11" style="stroke:#181818;stroke-width:1.0;"/><path d="M438.0156,58.4961 Q438.1719,58.2773 438.3594,58.168 Q438.5469,58.0586 438.7656,58.0586 Q439.1406,58.0586 439.375,58.3242 Q439.6094,58.5742 439.6094,59.1836 L439.6094,60.6367 Q439.6094,61.2461 439.375,61.5117 Q439.1406,61.7773 438.7656,61.7773 Q438.4219,61.7773 438.2188,61.5742 Q438.0156,61.3867 437.9063,60.8711 Q437.8594,60.5117 437.6719,60.3242 Q437.3438,59.9492 436.7344,59.7305 Q436.125,59.5117 435.5,59.5117 Q434.7344,59.5117 434.0938,59.8398 Q433.4688,60.168 432.9688,60.918 Q432.4844,61.668 432.4844,62.6992 L432.4844,63.793 Q432.4844,65.0273 433.375,65.8555 Q434.2656,66.668 435.8594,66.668 Q436.7969,66.668 437.4531,66.418 Q437.8438,66.2617 438.2656,65.8242 Q438.5313,65.5586 438.6719,65.4805 Q438.8281,65.4023 439.0313,65.4023 Q439.3594,65.4023 439.6094,65.668 Q439.875,65.918 439.875,66.2617 Q439.875,66.6055 439.5313,67.0117 Q439.0313,67.5898 438.2344,67.918 Q437.1563,68.3711 435.8594,68.3711 Q434.3438,68.3711 433.1406,67.7461 Q432.1563,67.2461 431.4688,66.1836 Q430.7813,65.1055 430.7813,63.8242 L430.7813,62.668 Q430.7813,61.3398 431.3906,60.1992 Q432.0156,59.043 433.1094,58.4336 Q434.2031,57.8086 435.4375,57.8086 Q436.1719,57.8086 436.8125,57.9805 Q437.4688,58.1367 438.0156,58.4961 Z " fill="#000000"/><text fill="#000000" font-family="sans-serif" font-size="14" lengthAdjust="spacing" textLength="108" x="455.75" y="68.418">LeaveMessageUI</text><line style="stroke:#181818;stroke-width:0.5;" x1="375.5" x2="611.5" y1="78.6211" y2="78.6211"/><text fill="#000000" font-family="sans-serif" font-size="14" lengthAdjust="spacing" textLength="123" x="380.5" y="97.7285">-Message message</text><text fill="#000000" font-family="sans-serif" font-size="14" lengthAdjust="spacing" textLength="176" x="380.5" y="116.3496">-List&lt;Property&gt; propertyList</text><text fill="#000000" font-family="sans-serif" font-size="14" lengthAdjust="spacing" textLength="226" x="380.5" y="134.9707">-LeaveMessageController controller</text><line style="stroke:#181818;stroke-width:0.5;" x1="375.5" x2="611.5" y1="142.4844" y2="142.4844"/><text fill="#000000" font-family="sans-serif" font-size="14" lengthAdjust="spacing" textLength="39" x="380.5" y="161.5918">+run()</text><text fill="#000000" font-family="sans-serif" font-size="14" lengthAdjust="spacing" textLength="109" x="380.5" y="180.2129">+requestToVisit()</text><text fill="#000000" font-family="sans-serif" font-size="14" lengthAdjust="spacing" textLength="160" x="380.5" y="198.834">+sendMessageToAgent()</text><text fill="#000000" font-family="sans-serif" font-size="14" lengthAdjust="spacing" textLength="104" x="380.5" y="217.4551">+writeMessage()</text><text fill="#000000" font-family="sans-serif" font-size="14" lengthAdjust="spacing" textLength="126" x="380.5" y="236.0762">+showPropertyList()</text><text fill="#000000" font-family="sans-serif" font-size="14" lengthAdjust="spacing" textLength="202" x="380.5" y="254.6973">+askAboutFilters(properties, sc)</text><text fill="#000000" font-family="sans-serif" font-size="14" lengthAdjust="spacing" textLength="197" x="380.5" y="273.3184">+printPropertyList(propertyList)</text></g><!--class LeaveMessageController--><g id="elem_LeaveMessageController"><rect codeLine="23" fill="#F1F1F1" height="234.2109" id="LeaveMessageController" rx="2.5" ry="2.5" style="stroke:#181818;stroke-width:0.5;" width="587" x="648" y="46.6211"/><ellipse cx="858.25" cy="62.6211" fill="#ADD1B2" rx="11" ry="11" style="stroke:#181818;stroke-width:1.0;"/><path d="M861.0156,58.4961 Q861.1719,58.2773 861.3594,58.168 Q861.5469,58.0586 861.7656,58.0586 Q862.1406,58.0586 862.375,58.3242 Q862.6094,58.5742 862.6094,59.1836 L862.6094,60.6367 Q862.6094,61.2461 862.375,61.5117 Q862.1406,61.7773 861.7656,61.7773 Q861.4219,61.7773 861.2188,61.5742 Q861.0156,61.3867 860.9063,60.8711 Q860.8594,60.5117 860.6719,60.3242 Q860.3438,59.9492 859.7344,59.7305 Q859.125,59.5117 858.5,59.5117 Q857.7344,59.5117 857.0938,59.8398 Q856.4688,60.168 855.9688,60.918 Q855.4844,61.668 855.4844,62.6992 L855.4844,63.793 Q855.4844,65.0273 856.375,65.8555 Q857.2656,66.668 858.8594,66.668 Q859.7969,66.668 860.4531,66.418 Q860.8438,66.2617 861.2656,65.8242 Q861.5313,65.5586 861.6719,65.4805 Q861.8281,65.4023 862.0313,65.4023 Q862.3594,65.4023 862.6094,65.668 Q862.875,65.918 862.875,66.2617 Q862.875,66.6055 862.5313,67.0117 Q862.0313,67.5898 861.2344,67.918 Q860.1563,68.3711 858.8594,68.3711 Q857.3438,68.3711 856.1406,67.7461 Q855.1563,67.2461 854.4688,66.1836 Q853.7813,65.1055 853.7813,63.8242 L853.7813,62.668 Q853.7813,61.3398 854.3906,60.1992 Q855.0156,59.043 856.1094,58.4336 Q857.2031,57.8086 858.4375,57.8086 Q859.1719,57.8086 859.8125,57.9805 Q860.4688,58.1367 861.0156,58.4961 Z " fill="#000000"/><text fill="#000000" font-family="sans-serif" font-size="14" lengthAdjust="spacing" textLength="158" x="878.75" y="68.418">LeaveMessageController</text><line style="stroke:#181818;stroke-width:0.5;" x1="649" x2="1234" y1="78.6211" y2="78.6211"/><line style="stroke:#181818;stroke-width:0.5;" x1="649" x2="1234" y1="86.6211" y2="86.6211"/><text fill="#000000" font-family="sans-serif" font-size="14" lengthAdjust="spacing" textLength="575" x="654" y="105.7285">+LeaveMessageController(authenticationRepository, clientRepository, messageRepository)</text><text fill="#000000" font-family="sans-serif" font-size="14" lengthAdjust="spacing" textLength="166" x="654" y="124.3496">+verifyMessage(message)</text><text fill="#000000" font-family="sans-serif" font-size="14" lengthAdjust="spacing" textLength="296" x="654" y="142.9707">+selectProperty(propertyList, input, verifyInput)</text><text fill="#000000" font-family="sans-serif" font-size="14" lengthAdjust="spacing" textLength="171" x="654" y="161.5918">+requestData(propertyList)</text><text fill="#000000" font-family="sans-serif" font-size="14" lengthAdjust="spacing" textLength="248" x="654" y="180.2129">+getEndOfVisit (start, input, verifyInput)</text><text fill="#000000" font-family="sans-serif" font-size="14" lengthAdjust="spacing" textLength="238" x="654" y="198.834">+askAboutTypeOfSale(properties, sc)</text><text fill="#000000" font-family="sans-serif" font-size="14" lengthAdjust="spacing" textLength="264" x="654" y="217.4551">+askAboutTypeOfProperty(properties, sc)</text><text fill="#000000" font-family="sans-serif" font-size="14" lengthAdjust="spacing" textLength="266" x="654" y="236.0762">+askAboutAgent(properties, sc, agentList)</text><text fill="#000000" font-family="sans-serif" font-size="14" lengthAdjust="spacing" textLength="128" x="654" y="254.6973">+sortList(properties)</text><text fill="#000000" font-family="sans-serif" font-size="14" lengthAdjust="spacing" textLength="432" x="654" y="273.3184">+createMessage(text, name, phoneNumber, preferredDate, timeSlot)</text></g><!--class EditAndSortLists--><g id="elem_EditAndSortLists"><rect codeLine="37" fill="#F1F1F1" height="122.4844" id="EditAndSortLists" rx="2.5" ry="2.5" style="stroke:#181818;stroke-width:0.5;" width="329" x="7" y="359.6211"/><ellipse cx="115.25" cy="375.6211" fill="#ADD1B2" rx="11" ry="11" style="stroke:#181818;stroke-width:1.0;"/><path d="M118.0156,371.4961 Q118.1719,371.2773 118.3594,371.168 Q118.5469,371.0586 118.7656,371.0586 Q119.1406,371.0586 119.375,371.3242 Q119.6094,371.5742 119.6094,372.1836 L119.6094,373.6367 Q119.6094,374.2461 119.375,374.5117 Q119.1406,374.7773 118.7656,374.7773 Q118.4219,374.7773 118.2188,374.5742 Q118.0156,374.3867 117.9063,373.8711 Q117.8594,373.5117 117.6719,373.3242 Q117.3438,372.9492 116.7344,372.7305 Q116.125,372.5117 115.5,372.5117 Q114.7344,372.5117 114.0938,372.8398 Q113.4688,373.168 112.9688,373.918 Q112.4844,374.668 112.4844,375.6992 L112.4844,376.793 Q112.4844,378.0273 113.375,378.8555 Q114.2656,379.668 115.8594,379.668 Q116.7969,379.668 117.4531,379.418 Q117.8438,379.2617 118.2656,378.8242 Q118.5313,378.5586 118.6719,378.4805 Q118.8281,378.4023 119.0313,378.4023 Q119.3594,378.4023 119.6094,378.668 Q119.875,378.918 119.875,379.2617 Q119.875,379.6055 119.5313,380.0117 Q119.0313,380.5898 118.2344,380.918 Q117.1563,381.3711 115.8594,381.3711 Q114.3438,381.3711 113.1406,380.7461 Q112.1563,380.2461 111.4688,379.1836 Q110.7813,378.1055 110.7813,376.8242 L110.7813,375.668 Q110.7813,374.3398 111.3906,373.1992 Q112.0156,372.043 113.1094,371.4336 Q114.2031,370.8086 115.4375,370.8086 Q116.1719,370.8086 116.8125,370.9805 Q117.4688,371.1367 118.0156,371.4961 Z " fill="#000000"/><text fill="#000000" font-family="sans-serif" font-size="14" lengthAdjust="spacing" textLength="104" x="135.75" y="381.418">EditAndSortLists</text><line style="stroke:#181818;stroke-width:0.5;" x1="8" x2="335" y1="391.6211" y2="391.6211"/><line style="stroke:#181818;stroke-width:0.5;" x1="8" x2="335" y1="399.6211" y2="399.6211"/><text fill="#000000" font-family="sans-serif" font-size="14" lengthAdjust="spacing" textLength="260" x="13" y="418.7285">+getPropertiesIfTheyAreLand(properties)</text><text fill="#000000" font-family="sans-serif" font-size="14" lengthAdjust="spacing" textLength="304" x="13" y="437.3496">+getPropertiesIfTheyAreApartment(propertyList)</text><text fill="#000000" font-family="sans-serif" font-size="14" lengthAdjust="spacing" textLength="279" x="13" y="455.9707">+getPropertiesIfTheyAreHouse(propertyList)</text><text fill="#000000" font-family="sans-serif" font-size="14" lengthAdjust="spacing" textLength="317" x="13" y="474.5918">+getPropertiesByXAgent(propertyList, agentEmail)</text></g><!--class Repositories--><g id="elem_Repositories"><rect codeLine="45" fill="#F1F1F1" height="141.1055" id="Repositories" rx="2.5" ry="2.5" style="stroke:#181818;stroke-width:0.5;" width="208" x="1491.5" y="93.1211"/><ellipse cx="1551.75" cy="109.1211" fill="#ADD1B2" rx="11" ry="11" style="stroke:#181818;stroke-width:1.0;"/><path d="M1554.5156,104.9961 Q1554.6719,104.7773 1554.8594,104.668 Q1555.0469,104.5586 1555.2656,104.5586 Q1555.6406,104.5586 1555.875,104.8242 Q1556.1094,105.0742 1556.1094,105.6836 L1556.1094,107.1367 Q1556.1094,107.7461 1555.875,108.0117 Q1555.6406,108.2773 1555.2656,108.2773 Q1554.9219,108.2773 1554.7188,108.0742 Q1554.5156,107.8867 1554.4063,107.3711 Q1554.3594,107.0117 1554.1719,106.8242 Q1553.8438,106.4492 1553.2344,106.2305 Q1552.625,106.0117 1552,106.0117 Q1551.2344,106.0117 1550.5938,106.3398 Q1549.9688,106.668 1549.4688,107.418 Q1548.9844,108.168 1548.9844,109.1992 L1548.9844,110.293 Q1548.9844,111.5273 1549.875,112.3555 Q1550.7656,113.168 1552.3594,113.168 Q1553.2969,113.168 1553.9531,112.918 Q1554.3438,112.7617 1554.7656,112.3242 Q1555.0313,112.0586 1555.1719,111.9805 Q1555.3281,111.9023 1555.5313,111.9023 Q1555.8594,111.9023 1556.1094,112.168 Q1556.375,112.418 1556.375,112.7617 Q1556.375,113.1055 1556.0313,113.5117 Q1555.5313,114.0898 1554.7344,114.418 Q1553.6563,114.8711 1552.3594,114.8711 Q1550.8438,114.8711 1549.6406,114.2461 Q1548.6563,113.7461 1547.9688,112.6836 Q1547.2813,111.6055 1547.2813,110.3242 L1547.2813,109.168 Q1547.2813,107.8398 1547.8906,106.6992 Q1548.5156,105.543 1549.6094,104.9336 Q1550.7031,104.3086 1551.9375,104.3086 Q1552.6719,104.3086 1553.3125,104.4805 Q1553.9688,104.6367 1554.5156,104.9961 Z " fill="#000000"/><text fill="#000000" font-family="sans-serif" font-size="14" lengthAdjust="spacing" textLength="79" x="1572.25" y="114.918">Repositories</text><line style="stroke:#181818;stroke-width:0.5;" x1="1492.5" x2="1698.5" y1="125.1211" y2="125.1211"/><line style="stroke:#181818;stroke-width:0.5;" x1="1492.5" x2="1698.5" y1="133.1211" y2="133.1211"/><text fill="#000000" font-family="sans-serif" font-size="14" lengthAdjust="spacing" textLength="94" x="1497.5" y="152.2285">-Repositories()</text><text fill="#000000" font-family="sans-serif" font-size="14" lengthAdjust="spacing" textLength="182" x="1497.5" y="170.8496">+getInstance() : Repositories</text><text fill="#000000" font-family="sans-serif" font-size="14" lengthAdjust="spacing" textLength="196" x="1497.5" y="189.4707">+getAuthenticationRepository()</text><text fill="#000000" font-family="sans-serif" font-size="14" lengthAdjust="spacing" textLength="142" x="1497.5" y="208.0918">+getClientRepository()</text><text fill="#000000" font-family="sans-serif" font-size="14" lengthAdjust="spacing" textLength="163" x="1497.5" y="226.7129">+getMessageRepository()</text></g><!--class PropertyAnnouncementRepository--><g id="elem_PropertyAnnouncementRepository"><rect codeLine="54" fill="#F1F1F1" height="66.6211" id="PropertyAnnouncementRepository" rx="2.5" ry="2.5" style="stroke:#181818;stroke-width:0.5;" width="249" x="751" y="387.1211"/><ellipse cx="766" cy="403.1211" fill="#ADD1B2" rx="11" ry="11" style="stroke:#181818;stroke-width:1.0;"/><path d="M768.7656,398.9961 Q768.9219,398.7773 769.1094,398.668 Q769.2969,398.5586 769.5156,398.5586 Q769.8906,398.5586 770.125,398.8242 Q770.3594,399.0742 770.3594,399.6836 L770.3594,401.1367 Q770.3594,401.7461 770.125,402.0117 Q769.8906,402.2773 769.5156,402.2773 Q769.1719,402.2773 768.9688,402.0742 Q768.7656,401.8867 768.6563,401.3711 Q768.6094,401.0117 768.4219,400.8242 Q768.0938,400.4492 767.4844,400.2305 Q766.875,400.0117 766.25,400.0117 Q765.4844,400.0117 764.8438,400.3398 Q764.2188,400.668 763.7188,401.418 Q763.2344,402.168 763.2344,403.1992 L763.2344,404.293 Q763.2344,405.5273 764.125,406.3555 Q765.0156,407.168 766.6094,407.168 Q767.5469,407.168 768.2031,406.918 Q768.5938,406.7617 769.0156,406.3242 Q769.2813,406.0586 769.4219,405.9805 Q769.5781,405.9023 769.7813,405.9023 Q770.1094,405.9023 770.3594,406.168 Q770.625,406.418 770.625,406.7617 Q770.625,407.1055 770.2813,407.5117 Q769.7813,408.0898 768.9844,408.418 Q767.9063,408.8711 766.6094,408.8711 Q765.0938,408.8711 763.8906,408.2461 Q762.9063,407.7461 762.2188,406.6836 Q761.5313,405.6055 761.5313,404.3242 L761.5313,403.168 Q761.5313,401.8398 762.1406,400.6992 Q762.7656,399.543 763.8594,398.9336 Q764.9531,398.3086 766.1875,398.3086 Q766.9219,398.3086 767.5625,398.4805 Q768.2188,398.6367 768.7656,398.9961 Z " fill="#000000"/><text fill="#000000" font-family="sans-serif" font-size="14" lengthAdjust="spacing" textLength="217" x="780" y="408.918">PropertyAnnouncementRepository</text><line style="stroke:#181818;stroke-width:0.5;" x1="752" x2="999" y1="419.1211" y2="419.1211"/><text fill="#000000" font-family="sans-serif" font-size="14" lengthAdjust="spacing" textLength="202" x="757" y="438.2285">-List&lt;Property&gt; announcements</text><line style="stroke:#181818;stroke-width:0.5;" x1="752" x2="999" y1="445.7422" y2="445.7422"/></g><!--class AuthenticationRepository--><g id="elem_AuthenticationRepository"><rect codeLine="60" fill="#F1F1F1" height="85.2422" id="AuthenticationRepository" rx="2.5" ry="2.5" style="stroke:#181818;stroke-width:0.5;" width="235" x="1035" y="378.1211"/><ellipse cx="1070.25" cy="394.1211" fill="#ADD1B2" rx="11" ry="11" style="stroke:#181818;stroke-width:1.0;"/><path d="M1073.0156,389.9961 Q1073.1719,389.7773 1073.3594,389.668 Q1073.5469,389.5586 1073.7656,389.5586 Q1074.1406,389.5586 1074.375,389.8242 Q1074.6094,390.0742 1074.6094,390.6836 L1074.6094,392.1367 Q1074.6094,392.7461 1074.375,393.0117 Q1074.1406,393.2773 1073.7656,393.2773 Q1073.4219,393.2773 1073.2188,393.0742 Q1073.0156,392.8867 1072.9063,392.3711 Q1072.8594,392.0117 1072.6719,391.8242 Q1072.3438,391.4492 1071.7344,391.2305 Q1071.125,391.0117 1070.5,391.0117 Q1069.7344,391.0117 1069.0938,391.3398 Q1068.4688,391.668 1067.9688,392.418 Q1067.4844,393.168 1067.4844,394.1992 L1067.4844,395.293 Q1067.4844,396.5273 1068.375,397.3555 Q1069.2656,398.168 1070.8594,398.168 Q1071.7969,398.168 1072.4531,397.918 Q1072.8438,397.7617 1073.2656,397.3242 Q1073.5313,397.0586 1073.6719,396.9805 Q1073.8281,396.9023 1074.0313,396.9023 Q1074.3594,396.9023 1074.6094,397.168 Q1074.875,397.418 1074.875,397.7617 Q1074.875,398.1055 1074.5313,398.5117 Q1074.0313,399.0898 1073.2344,399.418 Q1072.1563,399.8711 1070.8594,399.8711 Q1069.3438,399.8711 1068.1406,399.2461 Q1067.1563,398.7461 1066.4688,397.6836 Q1065.7813,396.6055 1065.7813,395.3242 L1065.7813,394.168 Q1065.7813,392.8398 1066.3906,391.6992 Q1067.0156,390.543 1068.1094,389.9336 Q1069.2031,389.3086 1070.4375,389.3086 Q1071.1719,389.3086 1071.8125,389.4805 Q1072.4688,389.6367 1073.0156,389.9961 Z " fill="#000000"/><text fill="#000000" font-family="sans-serif" font-size="14" lengthAdjust="spacing" textLength="158" x="1088.75" y="399.918">AuthenticationRepository</text><line style="stroke:#181818;stroke-width:0.5;" x1="1036" x2="1269" y1="410.1211" y2="410.1211"/><text fill="#000000" font-family="sans-serif" font-size="14" lengthAdjust="spacing" textLength="223" x="1041" y="429.2285">-AuthFacade authenticationFacade</text><line style="stroke:#181818;stroke-width:0.5;" x1="1036" x2="1269" y1="436.7422" y2="436.7422"/><text fill="#000000" font-family="sans-serif" font-size="14" lengthAdjust="spacing" textLength="165" x="1041" y="455.8496">+getCurrentUserSession()</text></g><!--class UserSession--><g id="elem_UserSession"><rect codeLine="66" fill="#F1F1F1" height="85.2422" id="UserSession" rx="2.5" ry="2.5" style="stroke:#181818;stroke-width:0.5;" width="111" x="1305" y="378.1211"/><ellipse cx="1320" cy="394.1211" fill="#ADD1B2" rx="11" ry="11" style="stroke:#181818;stroke-width:1.0;"/><path d="M1322.7656,389.9961 Q1322.9219,389.7773 1323.1094,389.668 Q1323.2969,389.5586 1323.5156,389.5586 Q1323.8906,389.5586 1324.125,389.8242 Q1324.3594,390.0742 1324.3594,390.6836 L1324.3594,392.1367 Q1324.3594,392.7461 1324.125,393.0117 Q1323.8906,393.2773 1323.5156,393.2773 Q1323.1719,393.2773 1322.9688,393.0742 Q1322.7656,392.8867 1322.6563,392.3711 Q1322.6094,392.0117 1322.4219,391.8242 Q1322.0938,391.4492 1321.4844,391.2305 Q1320.875,391.0117 1320.25,391.0117 Q1319.4844,391.0117 1318.8438,391.3398 Q1318.2188,391.668 1317.7188,392.418 Q1317.2344,393.168 1317.2344,394.1992 L1317.2344,395.293 Q1317.2344,396.5273 1318.125,397.3555 Q1319.0156,398.168 1320.6094,398.168 Q1321.5469,398.168 1322.2031,397.918 Q1322.5938,397.7617 1323.0156,397.3242 Q1323.2813,397.0586 1323.4219,396.9805 Q1323.5781,396.9023 1323.7813,396.9023 Q1324.1094,396.9023 1324.3594,397.168 Q1324.625,397.418 1324.625,397.7617 Q1324.625,398.1055 1324.2813,398.5117 Q1323.7813,399.0898 1322.9844,399.418 Q1321.9063,399.8711 1320.6094,399.8711 Q1319.0938,399.8711 1317.8906,399.2461 Q1316.9063,398.7461 1316.2188,397.6836 Q1315.5313,396.6055 1315.5313,395.3242 L1315.5313,394.168 Q1315.5313,392.8398 1316.1406,391.6992 Q1316.7656,390.543 1317.8594,389.9336 Q1318.9531,389.3086 1320.1875,389.3086 Q1320.9219,389.3086 1321.5625,389.4805 Q1322.2188,389.6367 1322.7656,389.9961 Z " fill="#000000"/><text fill="#000000" font-family="sans-serif" font-size="14" lengthAdjust="spacing" textLength="79" x="1334" y="399.918">UserSession</text><line style="stroke:#181818;stroke-width:0.5;" x1="1306" x2="1415" y1="410.1211" y2="410.1211"/><text fill="#000000" font-family="sans-serif" font-size="14" lengthAdjust="spacing" textLength="33" x="1311" y="429.2285">-user</text><line style="stroke:#181818;stroke-width:0.5;" x1="1306" x2="1415" y1="436.7422" y2="436.7422"/><text fill="#000000" font-family="sans-serif" font-size="14" lengthAdjust="spacing" textLength="78" x="1311" y="455.8496">+getUserId()</text></g><!--class ClientRepository--><g id="elem_ClientRepository"><rect codeLine="72" fill="#F1F1F1" height="85.2422" id="ClientRepository" rx="2.5" ry="2.5" style="stroke:#181818;stroke-width:0.5;" width="169" x="475" y="378.1211"/><ellipse cx="504.85" cy="394.1211" fill="#ADD1B2" rx="11" ry="11" style="stroke:#181818;stroke-width:1.0;"/><path d="M507.6156,389.9961 Q507.7719,389.7773 507.9594,389.668 Q508.1469,389.5586 508.3656,389.5586 Q508.7406,389.5586 508.975,389.8242 Q509.2094,390.0742 509.2094,390.6836 L509.2094,392.1367 Q509.2094,392.7461 508.975,393.0117 Q508.7406,393.2773 508.3656,393.2773 Q508.0219,393.2773 507.8188,393.0742 Q507.6156,392.8867 507.5063,392.3711 Q507.4594,392.0117 507.2719,391.8242 Q506.9438,391.4492 506.3344,391.2305 Q505.725,391.0117 505.1,391.0117 Q504.3344,391.0117 503.6938,391.3398 Q503.0688,391.668 502.5688,392.418 Q502.0844,393.168 502.0844,394.1992 L502.0844,395.293 Q502.0844,396.5273 502.975,397.3555 Q503.8656,398.168 505.4594,398.168 Q506.3969,398.168 507.0531,397.918 Q507.4438,397.7617 507.8656,397.3242 Q508.1313,397.0586 508.2719,396.9805 Q508.4281,396.9023 508.6313,396.9023 Q508.9594,396.9023 509.2094,397.168 Q509.475,397.418 509.475,397.7617 Q509.475,398.1055 509.1313,398.5117 Q508.6313,399.0898 507.8344,399.418 Q506.7563,399.8711 505.4594,399.8711 Q503.9438,399.8711 502.7406,399.2461 Q501.7563,398.7461 501.0688,397.6836 Q500.3813,396.6055 500.3813,395.3242 L500.3813,394.168 Q500.3813,392.8398 500.9906,391.6992 Q501.6156,390.543 502.7094,389.9336 Q503.8031,389.3086 505.0375,389.3086 Q505.7719,389.3086 506.4125,389.4805 Q507.0688,389.6367 507.6156,389.9961 Z " fill="#000000"/><text fill="#000000" font-family="sans-serif" font-size="14" lengthAdjust="spacing" textLength="104" x="522.15" y="399.918">ClientRepository</text><line style="stroke:#181818;stroke-width:0.5;" x1="476" x2="643" y1="410.1211" y2="410.1211"/><text fill="#000000" font-family="sans-serif" font-size="14" lengthAdjust="spacing" textLength="123" x="481" y="429.2285">-List&lt;Client&gt; clients</text><line style="stroke:#181818;stroke-width:0.5;" x1="476" x2="643" y1="436.7422" y2="436.7422"/><text fill="#000000" font-family="sans-serif" font-size="14" lengthAdjust="spacing" textLength="157" x="481" y="455.8496">+getClientByEmail(email)</text></g><!--class AgentRepository--><g id="elem_AgentRepository"><rect codeLine="78" fill="#F1F1F1" height="85.2422" id="AgentRepository" rx="2.5" ry="2.5" style="stroke:#181818;stroke-width:0.5;" width="139" x="1639" y="378.1211"/><ellipse cx="1654.9" cy="394.1211" fill="#ADD1B2" rx="11" ry="11" style="stroke:#181818;stroke-width:1.0;"/><path d="M1657.6656,389.9961 Q1657.8219,389.7773 1658.0094,389.668 Q1658.1969,389.5586 1658.4156,389.5586 Q1658.7906,389.5586 1659.025,389.8242 Q1659.2594,390.0742 1659.2594,390.6836 L1659.2594,392.1367 Q1659.2594,392.7461 1659.025,393.0117 Q1658.7906,393.2773 1658.4156,393.2773 Q1658.0719,393.2773 1657.8688,393.0742 Q1657.6656,392.8867 1657.5563,392.3711 Q1657.5094,392.0117 1657.3219,391.8242 Q1656.9938,391.4492 1656.3844,391.2305 Q1655.775,391.0117 1655.15,391.0117 Q1654.3844,391.0117 1653.7438,391.3398 Q1653.1188,391.668 1652.6188,392.418 Q1652.1344,393.168 1652.1344,394.1992 L1652.1344,395.293 Q1652.1344,396.5273 1653.025,397.3555 Q1653.9156,398.168 1655.5094,398.168 Q1656.4469,398.168 1657.1031,397.918 Q1657.4938,397.7617 1657.9156,397.3242 Q1658.1813,397.0586 1658.3219,396.9805 Q1658.4781,396.9023 1658.6813,396.9023 Q1659.0094,396.9023 1659.2594,397.168 Q1659.525,397.418 1659.525,397.7617 Q1659.525,398.1055 1659.1813,398.5117 Q1658.6813,399.0898 1657.8844,399.418 Q1656.8063,399.8711 1655.5094,399.8711 Q1653.9938,399.8711 1652.7906,399.2461 Q1651.8063,398.7461 1651.1188,397.6836 Q1650.4313,396.6055 1650.4313,395.3242 L1650.4313,394.168 Q1650.4313,392.8398 1651.0406,391.6992 Q1651.6656,390.543 1652.7594,389.9336 Q1653.8531,389.3086 1655.0875,389.3086 Q1655.8219,389.3086 1656.4625,389.4805 Q1657.1188,389.6367 1657.6656,389.9961 Z " fill="#000000"/><text fill="#000000" font-family="sans-serif" font-size="14" lengthAdjust="spacing" textLength="105" x="1669.1" y="399.918">AgentRepository</text><line style="stroke:#181818;stroke-width:0.5;" x1="1640" x2="1777" y1="410.1211" y2="410.1211"/><text fill="#000000" font-family="sans-serif" font-size="14" lengthAdjust="spacing" textLength="127" x="1645" y="429.2285">-List&lt;Agent&gt; agents</text><line style="stroke:#181818;stroke-width:0.5;" x1="1640" x2="1777" y1="436.7422" y2="436.7422"/><text fill="#000000" font-family="sans-serif" font-size="14" lengthAdjust="spacing" textLength="82" x="1645" y="455.8496">+getAgents()</text></g><!--class Client--><g id="elem_Client"><rect codeLine="84" fill="#F1F1F1" height="215.5898" id="Client" rx="2.5" ry="2.5" style="stroke:#181818;stroke-width:0.5;" width="239" x="388" y="542.6211"/><ellipse cx="485.25" cy="558.6211" fill="#ADD1B2" rx="11" ry="11" style="stroke:#181818;stroke-width:1.0;"/><path d="M488.0156,554.4961 Q488.1719,554.2773 488.3594,554.168 Q488.5469,554.0586 488.7656,554.0586 Q489.1406,554.0586 489.375,554.3242 Q489.6094,554.5742 489.6094,555.1836 L489.6094,556.6367 Q489.6094,557.2461 489.375,557.5117 Q489.1406,557.7773 488.7656,557.7773 Q488.4219,557.7773 488.2188,557.5742 Q488.0156,557.3867 487.9063,556.8711 Q487.8594,556.5117 487.6719,556.3242 Q487.3438,555.9492 486.7344,555.7305 Q486.125,555.5117 485.5,555.5117 Q484.7344,555.5117 484.0938,555.8398 Q483.4688,556.168 482.9688,556.918 Q482.4844,557.668 482.4844,558.6992 L482.4844,559.793 Q482.4844,561.0273 483.375,561.8555 Q484.2656,562.668 485.8594,562.668 Q486.7969,562.668 487.4531,562.418 Q487.8438,562.2617 488.2656,561.8242 Q488.5313,561.5586 488.6719,561.4805 Q488.8281,561.4023 489.0313,561.4023 Q489.3594,561.4023 489.6094,561.668 Q489.875,561.918 489.875,562.2617 Q489.875,562.6055 489.5313,563.0117 Q489.0313,563.5898 488.2344,563.918 Q487.1563,564.3711 485.8594,564.3711 Q484.3438,564.3711 483.1406,563.7461 Q482.1563,563.2461 481.4688,562.1836 Q480.7813,561.1055 480.7813,559.8242 L480.7813,558.668 Q480.7813,557.3398 481.3906,556.1992 Q482.0156,555.043 483.1094,554.4336 Q484.2031,553.8086 485.4375,553.8086 Q486.1719,553.8086 486.8125,553.9805 Q487.4688,554.1367 488.0156,554.4961 Z " fill="#000000"/><text fill="#000000" font-family="sans-serif" font-size="14" lengthAdjust="spacing" textLength="36" x="505.75" y="564.418">Client</text><line style="stroke:#181818;stroke-width:0.5;" x1="389" x2="626" y1="574.6211" y2="574.6211"/><text fill="#000000" font-family="sans-serif" font-size="14" lengthAdjust="spacing" textLength="81" x="394" y="593.7285">-String name</text><text fill="#000000" font-family="sans-serif" font-size="14" lengthAdjust="spacing" textLength="128" x="394" y="612.3496">-int passportNumber</text><text fill="#000000" font-family="sans-serif" font-size="14" lengthAdjust="spacing" textLength="141" x="394" y="630.9707">-socialSecurityNumber</text><text fill="#000000" font-family="sans-serif" font-size="14" lengthAdjust="spacing" textLength="79" x="394" y="649.5918">-String email</text><text fill="#000000" font-family="sans-serif" font-size="14" lengthAdjust="spacing" textLength="135" x="394" y="668.2129">-String phoneNumber</text><text fill="#000000" font-family="sans-serif" font-size="14" lengthAdjust="spacing" textLength="71" x="394" y="686.834">-String pwd</text><line style="stroke:#181818;stroke-width:0.5;" x1="389" x2="626" y1="694.3477" y2="694.3477"/><text fill="#000000" font-family="sans-serif" font-size="14" lengthAdjust="spacing" textLength="227" x="394" y="713.4551">+Client(email, name, phoneNumber)</text><text fill="#000000" font-family="sans-serif" font-size="14" lengthAdjust="spacing" textLength="128" x="394" y="732.0762">+getPhoneNumber()</text><text fill="#000000" font-family="sans-serif" font-size="14" lengthAdjust="spacing" textLength="74" x="394" y="750.6973">+getName()</text></g><!--class MessageRepository--><g id="elem_MessageRepository"><rect codeLine="97" fill="#F1F1F1" height="122.4844" id="MessageRepository" rx="2.5" ry="2.5" style="stroke:#181818;stroke-width:0.5;" width="387" x="1293" y="589.6211"/><ellipse cx="1419.75" cy="605.6211" fill="#ADD1B2" rx="11" ry="11" style="stroke:#181818;stroke-width:1.0;"/><path d="M1422.5156,601.4961 Q1422.6719,601.2773 1422.8594,601.168 Q1423.0469,601.0586 1423.2656,601.0586 Q1423.6406,601.0586 1423.875,601.3242 Q1424.1094,601.5742 1424.1094,602.1836 L1424.1094,603.6367 Q1424.1094,604.2461 1423.875,604.5117 Q1423.6406,604.7773 1423.2656,604.7773 Q1422.9219,604.7773 1422.7188,604.5742 Q1422.5156,604.3867 1422.4063,603.8711 Q1422.3594,603.5117 1422.1719,603.3242 Q1421.8438,602.9492 1421.2344,602.7305 Q1420.625,602.5117 1420,602.5117 Q1419.2344,602.5117 1418.5938,602.8398 Q1417.9688,603.168 1417.4688,603.918 Q1416.9844,604.668 1416.9844,605.6992 L1416.9844,606.793 Q1416.9844,608.0273 1417.875,608.8555 Q1418.7656,609.668 1420.3594,609.668 Q1421.2969,609.668 1421.9531,609.418 Q1422.3438,609.2617 1422.7656,608.8242 Q1423.0313,608.5586 1423.1719,608.4805 Q1423.3281,608.4023 1423.5313,608.4023 Q1423.8594,608.4023 1424.1094,608.668 Q1424.375,608.918 1424.375,609.2617 Q1424.375,609.6055 1424.0313,610.0117 Q1423.5313,610.5898 1422.7344,610.918 Q1421.6563,611.3711 1420.3594,611.3711 Q1418.8438,611.3711 1417.6406,610.7461 Q1416.6563,610.2461 1415.9688,609.1836 Q1415.2813,608.1055 1415.2813,606.8242 L1415.2813,605.668 Q1415.2813,604.3398 1415.8906,603.1992 Q1416.5156,602.043 1417.6094,601.4336 Q1418.7031,600.8086 1419.9375,600.8086 Q1420.6719,600.8086 1421.3125,600.9805 Q1421.9688,601.1367 1422.5156,601.4961 Z " fill="#000000"/><text fill="#000000" font-family="sans-serif" font-size="14" lengthAdjust="spacing" textLength="125" x="1440.25" y="611.418">MessageRepository</text><line style="stroke:#181818;stroke-width:0.5;" x1="1294" x2="1679" y1="621.6211" y2="621.6211"/><text fill="#000000" font-family="sans-serif" font-size="14" lengthAdjust="spacing" textLength="168" x="1299" y="640.7285">-List&lt;Message&gt; messages</text><line style="stroke:#181818;stroke-width:0.5;" x1="1294" x2="1679" y1="648.2422" y2="648.2422"/><text fill="#000000" font-family="sans-serif" font-size="14" lengthAdjust="spacing" textLength="375" x="1299" y="667.3496">+create(text, name, phoneNumber, preferredDate, timeSlot)</text><text fill="#000000" font-family="sans-serif" font-size="14" lengthAdjust="spacing" textLength="156" x="1299" y="685.9707">+addMessage(message)</text><text fill="#000000" font-family="sans-serif" font-size="14" lengthAdjust="spacing" textLength="181" x="1299" y="704.5918">+validateMessage(message)</text></g><!--class Message--><g id="elem_Message"><rect codeLine="105" fill="#F1F1F1" height="345.9375" id="Message" rx="2.5" ry="2.5" style="stroke:#181818;stroke-width:0.5;" width="408" x="493.5" y="899.6211"/><ellipse cx="664.75" cy="915.6211" fill="#ADD1B2" rx="11" ry="11" style="stroke:#181818;stroke-width:1.0;"/><path d="M667.5156,911.4961 Q667.6719,911.2773 667.8594,911.168 Q668.0469,911.0586 668.2656,911.0586 Q668.6406,911.0586 668.875,911.3242 Q669.1094,911.5742 669.1094,912.1836 L669.1094,913.6367 Q669.1094,914.2461 668.875,914.5117 Q668.6406,914.7773 668.2656,914.7773 Q667.9219,914.7773 667.7188,914.5742 Q667.5156,914.3867 667.4063,913.8711 Q667.3594,913.5117 667.1719,913.3242 Q666.8438,912.9492 666.2344,912.7305 Q665.625,912.5117 665,912.5117 Q664.2344,912.5117 663.5938,912.8398 Q662.9688,913.168 662.4688,913.918 Q661.9844,914.668 661.9844,915.6992 L661.9844,916.793 Q661.9844,918.0273 662.875,918.8555 Q663.7656,919.668 665.3594,919.668 Q666.2969,919.668 666.9531,919.418 Q667.3438,919.2617 667.7656,918.8242 Q668.0313,918.5586 668.1719,918.4805 Q668.3281,918.4023 668.5313,918.4023 Q668.8594,918.4023 669.1094,918.668 Q669.375,918.918 669.375,919.2617 Q669.375,919.6055 669.0313,920.0117 Q668.5313,920.5898 667.7344,920.918 Q666.6563,921.3711 665.3594,921.3711 Q663.8438,921.3711 662.6406,920.7461 Q661.6563,920.2461 660.9688,919.1836 Q660.2813,918.1055 660.2813,916.8242 L660.2813,915.668 Q660.2813,914.3398 660.8906,913.1992 Q661.5156,912.043 662.6094,911.4336 Q663.7031,910.8086 664.9375,910.8086 Q665.6719,910.8086 666.3125,910.9805 Q666.9688,911.1367 667.5156,911.4961 Z " fill="#000000"/><text fill="#000000" font-family="sans-serif" font-size="14" lengthAdjust="spacing" textLength="57" x="685.25" y="921.418">Message</text><line style="stroke:#181818;stroke-width:0.5;" x1="494.5" x2="900.5" y1="931.6211" y2="931.6211"/><text fill="#000000" font-family="sans-serif" font-size="14" lengthAdjust="spacing" textLength="120" x="499.5" y="950.7285">-Property property;</text><text fill="#000000" font-family="sans-serif" font-size="14" lengthAdjust="spacing" textLength="99" x="499.5" y="969.3496">-String agentID;</text><text fill="#000000" font-family="sans-serif" font-size="14" lengthAdjust="spacing" textLength="72" x="499.5" y="987.9707">-String text;</text><text fill="#000000" font-family="sans-serif" font-size="14" lengthAdjust="spacing" textLength="85" x="499.5" y="1006.5918">-String name;</text><text fill="#000000" font-family="sans-serif" font-size="14" lengthAdjust="spacing" textLength="139" x="499.5" y="1025.2129">-String phoneNumber;</text><text fill="#000000" font-family="sans-serif" font-size="14" lengthAdjust="spacing" textLength="139" x="499.5" y="1043.834">-String preferredDate;</text><text fill="#000000" font-family="sans-serif" font-size="14" lengthAdjust="spacing" textLength="97" x="499.5" y="1062.4551">-int startOfVisit;</text><text fill="#000000" font-family="sans-serif" font-size="14" lengthAdjust="spacing" textLength="93" x="499.5" y="1081.0762">-int endOfVisit;</text><line style="stroke:#181818;stroke-width:0.5;" x1="494.5" x2="900.5" y1="1088.5898" y2="1088.5898"/><text fill="#000000" font-family="sans-serif" font-size="14" lengthAdjust="spacing" textLength="396" x="499.5" y="1107.6973">+Message (text, name, phoneNumber, preferredDate, timeSlot)</text><text fill="#000000" font-family="sans-serif" font-size="14" lengthAdjust="spacing" textLength="67" x="499.5" y="1126.3184">+toString()</text><text fill="#000000" font-family="sans-serif" font-size="14" lengthAdjust="spacing" textLength="52" x="499.5" y="1144.9395">+clone()</text><text fill="#000000" font-family="sans-serif" font-size="14" lengthAdjust="spacing" textLength="88" x="499.5" y="1163.5605">+getAgentID()</text><text fill="#000000" font-family="sans-serif" font-size="14" lengthAdjust="spacing" textLength="128" x="499.5" y="1182.1816">+getPreferredDate()</text><text fill="#000000" font-family="sans-serif" font-size="14" lengthAdjust="spacing" textLength="128" x="499.5" y="1200.8027">+getPhoneNumber()</text><text fill="#000000" font-family="sans-serif" font-size="14" lengthAdjust="spacing" textLength="109" x="499.5" y="1219.4238">+getStartOfVisit()</text><text fill="#000000" font-family="sans-serif" font-size="14" lengthAdjust="spacing" textLength="104" x="499.5" y="1238.0449">+getEndOfVisit()</text></g><!--link LeaveMessageUI to LeaveMessageController--><g id="link_LeaveMessageUI_LeaveMessageController"><path codeLine="125" d="M612.94,163.6211 C622.86,163.6211 632.79,163.6211 642.72,163.6211 " fill="none" id="LeaveMessageUI-to-LeaveMessageController" style="stroke:#181818;stroke-width:1.0;stroke-dasharray:7.0,7.0;"/><polygon fill="#181818" points="647.91,163.6211,638.91,159.6211,642.91,163.6211,638.91,167.6211,647.91,163.6211" style="stroke:#181818;stroke-width:1.0;"/></g><!--link Repositories to Repositories--><g id="link_Repositories_Repositories"><path codeLine="126" d="M1699.76,135.6711 C1720.08,138.9211 1734.5,148.2311 1734.5,163.6211 C1734.5,177.6811 1722.45,186.6811 1704.86,190.6011 " fill="none" id="Repositories-to-Repositories" style="stroke:#181818;stroke-width:1.0;"/><polygon fill="#181818" points="1699.76,191.5711,1709.3462,193.8305,1704.6731,190.6428,1707.8608,185.9696,1699.76,191.5711" style="stroke:#181818;stroke-width:1.0;"/><text fill="#000000" font-family="sans-serif" font-size="13" lengthAdjust="spacing" textLength="49" x="1740.5" y="169.1494">instance</text></g><!--link LeaveMessageController to Repositories--><g id="link_LeaveMessageController_Repositories"><path codeLine="127" d="M1235.02,163.6211 C1324.38,163.6211 1417.1,163.6211 1486.13,163.6211 " fill="none" id="LeaveMessageController-to-Repositories" style="stroke:#181818;stroke-width:1.0;stroke-dasharray:7.0,7.0;"/><polygon fill="#181818" points="1491.48,163.6211,1482.48,159.6211,1486.48,163.6211,1482.48,167.6211,1491.48,163.6211" style="stroke:#181818;stroke-width:1.0;"/><text fill="#000000" font-family="sans-serif" font-size="13" lengthAdjust="spacing" textLength="67" x="1329.75" y="156.6494">repositories</text></g><!--link LeaveMessageController to AuthenticationRepository--><g id="link_LeaveMessageController_AuthenticationRepository"><path codeLine="128" d="M1080.31,280.8711 C1088.97,290.5111 1097.14,300.4711 1104.5,310.6211 C1118.21,329.5211 1129.17,352.9611 1137.13,373.2611 " fill="none" id="LeaveMessageController-to-AuthenticationRepository" style="stroke:#181818;stroke-width:1.0;stroke-dasharray:7.0,7.0;"/><polygon fill="#181818" points="1138.99,378.0711,1139.4764,368.2343,1137.1874,373.4073,1132.0144,371.1184,1138.99,378.0711" style="stroke:#181818;stroke-width:1.0;"/><text fill="#000000" font-family="sans-serif" font-size="13" lengthAdjust="spacing" textLength="143" x="1115.5" y="325.6494">authenticationRepository</text></g><!--link LeaveMessageController to ClientRepository--><g id="link_LeaveMessageController_ClientRepository"><path codeLine="129" d="M647.62,277.1511 C608.37,293.2911 580.17,306.0211 576.5,310.6211 C562.75,327.8811 557.94,351.6911 556.8,372.6511 " fill="none" id="LeaveMessageController-to-ClientRepository" style="stroke:#181818;stroke-width:1.0;stroke-dasharray:7.0,7.0;"/><polygon fill="#181818" points="556.58,377.9211,560.9375,369.0887,556.7804,372.9251,552.944,368.768,556.58,377.9211" style="stroke:#181818;stroke-width:1.0;"/><text fill="#000000" font-family="sans-serif" font-size="13" lengthAdjust="spacing" textLength="93" x="577.5" y="325.6494">clientRepository</text></g><!--link LeaveMessageController to MessageRepository--><g id="link_LeaveMessageController_MessageRepository"><path codeLine="130" d="M1235.2,213.7411 C1314.05,242.4211 1389.56,287.8111 1433.5,359.6211 C1475.52,428.3111 1485.91,522.1011 1487.68,584.1911 " fill="none" id="LeaveMessageController-to-MessageRepository" style="stroke:#181818;stroke-width:1.0;stroke-dasharray:7.0,7.0;"/><polygon fill="#181818" points="1487.81,589.3511,1491.5773,580.2512,1487.6815,584.3527,1483.58,580.4569,1487.81,589.3511" style="stroke:#181818;stroke-width:1.0;"/><text fill="#000000" font-family="sans-serif" font-size="13" lengthAdjust="spacing" textLength="115" x="1477.5" y="426.1494">messageRepository</text></g><!--link LeaveMessageController to AgentRepository--><g id="link_LeaveMessageController_AgentRepository"><path codeLine="131" d="M1235.07,229.9811 C1323.03,252.4011 1419.06,279.7411 1505.5,310.6211 C1554.38,328.0811 1565.79,335.0311 1611.5,359.6211 C1620.57,364.5011 1629.95,369.8711 1639.15,375.3311 " fill="none" id="LeaveMessageController-to-AgentRepository" style="stroke:#181818;stroke-width:1.0;stroke-dasharray:7.0,7.0;"/><polygon fill="#181818" points="1643.65,378.0211,1637.9787,369.969,1639.3588,375.4549,1633.8728,376.8349,1643.65,378.0211" style="stroke:#181818;stroke-width:1.0;"/><text fill="#000000" font-family="sans-serif" font-size="13" lengthAdjust="spacing" textLength="94" x="1553.5" y="325.6494">agentRepository</text></g><!--link LeaveMessageController to PropertyAnnouncementRepository--><g id="link_LeaveMessageController_PropertyAnnouncementRepository"><path codeLine="132" d="M910.23,280.9211 C907.59,290.9611 904.99,300.9711 902.5,310.6211 C896.43,334.2211 889.85,360.7511 884.7,381.7311 " fill="none" id="LeaveMessageController-to-PropertyAnnouncementRepository" style="stroke:#181818;stroke-width:1.0;stroke-dasharray:7.0,7.0;"/><polygon fill="#181818" points="883.5,386.6711,889.5203,378.8765,884.6858,381.8137,881.7485,376.9792,883.5,386.6711" style="stroke:#181818;stroke-width:1.0;"/><text fill="#000000" font-family="sans-serif" font-size="13" lengthAdjust="spacing" textLength="196" x="903.5" y="325.6494">propertyAnnouncementRepository</text></g><!--link LeaveMessageController to EditAndSortLists--><g id="link_LeaveMessageController_EditAndSortLists"><path codeLine="133" d="M647.79,276.2711 C641.66,277.8111 635.56,279.2611 629.5,280.6211 C478.47,314.5711 423.12,245.9111 282.5,310.6211 C259.92,321.0111 239.23,338.0211 221.98,355.5511 " fill="none" id="LeaveMessageController-to-EditAndSortLists" style="stroke:#181818;stroke-width:1.0;stroke-dasharray:7.0,7.0;"/><polygon fill="#181818" points="218.13,359.5311,227.2566,355.829,221.6007,355.9319,221.4978,350.276,218.13,359.5311" style="stroke:#181818;stroke-width:1.0;"/><text fill="#000000" font-family="sans-serif" font-size="13" lengthAdjust="spacing" textLength="96" x="283.5" y="325.6494">editAndSortLists</text></g><!--link Repositories to AuthenticationRepository--><g id="link_Repositories_AuthenticationRepository"><path codeLine="134" d="M1641.89,234.2411 C1657.32,266.7111 1665.24,303.7811 1641.5,329.6211 C1614.79,358.6911 1325.73,349.8011 1287.5,359.6211 C1271.52,363.7311 1255.04,369.5611 1239.33,375.9911 " fill="none" id="Repositories-to-AuthenticationRepository" style="stroke:#181818;stroke-width:1.0;"/><polygon fill="#181818" points="1234.47,378.0011,1244.3158,378.247,1239.0883,376.0851,1241.2502,370.8577,1234.47,378.0011" style="stroke:#181818;stroke-width:1.0;"/><text fill="#000000" font-family="sans-serif" font-size="13" lengthAdjust="spacing" textLength="7" x="1239.9762" y="366.8861">1</text></g><!--link Repositories to ClientRepository--><g id="link_Repositories_ClientRepository"><path codeLine="135" d="M1491.44,203.5111 C1423.96,227.8011 1333.79,258.5511 1252.5,280.6211 C1188.99,297.8611 1170.26,290.8111 1107.5,310.6211 C1087.19,317.0311 1084.14,324.3711 1063.5,329.6211 C920.78,365.9311 877.49,328.7211 733.5,359.6211 C705.56,365.6211 675.9,374.7411 649.14,384.0911 " fill="none" id="Repositories-to-ClientRepository" style="stroke:#181818;stroke-width:1.0;"/><polygon fill="#181818" points="644.18,385.8311,653.9972,386.6201,648.8971,384.173,651.3442,379.0728,644.18,385.8311" style="stroke:#181818;stroke-width:1.0;"/><text fill="#000000" font-family="sans-serif" font-size="13" lengthAdjust="spacing" textLength="7" x="652.0335" y="379.0061">1</text></g><!--link Repositories to MessageRepository--><g id="link_Repositories_MessageRepository"><path codeLine="136" d="M1695.7,234.1411 C1734.57,267.1611 1774.68,310.2411 1795.5,359.6211 C1816.57,409.5811 1823.21,435.0111 1795.5,481.6211 C1768.07,527.7611 1723.03,562.0311 1675.72,587.1311 " fill="none" id="Repositories-to-MessageRepository" style="stroke:#181818;stroke-width:1.0;"/><polygon fill="#181818" points="1671.14,589.5311,1680.9691,588.9078,1675.5714,587.2153,1677.2639,581.8176,1671.14,589.5311" style="stroke:#181818;stroke-width:1.0;"/><text fill="#000000" font-family="sans-serif" font-size="13" lengthAdjust="spacing" textLength="7" x="1685.0843" y="578.5019">1</text></g><!--link Repositories to AgentRepository--><g id="link_Repositories_AgentRepository"><path codeLine="137" d="M1644.35,234.1811 C1659.02,257.6011 1673.99,284.4511 1684.5,310.6211 C1692.46,330.4311 1698.01,353.3711 1701.76,373.0911 " fill="none" id="Repositories-to-AgentRepository" style="stroke:#181818;stroke-width:1.0;"/><polygon fill="#181818" points="1702.67,378.0211,1704.9563,368.4413,1701.7555,373.1054,1697.0913,369.9046,1702.67,378.0211" style="stroke:#181818;stroke-width:1.0;"/><text fill="#000000" font-family="sans-serif" font-size="13" lengthAdjust="spacing" textLength="7" x="1694.183" y="366.9092">1</text></g><!--link Repositories to PropertyAnnouncementRepository--><g id="link_Repositories_PropertyAnnouncementRepository"><path codeLine="138" d="M1491.19,228.8411 C1428.58,264.3411 1346.08,305.9411 1267.5,329.6211 C1160.35,361.9211 1125.66,330.8911 1017.5,359.6211 C993.71,365.9411 968.69,375.4611 946.39,385.0711 " fill="none" id="Repositories-to-PropertyAnnouncementRepository" style="stroke:#181818;stroke-width:1.0;"/><polygon fill="#181818" points="941.68,387.1211,951.5284,387.2154,946.2683,385.1343,948.3495,379.8742,941.68,387.1211" style="stroke:#181818;stroke-width:1.0;"/><text fill="#000000" font-family="sans-serif" font-size="13" lengthAdjust="spacing" textLength="7" x="947.0201" y="375.9466">1</text></g><!--link AuthenticationRepository to UserSession--><g id="link_AuthenticationRepository_UserSession"><path codeLine="139" d="M1270.31,420.6211 C1280.11,420.6211 1289.91,420.6211 1299.71,420.6211 " fill="none" id="AuthenticationRepository-to-UserSession" style="stroke:#181818;stroke-width:1.0;"/><polygon fill="#181818" points="1304.84,420.6211,1295.84,416.6211,1299.84,420.6211,1295.84,424.6211,1304.84,420.6211" style="stroke:#181818;stroke-width:1.0;"/><text fill="#000000" font-family="sans-serif" font-size="13" lengthAdjust="spacing" textLength="5" x="1292.0247" y="416.5105">*</text></g><!--link ClientRepository to Client--><g id="link_ClientRepository_Client"><path codeLine="140" d="M550.02,463.1711 C545.22,484.2111 539.14,510.8711 533.09,537.4111 " fill="none" id="ClientRepository-to-Client" style="stroke:#181818;stroke-width:1.0;"/><polygon fill="#181818" points="531.96,542.3611,537.8661,534.4796,533.0749,537.487,530.0675,532.6958,531.96,542.3611" style="stroke:#181818;stroke-width:1.0;"/><text fill="#000000" font-family="sans-serif" font-size="13" lengthAdjust="spacing" textLength="5" x="528.5041" y="531.2044">*</text></g><!--link MessageRepository to Message--><g id="link_MessageRepository_Message"><path codeLine="141" d="M1373.46,711.8011 C1251.83,776.5411 1055.73,880.9311 906,960.6311 " fill="none" id="MessageRepository-to-Message" style="stroke:#181818;stroke-width:1.0;"/><polygon fill="#181818" points="901.58,962.9811,911.4049,962.295,905.9965,960.6371,907.6545,955.2286,901.58,962.9811" style="stroke:#181818;stroke-width:1.0;"/><text fill="#000000" font-family="sans-serif" font-size="13" lengthAdjust="spacing" textLength="5" x="909.6495" y="955.4015">*</text></g><!--link LeaveMessageController to UserSession--><g id="link_LeaveMessageController_UserSession"><path codeLine="142" d="M1223.17,280.7511 C1238.58,290.1611 1253.48,300.1211 1267.5,310.6211 C1290.93,328.1611 1312.46,352.6011 1328.9,373.9011 " fill="none" id="LeaveMessageController-to-UserSession" style="stroke:#181818;stroke-width:1.0;stroke-dasharray:7.0,7.0;"/><polygon fill="#181818" points="1332.12,378.1111,1329.8432,368.529,1329.0881,374.1352,1323.4818,373.3801,1332.12,378.1111" style="stroke:#181818;stroke-width:1.0;"/><text fill="#000000" font-family="sans-serif" font-size="13" lengthAdjust="spacing" textLength="72" x="1288.5" y="325.6494">userSession</text><text fill="#000000" font-family="sans-serif" font-size="13" lengthAdjust="spacing" textLength="7" x="1320.0391" y="367.0136">1</text></g><!--link LeaveMessageController to Client--><g id="link_LeaveMessageController_Client"><path codeLine="143" d="M647.64,274.5111 C531.73,318.0211 425.49,358.1911 424.5,359.6211 C388.14,412.2011 405.32,480.5711 433.26,537.7211 " fill="none" id="LeaveMessageController-to-Client" style="stroke:#181818;stroke-width:1.0;stroke-dasharray:7.0,7.0;"/><polygon fill="#181818" points="435.64,542.5111,435.2306,532.6707,433.4211,538.0304,428.0615,536.2209,435.64,542.5111" style="stroke:#181818;stroke-width:1.0;"/><text fill="#000000" font-family="sans-serif" font-size="13" lengthAdjust="spacing" textLength="31" x="425.5" y="426.1494">client</text><text fill="#000000" font-family="sans-serif" font-size="13" lengthAdjust="spacing" textLength="7" x="423.3413" y="531.3649">1</text></g><!--link LeaveMessageController to Message--><g id="link_LeaveMessageController_Message"><path codeLine="144" d="M763.53,280.9311 C726.01,319.2511 697.5,366.0111 697.5,419.6211 C697.5,419.6211 697.5,419.6211 697.5,830.1211 C697.5,850.8911 697.5,872.6611 697.5,894.2711 " fill="none" id="LeaveMessageController-to-Message" style="stroke:#181818;stroke-width:1.0;stroke-dasharray:7.0,7.0;"/><polygon fill="#181818" points="697.5,899.4611,701.5,890.4611,697.5,894.4611,693.5,890.4611,697.5,899.4611" style="stroke:#181818;stroke-width:1.0;"/><text fill="#000000" font-family="sans-serif" font-size="13" lengthAdjust="spacing" textLength="53" x="698.5" y="656.1494">message</text><text fill="#000000" font-family="sans-serif" font-size="13" lengthAdjust="spacing" textLength="5" x="692.3867" y="888.266">*</text></g><!--link Client to Message--><g id="link_Client_Message"><path codeLine="145" d="M555.94,758.6911 C574.64,800.0411 596.55,848.4711 617.47,894.7111 " fill="none" id="Client-to-Message" style="stroke:#181818;stroke-width:1.0;"/><polygon fill="#181818" points="619.62,899.4611,619.5629,889.6124,617.5628,894.9039,612.2713,892.9039,619.62,899.4611" style="stroke:#181818;stroke-width:1.0;"/><text fill="#000000" font-family="sans-serif" font-size="13" lengthAdjust="spacing" textLength="35" x="593.5" y="834.6494">sends</text><text fill="#000000" font-family="sans-serif" font-size="13" lengthAdjust="spacing" textLength="5" x="610.9778" y="888.266">*</text></g><!--SRC=[dLTRRzCm57xthx3sLA11un6AAfLjY4e39h8XtYOlEKsjfNQmdOqmxRzpdDY9Sok8lJJvpkqx5nzd-fwBWYbse0LBxba6iQboe0eImqIM0z6jWjwpL3voaT4TotKeINAczSOOnUzA0zj4YfZ_1dfAYE46lTt4fwTlwIMm1slDw06qnb0qecVMafvpbg4VWd-rgreLFZTQDzid4hbdRqcYIwxD-oib2r2cMjF2FLaOXO7vcHH6oJm7HPFsaTpUtf9NgXIB5_W3FqlGvbf-vveRYsWGgJE_bfiCH8q-AcwyrrfhBn-lWhWMO_f-SoTByv7d1fHUE5uSz9Bg11KAnONfMONKNv3dgH9qEJmrp6Ua2rQQFRBb2JDSYczGICn8gcg9BU8e215NoWv2TlG15DzLFacdOWKQSXm9Jxn7Uabn3ahyQOotziMQkBgUCyC6IRwY6PWBaNxTrIMd2ssOclNZQtfT5V1r5xCSncKTA0rvJYWsRUtBbvHPr9FKKfcmHQXbuKG1wmR1m2-aBDW1bhJOIm5VoiCTA7nHi0Eb8CK2eCpm0yIv35jyaNAp4MdimcZVN2pELHjnkxlUGxLHSCb4Ec0ohRZ1GsaEGNPXrIVqFybImt7T3zMFNhrSt-jgNHmOpuEise52koQZg8SjdFUjmAwB18yIVTTJQCIRcL7svcU3WVRuv-5OBm9kVYusGiWIOnzwBfv6QuK5UhhEvRdTKNC4qOiLVMG9Iu7sJsG3Tcq-At50XBdHe6BaZHeXsm16fnIxf3fJAzoceVgm8ZwT1b-x5Q23w3NmeQexk8117-k6ZxtLyBffVU2hXlMO3aMx62y6tFlsZ908rnzUDLeNEFNDKI6HbWbdUGn9YIksygWpgtcrRy4Hwx37r15fOZQfJ1nAFzSTugVc2wg6v4TJvDDtWhLVdxu4pLBuZss06obD9nRk0yjv6koPLZJaYCpymBRNuAgjJTsdxNa7M8QhNazMKyKDm93vgcbWlQ_TzdOGjEjyvKhYx-p_AegHJNZRe2H76_lWvsnxxjwkGWSUwtSNaJXWww3kyccwtl_WeA_NCpSi2HSLZTQznOLxZBkbHcO-GLwFB5Iu-UQiq6nktQ2BkLl_cBlXia0tmq-4UNEq7nqGT33weZYQJpQCpx9_3B_-onv7NyLHXMEkXvSoEeC1D1W2d8AJDoUp3PhM7jP_McjKvPdGsJ_uEbupCZjVrlpbINWPaT7mH4wf4P3nS4HUmucETS2I3Q9X0yeWzbyCtQtZf_ceUaUd6rwN6ntmHGNxJu4cv0y0]--></g></svg>