<?xml version="1.0" encoding="us-ascii" standalone="no"?><svg xmlns="http://www.w3.org/2000/svg" xmlns:xlink="http://www.w3.org/1999/xlink" contentStyleType="text/css" height="386px" preserveAspectRatio="none" style="width:852px;height:386px;background:#FFFFFF;" version="1.1" viewBox="0 0 852 386" width="852px" zoomAndPan="magnify"><defs/><g><text fill="#000000" font-family="sans-serif" font-size="14" font-weight="bold" lengthAdjust="spacing" textLength="279" x="288.25" y="30.1074">User Story 003 - Sequence Diagram (SD)</text><rect fill="#FFFFFF" height="23.291" style="stroke:#181818;stroke-width:1.0;" width="10" x="67.5" y="133.2422"/><rect fill="#FFFFFF" height="160.7461" style="stroke:#181818;stroke-width:1.0;" width="10" x="237.5" y="133.2422"/><line style="stroke:#181818;stroke-width:0.5;stroke-dasharray:5.0,5.0;" x1="72" x2="72" y1="123.2422" y2="302.9883"/><line style="stroke:#181818;stroke-width:0.5;stroke-dasharray:5.0,5.0;" x1="242" x2="242" y1="123.2422" y2="302.9883"/><line style="stroke:#181818;stroke-width:0.5;stroke-dasharray:5.0,5.0;" x1="587.5" x2="587.5" y1="123.2422" y2="302.9883"/><line style="stroke:#181818;stroke-width:0.5;stroke-dasharray:5.0,5.0;" x1="720.5" x2="720.5" y1="123.2422" y2="302.9883"/><line style="stroke:#181818;stroke-width:0.5;stroke-dasharray:5.0,5.0;" x1="815.5" x2="815.5" y1="123.2422" y2="302.9883"/><rect fill="#E3E3E3" height="32.6211" rx="2.5" ry="2.5" style="stroke:#181818;stroke-width:0.5;" width="135" x="5" y="89.6211"/><text fill="#000000" font-family="sans-serif" font-size="14" lengthAdjust="spacing" textLength="121" x="12" y="111.7285">:CreateEmployeeUI</text><rect fill="#E3E3E3" height="32.6211" rx="2.5" ry="2.5" style="stroke:#181818;stroke-width:0.5;" width="135" x="5" y="301.9883"/><text fill="#000000" font-family="sans-serif" font-size="14" lengthAdjust="spacing" textLength="121" x="12" y="324.0957">:CreateEmployeeUI</text><rect fill="#E3E3E3" height="32.6211" rx="2.5" ry="2.5" style="stroke:#181818;stroke-width:0.5;" width="185" x="150" y="89.6211"/><text fill="#000000" font-family="sans-serif" font-size="14" lengthAdjust="spacing" textLength="171" x="157" y="111.7285">:CreateEmployeeController</text><rect fill="#E3E3E3" height="32.6211" rx="2.5" ry="2.5" style="stroke:#181818;stroke-width:0.5;" width="185" x="150" y="301.9883"/><text fill="#000000" font-family="sans-serif" font-size="14" lengthAdjust="spacing" textLength="171" x="157" y="324.0957">:CreateEmployeeController</text><rect fill="#E3E3E3" height="32.6211" rx="2.5" ry="2.5" style="stroke:#181818;stroke-width:0.5;" width="148" x="513.5" y="89.6211"/><text fill="#000000" font-family="sans-serif" font-size="14" lengthAdjust="spacing" textLength="134" x="520.5" y="111.7285">:EmployeeRepository</text><rect fill="#E3E3E3" height="32.6211" rx="2.5" ry="2.5" style="stroke:#181818;stroke-width:0.5;" width="148" x="513.5" y="301.9883"/><text fill="#000000" font-family="sans-serif" font-size="14" lengthAdjust="spacing" textLength="134" x="520.5" y="324.0957">:EmployeeRepository</text><rect fill="#E3E3E3" height="32.6211" rx="2.5" ry="2.5" style="stroke:#181818;stroke-width:0.5;" width="98" x="671.5" y="89.6211"/><text fill="#000000" font-family="sans-serif" font-size="14" lengthAdjust="spacing" textLength="84" x="678.5" y="111.7285">:Organization</text><rect fill="#E3E3E3" height="32.6211" rx="2.5" ry="2.5" style="stroke:#181818;stroke-width:0.5;" width="98" x="671.5" y="301.9883"/><text fill="#000000" font-family="sans-serif" font-size="14" lengthAdjust="spacing" textLength="84" x="678.5" y="324.0957">:Organization</text><text fill="#000000" font-family="sans-serif" font-size="14" lengthAdjust="spacing" textLength="66" x="779.5" y="119.7285">:Employee</text><ellipse cx="815.5" cy="53.1211" fill="#E3E3E3" rx="8" ry="8" style="stroke:#181818;stroke-width:0.5;"/><path d="M815.5,61.1211 L815.5,88.1211 M802.5,69.1211 L828.5,69.1211 M815.5,88.1211 L802.5,103.1211 M815.5,88.1211 L828.5,103.1211 " fill="none" style="stroke:#181818;stroke-width:0.5;"/><text fill="#000000" font-family="sans-serif" font-size="14" lengthAdjust="spacing" textLength="66" x="779.5" y="317.0957">:Employee</text><ellipse cx="815.5" cy="329.1094" fill="#E3E3E3" rx="8" ry="8" style="stroke:#181818;stroke-width:0.5;"/><path d="M815.5,337.1094 L815.5,364.1094 M802.5,345.1094 L828.5,345.1094 M815.5,364.1094 L802.5,379.1094 M815.5,364.1094 L828.5,379.1094 " fill="none" style="stroke:#181818;stroke-width:0.5;"/><rect fill="#FFFFFF" height="23.291" style="stroke:#181818;stroke-width:1.0;" width="10" x="67.5" y="133.2422"/><rect fill="#FFFFFF" height="160.7461" style="stroke:#181818;stroke-width:1.0;" width="10" x="237.5" y="133.2422"/><polygon fill="#181818" points="225.5,152.5332,235.5,156.5332,225.5,160.5332,229.5,156.5332" style="stroke:#181818;stroke-width:1.0;"/><line style="stroke:#181818;stroke-width:1.0;" x1="72.5" x2="231.5" y1="156.5332" y2="156.5332"/><text fill="#000000" font-family="sans-serif" font-size="13" font-weight="bold" lengthAdjust="spacing" textLength="7" x="79.5" y="151.2705">1</text><text fill="#000000" font-family="sans-serif" font-size="13" lengthAdjust="spacing" textLength="119" x="90.5" y="151.2705">generatePassword();</text><polygon fill="#181818" points="575.5,201.1152,585.5,205.1152,575.5,209.1152,579.5,205.1152" style="stroke:#181818;stroke-width:1.0;"/><line style="stroke:#181818;stroke-width:1.0;" x1="247.5" x2="581.5" y1="205.1152" y2="205.1152"/><text fill="#000000" font-family="sans-serif" font-size="13" font-weight="bold" lengthAdjust="spacing" textLength="7" x="254.5" y="191.207">2</text><text fill="#000000" font-family="sans-serif" font-size="13" lengthAdjust="spacing" textLength="301" x="265.5" y="182.5615">createEmployee(role, name, ccNumber, taxNumber,</text><text fill="#000000" font-family="sans-serif" font-size="13" lengthAdjust="spacing" textLength="240" x="265.5" y="199.8525">address, email, phoneNumber, password)</text><polygon fill="#181818" points="708.5,249.6973,718.5,253.6973,708.5,257.6973,712.5,253.6973" style="stroke:#181818;stroke-width:1.0;"/><line style="stroke:#181818;stroke-width:1.0;" x1="247.5" x2="714.5" y1="253.6973" y2="253.6973"/><text fill="#000000" font-family="sans-serif" font-size="13" font-weight="bold" lengthAdjust="spacing" textLength="7" x="254.5" y="239.7891">3</text><text fill="#000000" font-family="sans-serif" font-size="13" lengthAdjust="spacing" textLength="301" x="265.5" y="231.1436">createEmployee(role, name, ccNumber, taxNumber,</text><text fill="#000000" font-family="sans-serif" font-size="13" lengthAdjust="spacing" textLength="240" x="265.5" y="248.4346">address, email, phoneNumber, password)</text><polygon fill="#181818" points="803.5,280.9883,813.5,284.9883,803.5,288.9883,807.5,284.9883" style="stroke:#181818;stroke-width:1.0;"/><line style="stroke:#181818;stroke-width:1.0;" x1="247.5" x2="809.5" y1="284.9883" y2="284.9883"/><text fill="#000000" font-family="sans-serif" font-size="13" font-weight="bold" lengthAdjust="spacing" textLength="7" x="254.5" y="279.7256">4</text><text fill="#000000" font-family="sans-serif" font-size="13" lengthAdjust="spacing" textLength="187" x="265.5" y="279.7256">sendPassword(email, password)</text><!--SRC=[lP0nRm8n38Nt_0gB2QH3Gkf6fIxG0QcY5GTR5pVd7X69apgvKlhh6muEhWmTkqHn_3txvSMTuO223fndhxVY7K6IXbIyT0Bg7TPKfeCb4D89kRPz86wnydl3DRoZZQHKCYcZcqW2PV9oWCda3iPGqaT3h0dc1kkZS5ZEHqfXapmtxer4gJmm6Mq2SeB1T2Q4YHvTiFv0j5aC02FCLklDuazmvZc9jvRa95YkLqytWWvTKV3H73sswBMyuP-bHZRVc8pdbkm_ADHPqflQ4bsXrB5lFhF1i_TUtLfJxJEC7qurJA4c9id02yQuzr8DH_TALNGxvuHdtTNt5FIlB8Ov22g0qULJwsMRSm49lxhhAsDL2SLO03aqje2mzKnTEvmjZ7hh-f__buNTy1nD9AukiNJwY-G7]--></g></svg>