<?xml version="1.0" encoding="us-ascii" standalone="no"?><svg xmlns="http://www.w3.org/2000/svg" xmlns:xlink="http://www.w3.org/1999/xlink" contentStyleType="text/css" height="1422px" preserveAspectRatio="none" style="width:1112px;height:1422px;background:#FFFFFF;" version="1.1" viewBox="0 0 1112 1422" width="1112px" zoomAndPan="magnify"><defs/><g><text fill="#000000" font-family="sans-serif" font-size="14" font-weight="bold" lengthAdjust="spacing" textLength="337" x="380.75" y="25.1074">US003 Register a New Employee - Class Diagram</text><!--class Employee--><g id="elem_Employee"><rect codeLine="6" fill="#F1F1F1" height="215.5898" id="Employee" rx="2.5" ry="2.5" style="stroke:#181818;stroke-width:0.5;" width="118" x="492.5" y="1199.6211"/><ellipse cx="518.3" cy="1215.6211" fill="#ADD1B2" rx="11" ry="11" style="stroke:#181818;stroke-width:1.0;"/><path d="M521.0656,1211.4961 Q521.2219,1211.2773 521.4094,1211.168 Q521.5969,1211.0586 521.8156,1211.0586 Q522.1906,1211.0586 522.425,1211.3242 Q522.6594,1211.5742 522.6594,1212.1836 L522.6594,1213.6367 Q522.6594,1214.2461 522.425,1214.5117 Q522.1906,1214.7773 521.8156,1214.7773 Q521.4719,1214.7773 521.2688,1214.5742 Q521.0656,1214.3867 520.9563,1213.8711 Q520.9094,1213.5117 520.7219,1213.3242 Q520.3938,1212.9492 519.7844,1212.7305 Q519.175,1212.5117 518.55,1212.5117 Q517.7844,1212.5117 517.1438,1212.8398 Q516.5188,1213.168 516.0188,1213.918 Q515.5344,1214.668 515.5344,1215.6992 L515.5344,1216.793 Q515.5344,1218.0273 516.425,1218.8555 Q517.3156,1219.668 518.9094,1219.668 Q519.8469,1219.668 520.5031,1219.418 Q520.8938,1219.2617 521.3156,1218.8242 Q521.5813,1218.5586 521.7219,1218.4805 Q521.8781,1218.4023 522.0813,1218.4023 Q522.4094,1218.4023 522.6594,1218.668 Q522.925,1218.918 522.925,1219.2617 Q522.925,1219.6055 522.5813,1220.0117 Q522.0813,1220.5898 521.2844,1220.918 Q520.2063,1221.3711 518.9094,1221.3711 Q517.3938,1221.3711 516.1906,1220.7461 Q515.2063,1220.2461 514.5188,1219.1836 Q513.8313,1218.1055 513.8313,1216.8242 L513.8313,1215.668 Q513.8313,1214.3398 514.4406,1213.1992 Q515.0656,1212.043 516.1594,1211.4336 Q517.2531,1210.8086 518.4875,1210.8086 Q519.2219,1210.8086 519.8625,1210.9805 Q520.5188,1211.1367 521.0656,1211.4961 Z " fill="#000000"/><text fill="#000000" font-family="sans-serif" font-size="14" lengthAdjust="spacing" textLength="62" x="534.7" y="1221.418">Employee</text><line style="stroke:#181818;stroke-width:0.5;" x1="493.5" x2="609.5" y1="1231.6211" y2="1231.6211"/><text fill="#000000" font-family="sans-serif" font-size="14" lengthAdjust="spacing" textLength="81" x="498.5" y="1250.7285">-String name</text><text fill="#000000" font-family="sans-serif" font-size="14" lengthAdjust="spacing" textLength="70" x="498.5" y="1269.3496">-String role</text><text fill="#000000" font-family="sans-serif" font-size="14" lengthAdjust="spacing" textLength="87" x="498.5" y="1287.9707">-int ccNumber</text><text fill="#000000" font-family="sans-serif" font-size="14" lengthAdjust="spacing" textLength="91" x="498.5" y="1306.5918">-int taxNumber</text><text fill="#000000" font-family="sans-serif" font-size="14" lengthAdjust="spacing" textLength="97" x="498.5" y="1325.2129">-String address</text><text fill="#000000" font-family="sans-serif" font-size="14" lengthAdjust="spacing" textLength="79" x="498.5" y="1343.834">-String email</text><text fill="#000000" font-family="sans-serif" font-size="14" lengthAdjust="spacing" textLength="86" x="498.5" y="1362.4551">-String phone</text><text fill="#000000" font-family="sans-serif" font-size="14" lengthAdjust="spacing" textLength="92" x="498.5" y="1381.0762">-String agency</text><text fill="#000000" font-family="sans-serif" font-size="14" lengthAdjust="spacing" textLength="106" x="498.5" y="1399.6973">-String password</text><line style="stroke:#181818;stroke-width:0.5;" x1="493.5" x2="609.5" y1="1407.2109" y2="1407.2109"/></g><!--class SystemAdministrator--><g id="elem_SystemAdministrator"><rect codeLine="19" fill="#F1F1F1" height="215.5898" id="SystemAdministrator" rx="2.5" ry="2.5" style="stroke:#181818;stroke-width:0.5;" width="161" x="525" y="46.6211"/><ellipse cx="540" cy="62.6211" fill="#ADD1B2" rx="11" ry="11" style="stroke:#181818;stroke-width:1.0;"/><path d="M542.7656,58.4961 Q542.9219,58.2773 543.1094,58.168 Q543.2969,58.0586 543.5156,58.0586 Q543.8906,58.0586 544.125,58.3242 Q544.3594,58.5742 544.3594,59.1836 L544.3594,60.6367 Q544.3594,61.2461 544.125,61.5117 Q543.8906,61.7773 543.5156,61.7773 Q543.1719,61.7773 542.9688,61.5742 Q542.7656,61.3867 542.6563,60.8711 Q542.6094,60.5117 542.4219,60.3242 Q542.0938,59.9492 541.4844,59.7305 Q540.875,59.5117 540.25,59.5117 Q539.4844,59.5117 538.8438,59.8398 Q538.2188,60.168 537.7188,60.918 Q537.2344,61.668 537.2344,62.6992 L537.2344,63.793 Q537.2344,65.0273 538.125,65.8555 Q539.0156,66.668 540.6094,66.668 Q541.5469,66.668 542.2031,66.418 Q542.5938,66.2617 543.0156,65.8242 Q543.2813,65.5586 543.4219,65.4805 Q543.5781,65.4023 543.7813,65.4023 Q544.1094,65.4023 544.3594,65.668 Q544.625,65.918 544.625,66.2617 Q544.625,66.6055 544.2813,67.0117 Q543.7813,67.5898 542.9844,67.918 Q541.9063,68.3711 540.6094,68.3711 Q539.0938,68.3711 537.8906,67.7461 Q536.9063,67.2461 536.2188,66.1836 Q535.5313,65.1055 535.5313,63.8242 L535.5313,62.668 Q535.5313,61.3398 536.1406,60.1992 Q536.7656,59.043 537.8594,58.4336 Q538.9531,57.8086 540.1875,57.8086 Q540.9219,57.8086 541.5625,57.9805 Q542.2188,58.1367 542.7656,58.4961 Z " fill="#000000"/><text fill="#000000" font-family="sans-serif" font-size="14" lengthAdjust="spacing" textLength="129" x="554" y="68.418">SystemAdministrator</text><line style="stroke:#181818;stroke-width:0.5;" x1="526" x2="685" y1="78.6211" y2="78.6211"/><text fill="#000000" font-family="sans-serif" font-size="14" lengthAdjust="spacing" textLength="81" x="531" y="97.7285">-String name</text><text fill="#000000" font-family="sans-serif" font-size="14" lengthAdjust="spacing" textLength="70" x="531" y="116.3496">-String role</text><text fill="#000000" font-family="sans-serif" font-size="14" lengthAdjust="spacing" textLength="87" x="531" y="134.9707">-int ccNumber</text><text fill="#000000" font-family="sans-serif" font-size="14" lengthAdjust="spacing" textLength="91" x="531" y="153.5918">-int taxNumber</text><text fill="#000000" font-family="sans-serif" font-size="14" lengthAdjust="spacing" textLength="97" x="531" y="172.2129">-String address</text><text fill="#000000" font-family="sans-serif" font-size="14" lengthAdjust="spacing" textLength="79" x="531" y="190.834">-String email</text><text fill="#000000" font-family="sans-serif" font-size="14" lengthAdjust="spacing" textLength="86" x="531" y="209.4551">-String phone</text><text fill="#000000" font-family="sans-serif" font-size="14" lengthAdjust="spacing" textLength="92" x="531" y="228.0762">-String agency</text><text fill="#000000" font-family="sans-serif" font-size="14" lengthAdjust="spacing" textLength="106" x="531" y="246.6973">-String password</text><line style="stroke:#181818;stroke-width:0.5;" x1="526" x2="685" y1="254.2109" y2="254.2109"/></g><!--class EmployeeRepository--><g id="elem_EmployeeRepository"><rect codeLine="32" fill="#F1F1F1" height="103.8633" id="EmployeeRepository" rx="2.5" ry="2.5" style="stroke:#181818;stroke-width:0.5;" width="189" x="457" y="777.6211"/><ellipse cx="484.15" cy="793.6211" fill="#ADD1B2" rx="11" ry="11" style="stroke:#181818;stroke-width:1.0;"/><path d="M486.9156,789.4961 Q487.0719,789.2773 487.2594,789.168 Q487.4469,789.0586 487.6656,789.0586 Q488.0406,789.0586 488.275,789.3242 Q488.5094,789.5742 488.5094,790.1836 L488.5094,791.6367 Q488.5094,792.2461 488.275,792.5117 Q488.0406,792.7773 487.6656,792.7773 Q487.3219,792.7773 487.1188,792.5742 Q486.9156,792.3867 486.8063,791.8711 Q486.7594,791.5117 486.5719,791.3242 Q486.2438,790.9492 485.6344,790.7305 Q485.025,790.5117 484.4,790.5117 Q483.6344,790.5117 482.9938,790.8398 Q482.3688,791.168 481.8688,791.918 Q481.3844,792.668 481.3844,793.6992 L481.3844,794.793 Q481.3844,796.0273 482.275,796.8555 Q483.1656,797.668 484.7594,797.668 Q485.6969,797.668 486.3531,797.418 Q486.7438,797.2617 487.1656,796.8242 Q487.4313,796.5586 487.5719,796.4805 Q487.7281,796.4023 487.9313,796.4023 Q488.2594,796.4023 488.5094,796.668 Q488.775,796.918 488.775,797.2617 Q488.775,797.6055 488.4313,798.0117 Q487.9313,798.5898 487.1344,798.918 Q486.0563,799.3711 484.7594,799.3711 Q483.2438,799.3711 482.0406,798.7461 Q481.0563,798.2461 480.3688,797.1836 Q479.6813,796.1055 479.6813,794.8242 L479.6813,793.668 Q479.6813,792.3398 480.2906,791.1992 Q480.9156,790.043 482.0094,789.4336 Q483.1031,788.8086 484.3375,788.8086 Q485.0719,788.8086 485.7125,788.9805 Q486.3688,789.1367 486.9156,789.4961 Z " fill="#000000"/><text fill="#000000" font-family="sans-serif" font-size="14" lengthAdjust="spacing" textLength="130" x="500.85" y="799.418">EmployeeRepository</text><line style="stroke:#181818;stroke-width:0.5;" x1="458" x2="645" y1="809.6211" y2="809.6211"/><text fill="#000000" font-family="sans-serif" font-size="14" lengthAdjust="spacing" textLength="177" x="463" y="828.7285">-List&lt;Employee&gt; employees</text><line style="stroke:#181818;stroke-width:0.5;" x1="458" x2="645" y1="836.2422" y2="836.2422"/><text fill="#000000" font-family="sans-serif" font-size="14" lengthAdjust="spacing" textLength="42" x="463" y="855.3496">+add()</text><text fill="#000000" font-family="sans-serif" font-size="14" lengthAdjust="spacing" textLength="107" x="463" y="873.9707">+getEmployees()</text></g><!--class CreateEmployeeUI--><g id="elem_CreateEmployeeUI"><rect codeLine="39" fill="#F1F1F1" height="141.1055" id="CreateEmployeeUI" rx="2.5" ry="2.5" style="stroke:#181818;stroke-width:0.5;" width="247" x="17" y="407.6211"/><ellipse cx="77.75" cy="423.6211" fill="#ADD1B2" rx="11" ry="11" style="stroke:#181818;stroke-width:1.0;"/><path d="M80.5156,419.4961 Q80.6719,419.2773 80.8594,419.168 Q81.0469,419.0586 81.2656,419.0586 Q81.6406,419.0586 81.875,419.3242 Q82.1094,419.5742 82.1094,420.1836 L82.1094,421.6367 Q82.1094,422.2461 81.875,422.5117 Q81.6406,422.7773 81.2656,422.7773 Q80.9219,422.7773 80.7188,422.5742 Q80.5156,422.3867 80.4063,421.8711 Q80.3594,421.5117 80.1719,421.3242 Q79.8438,420.9492 79.2344,420.7305 Q78.625,420.5117 78,420.5117 Q77.2344,420.5117 76.5938,420.8398 Q75.9688,421.168 75.4688,421.918 Q74.9844,422.668 74.9844,423.6992 L74.9844,424.793 Q74.9844,426.0273 75.875,426.8555 Q76.7656,427.668 78.3594,427.668 Q79.2969,427.668 79.9531,427.418 Q80.3438,427.2617 80.7656,426.8242 Q81.0313,426.5586 81.1719,426.4805 Q81.3281,426.4023 81.5313,426.4023 Q81.8594,426.4023 82.1094,426.668 Q82.375,426.918 82.375,427.2617 Q82.375,427.6055 82.0313,428.0117 Q81.5313,428.5898 80.7344,428.918 Q79.6563,429.3711 78.3594,429.3711 Q76.8438,429.3711 75.6406,428.7461 Q74.6563,428.2461 73.9688,427.1836 Q73.2813,426.1055 73.2813,424.8242 L73.2813,423.668 Q73.2813,422.3398 73.8906,421.1992 Q74.5156,420.043 75.6094,419.4336 Q76.7031,418.8086 77.9375,418.8086 Q78.6719,418.8086 79.3125,418.9805 Q79.9688,419.1367 80.5156,419.4961 Z " fill="#000000"/><text fill="#000000" font-family="sans-serif" font-size="14" lengthAdjust="spacing" textLength="117" x="98.25" y="429.418">CreateEmployeeUI</text><line style="stroke:#181818;stroke-width:0.5;" x1="18" x2="263" y1="439.6211" y2="439.6211"/><text fill="#000000" font-family="sans-serif" font-size="14" lengthAdjust="spacing" textLength="132" x="23" y="458.7285">-Employee employee</text><text fill="#000000" font-family="sans-serif" font-size="14" lengthAdjust="spacing" textLength="235" x="23" y="477.3496">-CreateEmployeeController controller</text><line style="stroke:#181818;stroke-width:0.5;" x1="18" x2="263" y1="484.8633" y2="484.8633"/><text fill="#000000" font-family="sans-serif" font-size="14" lengthAdjust="spacing" textLength="39" x="23" y="503.9707">+run()</text><text fill="#000000" font-family="sans-serif" font-size="14" lengthAdjust="spacing" textLength="154" x="23" y="522.5918">+registerNewEmployee()</text><text fill="#000000" font-family="sans-serif" font-size="14" lengthAdjust="spacing" textLength="150" x="23" y="541.2129">+submitData(employee)</text></g><!--class CreateEmployeeController--><g id="elem_CreateEmployeeController"><rect codeLine="48" fill="#F1F1F1" height="308.6953" id="CreateEmployeeController" rx="2.5" ry="2.5" style="stroke:#181818;stroke-width:0.5;" width="338" x="299.5" y="323.6211"/><ellipse cx="380.75" cy="339.6211" fill="#ADD1B2" rx="11" ry="11" style="stroke:#181818;stroke-width:1.0;"/><path d="M383.5156,335.4961 Q383.6719,335.2773 383.8594,335.168 Q384.0469,335.0586 384.2656,335.0586 Q384.6406,335.0586 384.875,335.3242 Q385.1094,335.5742 385.1094,336.1836 L385.1094,337.6367 Q385.1094,338.2461 384.875,338.5117 Q384.6406,338.7773 384.2656,338.7773 Q383.9219,338.7773 383.7188,338.5742 Q383.5156,338.3867 383.4063,337.8711 Q383.3594,337.5117 383.1719,337.3242 Q382.8438,336.9492 382.2344,336.7305 Q381.625,336.5117 381,336.5117 Q380.2344,336.5117 379.5938,336.8398 Q378.9688,337.168 378.4688,337.918 Q377.9844,338.668 377.9844,339.6992 L377.9844,340.793 Q377.9844,342.0273 378.875,342.8555 Q379.7656,343.668 381.3594,343.668 Q382.2969,343.668 382.9531,343.418 Q383.3438,343.2617 383.7656,342.8242 Q384.0313,342.5586 384.1719,342.4805 Q384.3281,342.4023 384.5313,342.4023 Q384.8594,342.4023 385.1094,342.668 Q385.375,342.918 385.375,343.2617 Q385.375,343.6055 385.0313,344.0117 Q384.5313,344.5898 383.7344,344.918 Q382.6563,345.3711 381.3594,345.3711 Q379.8438,345.3711 378.6406,344.7461 Q377.6563,344.2461 376.9688,343.1836 Q376.2813,342.1055 376.2813,340.8242 L376.2813,339.668 Q376.2813,338.3398 376.8906,337.1992 Q377.5156,336.043 378.6094,335.4336 Q379.7031,334.8086 380.9375,334.8086 Q381.6719,334.8086 382.3125,334.9805 Q382.9688,335.1367 383.5156,335.4961 Z " fill="#000000"/><text fill="#000000" font-family="sans-serif" font-size="14" lengthAdjust="spacing" textLength="167" x="401.25" y="345.418">CreateEmployeeController</text><line style="stroke:#181818;stroke-width:0.5;" x1="300.5" x2="636.5" y1="355.6211" y2="355.6211"/><text fill="#000000" font-family="sans-serif" font-size="14" lengthAdjust="spacing" textLength="268" x="305.5" y="374.7285">-EmployeeRepository employeeRepository</text><text fill="#000000" font-family="sans-serif" font-size="14" lengthAdjust="spacing" textLength="324" x="305.5" y="393.3496">-AuthenticationRepository authenticationRepository</text><text fill="#000000" font-family="sans-serif" font-size="14" lengthAdjust="spacing" textLength="211" x="305.5" y="411.9707">-StoreRepository storeRepository</text><line style="stroke:#181818;stroke-width:0.5;" x1="300.5" x2="636.5" y1="419.4844" y2="419.4844"/><text fill="#000000" font-family="sans-serif" font-size="14" lengthAdjust="spacing" textLength="96" x="305.5" y="438.5918">+requestData()</text><text fill="#000000" font-family="sans-serif" font-size="14" lengthAdjust="spacing" textLength="72" x="305.5" y="457.2129">+getEmail()</text><text fill="#000000" font-family="sans-serif" font-size="14" lengthAdjust="spacing" textLength="225" x="305.5" y="475.834">+requestAddress(email, name, role,</text><text fill="#000000" font-family="sans-serif" font-size="14" lengthAdjust="spacing" textLength="294" x="305.5" y="494.4551">phoneNumber, agency, ccNumber, taxNumber)</text><text fill="#000000" font-family="sans-serif" font-size="14" lengthAdjust="spacing" textLength="85" x="305.5" y="513.0762">+choseRole()</text><text fill="#000000" font-family="sans-serif" font-size="14" lengthAdjust="spacing" textLength="103" x="305.5" y="531.6973">+choseAgency()</text><text fill="#000000" font-family="sans-serif" font-size="14" lengthAdjust="spacing" textLength="143" x="305.5" y="550.3184">+verifyData(employee)</text><text fill="#000000" font-family="sans-serif" font-size="14" lengthAdjust="spacing" textLength="326" x="305.5" y="568.9395">+verifyIfNewEmployee(ccNumber, taxNumber, email)</text><text fill="#000000" font-family="sans-serif" font-size="14" lengthAdjust="spacing" textLength="176" x="305.5" y="587.5605">+getOrganizationRepository</text><text fill="#000000" font-family="sans-serif" font-size="14" lengthAdjust="spacing" textLength="249" x="305.5" y="606.1816">+createEmployee(employee, password)</text><text fill="#000000" font-family="sans-serif" font-size="14" lengthAdjust="spacing" textLength="239" x="305.5" y="624.8027">+addAuthentication(copyOfEmployee)</text></g><!--class GenerateAndSavePassword--><g id="elem_GenerateAndSavePassword"><rect codeLine="65" fill="#F1F1F1" height="85.2422" id="GenerateAndSavePassword" rx="2.5" ry="2.5" style="stroke:#181818;stroke-width:0.5;" width="245" x="7" y="662.6211"/><ellipse cx="37.75" cy="678.6211" fill="#ADD1B2" rx="11" ry="11" style="stroke:#181818;stroke-width:1.0;"/><path d="M40.5156,674.4961 Q40.6719,674.2773 40.8594,674.168 Q41.0469,674.0586 41.2656,674.0586 Q41.6406,674.0586 41.875,674.3242 Q42.1094,674.5742 42.1094,675.1836 L42.1094,676.6367 Q42.1094,677.2461 41.875,677.5117 Q41.6406,677.7773 41.2656,677.7773 Q40.9219,677.7773 40.7188,677.5742 Q40.5156,677.3867 40.4063,676.8711 Q40.3594,676.5117 40.1719,676.3242 Q39.8438,675.9492 39.2344,675.7305 Q38.625,675.5117 38,675.5117 Q37.2344,675.5117 36.5938,675.8398 Q35.9688,676.168 35.4688,676.918 Q34.9844,677.668 34.9844,678.6992 L34.9844,679.793 Q34.9844,681.0273 35.875,681.8555 Q36.7656,682.668 38.3594,682.668 Q39.2969,682.668 39.9531,682.418 Q40.3438,682.2617 40.7656,681.8242 Q41.0313,681.5586 41.1719,681.4805 Q41.3281,681.4023 41.5313,681.4023 Q41.8594,681.4023 42.1094,681.668 Q42.375,681.918 42.375,682.2617 Q42.375,682.6055 42.0313,683.0117 Q41.5313,683.5898 40.7344,683.918 Q39.6563,684.3711 38.3594,684.3711 Q36.8438,684.3711 35.6406,683.7461 Q34.6563,683.2461 33.9688,682.1836 Q33.2813,681.1055 33.2813,679.8242 L33.2813,678.668 Q33.2813,677.3398 33.8906,676.1992 Q34.5156,675.043 35.6094,674.4336 Q36.7031,673.8086 37.9375,673.8086 Q38.6719,673.8086 39.3125,673.9805 Q39.9688,674.1367 40.5156,674.4961 Z " fill="#000000"/><text fill="#000000" font-family="sans-serif" font-size="14" lengthAdjust="spacing" textLength="178" x="55.25" y="684.418">GenerateAndSavePassword</text><line style="stroke:#181818;stroke-width:0.5;" x1="8" x2="251" y1="694.6211" y2="694.6211"/><line style="stroke:#181818;stroke-width:0.5;" x1="8" x2="251" y1="702.6211" y2="702.6211"/><text fill="#000000" font-family="sans-serif" font-size="14" lengthAdjust="spacing" textLength="136" x="13" y="721.7285">+generatePassword()</text><text fill="#000000" font-family="sans-serif" font-size="14" lengthAdjust="spacing" textLength="233" x="13" y="740.3496">+sendEmployeePassword(employee)</text></g><!--class StoreRepository--><g id="elem_StoreRepository"><rect codeLine="71" fill="#F1F1F1" height="66.6211" id="StoreRepository" rx="2.5" ry="2.5" style="stroke:#181818;stroke-width:0.5;" width="152" x="269.5" y="796.1211"/><ellipse cx="292.6" cy="812.1211" fill="#ADD1B2" rx="11" ry="11" style="stroke:#181818;stroke-width:1.0;"/><path d="M295.3656,807.9961 Q295.5219,807.7773 295.7094,807.668 Q295.8969,807.5586 296.1156,807.5586 Q296.4906,807.5586 296.725,807.8242 Q296.9594,808.0742 296.9594,808.6836 L296.9594,810.1367 Q296.9594,810.7461 296.725,811.0117 Q296.4906,811.2773 296.1156,811.2773 Q295.7719,811.2773 295.5688,811.0742 Q295.3656,810.8867 295.2563,810.3711 Q295.2094,810.0117 295.0219,809.8242 Q294.6938,809.4492 294.0844,809.2305 Q293.475,809.0117 292.85,809.0117 Q292.0844,809.0117 291.4438,809.3398 Q290.8188,809.668 290.3188,810.418 Q289.8344,811.168 289.8344,812.1992 L289.8344,813.293 Q289.8344,814.5273 290.725,815.3555 Q291.6156,816.168 293.2094,816.168 Q294.1469,816.168 294.8031,815.918 Q295.1938,815.7617 295.6156,815.3242 Q295.8813,815.0586 296.0219,814.9805 Q296.1781,814.9023 296.3813,814.9023 Q296.7094,814.9023 296.9594,815.168 Q297.225,815.418 297.225,815.7617 Q297.225,816.1055 296.8813,816.5117 Q296.3813,817.0898 295.5844,817.418 Q294.5063,817.8711 293.2094,817.8711 Q291.6938,817.8711 290.4906,817.2461 Q289.5063,816.7461 288.8188,815.6836 Q288.1313,814.6055 288.1313,813.3242 L288.1313,812.168 Q288.1313,810.8398 288.7406,809.6992 Q289.3656,808.543 290.4594,807.9336 Q291.5531,807.3086 292.7875,807.3086 Q293.5219,807.3086 294.1625,807.4805 Q294.8188,807.6367 295.3656,807.9961 Z " fill="#000000"/><text fill="#000000" font-family="sans-serif" font-size="14" lengthAdjust="spacing" textLength="102" x="308.4" y="817.918">StoreRepository</text><line style="stroke:#181818;stroke-width:0.5;" x1="270.5" x2="420.5" y1="828.1211" y2="828.1211"/><line style="stroke:#181818;stroke-width:0.5;" x1="270.5" x2="420.5" y1="836.1211" y2="836.1211"/><text fill="#000000" font-family="sans-serif" font-size="14" lengthAdjust="spacing" textLength="140" x="275.5" y="855.2285">+getStoreRepository()</text></g><!--class Store--><g id="elem_Store"><rect codeLine="76" fill="#F1F1F1" height="159.7266" id="Store" rx="2.5" ry="2.5" style="stroke:#181818;stroke-width:0.5;" width="147" x="318" y="960.6211"/><ellipse cx="370.25" cy="976.6211" fill="#ADD1B2" rx="11" ry="11" style="stroke:#181818;stroke-width:1.0;"/><path d="M373.0156,972.4961 Q373.1719,972.2773 373.3594,972.168 Q373.5469,972.0586 373.7656,972.0586 Q374.1406,972.0586 374.375,972.3242 Q374.6094,972.5742 374.6094,973.1836 L374.6094,974.6367 Q374.6094,975.2461 374.375,975.5117 Q374.1406,975.7773 373.7656,975.7773 Q373.4219,975.7773 373.2188,975.5742 Q373.0156,975.3867 372.9063,974.8711 Q372.8594,974.5117 372.6719,974.3242 Q372.3438,973.9492 371.7344,973.7305 Q371.125,973.5117 370.5,973.5117 Q369.7344,973.5117 369.0938,973.8398 Q368.4688,974.168 367.9688,974.918 Q367.4844,975.668 367.4844,976.6992 L367.4844,977.793 Q367.4844,979.0273 368.375,979.8555 Q369.2656,980.668 370.8594,980.668 Q371.7969,980.668 372.4531,980.418 Q372.8438,980.2617 373.2656,979.8242 Q373.5313,979.5586 373.6719,979.4805 Q373.8281,979.4023 374.0313,979.4023 Q374.3594,979.4023 374.6094,979.668 Q374.875,979.918 374.875,980.2617 Q374.875,980.6055 374.5313,981.0117 Q374.0313,981.5898 373.2344,981.918 Q372.1563,982.3711 370.8594,982.3711 Q369.3438,982.3711 368.1406,981.7461 Q367.1563,981.2461 366.4688,980.1836 Q365.7813,979.1055 365.7813,977.8242 L365.7813,976.668 Q365.7813,975.3398 366.3906,974.1992 Q367.0156,973.043 368.1094,972.4336 Q369.2031,971.8086 370.4375,971.8086 Q371.1719,971.8086 371.8125,971.9805 Q372.4688,972.1367 373.0156,972.4961 Z " fill="#000000"/><text fill="#000000" font-family="sans-serif" font-size="14" lengthAdjust="spacing" textLength="34" x="390.75" y="982.418">Store</text><line style="stroke:#181818;stroke-width:0.5;" x1="319" x2="464" y1="992.6211" y2="992.6211"/><text fill="#000000" font-family="sans-serif" font-size="14" lengthAdjust="spacing" textLength="114" x="324" y="1011.7285">-String storeName</text><text fill="#000000" font-family="sans-serif" font-size="14" lengthAdjust="spacing" textLength="97" x="324" y="1030.3496">-String address</text><text fill="#000000" font-family="sans-serif" font-size="14" lengthAdjust="spacing" textLength="135" x="324" y="1048.9707">-String phoneNumber</text><text fill="#000000" font-family="sans-serif" font-size="14" lengthAdjust="spacing" textLength="57" x="324" y="1067.5918">-String id</text><text fill="#000000" font-family="sans-serif" font-size="14" lengthAdjust="spacing" textLength="79" x="324" y="1086.2129">-String email</text><line style="stroke:#181818;stroke-width:0.5;" x1="319" x2="464" y1="1093.7266" y2="1093.7266"/><text fill="#000000" font-family="sans-serif" font-size="14" lengthAdjust="spacing" textLength="104" x="324" y="1112.834">+addEmployee()</text></g><!--class Repositories--><g id="elem_Repositories"><rect codeLine="86" fill="#F1F1F1" height="141.1055" id="Repositories" rx="2.5" ry="2.5" style="stroke:#181818;stroke-width:0.5;" width="208" x="751.5" y="407.6211"/><ellipse cx="811.75" cy="423.6211" fill="#ADD1B2" rx="11" ry="11" style="stroke:#181818;stroke-width:1.0;"/><path d="M814.5156,419.4961 Q814.6719,419.2773 814.8594,419.168 Q815.0469,419.0586 815.2656,419.0586 Q815.6406,419.0586 815.875,419.3242 Q816.1094,419.5742 816.1094,420.1836 L816.1094,421.6367 Q816.1094,422.2461 815.875,422.5117 Q815.6406,422.7773 815.2656,422.7773 Q814.9219,422.7773 814.7188,422.5742 Q814.5156,422.3867 814.4063,421.8711 Q814.3594,421.5117 814.1719,421.3242 Q813.8438,420.9492 813.2344,420.7305 Q812.625,420.5117 812,420.5117 Q811.2344,420.5117 810.5938,420.8398 Q809.9688,421.168 809.4688,421.918 Q808.9844,422.668 808.9844,423.6992 L808.9844,424.793 Q808.9844,426.0273 809.875,426.8555 Q810.7656,427.668 812.3594,427.668 Q813.2969,427.668 813.9531,427.418 Q814.3438,427.2617 814.7656,426.8242 Q815.0313,426.5586 815.1719,426.4805 Q815.3281,426.4023 815.5313,426.4023 Q815.8594,426.4023 816.1094,426.668 Q816.375,426.918 816.375,427.2617 Q816.375,427.6055 816.0313,428.0117 Q815.5313,428.5898 814.7344,428.918 Q813.6563,429.3711 812.3594,429.3711 Q810.8438,429.3711 809.6406,428.7461 Q808.6563,428.2461 807.9688,427.1836 Q807.2813,426.1055 807.2813,424.8242 L807.2813,423.668 Q807.2813,422.3398 807.8906,421.1992 Q808.5156,420.043 809.6094,419.4336 Q810.7031,418.8086 811.9375,418.8086 Q812.6719,418.8086 813.3125,418.9805 Q813.9688,419.1367 814.5156,419.4961 Z " fill="#000000"/><text fill="#000000" font-family="sans-serif" font-size="14" lengthAdjust="spacing" textLength="79" x="832.25" y="429.418">Repositories</text><line style="stroke:#181818;stroke-width:0.5;" x1="752.5" x2="958.5" y1="439.6211" y2="439.6211"/><line style="stroke:#181818;stroke-width:0.5;" x1="752.5" x2="958.5" y1="447.6211" y2="447.6211"/><text fill="#000000" font-family="sans-serif" font-size="14" lengthAdjust="spacing" textLength="94" x="757.5" y="466.7285">-Repositories()</text><text fill="#000000" font-family="sans-serif" font-size="14" lengthAdjust="spacing" textLength="182" x="757.5" y="485.3496">+getInstance() : Repositories</text><text fill="#000000" font-family="sans-serif" font-size="14" lengthAdjust="spacing" textLength="168" x="757.5" y="503.9707">+getEmployeeRepository()</text><text fill="#000000" font-family="sans-serif" font-size="14" lengthAdjust="spacing" textLength="196" x="757.5" y="522.5918">+getAuthenticationRepository()</text><text fill="#000000" font-family="sans-serif" font-size="14" lengthAdjust="spacing" textLength="140" x="757.5" y="541.2129">+getStoreRepository()</text></g><!--class AuthenticationRepository--><g id="elem_AuthenticationRepository"><rect codeLine="95" fill="#F1F1F1" height="103.8633" id="AuthenticationRepository" rx="2.5" ry="2.5" style="stroke:#181818;stroke-width:0.5;" width="235" x="681" y="777.6211"/><ellipse cx="716.25" cy="793.6211" fill="#ADD1B2" rx="11" ry="11" style="stroke:#181818;stroke-width:1.0;"/><path d="M719.0156,789.4961 Q719.1719,789.2773 719.3594,789.168 Q719.5469,789.0586 719.7656,789.0586 Q720.1406,789.0586 720.375,789.3242 Q720.6094,789.5742 720.6094,790.1836 L720.6094,791.6367 Q720.6094,792.2461 720.375,792.5117 Q720.1406,792.7773 719.7656,792.7773 Q719.4219,792.7773 719.2188,792.5742 Q719.0156,792.3867 718.9063,791.8711 Q718.8594,791.5117 718.6719,791.3242 Q718.3438,790.9492 717.7344,790.7305 Q717.125,790.5117 716.5,790.5117 Q715.7344,790.5117 715.0938,790.8398 Q714.4688,791.168 713.9688,791.918 Q713.4844,792.668 713.4844,793.6992 L713.4844,794.793 Q713.4844,796.0273 714.375,796.8555 Q715.2656,797.668 716.8594,797.668 Q717.7969,797.668 718.4531,797.418 Q718.8438,797.2617 719.2656,796.8242 Q719.5313,796.5586 719.6719,796.4805 Q719.8281,796.4023 720.0313,796.4023 Q720.3594,796.4023 720.6094,796.668 Q720.875,796.918 720.875,797.2617 Q720.875,797.6055 720.5313,798.0117 Q720.0313,798.5898 719.2344,798.918 Q718.1563,799.3711 716.8594,799.3711 Q715.3438,799.3711 714.1406,798.7461 Q713.1563,798.2461 712.4688,797.1836 Q711.7813,796.1055 711.7813,794.8242 L711.7813,793.668 Q711.7813,792.3398 712.3906,791.1992 Q713.0156,790.043 714.1094,789.4336 Q715.2031,788.8086 716.4375,788.8086 Q717.1719,788.8086 717.8125,788.9805 Q718.4688,789.1367 719.0156,789.4961 Z " fill="#000000"/><text fill="#000000" font-family="sans-serif" font-size="14" lengthAdjust="spacing" textLength="158" x="734.75" y="799.418">AuthenticationRepository</text><line style="stroke:#181818;stroke-width:0.5;" x1="682" x2="915" y1="809.6211" y2="809.6211"/><text fill="#000000" font-family="sans-serif" font-size="14" lengthAdjust="spacing" textLength="223" x="687" y="828.7285">-AuthFacade authenticationFacade</text><line style="stroke:#181818;stroke-width:0.5;" x1="682" x2="915" y1="836.2422" y2="836.2422"/><text fill="#000000" font-family="sans-serif" font-size="14" lengthAdjust="spacing" textLength="188" x="687" y="855.3496">+addUserRole(id, description)</text><text fill="#000000" font-family="sans-serif" font-size="14" lengthAdjust="spacing" textLength="128" x="687" y="873.9707">+addUserWithRole()</text></g><!--link SystemAdministrator to CreateEmployeeUI--><g id="link_SystemAdministrator_CreateEmployeeUI"><path codeLine="102" d="M524.67,188.2911 C456.46,217.9811 358.12,265.9011 282.5,323.6211 C252.38,346.6111 223.22,376.3711 199.24,403.5511 " fill="none" id="SystemAdministrator-to-CreateEmployeeUI" style="stroke:#181818;stroke-width:1.0;"/><polygon fill="#181818" points="195.74,407.5411,204.6846,403.4187,199.0396,403.7844,198.6739,398.1394,195.74,407.5411" style="stroke:#181818;stroke-width:1.0;"/></g><!--link CreateEmployeeUI to CreateEmployeeController--><g id="link_CreateEmployeeUI_CreateEmployeeController"><path codeLine="103" d="M264.14,478.1211 C274.11,478.1211 284.08,478.1211 294.05,478.1211 " fill="none" id="CreateEmployeeUI-to-CreateEmployeeController" style="stroke:#181818;stroke-width:1.0;stroke-dasharray:7.0,7.0;"/><polygon fill="#181818" points="299.26,478.1211,290.26,474.1211,294.26,478.1211,290.26,482.1211,299.26,478.1211" style="stroke:#181818;stroke-width:1.0;"/></g><!--link CreateEmployeeUI to GenerateAndSavePassword--><g id="link_CreateEmployeeUI_GenerateAndSavePassword"><path codeLine="104" d="M137.09,548.7711 C135.37,584.0311 133.32,625.8911 131.79,657.2711 " fill="none" id="CreateEmployeeUI-to-GenerateAndSavePassword" style="stroke:#181818;stroke-width:1.0;"/><polygon fill="#181818" points="131.53,662.6111,135.9631,653.8164,131.7733,657.617,127.9726,653.4271,131.53,662.6111" style="stroke:#181818;stroke-width:1.0;"/></g><!--link GenerateAndSavePassword to Employee--><g id="link_GenerateAndSavePassword_Employee"><path codeLine="105" d="M138.76,747.8511 C157.97,827.1611 208.25,1002.2811 300.5,1120.6211 C351.75,1186.3611 431.92,1240.2011 487.82,1272.7411 " fill="none" id="GenerateAndSavePassword-to-Employee" style="stroke:#181818;stroke-width:1.0;"/><polygon fill="#181818" points="492.48,1275.4311,486.687,1267.4661,488.1503,1272.9304,482.6859,1274.3937,492.48,1275.4311" style="stroke:#181818;stroke-width:1.0;"/><text fill="#000000" font-family="sans-serif" font-size="13" lengthAdjust="spacing" textLength="116" x="195.5" y="926.6494">makes password for</text><text fill="#000000" font-family="sans-serif" font-size="13" lengthAdjust="spacing" textLength="7" x="132.678" y="770.0481">1</text><text fill="#000000" font-family="sans-serif" font-size="13" lengthAdjust="spacing" textLength="7" x="477.4696" y="1267.2909">1</text></g><!--link SystemAdministrator to Employee--><g id="link_SystemAdministrator_Employee"><path codeLine="106" d="M686.11,173.3311 C769.17,195.4211 897.5,240.7911 977.5,323.6211 C1028.73,376.6611 1040.5,403.3811 1040.5,477.1211 C1040.5,477.1211 1040.5,477.1211 1040.5,1041.6211 C1040.5,1234.9811 741.29,1287.9911 610.97,1301.9011 " fill="none" id="SystemAdministrator-Employee" style="stroke:#181818;stroke-width:1.0;"/><polygon fill="#000000" points="1045.1678,834.7556,1048.7012,825.9257,1042.8363,825.5352,1045.1678,834.7556" style="stroke:#000000;stroke-width:1.0;"/><text fill="#000000" font-family="sans-serif" font-size="13" lengthAdjust="spacing" textLength="50" x="1054.5" y="835.1494">registers</text><text fill="#000000" font-family="sans-serif" font-size="13" lengthAdjust="spacing" textLength="7" x="694.1267" y="171.366">1</text><text fill="#000000" font-family="sans-serif" font-size="13" lengthAdjust="spacing" textLength="5" x="618.5226" y="1297.2391">*</text></g><!--link CreateEmployeeController to Repositories--><g id="link_CreateEmployeeController_Repositories"><path codeLine="107" d="M637.68,478.1211 C674.36,478.1211 712.23,478.1211 745.89,478.1211 " fill="none" id="CreateEmployeeController-to-Repositories" style="stroke:#181818;stroke-width:1.0;stroke-dasharray:7.0,7.0;"/><polygon fill="#181818" points="751.26,478.1211,742.26,474.1211,746.26,478.1211,742.26,482.1211,751.26,478.1211" style="stroke:#181818;stroke-width:1.0;"/><text fill="#000000" font-family="sans-serif" font-size="13" lengthAdjust="spacing" textLength="67" x="661" y="471.1494">repositories</text></g><!--link Repositories to StoreRepository--><g id="link_Repositories_StoreRepository"><path codeLine="108" d="M773.31,548.8111 C738.27,576.7511 696.15,608.0611 655.5,632.6211 C628.27,649.0711 612.17,639.3211 590.5,662.6211 C563.01,692.1811 588.61,720.7411 558.5,747.6211 C517.81,783.9511 490.31,757.7911 439.5,777.6211 C427.9,782.1511 415.92,787.8111 404.56,793.6911 " fill="none" id="Repositories-to-StoreRepository" style="stroke:#181818;stroke-width:1.0;"/><polygon fill="#181818" points="400.07,796.0411,409.8975,795.393,404.4955,793.7141,406.1744,788.3121,400.07,796.0411" style="stroke:#181818;stroke-width:1.0;"/><text fill="#000000" font-family="sans-serif" font-size="13" lengthAdjust="spacing" textLength="49" x="591.5" y="710.6494">contains</text></g><!--link Repositories to AuthenticationRepository--><g id="link_Repositories_AuthenticationRepository"><path codeLine="109" d="M901.58,548.7911 C932.6,605.1411 962.06,685.1111 927.5,747.6211 C922.17,757.2711 915.15,765.9211 907.14,773.6411 " fill="none" id="Repositories-to-AuthenticationRepository" style="stroke:#181818;stroke-width:1.0;"/><polygon fill="#181818" points="903.13,777.3611,912.4512,774.1807,906.7985,773.9638,907.0155,768.3111,903.13,777.3611" style="stroke:#181818;stroke-width:1.0;"/><text fill="#000000" font-family="sans-serif" font-size="13" lengthAdjust="spacing" textLength="49" x="943.5" y="710.6494">contains</text></g><!--link Repositories to EmployeeRepository--><g id="link_Repositories_EmployeeRepository"><path codeLine="110" d="M859.92,548.8111 C862.75,618.5511 862,719.4111 836.5,747.6211 C784.18,805.5211 738.06,754.6011 663.5,777.6211 C659.39,778.8911 655.24,780.2711 651.07,781.7511 " fill="none" id="Repositories-to-EmployeeRepository" style="stroke:#181818;stroke-width:1.0;"/><polygon fill="#181818" points="646.17,783.5211,655.9939,784.2214,650.8719,781.8204,653.2728,776.6984,646.17,783.5211" style="stroke:#181818;stroke-width:1.0;"/><text fill="#000000" font-family="sans-serif" font-size="13" lengthAdjust="spacing" textLength="49" x="859.5" y="710.6494">contains</text></g><!--link CreateEmployeeController to StoreRepository--><g id="link_CreateEmployeeController_StoreRepository"><path codeLine="111" d="M316.69,632.6611 C311.24,642.3911 306.44,652.4011 302.5,662.6211 C288.92,697.8711 293.37,710.9611 302.5,747.6211 C306.27,762.7511 313.44,778.1611 320.87,791.4211 " fill="none" id="CreateEmployeeController-to-StoreRepository" style="stroke:#181818;stroke-width:1.0;stroke-dasharray:7.0,7.0;"/><polygon fill="#181818" points="323.4,795.8311,322.4008,786.0331,320.9162,791.4916,315.4577,790.0071,323.4,795.8311" style="stroke:#181818;stroke-width:1.0;"/><text fill="#000000" font-family="sans-serif" font-size="13" lengthAdjust="spacing" textLength="97" x="303.5" y="710.6494">Store Repository</text></g><!--link StoreRepository to Store--><g id="link_StoreRepository_Store"><path codeLine="112" d="M352.69,863.2811 C358.11,887.9111 365.8,922.8511 372.91,955.1511 " fill="none" id="StoreRepository-to-Store" style="stroke:#181818;stroke-width:1.0;"/><polygon fill="#181818" points="374.04,960.3111,376.0193,950.6632,372.969,955.4272,368.205,952.3768,374.04,960.3111" style="stroke:#181818;stroke-width:1.0;"/><text fill="#000000" font-family="sans-serif" font-size="13" lengthAdjust="spacing" textLength="31" x="367.5" y="926.6494">Store</text></g><!--link CreateEmployeeController to EmployeeRepository--><g id="link_CreateEmployeeController_EmployeeRepository"><path codeLine="113" d="M413.16,632.6711 C407.57,671.8811 409.72,712.7711 428.5,747.6211 C434.66,759.0511 443.21,769.1311 452.96,777.9411 " fill="none" id="CreateEmployeeController-to-EmployeeRepository" style="stroke:#181818;stroke-width:1.0;stroke-dasharray:7.0,7.0;"/><polygon fill="#181818" points="456.91,781.3911,452.7516,772.4632,453.14,778.1067,447.4965,778.4951,456.91,781.3911" style="stroke:#181818;stroke-width:1.0;"/><text fill="#000000" font-family="sans-serif" font-size="13" lengthAdjust="spacing" textLength="124" x="429.5" y="710.6494">Employee Repository</text></g><!--link EmployeeRepository to Employee--><g id="link_EmployeeRepository_Employee"><path codeLine="114" d="M551.5,882.0111 C551.5,956.2911 551.5,1095.5511 551.5,1194.3111 " fill="none" id="EmployeeRepository-to-Employee" style="stroke:#181818;stroke-width:1.0;"/><polygon fill="#181818" points="551.5,1199.5711,555.5,1190.5711,551.5,1194.5711,547.5,1190.5711,551.5,1199.5711" style="stroke:#181818;stroke-width:1.0;"/><text fill="#000000" font-family="sans-serif" font-size="13" lengthAdjust="spacing" textLength="58" x="552.5" y="1046.1494">Employee</text></g><!--link Store to Employee--><g id="link_Store_Employee"><path codeLine="115" d="M436.65,1120.7511 C446.07,1136.9811 456.03,1153.9011 465.5,1169.6211 C473.18,1182.3711 481.37,1195.7111 489.53,1208.8611 " fill="none" id="Store-to-Employee" style="stroke:#181818;stroke-width:1.0;"/><polygon fill="#181818" points="492.29,1213.3111,490.9505,1203.5538,489.6567,1209.0607,484.1498,1207.767,492.29,1213.3111" style="stroke:#181818;stroke-width:1.0;"/><text fill="#000000" font-family="sans-serif" font-size="13" lengthAdjust="spacing" textLength="58" x="466.5" y="1165.6494">Employee</text></g><!--link CreateEmployeeController to AuthenticationRepository--><g id="link_CreateEmployeeController_AuthenticationRepository"><path codeLine="116" d="M628.46,632.7711 C635.97,642.5611 643.05,652.5411 649.5,662.6211 C671.26,696.6211 656.67,715.8011 681.5,747.6211 C689.01,757.2511 697.99,766.1811 707.58,774.3211 " fill="none" id="CreateEmployeeController-to-AuthenticationRepository" style="stroke:#181818;stroke-width:1.0;stroke-dasharray:7.0,7.0;"/><polygon fill="#181818" points="711.43,777.5211,707.0735,768.6881,707.5877,774.3216,701.9543,774.8358,711.43,777.5211" style="stroke:#181818;stroke-width:1.0;"/><text fill="#000000" font-family="sans-serif" font-size="13" lengthAdjust="spacing" textLength="145" x="682.5" y="710.6494">AuthenticationRepository</text></g><!--link AuthenticationRepository to Employee--><g id="link_AuthenticationRepository_Employee"><path codeLine="117" d="M771.83,882.0111 C733.21,956.4411 660.74,1096.1011 609.47,1194.9011 " fill="none" id="AuthenticationRepository-to-Employee" style="stroke:#181818;stroke-width:1.0;"/><polygon fill="#181818" points="607.05,1199.5711,614.7479,1193.4276,609.3545,1195.1338,607.6483,1189.7404,607.05,1199.5711" style="stroke:#181818;stroke-width:1.0;"/><text fill="#000000" font-family="sans-serif" font-size="13" lengthAdjust="spacing" textLength="27" x="731.5" y="1046.1494">User</text></g><!--SRC=[pLJVQzim47xNNo7wbAxsoDXR6O7GTYCmsb5JzZ88gdnnH6pPavHsRjd_lhDioR9ZvtbFjkxdTtVVdJu8MJ752benVc0P9AREWIhWXiai1wAzWTwpj7mLCgCxbkjGmtEczTeO9PwF1ZQyb8bu0xeaHXWCzfGibv_f8sH26r2KqNjufNT5bPSr08tfJUDERmNBC1WXDbglVoSnJJ0qvfMiWFwbohnv2Maev_V7uXbKzpJiZtztnYnD5MZT2w1W8k-VrRwKGMniXEHre4P8hwLAoNQx9NyTngJ6WefrMWY9fIbcIlK_mtKjVOIgr0B1rWZsEoB_uZGhpDF-QUjwXJWMb-Gg0-DCDBvzn1i5p81JFMsQwltWN2WI3yrkIccm6JbIWVlVDfqwoYQTwgY2F75EZLWVdmjXRfbX2nTx5akG9C3KL-xHzI8Ihuzc3z88pemePM3CPXGaJl0JXjN3TrSM_3w2Rf6xRk8usrAjQjtEUs7775dcH9On4VqbxR1RXaJTg2FFeQYd3uRZ-rB38_ejt6DjxPld2oYngqVjwwIRNTZhYTXHoy0M_OFAc1HlusPSyS48V9R8y_7ICchOvWKlg_fXTtSwqMyW0PSArZ9Ds0lyw8BWG6rNiqxjv9OY85CNoSido38UcmzfHfh5s2dORplh-y6Id-njCBjUADBnOhjb2-Zkqtem0dIBCnx8chef8jz8ZJUReo-z7XWCzdTGMgEO8tsdFjEFES_tTfE-CivI6ErEA_JrFcbGbguYZMWAcYjHDMQNNljJc7r7Q4mySN7ZU7LoXyZ9OVgucZqGfyOOSOPxP8wJ5vykQ8Ea-VeBU4qBTW3jwKztfPegeVEc5ny6pkuCQheYizSD2mjdRTs2qGzq3S0nyw_j4MP2JjZEtiDpJXEtDZ0_LySfD2kXmOaPc_YAdF7P19FGVCE3D1E6OMc1LujeLdiEpPdkpgd8hCy8GBCv_m00]--></g></svg>