<?xml version="1.0" encoding="us-ascii" standalone="no"?><svg xmlns="http://www.w3.org/2000/svg" xmlns:xlink="http://www.w3.org/1999/xlink" contentStyleType="text/css" height="603.33px" preserveAspectRatio="none" style="width:487px;height:603px;background:#FFFFFF;" version="1.1" viewBox="0 0 487 603" width="487.05px" zoomAndPan="magnify"><defs/><g><text fill="#000000" font-family="sans-serif" font-size="7.14" font-weight="bold" lengthAdjust="spacing" textLength="108.63" x="185.7675" y="12.8048">US007 Sign Up - Class Diagram</text><!--class UnregisteredUser--><g id="elem_UnregisteredUser"><rect codeLine="7" fill="#F1F1F1" height="24.48" id="UnregisteredUser" rx="1.275" ry="1.275" style="stroke:#181818;stroke-width:0.255;" width="72.42" x="52.785" y="23.7768"/><ellipse cx="60.435" cy="31.9368" fill="#ADD1B2" rx="5.61" ry="5.61" style="stroke:#181818;stroke-width:0.51;"/><path d="M61.8455,29.833 Q61.9252,29.7214 62.0208,29.6657 Q62.1164,29.6099 62.228,29.6099 Q62.4192,29.6099 62.5388,29.7454 Q62.6583,29.8729 62.6583,30.1836 L62.6583,30.9247 Q62.6583,31.2355 62.5388,31.371 Q62.4192,31.5064 62.228,31.5064 Q62.0527,31.5064 61.9491,31.4029 Q61.8455,31.3072 61.7897,31.0443 Q61.7658,30.861 61.6702,30.7654 Q61.5028,30.5741 61.192,30.4625 Q60.8813,30.351 60.5625,30.351 Q60.172,30.351 59.8453,30.5183 Q59.5266,30.6857 59.2716,31.0682 Q59.0245,31.4507 59.0245,31.9766 L59.0245,32.5344 Q59.0245,33.1639 59.4788,33.5863 Q59.933,34.0007 60.7458,34.0007 Q61.2239,34.0007 61.5586,33.8732 Q61.7578,33.7935 61.973,33.5704 Q62.1084,33.4349 62.1802,33.395 Q62.2598,33.3552 62.3634,33.3552 Q62.5308,33.3552 62.6583,33.4907 Q62.7938,33.6182 62.7938,33.7935 Q62.7938,33.9688 62.6184,34.176 Q62.3634,34.4708 61.957,34.6382 Q61.4072,34.8693 60.7458,34.8693 Q59.9728,34.8693 59.3592,34.5505 Q58.8572,34.2955 58.5066,33.7536 Q58.1559,33.2038 58.1559,32.5504 L58.1559,31.9607 Q58.1559,31.2833 58.4667,30.7016 Q58.7855,30.1119 59.3433,29.8011 Q59.9011,29.4824 60.5306,29.4824 Q60.9052,29.4824 61.2319,29.57 Q61.5666,29.6497 61.8455,29.833 Z " fill="#000000"/><text fill="#000000" font-family="sans-serif" font-size="7.14" lengthAdjust="spacing" textLength="56.1" x="67.575" y="34.8932">UnregisteredUser</text><line style="stroke:#181818;stroke-width:0.255;" x1="53.295" x2="124.695" y1="40.0968" y2="40.0968"/><line style="stroke:#181818;stroke-width:0.255;" x1="53.295" x2="124.695" y1="44.1768" y2="44.1768"/></g><!--class SignUpUI--><g id="elem_SignUpUI"><rect codeLine="11" fill="#F1F1F1" height="52.9703" id="SignUpUI" rx="1.275" ry="1.275" style="stroke:#181818;stroke-width:0.255;" width="65.79" x="3.57" y="116.0868"/><ellipse cx="20.4" cy="124.2468" fill="#ADD1B2" rx="5.61" ry="5.61" style="stroke:#181818;stroke-width:0.51;"/><path d="M21.8105,122.143 Q21.8902,122.0314 21.9858,121.9757 Q22.0814,121.9199 22.193,121.9199 Q22.3842,121.9199 22.5038,122.0554 Q22.6233,122.1829 22.6233,122.4936 L22.6233,123.2347 Q22.6233,123.5455 22.5038,123.681 Q22.3842,123.8164 22.193,123.8164 Q22.0177,123.8164 21.9141,123.7129 Q21.8105,123.6172 21.7547,123.3543 Q21.7308,123.171 21.6352,123.0754 Q21.4678,122.8841 21.157,122.7725 Q20.8463,122.661 20.5275,122.661 Q20.137,122.661 19.8103,122.8283 Q19.4916,122.9957 19.2366,123.3782 Q18.9895,123.7607 18.9895,124.2866 L18.9895,124.8444 Q18.9895,125.4739 19.4438,125.8963 Q19.898,126.3107 20.7108,126.3107 Q21.1889,126.3107 21.5236,126.1832 Q21.7228,126.1035 21.938,125.8804 Q22.0734,125.7449 22.1452,125.705 Q22.2248,125.6652 22.3284,125.6652 Q22.4958,125.6652 22.6233,125.8007 Q22.7588,125.9282 22.7588,126.1035 Q22.7588,126.2788 22.5834,126.486 Q22.3284,126.7808 21.922,126.9482 Q21.3722,127.1793 20.7108,127.1793 Q19.9378,127.1793 19.3242,126.8605 Q18.8222,126.6055 18.4716,126.0636 Q18.1209,125.5138 18.1209,124.8604 L18.1209,124.2707 Q18.1209,123.5933 18.4317,123.0116 Q18.7505,122.4219 19.3083,122.1111 Q19.8661,121.7924 20.4956,121.7924 Q20.8702,121.7924 21.1969,121.88 Q21.5316,121.9597 21.8105,122.143 Z " fill="#000000"/><text fill="#000000" font-family="sans-serif" font-size="7.14" lengthAdjust="spacing" textLength="29.07" x="29.58" y="127.2032">SignUpUI</text><line style="stroke:#181818;stroke-width:0.255;" x1="4.08" x2="68.85" y1="132.4068" y2="132.4068"/><line style="stroke:#181818;stroke-width:0.255;" x1="4.08" x2="68.85" y1="136.4868" y2="136.4868"/><text fill="#000000" font-family="sans-serif" font-size="7.14" lengthAdjust="spacing" textLength="19.89" x="6.63" y="146.2315">+run()</text><text fill="#000000" font-family="sans-serif" font-size="7.14" lengthAdjust="spacing" textLength="31.11" x="6.63" y="155.7283">+signUp()</text><text fill="#000000" font-family="sans-serif" font-size="7.14" lengthAdjust="spacing" textLength="59.67" x="6.63" y="165.2251">+submitData(user)</text></g><!--class SignUpController--><g id="elem_SignUpController"><rect codeLine="18" fill="#F1F1F1" height="90.9573" id="SignUpController" rx="1.275" ry="1.275" style="stroke:#181818;stroke-width:0.255;" width="111.18" x="109.905" y="97.2168"/><ellipse cx="136.0425" cy="105.3768" fill="#ADD1B2" rx="5.61" ry="5.61" style="stroke:#181818;stroke-width:0.51;"/><path d="M137.453,103.273 Q137.5327,103.1614 137.6283,103.1057 Q137.7239,103.0499 137.8355,103.0499 Q138.0267,103.0499 138.1463,103.1854 Q138.2658,103.3129 138.2658,103.6236 L138.2658,104.3647 Q138.2658,104.6755 138.1463,104.811 Q138.0267,104.9464 137.8355,104.9464 Q137.6602,104.9464 137.5566,104.8429 Q137.453,104.7472 137.3972,104.4843 Q137.3733,104.301 137.2777,104.2054 Q137.1103,104.0141 136.7995,103.9025 Q136.4888,103.791 136.17,103.791 Q135.7795,103.791 135.4528,103.9583 Q135.1341,104.1257 134.8791,104.5082 Q134.632,104.8907 134.632,105.4166 L134.632,105.9744 Q134.632,106.6039 135.0863,107.0263 Q135.5405,107.4407 136.3533,107.4407 Q136.8314,107.4407 137.1661,107.3132 Q137.3653,107.2335 137.5805,107.0104 Q137.7159,106.8749 137.7877,106.835 Q137.8673,106.7952 137.9709,106.7952 Q138.1383,106.7952 138.2658,106.9307 Q138.4013,107.0582 138.4013,107.2335 Q138.4013,107.4088 138.2259,107.616 Q137.9709,107.9108 137.5645,108.0782 Q137.0147,108.3093 136.3533,108.3093 Q135.5803,108.3093 134.9667,107.9905 Q134.4647,107.7355 134.1141,107.1936 Q133.7634,106.6438 133.7634,105.9904 L133.7634,105.4007 Q133.7634,104.7233 134.0742,104.1416 Q134.393,103.5519 134.9508,103.2411 Q135.5086,102.9224 136.1381,102.9224 Q136.5127,102.9224 136.8394,103.01 Q137.1741,103.0897 137.453,103.273 Z " fill="#000000"/><text fill="#000000" font-family="sans-serif" font-size="7.14" lengthAdjust="spacing" textLength="54.57" x="146.4975" y="108.3332">SignUpController</text><line style="stroke:#181818;stroke-width:0.255;" x1="110.415" x2="220.575" y1="113.5368" y2="113.5368"/><line style="stroke:#181818;stroke-width:0.255;" x1="110.415" x2="220.575" y1="117.6168" y2="117.6168"/><text fill="#000000" font-family="sans-serif" font-size="7.14" lengthAdjust="spacing" textLength="48.96" x="112.965" y="127.3615">+requestData()</text><text fill="#000000" font-family="sans-serif" font-size="7.14" lengthAdjust="spacing" textLength="50.49" x="112.965" y="136.8583">+getPassword()</text><text fill="#000000" font-family="sans-serif" font-size="7.14" lengthAdjust="spacing" textLength="36.72" x="112.965" y="146.3551">+getEmail()</text><text fill="#000000" font-family="sans-serif" font-size="7.14" lengthAdjust="spacing" textLength="58.65" x="112.965" y="155.8518">+verifyData(client)</text><text fill="#000000" font-family="sans-serif" font-size="7.14" lengthAdjust="spacing" textLength="74.97" x="112.965" y="165.3486">+verifyIfNewUser(email)</text><text fill="#000000" font-family="sans-serif" font-size="7.14" lengthAdjust="spacing" textLength="71.91" x="112.965" y="174.8453">+createNewUser(user)</text><text fill="#000000" font-family="sans-serif" font-size="7.14" lengthAdjust="spacing" textLength="105.06" x="112.965" y="184.3421">+addAuthentication(copyOfUser)</text></g><!--class AuthenticationRepository--><g id="elem_AuthenticationRepository"><rect codeLine="29" fill="#F1F1F1" height="33.9768" id="AuthenticationRepository" rx="1.275" ry="1.275" style="stroke:#181818;stroke-width:0.255;" width="96.9" x="22.185" y="396.5868"/><ellipse cx="29.835" cy="404.7468" fill="#ADD1B2" rx="5.61" ry="5.61" style="stroke:#181818;stroke-width:0.51;"/><path d="M31.2455,402.643 Q31.3252,402.5314 31.4208,402.4757 Q31.5164,402.4199 31.628,402.4199 Q31.8192,402.4199 31.9388,402.5554 Q32.0583,402.6829 32.0583,402.9936 L32.0583,403.7347 Q32.0583,404.0455 31.9388,404.181 Q31.8192,404.3164 31.628,404.3164 Q31.4527,404.3164 31.3491,404.2129 Q31.2455,404.1172 31.1897,403.8543 Q31.1658,403.671 31.0702,403.5754 Q30.9028,403.3841 30.592,403.2725 Q30.2813,403.161 29.9625,403.161 Q29.572,403.161 29.2453,403.3283 Q28.9266,403.4957 28.6716,403.8782 Q28.4245,404.2607 28.4245,404.7866 L28.4245,405.3444 Q28.4245,405.9739 28.8788,406.3963 Q29.333,406.8107 30.1458,406.8107 Q30.6239,406.8107 30.9586,406.6832 Q31.1578,406.6035 31.373,406.3804 Q31.5084,406.2449 31.5802,406.205 Q31.6598,406.1652 31.7634,406.1652 Q31.9308,406.1652 32.0583,406.3007 Q32.1938,406.4282 32.1938,406.6035 Q32.1938,406.7788 32.0184,406.986 Q31.7634,407.2808 31.357,407.4482 Q30.8072,407.6793 30.1458,407.6793 Q29.3728,407.6793 28.7592,407.3605 Q28.2572,407.1055 27.9066,406.5636 Q27.5559,406.0138 27.5559,405.3604 L27.5559,404.7707 Q27.5559,404.0933 27.8667,403.5116 Q28.1855,402.9219 28.7433,402.6111 Q29.3011,402.2924 29.9306,402.2924 Q30.3052,402.2924 30.6319,402.38 Q30.9666,402.4597 31.2455,402.643 Z " fill="#000000"/><text fill="#000000" font-family="sans-serif" font-size="7.14" lengthAdjust="spacing" textLength="80.58" x="36.975" y="407.7032">AuthenticationRepository</text><line style="stroke:#181818;stroke-width:0.255;" x1="22.695" x2="118.575" y1="412.9068" y2="412.9068"/><line style="stroke:#181818;stroke-width:0.255;" x1="22.695" x2="118.575" y1="416.9868" y2="416.9868"/><text fill="#000000" font-family="sans-serif" font-size="7.14" lengthAdjust="spacing" textLength="84.15" x="25.245" y="426.7315">+getCurrentUserSession()</text></g><!--class Repositories--><g id="elem_Repositories"><rect codeLine="34" fill="#F1F1F1" height="100.4541" id="Repositories" rx="1.275" ry="1.275" style="stroke:#181818;stroke-width:0.255;" width="171.36" x="209.865" y="236.9568"/><ellipse cx="273.2325" cy="245.1168" fill="#ADD1B2" rx="5.61" ry="5.61" style="stroke:#181818;stroke-width:0.51;"/><path d="M274.643,243.013 Q274.7227,242.9014 274.8183,242.8457 Q274.9139,242.7899 275.0255,242.7899 Q275.2167,242.7899 275.3363,242.9254 Q275.4558,243.0529 275.4558,243.3636 L275.4558,244.1047 Q275.4558,244.4155 275.3363,244.551 Q275.2167,244.6864 275.0255,244.6864 Q274.8502,244.6864 274.7466,244.5829 Q274.643,244.4872 274.5872,244.2243 Q274.5633,244.041 274.4677,243.9454 Q274.3003,243.7541 273.9895,243.6425 Q273.6788,243.531 273.36,243.531 Q272.9695,243.531 272.6428,243.6983 Q272.3241,243.8657 272.0691,244.2482 Q271.822,244.6307 271.822,245.1566 L271.822,245.7144 Q271.822,246.3439 272.2763,246.7663 Q272.7305,247.1807 273.5433,247.1807 Q274.0214,247.1807 274.3561,247.0532 Q274.5553,246.9735 274.7705,246.7504 Q274.9059,246.6149 274.9777,246.575 Q275.0573,246.5352 275.1609,246.5352 Q275.3283,246.5352 275.4558,246.6707 Q275.5913,246.7982 275.5913,246.9735 Q275.5913,247.1488 275.4159,247.356 Q275.1609,247.6508 274.7545,247.8182 Q274.2047,248.0493 273.5433,248.0493 Q272.7703,248.0493 272.1567,247.7305 Q271.6547,247.4755 271.3041,246.9336 Q270.9534,246.3838 270.9534,245.7304 L270.9534,245.1407 Q270.9534,244.4633 271.2642,243.8816 Q271.583,243.2919 272.1408,242.9811 Q272.6986,242.6624 273.3281,242.6624 Q273.7027,242.6624 274.0294,242.75 Q274.3641,242.8297 274.643,243.013 Z " fill="#000000"/><text fill="#000000" font-family="sans-serif" font-size="7.14" lengthAdjust="spacing" textLength="40.29" x="283.6875" y="248.0732">Repositories</text><line style="stroke:#181818;stroke-width:0.255;" x1="210.375" x2="380.715" y1="253.2768" y2="253.2768"/><text fill="#000000" font-family="sans-serif" font-size="7.14" lengthAdjust="spacing" textLength="71.91" x="212.925" y="263.0215">-Repositories instance</text><text fill="#000000" font-family="sans-serif" font-size="7.14" lengthAdjust="spacing" textLength="109.14" x="212.925" y="272.5183">-ClientRepository clientRepository</text><text fill="#000000" font-family="sans-serif" font-size="7.14" lengthAdjust="spacing" textLength="103.02" x="212.925" y="282.0151">-UserRepository userRepository</text><text fill="#000000" font-family="sans-serif" font-size="7.14" lengthAdjust="spacing" textLength="165.24" x="212.925" y="291.5118">-AuthenticationRepository authenticationRepository</text><line style="stroke:#181818;stroke-width:0.255;" x1="210.375" x2="380.715" y1="295.3438" y2="295.3438"/><text fill="#000000" font-family="sans-serif" font-size="7.14" lengthAdjust="spacing" textLength="46.41" x="212.925" y="305.0886">+getInstance()</text><text fill="#000000" font-family="sans-serif" font-size="7.14" lengthAdjust="spacing" textLength="72.42" x="212.925" y="314.5853">+getClientRepository()</text><text fill="#000000" font-family="sans-serif" font-size="7.14" lengthAdjust="spacing" textLength="68.85" x="212.925" y="324.0821">+getUserRepository()</text><text fill="#000000" font-family="sans-serif" font-size="7.14" lengthAdjust="spacing" textLength="99.96" x="212.925" y="333.5788">+getAuthenticationRepository()</text></g><!--class ClientRepository--><g id="elem_ClientRepository"><rect codeLine="46" fill="#F1F1F1" height="71.9638" id="ClientRepository" rx="1.275" ry="1.275" style="stroke:#181818;stroke-width:0.255;" width="69.36" x="217.515" y="377.7168"/><ellipse cx="225.165" cy="385.8768" fill="#ADD1B2" rx="5.61" ry="5.61" style="stroke:#181818;stroke-width:0.51;"/><path d="M226.5755,383.773 Q226.6552,383.6614 226.7508,383.6057 Q226.8464,383.5499 226.958,383.5499 Q227.1492,383.5499 227.2688,383.6854 Q227.3883,383.8129 227.3883,384.1236 L227.3883,384.8647 Q227.3883,385.1755 227.2688,385.311 Q227.1492,385.4464 226.958,385.4464 Q226.7827,385.4464 226.6791,385.3429 Q226.5755,385.2472 226.5197,384.9843 Q226.4958,384.801 226.4002,384.7054 Q226.2328,384.5141 225.922,384.4025 Q225.6113,384.291 225.2925,384.291 Q224.902,384.291 224.5753,384.4583 Q224.2566,384.6257 224.0016,385.0082 Q223.7545,385.3907 223.7545,385.9166 L223.7545,386.4744 Q223.7545,387.1039 224.2088,387.5263 Q224.663,387.9407 225.4758,387.9407 Q225.9539,387.9407 226.2886,387.8132 Q226.4878,387.7335 226.703,387.5104 Q226.8384,387.3749 226.9102,387.335 Q226.9898,387.2952 227.0934,387.2952 Q227.2608,387.2952 227.3883,387.4307 Q227.5238,387.5582 227.5238,387.7335 Q227.5238,387.9088 227.3484,388.116 Q227.0934,388.4108 226.687,388.5782 Q226.1372,388.8093 225.4758,388.8093 Q224.7028,388.8093 224.0892,388.4905 Q223.5872,388.2355 223.2366,387.6936 Q222.8859,387.1438 222.8859,386.4904 L222.8859,385.9007 Q222.8859,385.2233 223.1967,384.6416 Q223.5155,384.0519 224.0733,383.7411 Q224.6311,383.4224 225.2606,383.4224 Q225.6352,383.4224 225.9619,383.51 Q226.2966,383.5897 226.5755,383.773 Z " fill="#000000"/><text fill="#000000" font-family="sans-serif" font-size="7.14" lengthAdjust="spacing" textLength="53.04" x="232.305" y="388.8332">ClientRepository</text><line style="stroke:#181818;stroke-width:0.255;" x1="218.025" x2="286.365" y1="394.0368" y2="394.0368"/><text fill="#000000" font-family="sans-serif" font-size="7.14" lengthAdjust="spacing" textLength="62.73" x="220.575" y="403.7815">-List&lt;Client&gt; clients</text><line style="stroke:#181818;stroke-width:0.255;" x1="218.025" x2="286.365" y1="407.6135" y2="407.6135"/><text fill="#000000" font-family="sans-serif" font-size="7.14" lengthAdjust="spacing" textLength="34.17" x="220.575" y="417.3583">+isEmpty()</text><text fill="#000000" font-family="sans-serif" font-size="7.14" lengthAdjust="spacing" textLength="35.7" x="220.575" y="426.8551">+add(user)</text><text fill="#000000" font-family="sans-serif" font-size="7.14" lengthAdjust="spacing" textLength="63.24" x="220.575" y="436.3518">+validateUser(user)</text><text fill="#000000" font-family="sans-serif" font-size="7.14" lengthAdjust="spacing" textLength="34.17" x="220.575" y="445.8486">+getUser()</text></g><!--class UserRepository--><g id="elem_UserRepository"><rect codeLine="55" fill="#F1F1F1" height="71.9638" id="UserRepository" rx="1.275" ry="1.275" style="stroke:#181818;stroke-width:0.255;" width="69.36" x="327.165" y="377.7168"/><ellipse cx="336.4215" cy="385.8768" fill="#ADD1B2" rx="5.61" ry="5.61" style="stroke:#181818;stroke-width:0.51;"/><path d="M337.832,383.773 Q337.9117,383.6614 338.0073,383.6057 Q338.1029,383.5499 338.2145,383.5499 Q338.4057,383.5499 338.5252,383.6854 Q338.6448,383.8129 338.6448,384.1236 L338.6448,384.8647 Q338.6448,385.1755 338.5252,385.311 Q338.4057,385.4464 338.2145,385.4464 Q338.0392,385.4464 337.9356,385.3429 Q337.832,385.2472 337.7762,384.9843 Q337.7523,384.801 337.6567,384.7054 Q337.4893,384.5141 337.1785,384.4025 Q336.8678,384.291 336.549,384.291 Q336.1585,384.291 335.8318,384.4583 Q335.5131,384.6257 335.2581,385.0082 Q335.011,385.3907 335.011,385.9166 L335.011,386.4744 Q335.011,387.1039 335.4652,387.5263 Q335.9195,387.9407 336.7323,387.9407 Q337.2104,387.9407 337.5451,387.8132 Q337.7443,387.7335 337.9595,387.5104 Q338.0949,387.3749 338.1667,387.335 Q338.2463,387.2952 338.3499,387.2952 Q338.5173,387.2952 338.6448,387.4307 Q338.7802,387.5582 338.7802,387.7335 Q338.7802,387.9088 338.6049,388.116 Q338.3499,388.4108 337.9435,388.5782 Q337.3937,388.8093 336.7323,388.8093 Q335.9593,388.8093 335.3457,388.4905 Q334.8437,388.2355 334.4931,387.6936 Q334.1424,387.1438 334.1424,386.4904 L334.1424,385.9007 Q334.1424,385.2233 334.4532,384.6416 Q334.772,384.0519 335.3298,383.7411 Q335.8876,383.4224 336.5171,383.4224 Q336.8917,383.4224 337.2184,383.51 Q337.5531,383.5897 337.832,383.773 Z " fill="#000000"/><text fill="#000000" font-family="sans-serif" font-size="7.14" lengthAdjust="spacing" textLength="49.47" x="343.9185" y="388.8332">UserRepository</text><line style="stroke:#181818;stroke-width:0.255;" x1="327.675" x2="396.015" y1="394.0368" y2="394.0368"/><text fill="#000000" font-family="sans-serif" font-size="7.14" lengthAdjust="spacing" textLength="56.61" x="330.225" y="403.7815">-List&lt;User&gt; users</text><line style="stroke:#181818;stroke-width:0.255;" x1="327.675" x2="396.015" y1="407.6135" y2="407.6135"/><text fill="#000000" font-family="sans-serif" font-size="7.14" lengthAdjust="spacing" textLength="34.17" x="330.225" y="417.3583">+isEmpty()</text><text fill="#000000" font-family="sans-serif" font-size="7.14" lengthAdjust="spacing" textLength="35.7" x="330.225" y="426.8551">+add(user)</text><text fill="#000000" font-family="sans-serif" font-size="7.14" lengthAdjust="spacing" textLength="63.24" x="330.225" y="436.3518">+validateUser(user)</text><text fill="#000000" font-family="sans-serif" font-size="7.14" lengthAdjust="spacing" textLength="34.17" x="330.225" y="445.8486">+getUser()</text></g><!--class User--><g id="elem_User"><rect codeLine="64" fill="#F1F1F1" height="52.9703" id="User" rx="1.275" ry="1.275" style="stroke:#181818;stroke-width:0.255;" width="47.43" x="338.13" y="518.4768"/><ellipse cx="353.124" cy="526.6368" fill="#ADD1B2" rx="5.61" ry="5.61" style="stroke:#181818;stroke-width:0.51;"/><path d="M354.5345,524.533 Q354.6142,524.4214 354.7098,524.3657 Q354.8054,524.3099 354.917,524.3099 Q355.1082,524.3099 355.2278,524.4454 Q355.3473,524.5729 355.3473,524.8836 L355.3473,525.6247 Q355.3473,525.9355 355.2278,526.071 Q355.1082,526.2064 354.917,526.2064 Q354.7417,526.2064 354.6381,526.1029 Q354.5345,526.0072 354.4787,525.7443 Q354.4548,525.561 354.3592,525.4654 Q354.1918,525.2741 353.881,525.1625 Q353.5703,525.051 353.2515,525.051 Q352.861,525.051 352.5343,525.2183 Q352.2156,525.3857 351.9606,525.7682 Q351.7135,526.1507 351.7135,526.6766 L351.7135,527.2344 Q351.7135,527.8639 352.1678,528.2863 Q352.622,528.7007 353.4348,528.7007 Q353.9129,528.7007 354.2476,528.5732 Q354.4468,528.4935 354.662,528.2704 Q354.7974,528.1349 354.8692,528.095 Q354.9488,528.0552 355.0524,528.0552 Q355.2198,528.0552 355.3473,528.1907 Q355.4828,528.3182 355.4828,528.4935 Q355.4828,528.6688 355.3074,528.876 Q355.0524,529.1708 354.646,529.3382 Q354.0962,529.5693 353.4348,529.5693 Q352.6618,529.5693 352.0482,529.2505 Q351.5462,528.9955 351.1956,528.4536 Q350.8449,527.9038 350.8449,527.2504 L350.8449,526.6607 Q350.8449,525.9833 351.1557,525.4016 Q351.4745,524.8119 352.0323,524.5011 Q352.5901,524.1824 353.2196,524.1824 Q353.5942,524.1824 353.9209,524.27 Q354.2556,524.3497 354.5345,524.533 Z " fill="#000000"/><text fill="#000000" font-family="sans-serif" font-size="7.14" lengthAdjust="spacing" textLength="14.79" x="361.896" y="529.5932">User</text><line style="stroke:#181818;stroke-width:0.255;" x1="338.64" x2="385.05" y1="534.7968" y2="534.7968"/><text fill="#000000" font-family="sans-serif" font-size="7.14" lengthAdjust="spacing" textLength="41.31" x="341.19" y="544.5415">-String name</text><text fill="#000000" font-family="sans-serif" font-size="7.14" lengthAdjust="spacing" textLength="40.29" x="341.19" y="554.0383">-String email</text><text fill="#000000" font-family="sans-serif" font-size="7.14" lengthAdjust="spacing" textLength="36.21" x="341.19" y="563.5351">-String pwd</text><line style="stroke:#181818;stroke-width:0.255;" x1="338.64" x2="385.05" y1="567.367" y2="567.367"/></g><!--class Client--><g id="elem_Client"><rect codeLine="70" fill="#F1F1F1" height="109.9508" id="Client" rx="1.275" ry="1.275" style="stroke:#181818;stroke-width:0.255;" width="87.72" x="208.335" y="489.9168"/><ellipse cx="240.8475" cy="498.0768" fill="#ADD1B2" rx="5.61" ry="5.61" style="stroke:#181818;stroke-width:0.51;"/><path d="M242.258,495.973 Q242.3377,495.8614 242.4333,495.8057 Q242.5289,495.7499 242.6405,495.7499 Q242.8317,495.7499 242.9513,495.8854 Q243.0708,496.0129 243.0708,496.3236 L243.0708,497.0647 Q243.0708,497.3755 242.9513,497.511 Q242.8317,497.6464 242.6405,497.6464 Q242.4652,497.6464 242.3616,497.5429 Q242.258,497.4472 242.2022,497.1843 Q242.1783,497.001 242.0827,496.9054 Q241.9153,496.7141 241.6045,496.6025 Q241.2938,496.491 240.975,496.491 Q240.5845,496.491 240.2578,496.6583 Q239.9391,496.8257 239.6841,497.2082 Q239.437,497.5907 239.437,498.1166 L239.437,498.6744 Q239.437,499.3039 239.8913,499.7263 Q240.3455,500.1407 241.1583,500.1407 Q241.6364,500.1407 241.9711,500.0132 Q242.1703,499.9335 242.3855,499.7104 Q242.5209,499.5749 242.5927,499.535 Q242.6723,499.4952 242.7759,499.4952 Q242.9433,499.4952 243.0708,499.6307 Q243.2063,499.7582 243.2063,499.9335 Q243.2063,500.1088 243.0309,500.316 Q242.7759,500.6108 242.3695,500.7782 Q241.8197,501.0093 241.1583,501.0093 Q240.3853,501.0093 239.7717,500.6905 Q239.2697,500.4355 238.9191,499.8936 Q238.5684,499.3438 238.5684,498.6904 L238.5684,498.1007 Q238.5684,497.4233 238.8792,496.8416 Q239.198,496.2519 239.7558,495.9411 Q240.3136,495.6224 240.9431,495.6224 Q241.3177,495.6224 241.6444,495.71 Q241.9791,495.7897 242.258,495.973 Z " fill="#000000"/><text fill="#000000" font-family="sans-serif" font-size="7.14" lengthAdjust="spacing" textLength="18.36" x="251.3025" y="501.0332">Client</text><line style="stroke:#181818;stroke-width:0.255;" x1="208.845" x2="295.545" y1="506.2368" y2="506.2368"/><text fill="#000000" font-family="sans-serif" font-size="7.14" lengthAdjust="spacing" textLength="41.31" x="211.395" y="515.9815">-String name</text><text fill="#000000" font-family="sans-serif" font-size="7.14" lengthAdjust="spacing" textLength="65.28" x="211.395" y="525.4783">-int passportNumber</text><text fill="#000000" font-family="sans-serif" font-size="7.14" lengthAdjust="spacing" textLength="81.6" x="211.395" y="534.9751">-int socialSecurityNumber</text><text fill="#000000" font-family="sans-serif" font-size="7.14" lengthAdjust="spacing" textLength="40.29" x="211.395" y="544.4718">-String email</text><text fill="#000000" font-family="sans-serif" font-size="7.14" lengthAdjust="spacing" textLength="43.86" x="211.395" y="553.9686">-String phone</text><text fill="#000000" font-family="sans-serif" font-size="7.14" lengthAdjust="spacing" textLength="36.21" x="211.395" y="563.4653">-String pwd</text><line style="stroke:#181818;stroke-width:0.255;" x1="208.845" x2="295.545" y1="567.2973" y2="567.2973"/><text fill="#000000" font-family="sans-serif" font-size="7.14" lengthAdjust="spacing" textLength="51" x="211.395" y="577.0421">+listProperties()</text><text fill="#000000" font-family="sans-serif" font-size="7.14" lengthAdjust="spacing" textLength="79.56" x="211.395" y="586.5388">+sendPropertyRequest()</text><text fill="#000000" font-family="sans-serif" font-size="7.14" lengthAdjust="spacing" textLength="48.45" x="211.395" y="596.0356">+buyProperty()</text></g><!--class GenerateAndSavePassword--><g id="elem_GenerateAndSavePassword"><rect codeLine="83" fill="#F1F1F1" height="52.9703" id="GenerateAndSavePassword" rx="1.275" ry="1.275" style="stroke:#181818;stroke-width:0.255;" width="107.1" x="306.765" y="116.0868"/><ellipse cx="314.415" cy="124.2468" fill="#ADD1B2" rx="5.61" ry="5.61" style="stroke:#181818;stroke-width:0.51;"/><path d="M315.8255,122.143 Q315.9052,122.0314 316.0008,121.9757 Q316.0964,121.9199 316.208,121.9199 Q316.3992,121.9199 316.5188,122.0554 Q316.6383,122.1829 316.6383,122.4936 L316.6383,123.2347 Q316.6383,123.5455 316.5188,123.681 Q316.3992,123.8164 316.208,123.8164 Q316.0327,123.8164 315.9291,123.7129 Q315.8255,123.6172 315.7697,123.3543 Q315.7458,123.171 315.6502,123.0754 Q315.4828,122.8841 315.172,122.7725 Q314.8613,122.661 314.5425,122.661 Q314.152,122.661 313.8253,122.8283 Q313.5066,122.9957 313.2516,123.3782 Q313.0045,123.7607 313.0045,124.2866 L313.0045,124.8444 Q313.0045,125.4739 313.4588,125.8963 Q313.913,126.3107 314.7258,126.3107 Q315.2039,126.3107 315.5386,126.1832 Q315.7378,126.1035 315.953,125.8804 Q316.0884,125.7449 316.1602,125.705 Q316.2398,125.6652 316.3434,125.6652 Q316.5108,125.6652 316.6383,125.8007 Q316.7738,125.9282 316.7738,126.1035 Q316.7738,126.2788 316.5984,126.486 Q316.3434,126.7808 315.937,126.9482 Q315.3872,127.1793 314.7258,127.1793 Q313.9528,127.1793 313.3392,126.8605 Q312.8372,126.6055 312.4866,126.0636 Q312.1359,125.5138 312.1359,124.8604 L312.1359,124.2707 Q312.1359,123.5933 312.4467,123.0116 Q312.7655,122.4219 313.3233,122.1111 Q313.8811,121.7924 314.5106,121.7924 Q314.8852,121.7924 315.2119,121.88 Q315.5466,121.9597 315.8255,122.143 Z " fill="#000000"/><text fill="#000000" font-family="sans-serif" font-size="7.14" lengthAdjust="spacing" textLength="90.78" x="321.555" y="127.2032">GenerateAndSavePassword</text><line style="stroke:#181818;stroke-width:0.255;" x1="307.275" x2="413.355" y1="132.4068" y2="132.4068"/><line style="stroke:#181818;stroke-width:0.255;" x1="307.275" x2="413.355" y1="136.4868" y2="136.4868"/><text fill="#000000" font-family="sans-serif" font-size="7.14" lengthAdjust="spacing" textLength="69.36" x="309.825" y="146.2315">+generatePassword()</text><text fill="#000000" font-family="sans-serif" font-size="7.14" lengthAdjust="spacing" textLength="91.29" x="309.825" y="155.7283">+sendClientPassword(client)</text><text fill="#000000" font-family="sans-serif" font-size="7.14" lengthAdjust="spacing" textLength="88.23" x="309.825" y="165.2251">+verifyPassword(password)</text></g><!--link UnregisteredUser to SignUpUI--><g id="link_UnregisteredUser_SignUpUI"><path codeLine="90" d="M68.3553,48.3027 C62.7045,52.449 57.0945,57.5898 53.295,63.5568 C43.8804,78.3468 39.6525,97.5534 37.791,113.2716 " fill="none" id="UnregisteredUser-to-SignUpUI" style="stroke:#181818;stroke-width:0.51;"/><polygon fill="#181818" points="37.4901,115.9593,40.0286,111.625,37.7741,113.4251,35.974,111.1706,37.4901,115.9593" style="stroke:#181818;stroke-width:0.51;"/><text fill="#000000" font-family="sans-serif" font-size="6.63" lengthAdjust="spacing" textLength="12.75" x="53.805" y="75.5562">runs</text></g><!--link SignUpUI to SignUpController--><g id="link_SignUpUI_SignUpController"><path codeLine="91" d="M69.5283,142.6068 C81.0084,142.6068 94.2429,142.6068 107.151,142.6068 " fill="none" id="SignUpUI-to-SignUpController" style="stroke:#181818;stroke-width:0.51;"/><polygon fill="#181818" points="109.7265,142.6068,105.1365,140.5668,107.1765,142.6068,105.1365,144.6468,109.7265,142.6068" style="stroke:#181818;stroke-width:0.51;"/><text fill="#000000" font-family="sans-serif" font-size="6.63" lengthAdjust="spacing" textLength="21.93" x="78.6675" y="139.0512">creates</text></g><!--reverse link UnregisteredUser to SignUpController--><g id="link_UnregisteredUser_SignUpController"><path codeLine="93" d="M127.5459,49.2513 C134.334,52.959 140.7651,57.6561 145.605,63.5568 C153.408,73.0734 158.202,85.2624 161.1294,97.1811 " fill="none" id="UnregisteredUser-backto-SignUpController" style="stroke:#181818;stroke-width:0.51;"/><polygon fill="#181818" points="125.2305,48.0273,128.3385,51.9732,127.4859,49.217,130.2421,48.3645,125.2305,48.0273" style="stroke:#181818;stroke-width:0.51;"/><text fill="#000000" font-family="sans-serif" font-size="6.63" lengthAdjust="spacing" textLength="54.57" x="156.315" y="71.2212">request necessary</text><text fill="#000000" font-family="sans-serif" font-size="6.63" lengthAdjust="spacing" textLength="32.13" x="167.535" y="80.0396">information</text></g><!--link UnregisteredUser to SignUpController--><g id="link_UnregisteredUser_SignUpController"><path codeLine="94" d="M84.8334,48.3588 C82.2069,57.9162 80.1975,71.4516 85.425,81.9168 C90.6627,92.4024 98.6901,101.5416 107.6814,109.3089 " fill="none" id="UnregisteredUser-to-SignUpController" style="stroke:#181818;stroke-width:0.51;"/><polygon fill="#181818" points="109.7367,111.048,107.5512,106.5254,107.7903,109.4005,104.9153,109.6396,109.7367,111.048" style="stroke:#181818;stroke-width:0.51;"/><text fill="#000000" font-family="sans-serif" font-size="6.63" lengthAdjust="spacing" textLength="55.08" x="85.935" y="71.2212">provides requested</text><text fill="#000000" font-family="sans-serif" font-size="6.63" lengthAdjust="spacing" textLength="32.13" x="97.41" y="80.0396">information</text></g><!--link SignUpController to Repositories--><g id="link_SignUpController_Repositories"><path codeLine="95" d="M206.2848,188.1498 C219.6876,202.9449 234.6969,219.5097 248.523,234.7689 " fill="none" id="SignUpController-to-Repositories" style="stroke:#181818;stroke-width:0.51;"/><polygon fill="#181818" points="250.3743,236.8191,248.8008,232.049,248.6608,234.9306,245.7792,234.7906,250.3743,236.8191" style="stroke:#181818;stroke-width:0.51;"/><text fill="#000000" font-family="sans-serif" font-size="6.63" lengthAdjust="spacing" textLength="12.75" x="244.545" y="210.9612">gets</text><text fill="#000000" font-family="sans-serif" font-size="6.63" lengthAdjust="spacing" textLength="32.13" x="234.855" y="219.7796">instance of</text></g><!--link Repositories to UserRepository--><g id="link_Repositories_UserRepository"><path codeLine="97" d="M321.8457,337.4676 C328.4859,350.0391 335.5137,363.3348 341.7918,375.2178 " fill="none" id="Repositories-to-UserRepository" style="stroke:#181818;stroke-width:0.51;"/><polygon fill="#181818" points="343.0413,377.574,342.6981,372.5628,341.8489,375.3199,339.0917,374.4707,343.0413,377.574" style="stroke:#181818;stroke-width:0.51;"/><text fill="#000000" font-family="sans-serif" font-size="6.63" lengthAdjust="spacing" textLength="24.99" x="334.815" y="360.3912">contains</text></g><!--link Repositories to AuthenticationRepository--><g id="link_Repositories_AuthenticationRepository"><path codeLine="98" d="M209.712,335.5806 C172.2423,356.4804 130.5855,379.7211 102.7191,395.2659 " fill="none" id="Repositories-to-AuthenticationRepository" style="stroke:#181818;stroke-width:0.51;"/><polygon fill="#181818" points="100.4037,396.5562,105.405,396.0909,102.628,395.3091,103.4097,392.5321,100.4037,396.5562" style="stroke:#181818;stroke-width:0.51;"/><text fill="#000000" font-family="sans-serif" font-size="6.63" lengthAdjust="spacing" textLength="24.99" x="176.715" y="360.3912">contains</text></g><!--link Repositories to ClientRepository--><g id="link_Repositories_ClientRepository"><path codeLine="99" d="M278.3478,337.4676 C274.023,349.9881 269.4483,363.2226 265.3581,375.0699 " fill="none" id="Repositories-to-ClientRepository" style="stroke:#181818;stroke-width:0.51;"/><polygon fill="#181818" points="264.4911,377.574,267.9146,373.8984,265.3215,375.1629,264.057,372.5698,264.4911,377.574" style="stroke:#181818;stroke-width:0.51;"/><text fill="#000000" font-family="sans-serif" font-size="6.63" lengthAdjust="spacing" textLength="24.99" x="272.595" y="360.3912">contains</text></g><!--link SignUpController to GenerateAndSavePassword--><g id="link_SignUpController_GenerateAndSavePassword"><path codeLine="100" d="M221.1921,142.6068 C247.1766,142.6068 278.0418,142.6068 304.0926,142.6068 " fill="none" id="SignUpController-to-GenerateAndSavePassword" style="stroke:#181818;stroke-width:0.51;"/><polygon fill="#181818" points="306.7599,142.6068,302.1699,140.5668,304.2099,142.6068,302.1699,144.6468,306.7599,142.6068" style="stroke:#181818;stroke-width:0.51;"/><text fill="#000000" font-family="sans-serif" font-size="6.63" lengthAdjust="spacing" textLength="66.81" x="230.52" y="139.0512">gets password through</text></g><!--link SignUpController to AuthenticationRepository--><g id="link_SignUpController_AuthenticationRepository"><path codeLine="101" d="M109.8336,173.8035 C87.2559,189.4707 63.6225,210.7938 51.255,236.9568 C26.4537,289.4307 48.7101,360.2136 62.1537,393.8583 " fill="none" id="SignUpController-to-AuthenticationRepository" style="stroke:#181818;stroke-width:0.51;"/><polygon fill="#181818" points="63.1839,396.4083,63.36,391.3884,62.2306,394.0432,59.5759,392.9137,63.1839,396.4083" style="stroke:#181818;stroke-width:0.51;"/><text fill="#000000" font-family="sans-serif" font-size="6.63" lengthAdjust="spacing" textLength="54.06" x="51.765" y="290.0112">registers new user</text></g><!--link SignUpController to UserRepository--><g id="link_SignUpController_UserRepository"><path codeLine="102" d="M221.2125,162.7059 C284.5239,185.5233 380.4345,221.9934 390.405,236.9568 C417.9807,278.3433 399.7635,337.0851 382.3266,375.1566 " fill="none" id="SignUpController-to-UserRepository" style="stroke:#181818;stroke-width:0.51;"/><polygon fill="#181818" points="381.1791,377.6352,384.9568,374.3248,382.2491,375.3205,381.2533,372.6128,381.1791,377.6352" style="stroke:#181818;stroke-width:0.51;"/><text fill="#000000" font-family="sans-serif" font-size="6.63" lengthAdjust="spacing" textLength="66.3" x="410.805" y="281.3412">registers if successful,</text><text fill="#000000" font-family="sans-serif" font-size="6.63" lengthAdjust="spacing" textLength="78.54" x="404.685" y="290.1596">loops "requests necessary</text><text fill="#000000" font-family="sans-serif" font-size="6.63" lengthAdjust="spacing" textLength="51" x="418.455" y="298.978">information" if not</text></g><!--link SignUpController to ClientRepository--><g id="link_SignUpController_ClientRepository"><path codeLine="103" d="M138.4548,188.1345 C117.6264,229.1334 96.3084,290.2824 121.635,337.4268 C140.6121,372.7494 183.5439,392.9046 215.0211,403.4004 " fill="none" id="SignUpController-to-ClientRepository" style="stroke:#181818;stroke-width:0.51;"/><polygon fill="#181818" points="217.4538,404.2011,213.7292,400.8311,215.031,403.4056,212.4565,404.7075,217.4538,404.2011" style="stroke:#181818;stroke-width:0.51;"/><text fill="#000000" font-family="sans-serif" font-size="6.63" lengthAdjust="spacing" textLength="66.3" x="128.265" y="281.3412">registers if successful,</text><text fill="#000000" font-family="sans-serif" font-size="6.63" lengthAdjust="spacing" textLength="78.54" x="122.145" y="290.1596">loops "requests necessary</text><text fill="#000000" font-family="sans-serif" font-size="6.63" lengthAdjust="spacing" textLength="51" x="135.915" y="298.978">information" if not</text></g><!--link UserRepository to User--><g id="link_UserRepository_User"><path codeLine="104" d="M361.845,449.79 C361.845,470.5572 361.845,496.4091 361.845,515.8503 " fill="none" id="UserRepository-to-User" style="stroke:#181818;stroke-width:0.51;"/><polygon fill="#181818" points="361.845,518.4309,363.885,513.8409,361.845,515.8809,359.805,513.8409,361.845,518.4309" style="stroke:#181818;stroke-width:0.51;"/><text fill="#000000" font-family="sans-serif" font-size="6.63" lengthAdjust="spacing" textLength="24.99" x="362.355" y="472.5912">contains</text></g><!--link ClientRepository to Client--><g id="link_ClientRepository_Client"><path codeLine="105" d="M252.195,449.79 C252.195,461.3262 252.195,474.4332 252.195,487.1373 " fill="none" id="ClientRepository-to-Client" style="stroke:#181818;stroke-width:0.51;"/><polygon fill="#181818" points="252.195,489.8403,254.235,485.2503,252.195,487.2903,250.155,485.2503,252.195,489.8403" style="stroke:#181818;stroke-width:0.51;"/><text fill="#000000" font-family="sans-serif" font-size="6.63" lengthAdjust="spacing" textLength="24.99" x="252.705" y="472.5912">contains</text></g><!--SRC=[hLHBQ-Cm4BxhLuYUKhg6tXRA4YXfMG9BjzJaLYYAF7P4RKchHuAtx7_VaIqxVgMdtgHlvllcfP5z5r8pmogg6Nzd1QIkBe4Qu8x9eWHYUmTxO9aw2LdGd9LsQE4bi_RUEIFsti6MAvcAlq1l2N72eTeklRtzJbDHIBhJDA6Ru4yV12kGJKX3fpjfe13MWO5iPy7G3_BszaR-TVP0t-dTDk8tnilLDRcn3ToS_BuIxe4vjlB8lvvIDqeweyeIJAS0VppObe7y0jmpUf-KoUBriMAY3ESZ697NZICl1KZNOzly2KuXtHK4PyIv0UQWGzjCRbYMtNjtGARWp0abLrpf-dU-6oSwzda1hQnmojGnOOevRRmnw1A8ALWRf0O2FKM0nKObexkG5eVAWIIRfeYpFkKJW2GXmC31ZwuakPGfPHSCRGLOm3Pc4NiyJIN2u_0Hl1Hqs86f7ZRX5xwg7os-ZfNQDXrX7olj6dcSK3Ui8oj5XZCS3Z2cD8mqJh6B4z1rqwwlYX7ccE9kuU99La5_QHvSVzEdRDg46L4Wfj6kbN5Fljg3QJ6hk61b2jmRuUhEiXpce2ICWZP5bbZwir4QZCENrcmZo2mYzKkxQ07U-xf3XtN-10a6st4livGTeTl3Z-xLjDRXUWRzjimUdQncZ-juQEBDlfaaMP__bZkAtueb_RstdJyFz6bNt18oioLU8sKM0sNR5b097BUMcVfL2fahKpLFUI6hnS3QgAF8S9MZ76HZcNa-g3Fw0-x27s83gzr2gd92HXw1Cbb-h1Wb6NBchXS_Wiz8i_zdu3olONtfUSHgQ3TWwWv6-UAmgF59ebtlBOxdrEpkeiAiAsUUoAdrF8msz-MtLragfIszYcEo5yP-5NXIkSLe2ptwidYJIhgH3ySm2t-Usz3jFm00]--></g></svg>