<?xml version="1.0" encoding="us-ascii" standalone="no"?><svg xmlns="http://www.w3.org/2000/svg" xmlns:xlink="http://www.w3.org/1999/xlink" contentStyleType="text/css" height="878px" preserveAspectRatio="none" style="width:792px;height:878px;background:#FFFFFF;" version="1.1" viewBox="0 0 792 878" width="792.5px" zoomAndPan="magnify"><defs/><g><text fill="#000000" font-family="sans-serif" font-size="7" font-weight="bold" lengthAdjust="spacing" textLength="139.5" x="326.125" y="15.0537">User Story 007 - Sequence Diagram (SD)</text><rect fill="#FFFFFF" height="402.9482" style="stroke:#181818;stroke-width:0.5;" width="5" x="42.5" y="66.6211"/><rect fill="#FFFFFF" height="81.8926" style="stroke:#181818;stroke-width:0.5;" width="5" x="169.5" y="78.2666"/><rect fill="#FFFFFF" height="15.6455" style="stroke:#181818;stroke-width:0.5;" width="5" x="169.5" y="201.7412"/><rect fill="#FFFFFF" height="236.5371" style="stroke:#181818;stroke-width:0.5;" width="5" x="169.5" y="233.0322"/><rect fill="#FFFFFF" height="15.6455" style="stroke:#181818;stroke-width:0.5;" width="5" x="262" y="128.8682"/><rect fill="#FFFFFF" height="583.6318" style="stroke:#181818;stroke-width:0.5;" width="5" x="262" y="248.6777"/><rect fill="#FFFFFF" height="52.4365" style="stroke:#181818;stroke-width:0.5;" width="5" x="264.5" y="330.9053"/><rect fill="#FFFFFF" height="338.5947" style="stroke:#181818;stroke-width:0.5;" width="5" x="264.5" y="489.2148"/><rect fill="#FFFFFF" height="146.3096" style="stroke:#181818;stroke-width:0.5;" width="5" x="267" y="542.4814"/><rect fill="#FFFFFF" height="15.6455" style="stroke:#181818;stroke-width:0.5;" width="5" x="375.5" y="264.3232"/><rect fill="#FFFFFF" height="15.6455" style="stroke:#181818;stroke-width:0.5;" width="5" x="429" y="295.6143"/><rect fill="#FFFFFF" height="15.6455" style="stroke:#181818;stroke-width:0.5;" width="5" x="488.75" y="349.0508"/><rect fill="#FFFFFF" height="104.2275" style="stroke:#181818;stroke-width:0.5;" width="5" x="488.75" y="707.9365"/><rect fill="#FFFFFF" height="21.1455" style="stroke:#181818;stroke-width:0.5;" width="5" x="491.25" y="727.582"/><rect fill="#FFFFFF" height="21.1455" style="stroke:#181818;stroke-width:0.5;" width="5" x="491.25" y="771.873"/><rect fill="#FFFFFF" height="15.6455" style="stroke:#181818;stroke-width:0.5;" width="5" x="567.25" y="560.627"/><rect fill="#FFFFFF" height="15.6455" style="stroke:#181818;stroke-width:0.5;" width="5" x="567.25" y="591.918"/><rect fill="#FFFFFF" height="15.6455" style="stroke:#181818;stroke-width:0.5;" width="5" x="567.25" y="623.209"/><rect fill="#FFFFFF" height="15.6455" style="stroke:#181818;stroke-width:0.5;" width="5" x="640.25" y="654.5"/><rect fill="#FFFFFF" height="4.5" style="stroke:#181818;stroke-width:0.5;" width="5" x="738.25" y="827.8096"/><rect fill="none" height="331.2012" style="stroke:#000000;stroke-width:0.75;" width="521.75" x="5" y="107.5771"/><rect fill="none" height="40.9365" style="stroke:#000000;stroke-width:0.75;" width="290.75" x="10" y="394.3418"/><line style="stroke:#181818;stroke-width:0.25;stroke-dasharray:5.0,5.0;" x1="45" x2="45" y1="61.6211" y2="836.8096"/><line style="stroke:#181818;stroke-width:0.25;stroke-dasharray:5.0,5.0;" x1="171.75" x2="171.75" y1="61.6211" y2="836.8096"/><line style="stroke:#181818;stroke-width:0.25;stroke-dasharray:5.0,5.0;" x1="264.25" x2="264.25" y1="98.1719" y2="836.8096"/><line style="stroke:#181818;stroke-width:0.25;stroke-dasharray:5.0,5.0;" x1="377.75" x2="377.75" y1="61.6211" y2="836.8096"/><line style="stroke:#181818;stroke-width:0.25;stroke-dasharray:5.0,5.0;" x1="431.25" x2="431.25" y1="61.6211" y2="836.8096"/><line style="stroke:#181818;stroke-width:0.25;stroke-dasharray:5.0,5.0;" x1="491.25" x2="491.25" y1="61.6211" y2="836.8096"/><line style="stroke:#181818;stroke-width:0.25;stroke-dasharray:5.0,5.0;" x1="569.75" x2="569.75" y1="516.2754" y2="836.8096"/><line style="stroke:#181818;stroke-width:0.25;stroke-dasharray:5.0,5.0;" x1="642.75" x2="642.75" y1="61.6211" y2="836.8096"/><line style="stroke:#181818;stroke-width:0.25;stroke-dasharray:5.0,5.0;" x1="740.75" x2="740.75" y1="61.6211" y2="836.8096"/><text fill="#000000" font-family="sans-serif" font-size="7" lengthAdjust="spacing" textLength="57" x="15" y="59.8643">Unregistered User</text><ellipse cx="45" cy="26.5605" fill="#E2E2F0" rx="4" ry="4" style="stroke:#181818;stroke-width:0.25;"/><path d="M45,30.5605 L45,44.0605 M38.5,34.5605 L51.5,34.5605 M45,44.0605 L38.5,51.5605 M45,44.0605 L51.5,51.5605 " fill="none" style="stroke:#181818;stroke-width:0.25;"/><text fill="#000000" font-family="sans-serif" font-size="7" lengthAdjust="spacing" textLength="57" x="15" y="843.8633">Unregistered User</text><ellipse cx="45" cy="849.8701" fill="#E2E2F0" rx="4" ry="4" style="stroke:#181818;stroke-width:0.25;"/><path d="M45,853.8701 L45,867.3701 M38.5,857.8701 L51.5,857.8701 M45,867.3701 L38.5,874.8701 M45,867.3701 L51.5,874.8701 " fill="none" style="stroke:#181818;stroke-width:0.25;"/><rect fill="#E2E2F0" height="16.3105" rx="1.25" ry="1.25" style="stroke:#181818;stroke-width:0.25;" width="37.5" x="153.25" y="44.8105"/><text fill="#000000" font-family="sans-serif" font-size="7" lengthAdjust="spacing" textLength="30.5" x="156.75" y="55.8643">:SignUpUI</text><rect fill="#E2E2F0" height="16.3105" rx="1.25" ry="1.25" style="stroke:#181818;stroke-width:0.25;" width="37.5" x="153.25" y="836.3096"/><text fill="#000000" font-family="sans-serif" font-size="7" lengthAdjust="spacing" textLength="30.5" x="156.75" y="847.3633">:SignUpUI</text><rect fill="#E2E2F0" height="16.3105" rx="1.25" ry="1.25" style="stroke:#181818;stroke-width:0.25;" width="62.5" x="233.25" y="836.3096"/><text fill="#000000" font-family="sans-serif" font-size="7" lengthAdjust="spacing" textLength="55.5" x="236.75" y="847.3633">:SignUpController</text><rect fill="#E2E2F0" height="16.3105" rx="1.25" ry="1.25" style="stroke:#181818;stroke-width:0.25;" width="48.5" x="353.75" y="44.8105"/><text fill="#000000" font-family="sans-serif" font-size="7" lengthAdjust="spacing" textLength="41.5" x="357.25" y="55.8643">:Repositories</text><rect fill="#E2E2F0" height="16.3105" rx="1.25" ry="1.25" style="stroke:#181818;stroke-width:0.25;" width="48.5" x="353.75" y="836.3096"/><text fill="#000000" font-family="sans-serif" font-size="7" lengthAdjust="spacing" textLength="41.5" x="357.25" y="847.3633">:Repositories</text><rect fill="#E2E2F0" height="25.6211" rx="1.25" ry="1.25" style="stroke:#181818;stroke-width:0.25;" width="48.5" x="407.25" y="35.5"/><text fill="#000000" font-family="sans-serif" font-size="7" lengthAdjust="spacing" textLength="37" x="413" y="46.5537">repositories</text><text fill="#000000" font-family="sans-serif" font-size="7" lengthAdjust="spacing" textLength="41.5" x="410.75" y="55.8643">:Repositories</text><rect fill="#E2E2F0" height="25.6211" rx="1.25" ry="1.25" style="stroke:#181818;stroke-width:0.25;" width="48.5" x="407.25" y="836.3096"/><text fill="#000000" font-family="sans-serif" font-size="7" lengthAdjust="spacing" textLength="37" x="413" y="847.3633">repositories</text><text fill="#000000" font-family="sans-serif" font-size="7" lengthAdjust="spacing" textLength="41.5" x="410.75" y="856.6738">:Repositories</text><rect fill="#E2E2F0" height="25.6211" rx="1.25" ry="1.25" style="stroke:#181818;stroke-width:0.25;" width="61" x="460.75" y="35.5"/><text fill="#000000" font-family="sans-serif" font-size="7" lengthAdjust="spacing" textLength="50.5" x="466" y="46.5537">clientRepository</text><text fill="#000000" font-family="sans-serif" font-size="7" lengthAdjust="spacing" textLength="54" x="464.25" y="55.8643">:ClientRepository</text><rect fill="#E2E2F0" height="25.6211" rx="1.25" ry="1.25" style="stroke:#181818;stroke-width:0.25;" width="61" x="460.75" y="836.3096"/><text fill="#000000" font-family="sans-serif" font-size="7" lengthAdjust="spacing" textLength="50.5" x="466" y="847.3633">clientRepository</text><text fill="#000000" font-family="sans-serif" font-size="7" lengthAdjust="spacing" textLength="54" x="464.25" y="856.6738">:ClientRepository</text><rect fill="#E2E2F0" height="25.6211" rx="1.25" ry="1.25" style="stroke:#181818;stroke-width:0.25;" width="48" x="545.75" y="836.3096"/><text fill="#000000" font-family="sans-serif" font-size="7" lengthAdjust="spacing" textLength="41" x="549.25" y="847.3633">:copyOfUser:</text><text fill="#000000" font-family="sans-serif" font-size="7" lengthAdjust="spacing" textLength="18" x="560.75" y="856.6738">Client</text><rect fill="#E2E2F0" height="25.6211" rx="1.25" ry="1.25" style="stroke:#181818;stroke-width:0.25;" width="88" x="598.75" y="35.5"/><text fill="#000000" font-family="sans-serif" font-size="7" lengthAdjust="spacing" textLength="78.5" x="603.5" y="46.5537">authenticationRepository</text><text fill="#000000" font-family="sans-serif" font-size="7" lengthAdjust="spacing" textLength="81" x="602.25" y="55.8643">:AuthenticationRepository</text><rect fill="#E2E2F0" height="25.6211" rx="1.25" ry="1.25" style="stroke:#181818;stroke-width:0.25;" width="88" x="598.75" y="836.3096"/><text fill="#000000" font-family="sans-serif" font-size="7" lengthAdjust="spacing" textLength="78.5" x="603.5" y="847.3633">authenticationRepository</text><text fill="#000000" font-family="sans-serif" font-size="7" lengthAdjust="spacing" textLength="81" x="602.25" y="856.6738">:AuthenticationRepository</text><rect fill="#E2E2F0" height="16.3105" rx="1.25" ry="1.25" style="stroke:#181818;stroke-width:0.25;" width="98" x="691.75" y="44.8105"/><text fill="#000000" font-family="sans-serif" font-size="7" lengthAdjust="spacing" textLength="91" x="695.25" y="55.8643">:GenerateAndSavePassword</text><rect fill="#E2E2F0" height="16.3105" rx="1.25" ry="1.25" style="stroke:#181818;stroke-width:0.25;" width="98" x="691.75" y="836.3096"/><text fill="#000000" font-family="sans-serif" font-size="7" lengthAdjust="spacing" textLength="91" x="695.25" y="847.3633">:GenerateAndSavePassword</text><rect fill="#FFFFFF" height="402.9482" style="stroke:#181818;stroke-width:0.5;" width="5" x="42.5" y="66.6211"/><rect fill="#FFFFFF" height="81.8926" style="stroke:#181818;stroke-width:0.5;" width="5" x="169.5" y="78.2666"/><rect fill="#FFFFFF" height="15.6455" style="stroke:#181818;stroke-width:0.5;" width="5" x="169.5" y="201.7412"/><rect fill="#FFFFFF" height="236.5371" style="stroke:#181818;stroke-width:0.5;" width="5" x="169.5" y="233.0322"/><rect fill="#FFFFFF" height="15.6455" style="stroke:#181818;stroke-width:0.5;" width="5" x="262" y="128.8682"/><rect fill="#FFFFFF" height="583.6318" style="stroke:#181818;stroke-width:0.5;" width="5" x="262" y="248.6777"/><rect fill="#FFFFFF" height="52.4365" style="stroke:#181818;stroke-width:0.5;" width="5" x="264.5" y="330.9053"/><rect fill="#FFFFFF" height="338.5947" style="stroke:#181818;stroke-width:0.5;" width="5" x="264.5" y="489.2148"/><rect fill="#FFFFFF" height="146.3096" style="stroke:#181818;stroke-width:0.5;" width="5" x="267" y="542.4814"/><rect fill="#FFFFFF" height="15.6455" style="stroke:#181818;stroke-width:0.5;" width="5" x="375.5" y="264.3232"/><rect fill="#FFFFFF" height="15.6455" style="stroke:#181818;stroke-width:0.5;" width="5" x="429" y="295.6143"/><rect fill="#FFFFFF" height="15.6455" style="stroke:#181818;stroke-width:0.5;" width="5" x="488.75" y="349.0508"/><rect fill="#FFFFFF" height="104.2275" style="stroke:#181818;stroke-width:0.5;" width="5" x="488.75" y="707.9365"/><rect fill="#FFFFFF" height="21.1455" style="stroke:#181818;stroke-width:0.5;" width="5" x="491.25" y="727.582"/><rect fill="#FFFFFF" height="21.1455" style="stroke:#181818;stroke-width:0.5;" width="5" x="491.25" y="771.873"/><rect fill="#FFFFFF" height="15.6455" style="stroke:#181818;stroke-width:0.5;" width="5" x="567.25" y="560.627"/><rect fill="#FFFFFF" height="15.6455" style="stroke:#181818;stroke-width:0.5;" width="5" x="567.25" y="591.918"/><rect fill="#FFFFFF" height="15.6455" style="stroke:#181818;stroke-width:0.5;" width="5" x="567.25" y="623.209"/><rect fill="#FFFFFF" height="15.6455" style="stroke:#181818;stroke-width:0.5;" width="5" x="640.25" y="654.5"/><rect fill="#FFFFFF" height="4.5" style="stroke:#181818;stroke-width:0.5;" width="5" x="738.25" y="827.8096"/><polygon fill="#181818" points="163.5,76.2666,168.5,78.2666,163.5,80.2666,165.5,78.2666" style="stroke:#181818;stroke-width:0.5;"/><line style="stroke:#181818;stroke-width:0.5;" x1="47.5" x2="166.5" y1="78.2666" y2="78.2666"/><text fill="#000000" font-family="sans-serif" font-size="6.5" font-weight="bold" lengthAdjust="spacing" textLength="3.5" x="51" y="75.6353">1</text><text fill="#000000" font-family="sans-serif" font-size="6.5" lengthAdjust="spacing" textLength="86.5" x="56.5" y="75.6353">asks to register in the system</text><polygon fill="#181818" points="227.25,91.9121,232.25,93.9121,227.25,95.9121,229.25,93.9121" style="stroke:#181818;stroke-width:0.5;"/><line style="stroke:#181818;stroke-width:0.5;" x1="174.5" x2="230.25" y1="93.9121" y2="93.9121"/><text fill="#000000" font-family="sans-serif" font-size="6.5" font-weight="bold" lengthAdjust="spacing" textLength="3.5" x="178" y="91.2808">2</text><text fill="#000000" font-family="sans-serif" font-size="6.5" lengthAdjust="spacing" textLength="18" x="183.5" y="91.2808">create</text><rect fill="#E2E2F0" height="16.3105" rx="1.25" ry="1.25" style="stroke:#181818;stroke-width:0.25;" width="62.5" x="233.25" y="82.2666"/><text fill="#000000" font-family="sans-serif" font-size="7" lengthAdjust="spacing" textLength="55.5" x="236.75" y="93.3203">:SignUpController</text><path d="M5,107.5771 L41.5,107.5771 L41.5,112.2227 L36.5,117.2227 L5,117.2227 L5,107.5771 " fill="#EEEEEE" style="stroke:#000000;stroke-width:0.75;"/><rect fill="none" height="331.2012" style="stroke:#000000;stroke-width:0.75;" width="521.75" x="5" y="107.5771"/><text fill="#000000" font-family="sans-serif" font-size="6.5" font-weight="bold" lengthAdjust="spacing" textLength="14" x="12.5" y="115.0913">loop</text><text fill="#000000" font-family="sans-serif" font-size="5.5" font-weight="bold" lengthAdjust="spacing" textLength="26.5" x="49" y="114.5122">[if invalid]</text><polygon fill="#181818" points="256,126.8682,261,128.8682,256,130.8682,258,128.8682" style="stroke:#181818;stroke-width:0.5;"/><line style="stroke:#181818;stroke-width:0.5;" x1="174.5" x2="259" y1="128.8682" y2="128.8682"/><text fill="#000000" font-family="sans-serif" font-size="6.5" font-weight="bold" lengthAdjust="spacing" textLength="3.5" x="178" y="126.2368">3</text><text fill="#000000" font-family="sans-serif" font-size="6.5" lengthAdjust="spacing" textLength="24" x="183.5" y="126.2368">signUp()</text><polygon fill="#181818" points="180,142.5137,175,144.5137,180,146.5137,178,144.5137" style="stroke:#181818;stroke-width:0.5;"/><line style="stroke:#181818;stroke-width:0.5;stroke-dasharray:2.0,2.0;" x1="177" x2="264" y1="144.5137" y2="144.5137"/><text fill="#000000" font-family="sans-serif" font-size="6.5" font-weight="bold" lengthAdjust="spacing" textLength="3.5" x="183" y="141.8823">4</text><text fill="#000000" font-family="sans-serif" font-size="6.5" lengthAdjust="spacing" textLength="39.5" x="188.5" y="141.8823">requests data</text><polygon fill="#181818" points="53,158.1592,48,160.1592,53,162.1592,51,160.1592" style="stroke:#181818;stroke-width:0.5;"/><line style="stroke:#181818;stroke-width:0.5;stroke-dasharray:2.0,2.0;" x1="50" x2="171.5" y1="160.1592" y2="160.1592"/><text fill="#000000" font-family="sans-serif" font-size="6.5" font-weight="bold" lengthAdjust="spacing" textLength="3.5" x="56" y="157.5278">5</text><text fill="#000000" font-family="sans-serif" font-size="6.5" lengthAdjust="spacing" textLength="71.5" x="61.5" y="157.5278">requests necessary data</text><polygon fill="#181818" points="163.5,199.7412,168.5,201.7412,163.5,203.7412,165.5,201.7412" style="stroke:#181818;stroke-width:0.5;"/><line style="stroke:#181818;stroke-width:0.5;" x1="47.5" x2="166.5" y1="201.7412" y2="201.7412"/><text fill="#000000" font-family="sans-serif" font-size="6.5" font-weight="bold" lengthAdjust="spacing" textLength="3.5" x="51" y="186.1416">6</text><text fill="#000000" font-family="sans-serif" font-size="6.5" lengthAdjust="spacing" textLength="94.5" x="56.5" y="173.1733">types needed information (name,</text><text fill="#000000" font-family="sans-serif" font-size="6.5" lengthAdjust="spacing" textLength="100" x="58.5" y="181.8188">citizen's card number, tax number,</text><text fill="#000000" font-family="sans-serif" font-size="6.5" lengthAdjust="spacing" textLength="107" x="56.5" y="190.4644">email and contact telephone number)</text><text fill="#000000" font-family="sans-serif" font-size="6.5" lengthAdjust="spacing" textLength="97.5" x="58.5" y="199.1099">and optional information (address)</text><polygon fill="#181818" points="53,215.3867,48,217.3867,53,219.3867,51,217.3867" style="stroke:#181818;stroke-width:0.5;"/><line style="stroke:#181818;stroke-width:0.5;stroke-dasharray:2.0,2.0;" x1="50" x2="171.5" y1="217.3867" y2="217.3867"/><text fill="#000000" font-family="sans-serif" font-size="6.5" font-weight="bold" lengthAdjust="spacing" textLength="3.5" x="56" y="214.7554">7</text><text fill="#000000" font-family="sans-serif" font-size="6.5" lengthAdjust="spacing" textLength="63.5" x="61.5" y="214.7554">shows requested data</text><polygon fill="#181818" points="163.5,231.0322,168.5,233.0322,163.5,235.0322,165.5,233.0322" style="stroke:#181818;stroke-width:0.5;"/><line style="stroke:#181818;stroke-width:0.5;" x1="47.5" x2="166.5" y1="233.0322" y2="233.0322"/><text fill="#000000" font-family="sans-serif" font-size="6.5" font-weight="bold" lengthAdjust="spacing" textLength="3.5" x="51" y="230.4009">8</text><text fill="#000000" font-family="sans-serif" font-size="6.5" lengthAdjust="spacing" textLength="37.5" x="56.5" y="230.4009">submits data</text><polygon fill="#181818" points="256,246.6777,261,248.6777,256,250.6777,258,248.6777" style="stroke:#181818;stroke-width:0.5;"/><line style="stroke:#181818;stroke-width:0.5;" x1="174.5" x2="259" y1="248.6777" y2="248.6777"/><text fill="#000000" font-family="sans-serif" font-size="6.5" font-weight="bold" lengthAdjust="spacing" textLength="3.5" x="178" y="246.0464">9</text><text fill="#000000" font-family="sans-serif" font-size="6.5" lengthAdjust="spacing" textLength="49.5" x="183.5" y="246.0464">submitData(user)</text><polygon fill="#181818" points="369.5,262.3232,374.5,264.3232,369.5,266.3232,371.5,264.3232" style="stroke:#181818;stroke-width:0.5;"/><line style="stroke:#181818;stroke-width:0.5;" x1="267" x2="372.5" y1="264.3232" y2="264.3232"/><text fill="#000000" font-family="sans-serif" font-size="6.5" font-weight="bold" lengthAdjust="spacing" textLength="7" x="270.5" y="261.6919">10</text><text fill="#000000" font-family="sans-serif" font-size="6.5" lengthAdjust="spacing" textLength="37.5" x="279.5" y="261.6919">getInstance()</text><polygon fill="#181818" points="272.5,277.9688,267.5,279.9688,272.5,281.9688,270.5,279.9688" style="stroke:#181818;stroke-width:0.5;"/><line style="stroke:#181818;stroke-width:0.5;stroke-dasharray:2.0,2.0;" x1="269.5" x2="377.5" y1="279.9688" y2="279.9688"/><text fill="#000000" font-family="sans-serif" font-size="6.5" font-weight="bold" lengthAdjust="spacing" textLength="7" x="275.5" y="277.3374">11</text><text fill="#000000" font-family="sans-serif" font-size="6.5" lengthAdjust="spacing" textLength="33.5" x="284.5" y="277.3374">repositories</text><polygon fill="#181818" points="423,293.6143,428,295.6143,423,297.6143,425,295.6143" style="stroke:#181818;stroke-width:0.5;"/><line style="stroke:#181818;stroke-width:0.5;" x1="267" x2="426" y1="295.6143" y2="295.6143"/><text fill="#000000" font-family="sans-serif" font-size="6.5" font-weight="bold" lengthAdjust="spacing" textLength="7" x="270.5" y="292.9829">12</text><text fill="#000000" font-family="sans-serif" font-size="6.5" lengthAdjust="spacing" textLength="60.5" x="279.5" y="292.9829">getClientRepository()</text><polygon fill="#181818" points="272.5,309.2598,267.5,311.2598,272.5,313.2598,270.5,311.2598" style="stroke:#181818;stroke-width:0.5;"/><line style="stroke:#181818;stroke-width:0.5;stroke-dasharray:2.0,2.0;" x1="269.5" x2="431" y1="311.2598" y2="311.2598"/><text fill="#000000" font-family="sans-serif" font-size="6.5" font-weight="bold" lengthAdjust="spacing" textLength="7" x="275.5" y="308.6284">13</text><text fill="#000000" font-family="sans-serif" font-size="6.5" lengthAdjust="spacing" textLength="46.5" x="284.5" y="308.6284">clientRepository</text><line style="stroke:#181818;stroke-width:0.5;" x1="267" x2="290.5" y1="324.4053" y2="324.4053"/><line style="stroke:#181818;stroke-width:0.5;" x1="290.5" x2="290.5" y1="324.4053" y2="330.9053"/><line style="stroke:#181818;stroke-width:0.5;" x1="270" x2="290.5" y1="330.9053" y2="330.9053"/><polygon fill="#181818" points="275,328.9053,270,330.9053,275,332.9053,273,330.9053" style="stroke:#181818;stroke-width:0.5;"/><text fill="#000000" font-family="sans-serif" font-size="6.5" font-weight="bold" lengthAdjust="spacing" textLength="7" x="273" y="321.7739">14</text><text fill="#000000" font-family="sans-serif" font-size="6.5" lengthAdjust="spacing" textLength="47.5" x="282" y="321.7739">verifyData(client)</text><polygon fill="#181818" points="482.75,347.0508,487.75,349.0508,482.75,351.0508,484.75,349.0508" style="stroke:#181818;stroke-width:0.5;"/><line style="stroke:#181818;stroke-width:0.5;" x1="269.5" x2="485.75" y1="349.0508" y2="349.0508"/><text fill="#000000" font-family="sans-serif" font-size="6.5" font-weight="bold" lengthAdjust="spacing" textLength="7" x="273" y="346.4194">15</text><text fill="#000000" font-family="sans-serif" font-size="6.5" lengthAdjust="spacing" textLength="63" x="282" y="346.4194">verifyIfNewUser(email)</text><polygon fill="#181818" points="275,362.6963,270,364.6963,275,366.6963,273,364.6963" style="stroke:#181818;stroke-width:0.5;"/><line style="stroke:#181818;stroke-width:0.5;stroke-dasharray:2.0,2.0;" x1="272" x2="490.75" y1="364.6963" y2="364.6963"/><text fill="#000000" font-family="sans-serif" font-size="6.5" font-weight="bold" lengthAdjust="spacing" textLength="7" x="278" y="362.0649">16</text><text fill="#000000" font-family="sans-serif" font-size="6.5" lengthAdjust="spacing" textLength="26.5" x="287" y="362.0649">true/false</text><line style="stroke:#181818;stroke-width:0.5;stroke-dasharray:2.0,2.0;" x1="269.5" x2="290.5" y1="382.8418" y2="382.8418"/><line style="stroke:#181818;stroke-width:0.5;stroke-dasharray:2.0,2.0;" x1="290.5" x2="290.5" y1="382.8418" y2="389.3418"/><line style="stroke:#181818;stroke-width:0.5;stroke-dasharray:2.0,2.0;" x1="267" x2="290.5" y1="389.3418" y2="389.3418"/><polygon fill="#181818" points="272,387.3418,267,389.3418,272,391.3418,270,389.3418" style="stroke:#181818;stroke-width:0.5;"/><text fill="#000000" font-family="sans-serif" font-size="6.5" font-weight="bold" lengthAdjust="spacing" textLength="7" x="273" y="380.2104">17</text><text fill="#000000" font-family="sans-serif" font-size="6.5" lengthAdjust="spacing" textLength="26.5" x="282" y="380.2104">true/false</text><path d="M10,394.3418 L40.5,394.3418 L40.5,398.9873 L35.5,403.9873 L10,403.9873 L10,394.3418 " fill="#EEEEEE" style="stroke:#000000;stroke-width:0.75;"/><rect fill="none" height="40.9365" style="stroke:#000000;stroke-width:0.75;" width="290.75" x="10" y="394.3418"/><text fill="#000000" font-family="sans-serif" font-size="6.5" font-weight="bold" lengthAdjust="spacing" textLength="8" x="17.5" y="401.856">alt</text><text fill="#000000" font-family="sans-serif" font-size="5.5" font-weight="bold" lengthAdjust="spacing" textLength="25.5" x="48" y="401.2769">[if 'false']</text><polygon fill="#181818" points="180,413.6328,175,415.6328,180,417.6328,178,415.6328" style="stroke:#181818;stroke-width:0.5;"/><line style="stroke:#181818;stroke-width:0.5;stroke-dasharray:2.0,2.0;" x1="177" x2="261.5" y1="415.6328" y2="415.6328"/><text fill="#000000" font-family="sans-serif" font-size="6.5" font-weight="bold" lengthAdjust="spacing" textLength="7" x="183" y="413.0015">18</text><text fill="#000000" font-family="sans-serif" font-size="6.5" lengthAdjust="spacing" textLength="66.5" x="192" y="413.0015">operation unsuccessful</text><polygon fill="#181818" points="53,429.2783,48,431.2783,53,433.2783,51,431.2783" style="stroke:#181818;stroke-width:0.5;"/><line style="stroke:#181818;stroke-width:0.5;stroke-dasharray:2.0,2.0;" x1="50" x2="169" y1="431.2783" y2="431.2783"/><text fill="#000000" font-family="sans-serif" font-size="6.5" font-weight="bold" lengthAdjust="spacing" textLength="7" x="56" y="428.647">19</text><text fill="#000000" font-family="sans-serif" font-size="6.5" lengthAdjust="spacing" textLength="95.5" x="65" y="428.647">operation unsuccessful, try again</text><polygon fill="#181818" points="180,451.9238,175,453.9238,180,455.9238,178,453.9238" style="stroke:#181818;stroke-width:0.5;"/><line style="stroke:#181818;stroke-width:0.5;stroke-dasharray:2.0,2.0;" x1="177" x2="261.5" y1="453.9238" y2="453.9238"/><text fill="#000000" font-family="sans-serif" font-size="6.5" font-weight="bold" lengthAdjust="spacing" textLength="7" x="183" y="451.2925">20</text><text fill="#000000" font-family="sans-serif" font-size="6.5" lengthAdjust="spacing" textLength="59.5" x="192" y="451.2925">operation successful</text><polygon fill="#181818" points="50.5,467.5693,45.5,469.5693,50.5,471.5693,48.5,469.5693" style="stroke:#181818;stroke-width:0.5;"/><line style="stroke:#181818;stroke-width:0.5;stroke-dasharray:2.0,2.0;" x1="47.5" x2="171.5" y1="469.5693" y2="469.5693"/><text fill="#000000" font-family="sans-serif" font-size="6.5" font-weight="bold" lengthAdjust="spacing" textLength="7" x="53.5" y="466.938">21</text><text fill="#000000" font-family="sans-serif" font-size="6.5" lengthAdjust="spacing" textLength="79" x="62.5" y="466.938">displays operation success</text><line style="stroke:#181818;stroke-width:0.5;" x1="267" x2="290.5" y1="482.7148" y2="482.7148"/><line style="stroke:#181818;stroke-width:0.5;" x1="290.5" x2="290.5" y1="482.7148" y2="489.2148"/><line style="stroke:#181818;stroke-width:0.5;" x1="270" x2="290.5" y1="489.2148" y2="489.2148"/><polygon fill="#181818" points="275,487.2148,270,489.2148,275,491.2148,273,489.2148" style="stroke:#181818;stroke-width:0.5;"/><text fill="#000000" font-family="sans-serif" font-size="6.5" font-weight="bold" lengthAdjust="spacing" textLength="7" x="273" y="480.0835">22</text><text fill="#000000" font-family="sans-serif" font-size="6.5" lengthAdjust="spacing" textLength="60.5" x="282" y="480.0835">createNewUser(user)</text><polygon fill="#181818" points="539.75,505.3604,544.75,507.3604,539.75,509.3604,541.75,507.3604" style="stroke:#181818;stroke-width:0.5;"/><line style="stroke:#181818;stroke-width:0.5;" x1="269.5" x2="542.75" y1="507.3604" y2="507.3604"/><text fill="#000000" font-family="sans-serif" font-size="6.5" font-weight="bold" lengthAdjust="spacing" textLength="7" x="273" y="504.729">23</text><text fill="#000000" font-family="sans-serif" font-size="6.5" lengthAdjust="spacing" textLength="236" x="282" y="504.729">create(name, passportNumber, socialSecurityNumber, email, phoneNumber, pwd)</text><rect fill="#E2E2F0" height="25.6211" rx="1.25" ry="1.25" style="stroke:#181818;stroke-width:0.25;" width="48" x="545.75" y="495.7148"/><text fill="#000000" font-family="sans-serif" font-size="7" lengthAdjust="spacing" textLength="41" x="549.25" y="506.7686">:copyOfUser:</text><text fill="#000000" font-family="sans-serif" font-size="7" lengthAdjust="spacing" textLength="18" x="560.75" y="516.0791">Client</text><line style="stroke:#181818;stroke-width:0.5;" x1="269.5" x2="293" y1="535.9814" y2="535.9814"/><line style="stroke:#181818;stroke-width:0.5;" x1="293" x2="293" y1="535.9814" y2="542.4814"/><line style="stroke:#181818;stroke-width:0.5;" x1="272.5" x2="293" y1="542.4814" y2="542.4814"/><polygon fill="#181818" points="277.5,540.4814,272.5,542.4814,277.5,544.4814,275.5,542.4814" style="stroke:#181818;stroke-width:0.5;"/><text fill="#000000" font-family="sans-serif" font-size="6.5" font-weight="bold" lengthAdjust="spacing" textLength="7" x="275.5" y="533.3501">24</text><text fill="#000000" font-family="sans-serif" font-size="6.5" lengthAdjust="spacing" textLength="90" x="284.5" y="533.3501">addAuthentication(copyOfUser)</text><polygon fill="#181818" points="561.25,558.627,566.25,560.627,561.25,562.627,563.25,560.627" style="stroke:#181818;stroke-width:0.5;"/><line style="stroke:#181818;stroke-width:0.5;" x1="272" x2="564.25" y1="560.627" y2="560.627"/><text fill="#000000" font-family="sans-serif" font-size="6.5" font-weight="bold" lengthAdjust="spacing" textLength="7" x="275.5" y="557.9956">25</text><text fill="#000000" font-family="sans-serif" font-size="6.5" lengthAdjust="spacing" textLength="30" x="284.5" y="557.9956">getName()</text><polygon fill="#181818" points="277.5,574.2725,272.5,576.2725,277.5,578.2725,275.5,576.2725" style="stroke:#181818;stroke-width:0.5;"/><line style="stroke:#181818;stroke-width:0.5;stroke-dasharray:2.0,2.0;" x1="274.5" x2="569.25" y1="576.2725" y2="576.2725"/><text fill="#000000" font-family="sans-serif" font-size="6.5" font-weight="bold" lengthAdjust="spacing" textLength="7" x="280.5" y="573.6411">26</text><text fill="#000000" font-family="sans-serif" font-size="6.5" lengthAdjust="spacing" textLength="16" x="289.5" y="573.6411">name</text><polygon fill="#181818" points="561.25,589.918,566.25,591.918,561.25,593.918,563.25,591.918" style="stroke:#181818;stroke-width:0.5;"/><line style="stroke:#181818;stroke-width:0.5;" x1="272" x2="564.25" y1="591.918" y2="591.918"/><text fill="#000000" font-family="sans-serif" font-size="6.5" font-weight="bold" lengthAdjust="spacing" textLength="7" x="275.5" y="589.2866">27</text><text fill="#000000" font-family="sans-serif" font-size="6.5" lengthAdjust="spacing" textLength="29.5" x="284.5" y="589.2866">getEmail()</text><polygon fill="#181818" points="277.5,605.5635,272.5,607.5635,277.5,609.5635,275.5,607.5635" style="stroke:#181818;stroke-width:0.5;"/><line style="stroke:#181818;stroke-width:0.5;stroke-dasharray:2.0,2.0;" x1="274.5" x2="569.25" y1="607.5635" y2="607.5635"/><text fill="#000000" font-family="sans-serif" font-size="6.5" font-weight="bold" lengthAdjust="spacing" textLength="7" x="280.5" y="604.9321">28</text><text fill="#000000" font-family="sans-serif" font-size="6.5" lengthAdjust="spacing" textLength="15.5" x="289.5" y="604.9321">email</text><polygon fill="#181818" points="561.25,621.209,566.25,623.209,561.25,625.209,563.25,623.209" style="stroke:#181818;stroke-width:0.5;"/><line style="stroke:#181818;stroke-width:0.5;" x1="272" x2="564.25" y1="623.209" y2="623.209"/><text fill="#000000" font-family="sans-serif" font-size="6.5" font-weight="bold" lengthAdjust="spacing" textLength="7" x="275.5" y="620.5776">29</text><text fill="#000000" font-family="sans-serif" font-size="6.5" lengthAdjust="spacing" textLength="25.5" x="284.5" y="620.5776">getPwd()</text><polygon fill="#181818" points="277.5,636.8545,272.5,638.8545,277.5,640.8545,275.5,638.8545" style="stroke:#181818;stroke-width:0.5;"/><line style="stroke:#181818;stroke-width:0.5;stroke-dasharray:2.0,2.0;" x1="274.5" x2="569.25" y1="638.8545" y2="638.8545"/><text fill="#000000" font-family="sans-serif" font-size="6.5" font-weight="bold" lengthAdjust="spacing" textLength="7" x="280.5" y="636.2231">30</text><text fill="#000000" font-family="sans-serif" font-size="6.5" lengthAdjust="spacing" textLength="27.5" x="289.5" y="636.2231">password</text><polygon fill="#181818" points="634.25,652.5,639.25,654.5,634.25,656.5,636.25,654.5" style="stroke:#181818;stroke-width:0.5;"/><line style="stroke:#181818;stroke-width:0.5;" x1="272" x2="637.25" y1="654.5" y2="654.5"/><text fill="#000000" font-family="sans-serif" font-size="6.5" font-weight="bold" lengthAdjust="spacing" textLength="7" x="275.5" y="651.8687">31</text><text fill="#000000" font-family="sans-serif" font-size="6.5" lengthAdjust="spacing" textLength="279" x="284.5" y="651.8687">addUserRole(AuthenticationController.ROLE_OWNER, AuthenticationController.ROLE_OWNER)</text><polygon fill="#181818" points="636.75,668.1455,641.75,670.1455,636.75,672.1455,638.75,670.1455" style="stroke:#181818;stroke-width:0.5;"/><line style="stroke:#181818;stroke-width:0.5;" x1="272" x2="639.75" y1="670.1455" y2="670.1455"/><text fill="#000000" font-family="sans-serif" font-size="6.5" font-weight="bold" lengthAdjust="spacing" textLength="7" x="275.5" y="667.5142">32</text><text fill="#000000" font-family="sans-serif" font-size="6.5" lengthAdjust="spacing" textLength="242.5" x="284.5" y="667.5142">addUserWithRole(name, email, password, AuthenticationController.ROLE_OWNER)</text><line style="stroke:#181818;stroke-width:0.5;stroke-dasharray:2.0,2.0;" x1="272" x2="293" y1="688.291" y2="688.291"/><line style="stroke:#181818;stroke-width:0.5;stroke-dasharray:2.0,2.0;" x1="293" x2="293" y1="688.291" y2="694.791"/><line style="stroke:#181818;stroke-width:0.5;stroke-dasharray:2.0,2.0;" x1="269.5" x2="293" y1="694.791" y2="694.791"/><polygon fill="#181818" points="274.5,692.791,269.5,694.791,274.5,696.791,272.5,694.791" style="stroke:#181818;stroke-width:0.5;"/><text fill="#000000" font-family="sans-serif" font-size="6.5" font-weight="bold" lengthAdjust="spacing" textLength="7" x="275.5" y="685.6597">33</text><text fill="#000000" font-family="sans-serif" font-size="6.5" lengthAdjust="spacing" textLength="2" x="284.5" y="685.6597">&#160;</text><polygon fill="#181818" points="482.75,705.9365,487.75,707.9365,482.75,709.9365,484.75,707.9365" style="stroke:#181818;stroke-width:0.5;"/><line style="stroke:#181818;stroke-width:0.5;" x1="269.5" x2="485.75" y1="707.9365" y2="707.9365"/><text fill="#000000" font-family="sans-serif" font-size="6.5" font-weight="bold" lengthAdjust="spacing" textLength="7" x="273" y="705.3052">34</text><text fill="#000000" font-family="sans-serif" font-size="6.5" lengthAdjust="spacing" textLength="48.5" x="282" y="705.3052">add(copyOfUser)</text><line style="stroke:#181818;stroke-width:0.5;" x1="493.75" x2="517.25" y1="721.082" y2="721.082"/><line style="stroke:#181818;stroke-width:0.5;" x1="517.25" x2="517.25" y1="721.082" y2="727.582"/><line style="stroke:#181818;stroke-width:0.5;" x1="496.75" x2="517.25" y1="727.582" y2="727.582"/><polygon fill="#181818" points="501.75,725.582,496.75,727.582,501.75,729.582,499.75,727.582" style="stroke:#181818;stroke-width:0.5;"/><text fill="#000000" font-family="sans-serif" font-size="6.5" font-weight="bold" lengthAdjust="spacing" textLength="7" x="499.75" y="718.4507">35</text><text fill="#000000" font-family="sans-serif" font-size="6.5" lengthAdjust="spacing" textLength="57.5" x="508.75" y="718.4507">validateClient(client)</text><line style="stroke:#181818;stroke-width:0.5;stroke-dasharray:2.0,2.0;" x1="496.25" x2="517.25" y1="748.2275" y2="748.2275"/><line style="stroke:#181818;stroke-width:0.5;stroke-dasharray:2.0,2.0;" x1="517.25" x2="517.25" y1="748.2275" y2="754.7275"/><line style="stroke:#181818;stroke-width:0.5;stroke-dasharray:2.0,2.0;" x1="493.75" x2="517.25" y1="754.7275" y2="754.7275"/><polygon fill="#181818" points="498.75,752.7275,493.75,754.7275,498.75,756.7275,496.75,754.7275" style="stroke:#181818;stroke-width:0.5;"/><text fill="#000000" font-family="sans-serif" font-size="6.5" font-weight="bold" lengthAdjust="spacing" textLength="7" x="499.75" y="745.5962">36</text><text fill="#000000" font-family="sans-serif" font-size="6.5" lengthAdjust="spacing" textLength="26.5" x="508.75" y="745.5962">true/false</text><line style="stroke:#181818;stroke-width:0.5;" x1="493.75" x2="517.25" y1="765.373" y2="765.373"/><line style="stroke:#181818;stroke-width:0.5;" x1="517.25" x2="517.25" y1="765.373" y2="771.873"/><line style="stroke:#181818;stroke-width:0.5;" x1="496.75" x2="517.25" y1="771.873" y2="771.873"/><polygon fill="#181818" points="501.75,769.873,496.75,771.873,501.75,773.873,499.75,771.873" style="stroke:#181818;stroke-width:0.5;"/><text fill="#000000" font-family="sans-serif" font-size="6.5" font-weight="bold" lengthAdjust="spacing" textLength="7" x="499.75" y="762.7417">37</text><text fill="#000000" font-family="sans-serif" font-size="6.5" lengthAdjust="spacing" textLength="57.5" x="508.75" y="762.7417">add(newClient.get())</text><line style="stroke:#181818;stroke-width:0.5;stroke-dasharray:2.0,2.0;" x1="496.25" x2="517.25" y1="792.5186" y2="792.5186"/><line style="stroke:#181818;stroke-width:0.5;stroke-dasharray:2.0,2.0;" x1="517.25" x2="517.25" y1="792.5186" y2="799.0186"/><line style="stroke:#181818;stroke-width:0.5;stroke-dasharray:2.0,2.0;" x1="493.75" x2="517.25" y1="799.0186" y2="799.0186"/><polygon fill="#181818" points="498.75,797.0186,493.75,799.0186,498.75,801.0186,496.75,799.0186" style="stroke:#181818;stroke-width:0.5;"/><text fill="#000000" font-family="sans-serif" font-size="6.5" font-weight="bold" lengthAdjust="spacing" textLength="7" x="499.75" y="789.8872">38</text><text fill="#000000" font-family="sans-serif" font-size="6.5" lengthAdjust="spacing" textLength="28" x="508.75" y="789.8872">newClient</text><polygon fill="#181818" points="275,810.1641,270,812.1641,275,814.1641,273,812.1641" style="stroke:#181818;stroke-width:0.5;"/><line style="stroke:#181818;stroke-width:0.5;stroke-dasharray:2.0,2.0;" x1="272" x2="490.75" y1="812.1641" y2="812.1641"/><text fill="#000000" font-family="sans-serif" font-size="6.5" font-weight="bold" lengthAdjust="spacing" textLength="7" x="278" y="809.5327">39</text><text fill="#000000" font-family="sans-serif" font-size="6.5" lengthAdjust="spacing" textLength="2" x="287" y="809.5327">&#160;</text><polygon fill="#181818" points="732.25,825.8096,737.25,827.8096,732.25,829.8096,734.25,827.8096" style="stroke:#181818;stroke-width:0.5;"/><line style="stroke:#181818;stroke-width:0.5;" x1="267" x2="735.25" y1="827.8096" y2="827.8096"/><text fill="#000000" font-family="sans-serif" font-size="6.5" font-weight="bold" lengthAdjust="spacing" textLength="7" x="270.5" y="825.1782">40</text><text fill="#000000" font-family="sans-serif" font-size="6.5" lengthAdjust="spacing" textLength="77.5" x="279.5" y="825.1782">sendOwnerPassword(user)</text><!--SRC=[hLPRQzim57xNhn1zQLAQhc-3F1HAMxP0IKekb45XgF998kf8dYGtytxzZYGxiMpdCjXBSAnpllETsoUR3o4pfjc6Pen_i1NCR942rS0jawiKYDaPc3LBr5R85Lsor00XLbWqNHZGT6QLBkZjxLSwe3FubOFaG1y5Mpd7tkonJmZBhPBvvXqqFdEqfnSBgM4bZ0KDYSUveCpu1u8XhU0YOzBIY-5ChEGYMup2-QZpz459grMQbYWFy-bpmsuAcJ828mimtcRtefW9bomIZ5rqpUDDjW5Udk_diGTF1KYx1qQlXyQhGEzvz3IUxrysg7AL5PEbgyJmJGQ0u3Pv-H6RObdNU2euiqB9AF3zWIEFTB-OVpyO_Xj8qCp2lKncx1DUc35RfPEGC_ufprLefVX4qz0sugTXS8TDeaEq_Z3KAbfrcGf9aH8r1VxRr7r7w3boVgvjLrVeopNW2I6fKXaLItJzPAb8wdPePNphU_qQbcyyyUU3YeXs8scieGcpZ9046jOEqzawyZLh2HoCOJZPBJ_Fk9whBJ9m7f3WB0kvL7hZoqvxactW-arIBgpu0_BIKCvqGiCkN5FBVk-UtoHic4WfamdbECyOZbf88Lih2QLL7w7SkSeSF4lZO2n9D7BkTnHtdw1PgwsfqaIwfxCp-Vj6xEfte6yxkqUqwkNeVwWlTrshX-uhi2DfK7auH3tjMbJI1J4egRWcxdSrogqJgwBb5ZhmQ6vjnCVlFV76-uZDrO-Y1eygJ5cjJz1YMVXg1UV3zMhgnSvxj1p3rlMgvqSdGcXg36cX3FPahCxXIwdizGLfWrIhTSBHysUfTTjxwSylctkfCYSZRd1pQNBkjcsPfyrnxRR2pS44s8e9x1y1cPG_XoBKyHi14c6ob1McRHrlXLEunfOqEXfKg-h8yHLmMdvrLVa4cS1Rs9XCQJik5S4eBbWw0vvhOOlghMyr6ZjPgDvbswJVueDo4Dy2lVtDSfnPs88naehLrLr0n1lKHi1nZviVp5fuJuxu6O0-mRCGNxR9ARoXhwgxm8uWnlTXA9shqbIbq8jhkF_Ik9bEdfz-Jbx7JzDhUePHdMZZ0Zv9v5NOjISJ1gKQWJApSyFNykycKDQiOvMFI15IF3HOPsXGjxgvsnuHWWvtwUEPwjQ6Fb_fpgFgifUm3KnlS2Px_Vz3T0VwppmxktX0oU_YJpgyn5579rlyMtttbKBM5lVTxHPz4_u5]--></g></svg>