<?xml version="1.0" encoding="us-ascii" standalone="no"?><svg xmlns="http://www.w3.org/2000/svg" xmlns:xlink="http://www.w3.org/1999/xlink" contentStyleType="text/css" height="167.71px" preserveAspectRatio="none" style="width:569px;height:167px;background:#FFFFFF;" version="1.1" viewBox="0 0 569 167" width="569.16px" zoomAndPan="magnify"><defs/><g><text fill="#000000" font-family="sans-serif" font-size="4.34" font-weight="bold" lengthAdjust="spacing" textLength="132.99" x="215.915" y="7.7833">US008 List Property Announcement Requests - Class Diagram</text><!--class Agent--><g id="elem_Agent"><rect codeLine="6" fill="#F1F1F1" height="61.0603" id="Agent" rx="0.775" ry="0.775" style="stroke:#181818;stroke-width:0.155;" width="49.91" x="2.17" y="14.4525"/><ellipse cx="20.0725" cy="19.4125" fill="#ADD1B2" rx="3.41" ry="3.41" style="stroke:#181818;stroke-width:0.31;"/><path d="M20.9298,18.1338 Q20.9783,18.066 21.0364,18.0321 Q21.0945,17.9982 21.1623,17.9982 Q21.2786,17.9982 21.3513,18.0805 Q21.4239,18.158 21.4239,18.3469 L21.4239,18.7974 Q21.4239,18.9863 21.3513,19.0686 Q21.2786,19.151 21.1623,19.151 Q21.0558,19.151 20.9928,19.088 Q20.9298,19.0299 20.8959,18.87 Q20.8814,18.7586 20.8233,18.7005 Q20.7216,18.5843 20.5327,18.5164 Q20.3438,18.4486 20.15,18.4486 Q19.9127,18.4486 19.7141,18.5504 Q19.5203,18.6521 19.3653,18.8846 Q19.2152,19.1171 19.2152,19.4368 L19.2152,19.7758 Q19.2152,20.1585 19.4913,20.4152 Q19.7673,20.6671 20.2614,20.6671 Q20.552,20.6671 20.7555,20.5896 Q20.8766,20.5411 21.0073,20.4055 Q21.0897,20.3232 21.1333,20.2989 Q21.1817,20.2747 21.2447,20.2747 Q21.3464,20.2747 21.4239,20.3571 Q21.5063,20.4346 21.5063,20.5411 Q21.5063,20.6477 21.3997,20.7736 Q21.2447,20.9529 20.9977,21.0546 Q20.6634,21.195 20.2614,21.195 Q19.7916,21.195 19.4186,21.0013 Q19.1134,20.8463 18.9003,20.5169 Q18.6872,20.1827 18.6872,19.7855 L18.6872,19.4271 Q18.6872,19.0154 18.8761,18.6618 Q19.0698,18.3033 19.4089,18.1144 Q19.748,17.9207 20.1306,17.9207 Q20.3583,17.9207 20.5569,17.9739 Q20.7603,18.0224 20.9298,18.1338 Z " fill="#000000"/><text fill="#000000" font-family="sans-serif" font-size="4.34" lengthAdjust="spacing" textLength="11.47" x="26.4275" y="21.2096">Agent</text><line style="stroke:#181818;stroke-width:0.155;" x1="2.48" x2="51.77" y1="24.3725" y2="24.3725"/><text fill="#000000" font-family="sans-serif" font-size="4.34" lengthAdjust="spacing" textLength="12.4" x="4.03" y="30.2958">-name</text><text fill="#000000" font-family="sans-serif" font-size="4.34" lengthAdjust="spacing" textLength="11.78" x="4.03" y="36.0684">-email</text><text fill="#000000" font-family="sans-serif" font-size="4.34" lengthAdjust="spacing" textLength="9.3" x="4.03" y="41.8409">-pwd</text><line style="stroke:#181818;stroke-width:0.31;" x1="2.48" x2="51.77" y1="44.1702" y2="44.1702"/><text fill="#000000" font-family="sans-serif" font-size="4.34" lengthAdjust="spacing" textLength="46.19" x="4.03" y="50.0935">+hasEmail(String email)</text><text fill="#000000" font-family="sans-serif" font-size="4.34" lengthAdjust="spacing" textLength="22.94" x="4.03" y="55.866">+getName()</text><text fill="#000000" font-family="sans-serif" font-size="4.34" lengthAdjust="spacing" textLength="22.32" x="4.03" y="61.6385">+getEmail()</text><text fill="#000000" font-family="sans-serif" font-size="4.34" lengthAdjust="spacing" textLength="20.77" x="4.03" y="67.4111">+toString()</text><text fill="#000000" font-family="sans-serif" font-size="4.34" lengthAdjust="spacing" textLength="16.12" x="4.03" y="73.1836">+clone()</text></g><!--class Repositories--><g id="elem_Repositories"><rect codeLine="18" fill="#F1F1F1" height="32.1976" id="Repositories" rx="0.775" ry="0.775" style="stroke:#181818;stroke-width:0.155;" width="81.84" x="182.745" y="28.8675"/><ellipse cx="210.1025" cy="33.8275" fill="#ADD1B2" rx="3.41" ry="3.41" style="stroke:#181818;stroke-width:0.31;"/><path d="M210.9598,32.5488 Q211.0083,32.481 211.0664,32.4471 Q211.1245,32.4132 211.1923,32.4132 Q211.3086,32.4132 211.3813,32.4955 Q211.4539,32.573 211.4539,32.7619 L211.4539,33.2124 Q211.4539,33.4013 211.3813,33.4836 Q211.3086,33.566 211.1923,33.566 Q211.0858,33.566 211.0228,33.503 Q210.9598,33.4449 210.9259,33.285 Q210.9114,33.1736 210.8533,33.1155 Q210.7516,32.9993 210.5627,32.9314 Q210.3738,32.8636 210.18,32.8636 Q209.9427,32.8636 209.7441,32.9654 Q209.5503,33.0671 209.3953,33.2996 Q209.2452,33.5321 209.2452,33.8518 L209.2452,34.1908 Q209.2452,34.5735 209.5213,34.8302 Q209.7973,35.0821 210.2914,35.0821 Q210.582,35.0821 210.7855,35.0046 Q210.9066,34.9561 211.0373,34.8205 Q211.1197,34.7382 211.1633,34.7139 Q211.2117,34.6897 211.2747,34.6897 Q211.3764,34.6897 211.4539,34.7721 Q211.5363,34.8496 211.5363,34.9561 Q211.5363,35.0627 211.4297,35.1886 Q211.2747,35.3679 211.0277,35.4696 Q210.6934,35.61 210.2914,35.61 Q209.8216,35.61 209.4486,35.4163 Q209.1434,35.2613 208.9303,34.9319 Q208.7172,34.5977 208.7172,34.2005 L208.7172,33.8421 Q208.7172,33.4304 208.9061,33.0768 Q209.0998,32.7183 209.4389,32.5294 Q209.778,32.3357 210.1606,32.3357 Q210.3883,32.3357 210.5869,32.3889 Q210.7903,32.4374 210.9598,32.5488 Z " fill="#000000"/><text fill="#000000" font-family="sans-serif" font-size="4.34" lengthAdjust="spacing" textLength="24.49" x="216.4575" y="35.6246">Repositories</text><line style="stroke:#181818;stroke-width:0.155;" x1="183.055" x2="264.275" y1="38.7875" y2="38.7875"/><text fill="#000000" font-family="sans-serif" font-size="4.34" lengthAdjust="spacing" textLength="78.12" x="184.605" y="44.7108">-PropertyRepository propertyRepository</text><line style="stroke:#181818;stroke-width:0.155;" x1="183.055" x2="264.275" y1="47.0401" y2="47.0401"/><text fill="#000000" font-family="sans-serif" font-size="4.34" lengthAdjust="spacing" textLength="28.21" x="184.605" y="52.9634">+getInstance()</text><text fill="#000000" font-family="sans-serif" font-size="4.34" lengthAdjust="spacing" textLength="49.6" x="184.605" y="58.7359">+getPropertyRepository()</text></g><!--class PropertyRequestRepository--><g id="elem_PropertyRequestRepository"><rect codeLine="25" fill="#F1F1F1" height="55.2878" id="PropertyRequestRepository" rx="0.775" ry="0.775" style="stroke:#181818;stroke-width:0.155;" width="107.26" x="291.245" y="17.3975"/><ellipse cx="316.4325" cy="22.3575" fill="#ADD1B2" rx="3.41" ry="3.41" style="stroke:#181818;stroke-width:0.31;"/><path d="M317.2898,21.0788 Q317.3383,21.011 317.3964,20.9771 Q317.4545,20.9432 317.5223,20.9432 Q317.6386,20.9432 317.7113,21.0255 Q317.7839,21.103 317.7839,21.2919 L317.7839,21.7424 Q317.7839,21.9313 317.7113,22.0136 Q317.6386,22.096 317.5223,22.096 Q317.4158,22.096 317.3528,22.033 Q317.2898,21.9749 317.2559,21.815 Q317.2414,21.7036 317.1833,21.6455 Q317.0816,21.5293 316.8927,21.4614 Q316.7038,21.3936 316.51,21.3936 Q316.2727,21.3936 316.0741,21.4954 Q315.8803,21.5971 315.7253,21.8296 Q315.5752,22.0621 315.5752,22.3818 L315.5752,22.7208 Q315.5752,23.1035 315.8513,23.3602 Q316.1273,23.6121 316.6214,23.6121 Q316.912,23.6121 317.1155,23.5346 Q317.2366,23.4861 317.3673,23.3505 Q317.4497,23.2682 317.4933,23.2439 Q317.5417,23.2197 317.6047,23.2197 Q317.7064,23.2197 317.7839,23.3021 Q317.8663,23.3796 317.8663,23.4861 Q317.8663,23.5927 317.7597,23.7186 Q317.6047,23.8979 317.3577,23.9996 Q317.0234,24.14 316.6214,24.14 Q316.1516,24.14 315.7786,23.9463 Q315.4734,23.7913 315.2603,23.4619 Q315.0472,23.1277 315.0472,22.7305 L315.0472,22.3721 Q315.0472,21.9604 315.2361,21.6068 Q315.4298,21.2483 315.7689,21.0594 Q316.108,20.8657 316.4906,20.8657 Q316.7183,20.8657 316.9169,20.9189 Q317.1203,20.9674 317.2898,21.0788 Z " fill="#000000"/><text fill="#000000" font-family="sans-serif" font-size="4.34" lengthAdjust="spacing" textLength="54.25" x="322.7875" y="24.1546">PropertyRequestRepository</text><line style="stroke:#181818;stroke-width:0.155;" x1="291.555" x2="398.195" y1="27.3175" y2="27.3175"/><text fill="#000000" font-family="sans-serif" font-size="4.34" lengthAdjust="spacing" textLength="51.15" x="293.105" y="33.2408">-List&lt;Property&gt; properties</text><line style="stroke:#181818;stroke-width:0.155;" x1="291.555" x2="398.195" y1="35.5701" y2="35.5701"/><text fill="#000000" font-family="sans-serif" font-size="4.34" lengthAdjust="spacing" textLength="20.77" x="293.105" y="41.4934">+isEmpty()</text><text fill="#000000" font-family="sans-serif" font-size="4.34" lengthAdjust="spacing" textLength="29.45" x="293.105" y="47.2659">+add(property)</text><text fill="#000000" font-family="sans-serif" font-size="4.34" lengthAdjust="spacing" textLength="53.94" x="293.105" y="53.0385">+validateProperty(property)</text><text fill="#000000" font-family="sans-serif" font-size="4.34" lengthAdjust="spacing" textLength="34.41" x="293.105" y="58.811">+printProperties()</text><text fill="#000000" font-family="sans-serif" font-size="4.34" lengthAdjust="spacing" textLength="31.93" x="293.105" y="64.5835">+getProperties()</text><text fill="#000000" font-family="sans-serif" font-size="4.34" lengthAdjust="spacing" textLength="103.54" x="293.105" y="70.3561">+getPropertyRequestedToXAgent(String agentEmail)</text></g><!--class Property--><g id="elem_Property"><rect codeLine="36" fill="#F1F1F1" height="49.5152" id="Property" rx="0.775" ry="0.775" style="stroke:#181818;stroke-width:0.155;" width="62.31" x="425.01" y="20.1875"/><ellipse cx="446.4775" cy="25.1475" fill="#B4A7E5" rx="3.41" ry="3.41" style="stroke:#181818;stroke-width:0.31;"/><path d="M446.773,24.1061 L446.773,26.1696 L447.3058,26.1696 Q447.4947,26.1696 447.577,26.2422 Q447.6594,26.3149 447.6594,26.436 Q447.6594,26.5522 447.577,26.6249 Q447.4947,26.6975 447.3058,26.6975 L445.7122,26.6975 Q445.5233,26.6975 445.4409,26.6249 Q445.3586,26.5522 445.3586,26.4311 Q445.3586,26.3149 445.4409,26.2422 Q445.5233,26.1696 445.7122,26.1696 L446.245,26.1696 L446.245,24.1061 L445.7122,24.1061 Q445.5233,24.1061 445.4409,24.0335 Q445.3586,23.9608 445.3586,23.8397 Q445.3586,23.7235 445.4409,23.6508 Q445.5233,23.5782 445.7122,23.5782 L447.3058,23.5782 Q447.4947,23.5782 447.577,23.6508 Q447.6594,23.7235 447.6594,23.8397 Q447.6594,23.9608 447.577,24.0335 Q447.4947,24.1061 447.3058,24.1061 L446.773,24.1061 Z " fill="#000000"/><text fill="#000000" font-family="sans-serif" font-size="4.34" font-style="italic" lengthAdjust="spacing" textLength="16.74" x="452.8325" y="26.9446">Property</text><line style="stroke:#181818;stroke-width:0.155;" x1="425.32" x2="487.01" y1="30.1075" y2="30.1075"/><text fill="#000000" font-family="sans-serif" font-size="4.34" lengthAdjust="spacing" textLength="34.1" x="426.87" y="36.0308">-Request request</text><text fill="#000000" font-family="sans-serif" font-size="4.34" lengthAdjust="spacing" textLength="20.15" x="426.87" y="41.8034">-float area</text><text fill="#000000" font-family="sans-serif" font-size="4.34" lengthAdjust="spacing" textLength="29.45" x="426.87" y="47.5759">-String location</text><text fill="#000000" font-family="sans-serif" font-size="4.34" lengthAdjust="spacing" textLength="58.59" x="426.87" y="53.3485">-float distanceFromCityCentre</text><text fill="#000000" font-family="sans-serif" font-size="4.34" lengthAdjust="spacing" textLength="40.92" x="426.87" y="59.121">-float requestedPrice</text><text fill="#000000" font-family="sans-serif" font-size="4.34" lengthAdjust="spacing" textLength="35.03" x="426.87" y="64.8935">-png photographs</text><line style="stroke:#181818;stroke-width:0.155;" x1="425.32" x2="487.01" y1="67.2228" y2="67.2228"/></g><!--class SetCommissionUI--><g id="elem_SetCommissionUI"><rect codeLine="46" fill="#F1F1F1" height="20.6525" id="SetCommissionUI" rx="0.775" ry="0.775" style="stroke:#181818;stroke-width:0.155;" width="43.71" x="104.16" y="34.6025"/><ellipse cx="108.81" cy="39.5625" fill="#ADD1B2" rx="3.41" ry="3.41" style="stroke:#181818;stroke-width:0.31;"/><path d="M109.6673,38.2838 Q109.7158,38.216 109.7739,38.1821 Q109.832,38.1482 109.8998,38.1482 Q110.0161,38.1482 110.0888,38.2305 Q110.1614,38.308 110.1614,38.4969 L110.1614,38.9474 Q110.1614,39.1363 110.0888,39.2186 Q110.0161,39.301 109.8998,39.301 Q109.7933,39.301 109.7303,39.238 Q109.6673,39.1799 109.6334,39.02 Q109.6189,38.9086 109.5608,38.8505 Q109.4591,38.7343 109.2702,38.6664 Q109.0813,38.5986 108.8875,38.5986 Q108.6502,38.5986 108.4516,38.7004 Q108.2578,38.8021 108.1028,39.0346 Q107.9527,39.2671 107.9527,39.5868 L107.9527,39.9258 Q107.9527,40.3085 108.2288,40.5652 Q108.5048,40.8171 108.9989,40.8171 Q109.2895,40.8171 109.493,40.7396 Q109.6141,40.6911 109.7448,40.5555 Q109.8272,40.4732 109.8708,40.4489 Q109.9192,40.4247 109.9822,40.4247 Q110.0839,40.4247 110.1614,40.5071 Q110.2438,40.5846 110.2438,40.6911 Q110.2438,40.7977 110.1372,40.9236 Q109.9822,41.1029 109.7352,41.2046 Q109.4009,41.345 108.9989,41.345 Q108.5291,41.345 108.1561,41.1513 Q107.8509,40.9963 107.6378,40.6669 Q107.4247,40.3327 107.4247,39.9355 L107.4247,39.5771 Q107.4247,39.1654 107.6136,38.8118 Q107.8073,38.4533 108.1464,38.2644 Q108.4855,38.0707 108.8681,38.0707 Q109.0958,38.0707 109.2944,38.1239 Q109.4978,38.1724 109.6673,38.2838 Z " fill="#000000"/><text fill="#000000" font-family="sans-serif" font-size="4.34" lengthAdjust="spacing" textLength="33.79" x="113.15" y="41.3596">SetCommissionUI</text><line style="stroke:#181818;stroke-width:0.155;" x1="104.47" x2="147.56" y1="44.5225" y2="44.5225"/><line style="stroke:#181818;stroke-width:0.155;" x1="104.47" x2="147.56" y1="47.0025" y2="47.0025"/><text fill="#000000" font-family="sans-serif" font-size="4.34" lengthAdjust="spacing" textLength="12.09" x="106.02" y="52.9258">+run()</text></g><!--class SetCommissionController--><g id="elem_SetCommissionController"><rect codeLine="51" fill="#F1F1F1" height="14.88" id="SetCommissionController" rx="0.775" ry="0.775" style="stroke:#181818;stroke-width:0.155;" width="59.21" x="96.72" y="130.7025"/><ellipse cx="101.37" cy="135.6625" fill="#ADD1B2" rx="3.41" ry="3.41" style="stroke:#181818;stroke-width:0.31;"/><path d="M102.2273,134.3838 Q102.2758,134.316 102.3339,134.2821 Q102.392,134.2482 102.4598,134.2482 Q102.5761,134.2482 102.6487,134.3305 Q102.7214,134.408 102.7214,134.5969 L102.7214,135.0474 Q102.7214,135.2363 102.6487,135.3186 Q102.5761,135.401 102.4598,135.401 Q102.3533,135.401 102.2903,135.338 Q102.2273,135.2799 102.1934,135.12 Q102.1789,135.0086 102.1208,134.9505 Q102.0191,134.8343 101.8302,134.7664 Q101.6413,134.6986 101.4475,134.6986 Q101.2102,134.6986 101.0116,134.8004 Q100.8178,134.9021 100.6628,135.1346 Q100.5127,135.3671 100.5127,135.6868 L100.5127,136.0258 Q100.5127,136.4085 100.7888,136.6652 Q101.0648,136.9171 101.5589,136.9171 Q101.8495,136.9171 102.053,136.8396 Q102.1741,136.7911 102.3048,136.6555 Q102.3872,136.5732 102.4308,136.5489 Q102.4792,136.5247 102.5422,136.5247 Q102.6439,136.5247 102.7214,136.6071 Q102.8038,136.6846 102.8038,136.7911 Q102.8038,136.8977 102.6972,137.0236 Q102.5422,137.2029 102.2952,137.3046 Q101.9609,137.445 101.5589,137.445 Q101.0891,137.445 100.7161,137.2513 Q100.4109,137.0963 100.1978,136.7669 Q99.9847,136.4327 99.9847,136.0355 L99.9847,135.6771 Q99.9847,135.2654 100.1736,134.9118 Q100.3673,134.5533 100.7064,134.3644 Q101.0455,134.1707 101.4281,134.1707 Q101.6558,134.1707 101.8544,134.2239 Q102.0578,134.2724 102.2273,134.3838 Z " fill="#000000"/><text fill="#000000" font-family="sans-serif" font-size="4.34" lengthAdjust="spacing" textLength="49.29" x="105.71" y="137.4596">SetCommissionController</text><line style="stroke:#181818;stroke-width:0.155;" x1="97.03" x2="155.62" y1="140.6225" y2="140.6225"/><line style="stroke:#181818;stroke-width:0.155;" x1="97.03" x2="155.62" y1="143.1025" y2="143.1025"/></g><!--class Request--><g id="elem_Request"><rect codeLine="54" fill="#F1F1F1" height="61.0603" id="Request" rx="0.775" ry="0.775" style="stroke:#181818;stroke-width:0.155;" width="53.01" x="513.98" y="14.4525"/><ellipse cx="530.9525" cy="19.4125" fill="#ADD1B2" rx="3.41" ry="3.41" style="stroke:#181818;stroke-width:0.31;"/><path d="M531.8098,18.1338 Q531.8583,18.066 531.9164,18.0321 Q531.9745,17.9982 532.0423,17.9982 Q532.1586,17.9982 532.2313,18.0805 Q532.3039,18.158 532.3039,18.3469 L532.3039,18.7974 Q532.3039,18.9863 532.2313,19.0686 Q532.1586,19.151 532.0423,19.151 Q531.9358,19.151 531.8728,19.088 Q531.8098,19.0299 531.7759,18.87 Q531.7614,18.7586 531.7033,18.7005 Q531.6016,18.5843 531.4127,18.5164 Q531.2238,18.4486 531.03,18.4486 Q530.7927,18.4486 530.5941,18.5504 Q530.4003,18.6521 530.2453,18.8846 Q530.0952,19.1171 530.0952,19.4368 L530.0952,19.7758 Q530.0952,20.1585 530.3713,20.4152 Q530.6473,20.6671 531.1414,20.6671 Q531.432,20.6671 531.6355,20.5896 Q531.7566,20.5411 531.8873,20.4055 Q531.9697,20.3232 532.0133,20.2989 Q532.0617,20.2747 532.1247,20.2747 Q532.2264,20.2747 532.3039,20.3571 Q532.3863,20.4346 532.3863,20.5411 Q532.3863,20.6477 532.2797,20.7736 Q532.1247,20.9529 531.8777,21.0546 Q531.5434,21.195 531.1414,21.195 Q530.6716,21.195 530.2986,21.0013 Q529.9934,20.8463 529.7803,20.5169 Q529.5672,20.1827 529.5672,19.7855 L529.5672,19.4271 Q529.5672,19.0154 529.7561,18.6618 Q529.9498,18.3033 530.2889,18.1144 Q530.628,17.9207 531.0106,17.9207 Q531.2383,17.9207 531.4369,17.9739 Q531.6403,18.0224 531.8098,18.1338 Z " fill="#000000"/><text fill="#000000" font-family="sans-serif" font-size="4.34" lengthAdjust="spacing" textLength="16.43" x="537.3075" y="21.2096">Request</text><line style="stroke:#181818;stroke-width:0.155;" x1="514.29" x2="566.68" y1="24.3725" y2="24.3725"/><text fill="#000000" font-family="sans-serif" font-size="4.34" lengthAdjust="spacing" textLength="23.87" x="515.84" y="30.2958">-String type;</text><text fill="#000000" font-family="sans-serif" font-size="4.34" lengthAdjust="spacing" textLength="22.01" x="515.84" y="36.0684">-float price;</text><text fill="#000000" font-family="sans-serif" font-size="4.34" lengthAdjust="spacing" textLength="32.55" x="515.84" y="41.8409">-String priceUnit;</text><text fill="#000000" font-family="sans-serif" font-size="4.34" lengthAdjust="spacing" textLength="44.33" x="515.84" y="47.6135">-boolean isItPublished;</text><text fill="#000000" font-family="sans-serif" font-size="4.34" lengthAdjust="spacing" textLength="47.43" x="515.84" y="53.386">-String commissionDate;</text><text fill="#000000" font-family="sans-serif" font-size="4.34" lengthAdjust="spacing" textLength="37.82" x="515.84" y="59.1585">-String ownerEmail;</text><text fill="#000000" font-family="sans-serif" font-size="4.34" lengthAdjust="spacing" textLength="49.29" x="515.84" y="64.9311">-String commissionValue;</text><text fill="#000000" font-family="sans-serif" font-size="4.34" lengthAdjust="spacing" textLength="24.8" x="515.84" y="70.7036">-int duration;</text><line style="stroke:#181818;stroke-width:0.155;" x1="514.29" x2="566.68" y1="73.0329" y2="73.0329"/></g><!--class House--><g id="elem_House"><rect codeLine="65" fill="#F1F1F1" height="55.2878" id="House" rx="0.775" ry="0.775" style="stroke:#181818;stroke-width:0.155;" width="56.11" x="361.15" y="110.5525"/><ellipse cx="381.6875" cy="115.5125" fill="#ADD1B2" rx="3.41" ry="3.41" style="stroke:#181818;stroke-width:0.31;"/><path d="M382.5448,114.2338 Q382.5933,114.166 382.6514,114.1321 Q382.7095,114.0982 382.7773,114.0982 Q382.8936,114.0982 382.9663,114.1805 Q383.0389,114.258 383.0389,114.4469 L383.0389,114.8974 Q383.0389,115.0863 382.9663,115.1686 Q382.8936,115.251 382.7773,115.251 Q382.6708,115.251 382.6078,115.188 Q382.5448,115.1299 382.5109,114.97 Q382.4964,114.8586 382.4383,114.8005 Q382.3366,114.6843 382.1477,114.6164 Q381.9588,114.5486 381.765,114.5486 Q381.5277,114.5486 381.3291,114.6504 Q381.1353,114.7521 380.9803,114.9846 Q380.8302,115.2171 380.8302,115.5368 L380.8302,115.8758 Q380.8302,116.2585 381.1063,116.5152 Q381.3823,116.7671 381.8764,116.7671 Q382.167,116.7671 382.3705,116.6896 Q382.4916,116.6411 382.6223,116.5055 Q382.7047,116.4232 382.7483,116.3989 Q382.7967,116.3747 382.8597,116.3747 Q382.9614,116.3747 383.0389,116.4571 Q383.1213,116.5346 383.1213,116.6411 Q383.1213,116.7477 383.0147,116.8736 Q382.8597,117.0529 382.6127,117.1546 Q382.2784,117.295 381.8764,117.295 Q381.4066,117.295 381.0336,117.1013 Q380.7284,116.9463 380.5153,116.6169 Q380.3022,116.2827 380.3022,115.8855 L380.3022,115.5271 Q380.3022,115.1154 380.4911,114.7618 Q380.6848,114.4033 381.0239,114.2144 Q381.363,114.0207 381.7456,114.0207 Q381.9733,114.0207 382.1719,114.0739 Q382.3753,114.1224 382.5448,114.2338 Z " fill="#000000"/><text fill="#000000" font-family="sans-serif" font-size="4.34" lengthAdjust="spacing" textLength="12.4" x="388.0425" y="117.3096">House</text><line style="stroke:#181818;stroke-width:0.155;" x1="361.46" x2="416.95" y1="120.4725" y2="120.4725"/><text fill="#000000" font-family="sans-serif" font-size="4.34" lengthAdjust="spacing" textLength="26.97" x="363.01" y="126.3958">-int bedrooms</text><text fill="#000000" font-family="sans-serif" font-size="4.34" lengthAdjust="spacing" textLength="28.21" x="363.01" y="132.1684">-int bathrooms</text><text fill="#000000" font-family="sans-serif" font-size="4.34" lengthAdjust="spacing" textLength="36.58" x="363.01" y="137.9409">-int parkingSpaces</text><text fill="#000000" font-family="sans-serif" font-size="4.34" lengthAdjust="spacing" textLength="52.39" x="363.01" y="143.7135">-String availableEquipment</text><text fill="#000000" font-family="sans-serif" font-size="4.34" lengthAdjust="spacing" textLength="37.82" x="363.01" y="149.486">-boolean basement</text><text fill="#000000" font-family="sans-serif" font-size="4.34" lengthAdjust="spacing" textLength="47.43" x="363.01" y="155.2585">-boolean inhabitableLoft</text><text fill="#000000" font-family="sans-serif" font-size="4.34" lengthAdjust="spacing" textLength="36.58" x="363.01" y="161.0311">-float sunExposure</text><line style="stroke:#181818;stroke-width:0.155;" x1="361.46" x2="416.95" y1="163.3603" y2="163.3603"/></g><!--class Apartment--><g id="elem_Apartment"><rect codeLine="76" fill="#F1F1F1" height="37.9702" id="Apartment" rx="0.775" ry="0.775" style="stroke:#181818;stroke-width:0.155;" width="56.11" x="428.11" y="119.2325"/><ellipse cx="444.7725" cy="124.1925" fill="#ADD1B2" rx="3.41" ry="3.41" style="stroke:#181818;stroke-width:0.31;"/><path d="M445.6298,122.9138 Q445.6783,122.846 445.7364,122.8121 Q445.7945,122.7782 445.8623,122.7782 Q445.9786,122.7782 446.0513,122.8605 Q446.1239,122.938 446.1239,123.1269 L446.1239,123.5774 Q446.1239,123.7663 446.0513,123.8486 Q445.9786,123.931 445.8623,123.931 Q445.7558,123.931 445.6928,123.868 Q445.6298,123.8099 445.5959,123.65 Q445.5814,123.5386 445.5233,123.4805 Q445.4216,123.3643 445.2327,123.2964 Q445.0438,123.2286 444.85,123.2286 Q444.6127,123.2286 444.4141,123.3304 Q444.2203,123.4321 444.0653,123.6646 Q443.9152,123.8971 443.9152,124.2168 L443.9152,124.5558 Q443.9152,124.9385 444.1913,125.1952 Q444.4673,125.4471 444.9614,125.4471 Q445.252,125.4471 445.4555,125.3696 Q445.5766,125.3211 445.7073,125.1855 Q445.7897,125.1032 445.8333,125.0789 Q445.8817,125.0547 445.9447,125.0547 Q446.0464,125.0547 446.1239,125.1371 Q446.2063,125.2146 446.2063,125.3211 Q446.2063,125.4277 446.0997,125.5536 Q445.9447,125.7329 445.6977,125.8346 Q445.3634,125.975 444.9614,125.975 Q444.4916,125.975 444.1186,125.7813 Q443.8134,125.6263 443.6003,125.2969 Q443.3872,124.9627 443.3872,124.5655 L443.3872,124.2071 Q443.3872,123.7954 443.5761,123.4418 Q443.7698,123.0833 444.1089,122.8944 Q444.448,122.7007 444.8306,122.7007 Q445.0583,122.7007 445.2569,122.7539 Q445.4603,122.8024 445.6298,122.9138 Z " fill="#000000"/><text fill="#000000" font-family="sans-serif" font-size="4.34" lengthAdjust="spacing" textLength="20.15" x="451.1275" y="125.9896">Apartment</text><line style="stroke:#181818;stroke-width:0.155;" x1="428.42" x2="483.91" y1="129.1525" y2="129.1525"/><text fill="#000000" font-family="sans-serif" font-size="4.34" lengthAdjust="spacing" textLength="26.97" x="429.97" y="135.0758">-int bedrooms</text><text fill="#000000" font-family="sans-serif" font-size="4.34" lengthAdjust="spacing" textLength="28.21" x="429.97" y="140.8484">-int bathrooms</text><text fill="#000000" font-family="sans-serif" font-size="4.34" lengthAdjust="spacing" textLength="36.58" x="429.97" y="146.6209">-int parkingSpaces</text><text fill="#000000" font-family="sans-serif" font-size="4.34" lengthAdjust="spacing" textLength="52.39" x="429.97" y="152.3935">-String availableEquipment</text><line style="stroke:#181818;stroke-width:0.155;" x1="428.42" x2="483.91" y1="154.7227" y2="154.7227"/></g><!--class Land--><g id="elem_Land"><rect codeLine="84" fill="#F1F1F1" height="14.88" id="Land" rx="0.775" ry="0.775" style="stroke:#181818;stroke-width:0.155;" width="19.84" x="495.225" y="130.7025"/><ellipse cx="499.875" cy="135.6625" fill="#ADD1B2" rx="3.41" ry="3.41" style="stroke:#181818;stroke-width:0.31;"/><path d="M500.7323,134.3838 Q500.7808,134.316 500.8389,134.2821 Q500.897,134.2482 500.9648,134.2482 Q501.0811,134.2482 501.1538,134.3305 Q501.2264,134.408 501.2264,134.5969 L501.2264,135.0474 Q501.2264,135.2363 501.1538,135.3186 Q501.0811,135.401 500.9648,135.401 Q500.8583,135.401 500.7953,135.338 Q500.7323,135.2799 500.6984,135.12 Q500.6839,135.0086 500.6258,134.9505 Q500.5241,134.8343 500.3352,134.7664 Q500.1463,134.6986 499.9525,134.6986 Q499.7152,134.6986 499.5166,134.8004 Q499.3228,134.9021 499.1678,135.1346 Q499.0177,135.3671 499.0177,135.6868 L499.0177,136.0258 Q499.0177,136.4085 499.2938,136.6652 Q499.5698,136.9171 500.0639,136.9171 Q500.3545,136.9171 500.558,136.8396 Q500.6791,136.7911 500.8098,136.6555 Q500.8922,136.5732 500.9358,136.5489 Q500.9842,136.5247 501.0472,136.5247 Q501.1489,136.5247 501.2264,136.6071 Q501.3088,136.6846 501.3088,136.7911 Q501.3088,136.8977 501.2022,137.0236 Q501.0472,137.2029 500.8002,137.3046 Q500.4659,137.445 500.0639,137.445 Q499.5941,137.445 499.2211,137.2513 Q498.9159,137.0963 498.7028,136.7669 Q498.4897,136.4327 498.4897,136.0355 L498.4897,135.6771 Q498.4897,135.2654 498.6786,134.9118 Q498.8723,134.5533 499.2114,134.3644 Q499.5505,134.1707 499.9331,134.1707 Q500.1608,134.1707 500.3594,134.2239 Q500.5628,134.2724 500.7323,134.3838 Z " fill="#000000"/><text fill="#000000" font-family="sans-serif" font-size="4.34" lengthAdjust="spacing" textLength="9.92" x="504.215" y="137.4596">Land</text><line style="stroke:#181818;stroke-width:0.155;" x1="495.535" x2="514.755" y1="140.6225" y2="140.6225"/><line style="stroke:#181818;stroke-width:0.155;" x1="495.535" x2="514.755" y1="143.1025" y2="143.1025"/></g><!--class EditAndSortList--><g id="elem_EditAndSortList"><rect codeLine="88" fill="#F1F1F1" height="37.9702" id="EditAndSortList" rx="0.775" ry="0.775" style="stroke:#181818;stroke-width:0.155;" width="104.16" x="218.395" y="119.2325"/><ellipse cx="254.1225" cy="124.1925" fill="#ADD1B2" rx="3.41" ry="3.41" style="stroke:#181818;stroke-width:0.31;"/><path d="M254.9798,122.9138 Q255.0283,122.846 255.0864,122.8121 Q255.1445,122.7782 255.2123,122.7782 Q255.3286,122.7782 255.4013,122.8605 Q255.4739,122.938 255.4739,123.1269 L255.4739,123.5774 Q255.4739,123.7663 255.4013,123.8486 Q255.3286,123.931 255.2123,123.931 Q255.1058,123.931 255.0428,123.868 Q254.9798,123.8099 254.9459,123.65 Q254.9314,123.5386 254.8733,123.4805 Q254.7716,123.3643 254.5827,123.2964 Q254.3938,123.2286 254.2,123.2286 Q253.9627,123.2286 253.7641,123.3304 Q253.5703,123.4321 253.4153,123.6646 Q253.2652,123.8971 253.2652,124.2168 L253.2652,124.5558 Q253.2652,124.9385 253.5413,125.1952 Q253.8173,125.4471 254.3114,125.4471 Q254.602,125.4471 254.8055,125.3696 Q254.9266,125.3211 255.0573,125.1855 Q255.1397,125.1032 255.1833,125.0789 Q255.2317,125.0547 255.2947,125.0547 Q255.3964,125.0547 255.4739,125.1371 Q255.5563,125.2146 255.5563,125.3211 Q255.5563,125.4277 255.4497,125.5536 Q255.2947,125.7329 255.0477,125.8346 Q254.7134,125.975 254.3114,125.975 Q253.8416,125.975 253.4686,125.7813 Q253.1634,125.6263 252.9503,125.2969 Q252.7372,124.9627 252.7372,124.5655 L252.7372,124.2071 Q252.7372,123.7954 252.9261,123.4418 Q253.1198,123.0833 253.4589,122.8944 Q253.798,122.7007 254.1806,122.7007 Q254.4083,122.7007 254.6069,122.7539 Q254.8103,122.8024 254.9798,122.9138 Z " fill="#000000"/><text fill="#000000" font-family="sans-serif" font-size="4.34" lengthAdjust="spacing" textLength="30.07" x="260.4775" y="125.9896">EditAndSortList</text><line style="stroke:#181818;stroke-width:0.155;" x1="218.705" x2="322.245" y1="129.1525" y2="129.1525"/><line style="stroke:#181818;stroke-width:0.155;" x1="218.705" x2="322.245" y1="131.6325" y2="131.6325"/><text fill="#000000" font-family="sans-serif" font-size="4.34" lengthAdjust="spacing" textLength="100.44" x="220.255" y="137.5558">+getPropertiesWithXTypeOfSale(propertyList, type)</text><text fill="#000000" font-family="sans-serif" font-size="4.34" lengthAdjust="spacing" textLength="84.01" x="220.255" y="143.3284">+getPropertiesIfTheyAreLand(propertyList)</text><text fill="#000000" font-family="sans-serif" font-size="4.34" lengthAdjust="spacing" textLength="94.24" x="220.255" y="149.1009">+getPropertiesIfTheyAreApartment(propertyList)</text><text fill="#000000" font-family="sans-serif" font-size="4.34" lengthAdjust="spacing" textLength="86.49" x="220.255" y="154.8735">+getPropertiesIfTheyAreHouse(propertyList)</text></g><!--link Agent to SetCommissionUI--><g id="link_Agent_SetCommissionUI"><path codeLine="96" d="M52.1048,54.7587 C55.3877,55.7135 58.745,56.5288 62,57.0775 C69.0649,58.2679 87.1937,58.3733 94.24,57.0775 C96.9835,56.5722 99.7952,55.8437 102.5604,54.9881 " fill="none" id="Agent-to-SetCommissionUI" style="stroke:#181818;stroke-width:0.31;"/><polygon fill="#181818" points="104.0887,54.5014,101.0531,54.1744,102.613,54.9756,101.8118,56.5355,104.0887,54.5014" style="stroke:#181818;stroke-width:0.31;"/><text fill="#000000" font-family="sans-serif" font-size="4.03" lengthAdjust="spacing" textLength="31.62" x="62.31" y="50.5763">runs and answers</text><text fill="#000000" font-family="sans-serif" font-size="4.03" lengthAdjust="spacing" textLength="27.59" x="64.325" y="55.9365">given questions</text></g><!--link SetCommissionUI to Agent--><g id="link_SetCommissionUI_Agent"><path codeLine="99" d="M104.1538,44.9875 C89.311,44.9875 69.5888,44.9875 53.8191,44.9875 " fill="none" id="SetCommissionUI-to-Agent" style="stroke:#181818;stroke-width:0.31;"/><polygon fill="#181818" points="52.2071,44.9875,54.9971,46.2275,53.7571,44.9875,54.9971,43.7475,52.2071,44.9875" style="stroke:#181818;stroke-width:0.31;"/><text fill="#000000" font-family="sans-serif" font-size="4.03" lengthAdjust="spacing" textLength="40.61" x="57.815" y="37.5563">asks agent about what</text><text fill="#000000" font-family="sans-serif" font-size="4.03" lengthAdjust="spacing" textLength="28.21" x="64.015" y="42.9165">filters they want</text></g><!--link SetCommissionUI to Repositories--><g id="link_SetCommissionUI_Repositories"><path codeLine="97" d="M147.9289,44.9875 C157.7094,44.9875 169.5886,44.9875 181.0059,44.9875 " fill="none" id="SetCommissionUI-to-Repositories" style="stroke:#181818;stroke-width:0.31;"/><polygon fill="#181818" points="182.6892,44.9875,179.8992,43.7475,181.1392,44.9875,179.8992,46.2275,182.6892,44.9875" style="stroke:#181818;stroke-width:0.31;"/><text fill="#000000" font-family="sans-serif" font-size="4.03" lengthAdjust="spacing" textLength="23.56" x="153.5275" y="37.5563">gets property</text><text fill="#000000" font-family="sans-serif" font-size="4.03" lengthAdjust="spacing" textLength="22.32" x="154.1475" y="42.9165">list through..</text></g><!--link SetCommissionUI to SetCommissionController--><g id="link_SetCommissionUI_SetCommissionController"><path codeLine="98" d="M120.776,55.4283 C115.6486,66.579 109.0208,85.0674 112.065,101.2525 C113.9436,111.2376 118.4696,121.9977 121.923,129.2424 " fill="none" id="SetCommissionUI-to-SetCommissionController" style="stroke:#181818;stroke-width:0.31;"/><polygon fill="#181818" points="122.5957,130.6436,122.5,127.592,121.9221,129.2477,120.2664,128.6698,122.5957,130.6436" style="stroke:#181818;stroke-width:0.31;"/><text fill="#000000" font-family="sans-serif" font-size="4.03" lengthAdjust="spacing" textLength="13.33" x="112.375" y="94.7513">creates</text></g><!--link SetCommissionUI to SetCommissionController--><g id="link_SetCommissionUI_SetCommissionController"><path codeLine="100" d="M126.4211,55.45 C126.7187,63.4325 127.0969,74.8343 127.255,84.8225 C127.3697,92.123 127.348,93.952 127.255,101.2525 C127.1341,110.7602 126.8365,121.6567 126.6102,129.0657 " fill="none" id="SetCommissionUI-to-SetCommissionController-1" style="stroke:#181818;stroke-width:0.31;"/><polygon fill="#181818" points="126.5606,130.6839,127.8876,127.9343,126.6093,129.1347,125.4089,127.8564,126.5606,130.6839" style="stroke:#181818;stroke-width:0.31;"/><text fill="#000000" font-family="sans-serif" font-size="4.03" lengthAdjust="spacing" textLength="24.18" x="135.16" y="89.4813">tells it to filter</text><text fill="#000000" font-family="sans-serif" font-size="4.03" lengthAdjust="spacing" textLength="30.69" x="131.905" y="94.8415">the list according</text><text fill="#000000" font-family="sans-serif" font-size="4.03" lengthAdjust="spacing" textLength="38.75" x="127.875" y="100.2017">to the agent's request</text></g><!--link SetCommissionController to EditAndSortList--><g id="link_SetCommissionController_EditAndSortList"><path codeLine="102" d="M155.93,138.1425 C173.4357,138.1425 196.137,138.1425 216.7086,138.1425 " fill="none" id="SetCommissionController-to-EditAndSortList" style="stroke:#181818;stroke-width:0.31;"/><polygon fill="#181818" points="218.3113,138.1425,215.5213,136.9025,216.7613,138.1425,215.5213,139.3825,218.3113,138.1425" style="stroke:#181818;stroke-width:0.31;"/><text fill="#000000" font-family="sans-serif" font-size="4.03" lengthAdjust="spacing" textLength="51.15" x="161.5875" y="130.7113">runs the necessary methods</text><text fill="#000000" font-family="sans-serif" font-size="4.03" lengthAdjust="spacing" textLength="41.23" x="166.5475" y="136.0715">for the requested result</text></g><!--link Repositories to PropertyRequestRepository--><g id="link_Repositories_PropertyRequestRepository"><path codeLine="104" d="M264.616,44.9875 C272.6698,44.9875 281.2413,44.9875 289.6702,44.9875 " fill="none" id="Repositories-to-PropertyRequestRepository" style="stroke:#181818;stroke-width:0.31;"/><polygon fill="#181818" points="291.245,44.9875,288.455,43.7475,289.695,44.9875,288.455,46.2275,291.245,44.9875" style="stroke:#181818;stroke-width:0.31;"/><text fill="#000000" font-family="sans-serif" font-size="4.03" lengthAdjust="spacing" textLength="15.19" x="270.32" y="42.8263">contains</text></g><!--link PropertyRequestRepository to Property--><g id="link_PropertyRequestRepository_Property"><path codeLine="105" d="M398.5639,44.9875 C407.0579,44.9875 415.6139,44.9875 423.4352,44.9875 " fill="none" id="PropertyRequestRepository-to-Property" style="stroke:#181818;stroke-width:0.31;"/><polygon fill="#181818" points="424.9914,44.9875,422.2014,43.7475,423.4414,44.9875,422.2014,46.2275,424.9914,44.9875" style="stroke:#181818;stroke-width:0.31;"/><text fill="#000000" font-family="sans-serif" font-size="4.03" lengthAdjust="spacing" textLength="15.19" x="404.1625" y="42.8263">contains</text></g><!--link Property to Request--><g id="link_Property_Request"><path codeLine="106" d="M487.3231,44.9875 C495.504,44.9875 504.277,44.9875 512.2936,44.9875 " fill="none" id="Property-to-Request" style="stroke:#181818;stroke-width:0.31;"/><polygon fill="#181818" points="513.887,44.9875,511.097,43.7475,512.337,44.9875,511.097,46.2275,513.887,44.9875" style="stroke:#181818;stroke-width:0.31;"/><text fill="#000000" font-family="sans-serif" font-size="4.03" lengthAdjust="spacing" textLength="15.19" x="493.055" y="42.8263">contains</text></g><!--link Property to Land--><g id="link_Property_Land"><path codeLine="107" d="M469.1633,69.8526 C479.5545,89.4818 493.5138,115.8597 500.6035,129.2517 " fill="none" id="Property-to-Land" style="stroke:#181818;stroke-width:0.31;"/><polygon fill="#181818" points="501.3506,130.6653,501.142,127.6193,500.6258,129.2953,498.9499,128.779,501.3506,130.6653" style="stroke:#181818;stroke-width:0.31;"/><text fill="#000000" font-family="sans-serif" font-size="4.03" lengthAdjust="spacing" textLength="12.09" x="485.305" y="94.7513">can be</text></g><!--link Property to Apartment--><g id="link_Property_Apartment"><path codeLine="108" d="M456.165,69.8526 C456.165,84.7512 456.165,103.5372 456.165,117.5833 " fill="none" id="Property-to-Apartment" style="stroke:#181818;stroke-width:0.31;"/><polygon fill="#181818" points="456.165,119.186,457.405,116.396,456.165,117.636,454.925,116.396,456.165,119.186" style="stroke:#181818;stroke-width:0.31;"/><text fill="#000000" font-family="sans-serif" font-size="4.03" lengthAdjust="spacing" textLength="12.09" x="456.475" y="94.7513">can be</text></g><!--link Property to House--><g id="link_Property_House"><path codeLine="109" d="M438.3958,69.8526 C429.6693,81.9147 419.0952,96.525 409.9936,109.1048 " fill="none" id="Property-to-House" style="stroke:#181818;stroke-width:0.31;"/><polygon fill="#181818" points="409.0047,110.4688,411.6431,108.9324,409.9119,109.2121,409.6322,107.4809,409.0047,110.4688" style="stroke:#181818;stroke-width:0.31;"/><text fill="#000000" font-family="sans-serif" font-size="4.03" lengthAdjust="spacing" textLength="12.09" x="427.025" y="94.7513">can be</text></g><!--SRC=[hLNVQzim47xtNw6tTNGfVHpj68GiOu6obQNTzb0e5_jYYygIgpitoyB-zvtaoecJ1ZPOeTJIVVg- -rrwqBO13xLg87-04kUyDgWyvWosD9XH3w0A2hVIjbHBCBHhoGqGZPczNhICizpPkVw5wZnZpK9sEpy_VwkkDB6wzgv1psirjjQrDiSQBQkl-DWYCQcHcWGgzK53ASHP5fdLk0oeJJQoK6CsmXgqoKRDgiX6yfETLa3JS7So5nV4lmXudPsMo9_bnKdtsK7acrs72z-vSJO0VYUjhzWuqkoyHWgIoUF-VgsQWwli_lu-QimiITxo97duU5TgQutXxoY8RaZNkuHudpJ5gKvBIyGD1xfJA8gJv98Sdy3e0XZJsrrR8s4dfuHgwEN1HN8CYnlt8zOW9HZ2OTfbMS8HKlHBoB4FIG9uVYoj5FzcewLnm0eyGZPwvZ4k1zRE9cEXk_HzzAwUQ5vFHCPZilhaphNNkTmsmj1KZftqIbDrYUcJEqUUkBhMHC9_EvEKnhpvrkwMO82QE55png3VF7EbbeYwczvjNZTucRngWZENlIqURwrckLeuPn2iqZJZwtPXD5LORA5vh_n1whMzTokBFcRt9UmtC6q0Iz9LqVgOlyjjH9zSIxZfp0iil7CrFP-0gvsZZAuCS3cNkPUcIZhm9BAmC3XzR7KJfdCRnW88XpVQLh3G7F1NRjdNc5ex_IdDt4hj1aKPYoW7Yl_gu43Y2con6LvD2yrZMyoTvp1LctvQjut_NNFruqRA-cKv1uFzp0JycrZl_L6PBMygN8yz1i41_YYoZ_xluB6IUr29gLk6e_S77NwXfBb9YJloIolqT6TB_OHMnVOL46NxRuHciF0kbFX2_OQxioPixL2MjgpEpWxVx_kndI7XocNM6Ud5LrqO5mheWRfzec3XMbQh2lZEBhMHdK8YZMkr0gdolqap6aDAY-zETLntLhXKZ0VotFb2kadkN93e77X5_RBAZZ6Bw5uxfRm76elIgWIomMlaoXLIWQNpqTGlB_cYreZ48F72U_pVWMHIF00j1JmEsc5uwK5NwcublsWMUsZbO0opZaDJtxj7xB5PjxO_]--></g></svg>