<?xml version="1.0" encoding="us-ascii" standalone="no"?><svg xmlns="http://www.w3.org/2000/svg" xmlns:xlink="http://www.w3.org/1999/xlink" contentStyleType="text/css" height="468.3px" preserveAspectRatio="none" style="width:510px;height:468px;background:#FFFFFF;" version="1.1" viewBox="0 0 510 468" width="510.9px" zoomAndPan="magnify"><defs/><g><text fill="#000000" font-family="sans-serif" font-size="4.2" font-weight="bold" lengthAdjust="spacing" textLength="83.7" x="213.3" y="9.0322">User Story 008 - Sequence Diagram (SD)</text><rect fill="#FFFFFF" height="400.8463" style="stroke:#181818;stroke-width:0.3;" width="3" x="10.95" y="39.9727"/><rect fill="#FFFFFF" height="97.5721" style="stroke:#181818;stroke-width:0.3;" width="3" x="156.45" y="46.96"/><rect fill="#FFFFFF" height="75.3984" style="stroke:#181818;stroke-width:0.3;" width="3" x="156.45" y="153.9193"/><rect fill="#FFFFFF" height="201.8139" style="stroke:#181818;stroke-width:0.3;" width="3" x="156.45" y="238.7051"/><rect fill="#FFFFFF" height="65.7111" style="stroke:#181818;stroke-width:0.3;" width="3" x="247.95" y="69.4336"/><rect fill="#FFFFFF" height="46.6365" style="stroke:#181818;stroke-width:0.3;" width="3" x="247.95" y="171.1939"/><rect fill="#FFFFFF" height="141.1008" style="stroke:#181818;stroke-width:0.3;" width="3" x="247.95" y="255.9797"/><rect fill="#FFFFFF" height="27.8619" style="stroke:#181818;stroke-width:0.3;" width="3" x="348.15" y="180.5812"/><rect fill="#FFFFFF" height="27.8619" style="stroke:#181818;stroke-width:0.3;" width="3" x="348.15" y="273.2543"/><rect fill="#FFFFFF" height="27.8619" style="stroke:#181818;stroke-width:0.3;" width="3" x="348.15" y="315.4928"/><rect fill="#FFFFFF" height="27.8619" style="stroke:#181818;stroke-width:0.3;" width="3" x="348.15" y="357.7313"/><rect fill="#FFFFFF" height="9.3873" style="stroke:#181818;stroke-width:0.3;" width="3" x="415.95" y="78.8209"/><rect fill="#FFFFFF" height="9.3873" style="stroke:#181818;stroke-width:0.3;" width="3" x="448.05" y="97.5955"/><rect fill="#FFFFFF" height="9.3873" style="stroke:#181818;stroke-width:0.3;" width="3" x="486.6" y="116.3701"/><rect fill="none" height="61.8111" style="stroke:#000000;stroke-width:0.44999999999999996;" width="281.55" x="135.9" y="158.4193"/><rect fill="none" height="156.2754" style="stroke:#000000;stroke-width:0.44999999999999996;" width="260.55" x="135.9" y="243.2051"/><rect fill="none" height="127.5135" style="stroke:#000000;stroke-width:0.44999999999999996;" width="173.55" x="219.9" y="260.4797"/><rect fill="none" height="34.7385" style="stroke:#000000;stroke-width:0.44999999999999996;" width="177" x="3" y="403.6805"/><line style="stroke:#181818;stroke-width:0.15;stroke-dasharray:5.0,5.0;" x1="12.3" x2="12.3" y1="36.9727" y2="443.5189"/><line style="stroke:#181818;stroke-width:0.15;stroke-dasharray:5.0,5.0;" x1="157.8" x2="157.8" y1="36.9727" y2="443.5189"/><line style="stroke:#181818;stroke-width:0.15;stroke-dasharray:5.0,5.0;" x1="249.3" x2="249.3" y1="58.9031" y2="443.5189"/><line style="stroke:#181818;stroke-width:0.15;stroke-dasharray:5.0,5.0;" x1="349.5" x2="349.5" y1="36.9727" y2="443.5189"/><line style="stroke:#181818;stroke-width:0.15;stroke-dasharray:5.0,5.0;" x1="417.3" x2="417.3" y1="36.9727" y2="443.5189"/><line style="stroke:#181818;stroke-width:0.15;stroke-dasharray:5.0,5.0;" x1="449.4" x2="449.4" y1="36.9727" y2="443.5189"/><line style="stroke:#181818;stroke-width:0.15;stroke-dasharray:5.0,5.0;" x1="488.1" x2="488.1" y1="36.9727" y2="443.5189"/><text fill="#000000" font-family="sans-serif" font-size="4.2" lengthAdjust="spacing" textLength="11.1" x="6" y="35.9186">Agent</text><ellipse cx="12.45" cy="15.9363" fill="#E3E3E3" rx="2.4" ry="2.4" style="stroke:#181818;stroke-width:0.15;"/><path d="M12.45,18.3363 L12.45,26.4363 M8.55,20.7363 L16.35,20.7363 M12.45,26.4363 L8.55,30.9363 M12.45,26.4363 L16.35,30.9363 " fill="none" style="stroke:#181818;stroke-width:0.15;"/><text fill="#000000" font-family="sans-serif" font-size="4.2" lengthAdjust="spacing" textLength="11.1" x="6" y="447.7512">Agent</text><ellipse cx="12.45" cy="451.3553" fill="#E3E3E3" rx="2.4" ry="2.4" style="stroke:#181818;stroke-width:0.15;"/><path d="M12.45,453.7553 L12.45,461.8553 M8.55,456.1553 L16.35,456.1553 M12.45,461.8553 L8.55,466.3553 M12.45,461.8553 L16.35,466.3553 " fill="none" style="stroke:#181818;stroke-width:0.15;"/><rect fill="#E3E3E3" height="9.7863" rx="0.75" ry="0.75" style="stroke:#181818;stroke-width:0.15;" width="38.1" x="138.9" y="26.8863"/><text fill="#000000" font-family="sans-serif" font-size="4.2" lengthAdjust="spacing" textLength="33.9" x="141" y="33.5186">:SetCommissionUI</text><rect fill="#E3E3E3" height="9.7863" rx="0.75" ry="0.75" style="stroke:#181818;stroke-width:0.15;" width="38.1" x="138.9" y="443.2189"/><text fill="#000000" font-family="sans-serif" font-size="4.2" lengthAdjust="spacing" textLength="33.9" x="141" y="449.8512">:SetCommissionUI</text><rect fill="#E3E3E3" height="9.7863" rx="0.75" ry="0.75" style="stroke:#181818;stroke-width:0.15;" width="53.1" x="222.9" y="443.2189"/><text fill="#000000" font-family="sans-serif" font-size="4.2" lengthAdjust="spacing" textLength="48.9" x="225" y="449.8512">:SetCommissionController</text><rect fill="#E3E3E3" height="9.7863" rx="0.75" ry="0.75" style="stroke:#181818;stroke-width:0.15;" width="39.9" x="329.7" y="26.8863"/><text fill="#000000" font-family="sans-serif" font-size="4.2" lengthAdjust="spacing" textLength="35.7" x="331.8" y="33.5186">CreatePropertyList</text><rect fill="#E3E3E3" height="9.7863" rx="0.75" ry="0.75" style="stroke:#181818;stroke-width:0.15;" width="39.9" x="329.7" y="443.2189"/><text fill="#000000" font-family="sans-serif" font-size="4.2" lengthAdjust="spacing" textLength="35.7" x="331.8" y="449.8512">CreatePropertyList</text><rect fill="#E3E3E3" height="9.7863" rx="0.75" ry="0.75" style="stroke:#181818;stroke-width:0.15;" width="29.1" x="402.9" y="26.8863"/><text fill="#000000" font-family="sans-serif" font-size="4.2" lengthAdjust="spacing" textLength="24.9" x="405" y="33.5186">:Repositories</text><rect fill="#E3E3E3" height="9.7863" rx="0.75" ry="0.75" style="stroke:#181818;stroke-width:0.15;" width="29.1" x="402.9" y="443.2189"/><text fill="#000000" font-family="sans-serif" font-size="4.2" lengthAdjust="spacing" textLength="24.9" x="405" y="449.8512">:Repositories</text><rect fill="#E3E3E3" height="15.3727" rx="0.75" ry="0.75" style="stroke:#181818;stroke-width:0.15;" width="29.1" x="435" y="21.3"/><text fill="#000000" font-family="sans-serif" font-size="4.2" lengthAdjust="spacing" textLength="22.2" x="438.45" y="27.9322">repositories</text><text fill="#000000" font-family="sans-serif" font-size="4.2" lengthAdjust="spacing" textLength="24.9" x="437.1" y="33.5186">:Repositories</text><rect fill="#E3E3E3" height="15.3727" rx="0.75" ry="0.75" style="stroke:#181818;stroke-width:0.15;" width="29.1" x="435" y="443.2189"/><text fill="#000000" font-family="sans-serif" font-size="4.2" lengthAdjust="spacing" textLength="22.2" x="438.45" y="449.8512">repositories</text><text fill="#000000" font-family="sans-serif" font-size="4.2" lengthAdjust="spacing" textLength="24.9" x="437.1" y="455.4375">:Repositories</text><rect fill="#E3E3E3" height="15.3727" rx="0.75" ry="0.75" style="stroke:#181818;stroke-width:0.15;" width="42" x="467.1" y="21.3"/><text fill="#000000" font-family="sans-serif" font-size="4.2" lengthAdjust="spacing" textLength="36.3" x="469.95" y="27.9322">propertyAnnouncementRepository</text><text fill="#000000" font-family="sans-serif" font-size="4.2" lengthAdjust="spacing" textLength="37.8" x="469.2" y="33.5186">:PropertyRepository</text><rect fill="#E3E3E3" height="15.3727" rx="0.75" ry="0.75" style="stroke:#181818;stroke-width:0.15;" width="42" x="467.1" y="443.2189"/><text fill="#000000" font-family="sans-serif" font-size="4.2" lengthAdjust="spacing" textLength="36.3" x="469.95" y="449.8512">propertyAnnouncementRepository</text><text fill="#000000" font-family="sans-serif" font-size="4.2" lengthAdjust="spacing" textLength="37.8" x="469.2" y="455.4375">:PropertyRepository</text><rect fill="#FFFFFF" height="400.8463" style="stroke:#181818;stroke-width:0.3;" width="3" x="10.95" y="39.9727"/><rect fill="#FFFFFF" height="97.5721" style="stroke:#181818;stroke-width:0.3;" width="3" x="156.45" y="46.96"/><rect fill="#FFFFFF" height="75.3984" style="stroke:#181818;stroke-width:0.3;" width="3" x="156.45" y="153.9193"/><rect fill="#FFFFFF" height="201.8139" style="stroke:#181818;stroke-width:0.3;" width="3" x="156.45" y="238.7051"/><rect fill="#FFFFFF" height="65.7111" style="stroke:#181818;stroke-width:0.3;" width="3" x="247.95" y="69.4336"/><rect fill="#FFFFFF" height="46.6365" style="stroke:#181818;stroke-width:0.3;" width="3" x="247.95" y="171.1939"/><rect fill="#FFFFFF" height="141.1008" style="stroke:#181818;stroke-width:0.3;" width="3" x="247.95" y="255.9797"/><rect fill="#FFFFFF" height="27.8619" style="stroke:#181818;stroke-width:0.3;" width="3" x="348.15" y="180.5812"/><rect fill="#FFFFFF" height="27.8619" style="stroke:#181818;stroke-width:0.3;" width="3" x="348.15" y="273.2543"/><rect fill="#FFFFFF" height="27.8619" style="stroke:#181818;stroke-width:0.3;" width="3" x="348.15" y="315.4928"/><rect fill="#FFFFFF" height="27.8619" style="stroke:#181818;stroke-width:0.3;" width="3" x="348.15" y="357.7313"/><rect fill="#FFFFFF" height="9.3873" style="stroke:#181818;stroke-width:0.3;" width="3" x="415.95" y="78.8209"/><rect fill="#FFFFFF" height="9.3873" style="stroke:#181818;stroke-width:0.3;" width="3" x="448.05" y="97.5955"/><rect fill="#FFFFFF" height="9.3873" style="stroke:#181818;stroke-width:0.3;" width="3" x="486.6" y="116.3701"/><polygon fill="#181818" points="152.85,45.76,155.85,46.96,152.85,48.16,154.05,46.96" style="stroke:#181818;stroke-width:0.3;"/><line style="stroke:#181818;stroke-width:0.3;" x1="13.95" x2="154.65" y1="46.96" y2="46.96"/><text fill="#000000" font-family="sans-serif" font-size="3.9" font-weight="bold" lengthAdjust="spacing" textLength="2.1" x="16.05" y="45.3812">1</text><text fill="#000000" font-family="sans-serif" font-size="3.9" lengthAdjust="spacing" textLength="53.7" x="19.35" y="45.3812">asks to post an announcement</text><polygon fill="#181818" points="219.3,55.1473,222.3,56.3473,219.3,57.5473,220.5,56.3473" style="stroke:#181818;stroke-width:0.3;"/><line style="stroke:#181818;stroke-width:0.3;" x1="159.45" x2="221.1" y1="56.3473" y2="56.3473"/><text fill="#000000" font-family="sans-serif" font-size="3.9" font-weight="bold" lengthAdjust="spacing" textLength="2.1" x="161.55" y="54.7685">2</text><text fill="#000000" font-family="sans-serif" font-size="3.9" lengthAdjust="spacing" textLength="10.8" x="164.85" y="54.7685">create</text><rect fill="#E3E3E3" height="9.7863" rx="0.75" ry="0.75" style="stroke:#181818;stroke-width:0.15;" width="53.1" x="222.9" y="49.36"/><text fill="#000000" font-family="sans-serif" font-size="4.2" lengthAdjust="spacing" textLength="48.9" x="225" y="55.9922">:SetCommissionController</text><polygon fill="#181818" points="244.35,68.2336,247.35,69.4336,244.35,70.6336,245.55,69.4336" style="stroke:#181818;stroke-width:0.3;"/><line style="stroke:#181818;stroke-width:0.3;" x1="159.45" x2="246.15" y1="69.4336" y2="69.4336"/><text fill="#000000" font-family="sans-serif" font-size="3.9" font-weight="bold" lengthAdjust="spacing" textLength="2.1" x="161.55" y="67.8548">3</text><text fill="#000000" font-family="sans-serif" font-size="3.9" lengthAdjust="spacing" textLength="25.5" x="164.85" y="67.8548">getProperties()</text><polygon fill="#181818" points="412.35,77.6209,415.35,78.8209,412.35,80.0209,413.55,78.8209" style="stroke:#181818;stroke-width:0.3;"/><line style="stroke:#181818;stroke-width:0.3;" x1="250.95" x2="414.15" y1="78.8209" y2="78.8209"/><text fill="#000000" font-family="sans-serif" font-size="3.9" font-weight="bold" lengthAdjust="spacing" textLength="2.1" x="253.05" y="77.2421">4</text><text fill="#000000" font-family="sans-serif" font-size="3.9" lengthAdjust="spacing" textLength="22.5" x="256.35" y="77.2421">getInstance()</text><polygon fill="#181818" points="254.25,87.0082,251.25,88.2082,254.25,89.4082,253.05,88.2082" style="stroke:#181818;stroke-width:0.3;"/><line style="stroke:#181818;stroke-width:0.3;stroke-dasharray:2.0,2.0;" x1="252.45" x2="417.15" y1="88.2082" y2="88.2082"/><text fill="#000000" font-family="sans-serif" font-size="3.9" font-weight="bold" lengthAdjust="spacing" textLength="2.1" x="256.05" y="86.6294">5</text><text fill="#000000" font-family="sans-serif" font-size="3.9" lengthAdjust="spacing" textLength="20.1" x="259.35" y="86.6294">repositories</text><polygon fill="#181818" points="444.45,96.3955,447.45,97.5955,444.45,98.7955,445.65,97.5955" style="stroke:#181818;stroke-width:0.3;"/><line style="stroke:#181818;stroke-width:0.3;" x1="250.95" x2="446.25" y1="97.5955" y2="97.5955"/><text fill="#000000" font-family="sans-serif" font-size="3.9" font-weight="bold" lengthAdjust="spacing" textLength="2.1" x="253.05" y="96.0167">6</text><text fill="#000000" font-family="sans-serif" font-size="3.9" lengthAdjust="spacing" textLength="41.1" x="256.35" y="96.0167">getPropertyRepository()</text><polygon fill="#181818" points="254.25,105.7828,251.25,106.9828,254.25,108.1828,253.05,106.9828" style="stroke:#181818;stroke-width:0.3;"/><line style="stroke:#181818;stroke-width:0.3;stroke-dasharray:2.0,2.0;" x1="252.45" x2="449.25" y1="106.9828" y2="106.9828"/><text fill="#000000" font-family="sans-serif" font-size="3.9" font-weight="bold" lengthAdjust="spacing" textLength="2.1" x="256.05" y="105.404">7</text><text fill="#000000" font-family="sans-serif" font-size="3.9" lengthAdjust="spacing" textLength="32.7" x="259.35" y="105.404">propertyAnnouncementRepository</text><polygon fill="#181818" points="483,115.1701,486,116.3701,483,117.5701,484.2,116.3701" style="stroke:#181818;stroke-width:0.3;"/><line style="stroke:#181818;stroke-width:0.3;" x1="250.95" x2="484.8" y1="116.3701" y2="116.3701"/><text fill="#000000" font-family="sans-serif" font-size="3.9" font-weight="bold" lengthAdjust="spacing" textLength="2.1" x="253.05" y="114.7913">8</text><text fill="#000000" font-family="sans-serif" font-size="3.9" lengthAdjust="spacing" textLength="25.5" x="256.35" y="114.7913">getProperties()</text><polygon fill="#181818" points="254.25,124.5574,251.25,125.7574,254.25,126.9574,253.05,125.7574" style="stroke:#181818;stroke-width:0.3;"/><line style="stroke:#181818;stroke-width:0.3;stroke-dasharray:2.0,2.0;" x1="252.45" x2="487.8" y1="125.7574" y2="125.7574"/><text fill="#000000" font-family="sans-serif" font-size="3.9" font-weight="bold" lengthAdjust="spacing" textLength="2.1" x="256.05" y="124.1786">9</text><text fill="#000000" font-family="sans-serif" font-size="3.9" lengthAdjust="spacing" textLength="20.4" x="259.35" y="124.1786">propertyList</text><polygon fill="#181818" points="162.75,133.9447,159.75,135.1447,162.75,136.3447,161.55,135.1447" style="stroke:#181818;stroke-width:0.3;"/><line style="stroke:#181818;stroke-width:0.3;stroke-dasharray:2.0,2.0;" x1="160.95" x2="249.15" y1="135.1447" y2="135.1447"/><text fill="#000000" font-family="sans-serif" font-size="3.9" font-weight="bold" lengthAdjust="spacing" textLength="4.2" x="164.55" y="133.5659">10</text><text fill="#000000" font-family="sans-serif" font-size="3.9" lengthAdjust="spacing" textLength="20.4" x="169.95" y="133.5659">propertyList</text><polygon fill="#181818" points="17.25,143.332,14.25,144.532,17.25,145.732,16.05,144.532" style="stroke:#181818;stroke-width:0.3;"/><line style="stroke:#181818;stroke-width:0.3;stroke-dasharray:2.0,2.0;" x1="15.45" x2="157.65" y1="144.532" y2="144.532"/><text fill="#000000" font-family="sans-serif" font-size="3.9" font-weight="bold" lengthAdjust="spacing" textLength="4.2" x="19.05" y="142.9532">11</text><text fill="#000000" font-family="sans-serif" font-size="3.9" lengthAdjust="spacing" textLength="93.6" x="24.45" y="142.9532">asks if they only want to see 'for rent', 'for sale' or both</text><polygon fill="#181818" points="152.85,152.7193,155.85,153.9193,152.85,155.1193,154.05,153.9193" style="stroke:#181818;stroke-width:0.3;"/><line style="stroke:#181818;stroke-width:0.3;" x1="13.95" x2="154.65" y1="153.9193" y2="153.9193"/><text fill="#000000" font-family="sans-serif" font-size="3.9" font-weight="bold" lengthAdjust="spacing" textLength="4.2" x="16.05" y="152.3405">12</text><text fill="#000000" font-family="sans-serif" font-size="3.9" lengthAdjust="spacing" textLength="36.9" x="21.45" y="152.3405">answers the question</text><path d="M135.9,158.4193 L154.2,158.4193 L154.2,161.2066 L151.2,164.2066 L135.9,164.2066 L135.9,158.4193 " fill="#EEEEEE" style="stroke:#000000;stroke-width:0.44999999999999996;"/><rect fill="none" height="61.8111" style="stroke:#000000;stroke-width:0.44999999999999996;" width="281.55" x="135.9" y="158.4193"/><text fill="#000000" font-family="sans-serif" font-size="3.9" font-weight="bold" lengthAdjust="spacing" textLength="4.8" x="140.4" y="162.9278">alt</text><text fill="#000000" font-family="sans-serif" font-size="3.3" font-weight="bold" lengthAdjust="spacing" textLength="34.5" x="158.7" y="162.5804">[answer isn't "both"]</text><polygon fill="#181818" points="244.35,169.9939,247.35,171.1939,244.35,172.3939,245.55,171.1939" style="stroke:#181818;stroke-width:0.3;"/><line style="stroke:#181818;stroke-width:0.3;" x1="159.45" x2="246.15" y1="171.1939" y2="171.1939"/><text fill="#000000" font-family="sans-serif" font-size="3.9" font-weight="bold" lengthAdjust="spacing" textLength="4.2" x="161.55" y="169.6151">13</text><text fill="#000000" font-family="sans-serif" font-size="3.9" lengthAdjust="spacing" textLength="77.1" x="166.95" y="169.6151">getListOfXTypeOfRequest(propertyList, type)</text><polygon fill="#181818" points="344.55,179.3813,347.55,180.5812,344.55,181.7813,345.75,180.5812" style="stroke:#181818;stroke-width:0.3;"/><line style="stroke:#181818;stroke-width:0.3;" x1="250.95" x2="346.35" y1="180.5812" y2="180.5812"/><text fill="#000000" font-family="sans-serif" font-size="3.9" font-weight="bold" lengthAdjust="spacing" textLength="4.2" x="253.05" y="179.0024">14</text><text fill="#000000" font-family="sans-serif" font-size="3.9" lengthAdjust="spacing" textLength="86.1" x="258.45" y="179.0024">getPropertiesWithXTypeOfSale(propertyList, type)</text><line style="stroke:#181818;stroke-width:0.3;" x1="351.15" x2="363.75" y1="195.1559" y2="195.1559"/><line style="stroke:#181818;stroke-width:0.3;" x1="363.75" x2="363.75" y1="195.1559" y2="199.0559"/><line style="stroke:#181818;stroke-width:0.3;" x1="351.45" x2="363.75" y1="199.0559" y2="199.0559"/><polygon fill="#181818" points="354.45,197.8559,351.45,199.0559,354.45,200.2559,353.25,199.0559" style="stroke:#181818;stroke-width:0.3;"/><text fill="#000000" font-family="sans-serif" font-size="3.9" font-weight="bold" lengthAdjust="spacing" textLength="4.2" x="353.25" y="190.9834">15</text><text fill="#000000" font-family="sans-serif" font-size="3.9" lengthAdjust="spacing" textLength="55.2" x="358.65" y="188.3897">create list with all the properties</text><text fill="#000000" font-family="sans-serif" font-size="3.9" lengthAdjust="spacing" textLength="36.6" x="358.65" y="193.5771">of the requested type</text><polygon fill="#181818" points="254.25,207.2432,251.25,208.4432,254.25,209.6432,253.05,208.4432" style="stroke:#181818;stroke-width:0.3;"/><line style="stroke:#181818;stroke-width:0.3;stroke-dasharray:2.0,2.0;" x1="252.45" x2="349.35" y1="208.4432" y2="208.4432"/><text fill="#000000" font-family="sans-serif" font-size="3.9" font-weight="bold" lengthAdjust="spacing" textLength="4.2" x="256.05" y="206.8644">16</text><text fill="#000000" font-family="sans-serif" font-size="3.9" lengthAdjust="spacing" textLength="20.4" x="261.45" y="206.8644">propertyList</text><polygon fill="#181818" points="162.75,216.6305,159.75,217.8305,162.75,219.0305,161.55,217.8305" style="stroke:#181818;stroke-width:0.3;"/><line style="stroke:#181818;stroke-width:0.3;stroke-dasharray:2.0,2.0;" x1="160.95" x2="249.15" y1="217.8305" y2="217.8305"/><text fill="#000000" font-family="sans-serif" font-size="3.9" font-weight="bold" lengthAdjust="spacing" textLength="4.2" x="164.55" y="216.2517">17</text><text fill="#000000" font-family="sans-serif" font-size="3.9" lengthAdjust="spacing" textLength="20.4" x="169.95" y="216.2517">propertyList</text><polygon fill="#181818" points="17.25,228.1178,14.25,229.3178,17.25,230.5178,16.05,229.3178" style="stroke:#181818;stroke-width:0.3;"/><line style="stroke:#181818;stroke-width:0.3;stroke-dasharray:2.0,2.0;" x1="15.45" x2="157.65" y1="229.3178" y2="229.3178"/><text fill="#000000" font-family="sans-serif" font-size="3.9" font-weight="bold" lengthAdjust="spacing" textLength="4.2" x="19.05" y="227.739">18</text><text fill="#000000" font-family="sans-serif" font-size="3.9" lengthAdjust="spacing" textLength="121.8" x="24.45" y="227.739">asks if they only want to see lands, apartments, houses or all of those</text><polygon fill="#181818" points="152.85,237.5051,155.85,238.7051,152.85,239.9051,154.05,238.7051" style="stroke:#181818;stroke-width:0.3;"/><line style="stroke:#181818;stroke-width:0.3;" x1="13.95" x2="154.65" y1="238.7051" y2="238.7051"/><text fill="#000000" font-family="sans-serif" font-size="3.9" font-weight="bold" lengthAdjust="spacing" textLength="4.2" x="16.05" y="237.1263">19</text><text fill="#000000" font-family="sans-serif" font-size="3.9" lengthAdjust="spacing" textLength="36.9" x="21.45" y="237.1263">answers the question</text><path d="M135.9,243.2051 L154.2,243.2051 L154.2,245.9924 L151.2,248.9924 L135.9,248.9924 L135.9,243.2051 " fill="#EEEEEE" style="stroke:#000000;stroke-width:0.44999999999999996;"/><rect fill="none" height="156.2754" style="stroke:#000000;stroke-width:0.44999999999999996;" width="260.55" x="135.9" y="243.2051"/><text fill="#000000" font-family="sans-serif" font-size="3.9" font-weight="bold" lengthAdjust="spacing" textLength="4.8" x="140.4" y="247.7136">alt</text><text fill="#000000" font-family="sans-serif" font-size="3.3" font-weight="bold" lengthAdjust="spacing" textLength="44.4" x="158.7" y="247.3661">[answer isn't "all of them"]</text><polygon fill="#181818" points="244.35,254.7797,247.35,255.9797,244.35,257.1797,245.55,255.9797" style="stroke:#181818;stroke-width:0.3;"/><line style="stroke:#181818;stroke-width:0.3;" x1="159.45" x2="246.15" y1="255.9797" y2="255.9797"/><text fill="#000000" font-family="sans-serif" font-size="3.9" font-weight="bold" lengthAdjust="spacing" textLength="4.2" x="161.55" y="254.4009">20</text><text fill="#000000" font-family="sans-serif" font-size="3.9" lengthAdjust="spacing" textLength="77.4" x="166.95" y="254.4009">getListOfXTypeOfProperty(propertyList, type)</text><path d="M219.9,260.4797 L238.2,260.4797 L238.2,263.267 L235.2,266.267 L219.9,266.267 L219.9,260.4797 " fill="#EEEEEE" style="stroke:#000000;stroke-width:0.44999999999999996;"/><rect fill="none" height="127.5135" style="stroke:#000000;stroke-width:0.44999999999999996;" width="173.55" x="219.9" y="260.4797"/><text fill="#000000" font-family="sans-serif" font-size="3.9" font-weight="bold" lengthAdjust="spacing" textLength="4.8" x="224.4" y="264.9882">alt</text><text fill="#000000" font-family="sans-serif" font-size="3.3" font-weight="bold" lengthAdjust="spacing" textLength="26.7" x="242.7" y="264.6407">[answer is land]</text><polygon fill="#181818" points="344.55,272.0543,347.55,273.2543,344.55,274.4543,345.75,273.2543" style="stroke:#181818;stroke-width:0.3;"/><line style="stroke:#181818;stroke-width:0.3;" x1="250.95" x2="346.35" y1="273.2543" y2="273.2543"/><text fill="#000000" font-family="sans-serif" font-size="3.9" font-weight="bold" lengthAdjust="spacing" textLength="4.2" x="253.05" y="271.6755">21</text><text fill="#000000" font-family="sans-serif" font-size="3.9" lengthAdjust="spacing" textLength="70.5" x="258.45" y="271.6755">getPropertiesIfTheyAreLand(propertyList)</text><line style="stroke:#181818;stroke-width:0.3;" x1="351.15" x2="363.75" y1="287.8289" y2="287.8289"/><line style="stroke:#181818;stroke-width:0.3;" x1="363.75" x2="363.75" y1="287.8289" y2="291.7289"/><line style="stroke:#181818;stroke-width:0.3;" x1="351.45" x2="363.75" y1="291.7289" y2="291.7289"/><polygon fill="#181818" points="354.45,290.5289,351.45,291.7289,354.45,292.9289,353.25,291.7289" style="stroke:#181818;stroke-width:0.3;"/><text fill="#000000" font-family="sans-serif" font-size="3.9" font-weight="bold" lengthAdjust="spacing" textLength="4.2" x="353.25" y="283.6564">22</text><text fill="#000000" font-family="sans-serif" font-size="3.9" lengthAdjust="spacing" textLength="25.2" x="358.65" y="281.0628">create list with</text><text fill="#000000" font-family="sans-serif" font-size="3.9" lengthAdjust="spacing" textLength="21" x="358.65" y="286.2501">all the lands</text><polygon fill="#181818" points="254.25,299.9162,251.25,301.1162,254.25,302.3162,253.05,301.1162" style="stroke:#181818;stroke-width:0.3;"/><line style="stroke:#181818;stroke-width:0.3;stroke-dasharray:2.0,2.0;" x1="252.45" x2="349.35" y1="301.1162" y2="301.1162"/><text fill="#000000" font-family="sans-serif" font-size="3.9" font-weight="bold" lengthAdjust="spacing" textLength="4.2" x="256.05" y="299.5374">23</text><text fill="#000000" font-family="sans-serif" font-size="3.9" lengthAdjust="spacing" textLength="20.4" x="261.45" y="299.5374">propertyList</text><line style="stroke:#000000;stroke-width:0.3;stroke-dasharray:2.0,2.0;" x1="219.9" x2="393.45" y1="303.8162" y2="303.8162"/><text fill="#000000" font-family="sans-serif" font-size="3.3" font-weight="bold" lengthAdjust="spacing" textLength="36.9" x="221.4" y="307.3772">[answer is apartment]</text><polygon fill="#181818" points="344.55,314.2928,347.55,315.4928,344.55,316.6928,345.75,315.4928" style="stroke:#181818;stroke-width:0.3;"/><line style="stroke:#181818;stroke-width:0.3;" x1="250.95" x2="346.35" y1="315.4928" y2="315.4928"/><text fill="#000000" font-family="sans-serif" font-size="3.9" font-weight="bold" lengthAdjust="spacing" textLength="4.2" x="253.05" y="313.914">24</text><text fill="#000000" font-family="sans-serif" font-size="3.9" lengthAdjust="spacing" textLength="80.1" x="258.45" y="313.914">getPropertiesIfTheyAreApartment(propertyList)</text><line style="stroke:#181818;stroke-width:0.3;" x1="351.15" x2="363.75" y1="330.0674" y2="330.0674"/><line style="stroke:#181818;stroke-width:0.3;" x1="363.75" x2="363.75" y1="330.0674" y2="333.9674"/><line style="stroke:#181818;stroke-width:0.3;" x1="351.45" x2="363.75" y1="333.9674" y2="333.9674"/><polygon fill="#181818" points="354.45,332.7674,351.45,333.9674,354.45,335.1674,353.25,333.9674" style="stroke:#181818;stroke-width:0.3;"/><text fill="#000000" font-family="sans-serif" font-size="3.9" font-weight="bold" lengthAdjust="spacing" textLength="4.2" x="353.25" y="325.8949">25</text><text fill="#000000" font-family="sans-serif" font-size="3.9" lengthAdjust="spacing" textLength="25.2" x="358.65" y="323.3013">create list with</text><text fill="#000000" font-family="sans-serif" font-size="3.9" lengthAdjust="spacing" textLength="31.2" x="358.65" y="328.4886">all the apartments</text><polygon fill="#181818" points="254.25,342.1547,251.25,343.3547,254.25,344.5547,253.05,343.3547" style="stroke:#181818;stroke-width:0.3;"/><line style="stroke:#181818;stroke-width:0.3;stroke-dasharray:2.0,2.0;" x1="252.45" x2="349.35" y1="343.3547" y2="343.3547"/><text fill="#000000" font-family="sans-serif" font-size="3.9" font-weight="bold" lengthAdjust="spacing" textLength="4.2" x="256.05" y="341.7759">26</text><text fill="#000000" font-family="sans-serif" font-size="3.9" lengthAdjust="spacing" textLength="20.4" x="261.45" y="341.7759">propertyList</text><line style="stroke:#000000;stroke-width:0.3;stroke-dasharray:2.0,2.0;" x1="219.9" x2="393.45" y1="346.0547" y2="346.0547"/><text fill="#000000" font-family="sans-serif" font-size="3.3" font-weight="bold" lengthAdjust="spacing" textLength="30.3" x="221.4" y="349.6157">[answer is house]</text><polygon fill="#181818" points="344.55,356.5313,347.55,357.7313,344.55,358.9313,345.75,357.7313" style="stroke:#181818;stroke-width:0.3;"/><line style="stroke:#181818;stroke-width:0.3;" x1="250.95" x2="346.35" y1="357.7313" y2="357.7313"/><text fill="#000000" font-family="sans-serif" font-size="3.9" font-weight="bold" lengthAdjust="spacing" textLength="4.2" x="253.05" y="356.1524">27</text><text fill="#000000" font-family="sans-serif" font-size="3.9" lengthAdjust="spacing" textLength="70.5" x="258.45" y="356.1524">getPropertiesIfTheyAreLand(propertyList)</text><line style="stroke:#181818;stroke-width:0.3;" x1="351.15" x2="363.75" y1="372.3059" y2="372.3059"/><line style="stroke:#181818;stroke-width:0.3;" x1="363.75" x2="363.75" y1="372.3059" y2="376.2059"/><line style="stroke:#181818;stroke-width:0.3;" x1="351.45" x2="363.75" y1="376.2059" y2="376.2059"/><polygon fill="#181818" points="354.45,375.0059,351.45,376.2059,354.45,377.4059,353.25,376.2059" style="stroke:#181818;stroke-width:0.3;"/><text fill="#000000" font-family="sans-serif" font-size="3.9" font-weight="bold" lengthAdjust="spacing" textLength="4.2" x="353.25" y="368.1334">28</text><text fill="#000000" font-family="sans-serif" font-size="3.9" lengthAdjust="spacing" textLength="25.2" x="358.65" y="365.5397">create list with</text><text fill="#000000" font-family="sans-serif" font-size="3.9" lengthAdjust="spacing" textLength="24.3" x="358.65" y="370.7271">all the houses</text><polygon fill="#181818" points="254.25,384.3932,251.25,385.5932,254.25,386.7932,253.05,385.5932" style="stroke:#181818;stroke-width:0.3;"/><line style="stroke:#181818;stroke-width:0.3;stroke-dasharray:2.0,2.0;" x1="252.45" x2="349.35" y1="385.5932" y2="385.5932"/><text fill="#000000" font-family="sans-serif" font-size="3.9" font-weight="bold" lengthAdjust="spacing" textLength="4.2" x="256.05" y="384.0144">29</text><text fill="#000000" font-family="sans-serif" font-size="3.9" lengthAdjust="spacing" textLength="20.4" x="261.45" y="384.0144">propertyList</text><polygon fill="#181818" points="162.75,395.8805,159.75,397.0805,162.75,398.2805,161.55,397.0805" style="stroke:#181818;stroke-width:0.3;"/><line style="stroke:#181818;stroke-width:0.3;stroke-dasharray:2.0,2.0;" x1="160.95" x2="249.15" y1="397.0805" y2="397.0805"/><text fill="#000000" font-family="sans-serif" font-size="3.9" font-weight="bold" lengthAdjust="spacing" textLength="4.2" x="164.55" y="395.5017">30</text><text fill="#000000" font-family="sans-serif" font-size="3.9" lengthAdjust="spacing" textLength="20.4" x="169.95" y="395.5017">propertyList</text><path d="M3,403.6805 L21.3,403.6805 L21.3,406.4678 L18.3,409.4678 L3,409.4678 L3,403.6805 " fill="#EEEEEE" style="stroke:#000000;stroke-width:0.44999999999999996;"/><rect fill="none" height="34.7385" style="stroke:#000000;stroke-width:0.44999999999999996;" width="177" x="3" y="403.6805"/><text fill="#000000" font-family="sans-serif" font-size="3.9" font-weight="bold" lengthAdjust="spacing" textLength="4.8" x="7.5" y="408.189">alt</text><text fill="#000000" font-family="sans-serif" font-size="3.3" font-weight="bold" lengthAdjust="spacing" textLength="93" x="25.8" y="407.8415">[there aren't any requests with the given specifications]</text><polygon fill="#181818" points="17.25,420.4424,14.25,421.6424,17.25,422.8424,16.05,421.6424" style="stroke:#181818;stroke-width:0.3;"/><line style="stroke:#181818;stroke-width:0.3;stroke-dasharray:2.0,2.0;" x1="15.45" x2="156.15" y1="421.6424" y2="421.6424"/><text fill="#000000" font-family="sans-serif" font-size="3.9" font-weight="bold" lengthAdjust="spacing" textLength="4.2" x="19.05" y="417.4699">31</text><text fill="#000000" font-family="sans-serif" font-size="3.9" lengthAdjust="spacing" textLength="76.5" x="24.45" y="414.8763">shows message saying that there aren't any</text><text fill="#000000" font-family="sans-serif" font-size="3.9" lengthAdjust="spacing" textLength="72.9" x="24.45" y="420.0636">requests that meet the given requirements</text><line style="stroke:#000000;stroke-width:0.3;stroke-dasharray:2.0,2.0;" x1="3" x2="180" y1="424.3424" y2="424.3424"/><text fill="#000000" font-family="sans-serif" font-size="3.3" font-weight="bold" lengthAdjust="spacing" textLength="17.7" x="4.5" y="427.9034">[there are]</text><polygon fill="#181818" points="17.25,434.8189,14.25,436.0189,17.25,437.2189,16.05,436.0189" style="stroke:#181818;stroke-width:0.3;"/><line style="stroke:#181818;stroke-width:0.3;stroke-dasharray:2.0,2.0;" x1="15.45" x2="156.15" y1="436.0189" y2="436.0189"/><text fill="#000000" font-family="sans-serif" font-size="3.9" font-weight="bold" lengthAdjust="spacing" textLength="4.2" x="19.05" y="434.4401">32</text><text fill="#000000" font-family="sans-serif" font-size="3.9" lengthAdjust="spacing" textLength="129.9" x="24.45" y="434.4401">shows all property requests to that specific agent starting from most recent</text><!--SRC=[pLTDRzim3BtxLn2vf1qQeCUXXm51kqE002sQ5DiX5zLXOg6sv8bA0__xKRBbxwKVwueLFGWIoKVnFJ8MFKcL2oCooBJISM9qXc3D0IEgJt8HFuazhcoH8XYChL3xj6r0YTZgerHxs8cKC8gij6pwG6XWPRKfuFBoAynWXRyEg6A46odspl5iTNCUHU9WjJfaZsXu7RCzJEPxL7O2WdoGY66iZ6Kkb8N9rGhjjSuoIIIrUbYKPejJHjTQMQFJ58qtlbxVBxlcrmQ5nJkZSpIsM4egmTtY-rPoIhtezvXhSliIoLlM6yLAkkhmZRekfkMnKSC0TylvkkkHLzaqeTdlRh1PUW-sesadM33eMFTixXqzrSshTHG1_p4fyfdhKvBXTZoriszSThXYyoS2gu6XBGZ5_qeVcEQCEUpvByg0xCREZeOlNpX0xAlVF-A3FTegLoxJsNatc6VHRtbhzXeXeGooKCIYZR4VOemrRp4MQLRbTGLjBhtv5byE6P9qH7UkrYAjdvyNXT_oNaq6GstqysXSQ-21pqiL7b5LcSmmqgmXBMzrqI2hFqGiSmo2EXMXOTqfnNauALOYb3km2HQWLLh0qOcQPKc8CDtnL36in-b5kIQHuXHuyQXjqiUePTfHkQ8Z6d80u7k3vyguklrcQYiFaAIct5qEQ5AVzsNkhdgx-xakShpTLSrtrgx31LW-Esy0EWK9ku7hPd3rEVuXRLB1hBW6hyDepS5mraBeuvNj32dlmP7Xk1YfBrjUPx5HsbF5dFYhujP3ZqO_eQmURoDflY2iCN65VLJRjmij5MfB5o3SO7NpZzU9FX2IqvghWx-t9lmKpTM0cBrIUg51tw6z3hmln1jakTYjkPvpWqlswu1_k1mtAkZHa_LncckKmnz1hLBKOdXFFUR1-REAqaZttrV6jyR_hfAoVpz-DE6WGVvkJBd-utmD5vX_wQQk6OimNwaSnEuwU_cC2YZ7MEvaBDn8eSviQ4OT9Vf8a24HV_xpJsRXFl5j8eOu6rK3-VCCqRRGtA4qs5MLrq8Tw6GAZefGbEPAF78zMBWB2FTg0FxKOx6unmW_PlXPmuJoeoMqNwXwT_J-1W00]--></g></svg>