<?xml version="1.0" encoding="us-ascii" standalone="no"?><svg xmlns="http://www.w3.org/2000/svg" xmlns:xlink="http://www.w3.org/1999/xlink" contentStyleType="text/css" height="416px" preserveAspectRatio="none" style="width:406px;height:416px;background:#FFFFFF;" version="1.1" viewBox="0 0 406 416" width="406px" zoomAndPan="magnify"><defs/><g><text fill="#000000" font-family="sans-serif" font-size="14" font-weight="bold" lengthAdjust="spacing" textLength="292" x="58.5" y="30.1074">User Story 20 - System Sequence Diagram</text><rect fill="#FFFFFF" height="181.7461" style="stroke:#181818;stroke-width:1.0;" width="10" x="36" y="133.2422"/><rect fill="#FFFFFF" height="31.291" style="stroke:#181818;stroke-width:1.0;" width="10" x="355" y="156.5332"/><rect fill="#FFFFFF" height="95.873" style="stroke:#181818;stroke-width:1.0;" width="10" x="355" y="219.1152"/><rect fill="none" height="50.582" style="stroke:#000000;stroke-width:1.5;" width="390" x="10" y="234.1152"/><line style="stroke:#181818;stroke-width:0.5;stroke-dasharray:5.0,5.0;" x1="41" x2="41" y1="123.2422" y2="332.9883"/><line style="stroke:#181818;stroke-width:0.5;stroke-dasharray:5.0,5.0;" x1="360" x2="360" y1="123.2422" y2="332.9883"/><text fill="#000000" font-family="sans-serif" font-size="14" lengthAdjust="spacing" textLength="36" x="20" y="119.7285">Client</text><ellipse cx="41" cy="53.1211" fill="#E2E2F0" rx="8" ry="8" style="stroke:#181818;stroke-width:0.5;"/><path d="M41,61.1211 L41,88.1211 M28,69.1211 L54,69.1211 M41,88.1211 L28,103.1211 M41,88.1211 L54,103.1211 " fill="none" style="stroke:#181818;stroke-width:0.5;"/><text fill="#000000" font-family="sans-serif" font-size="14" lengthAdjust="spacing" textLength="36" x="20" y="347.0957">Client</text><ellipse cx="41" cy="359.1094" fill="#E2E2F0" rx="8" ry="8" style="stroke:#181818;stroke-width:0.5;"/><path d="M41,367.1094 L41,394.1094 M28,375.1094 L54,375.1094 M41,394.1094 L28,409.1094 M41,394.1094 L54,409.1094 " fill="none" style="stroke:#181818;stroke-width:0.5;"/><rect fill="#E2E2F0" height="32.6211" rx="2.5" ry="2.5" style="stroke:#181818;stroke-width:0.5;" width="60" x="330" y="89.6211"/><text fill="#000000" font-family="sans-serif" font-size="14" lengthAdjust="spacing" textLength="46" x="337" y="111.7285">System</text><rect fill="#E2E2F0" height="32.6211" rx="2.5" ry="2.5" style="stroke:#181818;stroke-width:0.5;" width="60" x="330" y="331.9883"/><text fill="#000000" font-family="sans-serif" font-size="14" lengthAdjust="spacing" textLength="46" x="337" y="354.0957">System</text><rect fill="#FFFFFF" height="181.7461" style="stroke:#181818;stroke-width:1.0;" width="10" x="36" y="133.2422"/><rect fill="#FFFFFF" height="31.291" style="stroke:#181818;stroke-width:1.0;" width="10" x="355" y="156.5332"/><rect fill="#FFFFFF" height="95.873" style="stroke:#181818;stroke-width:1.0;" width="10" x="355" y="219.1152"/><polygon fill="#181818" points="343,152.5332,353,156.5332,343,160.5332,347,156.5332" style="stroke:#181818;stroke-width:1.0;"/><line style="stroke:#181818;stroke-width:1.0;" x1="46" x2="349" y1="156.5332" y2="156.5332"/><text fill="#000000" font-family="sans-serif" font-size="13" font-weight="bold" lengthAdjust="spacing" textLength="7" x="53" y="151.2705">1</text><text fill="#000000" font-family="sans-serif" font-size="13" lengthAdjust="spacing" textLength="161" x="64" y="151.2705">chooses a response to read</text><polygon fill="#181818" points="57,183.8242,47,187.8242,57,191.8242,53,187.8242" style="stroke:#181818;stroke-width:1.0;"/><line style="stroke:#181818;stroke-width:1.0;stroke-dasharray:2.0,2.0;" x1="51" x2="359" y1="187.8242" y2="187.8242"/><text fill="#000000" font-family="sans-serif" font-size="13" font-weight="bold" lengthAdjust="spacing" textLength="7" x="63" y="182.5615">2</text><text fill="#000000" font-family="sans-serif" font-size="13" lengthAdjust="spacing" textLength="274" x="74" y="182.5615">requests acceptance or decline of the response</text><polygon fill="#181818" points="343,215.1152,353,219.1152,343,223.1152,347,219.1152" style="stroke:#181818;stroke-width:1.0;"/><line style="stroke:#181818;stroke-width:1.0;" x1="46" x2="349" y1="219.1152" y2="219.1152"/><text fill="#000000" font-family="sans-serif" font-size="13" font-weight="bold" lengthAdjust="spacing" textLength="7" x="53" y="213.8525">3</text><text fill="#000000" font-family="sans-serif" font-size="13" lengthAdjust="spacing" textLength="125" x="64" y="213.8525">accepts the response</text><path d="M10,234.1152 L71,234.1152 L71,243.4063 L61,253.4063 L10,253.4063 L10,234.1152 " fill="#EEEEEE" style="stroke:#000000;stroke-width:1.5;"/><rect fill="none" height="50.582" style="stroke:#000000;stroke-width:1.5;" width="390" x="10" y="234.1152"/><text fill="#000000" font-family="sans-serif" font-size="13" font-weight="bold" lengthAdjust="spacing" textLength="16" x="25" y="249.1436">alt</text><text fill="#000000" font-family="sans-serif" font-size="11" font-weight="bold" lengthAdjust="spacing" textLength="156" x="86" y="247.9854">[if the response is declined]</text><polygon fill="#181818" points="343,272.6973,353,276.6973,343,280.6973,347,276.6973" style="stroke:#181818;stroke-width:1.0;"/><line style="stroke:#181818;stroke-width:1.0;" x1="46" x2="349" y1="276.6973" y2="276.6973"/><text fill="#000000" font-family="sans-serif" font-size="13" font-weight="bold" lengthAdjust="spacing" textLength="7" x="53" y="271.4346">4</text><text fill="#000000" font-family="sans-serif" font-size="13" lengthAdjust="spacing" textLength="251" x="64" y="271.4346">writes the reason for declining the response</text><polygon fill="#181818" points="52,310.9883,42,314.9883,52,318.9883,48,314.9883" style="stroke:#181818;stroke-width:1.0;"/><line style="stroke:#181818;stroke-width:1.0;stroke-dasharray:2.0,2.0;" x1="46" x2="359" y1="314.9883" y2="314.9883"/><text fill="#000000" font-family="sans-serif" font-size="13" font-weight="bold" lengthAdjust="spacing" textLength="7" x="58" y="309.7256">5</text><text fill="#000000" font-family="sans-serif" font-size="13" lengthAdjust="spacing" textLength="158" x="69" y="309.7256">displays operation success</text><!--SRC=[RP51JiGm34NtFONL3QjInB8BDd23YWEOn3Erb2OXTa6zFHcI3bJjAb_9_y_VoiEa6cNe- -ZGwpAxHnFcNkXp8M-eiupNX7EZh8xWNIZ1g26jyFm47OohACqmLZUyLJSk6lmoVr1gq6GxjA-EoMiBA51a4p4f6uvvAhG5zFjSv2t7NwYqsPjoGlTI7GEOAGGX0OH44eCN0WrPe_rBLrfJctOvNa13DkRMeZbl34N5smAvgYNZs6Tv0PteZcui7Q37IWKb- -GXXqw1ztXWsIRR4-vtOgKDYn8yNEvLsL_tyyZRquKjI_xaLI14IgYSARBamY8do_sxgJ_m0m00]--></g></svg>