<?xml version="1.0" encoding="us-ascii" standalone="no"?><svg xmlns="http://www.w3.org/2000/svg" xmlns:xlink="http://www.w3.org/1999/xlink" contentStyleType="text/css" height="1104.8px" preserveAspectRatio="none" style="width:1067px;height:1104px;background:#FFFFFF;" version="1.1" viewBox="0 0 1067 1104" width="1067.2px" zoomAndPan="magnify"><defs/><g><text fill="#000000" font-family="sans-serif" font-size="11.2" font-weight="bold" lengthAdjust="spacing" textLength="223.2" x="422.8" y="24.0859">User Story 012 - Sequence Diagram (SD)</text><rect fill="#FFFFFF" height="924.6297" style="stroke:#181818;stroke-width:0.8000000000000002;" width="8" x="79.6" y="106.5938"/><rect fill="#FFFFFF" height="924.6297" style="stroke:#181818;stroke-width:0.8000000000000002;" width="8" x="79.6" y="106.5938"/><rect fill="#FFFFFF" height="25.0328" style="stroke:#181818;stroke-width:0.8000000000000002;" width="8" x="481.2" y="125.2266"/><rect fill="#FFFFFF" height="76.6984" style="stroke:#181818;stroke-width:0.8000000000000002;" width="8" x="481.2" y="175.2922"/><rect fill="#FFFFFF" height="753.4" style="stroke:#181818;stroke-width:0.8000000000000002;" width="8" x="481.2" y="277.0234"/><rect fill="#FFFFFF" height="25.0328" style="stroke:#181818;stroke-width:0.8000000000000002;" width="8" x="638" y="302.0563"/><rect fill="#FFFFFF" height="478.5906" style="stroke:#181818;stroke-width:0.8000000000000002;" width="8" x="638" y="449.8297"/><rect fill="#FFFFFF" height="238.6625" style="stroke:#181818;stroke-width:0.8000000000000002;" width="8" x="642" y="645.2922"/><rect fill="#FFFFFF" height="25.0328" style="stroke:#181818;stroke-width:0.8000000000000002;" width="8" x="805.2" y="474.8625"/><rect fill="#FFFFFF" height="25.0328" style="stroke:#181818;stroke-width:0.8000000000000002;" width="8" x="890.8" y="524.9281"/><rect fill="#FFFFFF" height="25.0328" style="stroke:#181818;stroke-width:0.8000000000000002;" width="8" x="993.6" y="574.9938"/><rect fill="none" height="40.4656" style="stroke:#000000;stroke-width:1.2000000000000002;" width="541.6" x="16" y="187.2922"/><rect fill="none" height="685.7344" style="stroke:#000000;stroke-width:1.2000000000000002;" width="1053.6" x="8" y="339.0891"/><rect fill="none" height="78.8031" style="stroke:#000000;stroke-width:1.2000000000000002;" width="541.6" x="16" y="940.4203"/><line style="stroke:#181818;stroke-width:0.4000000000000001;stroke-dasharray:5.0,5.0;" x1="79.2" x2="79.2" y1="98.5938" y2="1038.4234"/><line style="stroke:#181818;stroke-width:0.4000000000000001;stroke-dasharray:5.0,5.0;" x1="484.8" x2="484.8" y1="98.5938" y2="1038.4234"/><line style="stroke:#181818;stroke-width:0.4000000000000001;stroke-dasharray:5.0,5.0;" x1="641.6" x2="641.6" y1="98.5938" y2="1038.4234"/><line style="stroke:#181818;stroke-width:0.4000000000000001;stroke-dasharray:5.0,5.0;" x1="808.8" x2="808.8" y1="98.5938" y2="1038.4234"/><line style="stroke:#181818;stroke-width:0.4000000000000001;stroke-dasharray:5.0,5.0;" x1="894.4" x2="894.4" y1="98.5938" y2="1038.4234"/><line style="stroke:#181818;stroke-width:0.4000000000000001;stroke-dasharray:5.0,5.0;" x1="997.6" x2="997.6" y1="98.5938" y2="1038.4234"/><text fill="#000000" font-family="sans-serif" font-size="11.2" lengthAdjust="spacing" textLength="106.4" x="24" y="95.7828">System Administrator</text><ellipse cx="79.6" cy="42.4969" fill="#E3E3E3" rx="6.4" ry="6.4" style="stroke:#181818;stroke-width:0.4000000000000001;"/><path d="M79.6,48.8969 L79.6,70.4969 M69.2,55.2969 L90,55.2969 M79.6,70.4969 L69.2,82.4969 M79.6,70.4969 L90,82.4969 " fill="none" style="stroke:#181818;stroke-width:0.4000000000000001;"/><text fill="#000000" font-family="sans-serif" font-size="11.2" lengthAdjust="spacing" textLength="106.4" x="24" y="1049.7094">System Administrator</text><ellipse cx="79.6" cy="1059.3203" fill="#E3E3E3" rx="6.4" ry="6.4" style="stroke:#181818;stroke-width:0.4000000000000001;"/><path d="M79.6,1065.7203 L79.6,1087.3203 M69.2,1072.1203 L90,1072.1203 M79.6,1087.3203 L69.2,1099.3203 M79.6,1087.3203 L90,1099.3203 " fill="none" style="stroke:#181818;stroke-width:0.4000000000000001;"/><rect fill="#E3E3E3" height="26.0969" rx="2" ry="2" style="stroke:#181818;stroke-width:0.4000000000000001;" width="128.8" x="420.8" y="71.6969"/><text fill="#000000" font-family="sans-serif" font-size="11.2" lengthAdjust="spacing" textLength="117.6" x="426.4" y="89.3828">:ImportLegacySystemUI</text><rect fill="#E3E3E3" height="26.0969" rx="2" ry="2" style="stroke:#181818;stroke-width:0.4000000000000001;" width="128.8" x="420.8" y="1037.6234"/><text fill="#000000" font-family="sans-serif" font-size="11.2" lengthAdjust="spacing" textLength="117.6" x="426.4" y="1055.3094">:ImportLegacySystemUI</text><rect fill="#E3E3E3" height="26.0969" rx="2" ry="2" style="stroke:#181818;stroke-width:0.4000000000000001;" width="168.8" x="557.6" y="71.6969"/><text fill="#000000" font-family="sans-serif" font-size="11.2" lengthAdjust="spacing" textLength="157.6" x="563.2" y="89.3828">:ImportLegacySystemController</text><rect fill="#E3E3E3" height="26.0969" rx="2" ry="2" style="stroke:#181818;stroke-width:0.4000000000000001;" width="168.8" x="557.6" y="1037.6234"/><text fill="#000000" font-family="sans-serif" font-size="11.2" lengthAdjust="spacing" textLength="157.6" x="563.2" y="1055.3094">:ImportLegacySystemController</text><rect fill="#E3E3E3" height="26.0969" rx="2" ry="2" style="stroke:#181818;stroke-width:0.4000000000000001;" width="77.6" x="770.4" y="71.6969"/><text fill="#000000" font-family="sans-serif" font-size="11.2" lengthAdjust="spacing" textLength="66.4" x="776" y="89.3828">:Repositories</text><rect fill="#E3E3E3" height="26.0969" rx="2" ry="2" style="stroke:#181818;stroke-width:0.4000000000000001;" width="77.6" x="770.4" y="1037.6234"/><text fill="#000000" font-family="sans-serif" font-size="11.2" lengthAdjust="spacing" textLength="66.4" x="776" y="1055.3094">:Repositories</text><rect fill="#E3E3E3" height="40.9938" rx="2" ry="2" style="stroke:#181818;stroke-width:0.4000000000000001;" width="77.6" x="856" y="56.8"/><text fill="#000000" font-family="sans-serif" font-size="11.2" lengthAdjust="spacing" textLength="59.2" x="865.2" y="74.4859">repositories</text><text fill="#000000" font-family="sans-serif" font-size="11.2" lengthAdjust="spacing" textLength="66.4" x="861.6" y="89.3828">:Repositories</text><rect fill="#E3E3E3" height="40.9938" rx="2" ry="2" style="stroke:#181818;stroke-width:0.4000000000000001;" width="77.6" x="856" y="1037.6234"/><text fill="#000000" font-family="sans-serif" font-size="11.2" lengthAdjust="spacing" textLength="59.2" x="865.2" y="1055.3094">repositories</text><text fill="#000000" font-family="sans-serif" font-size="11.2" lengthAdjust="spacing" textLength="66.4" x="861.6" y="1070.2063">:Repositories</text><rect fill="#E3E3E3" height="40.9938" rx="2" ry="2" style="stroke:#181818;stroke-width:0.4000000000000001;" width="112" x="941.6" y="56.8"/><text fill="#000000" font-family="sans-serif" font-size="11.2" lengthAdjust="spacing" textLength="96.8" x="949.2" y="74.4859">propertyAnnouncementRepository</text><text fill="#000000" font-family="sans-serif" font-size="11.2" lengthAdjust="spacing" textLength="100.8" x="947.2" y="89.3828">:PropertyRepository</text><rect fill="#E3E3E3" height="40.9938" rx="2" ry="2" style="stroke:#181818;stroke-width:0.4000000000000001;" width="112" x="941.6" y="1037.6234"/><text fill="#000000" font-family="sans-serif" font-size="11.2" lengthAdjust="spacing" textLength="96.8" x="949.2" y="1055.3094">propertyAnnouncementRepository</text><text fill="#000000" font-family="sans-serif" font-size="11.2" lengthAdjust="spacing" textLength="100.8" x="947.2" y="1070.2063">:PropertyRepository</text><rect fill="#FFFFFF" height="924.6297" style="stroke:#181818;stroke-width:0.8000000000000002;" width="8" x="79.6" y="106.5938"/><rect fill="#FFFFFF" height="924.6297" style="stroke:#181818;stroke-width:0.8000000000000002;" width="8" x="79.6" y="106.5938"/><rect fill="#FFFFFF" height="25.0328" style="stroke:#181818;stroke-width:0.8000000000000002;" width="8" x="481.2" y="125.2266"/><rect fill="#FFFFFF" height="76.6984" style="stroke:#181818;stroke-width:0.8000000000000002;" width="8" x="481.2" y="175.2922"/><rect fill="#FFFFFF" height="753.4" style="stroke:#181818;stroke-width:0.8000000000000002;" width="8" x="481.2" y="277.0234"/><rect fill="#FFFFFF" height="25.0328" style="stroke:#181818;stroke-width:0.8000000000000002;" width="8" x="638" y="302.0563"/><rect fill="#FFFFFF" height="478.5906" style="stroke:#181818;stroke-width:0.8000000000000002;" width="8" x="638" y="449.8297"/><rect fill="#FFFFFF" height="238.6625" style="stroke:#181818;stroke-width:0.8000000000000002;" width="8" x="642" y="645.2922"/><rect fill="#FFFFFF" height="25.0328" style="stroke:#181818;stroke-width:0.8000000000000002;" width="8" x="805.2" y="474.8625"/><rect fill="#FFFFFF" height="25.0328" style="stroke:#181818;stroke-width:0.8000000000000002;" width="8" x="890.8" y="524.9281"/><rect fill="#FFFFFF" height="25.0328" style="stroke:#181818;stroke-width:0.8000000000000002;" width="8" x="993.6" y="574.9938"/><polygon fill="#181818" points="471.6,122.0266,479.6,125.2266,471.6,128.4266,474.8,125.2266" style="stroke:#181818;stroke-width:0.8000000000000002;"/><line style="stroke:#181818;stroke-width:0.8000000000000002;" x1="87.6" x2="476.4" y1="125.2266" y2="125.2266"/><text fill="#000000" font-family="sans-serif" font-size="10.4" font-weight="bold" lengthAdjust="spacing" textLength="5.6" x="93.2" y="121.0164">1</text><text fill="#000000" font-family="sans-serif" font-size="10.4" lengthAdjust="spacing" textLength="240" x="102" y="121.0164">asks to list import information from a legacy system</text><polygon fill="#181818" points="96.4,147.0594,88.4,150.2594,96.4,153.4594,93.2,150.2594" style="stroke:#181818;stroke-width:0.8000000000000002;"/><line style="stroke:#181818;stroke-width:0.8000000000000002;stroke-dasharray:2.0,2.0;" x1="91.6" x2="484.4" y1="150.2594" y2="150.2594"/><text fill="#000000" font-family="sans-serif" font-size="10.4" font-weight="bold" lengthAdjust="spacing" textLength="5.6" x="101.2" y="146.0492">2</text><text fill="#000000" font-family="sans-serif" font-size="10.4" lengthAdjust="spacing" textLength="280.8" x="110" y="146.0492">asks if the user wants to list requested format for the .csv file</text><polygon fill="#181818" points="471.6,172.0922,479.6,175.2922,471.6,178.4922,474.8,175.2922" style="stroke:#181818;stroke-width:0.8000000000000002;"/><line style="stroke:#181818;stroke-width:0.8000000000000002;" x1="87.6" x2="476.4" y1="175.2922" y2="175.2922"/><text fill="#000000" font-family="sans-serif" font-size="10.4" font-weight="bold" lengthAdjust="spacing" textLength="5.6" x="93.2" y="171.082">3</text><text fill="#000000" font-family="sans-serif" font-size="10.4" lengthAdjust="spacing" textLength="142.4" x="102" y="171.082">answers the question (Yes/No)</text><path d="M16,187.2922 L64.8,187.2922 L64.8,194.725 L56.8,202.725 L16,202.725 L16,187.2922 " fill="#EEEEEE" style="stroke:#000000;stroke-width:1.2000000000000002;"/><rect fill="none" height="40.4656" style="stroke:#000000;stroke-width:1.2000000000000002;" width="541.6" x="16" y="187.2922"/><text fill="#000000" font-family="sans-serif" font-size="10.4" font-weight="bold" lengthAdjust="spacing" textLength="12.8" x="28" y="199.3148">alt</text><text fill="#000000" font-family="sans-serif" font-size="8.8" font-weight="bold" lengthAdjust="spacing" textLength="74.4" x="76.8" y="198.3883">[answer is 'Yes']</text><polygon fill="#181818" points="96.4,218.1578,88.4,221.3578,96.4,224.5578,93.2,221.3578" style="stroke:#181818;stroke-width:0.8000000000000002;"/><line style="stroke:#181818;stroke-width:0.8000000000000002;stroke-dasharray:2.0,2.0;" x1="91.6" x2="480.4" y1="221.3578" y2="221.3578"/><text fill="#000000" font-family="sans-serif" font-size="10.4" font-weight="bold" lengthAdjust="spacing" textLength="5.6" x="101.2" y="217.1477">4</text><text fill="#000000" font-family="sans-serif" font-size="10.4" lengthAdjust="spacing" textLength="264" x="110" y="217.1477">prints requested format (what each line is and must have)</text><polygon fill="#181818" points="96.4,248.7906,88.4,251.9906,96.4,255.1906,93.2,251.9906" style="stroke:#181818;stroke-width:0.8000000000000002;"/><line style="stroke:#181818;stroke-width:0.8000000000000002;stroke-dasharray:2.0,2.0;" x1="91.6" x2="484.4" y1="251.9906" y2="251.9906"/><text fill="#000000" font-family="sans-serif" font-size="10.4" font-weight="bold" lengthAdjust="spacing" textLength="5.6" x="101.2" y="247.7805">5</text><text fill="#000000" font-family="sans-serif" font-size="10.4" lengthAdjust="spacing" textLength="116.8" x="110" y="247.7805">asks for the file's full path</text><polygon fill="#181818" points="471.6,273.8234,479.6,277.0234,471.6,280.2234,474.8,277.0234" style="stroke:#181818;stroke-width:0.8000000000000002;"/><line style="stroke:#181818;stroke-width:0.8000000000000002;" x1="87.6" x2="476.4" y1="277.0234" y2="277.0234"/><text fill="#000000" font-family="sans-serif" font-size="10.4" font-weight="bold" lengthAdjust="spacing" textLength="5.6" x="93.2" y="272.8133">6</text><text fill="#000000" font-family="sans-serif" font-size="10.4" lengthAdjust="spacing" textLength="116" x="102" y="272.8133">writes full path to .csv file</text><polygon fill="#181818" points="628.4,298.8563,636.4,302.0563,628.4,305.2563,631.6,302.0563" style="stroke:#181818;stroke-width:0.8000000000000002;"/><line style="stroke:#181818;stroke-width:0.8000000000000002;" x1="489.2" x2="633.2" y1="302.0563" y2="302.0563"/><text fill="#000000" font-family="sans-serif" font-size="10.4" font-weight="bold" lengthAdjust="spacing" textLength="5.6" x="494.8" y="297.8461">7</text><text fill="#000000" font-family="sans-serif" font-size="10.4" lengthAdjust="spacing" textLength="59.2" x="503.6" y="297.8461">verifyFile(file)</text><polygon fill="#181818" points="498,323.8891,490,327.0891,498,330.2891,494.8,327.0891" style="stroke:#181818;stroke-width:0.8000000000000002;"/><line style="stroke:#181818;stroke-width:0.8000000000000002;stroke-dasharray:2.0,2.0;" x1="493.2" x2="641.2" y1="327.0891" y2="327.0891"/><text fill="#000000" font-family="sans-serif" font-size="10.4" font-weight="bold" lengthAdjust="spacing" textLength="5.6" x="502.8" y="322.8789">8</text><text fill="#000000" font-family="sans-serif" font-size="10.4" lengthAdjust="spacing" textLength="42.4" x="511.6" y="322.8789">true/false</text><path d="M8,339.0891 L56.8,339.0891 L56.8,346.5219 L48.8,354.5219 L8,354.5219 L8,339.0891 " fill="#EEEEEE" style="stroke:#000000;stroke-width:1.2000000000000002;"/><rect fill="none" height="685.7344" style="stroke:#000000;stroke-width:1.2000000000000002;" width="1053.6" x="8" y="339.0891"/><text fill="#000000" font-family="sans-serif" font-size="10.4" font-weight="bold" lengthAdjust="spacing" textLength="12.8" x="20" y="351.1117">alt</text><text fill="#000000" font-family="sans-serif" font-size="8.8" font-weight="bold" lengthAdjust="spacing" textLength="80" x="68.8" y="350.1852">[file doesn't exist]</text><polygon fill="#181818" points="96.4,369.9547,88.4,373.1547,96.4,376.3547,93.2,373.1547" style="stroke:#181818;stroke-width:0.8000000000000002;"/><line style="stroke:#181818;stroke-width:0.8000000000000002;stroke-dasharray:2.0,2.0;" x1="91.6" x2="480.4" y1="373.1547" y2="373.1547"/><text fill="#000000" font-family="sans-serif" font-size="10.4" font-weight="bold" lengthAdjust="spacing" textLength="5.6" x="101.2" y="368.9445">9</text><text fill="#000000" font-family="sans-serif" font-size="10.4" lengthAdjust="spacing" textLength="192" x="110" y="368.9445">tells user that the given file does not exist</text><line style="stroke:#000000;stroke-width:0.8000000000000002;stroke-dasharray:2.0,2.0;" x1="8" x2="1061.6" y1="380.3547" y2="380.3547"/><text fill="#000000" font-family="sans-serif" font-size="8.8" font-weight="bold" lengthAdjust="spacing" textLength="61.6" x="12" y="389.8508">[file isn't .csv]</text><polygon fill="#181818" points="96.4,408.2922,88.4,411.4922,96.4,414.6922,93.2,411.4922" style="stroke:#181818;stroke-width:0.8000000000000002;"/><line style="stroke:#181818;stroke-width:0.8000000000000002;stroke-dasharray:2.0,2.0;" x1="91.6" x2="480.4" y1="411.4922" y2="411.4922"/><text fill="#000000" font-family="sans-serif" font-size="10.4" font-weight="bold" lengthAdjust="spacing" textLength="11.2" x="101.2" y="407.282">10</text><text fill="#000000" font-family="sans-serif" font-size="10.4" lengthAdjust="spacing" textLength="129.6" x="115.6" y="407.282">tells user to insert a .csv file</text><line style="stroke:#000000;stroke-width:0.8000000000000002;stroke-dasharray:2.0,2.0;" x1="8" x2="1061.6" y1="418.6922" y2="418.6922"/><text fill="#000000" font-family="sans-serif" font-size="8.8" font-weight="bold" lengthAdjust="spacing" textLength="98.4" x="12" y="428.1883">[file exists and is .csv]</text><polygon fill="#181818" points="628.4,446.6297,636.4,449.8297,628.4,453.0297,631.6,449.8297" style="stroke:#181818;stroke-width:0.8000000000000002;"/><line style="stroke:#181818;stroke-width:0.8000000000000002;" x1="489.2" x2="633.2" y1="449.8297" y2="449.8297"/><text fill="#000000" font-family="sans-serif" font-size="10.4" font-weight="bold" lengthAdjust="spacing" textLength="11.2" x="494.8" y="445.6195">11</text><text fill="#000000" font-family="sans-serif" font-size="10.4" lengthAdjust="spacing" textLength="64.8" x="509.2" y="445.6195">importFile(file)</text><polygon fill="#181818" points="795.6,471.6625,803.6,474.8625,795.6,478.0625,798.8,474.8625" style="stroke:#181818;stroke-width:0.8000000000000002;"/><line style="stroke:#181818;stroke-width:0.8000000000000002;" x1="646" x2="800.4" y1="474.8625" y2="474.8625"/><text fill="#000000" font-family="sans-serif" font-size="10.4" font-weight="bold" lengthAdjust="spacing" textLength="11.2" x="651.6" y="470.6523">12</text><text fill="#000000" font-family="sans-serif" font-size="10.4" lengthAdjust="spacing" textLength="60" x="666" y="470.6523">getInstance()</text><polygon fill="#181818" points="654.8,496.6953,646.8,499.8953,654.8,503.0953,651.6,499.8953" style="stroke:#181818;stroke-width:0.8000000000000002;"/><line style="stroke:#181818;stroke-width:0.8000000000000002;stroke-dasharray:2.0,2.0;" x1="650" x2="808.4" y1="499.8953" y2="499.8953"/><text fill="#000000" font-family="sans-serif" font-size="10.4" font-weight="bold" lengthAdjust="spacing" textLength="11.2" x="659.6" y="495.6852">13</text><text fill="#000000" font-family="sans-serif" font-size="10.4" lengthAdjust="spacing" textLength="53.6" x="674" y="495.6852">repositories</text><polygon fill="#181818" points="881.2,521.7281,889.2,524.9281,881.2,528.1281,884.4,524.9281" style="stroke:#181818;stroke-width:0.8000000000000002;"/><line style="stroke:#181818;stroke-width:0.8000000000000002;" x1="646" x2="886" y1="524.9281" y2="524.9281"/><text fill="#000000" font-family="sans-serif" font-size="10.4" font-weight="bold" lengthAdjust="spacing" textLength="11.2" x="651.6" y="520.718">14</text><text fill="#000000" font-family="sans-serif" font-size="10.4" lengthAdjust="spacing" textLength="109.6" x="666" y="520.718">getPropertyRepository()</text><polygon fill="#181818" points="654.8,546.7609,646.8,549.9609,654.8,553.1609,651.6,549.9609" style="stroke:#181818;stroke-width:0.8000000000000002;"/><line style="stroke:#181818;stroke-width:0.8000000000000002;stroke-dasharray:2.0,2.0;" x1="650" x2="894" y1="549.9609" y2="549.9609"/><text fill="#000000" font-family="sans-serif" font-size="10.4" font-weight="bold" lengthAdjust="spacing" textLength="11.2" x="659.6" y="545.7508">15</text><text fill="#000000" font-family="sans-serif" font-size="10.4" lengthAdjust="spacing" textLength="87.2" x="674" y="545.7508">propertyAnnouncementRepository</text><polygon fill="#181818" points="984,571.7938,992,574.9938,984,578.1938,987.2,574.9938" style="stroke:#181818;stroke-width:0.8000000000000002;"/><line style="stroke:#181818;stroke-width:0.8000000000000002;" x1="646" x2="988.8" y1="574.9938" y2="574.9938"/><text fill="#000000" font-family="sans-serif" font-size="10.4" font-weight="bold" lengthAdjust="spacing" textLength="11.2" x="651.6" y="570.7836">16</text><text fill="#000000" font-family="sans-serif" font-size="10.4" lengthAdjust="spacing" textLength="68" x="666" y="570.7836">getProperties()</text><polygon fill="#181818" points="654.8,596.8266,646.8,600.0266,654.8,603.2266,651.6,600.0266" style="stroke:#181818;stroke-width:0.8000000000000002;"/><line style="stroke:#181818;stroke-width:0.8000000000000002;stroke-dasharray:2.0,2.0;" x1="650" x2="996.8" y1="600.0266" y2="600.0266"/><text fill="#000000" font-family="sans-serif" font-size="10.4" font-weight="bold" lengthAdjust="spacing" textLength="11.2" x="659.6" y="595.8164">17</text><text fill="#000000" font-family="sans-serif" font-size="10.4" lengthAdjust="spacing" textLength="54.4" x="674" y="595.8164">propertyList</text><line style="stroke:#181818;stroke-width:0.8000000000000002;" x1="646" x2="683.6" y1="634.8922" y2="634.8922"/><line style="stroke:#181818;stroke-width:0.8000000000000002;" x1="683.6" x2="683.6" y1="634.8922" y2="645.2922"/><line style="stroke:#181818;stroke-width:0.8000000000000002;" x1="650.8" x2="683.6" y1="645.2922" y2="645.2922"/><polygon fill="#181818" points="658.8,642.0922,650.8,645.2922,658.8,648.4922,655.6,645.2922" style="stroke:#181818;stroke-width:0.8000000000000002;"/><text fill="#000000" font-family="sans-serif" font-size="10.4" font-weight="bold" lengthAdjust="spacing" textLength="11.2" x="655.6" y="623.7656">18</text><text fill="#000000" font-family="sans-serif" font-size="10.4" lengthAdjust="spacing" textLength="92" x="670" y="616.8492">do this for every line</text><text fill="#000000" font-family="sans-serif" font-size="10.4" lengthAdjust="spacing" textLength="95.2" x="670" y="630.682">(except the first one)</text><line style="stroke:#181818;stroke-width:0.8000000000000002;" x1="650" x2="683.6" y1="674.325" y2="674.325"/><line style="stroke:#181818;stroke-width:0.8000000000000002;" x1="683.6" x2="683.6" y1="674.325" y2="684.725"/><line style="stroke:#181818;stroke-width:0.8000000000000002;" x1="650.8" x2="683.6" y1="684.725" y2="684.725"/><polygon fill="#181818" points="658.8,681.525,650.8,684.725,658.8,687.925,655.6,684.725" style="stroke:#181818;stroke-width:0.8000000000000002;"/><text fill="#000000" font-family="sans-serif" font-size="10.4" font-weight="bold" lengthAdjust="spacing" textLength="11.2" x="655.6" y="670.1148">19</text><text fill="#000000" font-family="sans-serif" font-size="10.4" lengthAdjust="spacing" textLength="58.4" x="670" y="670.1148">useLine(line)</text><line style="stroke:#181818;stroke-width:0.8000000000000002;" x1="650" x2="683.6" y1="709.7578" y2="709.7578"/><line style="stroke:#181818;stroke-width:0.8000000000000002;" x1="683.6" x2="683.6" y1="709.7578" y2="720.1578"/><line style="stroke:#181818;stroke-width:0.8000000000000002;" x1="650.8" x2="683.6" y1="720.1578" y2="720.1578"/><polygon fill="#181818" points="658.8,716.9578,650.8,720.1578,658.8,723.3578,655.6,720.1578" style="stroke:#181818;stroke-width:0.8000000000000002;"/><text fill="#000000" font-family="sans-serif" font-size="10.4" font-weight="bold" lengthAdjust="spacing" textLength="11.2" x="655.6" y="705.5477">20</text><text fill="#000000" font-family="sans-serif" font-size="10.4" lengthAdjust="spacing" textLength="108.8" x="670" y="705.5477">get property information</text><line style="stroke:#181818;stroke-width:0.8000000000000002;" x1="650" x2="683.6" y1="745.1906" y2="745.1906"/><line style="stroke:#181818;stroke-width:0.8000000000000002;" x1="683.6" x2="683.6" y1="745.1906" y2="755.5906"/><line style="stroke:#181818;stroke-width:0.8000000000000002;" x1="650.8" x2="683.6" y1="755.5906" y2="755.5906"/><polygon fill="#181818" points="658.8,752.3906,650.8,755.5906,658.8,758.7906,655.6,755.5906" style="stroke:#181818;stroke-width:0.8000000000000002;"/><text fill="#000000" font-family="sans-serif" font-size="10.4" font-weight="bold" lengthAdjust="spacing" textLength="11.2" x="655.6" y="740.9805">21</text><text fill="#000000" font-family="sans-serif" font-size="10.4" lengthAdjust="spacing" textLength="89.6" x="670" y="740.9805">createRequest(line)</text><line style="stroke:#181818;stroke-width:0.8000000000000002;" x1="650" x2="683.6" y1="780.6234" y2="780.6234"/><line style="stroke:#181818;stroke-width:0.8000000000000002;" x1="683.6" x2="683.6" y1="780.6234" y2="791.0234"/><line style="stroke:#181818;stroke-width:0.8000000000000002;" x1="650.8" x2="683.6" y1="791.0234" y2="791.0234"/><polygon fill="#181818" points="658.8,787.8234,650.8,791.0234,658.8,794.2234,655.6,791.0234" style="stroke:#181818;stroke-width:0.8000000000000002;"/><text fill="#000000" font-family="sans-serif" font-size="10.4" font-weight="bold" lengthAdjust="spacing" textLength="11.2" x="655.6" y="776.4133">22</text><text fill="#000000" font-family="sans-serif" font-size="10.4" lengthAdjust="spacing" textLength="80.8" x="670" y="776.4133">createOwner(line)</text><line style="stroke:#181818;stroke-width:0.8000000000000002;" x1="650" x2="683.6" y1="829.8891" y2="829.8891"/><line style="stroke:#181818;stroke-width:0.8000000000000002;" x1="683.6" x2="683.6" y1="829.8891" y2="840.2891"/><line style="stroke:#181818;stroke-width:0.8000000000000002;" x1="650.8" x2="683.6" y1="840.2891" y2="840.2891"/><polygon fill="#181818" points="658.8,837.0891,650.8,840.2891,658.8,843.4891,655.6,840.2891" style="stroke:#181818;stroke-width:0.8000000000000002;"/><text fill="#000000" font-family="sans-serif" font-size="10.4" font-weight="bold" lengthAdjust="spacing" textLength="11.2" x="655.6" y="818.7625">23</text><text fill="#000000" font-family="sans-serif" font-size="10.4" lengthAdjust="spacing" textLength="129.6" x="670" y="811.8461">creates new Property object</text><text fill="#000000" font-family="sans-serif" font-size="10.4" lengthAdjust="spacing" textLength="128" x="670" y="825.6789">(Land, Apartment or House)</text><line style="stroke:#181818;stroke-width:0.8000000000000002;" x1="650" x2="683.6" y1="883.1547" y2="883.1547"/><line style="stroke:#181818;stroke-width:0.8000000000000002;" x1="683.6" x2="683.6" y1="883.1547" y2="893.5547"/><line style="stroke:#181818;stroke-width:0.8000000000000002;" x1="646" x2="683.6" y1="893.5547" y2="893.5547"/><polygon fill="#181818" points="654,890.3547,646,893.5547,654,896.7547,650.8,893.5547" style="stroke:#181818;stroke-width:0.8000000000000002;"/><text fill="#000000" font-family="sans-serif" font-size="10.4" font-weight="bold" lengthAdjust="spacing" textLength="11.2" x="655.6" y="872.0281">24</text><text fill="#000000" font-family="sans-serif" font-size="10.4" lengthAdjust="spacing" textLength="96.8" x="670" y="865.1117">adds new property to</text><text fill="#000000" font-family="sans-serif" font-size="10.4" lengthAdjust="spacing" textLength="86.4" x="670" y="878.9445">property repository</text><polygon fill="#181818" points="498,925.2203,490,928.4203,498,931.6203,494.8,928.4203" style="stroke:#181818;stroke-width:0.8000000000000002;"/><line style="stroke:#181818;stroke-width:0.8000000000000002;stroke-dasharray:2.0,2.0;" x1="493.2" x2="641.2" y1="928.4203" y2="928.4203"/><text fill="#000000" font-family="sans-serif" font-size="10.4" font-weight="bold" lengthAdjust="spacing" textLength="11.2" x="502.8" y="917.2938">25</text><text fill="#000000" font-family="sans-serif" font-size="10.4" lengthAdjust="spacing" textLength="84" x="517.2" y="910.3773">true/false if the file</text><text fill="#000000" font-family="sans-serif" font-size="10.4" lengthAdjust="spacing" textLength="82.4" x="517.2" y="924.2102">was valid/not valid</text><path d="M16,940.4203 L64.8,940.4203 L64.8,947.8531 L56.8,955.8531 L16,955.8531 L16,940.4203 " fill="#EEEEEE" style="stroke:#000000;stroke-width:1.2000000000000002;"/><rect fill="none" height="78.8031" style="stroke:#000000;stroke-width:1.2000000000000002;" width="541.6" x="16" y="940.4203"/><text fill="#000000" font-family="sans-serif" font-size="10.4" font-weight="bold" lengthAdjust="spacing" textLength="12.8" x="28" y="952.443">alt</text><text fill="#000000" font-family="sans-serif" font-size="8.8" font-weight="bold" lengthAdjust="spacing" textLength="149.6" x="76.8" y="951.5164">[file isn't in the requested format]</text><polygon fill="#181818" points="96.4,971.2859,88.4,974.4859,96.4,977.6859,93.2,974.4859" style="stroke:#181818;stroke-width:0.8000000000000002;"/><line style="stroke:#181818;stroke-width:0.8000000000000002;stroke-dasharray:2.0,2.0;" x1="91.6" x2="480.4" y1="974.4859" y2="974.4859"/><text fill="#000000" font-family="sans-serif" font-size="10.4" font-weight="bold" lengthAdjust="spacing" textLength="11.2" x="101.2" y="970.2758">26</text><text fill="#000000" font-family="sans-serif" font-size="10.4" lengthAdjust="spacing" textLength="100" x="115.6" y="970.2758">displays operation fail</text><line style="stroke:#000000;stroke-width:0.8000000000000002;stroke-dasharray:2.0,2.0;" x1="16" x2="557.6" y1="981.6859" y2="981.6859"/><text fill="#000000" font-family="sans-serif" font-size="8.8" font-weight="bold" lengthAdjust="spacing" textLength="52.8" x="20" y="991.182">[file is valid]</text><polygon fill="#181818" points="96.4,1009.6234,88.4,1012.8234,96.4,1016.0234,93.2,1012.8234" style="stroke:#181818;stroke-width:0.8000000000000002;"/><line style="stroke:#181818;stroke-width:0.8000000000000002;stroke-dasharray:2.0,2.0;" x1="91.6" x2="480.4" y1="1012.8234" y2="1012.8234"/><text fill="#000000" font-family="sans-serif" font-size="10.4" font-weight="bold" lengthAdjust="spacing" textLength="11.2" x="101.2" y="1008.6133">27</text><text fill="#000000" font-family="sans-serif" font-size="10.4" lengthAdjust="spacing" textLength="360" x="115.6" y="1008.6133">registers all key information from the given file and displays operation success</text><!--SRC=[bLPDRzim3BtxLn2z90MMTTknXm95Ys45WgresiE0N5IRiRNOaYV9SVtlHqcEFvMqwo6r5VBfyObwZDvpKJB52YYaa76cP85WL8MHxhufMRndAMvCaoCeZ0qJQJuCq1bBPCr52ZkMQumYmms5lcXKi35IDV3bwpTOmGR_LYXYX7lEKfkutDnVHX6hZ1HLyOgAdcEAXujDemqMS9iKN71j5AFL2s3QOKQqg-4nBvamS77zK9HIcJMcB6vytik3Y_KlxqRVIM6Kp7FqEzmzFwqdEKzOIis90aVjOhg5PiEj5iH_dA866Lin1tXStpwFCqebIrIcwQ4fxt6swBDdoquuVc36gnv5G7_Z9RlYJcHrqoe3rmIsrs0av2GoS2SDSB6Jgc26Im4xwWTWa3kvG7j1HzYjo6wnXLtH3cwd5f_lm6G8bLsggTX-HsKRWd8Iy5lQVoxsSwmFiEFKPHOtmU1sysg4hb5fX-20RGdBtwYlVihBqxHPRjfKu1eM5ByuKKwfkAK_exsiC_eabXdL9T32C950KL6D6JkWtnn5SbQdO_6sxWMzLdbETyza_wL1hRZ1GRBLUgpcsQExSVrFE0TKVDTyfwIbpPp8vow9MtBXgo43wnvNtWWcnFiiAxc5XKIY5WlIxetwmNqL5iXWdclVGiPgRNLA-G553mD23d6G2FWlkTl1Yl313IJT0NgWhfX8rsEwVVmfqs47iJif_RsQI3cNyxZg5Rq9cGo1fMWUX2OBZd4PG0evKnSLGborFAzXw5bTok3qpa8VILjZyopd9XNYwuomMtRPFQEv9uPuZI4w8hFS4IsgCKWduAmTkJdYgZ_a8zVri8-7B4_NSgJS8YMIkfjxEq2wXetpbArOubkCfMajGf6rIF7XPcgngR_N1BQqY9UdWaYbhfpXD3WL7okaVP-yAPw7zg6_Qe7g8u5qfx7kf0Fv-eT-VP0IQxftd-3M3j02QNgIKZyarNOIZYM9n-hgCd8hkXTrji42WeRzxZZfx2tVYfeczO7bFBconkIUtaNlVD5x5XSERpflkl2mbILSbpbhDDZgsZdEUDvb3PrnmYiCg32bhhQJbT5KsMCp_uqmyMFhYm4QkefZrBsxs8auceo1AVSF]--></g></svg>