<?xml version="1.0" encoding="us-ascii" standalone="no"?><svg xmlns="http://www.w3.org/2000/svg" xmlns:xlink="http://www.w3.org/1999/xlink" contentStyleType="text/css" height="766.5px" preserveAspectRatio="none" style="width:493px;height:766px;background:#FFFFFF;" version="1.1" viewBox="0 0 493 766" width="493px" zoomAndPan="magnify"><defs/><g><text fill="#000000" font-family="sans-serif" font-size="7" font-weight="bold" lengthAdjust="spacing" textLength="149.5" x="168.375" y="12.5537">US012 Import a Legacy File - Class Diagram</text><!--class Admin--><g id="elem_Admin"><rect codeLine="6" fill="#F1F1F1" height="51.9316" id="Admin" rx="1.25" ry="1.25" style="stroke:#181818;stroke-width:0.25;" width="59" x="17" y="27.8105"/><ellipse cx="35.075" cy="35.8105" fill="#ADD1B2" rx="5.5" ry="5.5" style="stroke:#181818;stroke-width:0.5;"/><path d="M36.4578,33.748 Q36.5359,33.6387 36.6297,33.584 Q36.7234,33.5293 36.8328,33.5293 Q37.0203,33.5293 37.1375,33.6621 Q37.2547,33.7871 37.2547,34.0918 L37.2547,34.8184 Q37.2547,35.123 37.1375,35.2559 Q37.0203,35.3887 36.8328,35.3887 Q36.6609,35.3887 36.5594,35.2871 Q36.4578,35.1934 36.4031,34.9355 Q36.3797,34.7559 36.2859,34.6621 Q36.1219,34.4746 35.8172,34.3652 Q35.5125,34.2559 35.2,34.2559 Q34.8172,34.2559 34.4969,34.4199 Q34.1844,34.584 33.9344,34.959 Q33.6922,35.334 33.6922,35.8496 L33.6922,36.3965 Q33.6922,37.0137 34.1375,37.4277 Q34.5828,37.834 35.3797,37.834 Q35.8484,37.834 36.1766,37.709 Q36.3719,37.6309 36.5828,37.4121 Q36.7156,37.2793 36.7859,37.2402 Q36.8641,37.2012 36.9656,37.2012 Q37.1297,37.2012 37.2547,37.334 Q37.3875,37.459 37.3875,37.6309 Q37.3875,37.8027 37.2156,38.0059 Q36.9656,38.2949 36.5672,38.459 Q36.0281,38.6855 35.3797,38.6855 Q34.6219,38.6855 34.0203,38.373 Q33.5281,38.123 33.1844,37.5918 Q32.8406,37.0527 32.8406,36.4121 L32.8406,35.834 Q32.8406,35.1699 33.1453,34.5996 Q33.4578,34.0215 34.0047,33.7168 Q34.5516,33.4043 35.1688,33.4043 Q35.5359,33.4043 35.8563,33.4902 Q36.1844,33.5684 36.4578,33.748 Z " fill="#000000"/><text fill="#000000" font-family="sans-serif" font-size="7" lengthAdjust="spacing" textLength="19.5" x="44.425" y="38.709">Admin</text><line style="stroke:#181818;stroke-width:0.25;" x1="17.5" x2="75.5" y1="43.8105" y2="43.8105"/><text fill="#000000" font-family="sans-serif" font-size="7" lengthAdjust="spacing" textLength="40.5" x="20" y="53.3643">-String name</text><text fill="#000000" font-family="sans-serif" font-size="7" lengthAdjust="spacing" textLength="39.5" x="20" y="62.6748">-String email</text><text fill="#000000" font-family="sans-serif" font-size="7" lengthAdjust="spacing" textLength="53" x="20" y="71.9854">-String password</text><line style="stroke:#181818;stroke-width:0.25;" x1="17.5" x2="75.5" y1="75.7422" y2="75.7422"/></g><!--class File--><g id="elem_File"><rect codeLine="12" fill="#F1F1F1" height="294.0059" id="File" rx="1.25" ry="1.25" style="stroke:#181818;stroke-width:0.25;" width="113.5" x="98.25" y="132.3105"/><ellipse cx="147.125" cy="140.3105" fill="#ADD1B2" rx="5.5" ry="5.5" style="stroke:#181818;stroke-width:0.5;"/><path d="M148.5078,138.248 Q148.5859,138.1387 148.6797,138.084 Q148.7734,138.0293 148.8828,138.0293 Q149.0703,138.0293 149.1875,138.1621 Q149.3047,138.2871 149.3047,138.5918 L149.3047,139.3184 Q149.3047,139.623 149.1875,139.7559 Q149.0703,139.8887 148.8828,139.8887 Q148.7109,139.8887 148.6094,139.7871 Q148.5078,139.6934 148.4531,139.4355 Q148.4297,139.2559 148.3359,139.1621 Q148.1719,138.9746 147.8672,138.8652 Q147.5625,138.7559 147.25,138.7559 Q146.8672,138.7559 146.5469,138.9199 Q146.2344,139.084 145.9844,139.459 Q145.7422,139.834 145.7422,140.3496 L145.7422,140.8965 Q145.7422,141.5137 146.1875,141.9277 Q146.6328,142.334 147.4297,142.334 Q147.8984,142.334 148.2266,142.209 Q148.4219,142.1309 148.6328,141.9121 Q148.7656,141.7793 148.8359,141.7402 Q148.9141,141.7012 149.0156,141.7012 Q149.1797,141.7012 149.3047,141.834 Q149.4375,141.959 149.4375,142.1309 Q149.4375,142.3027 149.2656,142.5059 Q149.0156,142.7949 148.6172,142.959 Q148.0781,143.1855 147.4297,143.1855 Q146.6719,143.1855 146.0703,142.873 Q145.5781,142.623 145.2344,142.0918 Q144.8906,141.5527 144.8906,140.9121 L144.8906,140.334 Q144.8906,139.6699 145.1953,139.0996 Q145.5078,138.5215 146.0547,138.2168 Q146.6016,137.9043 147.2188,137.9043 Q147.5859,137.9043 147.9063,137.9902 Q148.2344,138.0684 148.5078,138.248 Z " fill="#000000"/><text fill="#000000" font-family="sans-serif" font-size="7" lengthAdjust="spacing" textLength="11.5" x="157.375" y="143.209">File</text><line style="stroke:#181818;stroke-width:0.25;" x1="98.75" x2="211.25" y1="148.3105" y2="148.3105"/><text fill="#000000" font-family="sans-serif" font-size="7" lengthAdjust="spacing" textLength="63.5" x="101.25" y="157.8643">-String ownerNames</text><text fill="#000000" font-family="sans-serif" font-size="7" lengthAdjust="spacing" textLength="87" x="101.25" y="167.1748">-int ownerPassportNumbers</text><text fill="#000000" font-family="sans-serif" font-size="7" lengthAdjust="spacing" textLength="59" x="101.25" y="176.4854">-String ownerSSNs</text><text fill="#000000" font-family="sans-serif" font-size="7" lengthAdjust="spacing" textLength="62.5" x="101.25" y="185.7959">-String ownerEmails</text><text fill="#000000" font-family="sans-serif" font-size="7" lengthAdjust="spacing" textLength="90.5" x="101.25" y="195.1064">-String ownerPhoneNumbers</text><text fill="#000000" font-family="sans-serif" font-size="7" lengthAdjust="spacing" textLength="69" x="101.25" y="204.417">-String propertyTypes</text><text fill="#000000" font-family="sans-serif" font-size="7" lengthAdjust="spacing" textLength="57" x="101.25" y="213.7275">-int propertyAreas</text><text fill="#000000" font-family="sans-serif" font-size="7" lengthAdjust="spacing" textLength="80" x="101.25" y="223.0381">-String propertyLocations</text><text fill="#000000" font-family="sans-serif" font-size="7" lengthAdjust="spacing" textLength="69.5" x="101.25" y="232.3486">-int propertyDistances</text><text fill="#000000" font-family="sans-serif" font-size="7" lengthAdjust="spacing" textLength="92" x="101.25" y="241.6592">-int propertyNumOfBedrooms</text><text fill="#000000" font-family="sans-serif" font-size="7" lengthAdjust="spacing" textLength="94" x="101.25" y="250.9697">-int propertyNumOfBathrooms</text><text fill="#000000" font-family="sans-serif" font-size="7" lengthAdjust="spacing" textLength="107.5" x="101.25" y="260.2803">-int propertyNumOfParkingSpaces</text><text fill="#000000" font-family="sans-serif" font-size="7" lengthAdjust="spacing" textLength="103.5" x="101.25" y="269.5908">-boolean propertyCentralHeating</text><text fill="#000000" font-family="sans-serif" font-size="7" lengthAdjust="spacing" textLength="104.5" x="101.25" y="278.9014">-boolean propertyAirConditioning</text><text fill="#000000" font-family="sans-serif" font-size="7" lengthAdjust="spacing" textLength="88" x="101.25" y="288.2119">-boolean propertyBasement</text><text fill="#000000" font-family="sans-serif" font-size="7" lengthAdjust="spacing" textLength="68.5" x="101.25" y="297.5225">-boolean propertyLoft</text><text fill="#000000" font-family="sans-serif" font-size="7" lengthAdjust="spacing" textLength="91.5" x="101.25" y="306.833">-String propertySunExposure</text><text fill="#000000" font-family="sans-serif" font-size="7" lengthAdjust="spacing" textLength="95" x="101.25" y="316.1436">-float propertyRequestedPrice</text><text fill="#000000" font-family="sans-serif" font-size="7" lengthAdjust="spacing" textLength="60.5" x="101.25" y="325.4541">-float propertyPrice</text><text fill="#000000" font-family="sans-serif" font-size="7" lengthAdjust="spacing" textLength="72.5" x="101.25" y="334.7646">-float commissionValue</text><text fill="#000000" font-family="sans-serif" font-size="7" lengthAdjust="spacing" textLength="64.5" x="101.25" y="344.0752">-int contractDuration</text><text fill="#000000" font-family="sans-serif" font-size="7" lengthAdjust="spacing" textLength="91" x="101.25" y="353.3857">-String propertyRequestDate</text><text fill="#000000" font-family="sans-serif" font-size="7" lengthAdjust="spacing" textLength="78.5" x="101.25" y="362.6963">-String propertySaleDate</text><text fill="#000000" font-family="sans-serif" font-size="7" lengthAdjust="spacing" textLength="63" x="101.25" y="372.0068">-String requestType</text><text fill="#000000" font-family="sans-serif" font-size="7" lengthAdjust="spacing" textLength="34.5" x="101.25" y="381.3174">-int storeID</text><text fill="#000000" font-family="sans-serif" font-size="7" lengthAdjust="spacing" textLength="57" x="101.25" y="390.6279">-String storeName</text><text fill="#000000" font-family="sans-serif" font-size="7" lengthAdjust="spacing" textLength="66" x="101.25" y="399.9385">-String storeLocation</text><text fill="#000000" font-family="sans-serif" font-size="7" lengthAdjust="spacing" textLength="84" x="101.25" y="409.249">-String storePhoneNumber</text><text fill="#000000" font-family="sans-serif" font-size="7" lengthAdjust="spacing" textLength="56" x="101.25" y="418.5596">-String storeEmail</text><line style="stroke:#181818;stroke-width:0.25;" x1="98.75" x2="211.25" y1="422.3164" y2="422.3164"/></g><!--class Owner--><g id="elem_Owner"><rect codeLine="44" fill="#F1F1F1" height="70.5527" id="Owner" rx="1.25" ry="1.25" style="stroke:#181818;stroke-width:0.25;" width="97" x="3.5" y="550.3105"/><ellipse cx="39.625" cy="558.3105" fill="#ADD1B2" rx="5.5" ry="5.5" style="stroke:#181818;stroke-width:0.5;"/><path d="M41.0078,556.248 Q41.0859,556.1387 41.1797,556.084 Q41.2734,556.0293 41.3828,556.0293 Q41.5703,556.0293 41.6875,556.1621 Q41.8047,556.2871 41.8047,556.5918 L41.8047,557.3184 Q41.8047,557.623 41.6875,557.7559 Q41.5703,557.8887 41.3828,557.8887 Q41.2109,557.8887 41.1094,557.7871 Q41.0078,557.6934 40.9531,557.4355 Q40.9297,557.2559 40.8359,557.1621 Q40.6719,556.9746 40.3672,556.8652 Q40.0625,556.7559 39.75,556.7559 Q39.3672,556.7559 39.0469,556.9199 Q38.7344,557.084 38.4844,557.459 Q38.2422,557.834 38.2422,558.3496 L38.2422,558.8965 Q38.2422,559.5137 38.6875,559.9277 Q39.1328,560.334 39.9297,560.334 Q40.3984,560.334 40.7266,560.209 Q40.9219,560.1309 41.1328,559.9121 Q41.2656,559.7793 41.3359,559.7402 Q41.4141,559.7012 41.5156,559.7012 Q41.6797,559.7012 41.8047,559.834 Q41.9375,559.959 41.9375,560.1309 Q41.9375,560.3027 41.7656,560.5059 Q41.5156,560.7949 41.1172,560.959 Q40.5781,561.1855 39.9297,561.1855 Q39.1719,561.1855 38.5703,560.873 Q38.0781,560.623 37.7344,560.0918 Q37.3906,559.5527 37.3906,558.9121 L37.3906,558.334 Q37.3906,557.6699 37.6953,557.0996 Q38.0078,556.5215 38.5547,556.2168 Q39.1016,555.9043 39.7188,555.9043 Q40.0859,555.9043 40.4063,555.9902 Q40.7344,556.0684 41.0078,556.248 Z " fill="#000000"/><text fill="#000000" font-family="sans-serif" font-size="7" lengthAdjust="spacing" textLength="20.5" x="49.875" y="561.209">Owner</text><line style="stroke:#181818;stroke-width:0.25;" x1="4" x2="100" y1="566.3105" y2="566.3105"/><text fill="#000000" font-family="sans-serif" font-size="7" lengthAdjust="spacing" textLength="40.5" x="6.5" y="575.8643">-String name</text><text fill="#000000" font-family="sans-serif" font-size="7" lengthAdjust="spacing" textLength="64" x="6.5" y="585.1748">-int passportNumber</text><text fill="#000000" font-family="sans-serif" font-size="7" lengthAdjust="spacing" textLength="91" x="6.5" y="594.4854">-String socialSecurityNumber</text><text fill="#000000" font-family="sans-serif" font-size="7" lengthAdjust="spacing" textLength="39.5" x="6.5" y="603.7959">-String email</text><text fill="#000000" font-family="sans-serif" font-size="7" lengthAdjust="spacing" textLength="67.5" x="6.5" y="613.1064">-String phoneNumber</text><line style="stroke:#181818;stroke-width:0.25;" x1="4" x2="100" y1="616.8633" y2="616.8633"/></g><!--class Store--><g id="elem_Store"><rect codeLine="52" fill="#F1F1F1" height="70.5527" id="Store" rx="1.25" ry="1.25" style="stroke:#181818;stroke-width:0.25;" width="73.5" x="118.25" y="550.3105"/><ellipse cx="144.375" cy="558.3105" fill="#ADD1B2" rx="5.5" ry="5.5" style="stroke:#181818;stroke-width:0.5;"/><path d="M145.7578,556.248 Q145.8359,556.1387 145.9297,556.084 Q146.0234,556.0293 146.1328,556.0293 Q146.3203,556.0293 146.4375,556.1621 Q146.5547,556.2871 146.5547,556.5918 L146.5547,557.3184 Q146.5547,557.623 146.4375,557.7559 Q146.3203,557.8887 146.1328,557.8887 Q145.9609,557.8887 145.8594,557.7871 Q145.7578,557.6934 145.7031,557.4355 Q145.6797,557.2559 145.5859,557.1621 Q145.4219,556.9746 145.1172,556.8652 Q144.8125,556.7559 144.5,556.7559 Q144.1172,556.7559 143.7969,556.9199 Q143.4844,557.084 143.2344,557.459 Q142.9922,557.834 142.9922,558.3496 L142.9922,558.8965 Q142.9922,559.5137 143.4375,559.9277 Q143.8828,560.334 144.6797,560.334 Q145.1484,560.334 145.4766,560.209 Q145.6719,560.1309 145.8828,559.9121 Q146.0156,559.7793 146.0859,559.7402 Q146.1641,559.7012 146.2656,559.7012 Q146.4297,559.7012 146.5547,559.834 Q146.6875,559.959 146.6875,560.1309 Q146.6875,560.3027 146.5156,560.5059 Q146.2656,560.7949 145.8672,560.959 Q145.3281,561.1855 144.6797,561.1855 Q143.9219,561.1855 143.3203,560.873 Q142.8281,560.623 142.4844,560.0918 Q142.1406,559.5527 142.1406,558.9121 L142.1406,558.334 Q142.1406,557.6699 142.4453,557.0996 Q142.7578,556.5215 143.3047,556.2168 Q143.8516,555.9043 144.4688,555.9043 Q144.8359,555.9043 145.1563,555.9902 Q145.4844,556.0684 145.7578,556.248 Z " fill="#000000"/><text fill="#000000" font-family="sans-serif" font-size="7" lengthAdjust="spacing" textLength="17" x="154.625" y="561.209">Store</text><line style="stroke:#181818;stroke-width:0.25;" x1="118.75" x2="191.25" y1="566.3105" y2="566.3105"/><text fill="#000000" font-family="sans-serif" font-size="7" lengthAdjust="spacing" textLength="17.5" x="121.25" y="575.8643">-int id</text><text fill="#000000" font-family="sans-serif" font-size="7" lengthAdjust="spacing" textLength="40.5" x="121.25" y="585.1748">-String name</text><text fill="#000000" font-family="sans-serif" font-size="7" lengthAdjust="spacing" textLength="47.5" x="121.25" y="594.4854">-String location</text><text fill="#000000" font-family="sans-serif" font-size="7" lengthAdjust="spacing" textLength="67.5" x="121.25" y="603.7959">-String phoneNumber</text><text fill="#000000" font-family="sans-serif" font-size="7" lengthAdjust="spacing" textLength="39.5" x="121.25" y="613.1064">-String email</text><line style="stroke:#181818;stroke-width:0.25;" x1="118.75" x2="191.25" y1="616.8633" y2="616.8633"/></g><!--class Property--><g id="elem_Property"><rect codeLine="60" fill="#F1F1F1" height="79.8633" id="Property" rx="1.25" ry="1.25" style="stroke:#181818;stroke-width:0.25;" width="100.5" x="256.75" y="545.5605"/><ellipse cx="291.375" cy="553.5605" fill="#B4A7E5" rx="5.5" ry="5.5" style="stroke:#181818;stroke-width:0.5;"/><path d="M291.8516,551.8809 L291.8516,555.209 L292.7109,555.209 Q293.0156,555.209 293.1484,555.3262 Q293.2813,555.4434 293.2813,555.6387 Q293.2813,555.8262 293.1484,555.9434 Q293.0156,556.0605 292.7109,556.0605 L290.1406,556.0605 Q289.8359,556.0605 289.7031,555.9434 Q289.5703,555.8262 289.5703,555.6309 Q289.5703,555.4434 289.7031,555.3262 Q289.8359,555.209 290.1406,555.209 L291,555.209 L291,551.8809 L290.1406,551.8809 Q289.8359,551.8809 289.7031,551.7637 Q289.5703,551.6465 289.5703,551.4512 Q289.5703,551.2637 289.7031,551.1465 Q289.8359,551.0293 290.1406,551.0293 L292.7109,551.0293 Q293.0156,551.0293 293.1484,551.1465 Q293.2813,551.2637 293.2813,551.4512 Q293.2813,551.6465 293.1484,551.7637 Q293.0156,551.8809 292.7109,551.8809 L291.8516,551.8809 Z " fill="#000000"/><text fill="#000000" font-family="sans-serif" font-size="7" font-style="italic" lengthAdjust="spacing" textLength="27" x="301.625" y="556.459">Property</text><line style="stroke:#181818;stroke-width:0.25;" x1="257.25" x2="356.75" y1="561.5605" y2="561.5605"/><text fill="#000000" font-family="sans-serif" font-size="7" lengthAdjust="spacing" textLength="55" x="259.75" y="571.1143">-Request request</text><text fill="#000000" font-family="sans-serif" font-size="7" lengthAdjust="spacing" textLength="32.5" x="259.75" y="580.4248">-float area</text><text fill="#000000" font-family="sans-serif" font-size="7" lengthAdjust="spacing" textLength="47.5" x="259.75" y="589.7354">-String location</text><text fill="#000000" font-family="sans-serif" font-size="7" lengthAdjust="spacing" textLength="94.5" x="259.75" y="599.0459">-float distanceFromCityCentre</text><text fill="#000000" font-family="sans-serif" font-size="7" lengthAdjust="spacing" textLength="66" x="259.75" y="608.3564">-float requestedPrice</text><text fill="#000000" font-family="sans-serif" font-size="7" lengthAdjust="spacing" textLength="56.5" x="259.75" y="617.667">-png photographs</text><line style="stroke:#181818;stroke-width:0.25;" x1="257.25" x2="356.75" y1="621.4238" y2="621.4238"/></g><!--class Request--><g id="elem_Request"><rect codeLine="70" fill="#F1F1F1" height="98.4844" id="Request" rx="1.25" ry="1.25" style="stroke:#181818;stroke-width:0.25;" width="85.5" x="400.25" y="536.3105"/><ellipse cx="427.625" cy="544.3105" fill="#ADD1B2" rx="5.5" ry="5.5" style="stroke:#181818;stroke-width:0.5;"/><path d="M429.0078,542.248 Q429.0859,542.1387 429.1797,542.084 Q429.2734,542.0293 429.3828,542.0293 Q429.5703,542.0293 429.6875,542.1621 Q429.8047,542.2871 429.8047,542.5918 L429.8047,543.3184 Q429.8047,543.623 429.6875,543.7559 Q429.5703,543.8887 429.3828,543.8887 Q429.2109,543.8887 429.1094,543.7871 Q429.0078,543.6934 428.9531,543.4355 Q428.9297,543.2559 428.8359,543.1621 Q428.6719,542.9746 428.3672,542.8652 Q428.0625,542.7559 427.75,542.7559 Q427.3672,542.7559 427.0469,542.9199 Q426.7344,543.084 426.4844,543.459 Q426.2422,543.834 426.2422,544.3496 L426.2422,544.8965 Q426.2422,545.5137 426.6875,545.9277 Q427.1328,546.334 427.9297,546.334 Q428.3984,546.334 428.7266,546.209 Q428.9219,546.1309 429.1328,545.9121 Q429.2656,545.7793 429.3359,545.7402 Q429.4141,545.7012 429.5156,545.7012 Q429.6797,545.7012 429.8047,545.834 Q429.9375,545.959 429.9375,546.1309 Q429.9375,546.3027 429.7656,546.5059 Q429.5156,546.7949 429.1172,546.959 Q428.5781,547.1855 427.9297,547.1855 Q427.1719,547.1855 426.5703,546.873 Q426.0781,546.623 425.7344,546.0918 Q425.3906,545.5527 425.3906,544.9121 L425.3906,544.334 Q425.3906,543.6699 425.6953,543.0996 Q426.0078,542.5215 426.5547,542.2168 Q427.1016,541.9043 427.7188,541.9043 Q428.0859,541.9043 428.4063,541.9902 Q428.7344,542.0684 429.0078,542.248 Z " fill="#000000"/><text fill="#000000" font-family="sans-serif" font-size="7" lengthAdjust="spacing" textLength="26.5" x="437.875" y="547.209">Request</text><line style="stroke:#181818;stroke-width:0.25;" x1="400.75" x2="485.25" y1="552.3105" y2="552.3105"/><text fill="#000000" font-family="sans-serif" font-size="7" lengthAdjust="spacing" textLength="38.5" x="403.25" y="561.8643">-String type;</text><text fill="#000000" font-family="sans-serif" font-size="7" lengthAdjust="spacing" textLength="35.5" x="403.25" y="571.1748">-float price;</text><text fill="#000000" font-family="sans-serif" font-size="7" lengthAdjust="spacing" textLength="52.5" x="403.25" y="580.4854">-String priceUnit;</text><text fill="#000000" font-family="sans-serif" font-size="7" lengthAdjust="spacing" textLength="71.5" x="403.25" y="589.7959">-boolean isItPublished;</text><text fill="#000000" font-family="sans-serif" font-size="7" lengthAdjust="spacing" textLength="76.5" x="403.25" y="599.1064">-String commissionDate;</text><text fill="#000000" font-family="sans-serif" font-size="7" lengthAdjust="spacing" textLength="61" x="403.25" y="608.417">-String ownerEmail;</text><text fill="#000000" font-family="sans-serif" font-size="7" lengthAdjust="spacing" textLength="79.5" x="403.25" y="617.7275">-String commissionValue;</text><text fill="#000000" font-family="sans-serif" font-size="7" lengthAdjust="spacing" textLength="40" x="403.25" y="627.0381">-int duration;</text><line style="stroke:#181818;stroke-width:0.25;" x1="400.75" x2="485.25" y1="630.7949" y2="630.7949"/></g><!--class House--><g id="elem_House"><rect codeLine="81" fill="#F1F1F1" height="89.1738" id="House" rx="1.25" ry="1.25" style="stroke:#181818;stroke-width:0.25;" width="90.5" x="153.75" y="674.3105"/><ellipse cx="186.875" cy="682.3105" fill="#ADD1B2" rx="5.5" ry="5.5" style="stroke:#181818;stroke-width:0.5;"/><path d="M188.2578,680.248 Q188.3359,680.1387 188.4297,680.084 Q188.5234,680.0293 188.6328,680.0293 Q188.8203,680.0293 188.9375,680.1621 Q189.0547,680.2871 189.0547,680.5918 L189.0547,681.3184 Q189.0547,681.623 188.9375,681.7559 Q188.8203,681.8887 188.6328,681.8887 Q188.4609,681.8887 188.3594,681.7871 Q188.2578,681.6934 188.2031,681.4355 Q188.1797,681.2559 188.0859,681.1621 Q187.9219,680.9746 187.6172,680.8652 Q187.3125,680.7559 187,680.7559 Q186.6172,680.7559 186.2969,680.9199 Q185.9844,681.084 185.7344,681.459 Q185.4922,681.834 185.4922,682.3496 L185.4922,682.8965 Q185.4922,683.5137 185.9375,683.9277 Q186.3828,684.334 187.1797,684.334 Q187.6484,684.334 187.9766,684.209 Q188.1719,684.1309 188.3828,683.9121 Q188.5156,683.7793 188.5859,683.7402 Q188.6641,683.7012 188.7656,683.7012 Q188.9297,683.7012 189.0547,683.834 Q189.1875,683.959 189.1875,684.1309 Q189.1875,684.3027 189.0156,684.5059 Q188.7656,684.7949 188.3672,684.959 Q187.8281,685.1855 187.1797,685.1855 Q186.4219,685.1855 185.8203,684.873 Q185.3281,684.623 184.9844,684.0918 Q184.6406,683.5527 184.6406,682.9121 L184.6406,682.334 Q184.6406,681.6699 184.9453,681.0996 Q185.2578,680.5215 185.8047,680.2168 Q186.3516,679.9043 186.9688,679.9043 Q187.3359,679.9043 187.6563,679.9902 Q187.9844,680.0684 188.2578,680.248 Z " fill="#000000"/><text fill="#000000" font-family="sans-serif" font-size="7" lengthAdjust="spacing" textLength="20" x="197.125" y="685.209">House</text><line style="stroke:#181818;stroke-width:0.25;" x1="154.25" x2="243.75" y1="690.3105" y2="690.3105"/><text fill="#000000" font-family="sans-serif" font-size="7" lengthAdjust="spacing" textLength="43.5" x="156.75" y="699.8643">-int bedrooms</text><text fill="#000000" font-family="sans-serif" font-size="7" lengthAdjust="spacing" textLength="45.5" x="156.75" y="709.1748">-int bathrooms</text><text fill="#000000" font-family="sans-serif" font-size="7" lengthAdjust="spacing" textLength="59" x="156.75" y="718.4854">-int parkingSpaces</text><text fill="#000000" font-family="sans-serif" font-size="7" lengthAdjust="spacing" textLength="84.5" x="156.75" y="727.7959">-String availableEquipment</text><text fill="#000000" font-family="sans-serif" font-size="7" lengthAdjust="spacing" textLength="61" x="156.75" y="737.1064">-boolean basement</text><text fill="#000000" font-family="sans-serif" font-size="7" lengthAdjust="spacing" textLength="76.5" x="156.75" y="746.417">-boolean inhabitableLoft</text><text fill="#000000" font-family="sans-serif" font-size="7" lengthAdjust="spacing" textLength="59" x="156.75" y="755.7275">-float sunExposure</text><line style="stroke:#181818;stroke-width:0.25;" x1="154.25" x2="243.75" y1="759.4844" y2="759.4844"/></g><!--class Apartment--><g id="elem_Apartment"><rect codeLine="92" fill="#F1F1F1" height="61.2422" id="Apartment" rx="1.25" ry="1.25" style="stroke:#181818;stroke-width:0.25;" width="90.5" x="261.75" y="688.3105"/><ellipse cx="288.625" cy="696.3105" fill="#ADD1B2" rx="5.5" ry="5.5" style="stroke:#181818;stroke-width:0.5;"/><path d="M290.0078,694.248 Q290.0859,694.1387 290.1797,694.084 Q290.2734,694.0293 290.3828,694.0293 Q290.5703,694.0293 290.6875,694.1621 Q290.8047,694.2871 290.8047,694.5918 L290.8047,695.3184 Q290.8047,695.623 290.6875,695.7559 Q290.5703,695.8887 290.3828,695.8887 Q290.2109,695.8887 290.1094,695.7871 Q290.0078,695.6934 289.9531,695.4355 Q289.9297,695.2559 289.8359,695.1621 Q289.6719,694.9746 289.3672,694.8652 Q289.0625,694.7559 288.75,694.7559 Q288.3672,694.7559 288.0469,694.9199 Q287.7344,695.084 287.4844,695.459 Q287.2422,695.834 287.2422,696.3496 L287.2422,696.8965 Q287.2422,697.5137 287.6875,697.9277 Q288.1328,698.334 288.9297,698.334 Q289.3984,698.334 289.7266,698.209 Q289.9219,698.1309 290.1328,697.9121 Q290.2656,697.7793 290.3359,697.7402 Q290.4141,697.7012 290.5156,697.7012 Q290.6797,697.7012 290.8047,697.834 Q290.9375,697.959 290.9375,698.1309 Q290.9375,698.3027 290.7656,698.5059 Q290.5156,698.7949 290.1172,698.959 Q289.5781,699.1855 288.9297,699.1855 Q288.1719,699.1855 287.5703,698.873 Q287.0781,698.623 286.7344,698.0918 Q286.3906,697.5527 286.3906,696.9121 L286.3906,696.334 Q286.3906,695.6699 286.6953,695.0996 Q287.0078,694.5215 287.5547,694.2168 Q288.1016,693.9043 288.7188,693.9043 Q289.0859,693.9043 289.4063,693.9902 Q289.7344,694.0684 290.0078,694.248 Z " fill="#000000"/><text fill="#000000" font-family="sans-serif" font-size="7" lengthAdjust="spacing" textLength="32.5" x="298.875" y="699.209">Apartment</text><line style="stroke:#181818;stroke-width:0.25;" x1="262.25" x2="351.75" y1="704.3105" y2="704.3105"/><text fill="#000000" font-family="sans-serif" font-size="7" lengthAdjust="spacing" textLength="43.5" x="264.75" y="713.8643">-int bedrooms</text><text fill="#000000" font-family="sans-serif" font-size="7" lengthAdjust="spacing" textLength="45.5" x="264.75" y="723.1748">-int bathrooms</text><text fill="#000000" font-family="sans-serif" font-size="7" lengthAdjust="spacing" textLength="59" x="264.75" y="732.4854">-int parkingSpaces</text><text fill="#000000" font-family="sans-serif" font-size="7" lengthAdjust="spacing" textLength="84.5" x="264.75" y="741.7959">-String availableEquipment</text><line style="stroke:#181818;stroke-width:0.25;" x1="262.25" x2="351.75" y1="745.5527" y2="745.5527"/></g><!--class Land--><g id="elem_Land"><rect codeLine="100" fill="#F1F1F1" height="24" id="Land" rx="1.25" ry="1.25" style="stroke:#181818;stroke-width:0.25;" width="32" x="370" y="706.8105"/><ellipse cx="377.5" cy="714.8105" fill="#ADD1B2" rx="5.5" ry="5.5" style="stroke:#181818;stroke-width:0.5;"/><path d="M378.8828,712.748 Q378.9609,712.6387 379.0547,712.584 Q379.1484,712.5293 379.2578,712.5293 Q379.4453,712.5293 379.5625,712.6621 Q379.6797,712.7871 379.6797,713.0918 L379.6797,713.8184 Q379.6797,714.123 379.5625,714.2559 Q379.4453,714.3887 379.2578,714.3887 Q379.0859,714.3887 378.9844,714.2871 Q378.8828,714.1934 378.8281,713.9355 Q378.8047,713.7559 378.7109,713.6621 Q378.5469,713.4746 378.2422,713.3652 Q377.9375,713.2559 377.625,713.2559 Q377.2422,713.2559 376.9219,713.4199 Q376.6094,713.584 376.3594,713.959 Q376.1172,714.334 376.1172,714.8496 L376.1172,715.3965 Q376.1172,716.0137 376.5625,716.4277 Q377.0078,716.834 377.8047,716.834 Q378.2734,716.834 378.6016,716.709 Q378.7969,716.6309 379.0078,716.4121 Q379.1406,716.2793 379.2109,716.2402 Q379.2891,716.2012 379.3906,716.2012 Q379.5547,716.2012 379.6797,716.334 Q379.8125,716.459 379.8125,716.6309 Q379.8125,716.8027 379.6406,717.0059 Q379.3906,717.2949 378.9922,717.459 Q378.4531,717.6855 377.8047,717.6855 Q377.0469,717.6855 376.4453,717.373 Q375.9531,717.123 375.6094,716.5918 Q375.2656,716.0527 375.2656,715.4121 L375.2656,714.834 Q375.2656,714.1699 375.5703,713.5996 Q375.8828,713.0215 376.4297,712.7168 Q376.9766,712.4043 377.5938,712.4043 Q377.9609,712.4043 378.2813,712.4902 Q378.6094,712.5684 378.8828,712.748 Z " fill="#000000"/><text fill="#000000" font-family="sans-serif" font-size="7" lengthAdjust="spacing" textLength="16" x="384.5" y="717.709">Land</text><line style="stroke:#181818;stroke-width:0.25;" x1="370.5" x2="401.5" y1="722.8105" y2="722.8105"/><line style="stroke:#181818;stroke-width:0.25;" x1="370.5" x2="401.5" y1="726.8105" y2="726.8105"/></g><!--class ImportLegacySystemUI--><g id="elem_ImportLegacySystemUI"><rect codeLine="104" fill="#F1F1F1" height="33.3105" id="ImportLegacySystemUI" rx="1.25" ry="1.25" style="stroke:#181818;stroke-width:0.25;" width="87.5" x="152.25" y="37.0605"/><ellipse cx="159.75" cy="45.0605" fill="#ADD1B2" rx="5.5" ry="5.5" style="stroke:#181818;stroke-width:0.5;"/><path d="M161.1328,42.998 Q161.2109,42.8887 161.3047,42.834 Q161.3984,42.7793 161.5078,42.7793 Q161.6953,42.7793 161.8125,42.9121 Q161.9297,43.0371 161.9297,43.3418 L161.9297,44.0684 Q161.9297,44.373 161.8125,44.5059 Q161.6953,44.6387 161.5078,44.6387 Q161.3359,44.6387 161.2344,44.5371 Q161.1328,44.4434 161.0781,44.1855 Q161.0547,44.0059 160.9609,43.9121 Q160.7969,43.7246 160.4922,43.6152 Q160.1875,43.5059 159.875,43.5059 Q159.4922,43.5059 159.1719,43.6699 Q158.8594,43.834 158.6094,44.209 Q158.3672,44.584 158.3672,45.0996 L158.3672,45.6465 Q158.3672,46.2637 158.8125,46.6777 Q159.2578,47.084 160.0547,47.084 Q160.5234,47.084 160.8516,46.959 Q161.0469,46.8809 161.2578,46.6621 Q161.3906,46.5293 161.4609,46.4902 Q161.5391,46.4512 161.6406,46.4512 Q161.8047,46.4512 161.9297,46.584 Q162.0625,46.709 162.0625,46.8809 Q162.0625,47.0527 161.8906,47.2559 Q161.6406,47.5449 161.2422,47.709 Q160.7031,47.9355 160.0547,47.9355 Q159.2969,47.9355 158.6953,47.623 Q158.2031,47.373 157.8594,46.8418 Q157.5156,46.3027 157.5156,45.6621 L157.5156,45.084 Q157.5156,44.4199 157.8203,43.8496 Q158.1328,43.2715 158.6797,42.9668 Q159.2266,42.6543 159.8438,42.6543 Q160.2109,42.6543 160.5313,42.7402 Q160.8594,42.8184 161.1328,42.998 Z " fill="#000000"/><text fill="#000000" font-family="sans-serif" font-size="7" lengthAdjust="spacing" textLength="71.5" x="166.75" y="47.959">ImportLegacySystemUI</text><line style="stroke:#181818;stroke-width:0.25;" x1="152.75" x2="239.25" y1="53.0605" y2="53.0605"/><line style="stroke:#181818;stroke-width:0.25;" x1="152.75" x2="239.25" y1="57.0605" y2="57.0605"/><text fill="#000000" font-family="sans-serif" font-size="7" lengthAdjust="spacing" textLength="19.5" x="155.25" y="66.6143">+run()</text></g><!--class ImportLegacySystemController--><g id="elem_ImportLegacySystemController"><rect codeLine="109" fill="#F1F1F1" height="61.2422" id="ImportLegacySystemController" rx="1.25" ry="1.25" style="stroke:#181818;stroke-width:0.25;" width="112.5" x="295.25" y="23.3105"/><ellipse cx="302.75" cy="31.3105" fill="#ADD1B2" rx="5.5" ry="5.5" style="stroke:#181818;stroke-width:0.5;"/><path d="M304.1328,29.248 Q304.2109,29.1387 304.3047,29.084 Q304.3984,29.0293 304.5078,29.0293 Q304.6953,29.0293 304.8125,29.1621 Q304.9297,29.2871 304.9297,29.5918 L304.9297,30.3184 Q304.9297,30.623 304.8125,30.7559 Q304.6953,30.8887 304.5078,30.8887 Q304.3359,30.8887 304.2344,30.7871 Q304.1328,30.6934 304.0781,30.4355 Q304.0547,30.2559 303.9609,30.1621 Q303.7969,29.9746 303.4922,29.8652 Q303.1875,29.7559 302.875,29.7559 Q302.4922,29.7559 302.1719,29.9199 Q301.8594,30.084 301.6094,30.459 Q301.3672,30.834 301.3672,31.3496 L301.3672,31.8965 Q301.3672,32.5137 301.8125,32.9277 Q302.2578,33.334 303.0547,33.334 Q303.5234,33.334 303.8516,33.209 Q304.0469,33.1309 304.2578,32.9121 Q304.3906,32.7793 304.4609,32.7402 Q304.5391,32.7012 304.6406,32.7012 Q304.8047,32.7012 304.9297,32.834 Q305.0625,32.959 305.0625,33.1309 Q305.0625,33.3027 304.8906,33.5059 Q304.6406,33.7949 304.2422,33.959 Q303.7031,34.1855 303.0547,34.1855 Q302.2969,34.1855 301.6953,33.873 Q301.2031,33.623 300.8594,33.0918 Q300.5156,32.5527 300.5156,31.9121 L300.5156,31.334 Q300.5156,30.6699 300.8203,30.0996 Q301.1328,29.5215 301.6797,29.2168 Q302.2266,28.9043 302.8438,28.9043 Q303.2109,28.9043 303.5313,28.9902 Q303.8594,29.0684 304.1328,29.248 Z " fill="#000000"/><text fill="#000000" font-family="sans-serif" font-size="7" lengthAdjust="spacing" textLength="96.5" x="309.75" y="34.209">ImportLegacySystemController</text><line style="stroke:#181818;stroke-width:0.25;" x1="295.75" x2="407.25" y1="39.3105" y2="39.3105"/><line style="stroke:#181818;stroke-width:0.25;" x1="295.75" x2="407.25" y1="43.3105" y2="43.3105"/><text fill="#000000" font-family="sans-serif" font-size="7" lengthAdjust="spacing" textLength="72.5" x="298.25" y="52.8643">+importFile(fileReader)</text><text fill="#000000" font-family="sans-serif" font-size="7" lengthAdjust="spacing" textLength="45" x="298.25" y="62.1748">+useLine(line)</text><text fill="#000000" font-family="sans-serif" font-size="7" lengthAdjust="spacing" textLength="90.5" x="298.25" y="71.4854">+createOwner(itemsPerLine)</text><text fill="#000000" font-family="sans-serif" font-size="7" lengthAdjust="spacing" textLength="96.5" x="298.25" y="80.7959">+createRequest(itemsPerLine)</text></g><!--class Repositories--><g id="elem_Repositories"><rect codeLine="117" fill="#F1F1F1" height="51.9316" id="Repositories" rx="1.25" ry="1.25" style="stroke:#181818;stroke-width:0.25;" width="132" x="235" y="253.3105"/><ellipse cx="279.125" cy="261.3105" fill="#ADD1B2" rx="5.5" ry="5.5" style="stroke:#181818;stroke-width:0.5;"/><path d="M280.5078,259.248 Q280.5859,259.1387 280.6797,259.084 Q280.7734,259.0293 280.8828,259.0293 Q281.0703,259.0293 281.1875,259.1621 Q281.3047,259.2871 281.3047,259.5918 L281.3047,260.3184 Q281.3047,260.623 281.1875,260.7559 Q281.0703,260.8887 280.8828,260.8887 Q280.7109,260.8887 280.6094,260.7871 Q280.5078,260.6934 280.4531,260.4355 Q280.4297,260.2559 280.3359,260.1621 Q280.1719,259.9746 279.8672,259.8652 Q279.5625,259.7559 279.25,259.7559 Q278.8672,259.7559 278.5469,259.9199 Q278.2344,260.084 277.9844,260.459 Q277.7422,260.834 277.7422,261.3496 L277.7422,261.8965 Q277.7422,262.5137 278.1875,262.9277 Q278.6328,263.334 279.4297,263.334 Q279.8984,263.334 280.2266,263.209 Q280.4219,263.1309 280.6328,262.9121 Q280.7656,262.7793 280.8359,262.7402 Q280.9141,262.7012 281.0156,262.7012 Q281.1797,262.7012 281.3047,262.834 Q281.4375,262.959 281.4375,263.1309 Q281.4375,263.3027 281.2656,263.5059 Q281.0156,263.7949 280.6172,263.959 Q280.0781,264.1855 279.4297,264.1855 Q278.6719,264.1855 278.0703,263.873 Q277.5781,263.623 277.2344,263.0918 Q276.8906,262.5527 276.8906,261.9121 L276.8906,261.334 Q276.8906,260.6699 277.1953,260.0996 Q277.5078,259.5215 278.0547,259.2168 Q278.6016,258.9043 279.2188,258.9043 Q279.5859,258.9043 279.9063,258.9902 Q280.2344,259.0684 280.5078,259.248 Z " fill="#000000"/><text fill="#000000" font-family="sans-serif" font-size="7" lengthAdjust="spacing" textLength="39.5" x="289.375" y="264.209">Repositories</text><line style="stroke:#181818;stroke-width:0.25;" x1="235.5" x2="366.5" y1="269.3105" y2="269.3105"/><text fill="#000000" font-family="sans-serif" font-size="7" lengthAdjust="spacing" textLength="126" x="238" y="278.8643">-PropertyRepository propertyAnnouncementRepository</text><line style="stroke:#181818;stroke-width:0.25;" x1="235.5" x2="366.5" y1="282.6211" y2="282.6211"/><text fill="#000000" font-family="sans-serif" font-size="7" lengthAdjust="spacing" textLength="45.5" x="238" y="292.1748">+getInstance()</text><text fill="#000000" font-family="sans-serif" font-size="7" lengthAdjust="spacing" textLength="80" x="238" y="301.4854">+getPropertyRepository()</text></g><!--class PropertyRepository--><g id="elem_PropertyRepository"><rect codeLine="124" fill="#F1F1F1" height="79.8633" id="PropertyRepository" rx="1.25" ry="1.25" style="stroke:#181818;stroke-width:0.25;" width="93" x="260.5" y="441.3105"/><ellipse cx="275.2" cy="449.3105" fill="#ADD1B2" rx="5.5" ry="5.5" style="stroke:#181818;stroke-width:0.5;"/><path d="M276.5828,447.248 Q276.6609,447.1387 276.7547,447.084 Q276.8484,447.0293 276.9578,447.0293 Q277.1453,447.0293 277.2625,447.1621 Q277.3797,447.2871 277.3797,447.5918 L277.3797,448.3184 Q277.3797,448.623 277.2625,448.7559 Q277.1453,448.8887 276.9578,448.8887 Q276.7859,448.8887 276.6844,448.7871 Q276.5828,448.6934 276.5281,448.4355 Q276.5047,448.2559 276.4109,448.1621 Q276.2469,447.9746 275.9422,447.8652 Q275.6375,447.7559 275.325,447.7559 Q274.9422,447.7559 274.6219,447.9199 Q274.3094,448.084 274.0594,448.459 Q273.8172,448.834 273.8172,449.3496 L273.8172,449.8965 Q273.8172,450.5137 274.2625,450.9277 Q274.7078,451.334 275.5047,451.334 Q275.9734,451.334 276.3016,451.209 Q276.4969,451.1309 276.7078,450.9121 Q276.8406,450.7793 276.9109,450.7402 Q276.9891,450.7012 277.0906,450.7012 Q277.2547,450.7012 277.3797,450.834 Q277.5125,450.959 277.5125,451.1309 Q277.5125,451.3027 277.3406,451.5059 Q277.0906,451.7949 276.6922,451.959 Q276.1531,452.1855 275.5047,452.1855 Q274.7469,452.1855 274.1453,451.873 Q273.6531,451.623 273.3094,451.0918 Q272.9656,450.5527 272.9656,449.9121 L272.9656,449.334 Q272.9656,448.6699 273.2703,448.0996 Q273.5828,447.5215 274.1297,447.2168 Q274.6766,446.9043 275.2938,446.9043 Q275.6609,446.9043 275.9813,446.9902 Q276.3094,447.0684 276.5828,447.248 Z " fill="#000000"/><text fill="#000000" font-family="sans-serif" font-size="7" lengthAdjust="spacing" textLength="61" x="283.8" y="452.209">PropertyRepository</text><line style="stroke:#181818;stroke-width:0.25;" x1="261" x2="353" y1="457.3105" y2="457.3105"/><text fill="#000000" font-family="sans-serif" font-size="7" lengthAdjust="spacing" textLength="82.5" x="263.5" y="466.8643">-List&lt;Property&gt; properties</text><line style="stroke:#181818;stroke-width:0.25;" x1="261" x2="353" y1="470.6211" y2="470.6211"/><text fill="#000000" font-family="sans-serif" font-size="7" lengthAdjust="spacing" textLength="33.5" x="263.5" y="480.1748">+isEmpty()</text><text fill="#000000" font-family="sans-serif" font-size="7" lengthAdjust="spacing" textLength="47.5" x="263.5" y="489.4854">+add(property)</text><text fill="#000000" font-family="sans-serif" font-size="7" lengthAdjust="spacing" textLength="87" x="263.5" y="498.7959">+validateProperty(property)</text><text fill="#000000" font-family="sans-serif" font-size="7" lengthAdjust="spacing" textLength="55.5" x="263.5" y="508.1064">+printProperties()</text><text fill="#000000" font-family="sans-serif" font-size="7" lengthAdjust="spacing" textLength="51.5" x="263.5" y="517.417">+getProperties()</text></g><!--link Admin to File--><g id="link_Admin_File"><path codeLine="134" d="M58.84,79.8455 C68.475,99.7805 82.62,129.0505 97.115,159.0405 " fill="none" id="Admin-to-File" style="stroke:#181818;stroke-width:0.5;"/><polygon fill="#181818" points="98.25,161.3855,98.0891,156.4637,97.1605,159.1354,94.4889,158.2069,98.25,161.3855" style="stroke:#181818;stroke-width:0.5;"/><text fill="#000000" font-family="sans-serif" font-size="6.5" lengthAdjust="spacing" textLength="15" x="76.5" y="111.0747">owns</text></g><!--link Admin to ImportLegacySystemUI--><g id="link_Admin_ImportLegacySystemUI"><path codeLine="135" d="M76.035,53.8105 C97.015,53.8105 125.6,53.8105 149.605,53.8105 " fill="none" id="Admin-to-ImportLegacySystemUI" style="stroke:#181818;stroke-width:0.5;"/><polygon fill="#181818" points="152.215,53.8105,147.715,51.8105,149.715,53.8105,147.715,55.8105,152.215,53.8105" style="stroke:#181818;stroke-width:0.5;"/><text fill="#000000" font-family="sans-serif" font-size="6.5" lengthAdjust="spacing" textLength="58" x="85.125" y="41.8247">runs and sends .csv</text><text fill="#000000" font-family="sans-serif" font-size="6.5" lengthAdjust="spacing" textLength="15.5" x="106.375" y="50.4702">file to</text></g><!--link ImportLegacySystemUI to ImportLegacySystemController--><g id="link_ImportLegacySystemUI_ImportLegacySystemController"><path codeLine="136" d="M239.935,53.8105 C256.285,53.8105 275.115,53.8105 292.59,53.8105 " fill="none" id="ImportLegacySystemUI-to-ImportLegacySystemController" style="stroke:#181818;stroke-width:0.5;"/><polygon fill="#181818" points="295.16,53.8105,290.66,51.8105,292.66,53.8105,290.66,55.8105,295.16,53.8105" style="stroke:#181818;stroke-width:0.5;"/><text fill="#000000" font-family="sans-serif" font-size="6.5" lengthAdjust="spacing" textLength="37" x="249" y="50.3247">verifyFile(file)</text></g><!--link ImportLegacySystemController to File--><g id="link_ImportLegacySystemController_File"><path codeLine="137" d="M295.23,80.5605 C271.77,93.5955 245.595,111.1255 226.5,132.3105 C221.9,137.4105 217.535,142.8655 213.39,148.5555 " fill="none" id="ImportLegacySystemController-to-File" style="stroke:#181818;stroke-width:0.5;"/><polygon fill="#181818" points="211.875,150.6605,216.1247,148.1725,213.3335,148.6301,212.8759,145.8389,211.875,150.6605" style="stroke:#181818;stroke-width:0.5;"/><text fill="#000000" font-family="sans-serif" font-size="6.5" lengthAdjust="spacing" textLength="25" x="263" y="106.8247">validates</text><text fill="#000000" font-family="sans-serif" font-size="6.5" lengthAdjust="spacing" textLength="8" x="271.5" y="115.4702">file</text></g><!--link ImportLegacySystemController to ImportLegacySystemController--><g id="link_ImportLegacySystemController_ImportLegacySystemController"><path codeLine="139" d="M407.77,44.2405 C418.045,45.4505 425.25,48.6405 425.25,53.8105 C425.25,58.5355 419.23,61.6055 410.35,63.0255 " fill="none" id="ImportLegacySystemController-to-ImportLegacySystemController" style="stroke:#181818;stroke-width:0.5;"/><polygon fill="#181818" points="407.77,63.3805,412.5016,64.7451,410.2464,63.038,411.9535,60.7828,407.77,63.3805" style="stroke:#181818;stroke-width:0.5;"/><text fill="#000000" font-family="sans-serif" font-size="6.5" lengthAdjust="spacing" textLength="58.5" x="428.25" y="56.5747">reads each file's line</text></g><!--link File to Property--><g id="link_File_Property"><path codeLine="141" d="M193.725,426.4605 C194.86,431.4605 195.955,436.4255 197,441.3105 C204.545,476.5705 190.825,491.0905 210.5,521.3105 C221.245,537.8155 237.925,551.0355 254.415,561.0605 " fill="none" id="File-to-Property" style="stroke:#181818;stroke-width:0.5;"/><polygon fill="#181818" points="256.635,562.3905,253.8053,558.3603,254.4913,561.1043,251.7473,561.7903,256.635,562.3905" style="stroke:#181818;stroke-width:0.5;"/><text fill="#000000" font-family="sans-serif" font-size="6.5" lengthAdjust="spacing" textLength="40.5" x="211" y="484.0747">has info about</text></g><!--link File to Owner--><g id="link_File_Owner"><path codeLine="142" d="M105.535,426.4005 C90.355,471.3955 74.935,517.0905 64.57,547.8105 " fill="none" id="File-to-Owner" style="stroke:#181818;stroke-width:0.5;"/><polygon fill="#181818" points="63.77,550.1805,67.1068,546.559,64.5713,547.8124,63.3178,545.2769,63.77,550.1805" style="stroke:#181818;stroke-width:0.5;"/><text fill="#000000" font-family="sans-serif" font-size="6.5" lengthAdjust="spacing" textLength="40.5" x="100.5" y="484.0747">has info about</text></g><!--link File to Store--><g id="link_File_Store"><path codeLine="143" d="M153.245,426.3605 C153.105,457.6905 153.14,490.6005 153.5,521.3105 C153.6,529.7855 153.775,538.8955 153.97,547.5055 " fill="none" id="File-to-Store" style="stroke:#181818;stroke-width:0.5;"/><polygon fill="#181818" points="154.03,550.1555,155.9266,545.611,153.9729,547.6562,151.9277,545.7024,154.03,550.1555" style="stroke:#181818;stroke-width:0.5;"/><text fill="#000000" font-family="sans-serif" font-size="6.5" lengthAdjust="spacing" textLength="40.5" x="154" y="484.0747">has info about</text></g><!--link ImportLegacySystemController to Property--><g id="link_ImportLegacySystemController_Property"><path codeLine="145" d="M382.775,84.3355 C386.12,89.0155 389.02,94.0555 391,99.3105 C393.82,106.7955 391.195,109.3105 391,117.3105 C387.665,254.7655 389.02,289.4355 376,426.3105 C371.96,468.7655 380.23,482.5255 362.5,521.3105 C358.99,528.9905 354.255,536.4405 349.02,543.3705 " fill="none" id="ImportLegacySystemController-to-Property" style="stroke:#181818;stroke-width:0.5;"/><polygon fill="#181818" points="347.38,545.5055,351.7044,543.1499,348.9005,543.5211,348.5293,540.7171,347.38,545.5055" style="stroke:#181818;stroke-width:0.5;"/><text fill="#000000" font-family="sans-serif" font-size="6.5" lengthAdjust="spacing" textLength="21.5" x="391" y="282.0747">creates</text></g><!--link ImportLegacySystemController to Repositories--><g id="link_ImportLegacySystemController_Repositories"><path codeLine="146" d="M344.74,84.3555 C334.925,127.9905 316.855,208.3205 307.305,250.7905 " fill="none" id="ImportLegacySystemController-to-Repositories" style="stroke:#181818;stroke-width:0.5;"/><polygon fill="#181818" points="306.74,253.2805,309.6796,249.3297,307.2891,250.8416,305.7773,248.4511,306.74,253.2805" style="stroke:#181818;stroke-width:0.5;"/><text fill="#000000" font-family="sans-serif" font-size="6.5" lengthAdjust="spacing" textLength="46" x="341" y="111.0747">gets instance of</text></g><!--link Repositories to PropertyRepository--><g id="link_Repositories_PropertyRepository"><path codeLine="147" d="M301.765,305.4705 C302.77,339.0755 304.54,398.4355 305.74,438.6855 " fill="none" id="Repositories-to-PropertyRepository" style="stroke:#181818;stroke-width:0.5;"/><polygon fill="#181818" points="305.82,441.3055,307.6777,436.7449,305.7415,438.8068,303.6796,436.8706,305.82,441.3055" style="stroke:#181818;stroke-width:0.5;"/></g><!--link PropertyRepository to Property--><g id="link_PropertyRepository_Property"><path codeLine="148" d="M307,521.4355 C307,528.4755 307,535.8305 307,542.9355 " fill="none" id="PropertyRepository-to-Property" style="stroke:#181818;stroke-width:0.5;"/><polygon fill="#181818" points="307,545.5405,309,541.0405,307,543.0405,305,541.0405,307,545.5405" style="stroke:#181818;stroke-width:0.5;"/></g><!--link Property to Request--><g id="link_Property_Request"><path codeLine="150" d="M357.255,585.5605 C370.45,585.5605 384.6,585.5605 397.53,585.5605 " fill="none" id="Property-to-Request" style="stroke:#181818;stroke-width:0.5;"/><polygon fill="#181818" points="400.1,585.5605,395.6,583.5605,397.6,585.5605,395.6,587.5605,400.1,585.5605" style="stroke:#181818;stroke-width:0.5;"/><text fill="#000000" font-family="sans-serif" font-size="6.5" lengthAdjust="spacing" textLength="24.5" x="366.5" y="582.0747">contains</text></g><!--link Property to Apartment--><g id="link_Property_Apartment"><path codeLine="151" d="M307,625.5605 C307,644.7105 307,667.4405 307,685.6055 " fill="none" id="Property-to-Apartment" style="stroke:#181818;stroke-width:0.5;"/><polygon fill="#181818" points="307,688.2505,309,683.7505,307,685.7505,305,683.7505,307,688.2505" style="stroke:#181818;stroke-width:0.5;"/><text fill="#000000" font-family="sans-serif" font-size="6.5" lengthAdjust="spacing" textLength="19.5" x="307.5" y="657.3247">can be</text></g><!--link Property to House--><g id="link_Property_House"><path codeLine="152" d="M274.745,625.5605 C262.785,640.2005 249.12,656.9355 236.72,672.1205 " fill="none" id="Property-to-House" style="stroke:#181818;stroke-width:0.5;"/><polygon fill="#181818" points="235.06,674.1555,239.4539,671.9321,236.64,672.2181,236.354,669.4042,235.06,674.1555" style="stroke:#181818;stroke-width:0.5;"/><text fill="#000000" font-family="sans-serif" font-size="6.5" lengthAdjust="spacing" textLength="19.5" x="253.5" y="657.3247">can be</text></g><!--link Property to Land--><g id="link_Property_Land"><path codeLine="153" d="M331.605,625.6505 C340.92,640.8055 351.555,658.2955 361,674.3105 C366.875,684.2705 373.32,695.6205 378.19,704.3005 " fill="none" id="Property-to-Land" style="stroke:#181818;stroke-width:0.5;"/><polygon fill="#181818" points="379.52,706.6705,379.0516,701.7684,378.292,704.4929,375.5675,703.7333,379.52,706.6705" style="stroke:#181818;stroke-width:0.5;"/><text fill="#000000" font-family="sans-serif" font-size="6.5" lengthAdjust="spacing" textLength="19.5" x="351" y="657.3247">can be</text></g><!--SRC=[hLPDZzCm4BtdL_X6LwiYuDWYfD8kebArL8JbXBIQ99FMmh63xUnI4F-TiPtlPDaBbqhnpBnvC_F6hldEPGaQ2bP2-XrE6DkBGAOnjI1F0YFJEfWpPEgHonFBGPY-9HLWpCPQpPFAuZvLCkQ_aBsABBS4TXU_Uls6xOjIQSk07V04wOLzu6HQigsBPJiE9qAA8W_5Dbd19ViTBMF2f8GI2cm_i00ksg-I_1-Lpg8_JR07xcBLeqHzIm0cMd9fm_UH71sTswf8K9kXSnpVZavkNChHsV6i98xZIwrArFRovL8s-PgZZKQOEXvK2fOhENBUSKFzJySObEvJ_XuphLGnQm9xVifs14q3EyKqPmURA2KGPEkpHMarY8z8TEHfQjzmlLKouuxihCDxC5WGoDHoKBcT51vNykPdgKobQRAvKD3H_Om_AZGMiwFcwSGwE4nLKN1ZYDDN41M6iab_L4fgTvNslPtahXFimEAK5mWS67HmTXCDyCOgZVjTw-2_R_iAzIVDP8UdFTKC3LvYdOW_EObDDi0FTI3T3aIb74ICQQMvdtZVE5gP7eSsOUn8k8Gk1y_cLq-CQofdoi6c4a92dPFSsB5kBi7NlM_QsWmIQ3jcqWHZLc_31wsABQ-rscf0Z-HI1bvMqOrIdarqVt_VbLcdxnfhQQxhJcE4iEvfWZxl9BVhJjJSxEsnIWGtPymwrqw8JZphcUjZpjUBTXrwdjLgNNTaFwhAO3sIPB3roMZHXxjTvu47IWk9m9iV5I-7kvbCjfNBCoJSEl-miA4bfhUdWqvkAAbr4F-Lu2350MJsUtWKNf7mXCGNcdfnjsV1vrfNSd7rBzUjknYK47wpV0ZtFkx5MEJqynaXGtqLNLFV3rpYGj0FVQQaJej-9nUSWCmHzQ5lgcKrClPKHntaj64SZTknOtiHrUUNtjtK70M69xHx6UHFnRdFQN2_wXbeIdYW3NhRcDuroOXDtGPpKvJMuLn3bYqQBlJv089dL60JsxVHUiY63K4DwOK3eXNUykMxy2wlt4QOxd1sdYj6epICfiyCoiombwbv-2RTX9XLqMpCB5Plu2lsW9hdbtRMLz4__PSTuwO79b28dWbybWWfXcf2IC_CuRqmpCaiYi8_8eflcas-Pp2qcRbYaAZATYxXVNZQ7gxpYVtvcdkvWxJDyp43UQyOYS0b3Q9bAey6zbwEdaPN_jK6Yefch2DUjIUrZHuImcz3c2SJ7fWPH4-slRUSXxi9SMZtb-uJDdSXTQQ_]--></g></svg>