<?xml version="1.0" encoding="us-ascii" standalone="no"?><svg xmlns="http://www.w3.org/2000/svg" xmlns:xlink="http://www.w3.org/1999/xlink" contentStyleType="text/css" height="296px" preserveAspectRatio="none" style="width:463px;height:296px;background:#FFFFFF;" version="1.1" viewBox="0 0 463 296" width="463px" zoomAndPan="magnify"><defs/><g><text fill="#000000" font-family="sans-serif" font-size="14" font-weight="bold" lengthAdjust="spacing" textLength="274" x="87.5" y="25.1074">US005 Register a Store - Domain Model</text><!--class System--><g id="elem_System"><rect codeLine="12" fill="#F1F1F1" height="81.8633" id="System" rx="2.5" ry="2.5" style="stroke:#181818;stroke-width:0.5;" width="108" x="7" y="189.1211"/><text fill="#000000" font-family="sans-serif" font-size="14" lengthAdjust="spacing" textLength="46" x="38" y="209.2285">System</text><line style="stroke:#181818;stroke-width:0.5;" x1="8" x2="114" y1="217.7422" y2="217.7422"/><text fill="#000000" font-family="sans-serif" font-size="14" lengthAdjust="spacing" textLength="96" x="13" y="236.8496">advertisements</text><text fill="#000000" font-family="sans-serif" font-size="14" lengthAdjust="spacing" textLength="68" x="13" y="255.4707">application</text><line style="stroke:#181818;stroke-width:0.5;" x1="8" x2="114" y1="262.9844" y2="262.9844"/></g><!--class SystemAdministrator--><g id="elem_SystemAdministrator"><rect codeLine="18" fill="#F1F1F1" height="44.6211" id="SystemAdministrator" rx="2.5" ry="2.5" style="stroke:#181818;stroke-width:0.5;" width="135" x="191.5" y="46.6211"/><text fill="#000000" font-family="sans-serif" font-size="14" lengthAdjust="spacing" textLength="129" x="194.5" y="66.7285">SystemAdministrator</text><line style="stroke:#181818;stroke-width:0.5;" x1="192.5" x2="325.5" y1="75.2422" y2="75.2422"/><line style="stroke:#181818;stroke-width:0.5;" x1="192.5" x2="325.5" y1="83.2422" y2="83.2422"/></g><!--class NetworkBranch--><g id="elem_NetworkBranch"><rect codeLine="22" fill="#F1F1F1" height="119.1055" id="NetworkBranch" rx="2.5" ry="2.5" style="stroke:#181818;stroke-width:0.5;" width="104" x="150" y="170.6211"/><text fill="#000000" font-family="sans-serif" font-size="14" lengthAdjust="spacing" textLength="95" x="154.5" y="190.7285">NetworkBranch</text><line style="stroke:#181818;stroke-width:0.5;" x1="151" x2="253" y1="199.2422" y2="199.2422"/><text fill="#000000" font-family="sans-serif" font-size="14" lengthAdjust="spacing" textLength="73" x="156" y="218.3496">designation</text><text fill="#000000" font-family="sans-serif" font-size="14" lengthAdjust="spacing" textLength="49" x="156" y="236.9707">location</text><text fill="#000000" font-family="sans-serif" font-size="14" lengthAdjust="spacing" textLength="33" x="156" y="255.5918">email</text><text fill="#000000" font-family="sans-serif" font-size="14" lengthAdjust="spacing" textLength="92" x="156" y="274.2129">phone number</text><line style="stroke:#181818;stroke-width:0.5;" x1="151" x2="253" y1="281.7266" y2="281.7266"/></g><!--class Store--><g id="elem_Store"><rect codeLine="30" fill="#F1F1F1" height="63.2422" id="Store" rx="2.5" ry="2.5" style="stroke:#181818;stroke-width:0.5;" width="61" x="289.5" y="198.6211"/><text fill="#000000" font-family="sans-serif" font-size="14" lengthAdjust="spacing" textLength="34" x="303" y="218.7285">Store</text><line style="stroke:#181818;stroke-width:0.5;" x1="290.5" x2="349.5" y1="227.2422" y2="227.2422"/><text fill="#000000" font-family="sans-serif" font-size="14" lengthAdjust="spacing" textLength="49" x="295.5" y="246.3496">location</text><line style="stroke:#181818;stroke-width:0.5;" x1="290.5" x2="349.5" y1="253.8633" y2="253.8633"/></g><!--class Employee--><g id="elem_Employee"><rect fill="#F1F1F1" height="36.6211" id="Employee" rx="2.5" ry="2.5" style="stroke:#181818;stroke-width:0.5;" width="68" x="388" y="211.6211"/><text fill="#000000" font-family="sans-serif" font-size="14" lengthAdjust="spacing" textLength="62" x="391" y="231.7285">Employee</text><line style="stroke:#181818;stroke-width:0.5;" x1="389" x2="455" y1="240.2422" y2="240.2422"/></g><!--link SystemAdministrator to Employee--><g id="link_SystemAdministrator_Employee"><path codeLine="35" d="M314.25,91.6311 C329.91,99.4711 346.17,109.4711 359,121.6211 C386.49,147.6511 405.83,188.3311 415.33,211.4611 " fill="none" id="SystemAdministrator-Employee" style="stroke:#181818;stroke-width:1.0;"/><polygon fill="#000000" points="382.2239,135.0885,378.6383,126.2797,374.1454,130.0696,382.2239,135.0885" style="stroke:#000000;stroke-width:1.0;"/><text fill="#000000" font-family="sans-serif" font-size="13" lengthAdjust="spacing" textLength="50" x="388" y="136.6494">registers</text><text fill="#000000" font-family="sans-serif" font-size="13" lengthAdjust="spacing" textLength="7" x="319.8641" y="113.2997">1</text><text fill="#000000" font-family="sans-serif" font-size="13" lengthAdjust="spacing" textLength="5" x="407.5217" y="200.2742">*</text></g><!--link SystemAdministrator to NetworkBranch--><g id="link_SystemAdministrator_NetworkBranch"><path codeLine="36" d="M231.3,91.7511 C222.62,100.0911 214.01,110.3411 209,121.6211 C202.32,136.6611 199.41,154.0711 198.46,170.4311 " fill="none" id="SystemAdministrator-NetworkBranch" style="stroke:#181818;stroke-width:1.0;"/><polygon fill="#000000" points="212.0741,135.8808,218.2703,128.6657,212.8459,126.4016,212.0741,135.8808" style="stroke:#000000;stroke-width:1.0;"/><text fill="#000000" font-family="sans-serif" font-size="13" lengthAdjust="spacing" textLength="50" x="223" y="136.6494">registers</text><text fill="#000000" font-family="sans-serif" font-size="13" lengthAdjust="spacing" textLength="7" x="216.695" y="113.449">1</text><text fill="#000000" font-family="sans-serif" font-size="13" lengthAdjust="spacing" textLength="5" x="192.7239" y="159.1601">*</text></g><!--link SystemAdministrator to Store--><g id="link_SystemAdministrator_Store"><path codeLine="37" d="M267.35,91.8911 C277.93,119.4511 296.2,167.0811 308.19,198.3511 " fill="none" id="SystemAdministrator-Store" style="stroke:#181818;stroke-width:1.0;"/><polygon fill="#000000" points="292.7908,135.9349,292.2951,126.4372,286.8072,128.5425,292.7908,135.9349" style="stroke:#000000;stroke-width:1.0;"/><text fill="#000000" font-family="sans-serif" font-size="13" lengthAdjust="spacing" textLength="50" x="300" y="136.6494">registers</text><text fill="#000000" font-family="sans-serif" font-size="13" lengthAdjust="spacing" textLength="7" x="261.4716" y="113.2281">1</text><text fill="#000000" font-family="sans-serif" font-size="13" lengthAdjust="spacing" textLength="5" x="300.3727" y="187.4561">*</text></g><!--link SystemAdministrator to System--><g id="link_SystemAdministrator_System"><path codeLine="38" d="M191.33,88.5911 C170.5,96.4711 148.49,107.2511 131,121.6211 C108.98,139.7211 91.48,166.6011 79.48,188.9511 " fill="none" id="SystemAdministrator-System" style="stroke:#181818;stroke-width:1.0;"/><polygon fill="#000000" points="132.2785,134.6058,140.9735,130.7526,137.048,126.3777,132.2785,134.6058" style="stroke:#000000;stroke-width:1.0;"/><text fill="#000000" font-family="sans-serif" font-size="13" lengthAdjust="spacing" textLength="50" x="145" y="136.6494">prepares</text><text fill="#000000" font-family="sans-serif" font-size="13" lengthAdjust="spacing" textLength="7" x="176.5458" y="86.8559">1</text><text fill="#000000" font-family="sans-serif" font-size="13" lengthAdjust="spacing" textLength="7" x="74.9611" y="177.7882">1</text></g><!--SRC=[bP51ImCn48Nl-HN3NWf2eHwyz21KzE113owUIvgCkqEJJ9XCBMlnlnktnROYgAS4tdlVF6RAcbAsOYD4JknwuOYWia5JlfHitTfssEeG40ITsjI5KqFfhUSjfGvUR2Xe9aSfK48TCWABzcmc0LyKb46ewnKyVUA8qmdC1LlAGbLejL6yTvnQUaEOcPuyWYDnTVRuZrYHlXYZfBNPSpkRNS4JTbGK1Ioqoe8mXLkEbX8yiCTWpCY7TgYc23jZ_IkAKi68IOknEGToTkoqN2xD-tbWuIEboXTRsJLzPdb4tRAiRyGcrrVHOw4kxLc13r2iNOB9FIU4j8ahb6zpnjAxO-2W_ZI_kMnWEeNcee6xc0CFY32l5zfleC3rRwdpnl-Axdl-FLAVmyxda0NhhR56FW00]--></g></svg>