<?xml version="1.0" encoding="us-ascii" standalone="no"?><svg xmlns="http://www.w3.org/2000/svg" xmlns:xlink="http://www.w3.org/1999/xlink" contentStyleType="text/css" height="530px" preserveAspectRatio="none" style="width:366px;height:530px;background:#FFFFFF;" version="1.1" viewBox="0 0 366 530" width="366px" zoomAndPan="magnify"><defs/><g><text fill="#000000" font-family="sans-serif" font-size="14" font-weight="bold" lengthAdjust="spacing" textLength="292" x="38.75" y="30.1074">User Story 11 - System Sequence Diagram</text><rect fill="#FFFFFF" height="305.25" style="stroke:#181818;stroke-width:1.0;" width="10" x="56.5" y="133.2422"/><rect fill="#FFFFFF" height="189.377" style="stroke:#181818;stroke-width:1.0;" width="10" x="295.5" y="156.5332"/><rect fill="#FFFFFF" height="31.291" style="stroke:#181818;stroke-width:1.0;" width="10" x="295.5" y="377.2012"/><rect fill="none" height="258.959" style="stroke:#000000;stroke-width:1.5;" width="350.5" x="10" y="171.5332"/><rect fill="none" height="225.668" style="stroke:#000000;stroke-width:1.5;" width="330.5" x="20" y="197.8242"/><rect fill="none" height="113.1641" style="stroke:#000000;stroke-width:1.5;" width="310.5" x="30" y="303.3281"/><line style="stroke:#181818;stroke-width:0.5;stroke-dasharray:5.0,5.0;" x1="61" x2="61" y1="123.2422" y2="447.4922"/><line style="stroke:#181818;stroke-width:0.5;stroke-dasharray:5.0,5.0;" x1="300.5" x2="300.5" y1="123.2422" y2="447.4922"/><text fill="#000000" font-family="sans-serif" font-size="14" lengthAdjust="spacing" textLength="37" x="40" y="119.7285">Agent</text><ellipse cx="61.5" cy="53.1211" fill="#E2E2F0" rx="8" ry="8" style="stroke:#181818;stroke-width:0.5;"/><path d="M61.5,61.1211 L61.5,88.1211 M48.5,69.1211 L74.5,69.1211 M61.5,88.1211 L48.5,103.1211 M61.5,88.1211 L74.5,103.1211 " fill="none" style="stroke:#181818;stroke-width:0.5;"/><text fill="#000000" font-family="sans-serif" font-size="14" lengthAdjust="spacing" textLength="37" x="40" y="461.5996">Agent</text><ellipse cx="61.5" cy="473.6133" fill="#E2E2F0" rx="8" ry="8" style="stroke:#181818;stroke-width:0.5;"/><path d="M61.5,481.6133 L61.5,508.6133 M48.5,489.6133 L74.5,489.6133 M61.5,508.6133 L48.5,523.6133 M61.5,508.6133 L74.5,523.6133 " fill="none" style="stroke:#181818;stroke-width:0.5;"/><rect fill="#E2E2F0" height="32.6211" rx="2.5" ry="2.5" style="stroke:#181818;stroke-width:0.5;" width="60" x="270.5" y="89.6211"/><text fill="#000000" font-family="sans-serif" font-size="14" lengthAdjust="spacing" textLength="46" x="277.5" y="111.7285">System</text><rect fill="#E2E2F0" height="32.6211" rx="2.5" ry="2.5" style="stroke:#181818;stroke-width:0.5;" width="60" x="270.5" y="446.4922"/><text fill="#000000" font-family="sans-serif" font-size="14" lengthAdjust="spacing" textLength="46" x="277.5" y="468.5996">System</text><rect fill="#FFFFFF" height="305.25" style="stroke:#181818;stroke-width:1.0;" width="10" x="56.5" y="133.2422"/><rect fill="#FFFFFF" height="189.377" style="stroke:#181818;stroke-width:1.0;" width="10" x="295.5" y="156.5332"/><rect fill="#FFFFFF" height="31.291" style="stroke:#181818;stroke-width:1.0;" width="10" x="295.5" y="377.2012"/><polygon fill="#181818" points="283.5,152.5332,293.5,156.5332,283.5,160.5332,287.5,156.5332" style="stroke:#181818;stroke-width:1.0;"/><line style="stroke:#181818;stroke-width:1.0;" x1="66.5" x2="289.5" y1="156.5332" y2="156.5332"/><text fill="#000000" font-family="sans-serif" font-size="13" font-weight="bold" lengthAdjust="spacing" textLength="7" x="73.5" y="151.2705">1</text><text fill="#000000" font-family="sans-serif" font-size="13" lengthAdjust="spacing" textLength="176" x="84.5" y="151.2705">ask for the orders of properties</text><path d="M10,171.5332 L83,171.5332 L83,180.8242 L73,190.8242 L10,190.8242 L10,171.5332 " fill="#EEEEEE" style="stroke:#000000;stroke-width:1.5;"/><rect fill="none" height="258.959" style="stroke:#000000;stroke-width:1.5;" width="350.5" x="10" y="171.5332"/><text fill="#000000" font-family="sans-serif" font-size="13" font-weight="bold" lengthAdjust="spacing" textLength="28" x="25" y="186.5615">loop</text><text fill="#000000" font-family="sans-serif" font-size="11" font-weight="bold" lengthAdjust="spacing" textLength="109" x="98" y="185.4033">[for every property]</text><path d="M20,197.8242 L81,197.8242 L81,207.1152 L71,217.1152 L20,217.1152 L20,197.8242 " fill="#EEEEEE" style="stroke:#000000;stroke-width:1.5;"/><rect fill="none" height="225.668" style="stroke:#000000;stroke-width:1.5;" width="330.5" x="20" y="197.8242"/><text fill="#000000" font-family="sans-serif" font-size="13" font-weight="bold" lengthAdjust="spacing" textLength="16" x="35" y="212.8525">alt</text><text fill="#000000" font-family="sans-serif" font-size="11" font-weight="bold" lengthAdjust="spacing" textLength="193" x="96" y="211.6943">[property doesn't have any orders]</text><polygon fill="#181818" points="77.5,236.4063,67.5,240.4063,77.5,244.4063,73.5,240.4063" style="stroke:#181818;stroke-width:1.0;"/><line style="stroke:#181818;stroke-width:1.0;stroke-dasharray:2.0,2.0;" x1="71.5" x2="294.5" y1="240.4063" y2="240.4063"/><text fill="#000000" font-family="sans-serif" font-size="13" font-weight="bold" lengthAdjust="spacing" textLength="7" x="83.5" y="235.1436">2</text><text fill="#000000" font-family="sans-serif" font-size="13" lengthAdjust="spacing" textLength="163" x="94.5" y="235.1436">displays empty list of orders</text><line style="stroke:#000000;stroke-width:1.0;stroke-dasharray:2.0,2.0;" x1="20" x2="350.5" y1="249.4063" y2="249.4063"/><text fill="#000000" font-family="sans-serif" font-size="11" font-weight="bold" lengthAdjust="spacing" textLength="120" x="25" y="261.2764">[property has orders]</text><polygon fill="#181818" points="77.5,284.3281,67.5,288.3281,77.5,292.3281,73.5,288.3281" style="stroke:#181818;stroke-width:1.0;"/><line style="stroke:#181818;stroke-width:1.0;stroke-dasharray:2.0,2.0;" x1="71.5" x2="294.5" y1="288.3281" y2="288.3281"/><text fill="#000000" font-family="sans-serif" font-size="13" font-weight="bold" lengthAdjust="spacing" textLength="7" x="83.5" y="283.0654">3</text><text fill="#000000" font-family="sans-serif" font-size="13" lengthAdjust="spacing" textLength="147" x="94.5" y="283.0654">prints sorted list of orders</text><path d="M30,303.3281 L103,303.3281 L103,312.6191 L93,322.6191 L30,322.6191 L30,303.3281 " fill="#EEEEEE" style="stroke:#000000;stroke-width:1.5;"/><rect fill="none" height="113.1641" style="stroke:#000000;stroke-width:1.5;" width="310.5" x="30" y="303.3281"/><text fill="#000000" font-family="sans-serif" font-size="13" font-weight="bold" lengthAdjust="spacing" textLength="28" x="45" y="318.3564">loop</text><text fill="#000000" font-family="sans-serif" font-size="11" font-weight="bold" lengthAdjust="spacing" textLength="128" x="118" y="317.1982">[the number of orders]</text><polygon fill="#181818" points="77.5,341.9102,67.5,345.9102,77.5,349.9102,73.5,345.9102" style="stroke:#181818;stroke-width:1.0;"/><line style="stroke:#181818;stroke-width:1.0;stroke-dasharray:2.0,2.0;" x1="71.5" x2="299.5" y1="345.9102" y2="345.9102"/><text fill="#000000" font-family="sans-serif" font-size="13" font-weight="bold" lengthAdjust="spacing" textLength="7" x="83.5" y="340.6475">4</text><text fill="#000000" font-family="sans-serif" font-size="13" lengthAdjust="spacing" textLength="194" x="94.5" y="340.6475">ask if the agent accepts the order</text><polygon fill="#181818" points="283.5,373.2012,293.5,377.2012,283.5,381.2012,287.5,377.2012" style="stroke:#181818;stroke-width:1.0;"/><line style="stroke:#181818;stroke-width:1.0;" x1="66.5" x2="289.5" y1="377.2012" y2="377.2012"/><text fill="#000000" font-family="sans-serif" font-size="13" font-weight="bold" lengthAdjust="spacing" textLength="7" x="73.5" y="371.9385">5</text><text fill="#000000" font-family="sans-serif" font-size="13" lengthAdjust="spacing" textLength="154" x="84.5" y="371.9385">accepts or denies an order</text><polygon fill="#181818" points="77.5,404.4922,67.5,408.4922,77.5,412.4922,73.5,408.4922" style="stroke:#181818;stroke-width:1.0;"/><line style="stroke:#181818;stroke-width:1.0;stroke-dasharray:2.0,2.0;" x1="71.5" x2="299.5" y1="408.4922" y2="408.4922"/><text fill="#000000" font-family="sans-serif" font-size="13" font-weight="bold" lengthAdjust="spacing" textLength="7" x="83.5" y="403.2295">6</text><text fill="#000000" font-family="sans-serif" font-size="13" lengthAdjust="spacing" textLength="147" x="94.5" y="403.2295">shows operation success</text><!--SRC=[RP11ReCm44NtFiKecwneb2sBI9Lw0zG3JF4aM3MswnbISViEnY8DoW9XcF-V__pZ89AuFPsIno3JwD_wE9wOVYOAFJNMuItZQCI99_Xaoj19p3ESpz10DxFG25rLmqTLuoGnJECNPOEzok7mVgCW1q26SZ89ixZU9RqJ3YkcJDVZud9t5AfgKrxDPPssAlo6gs9b88ZPKcQ8LqWv9b8iySDVUJx6L1nq9mrVbRD1Bzi7s4WSZW83tWamp1LjwfPDSrdZG0lMiVOrCz2OrEaTovAW6iWpFR23hlL4Kb3Xj2cx80mSiv3TGqhaPS6ro7-J5tcMGjoroB7ymhwdfEoj8MDfNqej5RPMgqThiXIqHYsXclVMvqKq00_nLvswCOgB0NXI6FEBModOxVa3]--></g></svg>