<?xml version="1.0" encoding="us-ascii" standalone="no"?><svg xmlns="http://www.w3.org/2000/svg" xmlns:xlink="http://www.w3.org/1999/xlink" contentStyleType="text/css" height="622px" preserveAspectRatio="none" style="width:659px;height:622px;background:#FFFFFF;" version="1.1" viewBox="0 0 659 622" width="659px" zoomAndPan="magnify"><defs/><g><text fill="#000000" font-family="sans-serif" font-size="14" font-weight="bold" lengthAdjust="spacing" textLength="127" x="259" y="25.1074">Use Case Diagram</text><!--cluster Registered Users--><g id="cluster_Registered Users"><path d="M8.5,140.6211 L132.5,140.6211 A3.75,3.75 0 0 1 135,143.1211 L142,165.2422 L168.5,165.2422 A2.5,2.5 0 0 1 171,167.7422 L171,613.1211 A2.5,2.5 0 0 1 168.5,615.6211 L8.5,615.6211 A2.5,2.5 0 0 1 6,613.1211 L6,143.1211 A2.5,2.5 0 0 1 8.5,140.6211 " fill="none" style="stroke:#000000;stroke-width:1.5;"/><line style="stroke:#000000;stroke-width:1.5;" x1="6" x2="142" y1="165.2422" y2="165.2422"/><text fill="#000000" font-family="sans-serif" font-size="14" font-weight="bold" lengthAdjust="spacing" textLength="123" x="10" y="157.7285">Registered Users</text></g><!--cluster Application--><g id="cluster_Application"><path d="M201.5,65.6211 L280.5,65.6211 A3.75,3.75 0 0 1 283,68.1211 L290,90.2422 L649.5,90.2422 A2.5,2.5 0 0 1 652,92.7422 L652,613.1211 A2.5,2.5 0 0 1 649.5,615.6211 L201.5,615.6211 A2.5,2.5 0 0 1 199,613.1211 L199,68.1211 A2.5,2.5 0 0 1 201.5,65.6211 " fill="none" style="stroke:#000000;stroke-width:1.5;"/><line style="stroke:#000000;stroke-width:1.5;" x1="199" x2="290" y1="90.2422" y2="90.2422"/><text fill="#000000" font-family="sans-serif" font-size="14" font-weight="bold" lengthAdjust="spacing" textLength="78" x="203" y="82.7285">Application</text></g><!--entity Cl--><g id="elem_Cl"><ellipse cx="88.5" cy="186.6211" fill="#F1F1F1" rx="8" ry="8" style="stroke:#181818;stroke-width:0.5;"/><path d="M88.5,194.6211 L88.5,221.6211 M75.5,202.6211 L101.5,202.6211 M88.5,221.6211 L75.5,236.6211 M88.5,221.6211 L101.5,236.6211 " fill="none" style="stroke:#181818;stroke-width:0.5;"/><text fill="#000000" font-family="sans-serif" font-size="14" lengthAdjust="spacing" textLength="36" x="70.5" y="253.2285">Client</text></g><!--entity Ag--><g id="elem_Ag"><ellipse cx="88.5" cy="300.6211" fill="#F1F1F1" rx="8" ry="8" style="stroke:#181818;stroke-width:0.5;"/><path d="M88.5,308.6211 L88.5,335.6211 M75.5,316.6211 L101.5,316.6211 M88.5,335.6211 L75.5,350.6211 M88.5,335.6211 L101.5,350.6211 " fill="none" style="stroke:#181818;stroke-width:0.5;"/><text fill="#000000" font-family="sans-serif" font-size="14" lengthAdjust="spacing" textLength="37" x="70" y="367.2285">Agent</text></g><!--entity Admin--><g id="elem_Admin"><ellipse cx="88.5" cy="414.6211" fill="#F1F1F1" rx="8" ry="8" style="stroke:#181818;stroke-width:0.5;"/><path d="M88.5,422.6211 L88.5,449.6211 M75.5,430.6211 L101.5,430.6211 M88.5,449.6211 L75.5,464.6211 M88.5,449.6211 L101.5,464.6211 " fill="none" style="stroke:#181818;stroke-width:0.5;"/><text fill="#000000" font-family="sans-serif" font-size="14" lengthAdjust="spacing" textLength="133" x="22" y="481.2285">System Administrator</text></g><!--entity O--><g id="elem_O"><ellipse cx="88.5" cy="528.6211" fill="#F1F1F1" rx="8" ry="8" style="stroke:#181818;stroke-width:0.5;"/><path d="M88.5,536.6211 L88.5,563.6211 M75.5,544.6211 L101.5,544.6211 M88.5,563.6211 L75.5,578.6211 M88.5,563.6211 L101.5,578.6211 " fill="none" style="stroke:#181818;stroke-width:0.5;"/><text fill="#000000" font-family="sans-serif" font-size="14" lengthAdjust="spacing" textLength="41" x="68" y="595.2285">Owner</text></g><g id="elem_Use1"><ellipse cx="425.2583" cy="127.7728" fill="#F1F1F1" rx="113.7583" ry="25.1517" style="stroke:#181818;stroke-width:0.5;"/><text fill="#000000" font-family="sans-serif" font-size="14" lengthAdjust="spacing" textLength="189" x="330.7583" y="131.5696">UC1 - display listed properties</text></g><g id="elem_Use7"><ellipse cx="425.6174" cy="204.4446" fill="#F1F1F1" rx="72.1174" ry="16.8235" style="stroke:#181818;stroke-width:0.5;"/><text fill="#000000" font-family="sans-serif" font-size="14" lengthAdjust="spacing" textLength="86" x="379.6174" y="209.2483">UC7 - sign up</text></g><g id="elem_Use2"><ellipse cx="425.4926" cy="284.6196" fill="#F1F1F1" rx="127.9926" ry="27.9985" style="stroke:#181818;stroke-width:0.5;"/><text fill="#000000" font-family="sans-serif" font-size="14" lengthAdjust="spacing" textLength="220" x="315.4926" y="288.4165">UC2 - publish sale announcements</text></g><g id="elem_Use3"><ellipse cx="425.5317" cy="373.7274" fill="#F1F1F1" rx="116.0317" ry="25.6063" style="stroke:#181818;stroke-width:0.5;"/><text fill="#000000" font-family="sans-serif" font-size="14" lengthAdjust="spacing" textLength="194" x="328.5317" y="377.5243">UC3 - register a new employee</text></g><g id="elem_Use5"><ellipse cx="425.2622" cy="454.6735" fill="#F1F1F1" rx="90.7622" ry="20.5524" style="stroke:#181818;stroke-width:0.5;"/><text fill="#000000" font-family="sans-serif" font-size="14" lengthAdjust="spacing" textLength="136" x="354.2622" y="459.4773">UC5 - register a store</text></g><g id="elem_Use4"><ellipse cx="425.5545" cy="554.632" fill="#F1F1F1" rx="210.5545" ry="44.5109" style="stroke:#181818;stroke-width:0.5;"/><text fill="#000000" font-family="sans-serif" font-size="14" lengthAdjust="spacing" textLength="355" x="246.0545" y="549.1183">UC4 - submit a request for listing a property sale or rent,</text><text fill="#000000" font-family="sans-serif" font-size="14" lengthAdjust="spacing" textLength="198" x="328.5545" y="567.7394">choosing the responsible agent</text></g><!--entity Unreg--><g id="elem_Unreg"><ellipse cx="88.5" cy="53.6211" fill="#F1F1F1" rx="8" ry="8" style="stroke:#181818;stroke-width:0.5;"/><path d="M88.5,61.6211 L88.5,88.6211 M75.5,69.6211 L101.5,69.6211 M88.5,88.6211 L75.5,103.6211 M88.5,88.6211 L101.5,103.6211 " fill="none" style="stroke:#181818;stroke-width:0.5;"/><text fill="#000000" font-family="sans-serif" font-size="14" lengthAdjust="spacing" textLength="114" x="31.5" y="120.2285">Unregistered User</text></g><!--link Unreg to Use1--><g id="link_Unreg_Use1"><path d="M145.57,91.8211 C193.48,97.9711 263.66,106.9711 321.63,114.4211 " fill="none" id="Unreg-to-Use1" style="stroke:#181818;stroke-width:1.0;"/><polygon fill="#181818" points="326.85,115.0911,318.4247,109.9907,321.8897,114.4621,317.4183,117.9272,326.85,115.0911" style="stroke:#181818;stroke-width:1.0;"/></g><!--link Unreg to Use7--><g id="link_Unreg_Use7"><path d="M135.14,124.2611 C160.45,146.0611 187.51,169.0511 191,170.6211 C240.45,192.9311 301.22,201.2511 348.37,204.0911 " fill="none" id="Unreg-to-Use7" style="stroke:#181818;stroke-width:1.0;"/><polygon fill="#181818" points="353.47,204.3811,344.7001,199.8991,348.4774,204.1101,344.2664,207.8874,353.47,204.3811" style="stroke:#181818;stroke-width:1.0;"/></g><!--link Ag to Use2--><g id="link_Ag_Use2"><path d="M107.04,329.1611 C144.84,323.8611 236.64,310.9811 311.86,300.4211 " fill="none" id="Ag-to-Use2" style="stroke:#181818;stroke-width:1.0;"/><polygon fill="#181818" points="317.24,299.6711,307.7768,296.942,312.2872,300.3562,308.873,304.8666,317.24,299.6711" style="stroke:#181818;stroke-width:1.0;"/></g><!--link Admin to Use3--><g id="link_Admin_Use3"><path d="M155.05,425.8911 C166.96,422.5911 179.31,419.3611 191,416.6211 C235.16,406.2711 284.49,396.8811 326.39,389.5211 " fill="none" id="Admin-to-Use3" style="stroke:#181818;stroke-width:1.0;"/><polygon fill="#181818" points="331.47,388.6411,321.9177,386.2423,326.5439,389.4978,323.2885,394.124,331.47,388.6411" style="stroke:#181818;stroke-width:1.0;"/></g><!--link Admin to Use5--><g id="link_Admin_Use5"><path d="M155.29,447.3911 C205.13,448.7311 274.33,450.5911 330.08,452.0811 " fill="none" id="Admin-to-Use5" style="stroke:#181818;stroke-width:1.0;"/><polygon fill="#181818" points="335.09,452.2211,326.2079,447.9657,330.092,452.0783,325.9794,455.9624,335.09,452.2211" style="stroke:#181818;stroke-width:1.0;"/></g><!--link O to Use4--><g id="link_O_Use4"><path d="M109.45,559.3211 C131.24,559.0011 168.63,558.4411 210.2,557.8211 " fill="none" id="O-to-Use4" style="stroke:#181818;stroke-width:1.0;"/><polygon fill="#181818" points="215.29,557.7411,206.2338,553.8701,210.2905,557.8125,206.3481,561.8692,215.29,557.7411" style="stroke:#181818;stroke-width:1.0;"/></g><!--SRC=[LL6xRiCm3Dpr5OId1cY6l92jWE7k0LfawwBOZ2n4bbHHHc04_VTIhkrKYo6UxyZZCUfe4Cw4K4d-l6kfWko4mMk4w21erKPeTC0wQcU5a7Lq0Ogp3QWqHGpO97KeG1ACg132o_ec5KBnaPEeU4mDAgFHngIfp0ILQa9A1G3peC-1zHsKJQSjjmgIqN7MYCoiqzrE5axYvpc_zDxeMYRd3z4Jrcd5ubnjOCqxaJTo09CCDk23ynYYHXhRlB3TpUg_viWQqif2xnV6CMDicU7x2pTiWIIdAgrrlQsnuyMURRUPQCUYEKgGOF4Es7dZ1iH5iSiKXrn17C2JUiYe- -IvltIQSsNDTuyKuSg1fQMrLOnEUmz_ZlbNOBEly6MXRfsZH8ejCahUMTANj5Owr39nlqg9ZvU7zVejtNcJbqTHBk-j6EysbxkyF8ZJ_DoBNm00]--></g></svg>