<?xml version="1.0" encoding="us-ascii" standalone="no"?><svg xmlns="http://www.w3.org/2000/svg" xmlns:xlink="http://www.w3.org/1999/xlink" contentStyleType="text/css" height="890.4px" preserveAspectRatio="none" style="width:636px;height:890px;background:#FFFFFF;" version="1.1" viewBox="0 0 636 890" width="636.8px" zoomAndPan="magnify"><defs/><g><text fill="#000000" font-family="sans-serif" font-size="11.2" font-weight="bold" lengthAdjust="spacing" textLength="218.4" x="203.8" y="20.0859">US005 Register a Store - Class Diagram</text><!--class Store--><g id="elem_Store"><rect codeLine="6" fill="#F1F1F1" height="187.3688" id="Store" rx="2" ry="2" style="stroke:#181818;stroke-width:0.4000000000000001;" width="150.4" x="12.8" y="698.0969"/><ellipse cx="71" cy="710.8969" fill="#ADD1B2" rx="8.8" ry="8.8" style="stroke:#181818;stroke-width:0.8000000000000002;"/><path d="M73.2125,707.5969 Q73.3375,707.4219 73.4875,707.3344 Q73.6375,707.2469 73.8125,707.2469 Q74.1125,707.2469 74.3,707.4594 Q74.4875,707.6594 74.4875,708.1469 L74.4875,709.3094 Q74.4875,709.7969 74.3,710.0094 Q74.1125,710.2219 73.8125,710.2219 Q73.5375,710.2219 73.375,710.0594 Q73.2125,709.9094 73.125,709.4969 Q73.0875,709.2094 72.9375,709.0594 Q72.675,708.7594 72.1875,708.5844 Q71.7,708.4094 71.2,708.4094 Q70.5875,708.4094 70.075,708.6719 Q69.575,708.9344 69.175,709.5344 Q68.7875,710.1344 68.7875,710.9594 L68.7875,711.8344 Q68.7875,712.8219 69.5,713.4844 Q70.2125,714.1344 71.4875,714.1344 Q72.2375,714.1344 72.7625,713.9344 Q73.075,713.8094 73.4125,713.4594 Q73.625,713.2469 73.7375,713.1844 Q73.8625,713.1219 74.025,713.1219 Q74.2875,713.1219 74.4875,713.3344 Q74.7,713.5344 74.7,713.8094 Q74.7,714.0844 74.425,714.4094 Q74.025,714.8719 73.3875,715.1344 Q72.525,715.4969 71.4875,715.4969 Q70.275,715.4969 69.3125,714.9969 Q68.525,714.5969 67.975,713.7469 Q67.425,712.8844 67.425,711.8594 L67.425,710.9344 Q67.425,709.8719 67.9125,708.9594 Q68.4125,708.0344 69.2875,707.5469 Q70.1625,707.0469 71.15,707.0469 Q71.7375,707.0469 72.25,707.1844 Q72.775,707.3094 73.2125,707.5969 Z " fill="#000000"/><text fill="#000000" font-family="sans-serif" font-size="11.2" lengthAdjust="spacing" textLength="27.2" x="87.4" y="715.5344">Store</text><line style="stroke:#181818;stroke-width:0.4000000000000001;" x1="13.6" x2="162.4" y1="723.6969" y2="723.6969"/><text fill="#000000" font-family="sans-serif" font-size="11.2" lengthAdjust="spacing" textLength="91.2" x="17.6" y="738.9828">-String storeName</text><text fill="#000000" font-family="sans-serif" font-size="11.2" lengthAdjust="spacing" textLength="77.6" x="17.6" y="753.8797">-String address</text><text fill="#000000" font-family="sans-serif" font-size="11.2" lengthAdjust="spacing" textLength="90.4" x="17.6" y="768.7766">-int phoneNumber</text><text fill="#000000" font-family="sans-serif" font-size="11.2" lengthAdjust="spacing" textLength="28" x="17.6" y="783.6734">-int id</text><text fill="#000000" font-family="sans-serif" font-size="11.2" lengthAdjust="spacing" textLength="136" x="17.6" y="798.5703">-int taxIdentificationNumber</text><text fill="#000000" font-family="sans-serif" font-size="11.2" lengthAdjust="spacing" textLength="109.6" x="17.6" y="813.4672">-int businessLicensee</text><text fill="#000000" font-family="sans-serif" font-size="11.2" lengthAdjust="spacing" textLength="140.8" x="17.6" y="828.3641">-int bankAccountInformation</text><text fill="#000000" font-family="sans-serif" font-size="11.2" lengthAdjust="spacing" textLength="80.8" x="17.6" y="843.2609">-String products</text><text fill="#000000" font-family="sans-serif" font-size="11.2" lengthAdjust="spacing" textLength="74.4" x="17.6" y="858.1578">-String website</text><text fill="#000000" font-family="sans-serif" font-size="11.2" lengthAdjust="spacing" textLength="63.2" x="17.6" y="873.0547">-String email</text><line style="stroke:#181818;stroke-width:0.4000000000000001;" x1="13.6" x2="162.4" y1="879.0656" y2="879.0656"/></g><!--class SystemAdministrator--><g id="elem_SystemAdministrator"><rect codeLine="20" fill="#F1F1F1" height="187.3688" id="SystemAdministrator" rx="2" ry="2" style="stroke:#181818;stroke-width:0.4000000000000001;" width="150.4" x="5.6" y="37.2969"/><ellipse cx="27.32" cy="50.0969" fill="#ADD1B2" rx="8.8" ry="8.8" style="stroke:#181818;stroke-width:0.8000000000000002;"/><path d="M29.5325,46.7969 Q29.6575,46.6219 29.8075,46.5344 Q29.9575,46.4469 30.1325,46.4469 Q30.4325,46.4469 30.62,46.6594 Q30.8075,46.8594 30.8075,47.3469 L30.8075,48.5094 Q30.8075,48.9969 30.62,49.2094 Q30.4325,49.4219 30.1325,49.4219 Q29.8575,49.4219 29.695,49.2594 Q29.5325,49.1094 29.445,48.6969 Q29.4075,48.4094 29.2575,48.2594 Q28.995,47.9594 28.5075,47.7844 Q28.02,47.6094 27.52,47.6094 Q26.9075,47.6094 26.395,47.8719 Q25.895,48.1344 25.495,48.7344 Q25.1075,49.3344 25.1075,50.1594 L25.1075,51.0344 Q25.1075,52.0219 25.82,52.6844 Q26.5325,53.3344 27.8075,53.3344 Q28.5575,53.3344 29.0825,53.1344 Q29.395,53.0094 29.7325,52.6594 Q29.945,52.4469 30.0575,52.3844 Q30.1825,52.3219 30.345,52.3219 Q30.6075,52.3219 30.8075,52.5344 Q31.02,52.7344 31.02,53.0094 Q31.02,53.2844 30.745,53.6094 Q30.345,54.0719 29.7075,54.3344 Q28.845,54.6969 27.8075,54.6969 Q26.595,54.6969 25.6325,54.1969 Q24.845,53.7969 24.295,52.9469 Q23.745,52.0844 23.745,51.0594 L23.745,50.1344 Q23.745,49.0719 24.2325,48.1594 Q24.7325,47.2344 25.6075,46.7469 Q26.4825,46.2469 27.47,46.2469 Q28.0575,46.2469 28.57,46.3844 Q29.095,46.5094 29.5325,46.7969 Z " fill="#000000"/><text fill="#000000" font-family="sans-serif" font-size="11.2" lengthAdjust="spacing" textLength="103.2" x="40.68" y="54.7344">SystemAdministrator</text><line style="stroke:#181818;stroke-width:0.4000000000000001;" x1="6.4" x2="155.2" y1="62.8969" y2="62.8969"/><text fill="#000000" font-family="sans-serif" font-size="11.2" lengthAdjust="spacing" textLength="91.2" x="10.4" y="78.1828">-String storeName</text><text fill="#000000" font-family="sans-serif" font-size="11.2" lengthAdjust="spacing" textLength="77.6" x="10.4" y="93.0797">-String address</text><text fill="#000000" font-family="sans-serif" font-size="11.2" lengthAdjust="spacing" textLength="90.4" x="10.4" y="107.9766">-int phoneNumber</text><text fill="#000000" font-family="sans-serif" font-size="11.2" lengthAdjust="spacing" textLength="28" x="10.4" y="122.8734">-int id</text><text fill="#000000" font-family="sans-serif" font-size="11.2" lengthAdjust="spacing" textLength="136" x="10.4" y="137.7703">-int taxIdentificationNumber</text><text fill="#000000" font-family="sans-serif" font-size="11.2" lengthAdjust="spacing" textLength="109.6" x="10.4" y="152.6672">-int businessLicensee</text><text fill="#000000" font-family="sans-serif" font-size="11.2" lengthAdjust="spacing" textLength="140.8" x="10.4" y="167.5641">-int bankAccountInformation</text><text fill="#000000" font-family="sans-serif" font-size="11.2" lengthAdjust="spacing" textLength="80.8" x="10.4" y="182.4609">-String products</text><text fill="#000000" font-family="sans-serif" font-size="11.2" lengthAdjust="spacing" textLength="74.4" x="10.4" y="197.3578">-String website</text><text fill="#000000" font-family="sans-serif" font-size="11.2" lengthAdjust="spacing" textLength="63.2" x="10.4" y="212.2547">-String email</text><line style="stroke:#181818;stroke-width:0.4000000000000001;" x1="6.4" x2="155.2" y1="218.2656" y2="218.2656"/></g><!--class StoreRepository--><g id="elem_StoreRepository"><rect codeLine="34" fill="#F1F1F1" height="38.4" id="StoreRepository" rx="2" ry="2" style="stroke:#181818;stroke-width:0.4000000000000001;" width="107.2" x="284" y="596.4969"/><ellipse cx="296" cy="609.2969" fill="#ADD1B2" rx="8.8" ry="8.8" style="stroke:#181818;stroke-width:0.8000000000000002;"/><path d="M298.2125,605.9969 Q298.3375,605.8219 298.4875,605.7344 Q298.6375,605.6469 298.8125,605.6469 Q299.1125,605.6469 299.3,605.8594 Q299.4875,606.0594 299.4875,606.5469 L299.4875,607.7094 Q299.4875,608.1969 299.3,608.4094 Q299.1125,608.6219 298.8125,608.6219 Q298.5375,608.6219 298.375,608.4594 Q298.2125,608.3094 298.125,607.8969 Q298.0875,607.6094 297.9375,607.4594 Q297.675,607.1594 297.1875,606.9844 Q296.7,606.8094 296.2,606.8094 Q295.5875,606.8094 295.075,607.0719 Q294.575,607.3344 294.175,607.9344 Q293.7875,608.5344 293.7875,609.3594 L293.7875,610.2344 Q293.7875,611.2219 294.5,611.8844 Q295.2125,612.5344 296.4875,612.5344 Q297.2375,612.5344 297.7625,612.3344 Q298.075,612.2094 298.4125,611.8594 Q298.625,611.6469 298.7375,611.5844 Q298.8625,611.5219 299.025,611.5219 Q299.2875,611.5219 299.4875,611.7344 Q299.7,611.9344 299.7,612.2094 Q299.7,612.4844 299.425,612.8094 Q299.025,613.2719 298.3875,613.5344 Q297.525,613.8969 296.4875,613.8969 Q295.275,613.8969 294.3125,613.3969 Q293.525,612.9969 292.975,612.1469 Q292.425,611.2844 292.425,610.2594 L292.425,609.3344 Q292.425,608.2719 292.9125,607.3594 Q293.4125,606.4344 294.2875,605.9469 Q295.1625,605.4469 296.15,605.4469 Q296.7375,605.4469 297.25,605.5844 Q297.775,605.7094 298.2125,605.9969 Z " fill="#000000"/><text fill="#000000" font-family="sans-serif" font-size="11.2" lengthAdjust="spacing" textLength="81.6" x="307.2" y="613.9344">StoreRepository</text><line style="stroke:#181818;stroke-width:0.4000000000000001;" x1="284.8" x2="390.4" y1="622.0969" y2="622.0969"/><line style="stroke:#181818;stroke-width:0.4000000000000001;" x1="284.8" x2="390.4" y1="628.4969" y2="628.4969"/></g><!--class AdminUI--><g id="elem_AdminUI"><rect codeLine="38" fill="#F1F1F1" height="53.2969" id="AdminUI" rx="2" ry="2" style="stroke:#181818;stroke-width:0.4000000000000001;" width="66.4" x="162.8" y="273.2969"/><ellipse cx="174.8" cy="286.0969" fill="#ADD1B2" rx="8.8" ry="8.8" style="stroke:#181818;stroke-width:0.8000000000000002;"/><path d="M177.0125,282.7969 Q177.1375,282.6219 177.2875,282.5344 Q177.4375,282.4469 177.6125,282.4469 Q177.9125,282.4469 178.1,282.6594 Q178.2875,282.8594 178.2875,283.3469 L178.2875,284.5094 Q178.2875,284.9969 178.1,285.2094 Q177.9125,285.4219 177.6125,285.4219 Q177.3375,285.4219 177.175,285.2594 Q177.0125,285.1094 176.925,284.6969 Q176.8875,284.4094 176.7375,284.2594 Q176.475,283.9594 175.9875,283.7844 Q175.5,283.6094 175,283.6094 Q174.3875,283.6094 173.875,283.8719 Q173.375,284.1344 172.975,284.7344 Q172.5875,285.3344 172.5875,286.1594 L172.5875,287.0344 Q172.5875,288.0219 173.3,288.6844 Q174.0125,289.3344 175.2875,289.3344 Q176.0375,289.3344 176.5625,289.1344 Q176.875,289.0094 177.2125,288.6594 Q177.425,288.4469 177.5375,288.3844 Q177.6625,288.3219 177.825,288.3219 Q178.0875,288.3219 178.2875,288.5344 Q178.5,288.7344 178.5,289.0094 Q178.5,289.2844 178.225,289.6094 Q177.825,290.0719 177.1875,290.3344 Q176.325,290.6969 175.2875,290.6969 Q174.075,290.6969 173.1125,290.1969 Q172.325,289.7969 171.775,288.9469 Q171.225,288.0844 171.225,287.0594 L171.225,286.1344 Q171.225,285.0719 171.7125,284.1594 Q172.2125,283.2344 173.0875,282.7469 Q173.9625,282.2469 174.95,282.2469 Q175.5375,282.2469 176.05,282.3844 Q176.575,282.5094 177.0125,282.7969 Z " fill="#000000"/><text fill="#000000" font-family="sans-serif" font-size="11.2" lengthAdjust="spacing" textLength="40.8" x="186" y="290.7344">AdminUI</text><line style="stroke:#181818;stroke-width:0.4000000000000001;" x1="163.6" x2="228.4" y1="298.8969" y2="298.8969"/><line style="stroke:#181818;stroke-width:0.4000000000000001;" x1="163.6" x2="228.4" y1="305.2969" y2="305.2969"/><text fill="#000000" font-family="sans-serif" font-size="11.2" lengthAdjust="spacing" textLength="31.2" x="167.6" y="320.5828">+run()</text></g><!--class CreateStoreUI--><g id="elem_CreateStoreUI"><rect codeLine="43" fill="#F1F1F1" height="112.8844" id="CreateStoreUI" rx="2" ry="2" style="stroke:#181818;stroke-width:0.4000000000000001;" width="234.4" x="134.8" y="398.0969"/><ellipse cx="213" cy="410.8969" fill="#ADD1B2" rx="8.8" ry="8.8" style="stroke:#181818;stroke-width:0.8000000000000002;"/><path d="M215.2125,407.5969 Q215.3375,407.4219 215.4875,407.3344 Q215.6375,407.2469 215.8125,407.2469 Q216.1125,407.2469 216.3,407.4594 Q216.4875,407.6594 216.4875,408.1469 L216.4875,409.3094 Q216.4875,409.7969 216.3,410.0094 Q216.1125,410.2219 215.8125,410.2219 Q215.5375,410.2219 215.375,410.0594 Q215.2125,409.9094 215.125,409.4969 Q215.0875,409.2094 214.9375,409.0594 Q214.675,408.7594 214.1875,408.5844 Q213.7,408.4094 213.2,408.4094 Q212.5875,408.4094 212.075,408.6719 Q211.575,408.9344 211.175,409.5344 Q210.7875,410.1344 210.7875,410.9594 L210.7875,411.8344 Q210.7875,412.8219 211.5,413.4844 Q212.2125,414.1344 213.4875,414.1344 Q214.2375,414.1344 214.7625,413.9344 Q215.075,413.8094 215.4125,413.4594 Q215.625,413.2469 215.7375,413.1844 Q215.8625,413.1219 216.025,413.1219 Q216.2875,413.1219 216.4875,413.3344 Q216.7,413.5344 216.7,413.8094 Q216.7,414.0844 216.425,414.4094 Q216.025,414.8719 215.3875,415.1344 Q214.525,415.4969 213.4875,415.4969 Q212.275,415.4969 211.3125,414.9969 Q210.525,414.5969 209.975,413.7469 Q209.425,412.8844 209.425,411.8594 L209.425,410.9344 Q209.425,409.8719 209.9125,408.9594 Q210.4125,408.0344 211.2875,407.5469 Q212.1625,407.0469 213.15,407.0469 Q213.7375,407.0469 214.25,407.1844 Q214.775,407.3094 215.2125,407.5969 Z " fill="#000000"/><text fill="#000000" font-family="sans-serif" font-size="11.2" lengthAdjust="spacing" textLength="71.2" x="229.4" y="415.5344">CreateStoreUI</text><line style="stroke:#181818;stroke-width:0.4000000000000001;" x1="135.6" x2="368.4" y1="423.6969" y2="423.6969"/><line style="stroke:#181818;stroke-width:0.4000000000000001;" x1="135.6" x2="368.4" y1="430.0969" y2="430.0969"/><text fill="#000000" font-family="sans-serif" font-size="11.2" lengthAdjust="spacing" textLength="108" x="139.6" y="445.3828">+registerNewEStore()</text><text fill="#000000" font-family="sans-serif" font-size="11.2" lengthAdjust="spacing" textLength="166.4" x="139.6" y="460.2797">+verifyData(storeName, address,</text><text fill="#000000" font-family="sans-serif" font-size="11.2" lengthAdjust="spacing" textLength="212.8" x="142.8" y="475.1766">phoneNumber, id, taxIdentificationNumber,</text><text fill="#000000" font-family="sans-serif" font-size="11.2" lengthAdjust="spacing" textLength="221.6" x="142.8" y="490.0734">businessLicensee, bankAccountInformation,</text><text fill="#000000" font-family="sans-serif" font-size="11.2" lengthAdjust="spacing" textLength="124.8" x="142.8" y="504.9703">products, website, email)</text></g><!--class CreateStoreController--><g id="elem_CreateStoreController"><rect codeLine="49" fill="#F1F1F1" height="157.575" id="CreateStoreController" rx="2" ry="2" style="stroke:#181818;stroke-width:0.4000000000000001;" width="234.4" x="397.2" y="375.6969"/><ellipse cx="455.4" cy="388.4969" fill="#ADD1B2" rx="8.8" ry="8.8" style="stroke:#181818;stroke-width:0.8000000000000002;"/><path d="M457.6125,385.1969 Q457.7375,385.0219 457.8875,384.9344 Q458.0375,384.8469 458.2125,384.8469 Q458.5125,384.8469 458.7,385.0594 Q458.8875,385.2594 458.8875,385.7469 L458.8875,386.9094 Q458.8875,387.3969 458.7,387.6094 Q458.5125,387.8219 458.2125,387.8219 Q457.9375,387.8219 457.775,387.6594 Q457.6125,387.5094 457.525,387.0969 Q457.4875,386.8094 457.3375,386.6594 Q457.075,386.3594 456.5875,386.1844 Q456.1,386.0094 455.6,386.0094 Q454.9875,386.0094 454.475,386.2719 Q453.975,386.5344 453.575,387.1344 Q453.1875,387.7344 453.1875,388.5594 L453.1875,389.4344 Q453.1875,390.4219 453.9,391.0844 Q454.6125,391.7344 455.8875,391.7344 Q456.6375,391.7344 457.1625,391.5344 Q457.475,391.4094 457.8125,391.0594 Q458.025,390.8469 458.1375,390.7844 Q458.2625,390.7219 458.425,390.7219 Q458.6875,390.7219 458.8875,390.9344 Q459.1,391.1344 459.1,391.4094 Q459.1,391.6844 458.825,392.0094 Q458.425,392.4719 457.7875,392.7344 Q456.925,393.0969 455.8875,393.0969 Q454.675,393.0969 453.7125,392.5969 Q452.925,392.1969 452.375,391.3469 Q451.825,390.4844 451.825,389.4594 L451.825,388.5344 Q451.825,387.4719 452.3125,386.5594 Q452.8125,385.6344 453.6875,385.1469 Q454.5625,384.6469 455.55,384.6469 Q456.1375,384.6469 456.65,384.7844 Q457.175,384.9094 457.6125,385.1969 Z " fill="#000000"/><text fill="#000000" font-family="sans-serif" font-size="11.2" lengthAdjust="spacing" textLength="111.2" x="471.8" y="393.1344">CreateStoreController</text><line style="stroke:#181818;stroke-width:0.4000000000000001;" x1="398" x2="630.8" y1="401.2969" y2="401.2969"/><line style="stroke:#181818;stroke-width:0.4000000000000001;" x1="398" x2="630.8" y1="407.6969" y2="407.6969"/><text fill="#000000" font-family="sans-serif" font-size="11.2" lengthAdjust="spacing" textLength="196" x="402" y="422.9828">+verifyIfNewStore(storeName, address,</text><text fill="#000000" font-family="sans-serif" font-size="11.2" lengthAdjust="spacing" textLength="212.8" x="405.2" y="437.8797">phoneNumber, id, taxIdentificationNumber,</text><text fill="#000000" font-family="sans-serif" font-size="11.2" lengthAdjust="spacing" textLength="221.6" x="405.2" y="452.7766">businessLicensee, bankAccountInformation,</text><text fill="#000000" font-family="sans-serif" font-size="11.2" lengthAdjust="spacing" textLength="124.8" x="405.2" y="467.6734">products, website, email)</text><text fill="#000000" font-family="sans-serif" font-size="11.2" lengthAdjust="spacing" textLength="174.4" x="402" y="482.5703">+createStore(storeName, address,</text><text fill="#000000" font-family="sans-serif" font-size="11.2" lengthAdjust="spacing" textLength="212.8" x="405.2" y="497.4672">phoneNumber, id, taxIdentificationNumber,</text><text fill="#000000" font-family="sans-serif" font-size="11.2" lengthAdjust="spacing" textLength="221.6" x="405.2" y="512.3641">businessLicensee, bankAccountInformation,</text><text fill="#000000" font-family="sans-serif" font-size="11.2" lengthAdjust="spacing" textLength="124.8" x="405.2" y="527.2609">products, website, email)</text></g><!--link SystemAdministrator to AdminUI--><g id="link_SystemAdministrator_AdminUI"><path codeLine="55" d="M144.632,224.5609 C155.832,240.8569 166.712,256.6889 175.552,269.5529 " fill="none" id="SystemAdministrator-to-AdminUI" style="stroke:#181818;stroke-width:0.8000000000000002;"/><polygon fill="#181818" points="177.992,273.0969,176.5499,265.3509,175.7259,269.8007,171.2761,268.9767,177.992,273.0969" style="stroke:#181818;stroke-width:0.8000000000000002;"/></g><!--link AdminUI to CreateStoreUI--><g id="link_AdminUI_CreateStoreUI"><path codeLine="56" d="M205.624,327.1609 C212.368,345.5529 221.648,370.8809 230.144,394.0489 " fill="none" id="AdminUI-to-CreateStoreUI" style="stroke:#181818;stroke-width:0.8000000000000002;"/><polygon fill="#181818" points="231.608,398.0489,232.1261,390.1868,230.2273,394.2947,226.1194,392.396,231.608,398.0489" style="stroke:#181818;stroke-width:0.8000000000000002;"/></g><!--link CreateStoreUI to CreateStoreController--><g id="link_CreateStoreUI_CreateStoreController"><path codeLine="57" d="M369.36,454.4969 C377.24,454.4969 385.12,454.4969 393,454.4969 " fill="none" id="CreateStoreUI-to-CreateStoreController" style="stroke:#181818;stroke-width:0.8000000000000002;stroke-dasharray:7.0,7.0;"/><polygon fill="#181818" points="397.12,454.4969,389.92,451.2969,393.12,454.4969,389.92,457.6969,397.12,454.4969" style="stroke:#181818;stroke-width:0.8000000000000002;"/></g><!--link SystemAdministrator to Store--><g id="link_SystemAdministrator_Store"><path codeLine="58" d="M68.752,224.6329 C66.48,248.8889 64.8,275.0329 64.8,299.2969 C64.8,299.2969 64.8,299.2969 64.8,616.4969 C64.8,641.7209 67.216,668.8169 70.488,693.9609 " fill="none" id="SystemAdministrator-to-Store" style="stroke:#181818;stroke-width:0.8000000000000002;"/><polygon fill="#181818" points="71.016,697.9769,73.2421,690.4188,70.4903,694.0116,66.8976,691.2598,71.016,697.9769" style="stroke:#181818;stroke-width:0.8000000000000002;"/><text fill="#000000" font-family="sans-serif" font-size="10.4" lengthAdjust="spacing" textLength="40" x="65.6" y="458.9195">registers</text><text fill="#000000" font-family="sans-serif" font-size="10.4" lengthAdjust="spacing" textLength="5.6" x="62.2008" y="242.2982">1</text><text fill="#000000" font-family="sans-serif" font-size="10.4" lengthAdjust="spacing" textLength="4" x="65.7998" y="689.162">*</text></g><!--link CreateStoreController to StoreRepository--><g id="link_CreateStoreController_StoreRepository"><path codeLine="59" d="M427.816,533.4569 C403.264,555.6169 378.536,577.9449 361.192,593.6009 " fill="none" id="CreateStoreController-to-StoreRepository" style="stroke:#181818;stroke-width:0.8000000000000002;"/><polygon fill="#181818" points="358.04,596.4409,365.5272,593.987,361.0075,593.7587,361.2358,589.239,358.04,596.4409" style="stroke:#181818;stroke-width:0.8000000000000002;"/><text fill="#000000" font-family="sans-serif" font-size="10.4" lengthAdjust="spacing" textLength="74.4" x="400.8" y="569.3195">StoreRepository</text><text fill="#000000" font-family="sans-serif" font-size="10.4" lengthAdjust="spacing" textLength="5.6" x="356.9603" y="587.4165">1</text></g><!--link StoreRepository to Store--><g id="link_StoreRepository_Store"><path codeLine="60" d="M311.128,634.9929 C277.064,658.7929 216.392,701.1849 166.904,735.7689 " fill="none" id="StoreRepository-to-Store" style="stroke:#181818;stroke-width:0.8000000000000002;"/><polygon fill="#181818" points="163.36,738.2409,171.0967,736.7498,166.6418,735.9539,167.4376,731.499,163.36,738.2409" style="stroke:#181818;stroke-width:0.8000000000000002;"/><text fill="#000000" font-family="sans-serif" font-size="10.4" lengthAdjust="spacing" textLength="24.8" x="272" y="670.9195">Store</text></g><!--SRC=[tLJ1Rjim3BthAmIVkiKfqiCkEnG8qXqC53aqw6r0mCYqIyIc38bUbXNxzycA7IU1Uozsil18Fl8zKVPxuWOSrBe1iuSIDtAiK3iq0bnMgFmvmRz1RW_4fIwWyfSHKu7tIn57krOmCvOtz0VrGWb987lTB1RVz0kMv0MT1hqHwr3FzQghqqy4PM1HAjBqmNSr3oVNTVCTi8OQHmZotA7t0I0MtRnPndLRxz3r2ENzGU1tbYCB5MH0oF9Lsgxrn87dcGooHnnWuFtI6DkoP5nOLyVAiNlZRDuQyIDom9qdkHWGQw1ARRTRzVUiwnZKryky9Wu-E0Yg_aULdOmNR6p8jExuVXsDwbypVO9dhkMxBsDqvH048yD5JhysQppyYA5GCVk5ZehZ4mZSdNrB1x_IdtnfLXfyIZ-ogCkzzIVzm9h8svkI3cQa9nEcLQmiYxDLXMvGSneyAuAQavZFClxCZ6D_9a-dNiry_ZXiaXesgiEkzaTTRzFzu_J5J3P87f98c7nD-j_HTptieTTg-ePZmKDo-m92wGsYRZEwog5D_Fu3]--></g></svg>