<?xml version="1.0" encoding="us-ascii" standalone="no"?><svg xmlns="http://www.w3.org/2000/svg" xmlns:xlink="http://www.w3.org/1999/xlink" contentStyleType="text/css" height="869.5px" preserveAspectRatio="none" style="width:808px;height:869px;background:#FFFFFF;" version="1.1" viewBox="0 0 808 869" width="808.5px" zoomAndPan="magnify"><defs/><g><text fill="#000000" font-family="sans-serif" font-size="7" font-weight="bold" lengthAdjust="spacing" textLength="139.5" x="331.125" y="12.5537">US016 Sending an Email - Class Diagram</text><!--class CheckVisitsUI--><g id="elem_CheckVisitsUI"><rect codeLine="7" fill="#F1F1F1" height="42.6211" id="CheckVisitsUI" rx="1.25" ry="1.25" style="stroke:#181818;stroke-width:0.25;" width="154" x="161.25" y="74.5605"/><ellipse cx="214.875" cy="82.5605" fill="#ADD1B2" rx="5.5" ry="5.5" style="stroke:#181818;stroke-width:0.5;"/><path d="M216.2578,80.498 Q216.3359,80.3887 216.4297,80.334 Q216.5234,80.2793 216.6328,80.2793 Q216.8203,80.2793 216.9375,80.4121 Q217.0547,80.5371 217.0547,80.8418 L217.0547,81.5684 Q217.0547,81.873 216.9375,82.0059 Q216.8203,82.1387 216.6328,82.1387 Q216.4609,82.1387 216.3594,82.0371 Q216.2578,81.9434 216.2031,81.6855 Q216.1797,81.5059 216.0859,81.4121 Q215.9219,81.2246 215.6172,81.1152 Q215.3125,81.0059 215,81.0059 Q214.6172,81.0059 214.2969,81.1699 Q213.9844,81.334 213.7344,81.709 Q213.4922,82.084 213.4922,82.5996 L213.4922,83.1465 Q213.4922,83.7637 213.9375,84.1777 Q214.3828,84.584 215.1797,84.584 Q215.6484,84.584 215.9766,84.459 Q216.1719,84.3809 216.3828,84.1621 Q216.5156,84.0293 216.5859,83.9902 Q216.6641,83.9512 216.7656,83.9512 Q216.9297,83.9512 217.0547,84.084 Q217.1875,84.209 217.1875,84.3809 Q217.1875,84.5527 217.0156,84.7559 Q216.7656,85.0449 216.3672,85.209 Q215.8281,85.4355 215.1797,85.4355 Q214.4219,85.4355 213.8203,85.123 Q213.3281,84.873 212.9844,84.3418 Q212.6406,83.8027 212.6406,83.1621 L212.6406,82.584 Q212.6406,81.9199 212.9453,81.3496 Q213.2578,80.7715 213.8047,80.4668 Q214.3516,80.1543 214.9688,80.1543 Q215.3359,80.1543 215.6563,80.2402 Q215.9844,80.3184 216.2578,80.498 Z " fill="#000000"/><text fill="#000000" font-family="sans-serif" font-size="7" lengthAdjust="spacing" textLength="42.5" x="225.125" y="85.459">CheckVisitsUI</text><line style="stroke:#181818;stroke-width:0.25;" x1="161.75" x2="314.75" y1="90.5605" y2="90.5605"/><text fill="#000000" font-family="sans-serif" font-size="7" lengthAdjust="spacing" textLength="101.5" x="164.25" y="100.1143">-CheckVisitsController controller</text><line style="stroke:#181818;stroke-width:0.25;" x1="161.75" x2="314.75" y1="103.8711" y2="103.8711"/><text fill="#000000" font-family="sans-serif" font-size="7" lengthAdjust="spacing" textLength="148" x="164.25" y="113.4248">+respondToXMessage(message, messageList)</text></g><!--class CheckVisitsController--><g id="elem_CheckVisitsController"><rect codeLine="13" fill="#F1F1F1" height="33.3105" id="CheckVisitsController" rx="1.25" ry="1.25" style="stroke:#181818;stroke-width:0.25;" width="206.5" x="355" y="79.0605"/><ellipse cx="422.375" cy="87.0605" fill="#ADD1B2" rx="5.5" ry="5.5" style="stroke:#181818;stroke-width:0.5;"/><path d="M423.7578,84.998 Q423.8359,84.8887 423.9297,84.834 Q424.0234,84.7793 424.1328,84.7793 Q424.3203,84.7793 424.4375,84.9121 Q424.5547,85.0371 424.5547,85.3418 L424.5547,86.0684 Q424.5547,86.373 424.4375,86.5059 Q424.3203,86.6387 424.1328,86.6387 Q423.9609,86.6387 423.8594,86.5371 Q423.7578,86.4434 423.7031,86.1855 Q423.6797,86.0059 423.5859,85.9121 Q423.4219,85.7246 423.1172,85.6152 Q422.8125,85.5059 422.5,85.5059 Q422.1172,85.5059 421.7969,85.6699 Q421.4844,85.834 421.2344,86.209 Q420.9922,86.584 420.9922,87.0996 L420.9922,87.6465 Q420.9922,88.2637 421.4375,88.6777 Q421.8828,89.084 422.6797,89.084 Q423.1484,89.084 423.4766,88.959 Q423.6719,88.8809 423.8828,88.6621 Q424.0156,88.5293 424.0859,88.4902 Q424.1641,88.4512 424.2656,88.4512 Q424.4297,88.4512 424.5547,88.584 Q424.6875,88.709 424.6875,88.8809 Q424.6875,89.0527 424.5156,89.2559 Q424.2656,89.5449 423.8672,89.709 Q423.3281,89.9355 422.6797,89.9355 Q421.9219,89.9355 421.3203,89.623 Q420.8281,89.373 420.4844,88.8418 Q420.1406,88.3027 420.1406,87.6621 L420.1406,87.084 Q420.1406,86.4199 420.4453,85.8496 Q420.7578,85.2715 421.3047,84.9668 Q421.8516,84.6543 422.4688,84.6543 Q422.8359,84.6543 423.1563,84.7402 Q423.4844,84.8184 423.7578,84.998 Z " fill="#000000"/><text fill="#000000" font-family="sans-serif" font-size="7" lengthAdjust="spacing" textLength="67.5" x="432.625" y="89.959">CheckVisitsController</text><line style="stroke:#181818;stroke-width:0.25;" x1="355.5" x2="561" y1="95.0605" y2="95.0605"/><line style="stroke:#181818;stroke-width:0.25;" x1="355.5" x2="561" y1="99.0605" y2="99.0605"/><text fill="#000000" font-family="sans-serif" font-size="7" lengthAdjust="spacing" textLength="200.5" x="358" y="108.6143">+deleteFromRepositoryAndSendEmail(message, responseText)</text></g><!--class Repositories--><g id="elem_Repositories"><rect codeLine="18" fill="#F1F1F1" height="117.1055" id="Repositories" rx="1.25" ry="1.25" style="stroke:#181818;stroke-width:0.25;" width="140" x="281.25" y="207.8105"/><ellipse cx="329.375" cy="215.8105" fill="#ADD1B2" rx="5.5" ry="5.5" style="stroke:#181818;stroke-width:0.5;"/><path d="M330.7578,213.748 Q330.8359,213.6387 330.9297,213.584 Q331.0234,213.5293 331.1328,213.5293 Q331.3203,213.5293 331.4375,213.6621 Q331.5547,213.7871 331.5547,214.0918 L331.5547,214.8184 Q331.5547,215.123 331.4375,215.2559 Q331.3203,215.3887 331.1328,215.3887 Q330.9609,215.3887 330.8594,215.2871 Q330.7578,215.1934 330.7031,214.9355 Q330.6797,214.7559 330.5859,214.6621 Q330.4219,214.4746 330.1172,214.3652 Q329.8125,214.2559 329.5,214.2559 Q329.1172,214.2559 328.7969,214.4199 Q328.4844,214.584 328.2344,214.959 Q327.9922,215.334 327.9922,215.8496 L327.9922,216.3965 Q327.9922,217.0137 328.4375,217.4277 Q328.8828,217.834 329.6797,217.834 Q330.1484,217.834 330.4766,217.709 Q330.6719,217.6309 330.8828,217.4121 Q331.0156,217.2793 331.0859,217.2402 Q331.1641,217.2012 331.2656,217.2012 Q331.4297,217.2012 331.5547,217.334 Q331.6875,217.459 331.6875,217.6309 Q331.6875,217.8027 331.5156,218.0059 Q331.2656,218.2949 330.8672,218.459 Q330.3281,218.6855 329.6797,218.6855 Q328.9219,218.6855 328.3203,218.373 Q327.8281,218.123 327.4844,217.5918 Q327.1406,217.0527 327.1406,216.4121 L327.1406,215.834 Q327.1406,215.1699 327.4453,214.5996 Q327.7578,214.0215 328.3047,213.7168 Q328.8516,213.4043 329.4688,213.4043 Q329.8359,213.4043 330.1563,213.4902 Q330.4844,213.5684 330.7578,213.748 Z " fill="#000000"/><text fill="#000000" font-family="sans-serif" font-size="7" lengthAdjust="spacing" textLength="39.5" x="339.625" y="218.709">Repositories</text><line style="stroke:#181818;stroke-width:0.25;" x1="281.75" x2="420.75" y1="223.8105" y2="223.8105"/><text fill="#000000" font-family="sans-serif" font-size="7" lengthAdjust="spacing" textLength="70.5" x="284.25" y="233.3643">-Repositories instance</text><text fill="#000000" font-family="sans-serif" font-size="7" lengthAdjust="spacing" textLength="107" x="284.25" y="242.6748">-ClientRepository clientRepository</text><text fill="#000000" font-family="sans-serif" font-size="7" lengthAdjust="spacing" textLength="129.5" x="284.25" y="251.9854">-MessageRepository messageRepository</text><text fill="#000000" font-family="sans-serif" font-size="7" lengthAdjust="spacing" textLength="134" x="284.25" y="261.2959">-ResponseRepository responseRepository</text><text fill="#000000" font-family="sans-serif" font-size="7" lengthAdjust="spacing" textLength="109" x="284.25" y="270.6064">-AgentRepository agentRepository</text><line style="stroke:#181818;stroke-width:0.25;" x1="281.75" x2="420.75" y1="274.3633" y2="274.3633"/><text fill="#000000" font-family="sans-serif" font-size="7" lengthAdjust="spacing" textLength="45.5" x="284.25" y="283.917">+getInstance()</text><text fill="#000000" font-family="sans-serif" font-size="7" lengthAdjust="spacing" textLength="71" x="284.25" y="293.2275">+getClientRepository()</text><text fill="#000000" font-family="sans-serif" font-size="7" lengthAdjust="spacing" textLength="81.5" x="284.25" y="302.5381">+getMessageRepository()</text><text fill="#000000" font-family="sans-serif" font-size="7" lengthAdjust="spacing" textLength="71.5" x="284.25" y="311.8486">+getAgentRepository()</text><text fill="#000000" font-family="sans-serif" font-size="7" lengthAdjust="spacing" textLength="85" x="284.25" y="321.1592">+getResponseRepository()</text></g><!--class PropertyAnnouncementRepository--><g id="elem_PropertyAnnouncementRepository"><rect codeLine="32" fill="#F1F1F1" height="33.3105" id="PropertyAnnouncementRepository" rx="1.25" ry="1.25" style="stroke:#181818;stroke-width:0.25;" width="124.5" x="472.5" y="469.3105"/><ellipse cx="480" cy="477.3105" fill="#ADD1B2" rx="5.5" ry="5.5" style="stroke:#181818;stroke-width:0.5;"/><path d="M481.3828,475.248 Q481.4609,475.1387 481.5547,475.084 Q481.6484,475.0293 481.7578,475.0293 Q481.9453,475.0293 482.0625,475.1621 Q482.1797,475.2871 482.1797,475.5918 L482.1797,476.3184 Q482.1797,476.623 482.0625,476.7559 Q481.9453,476.8887 481.7578,476.8887 Q481.5859,476.8887 481.4844,476.7871 Q481.3828,476.6934 481.3281,476.4355 Q481.3047,476.2559 481.2109,476.1621 Q481.0469,475.9746 480.7422,475.8652 Q480.4375,475.7559 480.125,475.7559 Q479.7422,475.7559 479.4219,475.9199 Q479.1094,476.084 478.8594,476.459 Q478.6172,476.834 478.6172,477.3496 L478.6172,477.8965 Q478.6172,478.5137 479.0625,478.9277 Q479.5078,479.334 480.3047,479.334 Q480.7734,479.334 481.1016,479.209 Q481.2969,479.1309 481.5078,478.9121 Q481.6406,478.7793 481.7109,478.7402 Q481.7891,478.7012 481.8906,478.7012 Q482.0547,478.7012 482.1797,478.834 Q482.3125,478.959 482.3125,479.1309 Q482.3125,479.3027 482.1406,479.5059 Q481.8906,479.7949 481.4922,479.959 Q480.9531,480.1855 480.3047,480.1855 Q479.5469,480.1855 478.9453,479.873 Q478.4531,479.623 478.1094,479.0918 Q477.7656,478.5527 477.7656,477.9121 L477.7656,477.334 Q477.7656,476.6699 478.0703,476.0996 Q478.3828,475.5215 478.9297,475.2168 Q479.4766,474.9043 480.0938,474.9043 Q480.4609,474.9043 480.7813,474.9902 Q481.1094,475.0684 481.3828,475.248 Z " fill="#000000"/><text fill="#000000" font-family="sans-serif" font-size="7" lengthAdjust="spacing" textLength="108.5" x="487" y="480.209">PropertyAnnouncementRepository</text><line style="stroke:#181818;stroke-width:0.25;" x1="473" x2="596.5" y1="485.3105" y2="485.3105"/><text fill="#000000" font-family="sans-serif" font-size="7" lengthAdjust="spacing" textLength="101" x="475.5" y="494.8643">-List&lt;Property&gt; announcements</text><line style="stroke:#181818;stroke-width:0.25;" x1="473" x2="596.5" y1="498.6211" y2="498.6211"/></g><!--class ClientRepository--><g id="elem_ClientRepository"><rect codeLine="37" fill="#F1F1F1" height="42.6211" id="ClientRepository" rx="1.25" ry="1.25" style="stroke:#181818;stroke-width:0.25;" width="84.5" x="306.5" y="388.0605"/><ellipse cx="321.425" cy="396.0605" fill="#ADD1B2" rx="5.5" ry="5.5" style="stroke:#181818;stroke-width:0.5;"/><path d="M322.8078,393.998 Q322.8859,393.8887 322.9797,393.834 Q323.0734,393.7793 323.1828,393.7793 Q323.3703,393.7793 323.4875,393.9121 Q323.6047,394.0371 323.6047,394.3418 L323.6047,395.0684 Q323.6047,395.373 323.4875,395.5059 Q323.3703,395.6387 323.1828,395.6387 Q323.0109,395.6387 322.9094,395.5371 Q322.8078,395.4434 322.7531,395.1855 Q322.7297,395.0059 322.6359,394.9121 Q322.4719,394.7246 322.1672,394.6152 Q321.8625,394.5059 321.55,394.5059 Q321.1672,394.5059 320.8469,394.6699 Q320.5344,394.834 320.2844,395.209 Q320.0422,395.584 320.0422,396.0996 L320.0422,396.6465 Q320.0422,397.2637 320.4875,397.6777 Q320.9328,398.084 321.7297,398.084 Q322.1984,398.084 322.5266,397.959 Q322.7219,397.8809 322.9328,397.6621 Q323.0656,397.5293 323.1359,397.4902 Q323.2141,397.4512 323.3156,397.4512 Q323.4797,397.4512 323.6047,397.584 Q323.7375,397.709 323.7375,397.8809 Q323.7375,398.0527 323.5656,398.2559 Q323.3156,398.5449 322.9172,398.709 Q322.3781,398.9355 321.7297,398.9355 Q320.9719,398.9355 320.3703,398.623 Q319.8781,398.373 319.5344,397.8418 Q319.1906,397.3027 319.1906,396.6621 L319.1906,396.084 Q319.1906,395.4199 319.4953,394.8496 Q319.8078,394.2715 320.3547,393.9668 Q320.9016,393.6543 321.5188,393.6543 Q321.8859,393.6543 322.2063,393.7402 Q322.5344,393.8184 322.8078,393.998 Z " fill="#000000"/><text fill="#000000" font-family="sans-serif" font-size="7" lengthAdjust="spacing" textLength="52" x="330.075" y="398.959">ClientRepository</text><line style="stroke:#181818;stroke-width:0.25;" x1="307" x2="390.5" y1="404.0605" y2="404.0605"/><text fill="#000000" font-family="sans-serif" font-size="7" lengthAdjust="spacing" textLength="61.5" x="309.5" y="413.6143">-List&lt;Client&gt; clients</text><line style="stroke:#181818;stroke-width:0.25;" x1="307" x2="390.5" y1="417.3711" y2="417.3711"/><text fill="#000000" font-family="sans-serif" font-size="7" lengthAdjust="spacing" textLength="78.5" x="309.5" y="426.9248">+getClientByEmail(email)</text></g><!--class AgentRepository--><g id="elem_AgentRepository"><rect codeLine="43" fill="#F1F1F1" height="42.6211" id="AgentRepository" rx="1.25" ry="1.25" style="stroke:#181818;stroke-width:0.25;" width="69.5" x="219.5" y="388.0605"/><ellipse cx="227.45" cy="396.0605" fill="#ADD1B2" rx="5.5" ry="5.5" style="stroke:#181818;stroke-width:0.5;"/><path d="M228.8328,393.998 Q228.9109,393.8887 229.0047,393.834 Q229.0984,393.7793 229.2078,393.7793 Q229.3953,393.7793 229.5125,393.9121 Q229.6297,394.0371 229.6297,394.3418 L229.6297,395.0684 Q229.6297,395.373 229.5125,395.5059 Q229.3953,395.6387 229.2078,395.6387 Q229.0359,395.6387 228.9344,395.5371 Q228.8328,395.4434 228.7781,395.1855 Q228.7547,395.0059 228.6609,394.9121 Q228.4969,394.7246 228.1922,394.6152 Q227.8875,394.5059 227.575,394.5059 Q227.1922,394.5059 226.8719,394.6699 Q226.5594,394.834 226.3094,395.209 Q226.0672,395.584 226.0672,396.0996 L226.0672,396.6465 Q226.0672,397.2637 226.5125,397.6777 Q226.9578,398.084 227.7547,398.084 Q228.2234,398.084 228.5516,397.959 Q228.7469,397.8809 228.9578,397.6621 Q229.0906,397.5293 229.1609,397.4902 Q229.2391,397.4512 229.3406,397.4512 Q229.5047,397.4512 229.6297,397.584 Q229.7625,397.709 229.7625,397.8809 Q229.7625,398.0527 229.5906,398.2559 Q229.3406,398.5449 228.9422,398.709 Q228.4031,398.9355 227.7547,398.9355 Q226.9969,398.9355 226.3953,398.623 Q225.9031,398.373 225.5594,397.8418 Q225.2156,397.3027 225.2156,396.6621 L225.2156,396.084 Q225.2156,395.4199 225.5203,394.8496 Q225.8328,394.2715 226.3797,393.9668 Q226.9266,393.6543 227.5438,393.6543 Q227.9109,393.6543 228.2313,393.7402 Q228.5594,393.8184 228.8328,393.998 Z " fill="#000000"/><text fill="#000000" font-family="sans-serif" font-size="7" lengthAdjust="spacing" textLength="52.5" x="234.55" y="398.959">AgentRepository</text><line style="stroke:#181818;stroke-width:0.25;" x1="220" x2="288.5" y1="404.0605" y2="404.0605"/><text fill="#000000" font-family="sans-serif" font-size="7" lengthAdjust="spacing" textLength="63.5" x="222.5" y="413.6143">-List&lt;Agent&gt; agents</text><line style="stroke:#181818;stroke-width:0.25;" x1="220" x2="288.5" y1="417.3711" y2="417.3711"/><text fill="#000000" font-family="sans-serif" font-size="7" lengthAdjust="spacing" textLength="41" x="222.5" y="426.9248">+getAgents()</text></g><!--class Client--><g id="elem_Client"><rect codeLine="49" fill="#F1F1F1" height="107.7949" id="Client" rx="1.25" ry="1.25" style="stroke:#181818;stroke-width:0.25;" width="119.5" x="279.5" y="527.0605"/><ellipse cx="328.125" cy="535.0605" fill="#ADD1B2" rx="5.5" ry="5.5" style="stroke:#181818;stroke-width:0.5;"/><path d="M329.5078,532.998 Q329.5859,532.8887 329.6797,532.834 Q329.7734,532.7793 329.8828,532.7793 Q330.0703,532.7793 330.1875,532.9121 Q330.3047,533.0371 330.3047,533.3418 L330.3047,534.0684 Q330.3047,534.373 330.1875,534.5059 Q330.0703,534.6387 329.8828,534.6387 Q329.7109,534.6387 329.6094,534.5371 Q329.5078,534.4434 329.4531,534.1855 Q329.4297,534.0059 329.3359,533.9121 Q329.1719,533.7246 328.8672,533.6152 Q328.5625,533.5059 328.25,533.5059 Q327.8672,533.5059 327.5469,533.6699 Q327.2344,533.834 326.9844,534.209 Q326.7422,534.584 326.7422,535.0996 L326.7422,535.6465 Q326.7422,536.2637 327.1875,536.6777 Q327.6328,537.084 328.4297,537.084 Q328.8984,537.084 329.2266,536.959 Q329.4219,536.8809 329.6328,536.6621 Q329.7656,536.5293 329.8359,536.4902 Q329.9141,536.4512 330.0156,536.4512 Q330.1797,536.4512 330.3047,536.584 Q330.4375,536.709 330.4375,536.8809 Q330.4375,537.0527 330.2656,537.2559 Q330.0156,537.5449 329.6172,537.709 Q329.0781,537.9355 328.4297,537.9355 Q327.6719,537.9355 327.0703,537.623 Q326.5781,537.373 326.2344,536.8418 Q325.8906,536.3027 325.8906,535.6621 L325.8906,535.084 Q325.8906,534.4199 326.1953,533.8496 Q326.5078,533.2715 327.0547,532.9668 Q327.6016,532.6543 328.2188,532.6543 Q328.5859,532.6543 328.9063,532.7402 Q329.2344,532.8184 329.5078,532.998 Z " fill="#000000"/><text fill="#000000" font-family="sans-serif" font-size="7" lengthAdjust="spacing" textLength="18" x="338.375" y="537.959">Client</text><line style="stroke:#181818;stroke-width:0.25;" x1="280" x2="398.5" y1="543.0605" y2="543.0605"/><text fill="#000000" font-family="sans-serif" font-size="7" lengthAdjust="spacing" textLength="40.5" x="282.5" y="552.6143">-String name</text><text fill="#000000" font-family="sans-serif" font-size="7" lengthAdjust="spacing" textLength="64" x="282.5" y="561.9248">-int passportNumber</text><text fill="#000000" font-family="sans-serif" font-size="7" lengthAdjust="spacing" textLength="70.5" x="282.5" y="571.2354">-socialSecurityNumber</text><text fill="#000000" font-family="sans-serif" font-size="7" lengthAdjust="spacing" textLength="39.5" x="282.5" y="580.5459">-String email</text><text fill="#000000" font-family="sans-serif" font-size="7" lengthAdjust="spacing" textLength="67.5" x="282.5" y="589.8564">-String phoneNumber</text><text fill="#000000" font-family="sans-serif" font-size="7" lengthAdjust="spacing" textLength="35.5" x="282.5" y="599.167">-String pwd</text><line style="stroke:#181818;stroke-width:0.25;" x1="280" x2="398.5" y1="602.9238" y2="602.9238"/><text fill="#000000" font-family="sans-serif" font-size="7" lengthAdjust="spacing" textLength="113.5" x="282.5" y="612.4775">+Client(email, name, phoneNumber)</text><text fill="#000000" font-family="sans-serif" font-size="7" lengthAdjust="spacing" textLength="64" x="282.5" y="621.7881">+getPhoneNumber()</text><text fill="#000000" font-family="sans-serif" font-size="7" lengthAdjust="spacing" textLength="37" x="282.5" y="631.0986">+getName()</text></g><!--class MessageRepository--><g id="elem_MessageRepository"><rect codeLine="62" fill="#F1F1F1" height="61.2422" id="MessageRepository" rx="1.25" ry="1.25" style="stroke:#181818;stroke-width:0.25;" width="193.5" x="8.5" y="378.8105"/><ellipse cx="71.875" cy="386.8105" fill="#ADD1B2" rx="5.5" ry="5.5" style="stroke:#181818;stroke-width:0.5;"/><path d="M73.2578,384.748 Q73.3359,384.6387 73.4297,384.584 Q73.5234,384.5293 73.6328,384.5293 Q73.8203,384.5293 73.9375,384.6621 Q74.0547,384.7871 74.0547,385.0918 L74.0547,385.8184 Q74.0547,386.123 73.9375,386.2559 Q73.8203,386.3887 73.6328,386.3887 Q73.4609,386.3887 73.3594,386.2871 Q73.2578,386.1934 73.2031,385.9355 Q73.1797,385.7559 73.0859,385.6621 Q72.9219,385.4746 72.6172,385.3652 Q72.3125,385.2559 72,385.2559 Q71.6172,385.2559 71.2969,385.4199 Q70.9844,385.584 70.7344,385.959 Q70.4922,386.334 70.4922,386.8496 L70.4922,387.3965 Q70.4922,388.0137 70.9375,388.4277 Q71.3828,388.834 72.1797,388.834 Q72.6484,388.834 72.9766,388.709 Q73.1719,388.6309 73.3828,388.4121 Q73.5156,388.2793 73.5859,388.2402 Q73.6641,388.2012 73.7656,388.2012 Q73.9297,388.2012 74.0547,388.334 Q74.1875,388.459 74.1875,388.6309 Q74.1875,388.8027 74.0156,389.0059 Q73.7656,389.2949 73.3672,389.459 Q72.8281,389.6855 72.1797,389.6855 Q71.4219,389.6855 70.8203,389.373 Q70.3281,389.123 69.9844,388.5918 Q69.6406,388.0527 69.6406,387.4121 L69.6406,386.834 Q69.6406,386.1699 69.9453,385.5996 Q70.2578,385.0215 70.8047,384.7168 Q71.3516,384.4043 71.9688,384.4043 Q72.3359,384.4043 72.6563,384.4902 Q72.9844,384.5684 73.2578,384.748 Z " fill="#000000"/><text fill="#000000" font-family="sans-serif" font-size="7" lengthAdjust="spacing" textLength="62.5" x="82.125" y="389.709">MessageRepository</text><line style="stroke:#181818;stroke-width:0.25;" x1="9" x2="201.5" y1="394.8105" y2="394.8105"/><text fill="#000000" font-family="sans-serif" font-size="7" lengthAdjust="spacing" textLength="84" x="11.5" y="404.3643">-List&lt;Message&gt; messages</text><line style="stroke:#181818;stroke-width:0.25;" x1="9" x2="201.5" y1="408.1211" y2="408.1211"/><text fill="#000000" font-family="sans-serif" font-size="7" lengthAdjust="spacing" textLength="187.5" x="11.5" y="417.6748">+create(text, name, phoneNumber, preferredDate, timeSlot)</text><text fill="#000000" font-family="sans-serif" font-size="7" lengthAdjust="spacing" textLength="78" x="11.5" y="426.9854">+addMessage(message)</text><text fill="#000000" font-family="sans-serif" font-size="7" lengthAdjust="spacing" textLength="90.5" x="11.5" y="436.2959">+validateMessage(message)</text></g><!--class Message--><g id="elem_Message"><rect codeLine="70" fill="#F1F1F1" height="182.2793" id="Message" rx="1.25" ry="1.25" style="stroke:#181818;stroke-width:0.25;" width="204" x="231.25" y="683.8105"/><ellipse cx="316.875" cy="691.8105" fill="#ADD1B2" rx="5.5" ry="5.5" style="stroke:#181818;stroke-width:0.5;"/><path d="M318.2578,689.748 Q318.3359,689.6387 318.4297,689.584 Q318.5234,689.5293 318.6328,689.5293 Q318.8203,689.5293 318.9375,689.6621 Q319.0547,689.7871 319.0547,690.0918 L319.0547,690.8184 Q319.0547,691.123 318.9375,691.2559 Q318.8203,691.3887 318.6328,691.3887 Q318.4609,691.3887 318.3594,691.2871 Q318.2578,691.1934 318.2031,690.9355 Q318.1797,690.7559 318.0859,690.6621 Q317.9219,690.4746 317.6172,690.3652 Q317.3125,690.2559 317,690.2559 Q316.6172,690.2559 316.2969,690.4199 Q315.9844,690.584 315.7344,690.959 Q315.4922,691.334 315.4922,691.8496 L315.4922,692.3965 Q315.4922,693.0137 315.9375,693.4277 Q316.3828,693.834 317.1797,693.834 Q317.6484,693.834 317.9766,693.709 Q318.1719,693.6309 318.3828,693.4121 Q318.5156,693.2793 318.5859,693.2402 Q318.6641,693.2012 318.7656,693.2012 Q318.9297,693.2012 319.0547,693.334 Q319.1875,693.459 319.1875,693.6309 Q319.1875,693.8027 319.0156,694.0059 Q318.7656,694.2949 318.3672,694.459 Q317.8281,694.6855 317.1797,694.6855 Q316.4219,694.6855 315.8203,694.373 Q315.3281,694.123 314.9844,693.5918 Q314.6406,693.0527 314.6406,692.4121 L314.6406,691.834 Q314.6406,691.1699 314.9453,690.5996 Q315.2578,690.0215 315.8047,689.7168 Q316.3516,689.4043 316.9688,689.4043 Q317.3359,689.4043 317.6563,689.4902 Q317.9844,689.5684 318.2578,689.748 Z " fill="#000000"/><text fill="#000000" font-family="sans-serif" font-size="7" lengthAdjust="spacing" textLength="28.5" x="327.125" y="694.709">Message</text><line style="stroke:#181818;stroke-width:0.25;" x1="231.75" x2="434.75" y1="699.8105" y2="699.8105"/><text fill="#000000" font-family="sans-serif" font-size="7" lengthAdjust="spacing" textLength="60" x="234.25" y="709.3643">-Property property;</text><text fill="#000000" font-family="sans-serif" font-size="7" lengthAdjust="spacing" textLength="49.5" x="234.25" y="718.6748">-String agentID;</text><text fill="#000000" font-family="sans-serif" font-size="7" lengthAdjust="spacing" textLength="47.5" x="234.25" y="727.9854">-String subject;</text><text fill="#000000" font-family="sans-serif" font-size="7" lengthAdjust="spacing" textLength="36" x="234.25" y="737.2959">-String text;</text><text fill="#000000" font-family="sans-serif" font-size="7" lengthAdjust="spacing" textLength="42.5" x="234.25" y="746.6064">-String name;</text><text fill="#000000" font-family="sans-serif" font-size="7" lengthAdjust="spacing" textLength="69.5" x="234.25" y="755.917">-String phoneNumber;</text><text fill="#000000" font-family="sans-serif" font-size="7" lengthAdjust="spacing" textLength="69.5" x="234.25" y="765.2275">-String preferredDate;</text><text fill="#000000" font-family="sans-serif" font-size="7" lengthAdjust="spacing" textLength="48.5" x="234.25" y="774.5381">-int startOfVisit;</text><text fill="#000000" font-family="sans-serif" font-size="7" lengthAdjust="spacing" textLength="46.5" x="234.25" y="783.8486">-int endOfVisit;</text><line style="stroke:#181818;stroke-width:0.25;" x1="231.75" x2="434.75" y1="787.6055" y2="787.6055"/><text fill="#000000" font-family="sans-serif" font-size="7" lengthAdjust="spacing" textLength="198" x="234.25" y="797.1592">+Message (text, name, phoneNumber, preferredDate, timeSlot)</text><text fill="#000000" font-family="sans-serif" font-size="7" lengthAdjust="spacing" textLength="33.5" x="234.25" y="806.4697">+toString()</text><text fill="#000000" font-family="sans-serif" font-size="7" lengthAdjust="spacing" textLength="26" x="234.25" y="815.7803">+clone()</text><text fill="#000000" font-family="sans-serif" font-size="7" lengthAdjust="spacing" textLength="44" x="234.25" y="825.0908">+getAgentID()</text><text fill="#000000" font-family="sans-serif" font-size="7" lengthAdjust="spacing" textLength="64" x="234.25" y="834.4014">+getPreferredDate()</text><text fill="#000000" font-family="sans-serif" font-size="7" lengthAdjust="spacing" textLength="64" x="234.25" y="843.7119">+getPhoneNumber()</text><text fill="#000000" font-family="sans-serif" font-size="7" lengthAdjust="spacing" textLength="54.5" x="234.25" y="853.0225">+getStartOfVisit()</text><text fill="#000000" font-family="sans-serif" font-size="7" lengthAdjust="spacing" textLength="52" x="234.25" y="862.333">+getEndOfVisit()</text></g><!--class Response--><g id="elem_Response"><rect codeLine="91" fill="#F1F1F1" height="126.416" id="Response" rx="1.25" ry="1.25" style="stroke:#181818;stroke-width:0.25;" width="71" x="573.25" y="517.8105"/><ellipse cx="591.1" cy="525.8105" fill="#ADD1B2" rx="5.5" ry="5.5" style="stroke:#181818;stroke-width:0.5;"/><path d="M592.4828,523.748 Q592.5609,523.6387 592.6547,523.584 Q592.7484,523.5293 592.8578,523.5293 Q593.0453,523.5293 593.1625,523.6621 Q593.2797,523.7871 593.2797,524.0918 L593.2797,524.8184 Q593.2797,525.123 593.1625,525.2559 Q593.0453,525.3887 592.8578,525.3887 Q592.6859,525.3887 592.5844,525.2871 Q592.4828,525.1934 592.4281,524.9355 Q592.4047,524.7559 592.3109,524.6621 Q592.1469,524.4746 591.8422,524.3652 Q591.5375,524.2559 591.225,524.2559 Q590.8422,524.2559 590.5219,524.4199 Q590.2094,524.584 589.9594,524.959 Q589.7172,525.334 589.7172,525.8496 L589.7172,526.3965 Q589.7172,527.0137 590.1625,527.4277 Q590.6078,527.834 591.4047,527.834 Q591.8734,527.834 592.2016,527.709 Q592.3969,527.6309 592.6078,527.4121 Q592.7406,527.2793 592.8109,527.2402 Q592.8891,527.2012 592.9906,527.2012 Q593.1547,527.2012 593.2797,527.334 Q593.4125,527.459 593.4125,527.6309 Q593.4125,527.8027 593.2406,528.0059 Q592.9906,528.2949 592.5922,528.459 Q592.0531,528.6855 591.4047,528.6855 Q590.6469,528.6855 590.0453,528.373 Q589.5531,528.123 589.2094,527.5918 Q588.8656,527.0527 588.8656,526.4121 L588.8656,525.834 Q588.8656,525.1699 589.1703,524.5996 Q589.4828,524.0215 590.0297,523.7168 Q590.5766,523.4043 591.1938,523.4043 Q591.5609,523.4043 591.8813,523.4902 Q592.2094,523.5684 592.4828,523.748 Z " fill="#000000"/><text fill="#000000" font-family="sans-serif" font-size="7" lengthAdjust="spacing" textLength="32" x="600.4" y="528.709">Response</text><line style="stroke:#181818;stroke-width:0.25;" x1="573.75" x2="643.75" y1="533.8105" y2="533.8105"/><text fill="#000000" font-family="sans-serif" font-size="7" lengthAdjust="spacing" textLength="47.5" x="576.25" y="543.3643">-String subject;</text><text fill="#000000" font-family="sans-serif" font-size="7" lengthAdjust="spacing" textLength="36" x="576.25" y="552.6748">-String text;</text><text fill="#000000" font-family="sans-serif" font-size="7" lengthAdjust="spacing" textLength="47" x="576.25" y="561.9854">-Agent sender;</text><text fill="#000000" font-family="sans-serif" font-size="7" lengthAdjust="spacing" textLength="51.5" x="576.25" y="571.2959">-Client recipient;</text><text fill="#000000" font-family="sans-serif" font-size="7" lengthAdjust="spacing" textLength="40.5" x="576.25" y="580.6064">-String state;</text><text fill="#000000" font-family="sans-serif" font-size="7" lengthAdjust="spacing" textLength="47" x="576.25" y="589.917">-String reason;</text><line style="stroke:#181818;stroke-width:0.25;" x1="573.75" x2="643.75" y1="593.6738" y2="593.6738"/><text fill="#000000" font-family="sans-serif" font-size="7" lengthAdjust="spacing" textLength="49" x="576.25" y="603.2275">+equals(object)</text><text fill="#000000" font-family="sans-serif" font-size="7" lengthAdjust="spacing" textLength="50.5" x="576.25" y="612.5381">+setState(state)</text><text fill="#000000" font-family="sans-serif" font-size="7" lengthAdjust="spacing" textLength="65" x="576.25" y="621.8486">+setReason(reason)</text><text fill="#000000" font-family="sans-serif" font-size="7" lengthAdjust="spacing" textLength="48.5" x="576.25" y="631.1592">+getRecipient()</text><text fill="#000000" font-family="sans-serif" font-size="7" lengthAdjust="spacing" textLength="26" x="576.25" y="640.4697">+clone()</text></g><!--class ResponseRepository--><g id="elem_ResponseRepository"><rect codeLine="106" fill="#F1F1F1" height="79.8633" id="ResponseRepository" rx="1.25" ry="1.25" style="stroke:#181818;stroke-width:0.25;" width="99.5" x="408.5" y="369.3105"/><ellipse cx="423.875" cy="377.3105" fill="#ADD1B2" rx="5.5" ry="5.5" style="stroke:#181818;stroke-width:0.5;"/><path d="M425.2578,375.248 Q425.3359,375.1387 425.4297,375.084 Q425.5234,375.0293 425.6328,375.0293 Q425.8203,375.0293 425.9375,375.1621 Q426.0547,375.2871 426.0547,375.5918 L426.0547,376.3184 Q426.0547,376.623 425.9375,376.7559 Q425.8203,376.8887 425.6328,376.8887 Q425.4609,376.8887 425.3594,376.7871 Q425.2578,376.6934 425.2031,376.4355 Q425.1797,376.2559 425.0859,376.1621 Q424.9219,375.9746 424.6172,375.8652 Q424.3125,375.7559 424,375.7559 Q423.6172,375.7559 423.2969,375.9199 Q422.9844,376.084 422.7344,376.459 Q422.4922,376.834 422.4922,377.3496 L422.4922,377.8965 Q422.4922,378.5137 422.9375,378.9277 Q423.3828,379.334 424.1797,379.334 Q424.6484,379.334 424.9766,379.209 Q425.1719,379.1309 425.3828,378.9121 Q425.5156,378.7793 425.5859,378.7402 Q425.6641,378.7012 425.7656,378.7012 Q425.9297,378.7012 426.0547,378.834 Q426.1875,378.959 426.1875,379.1309 Q426.1875,379.3027 426.0156,379.5059 Q425.7656,379.7949 425.3672,379.959 Q424.8281,380.1855 424.1797,380.1855 Q423.4219,380.1855 422.8203,379.873 Q422.3281,379.623 421.9844,379.0918 Q421.6406,378.5527 421.6406,377.9121 L421.6406,377.334 Q421.6406,376.6699 421.9453,376.0996 Q422.2578,375.5215 422.8047,375.2168 Q423.3516,374.9043 423.9688,374.9043 Q424.3359,374.9043 424.6563,374.9902 Q424.9844,375.0684 425.2578,375.248 Z " fill="#000000"/><text fill="#000000" font-family="sans-serif" font-size="7" lengthAdjust="spacing" textLength="66" x="432.625" y="380.209">ResponseRepository</text><line style="stroke:#181818;stroke-width:0.25;" x1="409" x2="507.5" y1="385.3105" y2="385.3105"/><text fill="#000000" font-family="sans-serif" font-size="7" lengthAdjust="spacing" textLength="88.5" x="411.5" y="394.8643">-List&lt;Response&gt; responses</text><line style="stroke:#181818;stroke-width:0.25;" x1="409" x2="507.5" y1="398.6211" y2="398.6211"/><text fill="#000000" font-family="sans-serif" font-size="7" lengthAdjust="spacing" textLength="33.5" x="411.5" y="408.1748">+isEmpty()</text><text fill="#000000" font-family="sans-serif" font-size="7" lengthAdjust="spacing" textLength="50.5" x="411.5" y="417.4854">+add(response)</text><text fill="#000000" font-family="sans-serif" font-size="7" lengthAdjust="spacing" textLength="93.5" x="411.5" y="426.7959">-validateResponse(response)</text><text fill="#000000" font-family="sans-serif" font-size="7" lengthAdjust="spacing" textLength="51.5" x="411.5" y="436.1064">+remove(object)</text><text fill="#000000" font-family="sans-serif" font-size="7" lengthAdjust="spacing" textLength="54.5" x="411.5" y="445.417">+getResponses()</text></g><!--class Agent--><g id="elem_Agent"><rect codeLine="116" fill="#F1F1F1" height="145.0371" id="Agent" rx="1.25" ry="1.25" style="stroke:#181818;stroke-width:0.25;" width="80.5" x="3.5" y="23.3105"/><ellipse cx="32.375" cy="31.3105" fill="#ADD1B2" rx="5.5" ry="5.5" style="stroke:#181818;stroke-width:0.5;"/><path d="M33.7578,29.248 Q33.8359,29.1387 33.9297,29.084 Q34.0234,29.0293 34.1328,29.0293 Q34.3203,29.0293 34.4375,29.1621 Q34.5547,29.2871 34.5547,29.5918 L34.5547,30.3184 Q34.5547,30.623 34.4375,30.7559 Q34.3203,30.8887 34.1328,30.8887 Q33.9609,30.8887 33.8594,30.7871 Q33.7578,30.6934 33.7031,30.4355 Q33.6797,30.2559 33.5859,30.1621 Q33.4219,29.9746 33.1172,29.8652 Q32.8125,29.7559 32.5,29.7559 Q32.1172,29.7559 31.7969,29.9199 Q31.4844,30.084 31.2344,30.459 Q30.9922,30.834 30.9922,31.3496 L30.9922,31.8965 Q30.9922,32.5137 31.4375,32.9277 Q31.8828,33.334 32.6797,33.334 Q33.1484,33.334 33.4766,33.209 Q33.6719,33.1309 33.8828,32.9121 Q34.0156,32.7793 34.0859,32.7402 Q34.1641,32.7012 34.2656,32.7012 Q34.4297,32.7012 34.5547,32.834 Q34.6875,32.959 34.6875,33.1309 Q34.6875,33.3027 34.5156,33.5059 Q34.2656,33.7949 33.8672,33.959 Q33.3281,34.1855 32.6797,34.1855 Q31.9219,34.1855 31.3203,33.873 Q30.8281,33.623 30.4844,33.0918 Q30.1406,32.5527 30.1406,31.9121 L30.1406,31.334 Q30.1406,30.6699 30.4453,30.0996 Q30.7578,29.5215 31.3047,29.2168 Q31.8516,28.9043 32.4688,28.9043 Q32.8359,28.9043 33.1563,28.9902 Q33.4844,29.0684 33.7578,29.248 Z " fill="#000000"/><text fill="#000000" font-family="sans-serif" font-size="7" lengthAdjust="spacing" textLength="18.5" x="42.625" y="34.209">Agent</text><line style="stroke:#181818;stroke-width:0.25;" x1="4" x2="83.5" y1="39.3105" y2="39.3105"/><text fill="#000000" font-family="sans-serif" font-size="7" lengthAdjust="spacing" textLength="39.5" x="6.5" y="48.8643">-String email</text><text fill="#000000" font-family="sans-serif" font-size="7" lengthAdjust="spacing" textLength="40.5" x="6.5" y="58.1748">-String name</text><text fill="#000000" font-family="sans-serif" font-size="7" lengthAdjust="spacing" textLength="67.5" x="6.5" y="67.4854">-String phoneNumber</text><text fill="#000000" font-family="sans-serif" font-size="7" lengthAdjust="spacing" textLength="48.5" x="6.5" y="76.7959">-String address</text><text fill="#000000" font-family="sans-serif" font-size="7" lengthAdjust="spacing" textLength="39" x="6.5" y="86.1064">-String store</text><text fill="#000000" font-family="sans-serif" font-size="7" lengthAdjust="spacing" textLength="43.5" x="6.5" y="95.417">-int ccNumber</text><text fill="#000000" font-family="sans-serif" font-size="7" lengthAdjust="spacing" textLength="45.5" x="6.5" y="104.7275">-int taxNumber</text><text fill="#000000" font-family="sans-serif" font-size="7" lengthAdjust="spacing" textLength="35.5" x="6.5" y="114.0381">-String pwd</text><line style="stroke:#181818;stroke-width:0.5;" x1="4" x2="83.5" y1="117.7949" y2="117.7949"/><text fill="#000000" font-family="sans-serif" font-size="7" lengthAdjust="spacing" textLength="74.5" x="6.5" y="127.3486">+hasEmail(String email)</text><text fill="#000000" font-family="sans-serif" font-size="7" lengthAdjust="spacing" textLength="37" x="6.5" y="136.6592">+getName()</text><text fill="#000000" font-family="sans-serif" font-size="7" lengthAdjust="spacing" textLength="36" x="6.5" y="145.9697">+getEmail()</text><text fill="#000000" font-family="sans-serif" font-size="7" lengthAdjust="spacing" textLength="33.5" x="6.5" y="155.2803">+toString()</text><text fill="#000000" font-family="sans-serif" font-size="7" lengthAdjust="spacing" textLength="26" x="6.5" y="164.5908">+clone()</text></g><!--class SendEmail--><g id="elem_SendEmail"><rect codeLine="133" fill="#F1F1F1" height="33.3105" id="SendEmail" rx="1.25" ry="1.25" style="stroke:#181818;stroke-width:0.25;" width="174" x="631.25" y="79.0605"/><ellipse cx="699.375" cy="87.0605" fill="#ADD1B2" rx="5.5" ry="5.5" style="stroke:#181818;stroke-width:0.5;"/><path d="M700.7578,84.998 Q700.8359,84.8887 700.9297,84.834 Q701.0234,84.7793 701.1328,84.7793 Q701.3203,84.7793 701.4375,84.9121 Q701.5547,85.0371 701.5547,85.3418 L701.5547,86.0684 Q701.5547,86.373 701.4375,86.5059 Q701.3203,86.6387 701.1328,86.6387 Q700.9609,86.6387 700.8594,86.5371 Q700.7578,86.4434 700.7031,86.1855 Q700.6797,86.0059 700.5859,85.9121 Q700.4219,85.7246 700.1172,85.6152 Q699.8125,85.5059 699.5,85.5059 Q699.1172,85.5059 698.7969,85.6699 Q698.4844,85.834 698.2344,86.209 Q697.9922,86.584 697.9922,87.0996 L697.9922,87.6465 Q697.9922,88.2637 698.4375,88.6777 Q698.8828,89.084 699.6797,89.084 Q700.1484,89.084 700.4766,88.959 Q700.6719,88.8809 700.8828,88.6621 Q701.0156,88.5293 701.0859,88.4902 Q701.1641,88.4512 701.2656,88.4512 Q701.4297,88.4512 701.5547,88.584 Q701.6875,88.709 701.6875,88.8809 Q701.6875,89.0527 701.5156,89.2559 Q701.2656,89.5449 700.8672,89.709 Q700.3281,89.9355 699.6797,89.9355 Q698.9219,89.9355 698.3203,89.623 Q697.8281,89.373 697.4844,88.8418 Q697.1406,88.3027 697.1406,87.6621 L697.1406,87.084 Q697.1406,86.4199 697.4453,85.8496 Q697.7578,85.2715 698.3047,84.9668 Q698.8516,84.6543 699.4688,84.6543 Q699.8359,84.6543 700.1563,84.7402 Q700.4844,84.8184 700.7578,84.998 Z " fill="#000000"/><text fill="#000000" font-family="sans-serif" font-size="7" lengthAdjust="spacing" textLength="33.5" x="709.625" y="89.959">SendEmail</text><line style="stroke:#181818;stroke-width:0.25;" x1="631.75" x2="804.75" y1="95.0605" y2="95.0605"/><line style="stroke:#181818;stroke-width:0.25;" x1="631.75" x2="804.75" y1="99.0605" y2="99.0605"/><text fill="#000000" font-family="sans-serif" font-size="7" lengthAdjust="spacing" textLength="168" x="634.25" y="108.6143">+sendAnEmail(message, agent, client, responseText)</text></g><g id="elem_configProperties"><rect fill="#F1F1F1" height="89.7949" style="stroke:#181818;stroke-width:0.25;" width="86" x="675.25" y="364.3105"/><text fill="#000000" font-family="sans-serif" font-size="7" lengthAdjust="spacing" textLength="51.5" x="692.5" y="372.8643">configProperties</text><line style="stroke:#181818;stroke-width:0.25;" x1="675.75" x2="760.75" y1="375.6211" y2="375.6211"/><text fill="#000000" font-family="sans-serif" font-size="7" lengthAdjust="spacing" textLength="50" x="678.25" y="385.1748">email.username</text><text fill="#000000" font-family="sans-serif" font-size="7" lengthAdjust="spacing" textLength="48.5" x="678.25" y="394.4854">email.password</text><text fill="#000000" font-family="sans-serif" font-size="7" lengthAdjust="spacing" textLength="49" x="678.25" y="403.7959">email.smtp.host</text><text fill="#000000" font-family="sans-serif" font-size="7" lengthAdjust="spacing" textLength="48" x="678.25" y="413.1064">email.smtp.port</text><text fill="#000000" font-family="sans-serif" font-size="7" lengthAdjust="spacing" textLength="49.5" x="678.25" y="422.417">email.smtp.auth</text><text fill="#000000" font-family="sans-serif" font-size="7" lengthAdjust="spacing" textLength="71" x="678.25" y="431.7275">mail.smtp.ssl.protocols</text><text fill="#000000" font-family="sans-serif" font-size="7" lengthAdjust="spacing" textLength="80" x="678.25" y="441.0381">email.smtp.starttls.enable</text><text fill="#000000" font-family="sans-serif" font-size="7" lengthAdjust="spacing" textLength="56" x="678.25" y="450.3486">mail.smtp.ssl.trust</text></g><!--class Property--><g id="elem_Property"><rect codeLine="149" fill="#F1F1F1" height="79.8633" id="Property" rx="1.25" ry="1.25" style="stroke:#181818;stroke-width:0.25;" width="100.5" x="480" y="735.0605"/><ellipse cx="514.625" cy="743.0605" fill="#B4A7E5" rx="5.5" ry="5.5" style="stroke:#181818;stroke-width:0.5;"/><path d="M515.1016,741.3809 L515.1016,744.709 L515.9609,744.709 Q516.2656,744.709 516.3984,744.8262 Q516.5313,744.9434 516.5313,745.1387 Q516.5313,745.3262 516.3984,745.4434 Q516.2656,745.5605 515.9609,745.5605 L513.3906,745.5605 Q513.0859,745.5605 512.9531,745.4434 Q512.8203,745.3262 512.8203,745.1309 Q512.8203,744.9434 512.9531,744.8262 Q513.0859,744.709 513.3906,744.709 L514.25,744.709 L514.25,741.3809 L513.3906,741.3809 Q513.0859,741.3809 512.9531,741.2637 Q512.8203,741.1465 512.8203,740.9512 Q512.8203,740.7637 512.9531,740.6465 Q513.0859,740.5293 513.3906,740.5293 L515.9609,740.5293 Q516.2656,740.5293 516.3984,740.6465 Q516.5313,740.7637 516.5313,740.9512 Q516.5313,741.1465 516.3984,741.2637 Q516.2656,741.3809 515.9609,741.3809 L515.1016,741.3809 Z " fill="#000000"/><text fill="#000000" font-family="sans-serif" font-size="7" font-style="italic" lengthAdjust="spacing" textLength="27" x="524.875" y="745.959">Property</text><line style="stroke:#181818;stroke-width:0.25;" x1="480.5" x2="580" y1="751.0605" y2="751.0605"/><text fill="#000000" font-family="sans-serif" font-size="7" lengthAdjust="spacing" textLength="55" x="483" y="760.6143">-Request request</text><text fill="#000000" font-family="sans-serif" font-size="7" lengthAdjust="spacing" textLength="32.5" x="483" y="769.9248">-float area</text><text fill="#000000" font-family="sans-serif" font-size="7" lengthAdjust="spacing" textLength="47.5" x="483" y="779.2354">-String location</text><text fill="#000000" font-family="sans-serif" font-size="7" lengthAdjust="spacing" textLength="94.5" x="483" y="788.5459">-float distanceFromCityCentre</text><text fill="#000000" font-family="sans-serif" font-size="7" lengthAdjust="spacing" textLength="66" x="483" y="797.8564">-float requestedPrice</text><text fill="#000000" font-family="sans-serif" font-size="7" lengthAdjust="spacing" textLength="60" x="483" y="807.167">-File[] photographs</text><line style="stroke:#181818;stroke-width:0.25;" x1="480.5" x2="580" y1="810.9238" y2="810.9238"/></g><!--link Agent to CheckVisitsUI--><g id="link_Agent_CheckVisitsUI"><path codeLine="159" d="M84.05,95.8105 C105.62,95.8105 132.96,95.8105 158.61,95.8105 " fill="none" id="Agent-to-CheckVisitsUI" style="stroke:#181818;stroke-width:0.5;"/><polygon fill="#181818" points="161.245,95.8105,156.745,93.8105,158.745,95.8105,156.745,97.8105,161.245,95.8105" style="stroke:#181818;stroke-width:0.5;"/><text fill="#000000" font-family="sans-serif" font-size="6.5" lengthAdjust="spacing" textLength="46.5" x="99.375" y="83.8247">asks to respond</text><text fill="#000000" font-family="sans-serif" font-size="6.5" lengthAdjust="spacing" textLength="59" x="93.125" y="92.4702">to a booking request</text></g><!--link Agent to CheckVisitsUI--><g id="link_Agent_CheckVisitsUI"><path codeLine="160" d="M84.125,112.8505 C87.55,113.8355 90.995,114.6805 94.375,115.3105 C115.095,119.1605 137.625,118.4205 158.57,115.6705 " fill="none" id="Agent-to-CheckVisitsUI-1" style="stroke:#181818;stroke-width:0.5;"/><polygon fill="#181818" points="161.12,115.3255,156.3923,113.9476,158.6426,115.6611,156.9292,117.9114,161.12,115.3255" style="stroke:#181818;stroke-width:0.5;"/><text fill="#000000" font-family="sans-serif" font-size="6.5" lengthAdjust="spacing" textLength="55.5" x="94.875" y="104.8247">writes full response</text><text fill="#000000" font-family="sans-serif" font-size="6.5" lengthAdjust="spacing" textLength="53.5" x="95.875" y="113.4702">to booking request</text></g><!--link CheckVisitsUI to CheckVisitsController--><g id="link_CheckVisitsUI_CheckVisitsController"><path codeLine="162" d="M315.35,95.8105 C327.37,95.8105 339.965,95.8105 352.485,95.8105 " fill="none" id="CheckVisitsUI-to-CheckVisitsController" style="stroke:#181818;stroke-width:0.5;"/><polygon fill="#181818" points="354.99,95.8105,350.49,93.8105,352.49,95.8105,350.49,97.8105,354.99,95.8105" style="stroke:#181818;stroke-width:0.5;"/><text fill="#000000" font-family="sans-serif" font-size="6.5" lengthAdjust="spacing" textLength="21.5" x="324.375" y="92.3247">creates</text></g><!--link CheckVisitsController to Repositories--><g id="link_CheckVisitsController_Repositories"><path codeLine="163" d="M446.315,112.7055 C433.885,129.9855 414.06,158.1405 398.25,183.3105 C393.8,190.3955 389.27,197.9105 384.86,205.4155 " fill="none" id="CheckVisitsController-to-Repositories" style="stroke:#181818;stroke-width:0.5;"/><polygon fill="#181818" points="383.495,207.7405,387.4959,204.8695,384.7591,205.5837,384.0449,202.8469,383.495,207.7405" style="stroke:#181818;stroke-width:0.5;"/><text fill="#000000" font-family="sans-serif" font-size="6.5" lengthAdjust="spacing" textLength="46" x="398.75" y="190.8247">gets instance of</text></g><!--link Repositories to ResponseRepository--><g id="link_Repositories_ResponseRepository"><path codeLine="164" d="M395.08,324.9755 C405.71,339.0805 416.86,353.8855 426.79,367.0605 " fill="none" id="Repositories-to-ResponseRepository" style="stroke:#181818;stroke-width:0.5;"/><polygon fill="#181818" points="428.37,369.1605,427.2508,364.365,426.862,367.1666,424.0604,366.7778,428.37,369.1605" style="stroke:#181818;stroke-width:0.5;"/><text fill="#000000" font-family="sans-serif" font-size="6.5" lengthAdjust="spacing" textLength="24.5" x="411.75" y="347.3247">contains</text><text fill="#000000" font-family="sans-serif" font-size="6.5" lengthAdjust="spacing" textLength="3.5" x="422.053" y="363.7329">1</text></g><!--link Repositories to ClientRepository--><g id="link_Repositories_ClientRepository"><path codeLine="165" d="M350.225,324.9755 C349.855,346.1355 349.455,368.8605 349.165,385.3105 " fill="none" id="Repositories-to-ClientRepository" style="stroke:#181818;stroke-width:0.5;"/><polygon fill="#181818" points="349.12,387.8955,351.1968,383.4305,349.1629,385.3959,347.1974,383.3619,349.12,387.8955" style="stroke:#181818;stroke-width:0.5;"/><text fill="#000000" font-family="sans-serif" font-size="6.5" lengthAdjust="spacing" textLength="24.5" x="350.75" y="347.3247">contains</text><text fill="#000000" font-family="sans-serif" font-size="6.5" lengthAdjust="spacing" textLength="3.5" x="345.4087" y="382.4816">1</text></g><!--link Repositories to MessageRepository--><g id="link_Repositories_MessageRepository"><path codeLine="166" d="M281.25,307.2155 C242.685,329.4805 195.52,356.7055 159.73,377.3655 " fill="none" id="Repositories-to-MessageRepository" style="stroke:#181818;stroke-width:0.5;"/><polygon fill="#181818" points="157.385,378.7155,162.2828,378.2038,159.5516,377.4683,160.2872,374.7372,157.385,378.7155" style="stroke:#181818;stroke-width:0.5;"/><text fill="#000000" font-family="sans-serif" font-size="6.5" lengthAdjust="spacing" textLength="24.5" x="221.75" y="347.3247">contains</text><text fill="#000000" font-family="sans-serif" font-size="6.5" lengthAdjust="spacing" textLength="3.5" x="159.7108" y="373.1952">1</text></g><!--link Repositories to AgentRepository--><g id="link_Repositories_AgentRepository"><path codeLine="167" d="M311.515,324.9755 C296.945,346.3055 281.285,369.2355 270.025,385.7155 " fill="none" id="Repositories-to-AgentRepository" style="stroke:#181818;stroke-width:0.5;"/><polygon fill="#181818" points="268.54,387.8955,272.7333,385.3136,269.953,385.8332,269.4335,383.0528,268.54,387.8955" style="stroke:#181818;stroke-width:0.5;"/><text fill="#000000" font-family="sans-serif" font-size="6.5" lengthAdjust="spacing" textLength="24.5" x="300.75" y="347.3247">contains</text><text fill="#000000" font-family="sans-serif" font-size="6.5" lengthAdjust="spacing" textLength="3.5" x="266.9602" y="382.4816">1</text></g><!--link Repositories to PropertyAnnouncementRepository--><g id="link_Repositories_PropertyAnnouncementRepository"><path codeLine="168" d="M421.445,315.5355 C426.575,318.7555 431.71,321.8755 436.75,324.8105 C471.015,344.7655 493.395,332.2655 516.75,364.3105 C538.925,394.7405 539.045,441.0205 537.005,466.7105 " fill="none" id="Repositories-to-PropertyAnnouncementRepository" style="stroke:#181818;stroke-width:0.5;"/><polygon fill="#181818" points="536.79,469.2855,539.1558,464.9666,536.997,466.7941,535.1695,464.6354,536.79,469.2855" style="stroke:#181818;stroke-width:0.5;"/><text fill="#000000" font-family="sans-serif" font-size="6.5" lengthAdjust="spacing" textLength="24.5" x="501.75" y="347.3247">contains</text><text fill="#000000" font-family="sans-serif" font-size="6.5" lengthAdjust="spacing" textLength="3.5" x="533.3471" y="463.6934">1</text></g><!--link CheckVisitsController to Response--><g id="link_CheckVisitsController_Response"><path codeLine="170" d="M466.085,112.5655 C490.335,163.6705 564.51,326.2005 597.75,469.3105 C601.155,483.9655 603.505,499.9455 605.13,515.1055 " fill="none" id="CheckVisitsController-to-Response" style="stroke:#181818;stroke-width:0.5;"/><polygon fill="#181818" points="605.405,517.7255,606.9327,513.0441,605.1485,515.2387,602.9538,513.4545,605.405,517.7255" style="stroke:#181818;stroke-width:0.5;"/><text fill="#000000" font-family="sans-serif" font-size="6.5" lengthAdjust="spacing" textLength="21.5" x="562.75" y="347.3247">creates</text></g><!--link CheckVisitsController to MessageRepository--><g id="link_CheckVisitsController_MessageRepository"><path codeLine="172" d="M430.3,112.6005 C403.455,127.9305 361.505,151.0455 323.75,168.3105 C279.16,188.6955 258.005,175.9355 220.75,207.8105 C192.49,231.9905 144.835,326.0155 120.52,376.4405 " fill="none" id="CheckVisitsController-to-MessageRepository" style="stroke:#181818;stroke-width:0.5;"/><polygon fill="#181818" points="119.38,378.8055,123.1369,375.6219,120.4665,376.554,119.5344,373.8835,119.38,378.8055" style="stroke:#181818;stroke-width:0.5;"/><text fill="#000000" font-family="sans-serif" font-size="6.5" lengthAdjust="spacing" textLength="50.5" x="221.25" y="264.8247">deletes answered</text><text fill="#000000" font-family="sans-serif" font-size="6.5" lengthAdjust="spacing" textLength="41" x="226" y="273.4702">message from</text></g><!--link CheckVisitsController to ResponseRepository--><g id="link_CheckVisitsController_ResponseRepository"><path codeLine="173" d="M458.25,112.6705 C458.25,159.7555 458.25,296.6855 458.25,366.6255 " fill="none" id="CheckVisitsController-to-ResponseRepository" style="stroke:#181818;stroke-width:0.5;"/><polygon fill="#181818" points="458.25,369.2905,460.25,364.7905,458.25,366.7905,456.25,364.7905,458.25,369.2905" style="stroke:#181818;stroke-width:0.5;"/><text fill="#000000" font-family="sans-serif" font-size="6.5" lengthAdjust="spacing" textLength="27.5" x="462" y="264.8247">adds new</text><text fill="#000000" font-family="sans-serif" font-size="6.5" lengthAdjust="spacing" textLength="34" x="458.75" y="273.4702">response to</text></g><!--link CheckVisitsController to SendEmail--><g id="link_CheckVisitsController_SendEmail"><path codeLine="175" d="M561.57,95.8105 C583.695,95.8105 606.9,95.8105 628.465,95.8105 " fill="none" id="CheckVisitsController-to-SendEmail" style="stroke:#181818;stroke-width:0.5;"/><polygon fill="#181818" points="631.085,95.8105,626.585,93.8105,628.585,95.8105,626.585,97.8105,631.085,95.8105" style="stroke:#181818;stroke-width:0.5;"/><text fill="#000000" font-family="sans-serif" font-size="6.5" lengthAdjust="spacing" textLength="37.5" x="577.625" y="83.8247">asks to send</text><text fill="#000000" font-family="sans-serif" font-size="6.5" lengthAdjust="spacing" textLength="51.5" x="570.625" y="92.4702">email to the client</text></g><!--link SendEmail to configProperties--><g id="link_SendEmail_configProperties"><path codeLine="176" d="M718.25,112.6705 C718.25,158.6855 718.25,290.5055 718.25,361.7505 " fill="none" id="SendEmail-to-configProperties" style="stroke:#181818;stroke-width:0.5;"/><polygon fill="#181818" points="718.25,364.2605,720.25,359.7605,718.25,361.7605,716.25,359.7605,718.25,364.2605" style="stroke:#181818;stroke-width:0.5;"/><text fill="#000000" font-family="sans-serif" font-size="6.5" lengthAdjust="spacing" textLength="69" x="718.75" y="269.0747">gets configurations from</text></g><!--link ClientRepository to Client--><g id="link_ClientRepository_Client"><path codeLine="178" d="M347.595,430.5755 C346.305,453.7505 344.165,492.2105 342.375,524.3805 " fill="none" id="ClientRepository-to-Client" style="stroke:#181818;stroke-width:0.5;"/><polygon fill="#181818" points="342.235,526.8855,344.476,522.5006,342.3705,524.3892,340.4819,522.2838,342.235,526.8855" style="stroke:#181818;stroke-width:0.5;"/><text fill="#000000" font-family="sans-serif" font-size="6.5" lengthAdjust="spacing" textLength="24.5" x="346.25" y="488.8247">contains</text><text fill="#000000" font-family="sans-serif" font-size="6.5" lengthAdjust="spacing" textLength="2.5" x="339.8516" y="521.4861">*</text></g><!--link MessageRepository to Message--><g id="link_MessageRepository_Message"><path codeLine="179" d="M122.51,439.9355 C148.43,484.8855 199.275,571.9805 245.25,644.3105 C252.965,656.4505 261.235,669.1105 269.5,681.5605 " fill="none" id="MessageRepository-to-Message" style="stroke:#181818;stroke-width:0.5;"/><polygon fill="#181818" points="270.935,683.7205,270.1222,678.8637,269.5565,681.6349,266.7852,681.0693,270.935,683.7205" style="stroke:#181818;stroke-width:0.5;"/><text fill="#000000" font-family="sans-serif" font-size="6.5" lengthAdjust="spacing" textLength="24.5" x="245.75" y="583.8247">contains</text><text fill="#000000" font-family="sans-serif" font-size="6.5" lengthAdjust="spacing" textLength="2.5" x="265.7534" y="678.2097">*</text></g><!--link AgentRepository to Agent--><g id="link_AgentRepository_Agent"><path codeLine="180" d="M237.165,387.8955 C229.705,379.7355 220.445,370.8005 210.75,364.3105 C171.725,338.1855 144.43,359.4755 112.75,324.8105 C74.33,282.7705 57.275,220.0155 49.72,170.9055 " fill="none" id="AgentRepository-to-Agent" style="stroke:#181818;stroke-width:0.5;"/><polygon fill="#181818" points="49.345,168.4305,48.036,173.1778,49.7165,170.9028,51.9916,172.5833,49.345,168.4305" style="stroke:#181818;stroke-width:0.5;"/><text fill="#000000" font-family="sans-serif" font-size="6.5" lengthAdjust="spacing" textLength="24.5" x="113.25" y="269.0747">contains</text><text fill="#000000" font-family="sans-serif" font-size="6.5" lengthAdjust="spacing" textLength="2.5" x="47.069" y="179.4111">*</text></g><!--link ResponseRepository to Response--><g id="link_ResponseRepository_Response"><path codeLine="181" d="M435.645,449.4855 C428.53,467.6655 425.45,488.3355 438.25,502.8105 C456.27,523.1905 536.08,504.4055 559.75,517.8105 C563.81,520.1105 567.65,522.8905 571.26,525.9955 " fill="none" id="ResponseRepository-to-Response" style="stroke:#181818;stroke-width:0.5;"/><polygon fill="#181818" points="573.24,527.7455,571.1969,523.265,571.3683,526.0882,568.5451,526.2596,573.24,527.7455" style="stroke:#181818;stroke-width:0.5;"/><text fill="#000000" font-family="sans-serif" font-size="6.5" lengthAdjust="spacing" textLength="24.5" x="438.75" y="488.8247">contains</text><text fill="#000000" font-family="sans-serif" font-size="6.5" lengthAdjust="spacing" textLength="2.5" x="566.7194" y="519.9761">*</text></g><!--link Client to Message--><g id="link_Client_Message"><path codeLine="182" d="M337.585,635.0655 C337.14,649.4155 336.645,665.3555 336.155,681.1855 " fill="none" id="Client-to-Message" style="stroke:#181818;stroke-width:0.5;"/><polygon fill="#181818" points="336.075,683.7255,338.2154,679.2906,336.1535,681.2268,334.2173,679.1649,336.075,683.7255" style="stroke:#181818;stroke-width:0.5;"/><text fill="#000000" font-family="sans-serif" font-size="6.5" lengthAdjust="spacing" textLength="17.5" x="337.75" y="666.8247">sends</text><text fill="#000000" font-family="sans-serif" font-size="6.5" lengthAdjust="spacing" textLength="2.5" x="333.6414" y="678.2149">*</text></g><!--link PropertyAnnouncementRepository to Property--><g id="link_PropertyAnnouncementRepository_Property"><path codeLine="184" d="M534.495,502.8705 C533.81,546.6205 531.92,667.6305 530.91,732.3855 " fill="none" id="PropertyAnnouncementRepository-to-Property" style="stroke:#181818;stroke-width:0.5;"/><polygon fill="#181818" points="530.865,735.0455,532.9418,730.5805,530.9079,732.5459,528.9424,730.5119,530.865,735.0455" style="stroke:#181818;stroke-width:0.5;"/><text fill="#000000" font-family="sans-serif" font-size="6.5" lengthAdjust="spacing" textLength="24.5" x="534.25" y="583.8247">contains</text></g><!--link Message to Property--><g id="link_Message_Property"><path codeLine="185" d="M435.355,775.0605 C449.865,775.0605 464.265,775.0605 477.305,775.0605 " fill="none" id="Message-to-Property" style="stroke:#181818;stroke-width:0.5;"/><polygon fill="#181818" points="479.895,775.0605,475.395,773.0605,477.395,775.0605,475.395,777.0605,479.895,775.0605" style="stroke:#181818;stroke-width:0.5;"/><text fill="#000000" font-family="sans-serif" font-size="6.5" lengthAdjust="spacing" textLength="26.5" x="444.375" y="771.5747">regarding</text></g><!--SRC=[dHVBJXn7yDvVqV9fYHbaNtA0Q2K2M49A7EIreqWXGirCxMw7cUvnLu_N1ENVK_sQwNa0KZZ0L7Mzt-23LAqmek6jA1_43ZRsiGPkeBH2xMfWs1FWNbJw8DMERqMD-KjP2yHpQusyxonSbrfjv3_0tp5cfILfNpRltl_8Dw0gnoqKlsg4h7d1BnmZlvHYHs8OytBunHxAXzybIejVhfzOaS4NMbcZwneCB_jFTdTtnzuQm5QhwhF-urT094TMJVXxpEF7BnBj4VjtGSqWzYa8unNKOE63qSqdQ3NHQFDuhYhdWhTz41xq8do6xxdqdaq2aWyvoAL22cu9v5ejGTb11KLoZ615z2QZQQOO9puOaL6P6OeLvxknDZ66e-yxiDVHmjLHWATs9lpCkFGmqPJGSpjNMSnkZ6x1M0gqqXrfRqOoA8ekWpybgZKLqa27tlWXkHE34tF0hsESSV0uFFpy6B8BxdTcsSIT9CsZro6CcIoFnjop89qJtuQQX7f0YORIBmdNqdkhZVtODVTKomNgKefw0sLdf7rCsCZcxUgXTgyLJ2ZQGnKD2Jg3AyTUuN7E4JDoCs1IaZuIQMxyBCd9_VYmJXMPGb0Q41PMbZfYGJ411hPW35INH7RChMnWKslhr8kgchIlmtuJjQo8TlOqjP4iI-L1MiB7MHyRdwVhom61tVtVDEW6X3FvR9IaiwLePyZSbREGKMeTOt_R-j4IKJGsUaI8KJIO_wyeMHtKkuoLDV6uZrHurvSHkia59DmutOJPPDP6r5LlxMeqqKBlPbNyNFoy7Hp9Qn-hMFsqKsJhlh84s12s25BTe5OnHF2repMpqbu56ORULlB4CmN49y-m2dp1-4z9InwScHFP44pLd9xM_UYCzIpngccjds5KdglqUiIAL9U9DNkZVTJeRp2Odqs_qMW8iNfwfiN3d7YXtyaYKefPHBM9awKi4ws3hFY-C2eA-c5lzmB3tCjj23R7OU3BmfFGzrBvzVxqAvB7NUhAu5nDjgPlnUCuXXUMQ0YRM_9RkOijxJUfD-saGp0-D05qC_IWJHL1R6nxijTeSzZDs1mMdTsp0KGaCKPRNUeQSphVpRR64r3YdkwXCOir7QaXWod4OBQYX7wB-Qt_jGDqbU__ic9RQs6ve7hjir3hKbYfLNgiP5YzxlQue0rmGG5o6GslKH9KDqQw0-A3hE7FlrnbM4qtLBllzs2egs8zFgVuAHVuW3H1OiohMqNVWjzh_H1QC9ZwBFk1rXBTCDkkhlkqUHbJ2MpCEHQL7NAdSLyWMtulY7DqFfsw9JLSKLnlsUZTCRnv_sQfrq_zsIY8TPbbTe-znZ2_pbxZcDvWhz6_V1JbxC_5RpsCxY7MBmHxoQTm3oETN7W0MYctAhOotrATlfYvXIJGq4Aku72hKWLHGRvW_p1JXl9rO-LM-KPreDr3d2Pie2wS1TCPakedu3lZkm-37snM03uDFwJAoCCz3rEYJRiz8vvcFP66DXlLm2nUYJRFOYAFPiqrk_1Gbb-f7iVN7qnpt_ZusS1E6FSl76F_0G00]--></g></svg>