<?xml version="1.0" encoding="us-ascii" standalone="no"?><svg xmlns="http://www.w3.org/2000/svg" xmlns:xlink="http://www.w3.org/1999/xlink" contentStyleType="text/css" height="471.3px" preserveAspectRatio="none" style="width:512px;height:471px;background:#FFFFFF;" version="1.1" viewBox="0 0 512 471" width="512.1px" zoomAndPan="magnify"><defs/><g><text fill="#000000" font-family="sans-serif" font-size="4.2" font-weight="bold" lengthAdjust="spacing" textLength="83.7" x="213.975" y="9.0322">User Story 016 - Sequence Diagram (SD)</text><rect fill="#FFFFFF" height="403.4795" style="stroke:#181818;stroke-width:0.3;" width="3" x="10.95" y="39.9727"/><rect fill="#FFFFFF" height="9.3873" style="stroke:#181818;stroke-width:0.3;" width="3" x="111.15" y="46.96"/><rect fill="#FFFFFF" height="377.7176" style="stroke:#181818;stroke-width:0.3;" width="3" x="111.15" y="65.7346"/><rect fill="#FFFFFF" height="319.0928" style="stroke:#181818;stroke-width:0.3;" width="3" x="223.65" y="88.2082"/><rect fill="#FFFFFF" height="12.6873" style="stroke:#181818;stroke-width:0.3;" width="3" x="225.15" y="99.9955"/><rect fill="#FFFFFF" height="9.3873" style="stroke:#181818;stroke-width:0.3;" width="3" x="290.25" y="124.1701"/><rect fill="#FFFFFF" height="9.3873" style="stroke:#181818;stroke-width:0.3;" width="3" x="290.25" y="193.7813"/><rect fill="#FFFFFF" height="9.3873" style="stroke:#181818;stroke-width:0.3;" width="3" x="290.25" y="268.8797"/><rect fill="#FFFFFF" height="9.3873" style="stroke:#181818;stroke-width:0.3;" width="3" x="322.35" y="142.9447"/><rect fill="#FFFFFF" height="9.3873" style="stroke:#181818;stroke-width:0.3;" width="3" x="322.35" y="212.5559"/><rect fill="#FFFFFF" height="9.3873" style="stroke:#181818;stroke-width:0.3;" width="3" x="322.35" y="287.6543"/><rect fill="#FFFFFF" height="9.3873" style="stroke:#181818;stroke-width:0.3;" width="3" x="361.95" y="161.7193"/><rect fill="#FFFFFF" height="9.3873" style="stroke:#181818;stroke-width:0.3;" width="3" x="405.9" y="231.3305"/><rect fill="#FFFFFF" height="9.3873" style="stroke:#181818;stroke-width:0.3;" width="3" x="405.9" y="250.1051"/><rect fill="#FFFFFF" height="46.3365" style="stroke:#181818;stroke-width:0.3;" width="3" x="443.1" y="351.5771"/><rect fill="#FFFFFF" height="9.3873" style="stroke:#181818;stroke-width:0.3;" width="3" x="486.6" y="306.4289"/><rect fill="none" height="29.5512" style="stroke:#000000;stroke-width:0.44999999999999996;" width="128.1" x="3" y="411.801"/><line style="stroke:#181818;stroke-width:0.15;stroke-dasharray:5.0,5.0;" x1="12.3" x2="12.3" y1="36.9727" y2="446.4521"/><line style="stroke:#181818;stroke-width:0.15;stroke-dasharray:5.0,5.0;" x1="112.5" x2="112.5" y1="36.9727" y2="446.4521"/><line style="stroke:#181818;stroke-width:0.15;stroke-dasharray:5.0,5.0;" x1="225" x2="225" y1="77.6777" y2="446.4521"/><line style="stroke:#181818;stroke-width:0.15;stroke-dasharray:5.0,5.0;" x1="291.6" x2="291.6" y1="36.9727" y2="446.4521"/><line style="stroke:#181818;stroke-width:0.15;stroke-dasharray:5.0,5.0;" x1="323.7" x2="323.7" y1="36.9727" y2="446.4521"/><line style="stroke:#181818;stroke-width:0.15;stroke-dasharray:5.0,5.0;" x1="363.3" x2="363.3" y1="36.9727" y2="446.4521"/><line style="stroke:#181818;stroke-width:0.15;stroke-dasharray:5.0,5.0;" x1="407.4" x2="407.4" y1="36.9727" y2="446.4521"/><line style="stroke:#181818;stroke-width:0.15;stroke-dasharray:5.0,5.0;" x1="444.6" x2="444.6" y1="341.0467" y2="446.4521"/><line style="stroke:#181818;stroke-width:0.15;stroke-dasharray:5.0,5.0;" x1="487.95" x2="487.95" y1="36.9727" y2="446.4521"/><text fill="#000000" font-family="sans-serif" font-size="4.2" lengthAdjust="spacing" textLength="11.1" x="6" y="35.9186">Agent</text><ellipse cx="12.45" cy="15.9363" fill="#E3E3E3" rx="2.4" ry="2.4" style="stroke:#181818;stroke-width:0.15;"/><path d="M12.45,18.3363 L12.45,26.4363 M8.55,20.7363 L16.35,20.7363 M12.45,26.4363 L8.55,30.9363 M12.45,26.4363 L16.35,30.9363 " fill="none" style="stroke:#181818;stroke-width:0.15;"/><text fill="#000000" font-family="sans-serif" font-size="4.2" lengthAdjust="spacing" textLength="11.1" x="6" y="450.6844">Agent</text><ellipse cx="12.45" cy="454.2885" fill="#E3E3E3" rx="2.4" ry="2.4" style="stroke:#181818;stroke-width:0.15;"/><path d="M12.45,456.6885 L12.45,464.7885 M8.55,459.0885 L16.35,459.0885 M12.45,464.7885 L8.55,469.2885 M12.45,464.7885 L16.35,469.2885 " fill="none" style="stroke:#181818;stroke-width:0.15;"/><rect fill="#E3E3E3" height="9.7863" rx="0.75" ry="0.75" style="stroke:#181818;stroke-width:0.15;" width="30.9" x="97.2" y="26.8863"/><text fill="#000000" font-family="sans-serif" font-size="4.2" lengthAdjust="spacing" textLength="26.7" x="99.3" y="33.5186">:CheckVisitsUI</text><rect fill="#E3E3E3" height="9.7863" rx="0.75" ry="0.75" style="stroke:#181818;stroke-width:0.15;" width="30.9" x="97.2" y="446.1521"/><text fill="#000000" font-family="sans-serif" font-size="4.2" lengthAdjust="spacing" textLength="26.7" x="99.3" y="452.7844">:CheckVisitsUI</text><rect fill="#E3E3E3" height="9.7863" rx="0.75" ry="0.75" style="stroke:#181818;stroke-width:0.15;" width="45.9" x="202.2" y="446.1521"/><text fill="#000000" font-family="sans-serif" font-size="4.2" lengthAdjust="spacing" textLength="41.7" x="204.3" y="452.7844">:CheckVisitsController</text><rect fill="#E3E3E3" height="9.7863" rx="0.75" ry="0.75" style="stroke:#181818;stroke-width:0.15;" width="29.1" x="277.2" y="26.8863"/><text fill="#000000" font-family="sans-serif" font-size="4.2" lengthAdjust="spacing" textLength="24.9" x="279.3" y="33.5186">:Repositories</text><rect fill="#E3E3E3" height="9.7863" rx="0.75" ry="0.75" style="stroke:#181818;stroke-width:0.15;" width="29.1" x="277.2" y="446.1521"/><text fill="#000000" font-family="sans-serif" font-size="4.2" lengthAdjust="spacing" textLength="24.9" x="279.3" y="452.7844">:Repositories</text><rect fill="#E3E3E3" height="15.3727" rx="0.75" ry="0.75" style="stroke:#181818;stroke-width:0.15;" width="29.1" x="309.3" y="21.3"/><text fill="#000000" font-family="sans-serif" font-size="4.2" lengthAdjust="spacing" textLength="23.4" x="312.15" y="27.9322">:repositories</text><text fill="#000000" font-family="sans-serif" font-size="4.2" lengthAdjust="spacing" textLength="24.9" x="311.4" y="33.5186">:Repositories</text><rect fill="#E3E3E3" height="15.3727" rx="0.75" ry="0.75" style="stroke:#181818;stroke-width:0.15;" width="29.1" x="309.3" y="446.1521"/><text fill="#000000" font-family="sans-serif" font-size="4.2" lengthAdjust="spacing" textLength="23.4" x="312.15" y="452.7844">:repositories</text><text fill="#000000" font-family="sans-serif" font-size="4.2" lengthAdjust="spacing" textLength="24.9" x="311.4" y="458.3707">:Repositories</text><rect fill="#E3E3E3" height="15.3727" rx="0.75" ry="0.75" style="stroke:#181818;stroke-width:0.15;" width="44.1" x="341.4" y="21.3"/><text fill="#000000" font-family="sans-serif" font-size="4.2" lengthAdjust="spacing" textLength="39.9" x="343.5" y="27.9322">:messageRepository:</text><text fill="#000000" font-family="sans-serif" font-size="4.2" lengthAdjust="spacing" textLength="37.5" x="344.7" y="33.5186">MessageRepository</text><rect fill="#E3E3E3" height="15.3727" rx="0.75" ry="0.75" style="stroke:#181818;stroke-width:0.15;" width="44.1" x="341.4" y="446.1521"/><text fill="#000000" font-family="sans-serif" font-size="4.2" lengthAdjust="spacing" textLength="39.9" x="343.5" y="452.7844">:messageRepository:</text><text fill="#000000" font-family="sans-serif" font-size="4.2" lengthAdjust="spacing" textLength="37.5" x="344.7" y="458.3707">MessageRepository</text><rect fill="#E3E3E3" height="15.3727" rx="0.75" ry="0.75" style="stroke:#181818;stroke-width:0.15;" width="37.8" x="388.5" y="21.3"/><text fill="#000000" font-family="sans-serif" font-size="4.2" lengthAdjust="spacing" textLength="33.6" x="390.6" y="27.9322">:agentRepository:</text><text fill="#000000" font-family="sans-serif" font-size="4.2" lengthAdjust="spacing" textLength="31.5" x="391.65" y="33.5186">AgentRepository</text><rect fill="#E3E3E3" height="15.3727" rx="0.75" ry="0.75" style="stroke:#181818;stroke-width:0.15;" width="37.8" x="388.5" y="446.1521"/><text fill="#000000" font-family="sans-serif" font-size="4.2" lengthAdjust="spacing" textLength="33.6" x="390.6" y="452.7844">:agentRepository:</text><text fill="#000000" font-family="sans-serif" font-size="4.2" lengthAdjust="spacing" textLength="31.5" x="391.65" y="458.3707">AgentRepository</text><rect fill="#E3E3E3" height="9.7863" rx="0.75" ry="0.75" style="stroke:#181818;stroke-width:0.15;" width="30.6" x="429.3" y="446.1521"/><text fill="#000000" font-family="sans-serif" font-size="4.2" lengthAdjust="spacing" textLength="26.4" x="431.4" y="452.7844">:SendAnEmail</text><rect fill="#E3E3E3" height="15.3727" rx="0.75" ry="0.75" style="stroke:#181818;stroke-width:0.15;" width="44.7" x="465.75" y="21.3"/><text fill="#000000" font-family="sans-serif" font-size="4.2" lengthAdjust="spacing" textLength="40.5" x="467.85" y="27.9322">:responseRepository:</text><text fill="#000000" font-family="sans-serif" font-size="4.2" lengthAdjust="spacing" textLength="39.6" x="468.3" y="33.5186">ResponseRepository</text><rect fill="#E3E3E3" height="15.3727" rx="0.75" ry="0.75" style="stroke:#181818;stroke-width:0.15;" width="44.7" x="465.75" y="446.1521"/><text fill="#000000" font-family="sans-serif" font-size="4.2" lengthAdjust="spacing" textLength="40.5" x="467.85" y="452.7844">:responseRepository:</text><text fill="#000000" font-family="sans-serif" font-size="4.2" lengthAdjust="spacing" textLength="39.6" x="468.3" y="458.3707">ResponseRepository</text><rect fill="#FFFFFF" height="403.4795" style="stroke:#181818;stroke-width:0.3;" width="3" x="10.95" y="39.9727"/><rect fill="#FFFFFF" height="9.3873" style="stroke:#181818;stroke-width:0.3;" width="3" x="111.15" y="46.96"/><rect fill="#FFFFFF" height="377.7176" style="stroke:#181818;stroke-width:0.3;" width="3" x="111.15" y="65.7346"/><rect fill="#FFFFFF" height="319.0928" style="stroke:#181818;stroke-width:0.3;" width="3" x="223.65" y="88.2082"/><rect fill="#FFFFFF" height="12.6873" style="stroke:#181818;stroke-width:0.3;" width="3" x="225.15" y="99.9955"/><rect fill="#FFFFFF" height="9.3873" style="stroke:#181818;stroke-width:0.3;" width="3" x="290.25" y="124.1701"/><rect fill="#FFFFFF" height="9.3873" style="stroke:#181818;stroke-width:0.3;" width="3" x="290.25" y="193.7813"/><rect fill="#FFFFFF" height="9.3873" style="stroke:#181818;stroke-width:0.3;" width="3" x="290.25" y="268.8797"/><rect fill="#FFFFFF" height="9.3873" style="stroke:#181818;stroke-width:0.3;" width="3" x="322.35" y="142.9447"/><rect fill="#FFFFFF" height="9.3873" style="stroke:#181818;stroke-width:0.3;" width="3" x="322.35" y="212.5559"/><rect fill="#FFFFFF" height="9.3873" style="stroke:#181818;stroke-width:0.3;" width="3" x="322.35" y="287.6543"/><rect fill="#FFFFFF" height="9.3873" style="stroke:#181818;stroke-width:0.3;" width="3" x="361.95" y="161.7193"/><rect fill="#FFFFFF" height="9.3873" style="stroke:#181818;stroke-width:0.3;" width="3" x="405.9" y="231.3305"/><rect fill="#FFFFFF" height="9.3873" style="stroke:#181818;stroke-width:0.3;" width="3" x="405.9" y="250.1051"/><rect fill="#FFFFFF" height="46.3365" style="stroke:#181818;stroke-width:0.3;" width="3" x="443.1" y="351.5771"/><rect fill="#FFFFFF" height="9.3873" style="stroke:#181818;stroke-width:0.3;" width="3" x="486.6" y="306.4289"/><polygon fill="#181818" points="107.55,45.76,110.55,46.96,107.55,48.16,108.75,46.96" style="stroke:#181818;stroke-width:0.3;"/><line style="stroke:#181818;stroke-width:0.3;" x1="13.95" x2="109.35" y1="46.96" y2="46.96"/><text fill="#000000" font-family="sans-serif" font-size="3.9" font-weight="bold" lengthAdjust="spacing" textLength="2.1" x="16.05" y="45.3812">1</text><text fill="#000000" font-family="sans-serif" font-size="3.9" lengthAdjust="spacing" textLength="64.8" x="19.35" y="45.3812">chooses a booking request to answer</text><polygon fill="#181818" points="17.25,55.1473,14.25,56.3473,17.25,57.5473,16.05,56.3473" style="stroke:#181818;stroke-width:0.3;"/><line style="stroke:#181818;stroke-width:0.3;stroke-dasharray:2.0,2.0;" x1="15.45" x2="112.35" y1="56.3473" y2="56.3473"/><text fill="#000000" font-family="sans-serif" font-size="3.9" font-weight="bold" lengthAdjust="spacing" textLength="2.1" x="19.05" y="54.7685">2</text><text fill="#000000" font-family="sans-serif" font-size="3.9" lengthAdjust="spacing" textLength="74.7" x="22.35" y="54.7685">requests an answer to that specific request</text><polygon fill="#181818" points="107.55,64.5346,110.55,65.7346,107.55,66.9346,108.75,65.7346" style="stroke:#181818;stroke-width:0.3;"/><line style="stroke:#181818;stroke-width:0.3;" x1="13.95" x2="109.35" y1="65.7346" y2="65.7346"/><text fill="#000000" font-family="sans-serif" font-size="3.9" font-weight="bold" lengthAdjust="spacing" textLength="2.1" x="16.05" y="64.1558">3</text><text fill="#000000" font-family="sans-serif" font-size="3.9" lengthAdjust="spacing" textLength="88.2" x="19.35" y="64.1558">writes the full response, registering (or not) the visit</text><polygon fill="#181818" points="198.6,73.9219,201.6,75.1219,198.6,76.3219,199.8,75.1219" style="stroke:#181818;stroke-width:0.3;"/><line style="stroke:#181818;stroke-width:0.3;" x1="114.15" x2="200.4" y1="75.1219" y2="75.1219"/><text fill="#000000" font-family="sans-serif" font-size="3.9" font-weight="bold" lengthAdjust="spacing" textLength="2.1" x="116.25" y="73.5431">4</text><text fill="#000000" font-family="sans-serif" font-size="3.9" lengthAdjust="spacing" textLength="12.9" x="119.55" y="73.5431">creates</text><rect fill="#E3E3E3" height="9.7863" rx="0.75" ry="0.75" style="stroke:#181818;stroke-width:0.15;" width="45.9" x="202.2" y="68.1346"/><text fill="#000000" font-family="sans-serif" font-size="4.2" lengthAdjust="spacing" textLength="41.7" x="204.3" y="74.7668">:CheckVisitsController</text><polygon fill="#181818" points="220.05,87.0082,223.05,88.2082,220.05,89.4082,221.25,88.2082" style="stroke:#181818;stroke-width:0.3;"/><line style="stroke:#181818;stroke-width:0.3;" x1="114.15" x2="221.85" y1="88.2082" y2="88.2082"/><text fill="#000000" font-family="sans-serif" font-size="3.9" font-weight="bold" lengthAdjust="spacing" textLength="2.1" x="116.25" y="86.6294">5</text><text fill="#000000" font-family="sans-serif" font-size="3.9" lengthAdjust="spacing" textLength="100.5" x="119.55" y="86.6294">deleteFromRepositoryAndSendEmail(message, response)</text><line style="stroke:#181818;stroke-width:0.3;" x1="226.65" x2="240.75" y1="96.0955" y2="96.0955"/><line style="stroke:#181818;stroke-width:0.3;" x1="240.75" x2="240.75" y1="96.0955" y2="99.9955"/><line style="stroke:#181818;stroke-width:0.3;" x1="228.45" x2="240.75" y1="99.9955" y2="99.9955"/><polygon fill="#181818" points="231.45,98.7955,228.45,99.9955,231.45,101.1955,230.25,99.9955" style="stroke:#181818;stroke-width:0.3;"/><text fill="#000000" font-family="sans-serif" font-size="3.9" font-weight="bold" lengthAdjust="spacing" textLength="2.1" x="230.25" y="94.5167">6</text><text fill="#000000" font-family="sans-serif" font-size="3.9" lengthAdjust="spacing" textLength="34.8" x="233.55" y="94.5167">message.getClient()</text><line style="stroke:#181818;stroke-width:0.3;stroke-dasharray:2.0,2.0;" x1="228.15" x2="240.75" y1="112.3828" y2="112.3828"/><line style="stroke:#181818;stroke-width:0.3;stroke-dasharray:2.0,2.0;" x1="240.75" x2="240.75" y1="112.3828" y2="116.2828"/><line style="stroke:#181818;stroke-width:0.3;stroke-dasharray:2.0,2.0;" x1="226.65" x2="240.75" y1="116.2828" y2="116.2828"/><polygon fill="#181818" points="229.65,115.0828,226.65,116.2828,229.65,117.4828,228.45,116.2828" style="stroke:#181818;stroke-width:0.3;"/><text fill="#000000" font-family="sans-serif" font-size="3.9" font-weight="bold" lengthAdjust="spacing" textLength="2.1" x="230.25" y="110.804">7</text><text fill="#000000" font-family="sans-serif" font-size="3.9" lengthAdjust="spacing" textLength="9.3" x="233.55" y="110.804">client</text><polygon fill="#181818" points="286.65,122.9701,289.65,124.1701,286.65,125.3701,287.85,124.1701" style="stroke:#181818;stroke-width:0.3;"/><line style="stroke:#181818;stroke-width:0.3;" x1="226.65" x2="288.45" y1="124.1701" y2="124.1701"/><text fill="#000000" font-family="sans-serif" font-size="3.9" font-weight="bold" lengthAdjust="spacing" textLength="2.1" x="228.75" y="122.5913">8</text><text fill="#000000" font-family="sans-serif" font-size="3.9" lengthAdjust="spacing" textLength="22.5" x="232.05" y="122.5913">getInstance()</text><polygon fill="#181818" points="229.95,132.3574,226.95,133.5574,229.95,134.7574,228.75,133.5574" style="stroke:#181818;stroke-width:0.3;"/><line style="stroke:#181818;stroke-width:0.3;stroke-dasharray:2.0,2.0;" x1="228.15" x2="291.45" y1="133.5574" y2="133.5574"/><text fill="#000000" font-family="sans-serif" font-size="3.9" font-weight="bold" lengthAdjust="spacing" textLength="2.1" x="231.75" y="131.9786">9</text><text fill="#000000" font-family="sans-serif" font-size="3.9" lengthAdjust="spacing" textLength="20.1" x="235.05" y="131.9786">repositories</text><polygon fill="#181818" points="318.75,141.7447,321.75,142.9447,318.75,144.1447,319.95,142.9447" style="stroke:#181818;stroke-width:0.3;"/><line style="stroke:#181818;stroke-width:0.3;" x1="226.65" x2="320.55" y1="142.9447" y2="142.9447"/><text fill="#000000" font-family="sans-serif" font-size="3.9" font-weight="bold" lengthAdjust="spacing" textLength="4.2" x="228.75" y="141.3659">10</text><text fill="#000000" font-family="sans-serif" font-size="3.9" lengthAdjust="spacing" textLength="42.3" x="234.15" y="141.3659">getMessageRepository()</text><polygon fill="#181818" points="229.95,151.132,226.95,152.332,229.95,153.532,228.75,152.332" style="stroke:#181818;stroke-width:0.3;"/><line style="stroke:#181818;stroke-width:0.3;stroke-dasharray:2.0,2.0;" x1="228.15" x2="323.55" y1="152.332" y2="152.332"/><text fill="#000000" font-family="sans-serif" font-size="3.9" font-weight="bold" lengthAdjust="spacing" textLength="4.2" x="231.75" y="150.7532">11</text><text fill="#000000" font-family="sans-serif" font-size="3.9" lengthAdjust="spacing" textLength="34.5" x="237.15" y="150.7532">messageRepository</text><polygon fill="#181818" points="358.35,160.5193,361.35,161.7193,358.35,162.9193,359.55,161.7193" style="stroke:#181818;stroke-width:0.3;"/><line style="stroke:#181818;stroke-width:0.3;" x1="226.65" x2="360.15" y1="161.7193" y2="161.7193"/><text fill="#000000" font-family="sans-serif" font-size="3.9" font-weight="bold" lengthAdjust="spacing" textLength="4.2" x="228.75" y="160.1405">12</text><text fill="#000000" font-family="sans-serif" font-size="3.9" lengthAdjust="spacing" textLength="25.8" x="234.15" y="160.1405">getMessages()</text><polygon fill="#181818" points="229.95,169.9066,226.95,171.1066,229.95,172.3066,228.75,171.1066" style="stroke:#181818;stroke-width:0.3;"/><line style="stroke:#181818;stroke-width:0.3;stroke-dasharray:2.0,2.0;" x1="228.15" x2="363.15" y1="171.1066" y2="171.1066"/><text fill="#000000" font-family="sans-serif" font-size="3.9" font-weight="bold" lengthAdjust="spacing" textLength="4.2" x="231.75" y="169.5278">13</text><text fill="#000000" font-family="sans-serif" font-size="3.9" lengthAdjust="spacing" textLength="22.2" x="237.15" y="169.5278">messageList</text><line style="stroke:#181818;stroke-width:0.3;" x1="226.65" x2="239.25" y1="180.4939" y2="180.4939"/><line style="stroke:#181818;stroke-width:0.3;" x1="239.25" x2="239.25" y1="180.4939" y2="184.3939"/><line style="stroke:#181818;stroke-width:0.3;" x1="226.95" x2="239.25" y1="184.3939" y2="184.3939"/><polygon fill="#181818" points="229.95,183.1939,226.95,184.3939,229.95,185.5939,228.75,184.3939" style="stroke:#181818;stroke-width:0.3;"/><text fill="#000000" font-family="sans-serif" font-size="3.9" font-weight="bold" lengthAdjust="spacing" textLength="4.2" x="228.75" y="178.9151">14</text><text fill="#000000" font-family="sans-serif" font-size="3.9" lengthAdjust="spacing" textLength="54" x="234.15" y="178.9151">messageList.remove(message)</text><polygon fill="#181818" points="286.65,192.5812,289.65,193.7813,286.65,194.9813,287.85,193.7813" style="stroke:#181818;stroke-width:0.3;"/><line style="stroke:#181818;stroke-width:0.3;" x1="226.65" x2="288.45" y1="193.7813" y2="193.7813"/><text fill="#000000" font-family="sans-serif" font-size="3.9" font-weight="bold" lengthAdjust="spacing" textLength="4.2" x="228.75" y="192.2024">15</text><text fill="#000000" font-family="sans-serif" font-size="3.9" lengthAdjust="spacing" textLength="22.5" x="234.15" y="192.2024">getInstance()</text><polygon fill="#181818" points="229.95,201.9686,226.95,203.1686,229.95,204.3686,228.75,203.1686" style="stroke:#181818;stroke-width:0.3;"/><line style="stroke:#181818;stroke-width:0.3;stroke-dasharray:2.0,2.0;" x1="228.15" x2="291.45" y1="203.1686" y2="203.1686"/><text fill="#000000" font-family="sans-serif" font-size="3.9" font-weight="bold" lengthAdjust="spacing" textLength="4.2" x="231.75" y="201.5897">16</text><text fill="#000000" font-family="sans-serif" font-size="3.9" lengthAdjust="spacing" textLength="20.1" x="237.15" y="201.5897">repositories</text><polygon fill="#181818" points="318.75,211.3559,321.75,212.5559,318.75,213.7559,319.95,212.5559" style="stroke:#181818;stroke-width:0.3;"/><line style="stroke:#181818;stroke-width:0.3;" x1="226.65" x2="320.55" y1="212.5559" y2="212.5559"/><text fill="#000000" font-family="sans-serif" font-size="3.9" font-weight="bold" lengthAdjust="spacing" textLength="4.2" x="228.75" y="210.9771">17</text><text fill="#000000" font-family="sans-serif" font-size="3.9" lengthAdjust="spacing" textLength="36.6" x="234.15" y="210.9771">getAgentRepository()</text><polygon fill="#181818" points="229.95,220.7432,226.95,221.9432,229.95,223.1432,228.75,221.9432" style="stroke:#181818;stroke-width:0.3;"/><line style="stroke:#181818;stroke-width:0.3;stroke-dasharray:2.0,2.0;" x1="228.15" x2="323.55" y1="221.9432" y2="221.9432"/><text fill="#000000" font-family="sans-serif" font-size="3.9" font-weight="bold" lengthAdjust="spacing" textLength="4.2" x="231.75" y="220.3644">18</text><text fill="#000000" font-family="sans-serif" font-size="3.9" lengthAdjust="spacing" textLength="28.2" x="237.15" y="220.3644">agentRepository</text><polygon fill="#181818" points="402.3,230.1305,405.3,231.3305,402.3,232.5305,403.5,231.3305" style="stroke:#181818;stroke-width:0.3;"/><line style="stroke:#181818;stroke-width:0.3;" x1="226.65" x2="404.1" y1="231.3305" y2="231.3305"/><text fill="#000000" font-family="sans-serif" font-size="3.9" font-weight="bold" lengthAdjust="spacing" textLength="4.2" x="228.75" y="229.7517">19</text><text fill="#000000" font-family="sans-serif" font-size="3.9" lengthAdjust="spacing" textLength="20.1" x="234.15" y="229.7517">getAgents()</text><polygon fill="#181818" points="229.95,239.5178,226.95,240.7178,229.95,241.9178,228.75,240.7178" style="stroke:#181818;stroke-width:0.3;"/><line style="stroke:#181818;stroke-width:0.3;stroke-dasharray:2.0,2.0;" x1="228.15" x2="407.1" y1="240.7178" y2="240.7178"/><text fill="#000000" font-family="sans-serif" font-size="3.9" font-weight="bold" lengthAdjust="spacing" textLength="4.2" x="231.75" y="239.139">20</text><text fill="#000000" font-family="sans-serif" font-size="3.9" lengthAdjust="spacing" textLength="15.9" x="237.15" y="239.139">agentList</text><polygon fill="#181818" points="402.3,248.9051,405.3,250.1051,402.3,251.3051,403.5,250.1051" style="stroke:#181818;stroke-width:0.3;"/><line style="stroke:#181818;stroke-width:0.3;" x1="226.65" x2="404.1" y1="250.1051" y2="250.1051"/><text fill="#000000" font-family="sans-serif" font-size="3.9" font-weight="bold" lengthAdjust="spacing" textLength="4.2" x="228.75" y="248.5263">21</text><text fill="#000000" font-family="sans-serif" font-size="3.9" lengthAdjust="spacing" textLength="155.4" x="234.15" y="248.5263">getAgentByEmail(authenticationRepository.getCurrentUserSession().getUserId().toString()</text><polygon fill="#181818" points="229.95,258.2924,226.95,259.4924,229.95,260.6924,228.75,259.4924" style="stroke:#181818;stroke-width:0.3;"/><line style="stroke:#181818;stroke-width:0.3;stroke-dasharray:2.0,2.0;" x1="228.15" x2="407.1" y1="259.4924" y2="259.4924"/><text fill="#000000" font-family="sans-serif" font-size="3.9" font-weight="bold" lengthAdjust="spacing" textLength="4.2" x="231.75" y="257.9136">22</text><text fill="#000000" font-family="sans-serif" font-size="3.9" lengthAdjust="spacing" textLength="22.2" x="237.15" y="257.9136">currentAgent</text><polygon fill="#181818" points="286.65,267.6797,289.65,268.8797,286.65,270.0797,287.85,268.8797" style="stroke:#181818;stroke-width:0.3;"/><line style="stroke:#181818;stroke-width:0.3;" x1="226.65" x2="288.45" y1="268.8797" y2="268.8797"/><text fill="#000000" font-family="sans-serif" font-size="3.9" font-weight="bold" lengthAdjust="spacing" textLength="4.2" x="228.75" y="267.3009">23</text><text fill="#000000" font-family="sans-serif" font-size="3.9" lengthAdjust="spacing" textLength="22.5" x="234.15" y="267.3009">getInstance()</text><polygon fill="#181818" points="229.95,277.067,226.95,278.267,229.95,279.467,228.75,278.267" style="stroke:#181818;stroke-width:0.3;"/><line style="stroke:#181818;stroke-width:0.3;stroke-dasharray:2.0,2.0;" x1="228.15" x2="291.45" y1="278.267" y2="278.267"/><text fill="#000000" font-family="sans-serif" font-size="3.9" font-weight="bold" lengthAdjust="spacing" textLength="4.2" x="231.75" y="276.6882">24</text><text fill="#000000" font-family="sans-serif" font-size="3.9" lengthAdjust="spacing" textLength="20.1" x="237.15" y="276.6882">repositories</text><polygon fill="#181818" points="318.75,286.4543,321.75,287.6543,318.75,288.8543,319.95,287.6543" style="stroke:#181818;stroke-width:0.3;"/><line style="stroke:#181818;stroke-width:0.3;" x1="226.65" x2="320.55" y1="287.6543" y2="287.6543"/><text fill="#000000" font-family="sans-serif" font-size="3.9" font-weight="bold" lengthAdjust="spacing" textLength="4.2" x="228.75" y="286.0755">25</text><text fill="#000000" font-family="sans-serif" font-size="3.9" lengthAdjust="spacing" textLength="43.8" x="234.15" y="286.0755">getResponseRepository()</text><polygon fill="#181818" points="229.95,295.8416,226.95,297.0416,229.95,298.2416,228.75,297.0416" style="stroke:#181818;stroke-width:0.3;"/><line style="stroke:#181818;stroke-width:0.3;stroke-dasharray:2.0,2.0;" x1="228.15" x2="323.55" y1="297.0416" y2="297.0416"/><text fill="#000000" font-family="sans-serif" font-size="3.9" font-weight="bold" lengthAdjust="spacing" textLength="4.2" x="231.75" y="295.4628">26</text><text fill="#000000" font-family="sans-serif" font-size="3.9" lengthAdjust="spacing" textLength="34.5" x="237.15" y="295.4628">responseRepository</text><polygon fill="#181818" points="483,305.2289,486,306.4289,483,307.6289,484.2,306.4289" style="stroke:#181818;stroke-width:0.3;"/><line style="stroke:#181818;stroke-width:0.3;" x1="226.65" x2="484.8" y1="306.4289" y2="306.4289"/><text fill="#000000" font-family="sans-serif" font-size="3.9" font-weight="bold" lengthAdjust="spacing" textLength="4.2" x="228.75" y="304.8501">27</text><text fill="#000000" font-family="sans-serif" font-size="3.9" lengthAdjust="spacing" textLength="27.3" x="234.15" y="304.8501">getResponses()</text><polygon fill="#181818" points="229.95,314.6162,226.95,315.8162,229.95,317.0162,228.75,315.8162" style="stroke:#181818;stroke-width:0.3;"/><line style="stroke:#181818;stroke-width:0.3;stroke-dasharray:2.0,2.0;" x1="228.15" x2="487.8" y1="315.8162" y2="315.8162"/><text fill="#000000" font-family="sans-serif" font-size="3.9" font-weight="bold" lengthAdjust="spacing" textLength="4.2" x="231.75" y="314.2374">28</text><text fill="#000000" font-family="sans-serif" font-size="3.9" lengthAdjust="spacing" textLength="22.2" x="237.15" y="314.2374">responseList</text><line style="stroke:#181818;stroke-width:0.3;" x1="226.65" x2="239.25" y1="325.2035" y2="325.2035"/><line style="stroke:#181818;stroke-width:0.3;" x1="239.25" x2="239.25" y1="325.2035" y2="329.1035"/><line style="stroke:#181818;stroke-width:0.3;" x1="226.95" x2="239.25" y1="329.1035" y2="329.1035"/><polygon fill="#181818" points="229.95,327.9035,226.95,329.1035,229.95,330.3035,228.75,329.1035" style="stroke:#181818;stroke-width:0.3;"/><text fill="#000000" font-family="sans-serif" font-size="3.9" font-weight="bold" lengthAdjust="spacing" textLength="4.2" x="228.75" y="323.6247">29</text><text fill="#000000" font-family="sans-serif" font-size="3.9" lengthAdjust="spacing" textLength="48" x="234.15" y="323.6247">responseList.add(response)</text><polygon fill="#181818" points="425.7,337.2908,428.7,338.4908,425.7,339.6908,426.9,338.4908" style="stroke:#181818;stroke-width:0.3;"/><line style="stroke:#181818;stroke-width:0.3;" x1="226.65" x2="427.5" y1="338.4908" y2="338.4908"/><text fill="#000000" font-family="sans-serif" font-size="3.9" font-weight="bold" lengthAdjust="spacing" textLength="4.2" x="228.75" y="336.912">30</text><text fill="#000000" font-family="sans-serif" font-size="3.9" lengthAdjust="spacing" textLength="12.9" x="234.15" y="336.912">creates</text><rect fill="#E3E3E3" height="9.7863" rx="0.75" ry="0.75" style="stroke:#181818;stroke-width:0.15;" width="30.6" x="429.3" y="331.5035"/><text fill="#000000" font-family="sans-serif" font-size="4.2" lengthAdjust="spacing" textLength="26.4" x="431.4" y="338.1357">:SendAnEmail</text><polygon fill="#181818" points="439.5,350.3771,442.5,351.5771,439.5,352.7771,440.7,351.5771" style="stroke:#181818;stroke-width:0.3;"/><line style="stroke:#181818;stroke-width:0.3;" x1="226.65" x2="441.3" y1="351.5771" y2="351.5771"/><text fill="#000000" font-family="sans-serif" font-size="3.9" font-weight="bold" lengthAdjust="spacing" textLength="4.2" x="228.75" y="349.9983">31</text><text fill="#000000" font-family="sans-serif" font-size="3.9" lengthAdjust="spacing" textLength="90.9" x="234.15" y="349.9983">sendAnEmail(message, agent, client, responseText)</text><line style="stroke:#181818;stroke-width:0.3;" x1="446.1" x2="458.7" y1="366.1518" y2="366.1518"/><line style="stroke:#181818;stroke-width:0.3;" x1="458.7" x2="458.7" y1="366.1518" y2="370.0518"/><line style="stroke:#181818;stroke-width:0.3;" x1="446.4" x2="458.7" y1="370.0518" y2="370.0518"/><polygon fill="#181818" points="449.4,368.8518,446.4,370.0518,449.4,371.2518,448.2,370.0518" style="stroke:#181818;stroke-width:0.3;"/><text fill="#000000" font-family="sans-serif" font-size="3.9" font-weight="bold" lengthAdjust="spacing" textLength="4.2" x="448.2" y="361.9793">32</text><text fill="#000000" font-family="sans-serif" font-size="3.9" lengthAdjust="spacing" textLength="30.9" x="453.6" y="359.3856">gets data from file</text><text fill="#000000" font-family="sans-serif" font-size="3.9" lengthAdjust="spacing" textLength="29.7" x="453.6" y="364.5729">'config.properties'</text><line style="stroke:#181818;stroke-width:0.3;" x1="446.1" x2="458.7" y1="384.6264" y2="384.6264"/><line style="stroke:#181818;stroke-width:0.3;" x1="458.7" x2="458.7" y1="384.6264" y2="388.5264"/><line style="stroke:#181818;stroke-width:0.3;" x1="446.4" x2="458.7" y1="388.5264" y2="388.5264"/><polygon fill="#181818" points="449.4,387.3264,446.4,388.5264,449.4,389.7264,448.2,388.5264" style="stroke:#181818;stroke-width:0.3;"/><text fill="#000000" font-family="sans-serif" font-size="3.9" font-weight="bold" lengthAdjust="spacing" textLength="4.2" x="448.2" y="380.4539">33</text><text fill="#000000" font-family="sans-serif" font-size="3.9" lengthAdjust="spacing" textLength="30.9" x="453.6" y="377.8603">sends an email to</text><text fill="#000000" font-family="sans-serif" font-size="3.9" lengthAdjust="spacing" textLength="30.3" x="453.6" y="383.0476">the specific client</text><polygon fill="#181818" points="229.95,396.7137,226.95,397.9137,229.95,399.1137,228.75,397.9137" style="stroke:#181818;stroke-width:0.3;"/><line style="stroke:#181818;stroke-width:0.3;stroke-dasharray:2.0,2.0;" x1="228.15" x2="444.3" y1="397.9137" y2="397.9137"/><text fill="#000000" font-family="sans-serif" font-size="3.9" font-weight="bold" lengthAdjust="spacing" textLength="4.2" x="231.75" y="396.3349">34</text><text fill="#000000" font-family="sans-serif" font-size="3.9" lengthAdjust="spacing" textLength="1.2" x="237.15" y="396.3349">&#160;</text><polygon fill="#181818" points="117.45,406.101,114.45,407.301,117.45,408.501,116.25,407.301" style="stroke:#181818;stroke-width:0.3;"/><line style="stroke:#181818;stroke-width:0.3;stroke-dasharray:2.0,2.0;" x1="115.65" x2="224.85" y1="407.301" y2="407.301"/><text fill="#000000" font-family="sans-serif" font-size="3.9" font-weight="bold" lengthAdjust="spacing" textLength="4.2" x="119.25" y="405.7222">35</text><text fill="#000000" font-family="sans-serif" font-size="3.9" lengthAdjust="spacing" textLength="43.2" x="124.65" y="405.7222">operation success/failure</text><path d="M3,411.801 L21.3,411.801 L21.3,414.5883 L18.3,417.5883 L3,417.5883 L3,411.801 " fill="#EEEEEE" style="stroke:#000000;stroke-width:0.44999999999999996;"/><rect fill="none" height="29.5512" style="stroke:#000000;stroke-width:0.44999999999999996;" width="128.1" x="3" y="411.801"/><text fill="#000000" font-family="sans-serif" font-size="3.9" font-weight="bold" lengthAdjust="spacing" textLength="4.8" x="7.5" y="416.3095">alt</text><text fill="#000000" font-family="sans-serif" font-size="3.3" font-weight="bold" lengthAdjust="spacing" textLength="55.2" x="25.8" y="415.962">[if the operation fails at any point]</text><polygon fill="#181818" points="17.25,423.3756,14.25,424.5756,17.25,425.7756,16.05,424.5756" style="stroke:#181818;stroke-width:0.3;"/><line style="stroke:#181818;stroke-width:0.3;stroke-dasharray:2.0,2.0;" x1="15.45" x2="110.85" y1="424.5756" y2="424.5756"/><text fill="#000000" font-family="sans-serif" font-size="3.9" font-weight="bold" lengthAdjust="spacing" textLength="4.2" x="19.05" y="422.9968">36</text><text fill="#000000" font-family="sans-serif" font-size="3.9" lengthAdjust="spacing" textLength="42.9" x="24.45" y="422.9968">displays operation failure</text><line style="stroke:#000000;stroke-width:0.3;stroke-dasharray:2.0,2.0;" x1="3" x2="131.1" y1="427.2756" y2="427.2756"/><text fill="#000000" font-family="sans-serif" font-size="3.3" font-weight="bold" lengthAdjust="spacing" textLength="19.5" x="4.5" y="430.8366">[otherwise]</text><polygon fill="#181818" points="17.25,437.7521,14.25,438.9521,17.25,440.1521,16.05,438.9521" style="stroke:#181818;stroke-width:0.3;"/><line style="stroke:#181818;stroke-width:0.3;stroke-dasharray:2.0,2.0;" x1="15.45" x2="110.85" y1="438.9521" y2="438.9521"/><text fill="#000000" font-family="sans-serif" font-size="3.9" font-weight="bold" lengthAdjust="spacing" textLength="4.2" x="19.05" y="437.3733">37</text><text fill="#000000" font-family="sans-serif" font-size="3.9" lengthAdjust="spacing" textLength="47.4" x="24.45" y="437.3733">displays operation success</text><!--SRC=[rLPDZzem4BtxLrXxMLWjjBtqm64bohOIqbQgDajFNBpE42o2dThEKlvznoOXZXrArLDx8endthpvyjZiXAoOPdkwLrBnhLPxe5RNGCpvf69ynmh8xB44ge5R9eioL31Rbgk3a0NTiD808LPOL5qPq3IpIX_f-myVwOHcyAC6oO4-2bOumr7sE2Q4rLR9UlyA6hyvwjERUG7Itb1cgFyYwCSABYecBRsPBRR0Tz-54TQibbvhjRoiib3IQbMMeBtgukNvAL9-XagXfj82ZDSv2uwPSB4YlyX41oPhcI9yUvg_H2PxC0RJs67Frl9hBFF6YJH2OYudFPnvNz9bxY961ZAVoyzx9agl7VnFGZMLagPF_3aHDecBnRwauerPQ4f9_0-TF63HPfHlbJ9WAAElIkrS2sdN9CPIgoYJve1DSGR0AfFLaaxGzWGoQxKHG3Rgpj1kcQMc0YusWhSw98SUKi03WGvQMEHXjq0tTLdIDkfx_2g4iQ0TkH4sfrHsxFNUN7kbx1vyYztT8IZNW2Sc4ACm1sme-8AJrcLfBdDN09_-KTCezsSEuyw9xrxYaJh4nc1QW5sK0gCQnHOdWyw2UxKm8ttWWG50AyHVIeFZpo7qC3GjP0YX9U3ArirBo68GgYNbPkh48XcGa8uVFUALEuV9y8LUJnQjcmIyvzE4hj919Qdr92dKa-Xtum3CS8MTuLJ3Nhr1soNZ_wPeqNrqjMJHBNUvO15muArNhFW-9B5TK2ZlEovJ0d2TmAVZQQHnnMtnh-3C2YKxLJ-ojTPuvhPbXZN5yz7OoPrWcUEtLPbrjy_V1iDF3axNxv_4yuytKhfahlPIkiCkjrCAttTh-j6d2sy08AX6IoNkhY6aw1O8JQSipqVTWZYh1dkyju86pl7KTF-wjUER_xxP4TqMUe6VDeWyV32G43LnWhapD6UMqGqkFReH9QpbBLTo8ufffLK5-Dm0S_jx54VLhtdm0glMqYtXyvPlLbeVfCbTcEUGztaj-YU08-BdavgQSyp6kmqgrHhIFSbAIyN6lm8wAwUD32sIFD9A2MGJlLPoOQgI7Krav5m0FfofGa1z4FY4lcxOS2GOJlIoYKUS_080]--></g></svg>