<?xml version="1.0" encoding="us-ascii" standalone="no"?><svg xmlns="http://www.w3.org/2000/svg" xmlns:xlink="http://www.w3.org/1999/xlink" contentStyleType="text/css" height="431px" preserveAspectRatio="none" style="width:1302px;height:431px;background:#FFFFFF;" version="1.1" viewBox="0 0 1302 431" width="1302px" zoomAndPan="magnify"><defs/><g><text fill="#000000" font-family="sans-serif" font-size="14" font-weight="bold" lengthAdjust="spacing" textLength="299" x="494.75" y="25.1074">US012 Import a Legacy File - Class Diagram</text><!--class Admin--><g id="elem_Admin"><rect codeLine="6" fill="#F1F1F1" height="103.8633" id="Admin" rx="2.5" ry="2.5" style="stroke:#181818;stroke-width:0.5;" width="118" x="7" y="55.6211"/><ellipse cx="43.15" cy="71.6211" fill="#ADD1B2" rx="11" ry="11" style="stroke:#181818;stroke-width:1.0;"/><path d="M45.9156,67.4961 Q46.0719,67.2773 46.2594,67.168 Q46.4469,67.0586 46.6656,67.0586 Q47.0406,67.0586 47.275,67.3242 Q47.5094,67.5742 47.5094,68.1836 L47.5094,69.6367 Q47.5094,70.2461 47.275,70.5117 Q47.0406,70.7773 46.6656,70.7773 Q46.3219,70.7773 46.1188,70.5742 Q45.9156,70.3867 45.8063,69.8711 Q45.7594,69.5117 45.5719,69.3242 Q45.2438,68.9492 44.6344,68.7305 Q44.025,68.5117 43.4,68.5117 Q42.6344,68.5117 41.9938,68.8398 Q41.3688,69.168 40.8688,69.918 Q40.3844,70.668 40.3844,71.6992 L40.3844,72.793 Q40.3844,74.0273 41.275,74.8555 Q42.1656,75.668 43.7594,75.668 Q44.6969,75.668 45.3531,75.418 Q45.7438,75.2617 46.1656,74.8242 Q46.4313,74.5586 46.5719,74.4805 Q46.7281,74.4023 46.9313,74.4023 Q47.2594,74.4023 47.5094,74.668 Q47.775,74.918 47.775,75.2617 Q47.775,75.6055 47.4313,76.0117 Q46.9313,76.5898 46.1344,76.918 Q45.0563,77.3711 43.7594,77.3711 Q42.2438,77.3711 41.0406,76.7461 Q40.0563,76.2461 39.3688,75.1836 Q38.6813,74.1055 38.6813,72.8242 L38.6813,71.668 Q38.6813,70.3398 39.2906,69.1992 Q39.9156,68.043 41.0094,67.4336 Q42.1031,66.8086 43.3375,66.8086 Q44.0719,66.8086 44.7125,66.9805 Q45.3688,67.1367 45.9156,67.4961 Z " fill="#000000"/><text fill="#000000" font-family="sans-serif" font-size="14" lengthAdjust="spacing" textLength="39" x="61.85" y="77.418">Admin</text><line style="stroke:#181818;stroke-width:0.5;" x1="8" x2="124" y1="87.6211" y2="87.6211"/><text fill="#000000" font-family="sans-serif" font-size="14" lengthAdjust="spacing" textLength="81" x="13" y="106.7285">-String name</text><text fill="#000000" font-family="sans-serif" font-size="14" lengthAdjust="spacing" textLength="79" x="13" y="125.3496">-String email</text><text fill="#000000" font-family="sans-serif" font-size="14" lengthAdjust="spacing" textLength="106" x="13" y="143.9707">-String password</text><line style="stroke:#181818;stroke-width:0.5;" x1="8" x2="124" y1="151.4844" y2="151.4844"/></g><!--class Store--><g id="elem_Store"><rect codeLine="12" fill="#F1F1F1" height="141.1055" id="Store" rx="2.5" ry="2.5" style="stroke:#181818;stroke-width:0.5;" width="147" x="1148.5" y="274.1211"/><ellipse cx="1200.75" cy="290.1211" fill="#ADD1B2" rx="11" ry="11" style="stroke:#181818;stroke-width:1.0;"/><path d="M1203.5156,285.9961 Q1203.6719,285.7773 1203.8594,285.668 Q1204.0469,285.5586 1204.2656,285.5586 Q1204.6406,285.5586 1204.875,285.8242 Q1205.1094,286.0742 1205.1094,286.6836 L1205.1094,288.1367 Q1205.1094,288.7461 1204.875,289.0117 Q1204.6406,289.2773 1204.2656,289.2773 Q1203.9219,289.2773 1203.7188,289.0742 Q1203.5156,288.8867 1203.4063,288.3711 Q1203.3594,288.0117 1203.1719,287.8242 Q1202.8438,287.4492 1202.2344,287.2305 Q1201.625,287.0117 1201,287.0117 Q1200.2344,287.0117 1199.5938,287.3398 Q1198.9688,287.668 1198.4688,288.418 Q1197.9844,289.168 1197.9844,290.1992 L1197.9844,291.293 Q1197.9844,292.5273 1198.875,293.3555 Q1199.7656,294.168 1201.3594,294.168 Q1202.2969,294.168 1202.9531,293.918 Q1203.3438,293.7617 1203.7656,293.3242 Q1204.0313,293.0586 1204.1719,292.9805 Q1204.3281,292.9023 1204.5313,292.9023 Q1204.8594,292.9023 1205.1094,293.168 Q1205.375,293.418 1205.375,293.7617 Q1205.375,294.1055 1205.0313,294.5117 Q1204.5313,295.0898 1203.7344,295.418 Q1202.6563,295.8711 1201.3594,295.8711 Q1199.8438,295.8711 1198.6406,295.2461 Q1197.6563,294.7461 1196.9688,293.6836 Q1196.2813,292.6055 1196.2813,291.3242 L1196.2813,290.168 Q1196.2813,288.8398 1196.8906,287.6992 Q1197.5156,286.543 1198.6094,285.9336 Q1199.7031,285.3086 1200.9375,285.3086 Q1201.6719,285.3086 1202.3125,285.4805 Q1202.9688,285.6367 1203.5156,285.9961 Z " fill="#000000"/><text fill="#000000" font-family="sans-serif" font-size="14" lengthAdjust="spacing" textLength="34" x="1221.25" y="295.918">Store</text><line style="stroke:#181818;stroke-width:0.5;" x1="1149.5" x2="1294.5" y1="306.1211" y2="306.1211"/><text fill="#000000" font-family="sans-serif" font-size="14" lengthAdjust="spacing" textLength="35" x="1154.5" y="325.2285">-int id</text><text fill="#000000" font-family="sans-serif" font-size="14" lengthAdjust="spacing" textLength="81" x="1154.5" y="343.8496">-String name</text><text fill="#000000" font-family="sans-serif" font-size="14" lengthAdjust="spacing" textLength="95" x="1154.5" y="362.4707">-String location</text><text fill="#000000" font-family="sans-serif" font-size="14" lengthAdjust="spacing" textLength="135" x="1154.5" y="381.0918">-String phoneNumber</text><text fill="#000000" font-family="sans-serif" font-size="14" lengthAdjust="spacing" textLength="79" x="1154.5" y="399.7129">-String email</text><line style="stroke:#181818;stroke-width:0.5;" x1="1149.5" x2="1294.5" y1="407.2266" y2="407.2266"/></g><!--class Property--><g id="elem_Property"><rect codeLine="20" fill="#F1F1F1" height="159.7266" id="Property" rx="2.5" ry="2.5" style="stroke:#181818;stroke-width:0.5;" width="201" x="832.5" y="264.6211"/><ellipse cx="901.75" cy="280.6211" fill="#B4A7E5" rx="11" ry="11" style="stroke:#181818;stroke-width:1.0;"/><path d="M902.7031,277.2617 L902.7031,283.918 L904.4219,283.918 Q905.0313,283.918 905.2969,284.1523 Q905.5625,284.3867 905.5625,284.7773 Q905.5625,285.1523 905.2969,285.3867 Q905.0313,285.6211 904.4219,285.6211 L899.2813,285.6211 Q898.6719,285.6211 898.4063,285.3867 Q898.1406,285.1523 898.1406,284.7617 Q898.1406,284.3867 898.4063,284.1523 Q898.6719,283.918 899.2813,283.918 L901,283.918 L901,277.2617 L899.2813,277.2617 Q898.6719,277.2617 898.4063,277.0273 Q898.1406,276.793 898.1406,276.4023 Q898.1406,276.0273 898.4063,275.793 Q898.6719,275.5586 899.2813,275.5586 L904.4219,275.5586 Q905.0313,275.5586 905.2969,275.793 Q905.5625,276.0273 905.5625,276.4023 Q905.5625,276.793 905.2969,277.0273 Q905.0313,277.2617 904.4219,277.2617 L902.7031,277.2617 Z " fill="#000000"/><text fill="#000000" font-family="sans-serif" font-size="14" font-style="italic" lengthAdjust="spacing" textLength="54" x="922.25" y="286.418">Property</text><line style="stroke:#181818;stroke-width:0.5;" x1="833.5" x2="1032.5" y1="296.6211" y2="296.6211"/><text fill="#000000" font-family="sans-serif" font-size="14" lengthAdjust="spacing" textLength="110" x="838.5" y="315.7285">-Request request</text><text fill="#000000" font-family="sans-serif" font-size="14" lengthAdjust="spacing" textLength="65" x="838.5" y="334.3496">-float area</text><text fill="#000000" font-family="sans-serif" font-size="14" lengthAdjust="spacing" textLength="95" x="838.5" y="352.9707">-String location</text><text fill="#000000" font-family="sans-serif" font-size="14" lengthAdjust="spacing" textLength="189" x="838.5" y="371.5918">-float distanceFromCityCentre</text><text fill="#000000" font-family="sans-serif" font-size="14" lengthAdjust="spacing" textLength="132" x="838.5" y="390.2129">-float requestedPrice</text><text fill="#000000" font-family="sans-serif" font-size="14" lengthAdjust="spacing" textLength="120" x="838.5" y="408.834">-File[] photographs</text><line style="stroke:#181818;stroke-width:0.5;" x1="833.5" x2="1032.5" y1="416.3477" y2="416.3477"/></g><!--class ImportLegacySystemUI--><g id="elem_ImportLegacySystemUI"><rect codeLine="30" fill="#F1F1F1" height="66.6211" id="ImportLegacySystemUI" rx="2.5" ry="2.5" style="stroke:#181818;stroke-width:0.5;" width="175" x="277.5" y="74.1211"/><ellipse cx="292.5" cy="90.1211" fill="#ADD1B2" rx="11" ry="11" style="stroke:#181818;stroke-width:1.0;"/><path d="M295.2656,85.9961 Q295.4219,85.7773 295.6094,85.668 Q295.7969,85.5586 296.0156,85.5586 Q296.3906,85.5586 296.625,85.8242 Q296.8594,86.0742 296.8594,86.6836 L296.8594,88.1367 Q296.8594,88.7461 296.625,89.0117 Q296.3906,89.2773 296.0156,89.2773 Q295.6719,89.2773 295.4688,89.0742 Q295.2656,88.8867 295.1563,88.3711 Q295.1094,88.0117 294.9219,87.8242 Q294.5938,87.4492 293.9844,87.2305 Q293.375,87.0117 292.75,87.0117 Q291.9844,87.0117 291.3438,87.3398 Q290.7188,87.668 290.2188,88.418 Q289.7344,89.168 289.7344,90.1992 L289.7344,91.293 Q289.7344,92.5273 290.625,93.3555 Q291.5156,94.168 293.1094,94.168 Q294.0469,94.168 294.7031,93.918 Q295.0938,93.7617 295.5156,93.3242 Q295.7813,93.0586 295.9219,92.9805 Q296.0781,92.9023 296.2813,92.9023 Q296.6094,92.9023 296.8594,93.168 Q297.125,93.418 297.125,93.7617 Q297.125,94.1055 296.7813,94.5117 Q296.2813,95.0898 295.4844,95.418 Q294.4063,95.8711 293.1094,95.8711 Q291.5938,95.8711 290.3906,95.2461 Q289.4063,94.7461 288.7188,93.6836 Q288.0313,92.6055 288.0313,91.3242 L288.0313,90.168 Q288.0313,88.8398 288.6406,87.6992 Q289.2656,86.543 290.3594,85.9336 Q291.4531,85.3086 292.6875,85.3086 Q293.4219,85.3086 294.0625,85.4805 Q294.7188,85.6367 295.2656,85.9961 Z " fill="#000000"/><text fill="#000000" font-family="sans-serif" font-size="14" lengthAdjust="spacing" textLength="143" x="306.5" y="95.918">ImportLegacySystemUI</text><line style="stroke:#181818;stroke-width:0.5;" x1="278.5" x2="451.5" y1="106.1211" y2="106.1211"/><line style="stroke:#181818;stroke-width:0.5;" x1="278.5" x2="451.5" y1="114.1211" y2="114.1211"/><text fill="#000000" font-family="sans-serif" font-size="14" lengthAdjust="spacing" textLength="39" x="283.5" y="133.2285">+run()</text></g><!--class ImportLegacySystemController--><g id="elem_ImportLegacySystemController"><rect codeLine="35" fill="#F1F1F1" height="122.4844" id="ImportLegacySystemController" rx="2.5" ry="2.5" style="stroke:#181818;stroke-width:0.5;" width="225" x="563.5" y="46.6211"/><ellipse cx="578.5" cy="62.6211" fill="#ADD1B2" rx="11" ry="11" style="stroke:#181818;stroke-width:1.0;"/><path d="M581.2656,58.4961 Q581.4219,58.2773 581.6094,58.168 Q581.7969,58.0586 582.0156,58.0586 Q582.3906,58.0586 582.625,58.3242 Q582.8594,58.5742 582.8594,59.1836 L582.8594,60.6367 Q582.8594,61.2461 582.625,61.5117 Q582.3906,61.7773 582.0156,61.7773 Q581.6719,61.7773 581.4688,61.5742 Q581.2656,61.3867 581.1563,60.8711 Q581.1094,60.5117 580.9219,60.3242 Q580.5938,59.9492 579.9844,59.7305 Q579.375,59.5117 578.75,59.5117 Q577.9844,59.5117 577.3438,59.8398 Q576.7188,60.168 576.2188,60.918 Q575.7344,61.668 575.7344,62.6992 L575.7344,63.793 Q575.7344,65.0273 576.625,65.8555 Q577.5156,66.668 579.1094,66.668 Q580.0469,66.668 580.7031,66.418 Q581.0938,66.2617 581.5156,65.8242 Q581.7813,65.5586 581.9219,65.4805 Q582.0781,65.4023 582.2813,65.4023 Q582.6094,65.4023 582.8594,65.668 Q583.125,65.918 583.125,66.2617 Q583.125,66.6055 582.7813,67.0117 Q582.2813,67.5898 581.4844,67.918 Q580.4063,68.3711 579.1094,68.3711 Q577.5938,68.3711 576.3906,67.7461 Q575.4063,67.2461 574.7188,66.1836 Q574.0313,65.1055 574.0313,63.8242 L574.0313,62.668 Q574.0313,61.3398 574.6406,60.1992 Q575.2656,59.043 576.3594,58.4336 Q577.4531,57.8086 578.6875,57.8086 Q579.4219,57.8086 580.0625,57.9805 Q580.7188,58.1367 581.2656,58.4961 Z " fill="#000000"/><text fill="#000000" font-family="sans-serif" font-size="14" lengthAdjust="spacing" textLength="193" x="592.5" y="68.418">ImportLegacySystemController</text><line style="stroke:#181818;stroke-width:0.5;" x1="564.5" x2="787.5" y1="78.6211" y2="78.6211"/><line style="stroke:#181818;stroke-width:0.5;" x1="564.5" x2="787.5" y1="86.6211" y2="86.6211"/><text fill="#000000" font-family="sans-serif" font-size="14" lengthAdjust="spacing" textLength="145" x="569.5" y="105.7285">+importFile(fileReader)</text><text fill="#000000" font-family="sans-serif" font-size="14" lengthAdjust="spacing" textLength="90" x="569.5" y="124.3496">+useLine(line)</text><text fill="#000000" font-family="sans-serif" font-size="14" lengthAdjust="spacing" textLength="181" x="569.5" y="142.9707">+createOwner(itemsPerLine)</text><text fill="#000000" font-family="sans-serif" font-size="14" lengthAdjust="spacing" textLength="193" x="569.5" y="161.5918">+createRequest(itemsPerLine)</text></g><!--class Repositories--><g id="elem_Repositories"><rect codeLine="43" fill="#F1F1F1" height="122.4844" id="Repositories" rx="2.5" ry="2.5" style="stroke:#181818;stroke-width:0.5;" width="292" x="148" y="283.6211"/><ellipse cx="250.25" cy="299.6211" fill="#ADD1B2" rx="11" ry="11" style="stroke:#181818;stroke-width:1.0;"/><path d="M253.0156,295.4961 Q253.1719,295.2773 253.3594,295.168 Q253.5469,295.0586 253.7656,295.0586 Q254.1406,295.0586 254.375,295.3242 Q254.6094,295.5742 254.6094,296.1836 L254.6094,297.6367 Q254.6094,298.2461 254.375,298.5117 Q254.1406,298.7773 253.7656,298.7773 Q253.4219,298.7773 253.2188,298.5742 Q253.0156,298.3867 252.9063,297.8711 Q252.8594,297.5117 252.6719,297.3242 Q252.3438,296.9492 251.7344,296.7305 Q251.125,296.5117 250.5,296.5117 Q249.7344,296.5117 249.0938,296.8398 Q248.4688,297.168 247.9688,297.918 Q247.4844,298.668 247.4844,299.6992 L247.4844,300.793 Q247.4844,302.0273 248.375,302.8555 Q249.2656,303.668 250.8594,303.668 Q251.7969,303.668 252.4531,303.418 Q252.8438,303.2617 253.2656,302.8242 Q253.5313,302.5586 253.6719,302.4805 Q253.8281,302.4023 254.0313,302.4023 Q254.3594,302.4023 254.6094,302.668 Q254.875,302.918 254.875,303.2617 Q254.875,303.6055 254.5313,304.0117 Q254.0313,304.5898 253.2344,304.918 Q252.1563,305.3711 250.8594,305.3711 Q249.3438,305.3711 248.1406,304.7461 Q247.1563,304.2461 246.4688,303.1836 Q245.7813,302.1055 245.7813,300.8242 L245.7813,299.668 Q245.7813,298.3398 246.3906,297.1992 Q247.0156,296.043 248.1094,295.4336 Q249.2031,294.8086 250.4375,294.8086 Q251.1719,294.8086 251.8125,294.9805 Q252.4688,295.1367 253.0156,295.4961 Z " fill="#000000"/><text fill="#000000" font-family="sans-serif" font-size="14" lengthAdjust="spacing" textLength="79" x="270.75" y="305.418">Repositories</text><line style="stroke:#181818;stroke-width:0.5;" x1="149" x2="439" y1="315.6211" y2="315.6211"/><text fill="#000000" font-family="sans-serif" font-size="14" lengthAdjust="spacing" textLength="280" x="154" y="334.7285">-PropertySoldRepository propertyRepository</text><text fill="#000000" font-family="sans-serif" font-size="14" lengthAdjust="spacing" textLength="5" x="154" y="353.3496">-</text><line style="stroke:#181818;stroke-width:0.5;" x1="149" x2="439" y1="360.8633" y2="360.8633"/><text fill="#000000" font-family="sans-serif" font-size="14" lengthAdjust="spacing" textLength="91" x="154" y="379.9707">+getInstance()</text><text fill="#000000" font-family="sans-serif" font-size="14" lengthAdjust="spacing" textLength="160" x="154" y="398.5918">+getPropertyRepository()</text></g><!--class PropertySoldRepository--><g id="elem_PropertySoldRepository"><rect codeLine="51" fill="#F1F1F1" height="159.7266" id="PropertySoldRepository" rx="2.5" ry="2.5" style="stroke:#181818;stroke-width:0.5;" width="186" x="526" y="264.6211"/><ellipse cx="542.8" cy="280.6211" fill="#ADD1B2" rx="11" ry="11" style="stroke:#181818;stroke-width:1.0;"/><path d="M545.5656,276.4961 Q545.7219,276.2773 545.9094,276.168 Q546.0969,276.0586 546.3156,276.0586 Q546.6906,276.0586 546.925,276.3242 Q547.1594,276.5742 547.1594,277.1836 L547.1594,278.6367 Q547.1594,279.2461 546.925,279.5117 Q546.6906,279.7773 546.3156,279.7773 Q545.9719,279.7773 545.7688,279.5742 Q545.5656,279.3867 545.4563,278.8711 Q545.4094,278.5117 545.2219,278.3242 Q544.8938,277.9492 544.2844,277.7305 Q543.675,277.5117 543.05,277.5117 Q542.2844,277.5117 541.6438,277.8398 Q541.0188,278.168 540.5188,278.918 Q540.0344,279.668 540.0344,280.6992 L540.0344,281.793 Q540.0344,283.0273 540.925,283.8555 Q541.8156,284.668 543.4094,284.668 Q544.3469,284.668 545.0031,284.418 Q545.3938,284.2617 545.8156,283.8242 Q546.0813,283.5586 546.2219,283.4805 Q546.3781,283.4023 546.5813,283.4023 Q546.9094,283.4023 547.1594,283.668 Q547.425,283.918 547.425,284.2617 Q547.425,284.6055 547.0813,285.0117 Q546.5813,285.5898 545.7844,285.918 Q544.7063,286.3711 543.4094,286.3711 Q541.8938,286.3711 540.6906,285.7461 Q539.7063,285.2461 539.0188,284.1836 Q538.3313,283.1055 538.3313,281.8242 L538.3313,280.668 Q538.3313,279.3398 538.9406,278.1992 Q539.5656,277.043 540.6594,276.4336 Q541.7531,275.8086 542.9875,275.8086 Q543.7219,275.8086 544.3625,275.9805 Q545.0188,276.1367 545.5656,276.4961 Z " fill="#000000"/><text fill="#000000" font-family="sans-serif" font-size="14" lengthAdjust="spacing" textLength="150" x="557.2" y="286.418">PropertySoldRepository</text><line style="stroke:#181818;stroke-width:0.5;" x1="527" x2="711" y1="296.6211" y2="296.6211"/><text fill="#000000" font-family="sans-serif" font-size="14" lengthAdjust="spacing" textLength="165" x="532" y="315.7285">-List&lt;Property&gt; properties</text><line style="stroke:#181818;stroke-width:0.5;" x1="527" x2="711" y1="323.2422" y2="323.2422"/><text fill="#000000" font-family="sans-serif" font-size="14" lengthAdjust="spacing" textLength="67" x="532" y="342.3496">+isEmpty()</text><text fill="#000000" font-family="sans-serif" font-size="14" lengthAdjust="spacing" textLength="95" x="532" y="360.9707">+add(property)</text><text fill="#000000" font-family="sans-serif" font-size="14" lengthAdjust="spacing" textLength="174" x="532" y="379.5918">+validateProperty(property)</text><text fill="#000000" font-family="sans-serif" font-size="14" lengthAdjust="spacing" textLength="111" x="532" y="398.2129">+printProperties()</text><text fill="#000000" font-family="sans-serif" font-size="14" lengthAdjust="spacing" textLength="103" x="532" y="416.834">+getProperties()</text></g><!--link Admin to ImportLegacySystemUI--><g id="link_Admin_ImportLegacySystemUI"><path codeLine="61" d="M125.07,107.6211 C167.03,107.6211 224.2,107.6211 272.21,107.6211 " fill="none" id="Admin-to-ImportLegacySystemUI" style="stroke:#181818;stroke-width:1.0;"/><polygon fill="#181818" points="277.43,107.6211,268.43,103.6211,272.43,107.6211,268.43,111.6211,277.43,107.6211" style="stroke:#181818;stroke-width:1.0;"/><text fill="#000000" font-family="sans-serif" font-size="13" lengthAdjust="spacing" textLength="116" x="143.25" y="83.6494">runs and sends .csv</text><text fill="#000000" font-family="sans-serif" font-size="13" lengthAdjust="spacing" textLength="31" x="185.75" y="100.9404">file to</text></g><!--link ImportLegacySystemUI to ImportLegacySystemController--><g id="link_ImportLegacySystemUI_ImportLegacySystemController"><path codeLine="62" d="M452.87,107.6211 C485.57,107.6211 523.23,107.6211 558.18,107.6211 " fill="none" id="ImportLegacySystemUI-to-ImportLegacySystemController" style="stroke:#181818;stroke-width:1.0;"/><polygon fill="#181818" points="563.32,107.6211,554.32,103.6211,558.32,107.6211,554.32,111.6211,563.32,107.6211" style="stroke:#181818;stroke-width:1.0;"/><text fill="#000000" font-family="sans-serif" font-size="13" lengthAdjust="spacing" textLength="74" x="471" y="100.6494">verifyFile(file)</text></g><!--link ImportLegacySystemController to ImportLegacySystemController--><g id="link_ImportLegacySystemController_ImportLegacySystemController"><path codeLine="64" d="M788.54,88.4811 C809.09,90.9011 823.5,97.2811 823.5,107.6211 C823.5,117.0711 811.46,123.2111 793.7,126.0511 " fill="none" id="ImportLegacySystemController-to-ImportLegacySystemController" style="stroke:#181818;stroke-width:1.0;"/><polygon fill="#181818" points="788.54,126.7611,798.0032,129.4902,793.4928,126.076,796.907,121.5656,788.54,126.7611" style="stroke:#181818;stroke-width:1.0;"/><text fill="#000000" font-family="sans-serif" font-size="13" lengthAdjust="spacing" textLength="117" x="829.5" y="113.1494">reads each file's line</text></g><!--link ImportLegacySystemController to Property--><g id="link_ImportLegacySystemController_Property"><path codeLine="67" d="M741.85,168.8311 C772.43,196.8011 809.29,230.5011 842.44,260.8111 " fill="none" id="ImportLegacySystemController-to-Property" style="stroke:#181818;stroke-width:1.0;"/><polygon fill="#181818" points="846.46,264.4911,842.5016,255.4727,842.7642,261.1235,837.1134,261.386,846.46,264.4911" style="stroke:#181818;stroke-width:1.0;"/><text fill="#000000" font-family="sans-serif" font-size="13" lengthAdjust="spacing" textLength="68" x="814" y="213.6494">creates one</text><text fill="#000000" font-family="sans-serif" font-size="13" lengthAdjust="spacing" textLength="70" x="813" y="230.9404">for each line</text></g><!--link ImportLegacySystemController to Repositories--><g id="link_ImportLegacySystemController_Repositories"><path codeLine="68" d="M578.12,168.8311 C522.32,203.1611 452.48,246.1211 396.01,280.8711 " fill="none" id="ImportLegacySystemController-to-Repositories" style="stroke:#181818;stroke-width:1.0;"/><polygon fill="#181818" points="391.62,283.5611,401.3825,282.26,395.8807,280.9446,397.1961,275.4428,391.62,283.5611" style="stroke:#181818;stroke-width:1.0;"/><text fill="#000000" font-family="sans-serif" font-size="13" lengthAdjust="spacing" textLength="92" x="521" y="222.1494">gets instance of</text></g><!--link Repositories to PropertySoldRepository--><g id="link_Repositories_PropertySoldRepository"><path codeLine="69" d="M440.34,344.6211 C467.51,344.6211 495.28,344.6211 520.59,344.6211 " fill="none" id="Repositories-to-PropertySoldRepository" style="stroke:#181818;stroke-width:1.0;"/><polygon fill="#181818" points="525.62,344.6211,516.62,340.6211,520.62,344.6211,516.62,348.6211,525.62,344.6211" style="stroke:#181818;stroke-width:1.0;"/><text fill="#000000" font-family="sans-serif" font-size="13" lengthAdjust="spacing" textLength="49" x="458.5" y="337.6494">contains</text></g><!--link PropertySoldRepository to Property--><g id="link_PropertySoldRepository_Property"><path codeLine="70" d="M712.36,344.6211 C748.37,344.6211 789.76,344.6211 826.89,344.6211 " fill="none" id="PropertySoldRepository-to-Property" style="stroke:#181818;stroke-width:1.0;"/><polygon fill="#181818" points="832.34,344.6211,823.34,340.6211,827.34,344.6211,823.34,348.6211,832.34,344.6211" style="stroke:#181818;stroke-width:1.0;"/><text fill="#000000" font-family="sans-serif" font-size="13" lengthAdjust="spacing" textLength="84" x="730.25" y="337.6494">contains list of</text></g><!--link Property to Store--><g id="link_Property_Store"><path codeLine="72" d="M1033.67,344.6211 C1069.39,344.6211 1109.06,344.6211 1142.74,344.6211 " fill="none" id="Property-to-Store" style="stroke:#181818;stroke-width:1.0;"/><polygon fill="#181818" points="1148.09,344.6211,1139.09,340.6211,1143.09,344.6211,1139.09,348.6211,1148.09,344.6211" style="stroke:#181818;stroke-width:1.0;"/><text fill="#000000" font-family="sans-serif" font-size="13" lengthAdjust="spacing" textLength="78" x="1052" y="337.6494">associated to</text></g><!--SRC=[XLHDYzim4BthLyoj2I5bssCe2qlQXK1eGyoUsXAqqjWPLfPSIKbmI_zxH_57d3IxkTX8C_FcpNjZXnUobVIoX4gg5rbW5ck3u555QGk38lG9OIkrEv0j89Sc32FAo10UOlJql8kuKCvcz1lXJaIA3FQKtNtu28koSZw2X2KMKjNmI1oQmZpLmcUI1IC9SOI21rsIXJzYcZ4cDxIonFw0fIJJdohEFpYlnT-kE8lEOoec6u7qTH3Zb8pax0bdwon-tPNFw2ywCJ0ZeS-bGbXvLw6FDSElyTSEGsIjZcynpOsJFA17UQLD4zGKM5U5ZzwLSuhr76tqs4LR9DGhJuflaqJVVoPgqR4yrJQ8pMPpchIHjD4pgxcmV5hmu2bdudTsD7uhTUwujJC6VLT2nvpKT9JpOurIen-BoIxWaYoE33_ug7Z0YDyE5ls862Yiq2-7eLQOYs1FPOsL2yGc4OPaKoTfvepkOpLKxVNfIamRdWN6XMrqv17JSVLVxd3sLnfmwoNRyQaBttSjcLShIFXILZ5XJQJMeuuH7_VIaEPHkzfXh6BdEqOCTKwnkM1gpOfFxw-RE0FsBu2q6W9Q7U2z2liVDja2qOchDLUn1YxFO8-UyhetU2p4cmMt0TbkvePIRI41lWkGTaJSmcNWJZW6QPOc07z_FA7p3TuHw2RCsIxDW7KEGErkWCl5MNpGzc8Lc0JZIguKhsHSK6wpcIN_0BXFNvOIcn_G37Ztd2AUJIVF_W40]--></g></svg>