<?xml version="1.0" encoding="us-ascii" standalone="no"?><svg xmlns="http://www.w3.org/2000/svg" xmlns:xlink="http://www.w3.org/1999/xlink" contentStyleType="text/css" height="438px" preserveAspectRatio="none" style="width:823px;height:438px;background:#FFFFFF;" version="1.1" viewBox="0 0 823 438" width="823px" zoomAndPan="magnify"><defs/><g><text fill="#000000" font-family="sans-serif" font-size="14" font-weight="bold" lengthAdjust="spacing" textLength="279" x="271" y="30.1074">User Story 001 - Sequence Diagram (SD)</text><rect fill="#FFFFFF" height="213.4063" style="stroke:#181818;stroke-width:1.0;" width="10" x="60" y="133.2422"/><rect fill="#FFFFFF" height="74.9121" style="stroke:#181818;stroke-width:1.0;" width="10" x="303" y="156.5332"/><rect fill="#FFFFFF" height="74.9121" style="stroke:#181818;stroke-width:1.0;" width="10" x="428" y="231.4453"/><rect fill="#FFFFFF" height="40.291" style="stroke:#181818;stroke-width:1.0;" width="10" x="562.5" y="306.3574"/><rect fill="#FFFFFF" height="9" style="stroke:#181818;stroke-width:1.0;" width="10" x="728.5" y="337.6484"/><line style="stroke:#181818;stroke-width:0.5;stroke-dasharray:5.0,5.0;" x1="65" x2="65" y1="123.2422" y2="355.6484"/><line style="stroke:#181818;stroke-width:0.5;stroke-dasharray:5.0,5.0;" x1="307.5" x2="307.5" y1="123.2422" y2="355.6484"/><line style="stroke:#181818;stroke-width:0.5;stroke-dasharray:5.0,5.0;" x1="432.5" x2="432.5" y1="196.3438" y2="355.6484"/><line style="stroke:#181818;stroke-width:0.5;stroke-dasharray:5.0,5.0;" x1="567" x2="567" y1="271.2559" y2="355.6484"/><line style="stroke:#181818;stroke-width:0.5;stroke-dasharray:5.0,5.0;" x1="733" x2="733" y1="123.2422" y2="355.6484"/><text fill="#000000" font-family="sans-serif" font-size="14" lengthAdjust="spacing" textLength="114" x="5" y="119.7285">Unregistered User</text><ellipse cx="65" cy="53.1211" fill="#E2E2F0" rx="8" ry="8" style="stroke:#181818;stroke-width:0.5;"/><path d="M65,61.1211 L65,88.1211 M52,69.1211 L78,69.1211 M65,88.1211 L52,103.1211 M65,88.1211 L78,103.1211 " fill="none" style="stroke:#181818;stroke-width:0.5;"/><text fill="#000000" font-family="sans-serif" font-size="14" lengthAdjust="spacing" textLength="114" x="5" y="369.7559">Unregistered User</text><ellipse cx="65" cy="381.7695" fill="#E2E2F0" rx="8" ry="8" style="stroke:#181818;stroke-width:0.5;"/><path d="M65,389.7695 L65,416.7695 M52,397.7695 L78,397.7695 M65,416.7695 L52,431.7695 M65,416.7695 L78,431.7695 " fill="none" style="stroke:#181818;stroke-width:0.5;"/><rect fill="#E2E2F0" height="32.6211" rx="2.5" ry="2.5" style="stroke:#181818;stroke-width:0.5;" width="95" x="260.5" y="89.6211"/><text fill="#000000" font-family="sans-serif" font-size="14" lengthAdjust="spacing" textLength="81" x="267.5" y="111.7285">:MainMenuUI</text><rect fill="#E2E2F0" height="32.6211" rx="2.5" ry="2.5" style="stroke:#181818;stroke-width:0.5;" width="95" x="260.5" y="354.6484"/><text fill="#000000" font-family="sans-serif" font-size="14" lengthAdjust="spacing" textLength="81" x="267.5" y="376.7559">:MainMenuUI</text><rect fill="#E2E2F0" height="32.6211" rx="2.5" ry="2.5" style="stroke:#181818;stroke-width:0.5;" width="79" x="393.5" y="354.6484"/><text fill="#000000" font-family="sans-serif" font-size="14" lengthAdjust="spacing" textLength="65" x="400.5" y="376.7559">:MenuItem</text><rect fill="#E2E2F0" height="32.6211" rx="2.5" ry="2.5" style="stroke:#181818;stroke-width:0.5;" width="117" x="509" y="354.6484"/><text fill="#000000" font-family="sans-serif" font-size="14" lengthAdjust="spacing" textLength="103" x="516" y="376.7559">:ListPropertiesUI</text><rect fill="#E2E2F0" height="32.6211" rx="2.5" ry="2.5" style="stroke:#181818;stroke-width:0.5;" width="167" x="650" y="89.6211"/><text fill="#000000" font-family="sans-serif" font-size="14" lengthAdjust="spacing" textLength="153" x="657" y="111.7285">:ListPropertiesController</text><rect fill="#E2E2F0" height="32.6211" rx="2.5" ry="2.5" style="stroke:#181818;stroke-width:0.5;" width="167" x="650" y="354.6484"/><text fill="#000000" font-family="sans-serif" font-size="14" lengthAdjust="spacing" textLength="153" x="657" y="376.7559">:ListPropertiesController</text><rect fill="#FFFFFF" height="213.4063" style="stroke:#181818;stroke-width:1.0;" width="10" x="60" y="133.2422"/><rect fill="#FFFFFF" height="74.9121" style="stroke:#181818;stroke-width:1.0;" width="10" x="303" y="156.5332"/><rect fill="#FFFFFF" height="74.9121" style="stroke:#181818;stroke-width:1.0;" width="10" x="428" y="231.4453"/><rect fill="#FFFFFF" height="40.291" style="stroke:#181818;stroke-width:1.0;" width="10" x="562.5" y="306.3574"/><rect fill="#FFFFFF" height="9" style="stroke:#181818;stroke-width:1.0;" width="10" x="728.5" y="337.6484"/><polygon fill="#181818" points="291,152.5332,301,156.5332,291,160.5332,295,156.5332" style="stroke:#181818;stroke-width:1.0;"/><line style="stroke:#181818;stroke-width:1.0;" x1="70" x2="297" y1="156.5332" y2="156.5332"/><text fill="#000000" font-family="sans-serif" font-size="13" font-weight="bold" lengthAdjust="spacing" textLength="7" x="77" y="151.2705">1</text><text fill="#000000" font-family="sans-serif" font-size="13" lengthAdjust="spacing" textLength="203" x="88" y="151.2705">requests to see all listed properties</text><polygon fill="#181818" points="381.5,183.8242,391.5,187.8242,381.5,191.8242,385.5,187.8242" style="stroke:#181818;stroke-width:1.0;"/><line style="stroke:#181818;stroke-width:1.0;" x1="313" x2="387.5" y1="187.8242" y2="187.8242"/><text fill="#000000" font-family="sans-serif" font-size="13" font-weight="bold" lengthAdjust="spacing" textLength="7" x="320" y="182.5615">2</text><text fill="#000000" font-family="sans-serif" font-size="13" lengthAdjust="spacing" textLength="36" x="331" y="182.5615">create</text><rect fill="#E2E2F0" height="32.6211" rx="2.5" ry="2.5" style="stroke:#181818;stroke-width:0.5;" width="79" x="393.5" y="164.5332"/><text fill="#000000" font-family="sans-serif" font-size="14" lengthAdjust="spacing" textLength="65" x="400.5" y="186.6406">:MenuItem</text><polygon fill="#181818" points="416,227.4453,426,231.4453,416,235.4453,420,231.4453" style="stroke:#181818;stroke-width:1.0;"/><line style="stroke:#181818;stroke-width:1.0;" x1="308" x2="422" y1="231.4453" y2="231.4453"/><text fill="#000000" font-family="sans-serif" font-size="13" font-weight="bold" lengthAdjust="spacing" textLength="7" x="315" y="226.1826">3</text><text fill="#000000" font-family="sans-serif" font-size="13" lengthAdjust="spacing" textLength="85" x="326" y="226.1826">getProperties()</text><polygon fill="#181818" points="497,258.7363,507,262.7363,497,266.7363,501,262.7363" style="stroke:#181818;stroke-width:1.0;"/><line style="stroke:#181818;stroke-width:1.0;" x1="438" x2="503" y1="262.7363" y2="262.7363"/><text fill="#000000" font-family="sans-serif" font-size="13" font-weight="bold" lengthAdjust="spacing" textLength="7" x="445" y="257.4736">4</text><text fill="#000000" font-family="sans-serif" font-size="13" lengthAdjust="spacing" textLength="36" x="456" y="257.4736">create</text><rect fill="#E2E2F0" height="32.6211" rx="2.5" ry="2.5" style="stroke:#181818;stroke-width:0.5;" width="117" x="509" y="239.4453"/><text fill="#000000" font-family="sans-serif" font-size="14" lengthAdjust="spacing" textLength="103" x="516" y="261.5527">:ListPropertiesUI</text><polygon fill="#181818" points="550.5,302.3574,560.5,306.3574,550.5,310.3574,554.5,306.3574" style="stroke:#181818;stroke-width:1.0;"/><line style="stroke:#181818;stroke-width:1.0;" x1="433" x2="556.5" y1="306.3574" y2="306.3574"/><text fill="#000000" font-family="sans-serif" font-size="13" font-weight="bold" lengthAdjust="spacing" textLength="7" x="440" y="301.0947">5</text><text fill="#000000" font-family="sans-serif" font-size="13" lengthAdjust="spacing" textLength="26" x="451" y="301.0947">run()</text><polygon fill="#181818" points="716.5,333.6484,726.5,337.6484,716.5,341.6484,720.5,337.6484" style="stroke:#181818;stroke-width:1.0;"/><line style="stroke:#181818;stroke-width:1.0;" x1="572.5" x2="722.5" y1="337.6484" y2="337.6484"/><text fill="#000000" font-family="sans-serif" font-size="13" font-weight="bold" lengthAdjust="spacing" textLength="7" x="579.5" y="332.3857">6</text><text fill="#000000" font-family="sans-serif" font-size="13" lengthAdjust="spacing" textLength="126" x="590.5" y="332.3857">runs item from class..</text><!--SRC=[RP71Ri8m38RlUGgB4o21s9N3Bd110cbQrmVmKjD5f4aNfvju-pbfX5QWfyJ-yzd_NxuOrsF03dhK5sofYbTB44X7TAqbnJS1Vs7ZVurhuOoMIQbeeaXhfW1LzE4AcyqBhA2Yxu6S9jWRRDF3URLVA8L3z6xeFYd8MOiUPhKBr1gE5AZ9d1aWvuEIaT5eqwEBCDkUqBWJkQ4-P4MwreTxZVGFaRfH8PUx_b46lGNVanI92oaL7qXJvSwx6BorPRlTn_jHPGVc1-DeNocGBmUnUYtRmLP2b20uCaGFJ0HeBTXaju7-XizFRxJYB1SB9n75pN8fH1r8L4-wqclftzBpHHOrT4-UJaifZRJ44DQOnyEiIJSv6zoJ2OasuPTqSx6y5KfAS6Gm6FbXS0w-0ssHURrMKqBI_W40]--></g></svg>