<?xml version="1.0" encoding="us-ascii" standalone="no"?><svg xmlns="http://www.w3.org/2000/svg" xmlns:xlink="http://www.w3.org/1999/xlink" contentStyleType="text/css" height="1096.9px" preserveAspectRatio="none" style="width:857px;height:1096px;background:#FFFFFF;" version="1.1" viewBox="0 0 857 1096" width="857.5px" zoomAndPan="magnify"><defs/><g><text fill="#000000" font-family="sans-serif" font-size="9.8" font-weight="bold" lengthAdjust="spacing" textLength="233.8" x="307.125" y="17.5752">US001 Display Listed Properties - Class Diagram</text><!--class UnregisteredUser--><g id="elem_UnregisteredUser"><rect codeLine="7" fill="#F1F1F1" height="33.6" id="UnregisteredUser" rx="1.75" ry="1.75" style="stroke:#181818;stroke-width:0.3499999999999999;" width="99.4" x="4.9" y="54.8687"/><ellipse cx="15.4" cy="66.0687" fill="#ADD1B2" rx="7.7" ry="7.7" style="stroke:#181818;stroke-width:0.6999999999999998;"/><path d="M17.3359,63.1812 Q17.4453,63.028 17.5766,62.9515 Q17.7078,62.8749 17.8609,62.8749 Q18.1234,62.8749 18.2875,63.0608 Q18.4516,63.2358 18.4516,63.6624 L18.4516,64.6796 Q18.4516,65.1062 18.2875,65.2921 Q18.1234,65.478 17.8609,65.478 Q17.6203,65.478 17.4781,65.3358 Q17.3359,65.2046 17.2594,64.8437 Q17.2266,64.5921 17.0953,64.4608 Q16.8656,64.1983 16.4391,64.0452 Q16.0125,63.8921 15.575,63.8921 Q15.0391,63.8921 14.5906,64.1218 Q14.1531,64.3515 13.8031,64.8765 Q13.4641,65.4015 13.4641,66.1233 L13.4641,66.889 Q13.4641,67.753 14.0875,68.3327 Q14.7109,68.9015 15.8266,68.9015 Q16.4828,68.9015 16.9422,68.7265 Q17.2156,68.6171 17.5109,68.3108 Q17.6969,68.1249 17.7953,68.0702 Q17.9047,68.0155 18.0469,68.0155 Q18.2766,68.0155 18.4516,68.2015 Q18.6375,68.3765 18.6375,68.6171 Q18.6375,68.8577 18.3969,69.1421 Q18.0469,69.5468 17.4891,69.7765 Q16.7344,70.0937 15.8266,70.0937 Q14.7656,70.0937 13.9234,69.6562 Q13.2344,69.3062 12.7531,68.5624 Q12.2719,67.8077 12.2719,66.9108 L12.2719,66.1015 Q12.2719,65.1718 12.6984,64.3733 Q13.1359,63.564 13.9016,63.1374 Q14.6672,62.6999 15.5312,62.6999 Q16.0453,62.6999 16.4937,62.8202 Q16.9531,62.9296 17.3359,63.1812 Z " fill="#000000"/><text fill="#000000" font-family="sans-serif" font-size="9.8" lengthAdjust="spacing" textLength="77" x="25.2" y="70.1265">UnregisteredUser</text><line style="stroke:#181818;stroke-width:0.3499999999999999;" x1="5.6" x2="103.6" y1="77.2687" y2="77.2687"/><line style="stroke:#181818;stroke-width:0.3499999999999999;" x1="5.6" x2="103.6" y1="82.8687" y2="82.8687"/></g><!--class ListPropertiesUI--><g id="elem_ListPropertiesUI"><rect codeLine="11" fill="#F1F1F1" height="59.6695" id="ListPropertiesUI" rx="1.75" ry="1.75" style="stroke:#181818;stroke-width:0.3499999999999999;" width="200.9" x="234.15" y="41.9187"/><ellipse cx="296.975" cy="53.1187" fill="#ADD1B2" rx="7.7" ry="7.7" style="stroke:#181818;stroke-width:0.6999999999999998;"/><path d="M298.9109,50.2312 Q299.0203,50.078 299.1516,50.0015 Q299.2828,49.9249 299.4359,49.9249 Q299.6984,49.9249 299.8625,50.1108 Q300.0266,50.2858 300.0266,50.7124 L300.0266,51.7296 Q300.0266,52.1562 299.8625,52.3421 Q299.6984,52.528 299.4359,52.528 Q299.1953,52.528 299.0531,52.3858 Q298.9109,52.2546 298.8344,51.8937 Q298.8016,51.6421 298.6703,51.5108 Q298.4406,51.2483 298.0141,51.0952 Q297.5875,50.9421 297.15,50.9421 Q296.6141,50.9421 296.1656,51.1718 Q295.7281,51.4015 295.3781,51.9265 Q295.0391,52.4515 295.0391,53.1733 L295.0391,53.939 Q295.0391,54.803 295.6625,55.3827 Q296.2859,55.9515 297.4016,55.9515 Q298.0578,55.9515 298.5172,55.7765 Q298.7906,55.6671 299.0859,55.3608 Q299.2719,55.1749 299.3703,55.1202 Q299.4797,55.0655 299.6219,55.0655 Q299.8516,55.0655 300.0266,55.2515 Q300.2125,55.4265 300.2125,55.6671 Q300.2125,55.9077 299.9719,56.1921 Q299.6219,56.5968 299.0641,56.8265 Q298.3094,57.1437 297.4016,57.1437 Q296.3406,57.1437 295.4984,56.7062 Q294.8094,56.3562 294.3281,55.6124 Q293.8469,54.8577 293.8469,53.9608 L293.8469,53.1515 Q293.8469,52.2218 294.2734,51.4233 Q294.7109,50.614 295.4766,50.1874 Q296.2422,49.7499 297.1062,49.7499 Q297.6203,49.7499 298.0687,49.8702 Q298.5281,49.9796 298.9109,50.2312 Z " fill="#000000"/><text fill="#000000" font-family="sans-serif" font-size="9.8" lengthAdjust="spacing" textLength="69.3" x="311.325" y="57.1765">ListPropertiesUI</text><line style="stroke:#181818;stroke-width:0.3499999999999999;" x1="234.85" x2="434.35" y1="64.3187" y2="64.3187"/><text fill="#000000" font-family="sans-serif" font-size="9.8" lengthAdjust="spacing" textLength="192.5" x="238.35" y="77.6938">ListPropertyController listPropertyController</text><line style="stroke:#181818;stroke-width:0.3499999999999999;" x1="234.85" x2="434.35" y1="82.9534" y2="82.9534"/><text fill="#000000" font-family="sans-serif" font-size="9.8" lengthAdjust="spacing" textLength="27.3" x="238.35" y="96.3286">+run()</text></g><!--class ListPropertyController--><g id="elem_ListPropertyController"><rect codeLine="17" fill="#F1F1F1" height="59.6695" id="ListPropertyController" rx="1.75" ry="1.75" style="stroke:#181818;stroke-width:0.3499999999999999;" width="181.3" x="243.95" y="252.2687"/><ellipse cx="283.325" cy="263.4687" fill="#ADD1B2" rx="7.7" ry="7.7" style="stroke:#181818;stroke-width:0.6999999999999998;"/><path d="M285.2609,260.5812 Q285.3703,260.428 285.5016,260.3515 Q285.6328,260.2749 285.7859,260.2749 Q286.0484,260.2749 286.2125,260.4608 Q286.3766,260.6358 286.3766,261.0624 L286.3766,262.0796 Q286.3766,262.5062 286.2125,262.6921 Q286.0484,262.878 285.7859,262.878 Q285.5453,262.878 285.4031,262.7358 Q285.2609,262.6046 285.1844,262.2437 Q285.1516,261.9921 285.0203,261.8608 Q284.7906,261.5983 284.3641,261.4452 Q283.9375,261.2921 283.5,261.2921 Q282.9641,261.2921 282.5156,261.5218 Q282.0781,261.7515 281.7281,262.2765 Q281.3891,262.8015 281.3891,263.5233 L281.3891,264.289 Q281.3891,265.153 282.0125,265.7327 Q282.6359,266.3015 283.7516,266.3015 Q284.4078,266.3015 284.8672,266.1265 Q285.1406,266.0171 285.4359,265.7108 Q285.6219,265.5249 285.7203,265.4702 Q285.8297,265.4155 285.9719,265.4155 Q286.2016,265.4155 286.3766,265.6015 Q286.5625,265.7765 286.5625,266.0171 Q286.5625,266.2577 286.3219,266.5421 Q285.9719,266.9468 285.4141,267.1765 Q284.6594,267.4937 283.7516,267.4937 Q282.6906,267.4937 281.8484,267.0562 Q281.1594,266.7062 280.6781,265.9624 Q280.1969,265.2077 280.1969,264.3108 L280.1969,263.5015 Q280.1969,262.5718 280.6234,261.7733 Q281.0609,260.964 281.8266,260.5374 Q282.5922,260.0999 283.4562,260.0999 Q283.9703,260.0999 284.4187,260.2202 Q284.8781,260.3296 285.2609,260.5812 Z " fill="#000000"/><text fill="#000000" font-family="sans-serif" font-size="9.8" lengthAdjust="spacing" textLength="96.6" x="297.675" y="267.5265">ListPropertyController</text><line style="stroke:#181818;stroke-width:0.3499999999999999;" x1="244.65" x2="424.55" y1="274.6687" y2="274.6687"/><text fill="#000000" font-family="sans-serif" font-size="9.8" lengthAdjust="spacing" textLength="172.9" x="248.15" y="288.0438">PropertyRepository propertyRepository</text><line style="stroke:#181818;stroke-width:0.3499999999999999;" x1="244.65" x2="424.55" y1="293.3034" y2="293.3034"/><text fill="#000000" font-family="sans-serif" font-size="9.8" lengthAdjust="spacing" textLength="109.9" x="248.15" y="306.6786">+printPropertiesToUser()</text></g><!--class Repositories--><g id="elem_Repositories"><rect codeLine="23" fill="#F1F1F1" height="85.7391" id="Repositories" rx="1.75" ry="1.75" style="stroke:#181818;stroke-width:0.3499999999999999;" width="184.8" x="133.7" y="464.0187"/><ellipse cx="195.475" cy="475.2187" fill="#ADD1B2" rx="7.7" ry="7.7" style="stroke:#181818;stroke-width:0.6999999999999998;"/><path d="M197.4109,472.3312 Q197.5203,472.178 197.6516,472.1015 Q197.7828,472.0249 197.9359,472.0249 Q198.1984,472.0249 198.3625,472.2108 Q198.5266,472.3858 198.5266,472.8124 L198.5266,473.8296 Q198.5266,474.2562 198.3625,474.4421 Q198.1984,474.628 197.9359,474.628 Q197.6953,474.628 197.5531,474.4858 Q197.4109,474.3546 197.3344,473.9937 Q197.3016,473.7421 197.1703,473.6108 Q196.9406,473.3483 196.5141,473.1952 Q196.0875,473.0421 195.65,473.0421 Q195.1141,473.0421 194.6656,473.2718 Q194.2281,473.5015 193.8781,474.0265 Q193.5391,474.5515 193.5391,475.2733 L193.5391,476.039 Q193.5391,476.903 194.1625,477.4827 Q194.7859,478.0515 195.9016,478.0515 Q196.5578,478.0515 197.0172,477.8765 Q197.2906,477.7671 197.5859,477.4608 Q197.7719,477.2749 197.8703,477.2202 Q197.9797,477.1655 198.1219,477.1655 Q198.3516,477.1655 198.5266,477.3515 Q198.7125,477.5265 198.7125,477.7671 Q198.7125,478.0077 198.4719,478.2921 Q198.1219,478.6968 197.5641,478.9265 Q196.8094,479.2437 195.9016,479.2437 Q194.8406,479.2437 193.9984,478.8062 Q193.3094,478.4562 192.8281,477.7124 Q192.3469,476.9577 192.3469,476.0608 L192.3469,475.2515 Q192.3469,474.3218 192.7734,473.5233 Q193.2109,472.714 193.9766,472.2874 Q194.7422,471.8499 195.6062,471.8499 Q196.1203,471.8499 196.5687,471.9702 Q197.0281,472.0796 197.4109,472.3312 Z " fill="#000000"/><text fill="#000000" font-family="sans-serif" font-size="9.8" lengthAdjust="spacing" textLength="55.3" x="209.825" y="479.2765">Repositories</text><line style="stroke:#181818;stroke-width:0.3499999999999999;" x1="134.4" x2="317.8" y1="486.4187" y2="486.4187"/><text fill="#000000" font-family="sans-serif" font-size="9.8" lengthAdjust="spacing" textLength="98.7" x="137.9" y="499.7938">-Repositories instance</text><text fill="#000000" font-family="sans-serif" font-size="9.8" lengthAdjust="spacing" textLength="176.4" x="137.9" y="512.8286">-PropertyRepository propertyRepository</text><line style="stroke:#181818;stroke-width:0.3499999999999999;" x1="134.4" x2="317.8" y1="518.0882" y2="518.0882"/><text fill="#000000" font-family="sans-serif" font-size="9.8" lengthAdjust="spacing" textLength="63.7" x="137.9" y="531.4634">+getInstance()</text><text fill="#000000" font-family="sans-serif" font-size="9.8" lengthAdjust="spacing" textLength="112" x="137.9" y="544.4981">+getPropertyRepository()</text></g><!--class PropertyRepository--><g id="elem_PropertyRepository"><rect codeLine="31" fill="#F1F1F1" height="111.8086" id="PropertyRepository" rx="1.75" ry="1.75" style="stroke:#181818;stroke-width:0.3499999999999999;" width="130.2" x="378.7" y="450.7187"/><ellipse cx="399.28" cy="461.9187" fill="#ADD1B2" rx="7.7" ry="7.7" style="stroke:#181818;stroke-width:0.6999999999999998;"/><path d="M401.2159,459.0312 Q401.3253,458.878 401.4566,458.8015 Q401.5878,458.7249 401.7409,458.7249 Q402.0034,458.7249 402.1675,458.9108 Q402.3316,459.0858 402.3316,459.5124 L402.3316,460.5296 Q402.3316,460.9562 402.1675,461.1421 Q402.0034,461.328 401.7409,461.328 Q401.5003,461.328 401.3581,461.1858 Q401.2159,461.0546 401.1394,460.6937 Q401.1066,460.4421 400.9753,460.3108 Q400.7456,460.0483 400.3191,459.8952 Q399.8925,459.7421 399.455,459.7421 Q398.9191,459.7421 398.4706,459.9718 Q398.0331,460.2015 397.6831,460.7265 Q397.3441,461.2515 397.3441,461.9733 L397.3441,462.739 Q397.3441,463.603 397.9675,464.1827 Q398.5909,464.7515 399.7066,464.7515 Q400.3628,464.7515 400.8222,464.5765 Q401.0956,464.4671 401.3909,464.1608 Q401.5769,463.9749 401.6753,463.9202 Q401.7847,463.8655 401.9269,463.8655 Q402.1566,463.8655 402.3316,464.0515 Q402.5175,464.2265 402.5175,464.4671 Q402.5175,464.7077 402.2769,464.9921 Q401.9269,465.3968 401.3691,465.6265 Q400.6144,465.9437 399.7066,465.9437 Q398.6456,465.9437 397.8034,465.5062 Q397.1144,465.1562 396.6331,464.4124 Q396.1519,463.6577 396.1519,462.7608 L396.1519,461.9515 Q396.1519,461.0218 396.5784,460.2233 Q397.0159,459.414 397.7816,458.9874 Q398.5472,458.5499 399.4112,458.5499 Q399.9253,458.5499 400.3737,458.6702 Q400.8331,458.7796 401.2159,459.0312 Z " fill="#000000"/><text fill="#000000" font-family="sans-serif" font-size="9.8" lengthAdjust="spacing" textLength="85.4" x="411.32" y="465.9765">PropertyRepository</text><line style="stroke:#181818;stroke-width:0.3499999999999999;" x1="379.4" x2="508.2" y1="473.1187" y2="473.1187"/><text fill="#000000" font-family="sans-serif" font-size="9.8" lengthAdjust="spacing" textLength="115.5" x="382.9" y="486.4938">-List&lt;Property&gt; properties</text><line style="stroke:#181818;stroke-width:0.3499999999999999;" x1="379.4" x2="508.2" y1="491.7534" y2="491.7534"/><text fill="#000000" font-family="sans-serif" font-size="9.8" lengthAdjust="spacing" textLength="46.9" x="382.9" y="505.1286">+isEmpty()</text><text fill="#000000" font-family="sans-serif" font-size="9.8" lengthAdjust="spacing" textLength="66.5" x="382.9" y="518.1634">+add(property)</text><text fill="#000000" font-family="sans-serif" font-size="9.8" lengthAdjust="spacing" textLength="121.8" x="382.9" y="531.1981">+validateProperty(property)</text><text fill="#000000" font-family="sans-serif" font-size="9.8" lengthAdjust="spacing" textLength="77.7" x="382.9" y="544.2329">+printProperties()</text><text fill="#000000" font-family="sans-serif" font-size="9.8" lengthAdjust="spacing" textLength="72.1" x="382.9" y="557.2677">+getProperties()</text></g><!--class Property--><g id="elem_Property"><rect codeLine="41" fill="#F1F1F1" height="59.6695" id="Property" rx="1.75" ry="1.75" style="stroke:#181818;stroke-width:0.3499999999999999;" width="77" x="405.3" y="657.2187"/><ellipse cx="423.36" cy="668.4187" fill="#B4A7E5" rx="7.7" ry="7.7" style="stroke:#181818;stroke-width:0.6999999999999998;"/><path d="M424.0272,666.0671 L424.0272,670.7265 L425.2303,670.7265 Q425.6569,670.7265 425.8428,670.8905 Q426.0287,671.0546 426.0287,671.328 Q426.0287,671.5905 425.8428,671.7546 Q425.6569,671.9187 425.2303,671.9187 L421.6319,671.9187 Q421.2053,671.9187 421.0194,671.7546 Q420.8334,671.5905 420.8334,671.3171 Q420.8334,671.0546 421.0194,670.8905 Q421.2053,670.7265 421.6319,670.7265 L422.835,670.7265 L422.835,666.0671 L421.6319,666.0671 Q421.2053,666.0671 421.0194,665.903 Q420.8334,665.739 420.8334,665.4655 Q420.8334,665.203 421.0194,665.039 Q421.2053,664.8749 421.6319,664.8749 L425.2303,664.8749 Q425.6569,664.8749 425.8428,665.039 Q426.0287,665.203 426.0287,665.4655 Q426.0287,665.739 425.8428,665.903 Q425.6569,666.0671 425.2303,666.0671 L424.0272,666.0671 Z " fill="#000000"/><text fill="#000000" font-family="sans-serif" font-size="9.8" font-style="italic" lengthAdjust="spacing" textLength="37.8" x="434.84" y="672.4765">Property</text><line style="stroke:#181818;stroke-width:0.3499999999999999;" x1="406" x2="481.6" y1="679.6187" y2="679.6187"/><line style="stroke:#181818;stroke-width:0.3499999999999999;" x1="406" x2="481.6" y1="685.2187" y2="685.2187"/><text fill="#000000" font-family="sans-serif" font-size="9.8" lengthAdjust="spacing" textLength="68.6" x="409.5" y="698.5938">+equals(object)</text><text fill="#000000" font-family="sans-serif" font-size="9.8" lengthAdjust="spacing" textLength="36.4" x="409.5" y="711.6286">+clone()</text></g><!--class Request--><g id="elem_Request"><rect codeLine="47" fill="#F1F1F1" height="137.8781" id="Request" rx="1.75" ry="1.75" style="stroke:#181818;stroke-width:0.3499999999999999;" width="116.9" x="542.15" y="618.0187"/><ellipse cx="579.075" cy="629.2187" fill="#ADD1B2" rx="7.7" ry="7.7" style="stroke:#181818;stroke-width:0.6999999999999998;"/><path d="M581.0109,626.3312 Q581.1203,626.178 581.2516,626.1015 Q581.3828,626.0249 581.5359,626.0249 Q581.7984,626.0249 581.9625,626.2108 Q582.1266,626.3858 582.1266,626.8124 L582.1266,627.8296 Q582.1266,628.2562 581.9625,628.4421 Q581.7984,628.628 581.5359,628.628 Q581.2953,628.628 581.1531,628.4858 Q581.0109,628.3546 580.9344,627.9937 Q580.9016,627.7421 580.7703,627.6108 Q580.5406,627.3483 580.1141,627.1952 Q579.6875,627.0421 579.25,627.0421 Q578.7141,627.0421 578.2656,627.2718 Q577.8281,627.5015 577.4781,628.0265 Q577.1391,628.5515 577.1391,629.2733 L577.1391,630.039 Q577.1391,630.903 577.7625,631.4827 Q578.3859,632.0515 579.5016,632.0515 Q580.1578,632.0515 580.6172,631.8765 Q580.8906,631.7671 581.1859,631.4608 Q581.3719,631.2749 581.4703,631.2202 Q581.5797,631.1655 581.7219,631.1655 Q581.9516,631.1655 582.1266,631.3515 Q582.3125,631.5265 582.3125,631.7671 Q582.3125,632.0077 582.0719,632.2921 Q581.7219,632.6968 581.1641,632.9265 Q580.4094,633.2437 579.5016,633.2437 Q578.4406,633.2437 577.5984,632.8062 Q576.9094,632.4562 576.4281,631.7124 Q575.9469,630.9577 575.9469,630.0608 L575.9469,629.2515 Q575.9469,628.3218 576.3734,627.5233 Q576.8109,626.714 577.5766,626.2874 Q578.3422,625.8499 579.2062,625.8499 Q579.7203,625.8499 580.1687,625.9702 Q580.6281,626.0796 581.0109,626.3312 Z " fill="#000000"/><text fill="#000000" font-family="sans-serif" font-size="9.8" lengthAdjust="spacing" textLength="37.1" x="593.425" y="633.2765">Request</text><line style="stroke:#181818;stroke-width:0.3499999999999999;" x1="542.85" x2="658.35" y1="640.4187" y2="640.4187"/><text fill="#000000" font-family="sans-serif" font-size="9.8" lengthAdjust="spacing" textLength="51.1" x="546.35" y="653.7938">-String type</text><text fill="#000000" font-family="sans-serif" font-size="9.8" lengthAdjust="spacing" textLength="46.9" x="546.35" y="666.8286">-float price</text><text fill="#000000" font-family="sans-serif" font-size="9.8" lengthAdjust="spacing" textLength="70.7" x="546.35" y="679.8634">-String priceUnit</text><text fill="#000000" font-family="sans-serif" font-size="9.8" lengthAdjust="spacing" textLength="97.3" x="546.35" y="692.8981">-boolean isItPublished</text><text fill="#000000" font-family="sans-serif" font-size="9.8" lengthAdjust="spacing" textLength="104.3" x="546.35" y="705.9329">-String commissionDate</text><text fill="#000000" font-family="sans-serif" font-size="9.8" lengthAdjust="spacing" textLength="61.6" x="546.35" y="718.9677">-Owner owner</text><text fill="#000000" font-family="sans-serif" font-size="9.8" lengthAdjust="spacing" textLength="108.5" x="546.35" y="732.0024">-String commissionValue</text><text fill="#000000" font-family="sans-serif" font-size="9.8" lengthAdjust="spacing" textLength="53.2" x="546.35" y="745.0372">-int duration</text><line style="stroke:#181818;stroke-width:0.3499999999999999;" x1="542.85" x2="658.35" y1="750.2968" y2="750.2968"/></g><!--class Land--><g id="elem_Land"><rect codeLine="58" fill="#F1F1F1" height="176.9824" id="Land" rx="1.75" ry="1.75" style="stroke:#181818;stroke-width:0.3499999999999999;" width="140.7" x="208.25" y="863.3687"/><ellipse cx="264.425" cy="874.5687" fill="#ADD1B2" rx="7.7" ry="7.7" style="stroke:#181818;stroke-width:0.6999999999999998;"/><path d="M266.3609,871.6812 Q266.4703,871.528 266.6016,871.4515 Q266.7328,871.3749 266.8859,871.3749 Q267.1484,871.3749 267.3125,871.5608 Q267.4766,871.7358 267.4766,872.1624 L267.4766,873.1796 Q267.4766,873.6062 267.3125,873.7921 Q267.1484,873.978 266.8859,873.978 Q266.6453,873.978 266.5031,873.8358 Q266.3609,873.7046 266.2844,873.3437 Q266.2516,873.0921 266.1203,872.9608 Q265.8906,872.6983 265.4641,872.5452 Q265.0375,872.3921 264.6,872.3921 Q264.0641,872.3921 263.6156,872.6218 Q263.1781,872.8515 262.8281,873.3765 Q262.4891,873.9015 262.4891,874.6233 L262.4891,875.389 Q262.4891,876.253 263.1125,876.8327 Q263.7359,877.4015 264.8516,877.4015 Q265.5078,877.4015 265.9672,877.2265 Q266.2406,877.1171 266.5359,876.8108 Q266.7219,876.6249 266.8203,876.5702 Q266.9297,876.5155 267.0719,876.5155 Q267.3016,876.5155 267.4766,876.7015 Q267.6625,876.8765 267.6625,877.1171 Q267.6625,877.3577 267.4219,877.6421 Q267.0719,878.0468 266.5141,878.2765 Q265.7594,878.5937 264.8516,878.5937 Q263.7906,878.5937 262.9484,878.1562 Q262.2594,877.8062 261.7781,877.0624 Q261.2969,876.3077 261.2969,875.4108 L261.2969,874.6015 Q261.2969,873.6718 261.7234,872.8733 Q262.1609,872.064 262.9266,871.6374 Q263.6922,871.1999 264.5562,871.1999 Q265.0703,871.1999 265.5187,871.3202 Q265.9781,871.4296 266.3609,871.6812 Z " fill="#000000"/><text fill="#000000" font-family="sans-serif" font-size="9.8" lengthAdjust="spacing" textLength="22.4" x="278.775" y="878.6265">Land</text><line style="stroke:#181818;stroke-width:0.3499999999999999;" x1="208.95" x2="348.25" y1="885.7687" y2="885.7687"/><text fill="#000000" font-family="sans-serif" font-size="9.8" lengthAdjust="spacing" textLength="45.5" x="212.45" y="899.1438">-float area</text><text fill="#000000" font-family="sans-serif" font-size="9.8" lengthAdjust="spacing" textLength="66.5" x="212.45" y="912.1786">-String location</text><text fill="#000000" font-family="sans-serif" font-size="9.8" lengthAdjust="spacing" textLength="132.3" x="212.45" y="925.2134">-float distanceFromCityCentre</text><text fill="#000000" font-family="sans-serif" font-size="9.8" lengthAdjust="spacing" textLength="57.4" x="212.45" y="938.2481">-Agent agent</text><text fill="#000000" font-family="sans-serif" font-size="9.8" lengthAdjust="spacing" textLength="84" x="212.45" y="951.2829">-File[] photographs</text><text fill="#000000" font-family="sans-serif" font-size="9.8" lengthAdjust="spacing" textLength="65.8" x="212.45" y="964.3177">-float finalPrice</text><text fill="#000000" font-family="sans-serif" font-size="9.8" lengthAdjust="spacing" textLength="119" x="212.45" y="977.3524">-String announcementDate</text><text fill="#000000" font-family="sans-serif" font-size="9.8" lengthAdjust="spacing" textLength="77" x="212.45" y="990.3872">-Request request</text><line style="stroke:#181818;stroke-width:0.3499999999999999;" x1="208.95" x2="348.25" y1="995.6468" y2="995.6468"/><text fill="#000000" font-family="sans-serif" font-size="9.8" lengthAdjust="spacing" textLength="68.6" x="212.45" y="1009.022">+equals(object)</text><text fill="#000000" font-family="sans-serif" font-size="9.8" lengthAdjust="spacing" textLength="36.4" x="212.45" y="1022.0567">+clone()</text><text fill="#000000" font-family="sans-serif" font-size="9.8" lengthAdjust="spacing" textLength="46.9" x="212.45" y="1035.0915">+toString()</text></g><!--class Apartment--><g id="elem_Apartment"><rect codeLine="73" fill="#F1F1F1" height="242.1562" id="Apartment" rx="1.75" ry="1.75" style="stroke:#181818;stroke-width:0.3499999999999999;" width="140.7" x="373.45" y="830.8187"/><ellipse cx="418.075" cy="842.0187" fill="#ADD1B2" rx="7.7" ry="7.7" style="stroke:#181818;stroke-width:0.6999999999999998;"/><path d="M420.0109,839.1312 Q420.1203,838.978 420.2516,838.9015 Q420.3828,838.8249 420.5359,838.8249 Q420.7984,838.8249 420.9625,839.0108 Q421.1266,839.1858 421.1266,839.6124 L421.1266,840.6296 Q421.1266,841.0562 420.9625,841.2421 Q420.7984,841.428 420.5359,841.428 Q420.2953,841.428 420.1531,841.2858 Q420.0109,841.1546 419.9344,840.7937 Q419.9016,840.5421 419.7703,840.4108 Q419.5406,840.1483 419.1141,839.9952 Q418.6875,839.8421 418.25,839.8421 Q417.7141,839.8421 417.2656,840.0718 Q416.8281,840.3015 416.4781,840.8265 Q416.1391,841.3515 416.1391,842.0733 L416.1391,842.839 Q416.1391,843.703 416.7625,844.2827 Q417.3859,844.8515 418.5016,844.8515 Q419.1578,844.8515 419.6172,844.6765 Q419.8906,844.5671 420.1859,844.2608 Q420.3719,844.0749 420.4703,844.0202 Q420.5797,843.9655 420.7219,843.9655 Q420.9516,843.9655 421.1266,844.1515 Q421.3125,844.3265 421.3125,844.5671 Q421.3125,844.8077 421.0719,845.0921 Q420.7219,845.4968 420.1641,845.7265 Q419.4094,846.0437 418.5016,846.0437 Q417.4406,846.0437 416.5984,845.6062 Q415.9094,845.2562 415.4281,844.5124 Q414.9469,843.7577 414.9469,842.8608 L414.9469,842.0515 Q414.9469,841.1218 415.3734,840.3233 Q415.8109,839.514 416.5766,839.0874 Q417.3422,838.6499 418.2062,838.6499 Q418.7203,838.6499 419.1687,838.7702 Q419.6281,838.8796 420.0109,839.1312 Z " fill="#000000"/><text fill="#000000" font-family="sans-serif" font-size="9.8" lengthAdjust="spacing" textLength="45.5" x="432.425" y="846.0765">Apartment</text><line style="stroke:#181818;stroke-width:0.3499999999999999;" x1="374.15" x2="513.45" y1="853.2187" y2="853.2187"/><text fill="#000000" font-family="sans-serif" font-size="9.8" lengthAdjust="spacing" textLength="45.5" x="377.65" y="866.5938">-float area</text><text fill="#000000" font-family="sans-serif" font-size="9.8" lengthAdjust="spacing" textLength="66.5" x="377.65" y="879.6286">-String location</text><text fill="#000000" font-family="sans-serif" font-size="9.8" lengthAdjust="spacing" textLength="132.3" x="377.65" y="892.6634">-float distanceFromCityCentre</text><text fill="#000000" font-family="sans-serif" font-size="9.8" lengthAdjust="spacing" textLength="57.4" x="377.65" y="905.6981">-Agent agent</text><text fill="#000000" font-family="sans-serif" font-size="9.8" lengthAdjust="spacing" textLength="91" x="377.65" y="918.7329">-int numOfBedrooms</text><text fill="#000000" font-family="sans-serif" font-size="9.8" lengthAdjust="spacing" textLength="93.8" x="377.65" y="931.7677">-int numOfBathrooms</text><text fill="#000000" font-family="sans-serif" font-size="9.8" lengthAdjust="spacing" textLength="112.7" x="377.65" y="944.8024">-int numOfParkingSpaces</text><text fill="#000000" font-family="sans-serif" font-size="9.8" lengthAdjust="spacing" textLength="105.7" x="377.65" y="957.8372">-boolean centralHeating</text><text fill="#000000" font-family="sans-serif" font-size="9.8" lengthAdjust="spacing" textLength="108.5" x="377.65" y="970.872">-boolean airConditioning</text><text fill="#000000" font-family="sans-serif" font-size="9.8" lengthAdjust="spacing" textLength="84" x="377.65" y="983.9067">-File[] photographs</text><text fill="#000000" font-family="sans-serif" font-size="9.8" lengthAdjust="spacing" textLength="65.8" x="377.65" y="996.9415">-float finalPrice</text><text fill="#000000" font-family="sans-serif" font-size="9.8" lengthAdjust="spacing" textLength="119" x="377.65" y="1009.9763">-String announcementDate</text><text fill="#000000" font-family="sans-serif" font-size="9.8" lengthAdjust="spacing" textLength="77" x="377.65" y="1023.011">-Request request</text><line style="stroke:#181818;stroke-width:0.3499999999999999;" x1="374.15" x2="513.45" y1="1028.2706" y2="1028.2706"/><text fill="#000000" font-family="sans-serif" font-size="9.8" lengthAdjust="spacing" textLength="68.6" x="377.65" y="1041.6458">+equals(object)</text><text fill="#000000" font-family="sans-serif" font-size="9.8" lengthAdjust="spacing" textLength="36.4" x="377.65" y="1054.6806">+clone()</text><text fill="#000000" font-family="sans-serif" font-size="9.8" lengthAdjust="spacing" textLength="46.9" x="377.65" y="1067.7153">+toString()</text></g><!--class House--><g id="elem_House"><rect codeLine="93" fill="#F1F1F1" height="281.2605" id="House" rx="1.75" ry="1.75" style="stroke:#181818;stroke-width:0.3499999999999999;" width="140.7" x="538.65" y="811.2187"/><ellipse cx="592.025" cy="822.4187" fill="#ADD1B2" rx="7.7" ry="7.7" style="stroke:#181818;stroke-width:0.6999999999999998;"/><path d="M593.9609,819.5312 Q594.0703,819.378 594.2016,819.3015 Q594.3328,819.2249 594.4859,819.2249 Q594.7484,819.2249 594.9125,819.4108 Q595.0766,819.5858 595.0766,820.0124 L595.0766,821.0296 Q595.0766,821.4562 594.9125,821.6421 Q594.7484,821.828 594.4859,821.828 Q594.2453,821.828 594.1031,821.6858 Q593.9609,821.5546 593.8844,821.1937 Q593.8516,820.9421 593.7203,820.8108 Q593.4906,820.5483 593.0641,820.3952 Q592.6375,820.2421 592.2,820.2421 Q591.6641,820.2421 591.2156,820.4718 Q590.7781,820.7015 590.4281,821.2265 Q590.0891,821.7515 590.0891,822.4733 L590.0891,823.239 Q590.0891,824.103 590.7125,824.6827 Q591.3359,825.2515 592.4516,825.2515 Q593.1078,825.2515 593.5672,825.0765 Q593.8406,824.9671 594.1359,824.6608 Q594.3219,824.4749 594.4203,824.4202 Q594.5297,824.3655 594.6719,824.3655 Q594.9016,824.3655 595.0766,824.5515 Q595.2625,824.7265 595.2625,824.9671 Q595.2625,825.2077 595.0219,825.4921 Q594.6719,825.8968 594.1141,826.1265 Q593.3594,826.4437 592.4516,826.4437 Q591.3906,826.4437 590.5484,826.0062 Q589.8594,825.6562 589.3781,824.9124 Q588.8969,824.1577 588.8969,823.2608 L588.8969,822.4515 Q588.8969,821.5218 589.3234,820.7233 Q589.7609,819.914 590.5266,819.4874 Q591.2922,819.0499 592.1562,819.0499 Q592.6703,819.0499 593.1187,819.1702 Q593.5781,819.2796 593.9609,819.5312 Z " fill="#000000"/><text fill="#000000" font-family="sans-serif" font-size="9.8" lengthAdjust="spacing" textLength="28" x="606.375" y="826.4765">House</text><line style="stroke:#181818;stroke-width:0.3499999999999999;" x1="539.35" x2="678.65" y1="833.6187" y2="833.6187"/><text fill="#000000" font-family="sans-serif" font-size="9.8" lengthAdjust="spacing" textLength="45.5" x="542.85" y="846.9938">-float area</text><text fill="#000000" font-family="sans-serif" font-size="9.8" lengthAdjust="spacing" textLength="66.5" x="542.85" y="860.0286">-String location</text><text fill="#000000" font-family="sans-serif" font-size="9.8" lengthAdjust="spacing" textLength="132.3" x="542.85" y="873.0634">-float distanceFromCityCentre</text><text fill="#000000" font-family="sans-serif" font-size="9.8" lengthAdjust="spacing" textLength="57.4" x="542.85" y="886.0981">-Agent agent</text><text fill="#000000" font-family="sans-serif" font-size="9.8" lengthAdjust="spacing" textLength="91" x="542.85" y="899.1329">-int numOfBedrooms</text><text fill="#000000" font-family="sans-serif" font-size="9.8" lengthAdjust="spacing" textLength="93.8" x="542.85" y="912.1677">-int numOfBathrooms</text><text fill="#000000" font-family="sans-serif" font-size="9.8" lengthAdjust="spacing" textLength="112.7" x="542.85" y="925.2024">-int numOfParkingSpaces</text><text fill="#000000" font-family="sans-serif" font-size="9.8" lengthAdjust="spacing" textLength="105.7" x="542.85" y="938.2372">-boolean centralHeating</text><text fill="#000000" font-family="sans-serif" font-size="9.8" lengthAdjust="spacing" textLength="108.5" x="542.85" y="951.272">-boolean airConditioning</text><text fill="#000000" font-family="sans-serif" font-size="9.8" lengthAdjust="spacing" textLength="85.4" x="542.85" y="964.3067">-boolean basement</text><text fill="#000000" font-family="sans-serif" font-size="9.8" lengthAdjust="spacing" textLength="107.1" x="542.85" y="977.3415">-boolean inhabitableLoft</text><text fill="#000000" font-family="sans-serif" font-size="9.8" lengthAdjust="spacing" textLength="89.6" x="542.85" y="990.3763">-String sunExposure</text><text fill="#000000" font-family="sans-serif" font-size="9.8" lengthAdjust="spacing" textLength="84" x="542.85" y="1003.411">-File[] photographs</text><text fill="#000000" font-family="sans-serif" font-size="9.8" lengthAdjust="spacing" textLength="65.8" x="542.85" y="1016.4458">-float finalPrice</text><text fill="#000000" font-family="sans-serif" font-size="9.8" lengthAdjust="spacing" textLength="119" x="542.85" y="1029.4806">-String announcementDate</text><text fill="#000000" font-family="sans-serif" font-size="9.8" lengthAdjust="spacing" textLength="77" x="542.85" y="1042.5153">-Request request</text><line style="stroke:#181818;stroke-width:0.3499999999999999;" x1="539.35" x2="678.65" y1="1047.7749" y2="1047.7749"/><text fill="#000000" font-family="sans-serif" font-size="9.8" lengthAdjust="spacing" textLength="68.6" x="542.85" y="1061.1501">+equals(object)</text><text fill="#000000" font-family="sans-serif" font-size="9.8" lengthAdjust="spacing" textLength="36.4" x="542.85" y="1074.1849">+clone()</text><text fill="#000000" font-family="sans-serif" font-size="9.8" lengthAdjust="spacing" textLength="46.9" x="542.85" y="1087.2196">+toString()</text></g><!--class EditAndSortLists--><g id="elem_EditAndSortLists"><rect codeLine="117" fill="#F1F1F1" height="203.052" id="EditAndSortLists" rx="1.75" ry="1.75" style="stroke:#181818;stroke-width:0.3499999999999999;" width="286.3" x="566.65" y="180.5187"/><ellipse cx="670.425" cy="191.7187" fill="#ADD1B2" rx="7.7" ry="7.7" style="stroke:#181818;stroke-width:0.6999999999999998;"/><path d="M672.3609,188.8312 Q672.4703,188.678 672.6016,188.6015 Q672.7328,188.5249 672.8859,188.5249 Q673.1484,188.5249 673.3125,188.7108 Q673.4766,188.8858 673.4766,189.3124 L673.4766,190.3296 Q673.4766,190.7562 673.3125,190.9421 Q673.1484,191.128 672.8859,191.128 Q672.6453,191.128 672.5031,190.9858 Q672.3609,190.8546 672.2844,190.4937 Q672.2516,190.2421 672.1203,190.1108 Q671.8906,189.8483 671.4641,189.6952 Q671.0375,189.5421 670.6,189.5421 Q670.0641,189.5421 669.6156,189.7718 Q669.1781,190.0015 668.8281,190.5265 Q668.4891,191.0515 668.4891,191.7733 L668.4891,192.539 Q668.4891,193.403 669.1125,193.9827 Q669.7359,194.5515 670.8516,194.5515 Q671.5078,194.5515 671.9672,194.3765 Q672.2406,194.2671 672.5359,193.9608 Q672.7219,193.7749 672.8203,193.7202 Q672.9297,193.6655 673.0719,193.6655 Q673.3016,193.6655 673.4766,193.8515 Q673.6625,194.0265 673.6625,194.2671 Q673.6625,194.5077 673.4219,194.7921 Q673.0719,195.1968 672.5141,195.4265 Q671.7594,195.7437 670.8516,195.7437 Q669.7906,195.7437 668.9484,195.3062 Q668.2594,194.9562 667.7781,194.2124 Q667.2969,193.4577 667.2969,192.5608 L667.2969,191.7515 Q667.2969,190.8218 667.7234,190.0233 Q668.1609,189.214 668.9266,188.7874 Q669.6922,188.3499 670.5562,188.3499 Q671.0703,188.3499 671.5187,188.4702 Q671.9781,188.5796 672.3609,188.8312 Z " fill="#000000"/><text fill="#000000" font-family="sans-serif" font-size="9.8" lengthAdjust="spacing" textLength="72.8" x="684.775" y="195.7765">EditAndSortLists</text><line style="stroke:#181818;stroke-width:0.3499999999999999;" x1="567.35" x2="852.25" y1="202.9187" y2="202.9187"/><line style="stroke:#181818;stroke-width:0.3499999999999999;" x1="567.35" x2="852.25" y1="208.5187" y2="208.5187"/><text fill="#000000" font-family="sans-serif" font-size="9.8" lengthAdjust="spacing" textLength="226.8" x="570.85" y="221.8938">+getPropertiesWithXTypeOfSale(propertyList, type)</text><text fill="#000000" font-family="sans-serif" font-size="9.8" lengthAdjust="spacing" textLength="189.7" x="570.85" y="234.9286">+getPropertiesIfTheyAreLand(propertyList)</text><text fill="#000000" font-family="sans-serif" font-size="9.8" lengthAdjust="spacing" textLength="212.8" x="570.85" y="247.9634">+getPropertiesIfTheyAreApartment(propertyList)</text><text fill="#000000" font-family="sans-serif" font-size="9.8" lengthAdjust="spacing" textLength="195.3" x="570.85" y="260.9981">+getPropertiesIfTheyAreHouse(propertyList)</text><text fill="#000000" font-family="sans-serif" font-size="9.8" lengthAdjust="spacing" textLength="216.3" x="570.85" y="274.0329">getPropertiesByXAgent(propertyList, agentEmail)</text><text fill="#000000" font-family="sans-serif" font-size="9.8" lengthAdjust="spacing" textLength="207.2" x="570.85" y="287.0677">+sortPropertiesByAscendingPrice(propertyList)</text><text fill="#000000" font-family="sans-serif" font-size="9.8" lengthAdjust="spacing" textLength="213.5" x="570.85" y="300.1024">+sortPropertiesByDescendingPrice(propertyList)</text><text fill="#000000" font-family="sans-serif" font-size="9.8" lengthAdjust="spacing" textLength="205.8" x="570.85" y="313.1372">+sortPropertiesByAscendingArea(propertyList)</text><text fill="#000000" font-family="sans-serif" font-size="9.8" lengthAdjust="spacing" textLength="212.1" x="570.85" y="326.172">+sortPropertiesByDescendingArea(propertyList)</text><text fill="#000000" font-family="sans-serif" font-size="9.8" lengthAdjust="spacing" textLength="223.3" x="570.85" y="339.2067">+sortPropertiesByAscendingDistance(propertyList)</text><text fill="#000000" font-family="sans-serif" font-size="9.8" lengthAdjust="spacing" textLength="229.6" x="570.85" y="352.2415">+sortPropertiesByDescendingDistance(propertyList)</text><text fill="#000000" font-family="sans-serif" font-size="9.8" lengthAdjust="spacing" textLength="271.6" x="570.85" y="365.2763">+sortPropertiesByAscendingNumOfPhotographs(propertyList)</text><text fill="#000000" font-family="sans-serif" font-size="9.8" lengthAdjust="spacing" textLength="277.9" x="570.85" y="378.311">+sortPropertiesByDescendingNumOfPhotographs(propertyList)</text></g><!--link UnregisteredUser to ListPropertiesUI--><g id="link_UnregisteredUser_ListPropertiesUI"><path codeLine="134" d="M74.851,88.4827 C86.436,96.9947 101.696,106.4447 117.075,110.8687 C139.349,117.2807 198.52,114.7117 221.375,110.8687 C232.806,108.9437 244.629,106.0037 256.13,102.5737 " fill="none" id="UnregisteredUser-to-ListPropertiesUI" style="stroke:#181818;stroke-width:0.6999999999999998;"/><polygon fill="#181818" points="259.686,101.4957,252.8459,100.6334,256.335,102.506,254.4624,105.995,259.686,101.4957" style="stroke:#181818;stroke-width:0.6999999999999998;"/><text fill="#000000" font-family="sans-serif" font-size="9.1" lengthAdjust="spacing" textLength="2.8" x="167.825" y="84.2885">&#160;</text><text fill="#000000" font-family="sans-serif" font-size="9.1" lengthAdjust="spacing" textLength="2.8" x="167.825" y="96.3922">&#160;</text><text fill="#000000" font-family="sans-serif" font-size="9.1" lengthAdjust="spacing" textLength="102.9" x="117.775" y="108.4959">requests to list properties</text></g><!--link ListPropertiesUI to UnregisteredUser--><g id="link_ListPropertiesUI_UnregisteredUser"><path codeLine="136" d="M234.017,71.6687 C191.429,71.6687 143.542,71.6687 107.961,71.6687 " fill="none" id="ListPropertiesUI-to-UnregisteredUser" style="stroke:#181818;stroke-width:0.6999999999999998;"/><polygon fill="#181818" points="104.335,71.6687,110.635,74.4687,107.835,71.6687,110.635,68.8687,104.335,71.6687" style="stroke:#181818;stroke-width:0.6999999999999998;"/><text fill="#000000" font-family="sans-serif" font-size="9.1" lengthAdjust="spacing" textLength="66.5" x="135.975" y="42.9885">asks about what</text><text fill="#000000" font-family="sans-serif" font-size="9.1" lengthAdjust="spacing" textLength="104.3" x="117.075" y="55.0922">filters and sorting settings</text><text fill="#000000" font-family="sans-serif" font-size="9.1" lengthAdjust="spacing" textLength="39.2" x="149.625" y="67.1959">they want</text></g><!--link ListPropertiesUI to ListPropertyController--><g id="link_ListPropertiesUI_ListPropertyController"><path codeLine="137" d="M282.065,101.5167 C275.317,107.5297 269.353,114.4877 265.3,122.4187 C257.796,137.0977 261.086,143.5797 265.3,159.5187 C273.994,192.3837 293.846,225.6547 310.079,249.1047 " fill="none" id="ListPropertiesUI-to-ListPropertyController" style="stroke:#181818;stroke-width:0.6999999999999998;"/><polygon fill="#181818" points="312.242,252.1987,310.9215,245.4321,310.2342,249.3318,306.3345,248.6446,312.242,252.1987" style="stroke:#181818;stroke-width:0.6999999999999998;"/><text fill="#000000" font-family="sans-serif" font-size="9.1" lengthAdjust="spacing" textLength="54.6" x="291.2" y="132.9385">tells it to filter</text><text fill="#000000" font-family="sans-serif" font-size="9.1" lengthAdjust="spacing" textLength="105" x="266" y="145.0422">and sort the list according</text><text fill="#000000" font-family="sans-serif" font-size="9.1" lengthAdjust="spacing" textLength="87.5" x="274.75" y="157.1459">to the agent's request</text></g><!--link ListPropertiesUI to ListPropertyController--><g id="link_ListPropertiesUI_ListPropertyController"><path codeLine="142" d="M363.111,101.6077 C367.787,108.0057 371.931,115.0757 374.5,122.4187 C389.48,165.2447 370.3,216.4007 353.71,248.8737 " fill="none" id="ListPropertiesUI-to-ListPropertyController-1" style="stroke:#181818;stroke-width:0.6999999999999998;"/><polygon fill="#181818" points="352.016,252.1497,357.3989,247.8421,353.6251,249.0415,352.4258,245.2676,352.016,252.1497" style="stroke:#181818;stroke-width:0.6999999999999998;"/><text fill="#000000" font-family="sans-serif" font-size="9.1" lengthAdjust="spacing" textLength="17.5" x="380.8" y="144.8385">runs</text></g><!--link ListPropertyController to EditAndSortLists--><g id="link_ListPropertyController_EditAndSortLists"><path codeLine="139" d="M425.425,282.0187 C466.697,282.0187 516.572,282.0187 562.954,282.0187 " fill="none" id="ListPropertyController-to-EditAndSortLists" style="stroke:#181818;stroke-width:0.6999999999999998;"/><polygon fill="#181818" points="566.573,282.0187,560.273,279.2187,563.073,282.0187,560.273,284.8187,566.573,282.0187" style="stroke:#181818;stroke-width:0.6999999999999998;"/><text fill="#000000" font-family="sans-serif" font-size="9.1" lengthAdjust="spacing" textLength="115.5" x="438.2" y="265.2385">runs the necessary methods</text><text fill="#000000" font-family="sans-serif" font-size="9.1" lengthAdjust="spacing" textLength="93.1" x="449.4" y="277.3422">for the requested result</text></g><!--link ListPropertiesUI to ListPropertiesUI--><g id="link_ListPropertiesUI_ListPropertiesUI"><path codeLine="141" d="M435.099,60.0627 C449.708,61.9037 459.55,65.7747 459.55,71.6687 C459.55,77.0587 451.325,80.7547 438.753,82.7567 " fill="none" id="ListPropertiesUI-to-ListPropertiesUI" style="stroke:#181818;stroke-width:0.6999999999999998;"/><polygon fill="#181818" points="435.099,83.2747,441.7286,85.1663,438.5646,82.7853,440.9456,79.6213,435.099,83.2747" style="stroke:#181818;stroke-width:0.6999999999999998;"/><text fill="#000000" font-family="sans-serif" font-size="9.1" lengthAdjust="spacing" textLength="87.5" x="463.75" y="69.5885">implements Runnable</text><text fill="#000000" font-family="sans-serif" font-size="9.1" lengthAdjust="spacing" textLength="34.3" x="490.35" y="81.6922">interface</text></g><!--link ListPropertyController to Repositories--><g id="link_ListPropertyController_Repositories"><path codeLine="143" d="M320.418,311.9087 C302.015,349.7787 269.724,416.2367 248.122,460.6937 " fill="none" id="ListPropertyController-to-Repositories" style="stroke:#181818;stroke-width:0.6999999999999998;"/><polygon fill="#181818" points="246.589,463.8507,251.8601,459.4071,248.1182,460.7024,246.8229,456.9604,246.589,463.8507" style="stroke:#181818;stroke-width:0.6999999999999998;"/><text fill="#000000" font-family="sans-serif" font-size="9.1" lengthAdjust="spacing" textLength="17.5" x="288.4" y="415.0385">gets</text><text fill="#000000" font-family="sans-serif" font-size="9.1" lengthAdjust="spacing" textLength="44.1" x="275.1" y="427.1422">instance of</text></g><!--link Repositories to PropertyRepository--><g id="link_Repositories_PropertyRepository"><path codeLine="144" d="M318.738,506.7187 C337.617,506.7187 357.161,506.7187 375.032,506.7187 " fill="none" id="Repositories-to-PropertyRepository" style="stroke:#181818;stroke-width:0.6999999999999998;"/><polygon fill="#181818" points="378.581,506.7187,372.281,503.9187,375.081,506.7187,372.281,509.5187,378.581,506.7187" style="stroke:#181818;stroke-width:0.6999999999999998;"/><text fill="#000000" font-family="sans-serif" font-size="9.1" lengthAdjust="spacing" textLength="34.3" x="331.45" y="501.8385">contains</text></g><!--link ListPropertyController to PropertyRepository--><g id="link_ListPropertyController_PropertyRepository"><path codeLine="145" d="M348.873,311.9087 C365.61,346.1317 393.764,403.6997 415.072,447.2817 " fill="none" id="ListPropertyController-to-PropertyRepository" style="stroke:#181818;stroke-width:0.6999999999999998;"/><polygon fill="#181818" points="416.724,450.6557,416.4725,443.766,415.1868,447.5113,411.4415,446.2256,416.724,450.6557" style="stroke:#181818;stroke-width:0.6999999999999998;"/><text fill="#000000" font-family="sans-serif" font-size="9.1" lengthAdjust="spacing" textLength="53.2" x="406.7" y="415.0385">gets property</text><text fill="#000000" font-family="sans-serif" font-size="9.1" lengthAdjust="spacing" textLength="32.2" x="417.2" y="427.1422">list from</text></g><!--link PropertyRepository to Property--><g id="link_PropertyRepository_Property"><path codeLine="147" d="M443.8,562.7817 C443.8,592.5107 443.8,628.1407 443.8,653.4667 " fill="none" id="PropertyRepository-to-Property" style="stroke:#181818;stroke-width:0.6999999999999998;"/><polygon fill="#181818" points="443.8,657.1277,446.6,650.8277,443.8,653.6277,441,650.8277,443.8,657.1277" style="stroke:#181818;stroke-width:0.6999999999999998;"/><text fill="#000000" font-family="sans-serif" font-size="9.1" lengthAdjust="spacing" textLength="34.3" x="444.5" y="594.2385">contains</text></g><!--link Property to Request--><g id="link_Property_Request"><path codeLine="149" d="M482.356,686.9687 C499.261,686.9687 519.526,686.9687 538.468,686.9687 " fill="none" id="Property-to-Request" style="stroke:#181818;stroke-width:0.6999999999999998;"/><polygon fill="#181818" points="541.989,686.9687,535.689,684.1687,538.489,686.9687,535.689,689.7687,541.989,686.9687" style="stroke:#181818;stroke-width:0.6999999999999998;"/><text fill="#000000" font-family="sans-serif" font-size="9.1" lengthAdjust="spacing" textLength="34.3" x="495.075" y="682.0885">contains</text></g><!--link Property to Apartment--><g id="link_Property_Apartment"><path codeLine="151" d="M443.8,716.8797 C443.8,743.8717 443.8,785.8997 443.8,826.9477 " fill="none" id="Property-to-Apartment" style="stroke:#181818;stroke-width:0.6999999999999998;"/><polygon fill="#181818" points="443.8,830.6577,446.6,824.3577,443.8,827.1577,441,824.3577,443.8,830.6577" style="stroke:#181818;stroke-width:0.6999999999999998;"/><text fill="#000000" font-family="sans-serif" font-size="9.1" lengthAdjust="spacing" textLength="27.3" x="444.5" y="787.4385">can be</text></g><!--link Property to House--><g id="link_Property_House"><path codeLine="152" d="M463.96,716.8237 C480.984,741.6667 505.806,778.4517 526.4,811.2187 C529.788,816.6087 533.225,822.1387 536.669,827.7457 " fill="none" id="Property-to-House" style="stroke:#181818;stroke-width:0.6999999999999998;"/><polygon fill="#181818" points="538.58,830.8607,537.6692,824.0269,536.7485,827.8781,532.8972,826.9574,538.58,830.8607" style="stroke:#181818;stroke-width:0.6999999999999998;"/><text fill="#000000" font-family="sans-serif" font-size="9.1" lengthAdjust="spacing" textLength="27.3" x="511.7" y="787.4385">can be</text></g><!--link Property to Land--><g id="link_Property_Land"><path codeLine="153" d="M423.64,716.8237 C406.616,741.6667 381.794,778.4517 361.2,811.2187 C351.337,826.9057 341.103,843.7617 331.331,860.1417 " fill="none" id="Property-to-Land" style="stroke:#181818;stroke-width:0.6999999999999998;"/><polygon fill="#181818" points="329.511,863.1937,335.1436,859.2182,331.3044,860.188,330.3345,856.3488,329.511,863.1937" style="stroke:#181818;stroke-width:0.6999999999999998;"/><text fill="#000000" font-family="sans-serif" font-size="9.1" lengthAdjust="spacing" textLength="27.3" x="382.2" y="787.4385">can be</text></g><!--SRC=[rLPjRzis4FxENy5lov0PoBuQGm4tIL43nHBCyLPW7eApT9AuKAHAdfPvHl_xZjIB9Ljf7M10iI-MnNlkkHVUdSu_ALE1Wr9Ma3n1ZYlQQPGE4mAJQnI-1_W2KlkiJ2upq7ueIJHulo1oQbiJBXDhLkeVb5T2a29cMw-khdwKDyfN6dRoW_A4gRntja972hsSoUl0m0Z8cK-8I2ZNnc4Um0xJjKSdz-BnyL5yxkI1wC2oNh9ySBIxjeQSrPeLzUHnPBjqjRduVf9qoB0NtU4lM5cloBgTh4wE6ihAAJFmxC46xuT6UeKG_LxCHk_AUCvzWcBs2fCvqhBLOqFXzLHvwC44DViHWl-f4xtfZB5JZH7bRykA0iybfEb5vmk__WLQfK3OwGvbHzaOkzSSi5kCGPT1WhrhxNLVugUQw-t2Rl_aecJbH5k3usn-gj4J-x_Y4kJwf5t5sSkq1U8OL4XbAublQwD8pBRMQWGZbL_IVRtb4YamxO69BKlblRBcXiCIixjdmrLWm-y4vbVGDOCu1fdM3eYF1XK59jrtxe13w0cqJHfiAqnLSuFld2sl5TSVSlqnxoBdFnB2hvYzKnf__qDMXINBtL8LlbFFb05zFueNZB4rCvQisWJI9eixF3w_dE9BiWtHCDqBRdeAXF8_Z2gapjJbNVOMKsTjwOT7GCNnsJqu7Z_vYgSMLsT_cKdW1lqUsGEJ7yv1EMxcL0M_ek2RP_6zhJt-dpFO2RRWOs867MKAs2g2hSOFDgC-B5-RsxzvtDJ1zszu0UqDt78m2vEkhACmz_o-dwI7sVIRekBZ0u-Jksm56lkn5XH-Y7FcU9ejiuS2Tmk7eUr7-1UHVKET1u-LSmGT8T_kFiRAEF8sribj2KepjUUeXneBpnUVSefYueyTEKRVuAlWFJbx3-TpduFkgM_Q7ZcV_boDtiJFiMqE1Nk-gQzeSasUx3gpDwVxpLnkpCQq9UybsRZO33_JuaHdnaGdv7C9_ibBsDgQv7C1j36PqYpdCvFA44XiMAJmz1j3N7ho6RZB9msyi3JD9Q7MlD5GyBMni36T1ScaJG2G9DQ5FB4X6uzZhNxd-_P-QR5ZsyTjp5PvfVEHnY3FDW-yt9H8XKqvaiowA6gPUH5rw6jDugkHTNUWoah7ISIRHsrC67CRqwylhqnGSFN5u5Xnj1dE9VUv3yQQofKs4oC0AqmiTdFUL0o1-hAbISLWhzyvDoRULiPV8J6r3WzPXaPxh8m1DODxMiw0mth1aF1zmR6y-N1EoyBCFOZ4lm00]--></g></svg>