<?xml version="1.0" encoding="us-ascii" standalone="no"?><svg xmlns="http://www.w3.org/2000/svg" xmlns:xlink="http://www.w3.org/1999/xlink" contentStyleType="text/css" height="653px" preserveAspectRatio="none" style="width:563px;height:653px;background:#FFFFFF;" version="1.1" viewBox="0 0 563 653" width="563px" zoomAndPan="magnify"><defs/><g><text fill="#000000" font-family="sans-serif" font-size="14" font-weight="bold" lengthAdjust="spacing" textLength="342" x="109.75" y="30.1074">User Story 009 - System Sequence Diagram (SSD)</text><rect fill="#FFFFFF" height="428.3652" style="stroke:#181818;stroke-width:1.0;" width="10" x="69.5" y="133.2422"/><rect fill="#FFFFFF" height="396.0742" style="stroke:#181818;stroke-width:1.0;" width="10" x="520.5" y="156.5332"/><line style="stroke:#181818;stroke-width:0.5;stroke-dasharray:5.0,5.0;" x1="74" x2="74" y1="123.2422" y2="570.6074"/><line style="stroke:#181818;stroke-width:0.5;stroke-dasharray:5.0,5.0;" x1="525.5" x2="525.5" y1="123.2422" y2="570.6074"/><text fill="#000000" font-family="sans-serif" font-size="14" lengthAdjust="spacing" textLength="133" x="5" y="119.7285">System Administrator</text><ellipse cx="74.5" cy="53.1211" fill="#E3E3E3" rx="8" ry="8" style="stroke:#181818;stroke-width:0.5;"/><path d="M74.5,61.1211 L74.5,88.1211 M61.5,69.1211 L87.5,69.1211 M74.5,88.1211 L61.5,103.1211 M74.5,88.1211 L87.5,103.1211 " fill="none" style="stroke:#181818;stroke-width:0.5;"/><text fill="#000000" font-family="sans-serif" font-size="14" lengthAdjust="spacing" textLength="133" x="5" y="584.7148">System Administrator</text><ellipse cx="74.5" cy="596.7285" fill="#E3E3E3" rx="8" ry="8" style="stroke:#181818;stroke-width:0.5;"/><path d="M74.5,604.7285 L74.5,631.7285 M61.5,612.7285 L87.5,612.7285 M74.5,631.7285 L61.5,646.7285 M74.5,631.7285 L87.5,646.7285 " fill="none" style="stroke:#181818;stroke-width:0.5;"/><rect fill="#E3E3E3" height="32.6211" rx="2.5" ry="2.5" style="stroke:#181818;stroke-width:0.5;" width="64" x="493.5" y="89.6211"/><text fill="#000000" font-family="sans-serif" font-size="14" lengthAdjust="spacing" textLength="50" x="500.5" y="111.7285">:System</text><rect fill="#E3E3E3" height="32.6211" rx="2.5" ry="2.5" style="stroke:#181818;stroke-width:0.5;" width="64" x="493.5" y="569.6074"/><text fill="#000000" font-family="sans-serif" font-size="14" lengthAdjust="spacing" textLength="50" x="500.5" y="591.7148">:System</text><rect fill="#FFFFFF" height="428.3652" style="stroke:#181818;stroke-width:1.0;" width="10" x="69.5" y="133.2422"/><rect fill="#FFFFFF" height="396.0742" style="stroke:#181818;stroke-width:1.0;" width="10" x="520.5" y="156.5332"/><polygon fill="#181818" points="508.5,152.5332,518.5,156.5332,508.5,160.5332,512.5,156.5332" style="stroke:#181818;stroke-width:1.0;"/><line style="stroke:#181818;stroke-width:1.0;" x1="79.5" x2="514.5" y1="156.5332" y2="156.5332"/><text fill="#000000" font-family="sans-serif" font-size="13" font-weight="bold" lengthAdjust="spacing" textLength="7" x="86.5" y="151.2705">1</text><text fill="#000000" font-family="sans-serif" font-size="13" lengthAdjust="spacing" textLength="228" x="97.5" y="151.2705">asks to see properties to request a visit</text><polygon fill="#181818" points="90.5,183.8242,80.5,187.8242,90.5,191.8242,86.5,187.8242" style="stroke:#181818;stroke-width:1.0;"/><line style="stroke:#181818;stroke-width:1.0;stroke-dasharray:2.0,2.0;" x1="84.5" x2="519.5" y1="187.8242" y2="187.8242"/><text fill="#000000" font-family="sans-serif" font-size="13" font-weight="bold" lengthAdjust="spacing" textLength="7" x="96.5" y="182.5615">2</text><text fill="#000000" font-family="sans-serif" font-size="13" lengthAdjust="spacing" textLength="312" x="107.5" y="182.5615">asks if they only want to see 'for rent', 'for sale' or both</text><polygon fill="#181818" points="508.5,215.1152,518.5,219.1152,508.5,223.1152,512.5,219.1152" style="stroke:#181818;stroke-width:1.0;"/><line style="stroke:#181818;stroke-width:1.0;" x1="79.5" x2="514.5" y1="219.1152" y2="219.1152"/><text fill="#000000" font-family="sans-serif" font-size="13" font-weight="bold" lengthAdjust="spacing" textLength="7" x="86.5" y="213.8525">3</text><text fill="#000000" font-family="sans-serif" font-size="13" lengthAdjust="spacing" textLength="123" x="97.5" y="213.8525">answers the question</text><polygon fill="#181818" points="90.5,246.4063,80.5,250.4063,90.5,254.4063,86.5,250.4063" style="stroke:#181818;stroke-width:1.0;"/><line style="stroke:#181818;stroke-width:1.0;stroke-dasharray:2.0,2.0;" x1="84.5" x2="519.5" y1="250.4063" y2="250.4063"/><text fill="#000000" font-family="sans-serif" font-size="13" font-weight="bold" lengthAdjust="spacing" textLength="7" x="96.5" y="245.1436">4</text><text fill="#000000" font-family="sans-serif" font-size="13" lengthAdjust="spacing" textLength="406" x="107.5" y="245.1436">asks if they only want to see lands, apartments, houses or all of those</text><polygon fill="#181818" points="508.5,277.6973,518.5,281.6973,508.5,285.6973,512.5,281.6973" style="stroke:#181818;stroke-width:1.0;"/><line style="stroke:#181818;stroke-width:1.0;" x1="79.5" x2="514.5" y1="281.6973" y2="281.6973"/><text fill="#000000" font-family="sans-serif" font-size="13" font-weight="bold" lengthAdjust="spacing" textLength="7" x="86.5" y="276.4346">5</text><text fill="#000000" font-family="sans-serif" font-size="13" lengthAdjust="spacing" textLength="123" x="97.5" y="276.4346">answers the question</text><polygon fill="#181818" points="90.5,326.2793,80.5,330.2793,90.5,334.2793,86.5,330.2793" style="stroke:#181818;stroke-width:1.0;"/><line style="stroke:#181818;stroke-width:1.0;stroke-dasharray:2.0,2.0;" x1="84.5" x2="519.5" y1="330.2793" y2="330.2793"/><text fill="#000000" font-family="sans-serif" font-size="13" font-weight="bold" lengthAdjust="spacing" textLength="7" x="96.5" y="316.3711">6</text><text fill="#000000" font-family="sans-serif" font-size="13" lengthAdjust="spacing" textLength="384" x="107.5" y="307.7256">asks if the user wants to only see properties from a specific agent,</text><text fill="#000000" font-family="sans-serif" font-size="13" lengthAdjust="spacing" textLength="292" x="107.5" y="325.0166">printing a list of all agents registered in the system</text><polygon fill="#181818" points="508.5,357.5703,518.5,361.5703,508.5,365.5703,512.5,361.5703" style="stroke:#181818;stroke-width:1.0;"/><line style="stroke:#181818;stroke-width:1.0;" x1="79.5" x2="514.5" y1="361.5703" y2="361.5703"/><text fill="#000000" font-family="sans-serif" font-size="13" font-weight="bold" lengthAdjust="spacing" textLength="7" x="86.5" y="356.3076">7</text><text fill="#000000" font-family="sans-serif" font-size="13" lengthAdjust="spacing" textLength="385" x="97.5" y="356.3076">answers the question (choosing one of the agents or none of them)</text><polygon fill="#181818" points="90.5,388.8613,80.5,392.8613,90.5,396.8613,86.5,392.8613" style="stroke:#181818;stroke-width:1.0;"/><line style="stroke:#181818;stroke-width:1.0;stroke-dasharray:2.0,2.0;" x1="84.5" x2="519.5" y1="392.8613" y2="392.8613"/><text fill="#000000" font-family="sans-serif" font-size="13" font-weight="bold" lengthAdjust="spacing" textLength="7" x="96.5" y="387.5986">8</text><text fill="#000000" font-family="sans-serif" font-size="13" lengthAdjust="spacing" textLength="109" x="107.5" y="387.5986">shows property list</text><polygon fill="#181818" points="508.5,420.1523,518.5,424.1523,508.5,428.1523,512.5,424.1523" style="stroke:#181818;stroke-width:1.0;"/><line style="stroke:#181818;stroke-width:1.0;" x1="79.5" x2="514.5" y1="424.1523" y2="424.1523"/><text fill="#000000" font-family="sans-serif" font-size="13" font-weight="bold" lengthAdjust="spacing" textLength="7" x="86.5" y="418.8896">9</text><text fill="#000000" font-family="sans-serif" font-size="13" lengthAdjust="spacing" textLength="306" x="97.5" y="418.8896">types the number of visit requests they want to make</text><polygon fill="#181818" points="90.5,468.7344,80.5,472.7344,90.5,476.7344,86.5,472.7344" style="stroke:#181818;stroke-width:1.0;"/><line style="stroke:#181818;stroke-width:1.0;stroke-dasharray:2.0,2.0;" x1="84.5" x2="519.5" y1="472.7344" y2="472.7344"/><text fill="#000000" font-family="sans-serif" font-size="13" font-weight="bold" lengthAdjust="spacing" textLength="14" x="96.5" y="458.8262">10</text><text fill="#000000" font-family="sans-serif" font-size="13" lengthAdjust="spacing" textLength="378" x="114.5" y="450.1807">requests data to leave a message to the agent responsible for the</text><text fill="#000000" font-family="sans-serif" font-size="13" lengthAdjust="spacing" textLength="189" x="114.5" y="467.4717">property chosen in each iteration</text><polygon fill="#181818" points="508.5,517.3164,518.5,521.3164,508.5,525.3164,512.5,521.3164" style="stroke:#181818;stroke-width:1.0;"/><line style="stroke:#181818;stroke-width:1.0;" x1="79.5" x2="514.5" y1="521.3164" y2="521.3164"/><text fill="#000000" font-family="sans-serif" font-size="13" font-weight="bold" lengthAdjust="spacing" textLength="14" x="86.5" y="507.4082">11</text><text fill="#000000" font-family="sans-serif" font-size="13" lengthAdjust="spacing" textLength="317" x="104.5" y="498.7627">types requested data (text, preferred date, start of visit,</text><text fill="#000000" font-family="sans-serif" font-size="13" lengthAdjust="spacing" textLength="65" x="104.5" y="516.0537">end of visit)</text><polygon fill="#181818" points="90.5,548.6074,80.5,552.6074,90.5,556.6074,86.5,552.6074" style="stroke:#181818;stroke-width:1.0;"/><line style="stroke:#181818;stroke-width:1.0;stroke-dasharray:2.0,2.0;" x1="84.5" x2="524.5" y1="552.6074" y2="552.6074"/><text fill="#000000" font-family="sans-serif" font-size="13" font-weight="bold" lengthAdjust="spacing" textLength="14" x="96.5" y="547.3447">12</text><text fill="#000000" font-family="sans-serif" font-size="13" lengthAdjust="spacing" textLength="158" x="114.5" y="547.3447">displays operation success</text><!--SRC=[hPFDRjim3CVlVWeYbwH00lJQ7WOCw1iOk-t2o7Gin9OqaKxcjozfsMxH8S0mB2U6uiUFVz9yzI5XnW666ABhSXm898zKyVQIq5tnGhLCFK4c9nWk_US0xh29Tnykq6BFL5NYHKD_C6Me9UO9dfzVu0Jrn483rFHhfE08tZnUBFzGrszFLOMZn30EPyfgEys3tPBnlHbyy2mPrRi3vEAfjBruvnC6WTrh2PwVYpcNyJSKMk8hqDzimkdRYlEg2LS6YS14a79Cf5LfzcH3PG64csSlfS1MTErYpgNOIUkM1ajPtu9qD44C_GHt0rqQxLiTC5EG_R7OZ3tjGOrpbEuXQk0xPRQQCAFv6FuHeCVGy17GH1oKG-qkZgo3AmFsFKJBZBRF_yi2ens6eSmQps1Vf6_r3bLqJkHywnte-GKv_Wmf-o1sQ0YzteCX6kdypAhcHPsKgG7jQPtuquR-RW0uk2v6jXunKD60rWOgJFZm3ayFf-KktdaTQ9fP7q38bAWGbDEtslEjhRV7PNthvWQyqiEsMqg3WXRT4zwK7WPYrXdCjOsZqPnYO7_MRzKEq5vCuWNQsUw3AKdeEl0gB7wi-4yrooGBWgvWPZW8_PQZAa4jvLoyT0GMFRfjL5qiXMRx-rZMndFgST95f0K6U7HEXwkgXhv-b-y0]--></g></svg>