<?xml version="1.0" encoding="us-ascii" standalone="no"?><svg xmlns="http://www.w3.org/2000/svg" xmlns:xlink="http://www.w3.org/1999/xlink" contentStyleType="text/css" height="419.07px" preserveAspectRatio="none" style="width:336px;height:419px;background:#FFFFFF;" version="1.1" viewBox="0 0 336 419" width="336.72px" zoomAndPan="magnify"><defs/><g><text fill="#000000" font-family="sans-serif" font-size="8.54" font-weight="bold" lengthAdjust="spacing" textLength="178.12" x="80.3675" y="18.3655">User Story 11 - System Sequence Diagram</text><rect fill="#FFFFFF" height="281.6401" style="stroke:#181818;stroke-width:0.61;" width="6.1" x="34.465" y="81.2777"/><rect fill="#FFFFFF" height="115.5199" style="stroke:#181818;stroke-width:0.61;" width="6.1" x="180.255" y="95.4853"/><rect fill="#FFFFFF" height="114.5251" style="stroke:#181818;stroke-width:0.61;" width="6.1" x="180.255" y="230.0927"/><rect fill="none" height="253.4026" style="stroke:#000000;stroke-width:0.915;" width="327.265" x="6.1" y="104.6353"/><rect fill="none" height="233.0951" style="stroke:#000000;stroke-width:0.915;" width="315.065" x="12.2" y="120.6728"/><rect fill="none" height="164.4677" style="stroke:#000000;stroke-width:0.915;" width="302.865" x="18.3" y="185.0302"/><rect fill="none" height="49.3326" style="stroke:#000000;stroke-width:0.915;" width="156.16" x="158.905" y="239.2427"/><line style="stroke:#181818;stroke-width:0.305;stroke-dasharray:5.0,5.0;" x1="37.21" x2="37.21" y1="75.1777" y2="368.4078"/><line style="stroke:#181818;stroke-width:0.305;stroke-dasharray:5.0,5.0;" x1="183.305" x2="183.305" y1="75.1777" y2="368.4078"/><text fill="#000000" font-family="sans-serif" font-size="8.54" lengthAdjust="spacing" textLength="22.57" x="24.4" y="73.0344">Agent</text><ellipse cx="37.515" cy="32.4039" fill="#E2E2F0" rx="4.88" ry="4.88" style="stroke:#181818;stroke-width:0.305;"/><path d="M37.515,37.2839 L37.515,53.7539 M29.585,42.1639 L45.445,42.1639 M37.515,53.7539 L29.585,62.9039 M37.515,53.7539 L45.445,62.9039 " fill="none" style="stroke:#181818;stroke-width:0.305;"/><text fill="#000000" font-family="sans-serif" font-size="8.54" lengthAdjust="spacing" textLength="22.57" x="24.4" y="377.0134">Agent</text><ellipse cx="37.515" cy="384.3417" fill="#E2E2F0" rx="4.88" ry="4.88" style="stroke:#181818;stroke-width:0.305;"/><path d="M37.515,389.2217 L37.515,405.6917 M29.585,394.1017 L45.445,394.1017 M37.515,405.6917 L29.585,414.8417 M37.515,405.6917 L45.445,414.8417 " fill="none" style="stroke:#181818;stroke-width:0.305;"/><rect fill="#E2E2F0" height="19.8989" rx="1.525" ry="1.525" style="stroke:#181818;stroke-width:0.305;" width="36.6" x="165.005" y="54.6689"/><text fill="#000000" font-family="sans-serif" font-size="8.54" lengthAdjust="spacing" textLength="28.06" x="169.275" y="68.1544">System</text><rect fill="#E2E2F0" height="19.8989" rx="1.525" ry="1.525" style="stroke:#181818;stroke-width:0.305;" width="36.6" x="165.005" y="367.7978"/><text fill="#000000" font-family="sans-serif" font-size="8.54" lengthAdjust="spacing" textLength="28.06" x="169.275" y="381.2834">System</text><rect fill="#FFFFFF" height="281.6401" style="stroke:#181818;stroke-width:0.61;" width="6.1" x="34.465" y="81.2777"/><rect fill="#FFFFFF" height="115.5199" style="stroke:#181818;stroke-width:0.61;" width="6.1" x="180.255" y="95.4853"/><rect fill="#FFFFFF" height="114.5251" style="stroke:#181818;stroke-width:0.61;" width="6.1" x="180.255" y="230.0927"/><polygon fill="#181818" points="172.935,93.0453,179.035,95.4853,172.935,97.9253,175.375,95.4853" style="stroke:#181818;stroke-width:0.61;"/><line style="stroke:#181818;stroke-width:0.61;" x1="40.565" x2="176.595" y1="95.4853" y2="95.4853"/><text fill="#000000" font-family="sans-serif" font-size="7.93" font-weight="bold" lengthAdjust="spacing" textLength="4.27" x="44.835" y="92.275">1</text><text fill="#000000" font-family="sans-serif" font-size="7.93" lengthAdjust="spacing" textLength="107.36" x="51.545" y="92.275">ask for the orders of properties</text><path d="M6.1,104.6353 L50.63,104.6353 L50.63,110.3028 L44.53,116.4028 L6.1,116.4028 L6.1,104.6353 " fill="#EEEEEE" style="stroke:#000000;stroke-width:0.915;"/><rect fill="none" height="253.4026" style="stroke:#000000;stroke-width:0.915;" width="327.265" x="6.1" y="104.6353"/><text fill="#000000" font-family="sans-serif" font-size="7.93" font-weight="bold" lengthAdjust="spacing" textLength="17.08" x="15.25" y="113.8025">loop</text><text fill="#000000" font-family="sans-serif" font-size="6.71" font-weight="bold" lengthAdjust="spacing" textLength="66.49" x="59.78" y="113.096">[for every property]</text><path d="M12.2,120.6728 L49.41,120.6728 L49.41,126.3403 L43.31,132.4403 L12.2,132.4403 L12.2,120.6728 " fill="#EEEEEE" style="stroke:#000000;stroke-width:0.915;"/><rect fill="none" height="233.0951" style="stroke:#000000;stroke-width:0.915;" width="315.065" x="12.2" y="120.6728"/><text fill="#000000" font-family="sans-serif" font-size="7.93" font-weight="bold" lengthAdjust="spacing" textLength="9.76" x="21.35" y="129.84">alt</text><text fill="#000000" font-family="sans-serif" font-size="6.71" font-weight="bold" lengthAdjust="spacing" textLength="117.73" x="58.56" y="129.1335">[property doesn't have any orders]</text><polygon fill="#181818" points="47.275,144.2078,41.175,146.6478,47.275,149.0878,44.835,146.6478" style="stroke:#181818;stroke-width:0.61;"/><line style="stroke:#181818;stroke-width:0.61;stroke-dasharray:2.0,2.0;" x1="43.615" x2="179.645" y1="146.6478" y2="146.6478"/><text fill="#000000" font-family="sans-serif" font-size="7.93" font-weight="bold" lengthAdjust="spacing" textLength="4.27" x="50.935" y="143.4376">2</text><text fill="#000000" font-family="sans-serif" font-size="7.93" lengthAdjust="spacing" textLength="99.43" x="57.645" y="143.4376">displays empty list of orders</text><line style="stroke:#000000;stroke-width:0.61;stroke-dasharray:2.0,2.0;" x1="12.2" x2="327.265" y1="152.1378" y2="152.1378"/><text fill="#000000" font-family="sans-serif" font-size="6.71" font-weight="bold" lengthAdjust="spacing" textLength="73.2" x="15.25" y="159.3786">[property has orders]</text><polygon fill="#181818" points="47.275,173.4402,41.175,175.8802,47.275,178.3202,44.835,175.8802" style="stroke:#181818;stroke-width:0.61;"/><line style="stroke:#181818;stroke-width:0.61;stroke-dasharray:2.0,2.0;" x1="43.615" x2="179.645" y1="175.8802" y2="175.8802"/><text fill="#000000" font-family="sans-serif" font-size="7.93" font-weight="bold" lengthAdjust="spacing" textLength="4.27" x="50.935" y="172.6699">3</text><text fill="#000000" font-family="sans-serif" font-size="7.93" lengthAdjust="spacing" textLength="89.67" x="57.645" y="172.6699">prints sorted list of orders</text><path d="M18.3,185.0302 L62.83,185.0302 L62.83,190.6977 L56.73,196.7977 L18.3,196.7977 L18.3,185.0302 " fill="#EEEEEE" style="stroke:#000000;stroke-width:0.915;"/><rect fill="none" height="164.4677" style="stroke:#000000;stroke-width:0.915;" width="302.865" x="18.3" y="185.0302"/><text fill="#000000" font-family="sans-serif" font-size="7.93" font-weight="bold" lengthAdjust="spacing" textLength="17.08" x="27.45" y="194.1974">loop</text><text fill="#000000" font-family="sans-serif" font-size="6.71" font-weight="bold" lengthAdjust="spacing" textLength="78.08" x="71.98" y="193.4909">[the number of orders]</text><polygon fill="#181818" points="47.275,208.5652,41.175,211.0052,47.275,213.4452,44.835,211.0052" style="stroke:#181818;stroke-width:0.61;"/><line style="stroke:#181818;stroke-width:0.61;stroke-dasharray:2.0,2.0;" x1="43.615" x2="182.695" y1="211.0052" y2="211.0052"/><text fill="#000000" font-family="sans-serif" font-size="7.93" font-weight="bold" lengthAdjust="spacing" textLength="4.27" x="50.935" y="207.795">4</text><text fill="#000000" font-family="sans-serif" font-size="7.93" lengthAdjust="spacing" textLength="118.34" x="57.645" y="207.795">ask if the agent accepts the order</text><polygon fill="#181818" points="172.935,227.6527,179.035,230.0927,172.935,232.5327,175.375,230.0927" style="stroke:#181818;stroke-width:0.61;"/><line style="stroke:#181818;stroke-width:0.61;" x1="40.565" x2="176.595" y1="230.0927" y2="230.0927"/><text fill="#000000" font-family="sans-serif" font-size="7.93" font-weight="bold" lengthAdjust="spacing" textLength="4.27" x="44.835" y="226.8825">5</text><text fill="#000000" font-family="sans-serif" font-size="7.93" lengthAdjust="spacing" textLength="93.94" x="51.545" y="226.8825">accepts or denies an order</text><path d="M158.905,239.2427 L196.115,239.2427 L196.115,244.9102 L190.015,251.0102 L158.905,251.0102 L158.905,239.2427 " fill="#EEEEEE" style="stroke:#000000;stroke-width:0.915;"/><rect fill="none" height="49.3326" style="stroke:#000000;stroke-width:0.915;" width="156.16" x="158.905" y="239.2427"/><text fill="#000000" font-family="sans-serif" font-size="7.93" font-weight="bold" lengthAdjust="spacing" textLength="9.76" x="168.055" y="248.41">alt</text><text fill="#000000" font-family="sans-serif" font-size="6.71" font-weight="bold" lengthAdjust="spacing" textLength="64.05" x="205.265" y="247.7035">[order is accepted]</text><line style="stroke:#181818;stroke-width:0.61;stroke-dasharray:2.0,2.0;" x1="186.355" x2="211.975" y1="275.7653" y2="275.7653"/><line style="stroke:#181818;stroke-width:0.61;stroke-dasharray:2.0,2.0;" x1="211.975" x2="211.975" y1="275.7653" y2="283.6953"/><line style="stroke:#181818;stroke-width:0.61;stroke-dasharray:2.0,2.0;" x1="186.965" x2="211.975" y1="283.6953" y2="283.6953"/><polygon fill="#181818" points="193.065,281.2553,186.965,283.6953,193.065,286.1353,190.625,283.6953" style="stroke:#181818;stroke-width:0.61;"/><text fill="#000000" font-family="sans-serif" font-size="7.93" font-weight="bold" lengthAdjust="spacing" textLength="4.27" x="190.625" y="267.2813">6</text><text fill="#000000" font-family="sans-serif" font-size="7.93" lengthAdjust="spacing" textLength="110.41" x="197.335" y="262.0075">all other orders for that property</text><text fill="#000000" font-family="sans-serif" font-size="7.93" lengthAdjust="spacing" textLength="86.01" x="197.335" y="272.555">are automatically denied</text><line style="stroke:#181818;stroke-width:0.61;stroke-dasharray:2.0,2.0;" x1="186.355" x2="211.975" y1="317.6003" y2="317.6003"/><line style="stroke:#181818;stroke-width:0.61;stroke-dasharray:2.0,2.0;" x1="211.975" x2="211.975" y1="317.6003" y2="325.5303"/><line style="stroke:#181818;stroke-width:0.61;stroke-dasharray:2.0,2.0;" x1="186.965" x2="211.975" y1="325.5303" y2="325.5303"/><polygon fill="#181818" points="193.065,323.0903,186.965,325.5303,193.065,327.9703,190.625,325.5303" style="stroke:#181818;stroke-width:0.61;"/><text fill="#000000" font-family="sans-serif" font-size="7.93" font-weight="bold" lengthAdjust="spacing" textLength="4.27" x="190.625" y="309.1163">7</text><text fill="#000000" font-family="sans-serif" font-size="7.93" lengthAdjust="spacing" textLength="71.98" x="197.335" y="303.8425">sends a message to</text><text fill="#000000" font-family="sans-serif" font-size="7.93" lengthAdjust="spacing" textLength="70.15" x="197.335" y="314.3901">the respective client</text><polygon fill="#181818" points="47.275,342.1778,41.175,344.6178,47.275,347.0578,44.835,344.6178" style="stroke:#181818;stroke-width:0.61;"/><line style="stroke:#181818;stroke-width:0.61;stroke-dasharray:2.0,2.0;" x1="43.615" x2="182.695" y1="344.6178" y2="344.6178"/><text fill="#000000" font-family="sans-serif" font-size="7.93" font-weight="bold" lengthAdjust="spacing" textLength="4.27" x="50.935" y="341.4076">8</text><text fill="#000000" font-family="sans-serif" font-size="7.93" lengthAdjust="spacing" textLength="89.67" x="57.645" y="341.4076">shows operation success</text><!--SRC=[RLAxRiCm3Dpr5KIMJ6wGDKE00ls3e5iNrc9YeRAaYdGA_tqfMNaYWs7Pl3iUJrmF8ebtcqto66GQ_LiVnmtJxqIXfyuwF6KSZJZn19zC6GuIympRBNHmc5beX4D3mqT3uoGnJECtPOEzmc7rVg8WAq26UZ89ixZU9Uq9gqMcLfTZORap2ZMqgQzklrHt2lo1eyhAG12pfSmGZv1oJAIon3T-q_CnfigWCwdvXfmDUhb-W8t4OIqmu9a0mzoaJPkow_QB7TY1TQnvpGmq9cLwnr8SD09vfflie6CzAAbGrTcbx88mSCn2zbcaMYu3Ba7ULLxuAO6uOuLZ_OLzJqcrhmaPIy-Xj53XcchZQ4oMWiQe8JJoCxNaLYlWkF78tXjhHnNr7gAwo9UBMkuDRxb_1SngMrTcHDq99SnBVsiCXTUgh0Lj32Cnwy0WyIkKKJDnekALeFUkhCvZv8Kwn3-TKLjhjnY09xNF_2AVqlpo_0C0]--></g></svg>