<?xml version="1.0" encoding="us-ascii" standalone="no"?><svg xmlns="http://www.w3.org/2000/svg" xmlns:xlink="http://www.w3.org/1999/xlink" contentStyleType="text/css" height="666px" preserveAspectRatio="none" style="width:1277px;height:666px;background:#FFFFFF;" version="1.1" viewBox="0 0 1277 666" width="1277px" zoomAndPan="magnify"><defs/><g><text fill="#000000" font-family="sans-serif" font-size="14" font-weight="bold" lengthAdjust="spacing" textLength="213" x="525" y="25.1074">US007 Sign Up - Class Diagram</text><!--class UnregisteredUser--><g id="elem_UnregisteredUser"><rect codeLine="7" fill="#F1F1F1" height="48" id="UnregisteredUser" rx="2.5" ry="2.5" style="stroke:#181818;stroke-width:0.5;" width="142" x="631" y="46.6211"/><ellipse cx="646" cy="62.6211" fill="#ADD1B2" rx="11" ry="11" style="stroke:#181818;stroke-width:1.0;"/><path d="M648.7656,58.4961 Q648.9219,58.2773 649.1094,58.168 Q649.2969,58.0586 649.5156,58.0586 Q649.8906,58.0586 650.125,58.3242 Q650.3594,58.5742 650.3594,59.1836 L650.3594,60.6367 Q650.3594,61.2461 650.125,61.5117 Q649.8906,61.7773 649.5156,61.7773 Q649.1719,61.7773 648.9688,61.5742 Q648.7656,61.3867 648.6563,60.8711 Q648.6094,60.5117 648.4219,60.3242 Q648.0938,59.9492 647.4844,59.7305 Q646.875,59.5117 646.25,59.5117 Q645.4844,59.5117 644.8438,59.8398 Q644.2188,60.168 643.7188,60.918 Q643.2344,61.668 643.2344,62.6992 L643.2344,63.793 Q643.2344,65.0273 644.125,65.8555 Q645.0156,66.668 646.6094,66.668 Q647.5469,66.668 648.2031,66.418 Q648.5938,66.2617 649.0156,65.8242 Q649.2813,65.5586 649.4219,65.4805 Q649.5781,65.4023 649.7813,65.4023 Q650.1094,65.4023 650.3594,65.668 Q650.625,65.918 650.625,66.2617 Q650.625,66.6055 650.2813,67.0117 Q649.7813,67.5898 648.9844,67.918 Q647.9063,68.3711 646.6094,68.3711 Q645.0938,68.3711 643.8906,67.7461 Q642.9063,67.2461 642.2188,66.1836 Q641.5313,65.1055 641.5313,63.8242 L641.5313,62.668 Q641.5313,61.3398 642.1406,60.1992 Q642.7656,59.043 643.8594,58.4336 Q644.9531,57.8086 646.1875,57.8086 Q646.9219,57.8086 647.5625,57.9805 Q648.2188,58.1367 648.7656,58.4961 Z " fill="#000000"/><text fill="#000000" font-family="sans-serif" font-size="14" lengthAdjust="spacing" textLength="110" x="660" y="68.418">UnregisteredUser</text><line style="stroke:#181818;stroke-width:0.5;" x1="632" x2="772" y1="78.6211" y2="78.6211"/><line style="stroke:#181818;stroke-width:0.5;" x1="632" x2="772" y1="86.6211" y2="86.6211"/></g><!--class MainMenuUI--><g id="elem_MainMenuUI"><rect codeLine="11" fill="#F1F1F1" height="85.2422" id="MainMenuUI" rx="2.5" ry="2.5" style="stroke:#181818;stroke-width:0.5;" width="166" x="7" y="209.1211"/><ellipse cx="47.65" cy="225.1211" fill="#ADD1B2" rx="11" ry="11" style="stroke:#181818;stroke-width:1.0;"/><path d="M50.4156,220.9961 Q50.5719,220.7773 50.7594,220.668 Q50.9469,220.5586 51.1656,220.5586 Q51.5406,220.5586 51.775,220.8242 Q52.0094,221.0742 52.0094,221.6836 L52.0094,223.1367 Q52.0094,223.7461 51.775,224.0117 Q51.5406,224.2773 51.1656,224.2773 Q50.8219,224.2773 50.6188,224.0742 Q50.4156,223.8867 50.3063,223.3711 Q50.2594,223.0117 50.0719,222.8242 Q49.7438,222.4492 49.1344,222.2305 Q48.525,222.0117 47.9,222.0117 Q47.1344,222.0117 46.4938,222.3398 Q45.8688,222.668 45.3688,223.418 Q44.8844,224.168 44.8844,225.1992 L44.8844,226.293 Q44.8844,227.5273 45.775,228.3555 Q46.6656,229.168 48.2594,229.168 Q49.1969,229.168 49.8531,228.918 Q50.2438,228.7617 50.6656,228.3242 Q50.9313,228.0586 51.0719,227.9805 Q51.2281,227.9023 51.4313,227.9023 Q51.7594,227.9023 52.0094,228.168 Q52.275,228.418 52.275,228.7617 Q52.275,229.1055 51.9313,229.5117 Q51.4313,230.0898 50.6344,230.418 Q49.5563,230.8711 48.2594,230.8711 Q46.7438,230.8711 45.5406,230.2461 Q44.5563,229.7461 43.8688,228.6836 Q43.1813,227.6055 43.1813,226.3242 L43.1813,225.168 Q43.1813,223.8398 43.7906,222.6992 Q44.4156,221.543 45.5094,220.9336 Q46.6031,220.3086 47.8375,220.3086 Q48.5719,220.3086 49.2125,220.4805 Q49.8688,220.6367 50.4156,220.9961 Z " fill="#000000"/><text fill="#000000" font-family="sans-serif" font-size="14" lengthAdjust="spacing" textLength="77" x="67.35" y="230.918">MainMenuUI</text><line style="stroke:#181818;stroke-width:0.5;" x1="8" x2="172" y1="241.1211" y2="241.1211"/><text fill="#000000" font-family="sans-serif" font-size="14" lengthAdjust="spacing" textLength="154" x="13" y="260.2285">-List&lt;MenuItem&gt; options</text><line style="stroke:#181818;stroke-width:0.5;" x1="8" x2="172" y1="267.7422" y2="267.7422"/><text fill="#000000" font-family="sans-serif" font-size="14" lengthAdjust="spacing" textLength="39" x="13" y="286.8496">+run()</text></g><!--class MenuItem--><g id="elem_MenuItem"><rect codeLine="17" fill="#F1F1F1" height="103.8633" id="MenuItem" rx="2.5" ry="2.5" style="stroke:#181818;stroke-width:0.5;" width="127" x="296.5" y="199.6211"/><ellipse cx="326.8" cy="215.6211" fill="#ADD1B2" rx="11" ry="11" style="stroke:#181818;stroke-width:1.0;"/><path d="M329.5656,211.4961 Q329.7219,211.2773 329.9094,211.168 Q330.0969,211.0586 330.3156,211.0586 Q330.6906,211.0586 330.925,211.3242 Q331.1594,211.5742 331.1594,212.1836 L331.1594,213.6367 Q331.1594,214.2461 330.925,214.5117 Q330.6906,214.7773 330.3156,214.7773 Q329.9719,214.7773 329.7688,214.5742 Q329.5656,214.3867 329.4563,213.8711 Q329.4094,213.5117 329.2219,213.3242 Q328.8938,212.9492 328.2844,212.7305 Q327.675,212.5117 327.05,212.5117 Q326.2844,212.5117 325.6438,212.8398 Q325.0188,213.168 324.5188,213.918 Q324.0344,214.668 324.0344,215.6992 L324.0344,216.793 Q324.0344,218.0273 324.925,218.8555 Q325.8156,219.668 327.4094,219.668 Q328.3469,219.668 329.0031,219.418 Q329.3938,219.2617 329.8156,218.8242 Q330.0813,218.5586 330.2219,218.4805 Q330.3781,218.4023 330.5813,218.4023 Q330.9094,218.4023 331.1594,218.668 Q331.425,218.918 331.425,219.2617 Q331.425,219.6055 331.0813,220.0117 Q330.5813,220.5898 329.7844,220.918 Q328.7063,221.3711 327.4094,221.3711 Q325.8938,221.3711 324.6906,220.7461 Q323.7063,220.2461 323.0188,219.1836 Q322.3313,218.1055 322.3313,216.8242 L322.3313,215.668 Q322.3313,214.3398 322.9406,213.1992 Q323.5656,212.043 324.6594,211.4336 Q325.7531,210.8086 326.9875,210.8086 Q327.7219,210.8086 328.3625,210.9805 Q329.0188,211.1367 329.5656,211.4961 Z " fill="#000000"/><text fill="#000000" font-family="sans-serif" font-size="14" lengthAdjust="spacing" textLength="61" x="344.2" y="221.418">MenuItem</text><line style="stroke:#181818;stroke-width:0.5;" x1="297.5" x2="422.5" y1="231.6211" y2="231.6211"/><text fill="#000000" font-family="sans-serif" font-size="14" lengthAdjust="spacing" textLength="115" x="302.5" y="250.7285">-String description</text><text fill="#000000" font-family="sans-serif" font-size="14" lengthAdjust="spacing" textLength="81" x="302.5" y="269.3496">-Runnable ui</text><line style="stroke:#181818;stroke-width:0.5;" x1="297.5" x2="422.5" y1="276.8633" y2="276.8633"/><text fill="#000000" font-family="sans-serif" font-size="14" lengthAdjust="spacing" textLength="39" x="302.5" y="295.9707">+run()</text></g><!--class SignUpUI--><g id="elem_SignUpUI"><rect codeLine="24" fill="#F1F1F1" height="66.6211" id="SignUpUI" rx="2.5" ry="2.5" style="stroke:#181818;stroke-width:0.5;" width="89" x="485.5" y="218.1211"/><ellipse cx="500.5" cy="234.1211" fill="#ADD1B2" rx="11" ry="11" style="stroke:#181818;stroke-width:1.0;"/><path d="M503.2656,229.9961 Q503.4219,229.7773 503.6094,229.668 Q503.7969,229.5586 504.0156,229.5586 Q504.3906,229.5586 504.625,229.8242 Q504.8594,230.0742 504.8594,230.6836 L504.8594,232.1367 Q504.8594,232.7461 504.625,233.0117 Q504.3906,233.2773 504.0156,233.2773 Q503.6719,233.2773 503.4688,233.0742 Q503.2656,232.8867 503.1563,232.3711 Q503.1094,232.0117 502.9219,231.8242 Q502.5938,231.4492 501.9844,231.2305 Q501.375,231.0117 500.75,231.0117 Q499.9844,231.0117 499.3438,231.3398 Q498.7188,231.668 498.2188,232.418 Q497.7344,233.168 497.7344,234.1992 L497.7344,235.293 Q497.7344,236.5273 498.625,237.3555 Q499.5156,238.168 501.1094,238.168 Q502.0469,238.168 502.7031,237.918 Q503.0938,237.7617 503.5156,237.3242 Q503.7813,237.0586 503.9219,236.9805 Q504.0781,236.9023 504.2813,236.9023 Q504.6094,236.9023 504.8594,237.168 Q505.125,237.418 505.125,237.7617 Q505.125,238.1055 504.7813,238.5117 Q504.2813,239.0898 503.4844,239.418 Q502.4063,239.8711 501.1094,239.8711 Q499.5938,239.8711 498.3906,239.2461 Q497.4063,238.7461 496.7188,237.6836 Q496.0313,236.6055 496.0313,235.3242 L496.0313,234.168 Q496.0313,232.8398 496.6406,231.6992 Q497.2656,230.543 498.3594,229.9336 Q499.4531,229.3086 500.6875,229.3086 Q501.4219,229.3086 502.0625,229.4805 Q502.7188,229.6367 503.2656,229.9961 Z " fill="#000000"/><text fill="#000000" font-family="sans-serif" font-size="14" lengthAdjust="spacing" textLength="57" x="514.5" y="239.918">SignUpUI</text><line style="stroke:#181818;stroke-width:0.5;" x1="486.5" x2="573.5" y1="250.1211" y2="250.1211"/><line style="stroke:#181818;stroke-width:0.5;" x1="486.5" x2="573.5" y1="258.1211" y2="258.1211"/><text fill="#000000" font-family="sans-serif" font-size="14" lengthAdjust="spacing" textLength="39" x="491.5" y="277.2285">+run()</text></g><!--class SignUpController--><g id="elem_SignUpController"><rect codeLine="29" fill="#F1F1F1" height="122.4844" id="SignUpController" rx="2.5" ry="2.5" style="stroke:#181818;stroke-width:0.5;" width="393" x="654.5" y="190.6211"/><ellipse cx="793.25" cy="206.6211" fill="#ADD1B2" rx="11" ry="11" style="stroke:#181818;stroke-width:1.0;"/><path d="M796.0156,202.4961 Q796.1719,202.2773 796.3594,202.168 Q796.5469,202.0586 796.7656,202.0586 Q797.1406,202.0586 797.375,202.3242 Q797.6094,202.5742 797.6094,203.1836 L797.6094,204.6367 Q797.6094,205.2461 797.375,205.5117 Q797.1406,205.7773 796.7656,205.7773 Q796.4219,205.7773 796.2188,205.5742 Q796.0156,205.3867 795.9063,204.8711 Q795.8594,204.5117 795.6719,204.3242 Q795.3438,203.9492 794.7344,203.7305 Q794.125,203.5117 793.5,203.5117 Q792.7344,203.5117 792.0938,203.8398 Q791.4688,204.168 790.9688,204.918 Q790.4844,205.668 790.4844,206.6992 L790.4844,207.793 Q790.4844,209.0273 791.375,209.8555 Q792.2656,210.668 793.8594,210.668 Q794.7969,210.668 795.4531,210.418 Q795.8438,210.2617 796.2656,209.8242 Q796.5313,209.5586 796.6719,209.4805 Q796.8281,209.4023 797.0313,209.4023 Q797.3594,209.4023 797.6094,209.668 Q797.875,209.918 797.875,210.2617 Q797.875,210.6055 797.5313,211.0117 Q797.0313,211.5898 796.2344,211.918 Q795.1563,212.3711 793.8594,212.3711 Q792.3438,212.3711 791.1406,211.7461 Q790.1563,211.2461 789.4688,210.1836 Q788.7813,209.1055 788.7813,207.8242 L788.7813,206.668 Q788.7813,205.3398 789.3906,204.1992 Q790.0156,203.043 791.1094,202.4336 Q792.2031,201.8086 793.4375,201.8086 Q794.1719,201.8086 794.8125,201.9805 Q795.4688,202.1367 796.0156,202.4961 Z " fill="#000000"/><text fill="#000000" font-family="sans-serif" font-size="14" lengthAdjust="spacing" textLength="107" x="813.75" y="212.418">SignUpController</text><line style="stroke:#181818;stroke-width:0.5;" x1="655.5" x2="1046.5" y1="222.6211" y2="222.6211"/><line style="stroke:#181818;stroke-width:0.5;" x1="655.5" x2="1046.5" y1="230.6211" y2="230.6211"/><text fill="#000000" font-family="sans-serif" font-size="14" lengthAdjust="spacing" textLength="136" x="660.5" y="249.7285">+requestInformation()</text><text fill="#000000" font-family="sans-serif" font-size="14" lengthAdjust="spacing" textLength="381" x="660.5" y="268.3496">+verifyInformation(String name, int ccNumber, int taxNumber,</text><text fill="#000000" font-family="sans-serif" font-size="14" lengthAdjust="spacing" textLength="268" x="660.5" y="286.9707">String email, String phone, String address)</text><text fill="#000000" font-family="sans-serif" font-size="14" lengthAdjust="spacing" textLength="136" x="660.5" y="305.5918">+generatePassword()</text></g><!--class Repository--><g id="elem_Repository"><rect codeLine="36" fill="#F1F1F1" height="85.2422" id="Repository" rx="2.5" ry="2.5" style="stroke:#181818;stroke-width:0.5;" width="142" x="652" y="500.1211"/><ellipse cx="685.9" cy="516.1211" fill="#ADD1B2" rx="11" ry="11" style="stroke:#181818;stroke-width:1.0;"/><path d="M688.6656,511.9961 Q688.8219,511.7773 689.0094,511.668 Q689.1969,511.5586 689.4156,511.5586 Q689.7906,511.5586 690.025,511.8242 Q690.2594,512.0742 690.2594,512.6836 L690.2594,514.1367 Q690.2594,514.7461 690.025,515.0117 Q689.7906,515.2773 689.4156,515.2773 Q689.0719,515.2773 688.8688,515.0742 Q688.6656,514.8867 688.5563,514.3711 Q688.5094,514.0117 688.3219,513.8242 Q687.9938,513.4492 687.3844,513.2305 Q686.775,513.0117 686.15,513.0117 Q685.3844,513.0117 684.7438,513.3398 Q684.1188,513.668 683.6188,514.418 Q683.1344,515.168 683.1344,516.1992 L683.1344,517.293 Q683.1344,518.5273 684.025,519.3555 Q684.9156,520.168 686.5094,520.168 Q687.4469,520.168 688.1031,519.918 Q688.4938,519.7617 688.9156,519.3242 Q689.1813,519.0586 689.3219,518.9805 Q689.4781,518.9023 689.6813,518.9023 Q690.0094,518.9023 690.2594,519.168 Q690.525,519.418 690.525,519.7617 Q690.525,520.1055 690.1813,520.5117 Q689.6813,521.0898 688.8844,521.418 Q687.8063,521.8711 686.5094,521.8711 Q684.9938,521.8711 683.7906,521.2461 Q682.8063,520.7461 682.1188,519.6836 Q681.4313,518.6055 681.4313,517.3242 L681.4313,516.168 Q681.4313,514.8398 682.0406,513.6992 Q682.6656,512.543 683.7594,511.9336 Q684.8531,511.3086 686.0875,511.3086 Q686.8219,511.3086 687.4625,511.4805 Q688.1188,511.6367 688.6656,511.9961 Z " fill="#000000"/><text fill="#000000" font-family="sans-serif" font-size="14" lengthAdjust="spacing" textLength="68" x="704.1" y="521.918">Repository</text><line style="stroke:#181818;stroke-width:0.5;" x1="653" x2="793" y1="532.1211" y2="532.1211"/><text fill="#000000" font-family="sans-serif" font-size="14" lengthAdjust="spacing" textLength="130" x="658" y="551.2285">-Repository instance</text><line style="stroke:#181818;stroke-width:0.5;" x1="653" x2="793" y1="558.7422" y2="558.7422"/><text fill="#000000" font-family="sans-serif" font-size="14" lengthAdjust="spacing" textLength="91" x="658" y="577.8496">+getInstance()</text></g><!--class UserRepository--><g id="elem_UserRepository"><rect codeLine="42" fill="#F1F1F1" height="141.1055" id="UserRepository" rx="2.5" ry="2.5" style="stroke:#181818;stroke-width:0.5;" width="136" x="880" y="472.1211"/><ellipse cx="898.15" cy="488.1211" fill="#ADD1B2" rx="11" ry="11" style="stroke:#181818;stroke-width:1.0;"/><path d="M900.9156,483.9961 Q901.0719,483.7773 901.2594,483.668 Q901.4469,483.5586 901.6656,483.5586 Q902.0406,483.5586 902.275,483.8242 Q902.5094,484.0742 902.5094,484.6836 L902.5094,486.1367 Q902.5094,486.7461 902.275,487.0117 Q902.0406,487.2773 901.6656,487.2773 Q901.3219,487.2773 901.1188,487.0742 Q900.9156,486.8867 900.8063,486.3711 Q900.7594,486.0117 900.5719,485.8242 Q900.2438,485.4492 899.6344,485.2305 Q899.025,485.0117 898.4,485.0117 Q897.6344,485.0117 896.9938,485.3398 Q896.3688,485.668 895.8688,486.418 Q895.3844,487.168 895.3844,488.1992 L895.3844,489.293 Q895.3844,490.5273 896.275,491.3555 Q897.1656,492.168 898.7594,492.168 Q899.6969,492.168 900.3531,491.918 Q900.7438,491.7617 901.1656,491.3242 Q901.4313,491.0586 901.5719,490.9805 Q901.7281,490.9023 901.9313,490.9023 Q902.2594,490.9023 902.5094,491.168 Q902.775,491.418 902.775,491.7617 Q902.775,492.1055 902.4313,492.5117 Q901.9313,493.0898 901.1344,493.418 Q900.0563,493.8711 898.7594,493.8711 Q897.2438,493.8711 896.0406,493.2461 Q895.0563,492.7461 894.3688,491.6836 Q893.6813,490.6055 893.6813,489.3242 L893.6813,488.168 Q893.6813,486.8398 894.2906,485.6992 Q894.9156,484.543 896.0094,483.9336 Q897.1031,483.3086 898.3375,483.3086 Q899.0719,483.3086 899.7125,483.4805 Q900.3688,483.6367 900.9156,483.9961 Z " fill="#000000"/><text fill="#000000" font-family="sans-serif" font-size="14" lengthAdjust="spacing" textLength="97" x="912.85" y="493.918">UserRepository</text><line style="stroke:#181818;stroke-width:0.5;" x1="881" x2="1015" y1="504.1211" y2="504.1211"/><text fill="#000000" font-family="sans-serif" font-size="14" lengthAdjust="spacing" textLength="111" x="886" y="523.2285">-List&lt;User&gt; users</text><line style="stroke:#181818;stroke-width:0.5;" x1="881" x2="1015" y1="530.7422" y2="530.7422"/><text fill="#000000" font-family="sans-serif" font-size="14" lengthAdjust="spacing" textLength="67" x="886" y="549.8496">+isEmpty()</text><text fill="#000000" font-family="sans-serif" font-size="14" lengthAdjust="spacing" textLength="70" x="886" y="568.4707">+add(user)</text><text fill="#000000" font-family="sans-serif" font-size="14" lengthAdjust="spacing" textLength="124" x="886" y="587.0918">+validateUser(user)</text><text fill="#000000" font-family="sans-serif" font-size="14" lengthAdjust="spacing" textLength="67" x="886" y="605.7129">+getUser()</text></g><!--class User--><g id="elem_User"><rect codeLine="51" fill="#F1F1F1" height="234.2109" id="User" rx="2.5" ry="2.5" style="stroke:#181818;stroke-width:0.5;" width="168" x="1102" y="425.6211"/><ellipse cx="1167.25" cy="441.6211" fill="#ADD1B2" rx="11" ry="11" style="stroke:#181818;stroke-width:1.0;"/><path d="M1170.0156,437.4961 Q1170.1719,437.2773 1170.3594,437.168 Q1170.5469,437.0586 1170.7656,437.0586 Q1171.1406,437.0586 1171.375,437.3242 Q1171.6094,437.5742 1171.6094,438.1836 L1171.6094,439.6367 Q1171.6094,440.2461 1171.375,440.5117 Q1171.1406,440.7773 1170.7656,440.7773 Q1170.4219,440.7773 1170.2188,440.5742 Q1170.0156,440.3867 1169.9063,439.8711 Q1169.8594,439.5117 1169.6719,439.3242 Q1169.3438,438.9492 1168.7344,438.7305 Q1168.125,438.5117 1167.5,438.5117 Q1166.7344,438.5117 1166.0938,438.8398 Q1165.4688,439.168 1164.9688,439.918 Q1164.4844,440.668 1164.4844,441.6992 L1164.4844,442.793 Q1164.4844,444.0273 1165.375,444.8555 Q1166.2656,445.668 1167.8594,445.668 Q1168.7969,445.668 1169.4531,445.418 Q1169.8438,445.2617 1170.2656,444.8242 Q1170.5313,444.5586 1170.6719,444.4805 Q1170.8281,444.4023 1171.0313,444.4023 Q1171.3594,444.4023 1171.6094,444.668 Q1171.875,444.918 1171.875,445.2617 Q1171.875,445.6055 1171.5313,446.0117 Q1171.0313,446.5898 1170.2344,446.918 Q1169.1563,447.3711 1167.8594,447.3711 Q1166.3438,447.3711 1165.1406,446.7461 Q1164.1563,446.2461 1163.4688,445.1836 Q1162.7813,444.1055 1162.7813,442.8242 L1162.7813,441.668 Q1162.7813,440.3398 1163.3906,439.1992 Q1164.0156,438.043 1165.1094,437.4336 Q1166.2031,436.8086 1167.4375,436.8086 Q1168.1719,436.8086 1168.8125,436.9805 Q1169.4688,437.1367 1170.0156,437.4961 Z " fill="#000000"/><text fill="#000000" font-family="sans-serif" font-size="14" lengthAdjust="spacing" textLength="29" x="1187.75" y="447.418">User</text><line style="stroke:#181818;stroke-width:0.5;" x1="1103" x2="1269" y1="457.6211" y2="457.6211"/><text fill="#000000" font-family="sans-serif" font-size="14" lengthAdjust="spacing" textLength="81" x="1108" y="476.7285">-String name</text><text fill="#000000" font-family="sans-serif" font-size="14" lengthAdjust="spacing" textLength="87" x="1108" y="495.3496">-int ccNumber</text><text fill="#000000" font-family="sans-serif" font-size="14" lengthAdjust="spacing" textLength="91" x="1108" y="513.9707">-int taxNumber</text><text fill="#000000" font-family="sans-serif" font-size="14" lengthAdjust="spacing" textLength="79" x="1108" y="532.5918">-String email</text><text fill="#000000" font-family="sans-serif" font-size="14" lengthAdjust="spacing" textLength="86" x="1108" y="551.2129">-String phone</text><text fill="#000000" font-family="sans-serif" font-size="14" lengthAdjust="spacing" textLength="97" x="1108" y="569.834">-String address</text><text fill="#000000" font-family="sans-serif" font-size="14" lengthAdjust="spacing" textLength="106" x="1108" y="588.4551">-String password</text><line style="stroke:#181818;stroke-width:0.5;" x1="1103" x2="1269" y1="595.9688" y2="595.9688"/><text fill="#000000" font-family="sans-serif" font-size="14" lengthAdjust="spacing" textLength="100" x="1108" y="615.0762">+listProperties()</text><text fill="#000000" font-family="sans-serif" font-size="14" lengthAdjust="spacing" textLength="156" x="1108" y="633.6973">+sendPropertyRequest()</text><text fill="#000000" font-family="sans-serif" font-size="14" lengthAdjust="spacing" textLength="95" x="1108" y="652.3184">+buyProperty()</text></g><!--link UnregisteredUser to MainMenuUI--><g id="link_UnregisteredUser_MainMenuUI"><path codeLine="65" d="M630.69,90.9111 C546.44,113.8711 402.15,153.7611 279,190.6211 C245.97,200.5111 209.86,211.8411 178.14,221.9711 " fill="none" id="UnregisteredUser-to-MainMenuUI" style="stroke:#181818;stroke-width:1.0;"/><polygon fill="#181818" points="173.08,223.5911,182.8722,224.6461,177.8403,222.0615,180.4249,217.0296,173.08,223.5911" style="stroke:#181818;stroke-width:1.0;"/><text fill="#000000" font-family="sans-serif" font-size="13" lengthAdjust="spacing" textLength="77" x="499" y="148.1494">interacts with</text></g><!--link MainMenuUI to MenuItem--><g id="link_MainMenuUI_MenuItem"><path codeLine="67" d="M173.27,270.3811 C200.05,274.3211 229.87,276.5211 257.25,273.6211 C268.34,272.4511 279.99,270.5811 291.31,268.4111 " fill="none" id="MainMenuUI-to-MenuItem" style="stroke:#181818;stroke-width:1.0;"/><polygon fill="#181818" points="296.48,267.4011,286.8801,265.2007,291.5727,268.3597,288.4138,273.0523,296.48,267.4011" style="stroke:#181818;stroke-width:1.0;"/><text fill="#000000" font-family="sans-serif" font-size="13" lengthAdjust="spacing" textLength="43" x="213.25" y="269.6494">creates</text></g><!--link MainMenuUI to MenuItem--><g id="link_MainMenuUI_MenuItem"><path codeLine="68" d="M173.21,251.6211 C211.02,251.6211 255.21,251.6211 291.12,251.6211 " fill="none" id="MainMenuUI-to-MenuItem-1" style="stroke:#181818;stroke-width:1.0;"/><polygon fill="#181818" points="296.36,251.6211,287.36,247.6211,291.36,251.6211,287.36,255.6211,296.36,251.6211" style="stroke:#181818;stroke-width:1.0;"/><text fill="#000000" font-family="sans-serif" font-size="13" lengthAdjust="spacing" textLength="87" x="191.25" y="227.6494">requests to get</text><text fill="#000000" font-family="sans-serif" font-size="13" lengthAdjust="spacing" textLength="74" x="197.75" y="244.9404">all properties</text></g><!--link MenuItem to SignUpUI--><g id="link_MenuItem_SignUpUI"><path codeLine="70" d="M423.79,251.6211 C442.4,251.6211 462.46,251.6211 480.09,251.6211 " fill="none" id="MenuItem-to-SignUpUI" style="stroke:#181818;stroke-width:1.0;"/><polygon fill="#181818" points="485.47,251.6211,476.47,247.6211,480.47,251.6211,476.47,255.6211,485.47,251.6211" style="stroke:#181818;stroke-width:1.0;"/><text fill="#000000" font-family="sans-serif" font-size="13" lengthAdjust="spacing" textLength="25" x="442" y="244.6494">runs</text></g><!--link SignUpUI to SignUpController--><g id="link_SignUpUI_SignUpController"><path codeLine="71" d="M574.63,251.6211 C595.23,251.6211 621.28,251.6211 649.11,251.6211 " fill="none" id="SignUpUI-to-SignUpController" style="stroke:#181818;stroke-width:1.0;"/><polygon fill="#181818" points="654.32,251.6211,645.32,247.6211,649.32,251.6211,645.32,255.6211,654.32,251.6211" style="stroke:#181818;stroke-width:1.0;"/><text fill="#000000" font-family="sans-serif" font-size="13" lengthAdjust="spacing" textLength="43" x="593" y="244.6494">creates</text></g><!--reverse link UnregisteredUser to SignUpController--><g id="link_UnregisteredUser_SignUpController"><path codeLine="73" d="M693.79,99.8311 C690.09,118.3111 688.57,142.3311 699,160.6211 C705.38,171.8111 713.76,181.7511 723.3,190.5511 " fill="none" id="UnregisteredUser-backto-SignUpController" style="stroke:#181818;stroke-width:1.0;"/><polygon fill="#181818" points="694.89,94.7811,689.0771,102.7316,693.8326,99.668,696.8962,104.4235,694.89,94.7811" style="stroke:#181818;stroke-width:1.0;"/><text fill="#000000" font-family="sans-serif" font-size="13" lengthAdjust="spacing" textLength="107" x="700" y="139.6494">request necessary</text><text fill="#000000" font-family="sans-serif" font-size="13" lengthAdjust="spacing" textLength="63" x="722" y="156.9404">information</text></g><!--link UnregisteredUser to SignUpController--><g id="link_UnregisteredUser_SignUpController"><path codeLine="74" d="M771.94,94.6911 C786.78,102.2811 801.21,112.0911 812,124.6211 C826.66,141.6511 835.82,164.1311 841.53,185.3911 " fill="none" id="UnregisteredUser-to-SignUpController" style="stroke:#181818;stroke-width:1.0;"/><polygon fill="#181818" points="842.84,190.4811,844.4772,180.7693,841.5971,185.638,836.7283,182.7579,842.84,190.4811" style="stroke:#181818;stroke-width:1.0;"/><text fill="#000000" font-family="sans-serif" font-size="13" lengthAdjust="spacing" textLength="108" x="833" y="139.6494">provides requested</text><text fill="#000000" font-family="sans-serif" font-size="13" lengthAdjust="spacing" textLength="63" x="855.5" y="156.9404">information</text></g><!--link SignUpController to Repository--><g id="link_SignUpController_Repository"><path codeLine="75" d="M822.52,313.0311 C817.95,322.8911 813.31,333.0311 809,342.6211 C785.65,394.5811 759.85,454.6611 742.66,495.0911 " fill="none" id="SignUpController-to-Repository" style="stroke:#181818;stroke-width:1.0;"/><polygon fill="#181818" points="740.61,499.9211,747.8142,493.2055,742.5675,495.3202,740.4528,490.0735,740.61,499.9211" style="stroke:#181818;stroke-width:1.0;"/><text fill="#000000" font-family="sans-serif" font-size="13" lengthAdjust="spacing" textLength="25" x="829" y="366.1494">gets</text><text fill="#000000" font-family="sans-serif" font-size="13" lengthAdjust="spacing" textLength="63" x="810" y="383.4404">instance of</text></g><!--link Repository to UserRepository--><g id="link_Repository_UserRepository"><path codeLine="77" d="M794.19,542.6211 C819.9,542.6211 848.95,542.6211 874.83,542.6211 " fill="none" id="Repository-to-UserRepository" style="stroke:#181818;stroke-width:1.0;"/><polygon fill="#181818" points="879.96,542.6211,870.96,538.6211,874.96,542.6211,870.96,546.6211,879.96,542.6211" style="stroke:#181818;stroke-width:1.0;"/><text fill="#000000" font-family="sans-serif" font-size="13" lengthAdjust="spacing" textLength="49" x="812.5" y="535.6494">contains</text></g><!--link SignUpController to UserRepository--><g id="link_SignUpController_UserRepository"><path codeLine="78" d="M871.22,312.8511 C886.27,357.7111 906.92,419.2311 923.01,467.1711 " fill="none" id="SignUpController-to-UserRepository" style="stroke:#181818;stroke-width:1.0;"/><polygon fill="#181818" points="924.65,472.0711,925.5898,462.2672,923.0646,467.3291,918.0026,464.8039,924.65,472.0711" style="stroke:#181818;stroke-width:1.0;"/><text fill="#000000" font-family="sans-serif" font-size="13" lengthAdjust="spacing" textLength="130" x="909" y="357.6494">registers if successful,</text><text fill="#000000" font-family="sans-serif" font-size="13" lengthAdjust="spacing" textLength="154" x="897" y="374.9404">loops "requests necessary</text><text fill="#000000" font-family="sans-serif" font-size="13" lengthAdjust="spacing" textLength="100" x="924" y="392.2314">information" if not</text></g><!--link UserRepository to User--><g id="link_UserRepository_User"><path codeLine="79" d="M1016.2,542.6211 C1041.18,542.6211 1069.84,542.6211 1096.42,542.6211 " fill="none" id="UserRepository-to-User" style="stroke:#181818;stroke-width:1.0;"/><polygon fill="#181818" points="1101.7,542.6211,1092.7,538.6211,1096.7,542.6211,1092.7,546.6211,1101.7,542.6211" style="stroke:#181818;stroke-width:1.0;"/><text fill="#000000" font-family="sans-serif" font-size="13" lengthAdjust="spacing" textLength="49" x="1034.5" y="535.6494">contains</text></g><!--SRC=[TLDDQnj13BtFhn0vfIGBlXLC2PIq1qDJWerlWJ3UbTT3PZNRqKpSRUb_hsQ_CewTou96xqbFJrf-CTHghnjeTVcYQzo4pY9uB8EcsgBY6S07NRcZeHhssdAUAQrc_Xg2DxiOS5KwsfW_20kbWWbIRRjPB3x3njG4snOAk4zu-6PqBMobUZfioMDjEA37QileuQzwVdvM_wRyWpRqW1ItAyaKFmJv9OMhWCqTk3OOHzmpRdoawqyPSKGbsaOqoW0LSkbDpr75EXBfdSYCvY8_wTwsVTkFq_UEWdVMefzG-2iYXnNjdMzqwYIacrVqPj_bZwCYqWtUWg40PVapDZlqGnJqxp5yeX6AZJRs5iQeFJZ2ET9LvP5PEjL8w7N0Hz5uTBxA9Q-nTMo2yrto98iCiQozn6646aN-y92pqt9EA_JBICzt4EKxhi7mzwODNHfRP5sdJ790MrE9hWIVtgHH7xvhaYqisQEAt9uXcksPaRqxSzIxCqUZEs_PqPj1hvKf7hrhqGU3d6GpKZM-TEjXd-bv5xlfTP1yThf5SPVVwpAjKhPH1eQZ2GUbicI2JXUwXDAZcCCV0yQxOWWEnBSdqjP2EykMqXDMUFFf2Y_Axp77S-xjRhFcwYnNn5OePtFESe2m56Urxvx8l5tt1MSkDXRzhqP-ogaSLgTbplL8dUm6byaAJfpXNC7jbShoIVlfrSgmKarCvWl5Bw2dCHZC7ZYMQTfzjF9NMkTQXgjvBvUTk4eySa6zgrnuKn_2s35NzHy0]--></g></svg>