<?xml version="1.0" encoding="us-ascii" standalone="no"?><svg xmlns="http://www.w3.org/2000/svg" xmlns:xlink="http://www.w3.org/1999/xlink" contentStyleType="text/css" height="1024.2px" preserveAspectRatio="none" style="width:395px;height:1024px;background:#FFFFFF;" version="1.1" viewBox="0 0 395 1024" width="395.4px" zoomAndPan="magnify"><defs/><g><text fill="#000000" font-family="sans-serif" font-size="8.4" font-weight="bold" lengthAdjust="spacing" textLength="76.2" x="155.4" y="15.0645">Use Case Diagram</text><!--cluster Registered Users--><g id="cluster_Registered Users"><path d="M5.1,427.5809 L79.5,427.5809 A2.25,2.25 0 0 1 81,429.0809 L85.2,442.3535 L101.1,442.3535 A1.5,1.5 0 0 1 102.6,443.8535 L102.6,847.8809 A1.5,1.5 0 0 1 101.1,849.3809 L5.1,849.3809 A1.5,1.5 0 0 1 3.6,847.8809 L3.6,429.0809 A1.5,1.5 0 0 1 5.1,427.5809 " fill="none" style="stroke:#000000;stroke-width:0.8999999999999999;"/><line style="stroke:#000000;stroke-width:0.8999999999999999;" x1="3.6" x2="85.2" y1="442.3535" y2="442.3535"/><text fill="#000000" font-family="sans-serif" font-size="8.4" font-weight="bold" lengthAdjust="spacing" textLength="73.8" x="6" y="437.8453">Registered Users</text></g><!--cluster Application--><g id="cluster_Application"><path d="M120.9,27.3809 L168.3,27.3809 A2.25,2.25 0 0 1 169.8,28.8809 L174,42.1535 L389.7,42.1535 A1.5,1.5 0 0 1 391.2,43.6535 L391.2,1018.8809 A1.5,1.5 0 0 1 389.7,1020.3809 L120.9,1020.3809 A1.5,1.5 0 0 1 119.4,1018.8809 L119.4,28.8809 A1.5,1.5 0 0 1 120.9,27.3809 " fill="none" style="stroke:#000000;stroke-width:0.8999999999999999;"/><line style="stroke:#000000;stroke-width:0.8999999999999999;" x1="119.4" x2="174" y1="42.1535" y2="42.1535"/><text fill="#000000" font-family="sans-serif" font-size="8.4" font-weight="bold" lengthAdjust="spacing" textLength="46.8" x="121.8" y="37.6453">Application</text></g><!--entity Cl--><g id="elem_Cl"><ellipse cx="53.1" cy="455.1809" fill="#F1F1F1" rx="4.8" ry="4.8" style="stroke:#181818;stroke-width:0.3;"/><path d="M53.1,459.9809 L53.1,476.1809 M45.3,464.7809 L60.9,464.7809 M53.1,476.1809 L45.3,485.1809 M53.1,476.1809 L60.9,485.1809 " fill="none" style="stroke:#181818;stroke-width:0.3;"/><text fill="#000000" font-family="sans-serif" font-size="8.4" lengthAdjust="spacing" textLength="21.6" x="42.3" y="495.1453">Client</text></g><!--entity Ag--><g id="elem_Ag"><ellipse cx="53.1" cy="523.5809" fill="#F1F1F1" rx="4.8" ry="4.8" style="stroke:#181818;stroke-width:0.3;"/><path d="M53.1,528.3809 L53.1,544.5809 M45.3,533.1809 L60.9,533.1809 M53.1,544.5809 L45.3,553.5809 M53.1,544.5809 L60.9,553.5809 " fill="none" style="stroke:#181818;stroke-width:0.3;"/><text fill="#000000" font-family="sans-serif" font-size="8.4" lengthAdjust="spacing" textLength="22.2" x="42" y="563.5453">Agent</text></g><!--entity Admin--><g id="elem_Admin"><ellipse cx="53.1" cy="591.9809" fill="#F1F1F1" rx="4.8" ry="4.8" style="stroke:#181818;stroke-width:0.3;"/><path d="M53.1,596.7809 L53.1,612.9809 M45.3,601.5809 L60.9,601.5809 M53.1,612.9809 L45.3,621.9809 M53.1,612.9809 L60.9,621.9809 " fill="none" style="stroke:#181818;stroke-width:0.3;"/><text fill="#000000" font-family="sans-serif" font-size="8.4" lengthAdjust="spacing" textLength="79.8" x="13.2" y="631.9453">System Administrator</text></g><!--entity O--><g id="elem_O"><ellipse cx="53.1" cy="660.3809" fill="#F1F1F1" rx="4.8" ry="4.8" style="stroke:#181818;stroke-width:0.3;"/><path d="M53.1,665.1809 L53.1,681.3809 M45.3,669.9809 L60.9,669.9809 M53.1,681.3809 L45.3,690.3809 M53.1,681.3809 L60.9,690.3809 " fill="none" style="stroke:#181818;stroke-width:0.3;"/><text fill="#000000" font-family="sans-serif" font-size="8.4" lengthAdjust="spacing" textLength="24.6" x="40.8" y="700.3453">Owner</text></g><!--entity Manager--><g id="elem_Manager"><ellipse cx="53.1" cy="728.7809" fill="#F1F1F1" rx="4.8" ry="4.8" style="stroke:#181818;stroke-width:0.3;"/><path d="M53.1,733.5809 L53.1,749.7809 M45.3,738.3809 L60.9,738.3809 M53.1,749.7809 L45.3,758.7809 M53.1,749.7809 L60.9,758.7809 " fill="none" style="stroke:#181818;stroke-width:0.3;"/><text fill="#000000" font-family="sans-serif" font-size="8.4" lengthAdjust="spacing" textLength="66" x="20.1" y="768.7453">Network Manager</text></g><!--entity StoreManager--><g id="elem_StoreManager"><ellipse cx="53.1" cy="797.1809" fill="#F1F1F1" rx="4.8" ry="4.8" style="stroke:#181818;stroke-width:0.3;"/><path d="M53.1,801.9809 L53.1,818.1809 M45.3,806.7809 L60.9,806.7809 M53.1,818.1809 L45.3,827.1809 M53.1,818.1809 L60.9,827.1809 " fill="none" style="stroke:#181818;stroke-width:0.3;"/><text fill="#000000" font-family="sans-serif" font-size="8.4" lengthAdjust="spacing" textLength="56.4" x="24.9" y="837.1453">Store Manager</text></g><g id="elem_Use1"><ellipse cx="255.155" cy="64.6719" fill="#F1F1F1" rx="68.255" ry="15.091" style="stroke:#181818;stroke-width:0.3;"/><text fill="#000000" font-family="sans-serif" font-size="8.4" lengthAdjust="spacing" textLength="113.4" x="198.455" y="66.95">UC1 - display listed properties</text></g><g id="elem_Use7"><ellipse cx="255.3704" cy="110.6749" fill="#F1F1F1" rx="43.2704" ry="10.0941" style="stroke:#181818;stroke-width:0.3;"/><text fill="#000000" font-family="sans-serif" font-size="8.4" lengthAdjust="spacing" textLength="51.6" x="227.7704" y="113.5572">UC7 - sign up</text></g><g id="elem_Use9"><ellipse cx="255.4485" cy="159.4706" fill="#F1F1F1" rx="78.7485" ry="17.1897" style="stroke:#181818;stroke-width:0.3;"/><text fill="#000000" font-family="sans-serif" font-size="8.4" lengthAdjust="spacing" textLength="136.2" x="187.3485" y="161.7487">UC9 - leave a message to the agent</text></g><g id="elem_Use10"><ellipse cx="255.1787" cy="218.8166" fill="#F1F1F1" rx="99.4787" ry="21.3357" style="stroke:#181818;stroke-width:0.3;"/><text fill="#000000" font-family="sans-serif" font-size="8.4" lengthAdjust="spacing" textLength="180" x="165.1787" y="221.0947">UC10 - place an order to purchase the property</text></g><g id="elem_Use20"><ellipse cx="255.2671" cy="277.5143" fill="#F1F1F1" rx="73.4671" ry="16.1334" style="stroke:#181818;stroke-width:0.3;"/><text fill="#000000" font-family="sans-serif" font-size="8.4" lengthAdjust="spacing" textLength="124.8" x="192.8671" y="279.7924">UC20 - read response to request</text></g><g id="elem_Use8"><ellipse cx="255.416" cy="333.9441" fill="#F1F1F1" rx="88.616" ry="19.1632" style="stroke:#181818;stroke-width:0.3;"/><text fill="#000000" font-family="sans-serif" font-size="8.4" lengthAdjust="spacing" textLength="157.2" x="176.816" y="336.2222">UC8 - see list of property announcements</text></g><g id="elem_Use2"><ellipse cx="255.2956" cy="390.98" fill="#F1F1F1" rx="76.7956" ry="16.7991" style="stroke:#181818;stroke-width:0.3;"/><text fill="#000000" font-family="sans-serif" font-size="8.4" lengthAdjust="spacing" textLength="132" x="189.2956" y="393.2581">UC2 - publish sale announcements</text></g><g id="elem_Use11"><ellipse cx="255.368" cy="447.3944" fill="#F1F1F1" rx="84.368" ry="18.3136" style="stroke:#181818;stroke-width:0.3;"/><text fill="#000000" font-family="sans-serif" font-size="8.4" lengthAdjust="spacing" textLength="148.2" x="181.268" y="449.6726">UC11 - accept/decline purchase orders</text></g><g id="elem_Use15"><ellipse cx="255.1758" cy="501.476" fill="#F1F1F1" rx="65.2758" ry="14.4952" style="stroke:#181818;stroke-width:0.3;"/><text fill="#000000" font-family="sans-serif" font-size="8.4" lengthAdjust="spacing" textLength="106.8" x="201.7758" y="503.7541">UC15 - list booking requests</text></g><g id="elem_Use16"><ellipse cx="255.1628" cy="551.0934" fill="#F1F1F1" rx="62.8628" ry="14.0126" style="stroke:#181818;stroke-width:0.3;"/><text fill="#000000" font-family="sans-serif" font-size="8.4" lengthAdjust="spacing" textLength="101.4" x="204.4628" y="553.3715">UC16 - send email to client</text></g><g id="elem_Use3"><ellipse cx="255.319" cy="601.6447" fill="#F1F1F1" rx="69.619" ry="15.3638" style="stroke:#181818;stroke-width:0.3;"/><text fill="#000000" font-family="sans-serif" font-size="8.4" lengthAdjust="spacing" textLength="116.4" x="197.119" y="603.9228">UC3 - register a new employee</text></g><g id="elem_Use5"><ellipse cx="255.1573" cy="650.2123" fill="#F1F1F1" rx="54.4573" ry="12.3315" style="stroke:#181818;stroke-width:0.3;"/><text fill="#000000" font-family="sans-serif" font-size="8.4" lengthAdjust="spacing" textLength="81.6" x="212.5573" y="653.0946">UC5 - register a store</text></g><g id="elem_Use12"><ellipse cx="255.3618" cy="704.3132" fill="#F1F1F1" rx="95.4618" ry="20.5324" style="stroke:#181818;stroke-width:0.3;"/><text fill="#000000" font-family="sans-serif" font-size="8.4" lengthAdjust="spacing" textLength="171.6" x="169.5618" y="706.5913">UC12 - import information from legacy system</text></g><g id="elem_Use4"><ellipse cx="255.3327" cy="772.5874" fill="#F1F1F1" rx="126.3327" ry="26.7065" style="stroke:#181818;stroke-width:0.3;"/><text fill="#000000" font-family="sans-serif" font-size="8.4" lengthAdjust="spacing" textLength="213" x="147.6327" y="769.2792">UC4 - submit a request for listing a property sale or rent,</text><text fill="#000000" font-family="sans-serif" font-size="8.4" lengthAdjust="spacing" textLength="118.8" x="197.1327" y="780.4519">choosing the responsible agent</text></g><g id="elem_Use13"><ellipse cx="255.2027" cy="840.2414" fill="#F1F1F1" rx="92.6027" ry="19.9605" style="stroke:#181818;stroke-width:0.3;"/><text fill="#000000" font-family="sans-serif" font-size="8.4" lengthAdjust="spacing" textLength="165.6" x="172.4027" y="842.5195">UC13 - list every employee from every store</text></g><g id="elem_Use17"><ellipse cx="255.1881" cy="893.0985" fill="#F1F1F1" rx="50.8881" ry="11.6176" style="stroke:#181818;stroke-width:0.3;"/><text fill="#000000" font-family="sans-serif" font-size="8.4" lengthAdjust="spacing" textLength="72.6" x="217.0881" y="895.9807">UC17 - list all deals</text></g><g id="elem_Use19"><ellipse cx="255.2982" cy="944.7205" fill="#F1F1F1" rx="85.4982" ry="18.5396" style="stroke:#181818;stroke-width:0.3;"/><text fill="#000000" font-family="sans-serif" font-size="8.4" lengthAdjust="spacing" textLength="150.6" x="179.9982" y="946.9986">UC19 - divide all stores into two subsets</text></g><g id="elem_Use18"><ellipse cx="255.1783" cy="997.5565" fill="#F1F1F1" rx="58.6783" ry="13.1757" style="stroke:#181818;stroke-width:0.3;"/><text fill="#000000" font-family="sans-serif" font-size="8.4" lengthAdjust="spacing" textLength="91.8" x="208.2114" y="1000.2128">UC18 - analyse all deals</text></g><!--entity Unreg--><g id="elem_Unreg"><ellipse cx="53.1" cy="69.3809" fill="#F1F1F1" rx="4.8" ry="4.8" style="stroke:#181818;stroke-width:0.3;"/><path d="M53.1,74.1809 L53.1,90.3809 M45.3,78.9809 L60.9,78.9809 M53.1,90.3809 L45.3,99.3809 M53.1,90.3809 L60.9,99.3809 " fill="none" style="stroke:#181818;stroke-width:0.3;"/><text fill="#000000" font-family="sans-serif" font-size="8.4" lengthAdjust="spacing" textLength="68.4" x="18.9" y="109.3453">Unregistered User</text></g><!--link Unreg to Use1--><g id="link_Unreg_Use1"><path d="M87.342,84.0629 C115.71,80.7629 157.086,75.9449 191.598,71.9249 " fill="none" id="Unreg-to-Use1" style="stroke:#181818;stroke-width:0.6;"/><polygon fill="#181818" points="194.706,71.5649,189.0673,69.7972,191.7256,71.9074,189.6154,74.5658,194.706,71.5649" style="stroke:#181818;stroke-width:0.6;"/></g><!--link Unreg to Use7--><g id="link_Unreg_Use7"><path d="M87.342,91.7969 C121.908,95.7209 175.788,101.8289 213.03,106.0529 " fill="none" id="Unreg-to-Use7" style="stroke:#181818;stroke-width:0.6;"/><polygon fill="#181818" points="216.132,106.4069,211.0338,103.4188,213.1508,106.0718,210.4977,108.1887,216.132,106.4069" style="stroke:#181818;stroke-width:0.6;"/></g><!--link Cl to Use9--><g id="link_Cl_Use9"><path d="M55.452,449.8949 C60.498,387.8609 77.166,223.8689 114.6,186.9809 C130.254,171.5549 151.86,163.5029 173.424,159.5729 " fill="none" id="Cl-to-Use9" style="stroke:#181818;stroke-width:0.6;"/><polygon fill="#181818" points="176.61,159.0209,170.8779,157.5844,173.6546,159.5363,171.7027,162.313,176.61,159.0209" style="stroke:#181818;stroke-width:0.6;"/></g><!--link Cl to Use10--><g id="link_Cl_Use10"><path d="M57.06,450.0149 C64.842,398.3609 85.662,278.2949 114.6,250.5809 C126.558,239.1329 141.726,231.4829 157.644,226.4309 " fill="none" id="Cl-to-Use10" style="stroke:#181818;stroke-width:0.6;"/><polygon fill="#181818" points="160.626,225.5189,154.7605,224.8007,157.7568,226.3951,156.1624,229.3914,160.626,225.5189" style="stroke:#181818;stroke-width:0.6;"/></g><!--link Cl to Use20--><g id="link_Cl_Use20"><path d="M55.026,450.0689 C58.446,412.9349 70.704,341.4329 114.6,303.9809 C132.306,288.8729 155.904,281.3069 178.68,277.7729 " fill="none" id="Cl-to-Use20" style="stroke:#181818;stroke-width:0.6;"/><polygon fill="#181818" points="181.74,277.3229,176.0484,275.7336,178.7719,277.7591,176.7464,280.4826,181.74,277.3229" style="stroke:#181818;stroke-width:0.6;"/></g><!--link Ag to Use8--><g id="link_Ag_Use8"><path d="M64.386,538.7789 C77.13,534.0929 97.896,524.3189 107.4,507.9809 C115.488,494.0729 104.154,375.6149 114.6,363.3809 C127.164,348.6689 145.038,340.1909 163.836,335.5049 " fill="none" id="Ag-to-Use8" style="stroke:#181818;stroke-width:0.6;"/><polygon fill="#181818" points="166.86,334.7849,161.0508,333.7016,163.9417,335.4801,162.1632,338.371,166.86,334.7849" style="stroke:#181818;stroke-width:0.6;"/></g><!--link Ag to Use2--><g id="link_Ag_Use2"><path d="M64.302,538.7309 C76.968,533.9909 97.65,524.1749 107.4,507.9809 C117.684,490.9049 101.334,433.4549 114.6,418.5809 C130.116,401.1869 153.132,392.8469 176.052,389.2529 " fill="none" id="Ag-to-Use2" style="stroke:#181818;stroke-width:0.6;"/><polygon fill="#181818" points="179.136,388.7969,173.4437,387.21,176.1681,389.2343,174.1437,391.9587,179.136,388.7969" style="stroke:#181818;stroke-width:0.6;"/></g><!--link Ag to Use11--><g id="link_Ag_Use11"><path d="M64.368,538.3109 C76.692,533.2709 96.648,523.2569 107.4,507.9809 C115.74,496.1309 104.25,486.3269 114.6,476.1809 C128.994,462.0749 148.338,454.0169 168.054,449.5889 " fill="none" id="Ag-to-Use11" style="stroke:#181818;stroke-width:0.6;"/><polygon fill="#181818" points="171.222,448.9109,165.44,447.691,168.2881,449.5371,166.442,452.3852,171.222,448.9109" style="stroke:#181818;stroke-width:0.6;"/></g><!--link Ag to Use15--><g id="link_Ag_Use15"><path d="M64.206,539.2409 C76.302,535.9169 96.792,530.4569 114.6,526.5809 C142.386,520.5329 173.496,514.8269 199.332,510.3869 " fill="none" id="Ag-to-Use15" style="stroke:#181818;stroke-width:0.6;"/><polygon fill="#181818" points="202.296,509.8769,196.5646,508.4376,199.3404,510.3909,197.3871,513.1666,202.296,509.8769" style="stroke:#181818;stroke-width:0.6;"/></g><!--link Ag to Use16--><g id="link_Ag_Use16"><path d="M64.224,542.6549 C87.414,543.6929 144.492,546.2489 190.158,548.2889 " fill="none" id="Ag-to-Use16" style="stroke:#181818;stroke-width:0.6;"/><polygon fill="#181818" points="193.428,548.4389,188.136,545.8092,190.4308,548.31,187.9299,550.6048,193.428,548.4389" style="stroke:#181818;stroke-width:0.6;"/></g><!--link Admin to Use3--><g id="link_Admin_Use3"><path d="M93.174,608.8109 C118.98,607.6589 153.432,606.1169 183.888,604.7489 " fill="none" id="Admin-to-Use3" style="stroke:#181818;stroke-width:0.6;"/><polygon fill="#181818" points="187.014,604.6109,181.5098,602.4607,184.0171,604.7483,181.7296,607.2556,187.014,604.6109" style="stroke:#181818;stroke-width:0.6;"/></g><!--link Admin to Use5--><g id="link_Admin_Use5"><path d="M93.024,622.0949 C100.17,623.9969 107.58,625.8449 114.6,627.3809 C144.444,633.9089 178.242,639.4589 205.158,643.4489 " fill="none" id="Admin-to-Use5" style="stroke:#181818;stroke-width:0.6;"/><polygon fill="#181818" points="208.242,643.9049,203.2497,640.7431,205.2741,643.4674,202.5497,645.4918,208.242,643.9049" style="stroke:#181818;stroke-width:0.6;"/></g><!--link Admin to Use12--><g id="link_Admin_Use12"><path d="M93.09,630.5789 C98.496,634.6769 103.512,639.4109 107.4,644.7809 C114.99,655.2569 105.312,663.9749 114.6,672.9809 C127.158,685.1549 143.358,693.0029 160.266,697.9709 " fill="none" id="Admin-to-Use12" style="stroke:#181818;stroke-width:0.6;"/><polygon fill="#181818" points="163.206,698.8109,158.6731,695.0197,160.3214,697.9867,157.3544,699.635,163.206,698.8109" style="stroke:#181818;stroke-width:0.6;"/></g><!--link O to Use4--><g id="link_O_Use4"><path d="M65.448,683.6009 C77.616,688.9649 96.372,698.9309 107.4,713.1809 C113.748,721.3829 107.07,728.2469 114.6,735.3809 C124.032,744.3149 135.354,751.1549 147.42,756.3869 " fill="none" id="O-to-Use4" style="stroke:#181818;stroke-width:0.6;"/><polygon fill="#181818" points="150.336,757.6169,146.2953,753.3049,147.5724,756.4496,144.4277,757.7267,150.336,757.6169" style="stroke:#181818;stroke-width:0.6;"/></g><!--link Manager to Use13--><g id="link_Manager_Use13"><path d="M86.196,762.5909 C94.116,767.6429 101.886,773.9729 107.4,781.5809 C114.99,792.0569 105.294,800.7929 114.6,809.7809 C127.554,822.2849 144.366,830.1689 161.826,835.0409 " fill="none" id="Manager-to-Use13" style="stroke:#181818;stroke-width:0.6;"/><polygon fill="#181818" points="164.862,835.8569,160.2716,832.1355,161.9652,835.0769,159.0237,836.7705,164.862,835.8569" style="stroke:#181818;stroke-width:0.6;"/></g><!--link Manager to Use17--><g id="link_Manager_Use17"><path d="M86.244,761.4689 C94.47,766.6049 102.384,773.2469 107.4,781.5809 C117.684,798.6569 101.058,856.3589 114.6,870.9809 C137.814,896.0489 177.012,900.4649 208.056,899.2529 " fill="none" id="Manager-to-Use17" style="stroke:#181818;stroke-width:0.6;"/><polygon fill="#181818" points="211.224,899.1089,205.72,896.958,208.2271,899.2459,205.9392,901.753,211.224,899.1089" style="stroke:#181818;stroke-width:0.6;"/></g><!--link Manager to Use19--><g id="link_Manager_Use19"><path d="M86.106,761.2109 C94.434,766.3649 102.438,773.0849 107.4,781.5809 C114.912,794.4389 104.91,904.0769 114.6,915.3809 C127.77,930.7349 146.724,939.3029 166.458,943.8389 " fill="none" id="Manager-to-Use19" style="stroke:#181818;stroke-width:0.6;"/><polygon fill="#181818" points="169.632,944.5289,164.8714,941.0278,166.7016,943.8862,163.8432,945.7164,169.632,944.5289" style="stroke:#181818;stroke-width:0.6;"/></g><!--link StoreManager to Use18--><g id="link_StoreManager_Use18"><path d="M55.644,839.6249 C59.88,874.8749 73.176,940.3649 114.6,974.1809 C136.812,992.3129 167.748,998.7989 194.898,1000.4849 " fill="none" id="StoreManager-to-Use18" style="stroke:#181818;stroke-width:0.6;"/><polygon fill="#181818" points="198.018,1000.6529,192.7642,997.9478,195.0229,1000.4812,192.4895,1002.74,198.018,1000.6529" style="stroke:#181818;stroke-width:0.6;"/></g><!--SRC=[TLHDRzim3BthLn0vRS2AnKdJ99S1GNRT2cpeRHT5PXoXikH9SWEZs7yVgVXBxNOnH9gFv7kY67Kq24y1uIZfyrNBoijQ63n7Y0wyhYuHIkrHHUsi4595vs7nP3rMEaJqM3BQBq06I5uXH2FLiwmG5Z_oeB1uxHCSZKOR6NCqlUjGzPv3DLJvsH6uXaDPQqjvl2HlAfGyGzJZrVRr7mVNTunNvv_XcxJKn-rdVnvpqnUpWEGPelvCB0vDOxIIpFzLj04L2xLuEXPmHyg4niWE3DCieV6kGHyrXfJn0v4kFiunMy84NLbecp5YcqNiASAWV46GK6C8t05THBoGWnKQOViCLYm9Hwqe2hFWV8cUOKthrOL36DztrqszBRCSAyxXKPRq2Osp8LNs-Bl5CDLTvQ0TCq9C2e0xZqMe3UjQgx2cfYSvTdb5Rhez4VO2GHhy3sYLKsNXfLBOnCybAgCjJZmJyvdwkVp5XjNbJa_EFMjR3UncY4sEU4ZyR0bOIsrO49LcTm8yP81rql0szdI55g-4R8ph44V8EaDiSaJWCHn3ttJ3WkcwSJw2jcVdwpIMSFQkfgcffEeWf4SpjPUBTyzqsbEjwQaDv84I9LLO43dTOBeH-kM9xYVuPK5Td0iSnDFKpuW-cRUJUP_tl1uqnnVqtQZ6hUcRB-TSvFeKso61D0PAb6PsM_dZAVRfJRxe4bDmoXj8Adv1LyVC0yul-yqZuc6c1M2wWFygHiDBUo5jERZxmYkj6AoRkHL7CvptitEnd1chfJYCYDtil9gTYs9kRER6WqZhRx3NkRd9pM8b7eVplUYts_Xp_SwpVUVPY_bY7DqxyHS0]--></g></svg>