<?xml version="1.0" encoding="us-ascii" standalone="no"?><svg xmlns="http://www.w3.org/2000/svg" xmlns:xlink="http://www.w3.org/1999/xlink" contentStyleType="text/css" height="345.6px" preserveAspectRatio="none" style="width:337px;height:345px;background:#FFFFFF;" version="1.1" viewBox="0 0 337 345" width="337.6px" zoomAndPan="magnify"><defs/><g><text fill="#000000" font-family="sans-serif" font-size="11.2" font-weight="bold" lengthAdjust="spacing" textLength="233.6" x="53" y="24.0859">User Story 16 - System Sequence Diagram</text><rect fill="#FFFFFF" height="165.1016" style="stroke:#181818;stroke-width:0.8000000000000002;" width="8" x="29.2" y="106.5938"/><rect fill="#FFFFFF" height="25.0328" style="stroke:#181818;stroke-width:0.8000000000000002;" width="8" x="296.4" y="125.2266"/><rect fill="#FFFFFF" height="96.4031" style="stroke:#181818;stroke-width:0.8000000000000002;" width="8" x="296.4" y="175.2922"/><rect fill="none" height="78.8031" style="stroke:#000000;stroke-width:1.2000000000000002;" width="324.4" x="8" y="187.2922"/><line style="stroke:#181818;stroke-width:0.4000000000000001;stroke-dasharray:5.0,5.0;" x1="32.8" x2="32.8" y1="98.5938" y2="279.6953"/><line style="stroke:#181818;stroke-width:0.4000000000000001;stroke-dasharray:5.0,5.0;" x1="300.4" x2="300.4" y1="98.5938" y2="279.6953"/><text fill="#000000" font-family="sans-serif" font-size="11.2" lengthAdjust="spacing" textLength="29.6" x="16" y="95.7828">Agent</text><ellipse cx="33.2" cy="42.4969" fill="#E2E2F0" rx="6.4" ry="6.4" style="stroke:#181818;stroke-width:0.4000000000000001;"/><path d="M33.2,48.8969 L33.2,70.4969 M22.8,55.2969 L43.6,55.2969 M33.2,70.4969 L22.8,82.4969 M33.2,70.4969 L43.6,82.4969 " fill="none" style="stroke:#181818;stroke-width:0.4000000000000001;"/><text fill="#000000" font-family="sans-serif" font-size="11.2" lengthAdjust="spacing" textLength="29.6" x="16" y="290.9813">Agent</text><ellipse cx="33.2" cy="300.5922" fill="#E2E2F0" rx="6.4" ry="6.4" style="stroke:#181818;stroke-width:0.4000000000000001;"/><path d="M33.2,306.9922 L33.2,328.5922 M22.8,313.3922 L43.6,313.3922 M33.2,328.5922 L22.8,340.5922 M33.2,328.5922 L43.6,340.5922 " fill="none" style="stroke:#181818;stroke-width:0.4000000000000001;"/><rect fill="#E2E2F0" height="26.0969" rx="2" ry="2" style="stroke:#181818;stroke-width:0.4000000000000001;" width="48" x="276.4" y="71.6969"/><text fill="#000000" font-family="sans-serif" font-size="11.2" lengthAdjust="spacing" textLength="36.8" x="282" y="89.3828">System</text><rect fill="#E2E2F0" height="26.0969" rx="2" ry="2" style="stroke:#181818;stroke-width:0.4000000000000001;" width="48" x="276.4" y="278.8953"/><text fill="#000000" font-family="sans-serif" font-size="11.2" lengthAdjust="spacing" textLength="36.8" x="282" y="296.5813">System</text><rect fill="#FFFFFF" height="165.1016" style="stroke:#181818;stroke-width:0.8000000000000002;" width="8" x="29.2" y="106.5938"/><rect fill="#FFFFFF" height="25.0328" style="stroke:#181818;stroke-width:0.8000000000000002;" width="8" x="296.4" y="125.2266"/><rect fill="#FFFFFF" height="96.4031" style="stroke:#181818;stroke-width:0.8000000000000002;" width="8" x="296.4" y="175.2922"/><polygon fill="#181818" points="286.8,122.0266,294.8,125.2266,286.8,128.4266,290,125.2266" style="stroke:#181818;stroke-width:0.8000000000000002;"/><line style="stroke:#181818;stroke-width:0.8000000000000002;" x1="37.2" x2="291.6" y1="125.2266" y2="125.2266"/><text fill="#000000" font-family="sans-serif" font-size="10.4" font-weight="bold" lengthAdjust="spacing" textLength="5.6" x="42.8" y="121.0164">1</text><text fill="#000000" font-family="sans-serif" font-size="10.4" lengthAdjust="spacing" textLength="172.8" x="51.6" y="121.0164">chooses a booking request to answer</text><polygon fill="#181818" points="46,147.0594,38,150.2594,46,153.4594,42.8,150.2594" style="stroke:#181818;stroke-width:0.8000000000000002;"/><line style="stroke:#181818;stroke-width:0.8000000000000002;stroke-dasharray:2.0,2.0;" x1="41.2" x2="299.6" y1="150.2594" y2="150.2594"/><text fill="#000000" font-family="sans-serif" font-size="10.4" font-weight="bold" lengthAdjust="spacing" textLength="5.6" x="50.8" y="146.0492">2</text><text fill="#000000" font-family="sans-serif" font-size="10.4" lengthAdjust="spacing" textLength="199.2" x="59.6" y="146.0492">requests an answer to that specific request</text><polygon fill="#181818" points="286.8,172.0922,294.8,175.2922,286.8,178.4922,290,175.2922" style="stroke:#181818;stroke-width:0.8000000000000002;"/><line style="stroke:#181818;stroke-width:0.8000000000000002;" x1="37.2" x2="291.6" y1="175.2922" y2="175.2922"/><text fill="#000000" font-family="sans-serif" font-size="10.4" font-weight="bold" lengthAdjust="spacing" textLength="5.6" x="42.8" y="171.082">3</text><text fill="#000000" font-family="sans-serif" font-size="10.4" lengthAdjust="spacing" textLength="235.2" x="51.6" y="171.082">writes the full response, registering (or not) the visit</text><path d="M8,187.2922 L56.8,187.2922 L56.8,194.725 L48.8,202.725 L8,202.725 L8,187.2922 " fill="#EEEEEE" style="stroke:#000000;stroke-width:1.2000000000000002;"/><rect fill="none" height="78.8031" style="stroke:#000000;stroke-width:1.2000000000000002;" width="324.4" x="8" y="187.2922"/><text fill="#000000" font-family="sans-serif" font-size="10.4" font-weight="bold" lengthAdjust="spacing" textLength="12.8" x="20" y="199.3148">alt</text><text fill="#000000" font-family="sans-serif" font-size="8.8" font-weight="bold" lengthAdjust="spacing" textLength="147.2" x="68.8" y="198.3883">[if the operation fails at any point]</text><polygon fill="#181818" points="46,218.1578,38,221.3578,46,224.5578,42.8,221.3578" style="stroke:#181818;stroke-width:0.8000000000000002;"/><line style="stroke:#181818;stroke-width:0.8000000000000002;stroke-dasharray:2.0,2.0;" x1="41.2" x2="295.6" y1="221.3578" y2="221.3578"/><text fill="#000000" font-family="sans-serif" font-size="10.4" font-weight="bold" lengthAdjust="spacing" textLength="5.6" x="50.8" y="217.1477">4</text><text fill="#000000" font-family="sans-serif" font-size="10.4" lengthAdjust="spacing" textLength="114.4" x="59.6" y="217.1477">displays operation failure</text><line style="stroke:#000000;stroke-width:0.8000000000000002;stroke-dasharray:2.0,2.0;" x1="8" x2="332.4" y1="228.5578" y2="228.5578"/><text fill="#000000" font-family="sans-serif" font-size="8.8" font-weight="bold" lengthAdjust="spacing" textLength="52" x="12" y="238.0539">[otherwise]</text><polygon fill="#181818" points="46,256.4953,38,259.6953,46,262.8953,42.8,259.6953" style="stroke:#181818;stroke-width:0.8000000000000002;"/><line style="stroke:#181818;stroke-width:0.8000000000000002;stroke-dasharray:2.0,2.0;" x1="41.2" x2="295.6" y1="259.6953" y2="259.6953"/><text fill="#000000" font-family="sans-serif" font-size="10.4" font-weight="bold" lengthAdjust="spacing" textLength="5.6" x="50.8" y="255.4852">5</text><text fill="#000000" font-family="sans-serif" font-size="10.4" lengthAdjust="spacing" textLength="126.4" x="59.6" y="255.4852">displays operation success</text><!--SRC=[ZP71JiCm38RlUGfh5q2YJ5mux824n1jKF42Mkgr5ceJOsTItnsqp2MqxS8eL___dFyx3A9BuiDydRuEKoR-uEEqPVme6Xqr7TiXsCaBY4RuOCxGIymolRz10ExFW16rLmsTLso8nbEc8sLYdSjXz31Xa1vPXhKooMSXHqfcmsp1hToiN5vsiO5MRzO3clVOFuCOO6Hai76FyfZ10NaAmW4ImWS_Rw0rIeQR6RPIp0GyNbu92jIq06Qq09tJKaxjeJ8StnAjS2Znd4iqb8q9Vl5SpfnWOdxKQI4Lv2VkeEmbHdbRTYPZaDgtr0jIlYfWmMw4OeBVaDQnes1bI95tEdLTrnFgTCryPIqQ3dfMdq7mcnd-QkJY7p0P3TsSBVswsx_e5]--></g></svg>