<?xml version="1.0" encoding="us-ascii" standalone="no"?><svg xmlns="http://www.w3.org/2000/svg" xmlns:xlink="http://www.w3.org/1999/xlink" contentStyleType="text/css" height="1653px" preserveAspectRatio="none" style="width:1788px;height:1653px;background:#FFFFFF;" version="1.1" viewBox="0 0 1788 1653" width="1788px" zoomAndPan="magnify"><defs/><g><text fill="#000000" font-family="sans-serif" font-size="14" font-weight="bold" lengthAdjust="spacing" textLength="279" x="753.75" y="30.1074">User Story 017 - Sequence Diagram (SD)</text><rect fill="#FFFFFF" height="1427.8828" style="stroke:#181818;stroke-width:1.0;" width="10" x="58" y="133.2422"/><rect fill="#FFFFFF" height="386.1523" style="stroke:#181818;stroke-width:1.0;" width="10" x="375" y="156.5332"/><rect fill="#FFFFFF" height="48.582" style="stroke:#181818;stroke-width:1.0;" width="10" x="375" y="573.9766"/><rect fill="#FFFFFF" height="898.2754" style="stroke:#181818;stroke-width:1.0;" width="10" x="375" y="653.8496"/><rect fill="#FFFFFF" height="33.6211" style="stroke:#181818;stroke-width:1.0;" width="10" x="661" y="197.8242"/><rect fill="#FFFFFF" height="219.0371" style="stroke:#181818;stroke-width:1.0;" width="10" x="661" y="275.0664"/><rect fill="#FFFFFF" height="835.6934" style="stroke:#181818;stroke-width:1.0;" width="10" x="661" y="685.1406"/><rect fill="#FFFFFF" height="31.291" style="stroke:#181818;stroke-width:1.0;" width="10" x="938" y="769.0137"/><rect fill="#FFFFFF" height="208.4551" style="stroke:#181818;stroke-width:1.0;" width="10" x="938" y="864.8867"/><rect fill="#FFFFFF" height="130.873" style="stroke:#181818;stroke-width:1.0;" width="10" x="943" y="904.1777"/><rect fill="#FFFFFF" height="42.291" style="stroke:#181818;stroke-width:1.0;" width="10" x="948" y="948.4688"/><rect fill="#FFFFFF" height="31.291" style="stroke:#181818;stroke-width:1.0;" width="10" x="938" y="1171.2148"/><rect fill="#FFFFFF" height="208.4551" style="stroke:#181818;stroke-width:1.0;" width="10" x="938" y="1267.0879"/><rect fill="#FFFFFF" height="130.873" style="stroke:#181818;stroke-width:1.0;" width="10" x="943" y="1306.3789"/><rect fill="#FFFFFF" height="42.291" style="stroke:#181818;stroke-width:1.0;" width="10" x="948" y="1350.6699"/><rect fill="#FFFFFF" height="31.291" style="stroke:#181818;stroke-width:1.0;" width="10" x="1444" y="306.3574"/><rect fill="#FFFFFF" height="31.291" style="stroke:#181818;stroke-width:1.0;" width="10" x="1551" y="368.9395"/><rect fill="#FFFFFF" height="31.291" style="stroke:#181818;stroke-width:1.0;" width="10" x="1693.5" y="431.5215"/><rect fill="none" height="388.2012" style="stroke:#000000;stroke-width:1.5;" width="892" x="565" y="700.1406"/><rect fill="none" height="81.873" style="stroke:#000000;stroke-width:1.5;" width="439" x="575" y="726.4316"/><rect fill="none" height="259.0371" style="stroke:#000000;stroke-width:1.5;" width="872" x="575" y="822.3047"/><rect fill="none" height="388.2012" style="stroke:#000000;stroke-width:1.5;" width="899" x="565" y="1102.3418"/><rect fill="none" height="81.873" style="stroke:#000000;stroke-width:1.5;" width="439" x="575" y="1128.6328"/><rect fill="none" height="259.0371" style="stroke:#000000;stroke-width:1.5;" width="879" x="575" y="1224.5059"/><line style="stroke:#181818;stroke-width:0.5;stroke-dasharray:5.0,5.0;" x1="63" x2="63" y1="123.2422" y2="1570.125"/><line style="stroke:#181818;stroke-width:0.5;stroke-dasharray:5.0,5.0;" x1="380" x2="380" y1="123.2422" y2="1570.125"/><line style="stroke:#181818;stroke-width:0.5;stroke-dasharray:5.0,5.0;" x1="666" x2="666" y1="196.3438" y2="1570.125"/><line style="stroke:#181818;stroke-width:0.5;stroke-dasharray:5.0,5.0;" x1="943" x2="943" y1="239.9648" y2="1570.125"/><line style="stroke:#181818;stroke-width:0.5;stroke-dasharray:5.0,5.0;" x1="1448.5" x2="1448.5" y1="123.2422" y2="1570.125"/><line style="stroke:#181818;stroke-width:0.5;stroke-dasharray:5.0,5.0;" x1="1555.5" x2="1555.5" y1="123.2422" y2="1570.125"/><line style="stroke:#181818;stroke-width:0.5;stroke-dasharray:5.0,5.0;" x1="1698.5" x2="1698.5" y1="123.2422" y2="1570.125"/><text fill="#000000" font-family="sans-serif" font-size="14" lengthAdjust="spacing" textLength="110" x="5" y="119.7285">Network Manager</text><ellipse cx="63" cy="53.1211" fill="#E2E2F0" rx="8" ry="8" style="stroke:#181818;stroke-width:0.5;"/><path d="M63,61.1211 L63,88.1211 M50,69.1211 L76,69.1211 M63,88.1211 L50,103.1211 M63,88.1211 L76,103.1211 " fill="none" style="stroke:#181818;stroke-width:0.5;"/><text fill="#000000" font-family="sans-serif" font-size="14" lengthAdjust="spacing" textLength="110" x="5" y="1584.2324">Network Manager</text><ellipse cx="63" cy="1596.2461" fill="#E2E2F0" rx="8" ry="8" style="stroke:#181818;stroke-width:0.5;"/><path d="M63,1604.2461 L63,1631.2461 M50,1612.2461 L76,1612.2461 M63,1631.2461 L50,1646.2461 M63,1631.2461 L76,1646.2461 " fill="none" style="stroke:#181818;stroke-width:0.5;"/><rect fill="#E2E2F0" height="32.6211" rx="2.5" ry="2.5" style="stroke:#181818;stroke-width:0.5;" width="112" x="324" y="89.6211"/><text fill="#000000" font-family="sans-serif" font-size="14" lengthAdjust="spacing" textLength="98" x="331" y="111.7285">LeastAllDealsUI</text><rect fill="#E2E2F0" height="32.6211" rx="2.5" ry="2.5" style="stroke:#181818;stroke-width:0.5;" width="112" x="324" y="1569.125"/><text fill="#000000" font-family="sans-serif" font-size="14" lengthAdjust="spacing" textLength="98" x="331" y="1591.2324">LeastAllDealsUI</text><rect fill="#E2E2F0" height="32.6211" rx="2.5" ry="2.5" style="stroke:#181818;stroke-width:0.5;" width="162" x="585" y="1569.125"/><text fill="#000000" font-family="sans-serif" font-size="14" lengthAdjust="spacing" textLength="148" x="592" y="1591.2324">LeastAllDealsController</text><rect fill="#E2E2F0" height="32.6211" rx="2.5" ry="2.5" style="stroke:#181818;stroke-width:0.5;" width="122" x="882" y="1569.125"/><text fill="#000000" font-family="sans-serif" font-size="14" lengthAdjust="spacing" textLength="108" x="889" y="1591.2324">:EditAndSortLists</text><rect fill="#E2E2F0" height="32.6211" rx="2.5" ry="2.5" style="stroke:#181818;stroke-width:0.5;" width="97" x="1400.5" y="89.6211"/><text fill="#000000" font-family="sans-serif" font-size="14" lengthAdjust="spacing" textLength="83" x="1407.5" y="111.7285">:Repositories</text><rect fill="#E2E2F0" height="32.6211" rx="2.5" ry="2.5" style="stroke:#181818;stroke-width:0.5;" width="97" x="1400.5" y="1569.125"/><text fill="#000000" font-family="sans-serif" font-size="14" lengthAdjust="spacing" textLength="83" x="1407.5" y="1591.2324">:Repositories</text><rect fill="#E2E2F0" height="51.2422" rx="2.5" ry="2.5" style="stroke:#181818;stroke-width:0.5;" width="97" x="1507.5" y="71"/><text fill="#000000" font-family="sans-serif" font-size="14" lengthAdjust="spacing" textLength="74" x="1519" y="93.1074">repositories</text><text fill="#000000" font-family="sans-serif" font-size="14" lengthAdjust="spacing" textLength="83" x="1514.5" y="111.7285">:Repositories</text><rect fill="#E2E2F0" height="51.2422" rx="2.5" ry="2.5" style="stroke:#181818;stroke-width:0.5;" width="97" x="1507.5" y="1569.125"/><text fill="#000000" font-family="sans-serif" font-size="14" lengthAdjust="spacing" textLength="74" x="1519" y="1591.2324">repositories</text><text fill="#000000" font-family="sans-serif" font-size="14" lengthAdjust="spacing" textLength="83" x="1514.5" y="1609.8535">:Repositories</text><rect fill="#E2E2F0" height="51.2422" rx="2.5" ry="2.5" style="stroke:#181818;stroke-width:0.5;" width="168" x="1614.5" y="71"/><text fill="#000000" font-family="sans-serif" font-size="14" lengthAdjust="spacing" textLength="149" x="1624" y="93.1074">propertySoldRepository</text><text fill="#000000" font-family="sans-serif" font-size="14" lengthAdjust="spacing" textLength="154" x="1621.5" y="111.7285">:PropertySoldRepository</text><rect fill="#E2E2F0" height="51.2422" rx="2.5" ry="2.5" style="stroke:#181818;stroke-width:0.5;" width="168" x="1614.5" y="1569.125"/><text fill="#000000" font-family="sans-serif" font-size="14" lengthAdjust="spacing" textLength="149" x="1624" y="1591.2324">propertySoldRepository</text><text fill="#000000" font-family="sans-serif" font-size="14" lengthAdjust="spacing" textLength="154" x="1621.5" y="1609.8535">:PropertySoldRepository</text><rect fill="#FFFFFF" height="1427.8828" style="stroke:#181818;stroke-width:1.0;" width="10" x="58" y="133.2422"/><rect fill="#FFFFFF" height="386.1523" style="stroke:#181818;stroke-width:1.0;" width="10" x="375" y="156.5332"/><rect fill="#FFFFFF" height="48.582" style="stroke:#181818;stroke-width:1.0;" width="10" x="375" y="573.9766"/><rect fill="#FFFFFF" height="898.2754" style="stroke:#181818;stroke-width:1.0;" width="10" x="375" y="653.8496"/><rect fill="#FFFFFF" height="33.6211" style="stroke:#181818;stroke-width:1.0;" width="10" x="661" y="197.8242"/><rect fill="#FFFFFF" height="219.0371" style="stroke:#181818;stroke-width:1.0;" width="10" x="661" y="275.0664"/><rect fill="#FFFFFF" height="835.6934" style="stroke:#181818;stroke-width:1.0;" width="10" x="661" y="685.1406"/><rect fill="#FFFFFF" height="31.291" style="stroke:#181818;stroke-width:1.0;" width="10" x="938" y="769.0137"/><rect fill="#FFFFFF" height="208.4551" style="stroke:#181818;stroke-width:1.0;" width="10" x="938" y="864.8867"/><rect fill="#FFFFFF" height="130.873" style="stroke:#181818;stroke-width:1.0;" width="10" x="943" y="904.1777"/><rect fill="#FFFFFF" height="42.291" style="stroke:#181818;stroke-width:1.0;" width="10" x="948" y="948.4688"/><rect fill="#FFFFFF" height="31.291" style="stroke:#181818;stroke-width:1.0;" width="10" x="938" y="1171.2148"/><rect fill="#FFFFFF" height="208.4551" style="stroke:#181818;stroke-width:1.0;" width="10" x="938" y="1267.0879"/><rect fill="#FFFFFF" height="130.873" style="stroke:#181818;stroke-width:1.0;" width="10" x="943" y="1306.3789"/><rect fill="#FFFFFF" height="42.291" style="stroke:#181818;stroke-width:1.0;" width="10" x="948" y="1350.6699"/><rect fill="#FFFFFF" height="31.291" style="stroke:#181818;stroke-width:1.0;" width="10" x="1444" y="306.3574"/><rect fill="#FFFFFF" height="31.291" style="stroke:#181818;stroke-width:1.0;" width="10" x="1551" y="368.9395"/><rect fill="#FFFFFF" height="31.291" style="stroke:#181818;stroke-width:1.0;" width="10" x="1693.5" y="431.5215"/><polygon fill="#181818" points="363,152.5332,373,156.5332,363,160.5332,367,156.5332" style="stroke:#181818;stroke-width:1.0;"/><line style="stroke:#181818;stroke-width:1.0;" x1="68" x2="369" y1="156.5332" y2="156.5332"/><text fill="#000000" font-family="sans-serif" font-size="13" font-weight="bold" lengthAdjust="spacing" textLength="7" x="75" y="151.2705">1</text><text fill="#000000" font-family="sans-serif" font-size="13" lengthAdjust="spacing" textLength="152" x="86" y="151.2705">asks to list all deals made</text><polygon fill="#181818" points="573,183.8242,583,187.8242,573,191.8242,577,187.8242" style="stroke:#181818;stroke-width:1.0;"/><line style="stroke:#181818;stroke-width:1.0;" x1="385" x2="579" y1="187.8242" y2="187.8242"/><text fill="#000000" font-family="sans-serif" font-size="13" font-weight="bold" lengthAdjust="spacing" textLength="7" x="392" y="182.5615">2</text><text fill="#000000" font-family="sans-serif" font-size="13" lengthAdjust="spacing" textLength="36" x="403" y="182.5615">create</text><rect fill="#E2E2F0" height="32.6211" rx="2.5" ry="2.5" style="stroke:#181818;stroke-width:0.5;" width="162" x="585" y="164.5332"/><text fill="#000000" font-family="sans-serif" font-size="14" lengthAdjust="spacing" textLength="148" x="592" y="186.6406">LeastAllDealsController</text><polygon fill="#181818" points="870,227.4453,880,231.4453,870,235.4453,874,231.4453" style="stroke:#181818;stroke-width:1.0;"/><line style="stroke:#181818;stroke-width:1.0;" x1="666" x2="876" y1="231.4453" y2="231.4453"/><text fill="#000000" font-family="sans-serif" font-size="13" font-weight="bold" lengthAdjust="spacing" textLength="7" x="673" y="226.1826">3</text><text fill="#000000" font-family="sans-serif" font-size="13" lengthAdjust="spacing" textLength="36" x="684" y="226.1826">create</text><rect fill="#E2E2F0" height="32.6211" rx="2.5" ry="2.5" style="stroke:#181818;stroke-width:0.5;" width="122" x="882" y="208.1543"/><text fill="#000000" font-family="sans-serif" font-size="14" lengthAdjust="spacing" textLength="108" x="889" y="230.2617">:EditAndSortLists</text><polygon fill="#181818" points="649,271.0664,659,275.0664,649,279.0664,653,275.0664" style="stroke:#181818;stroke-width:1.0;"/><line style="stroke:#181818;stroke-width:1.0;" x1="385" x2="655" y1="275.0664" y2="275.0664"/><text fill="#000000" font-family="sans-serif" font-size="13" font-weight="bold" lengthAdjust="spacing" textLength="7" x="392" y="269.8037">4</text><text fill="#000000" font-family="sans-serif" font-size="13" lengthAdjust="spacing" textLength="85" x="403" y="269.8037">getProperties()</text><polygon fill="#181818" points="1432,302.3574,1442,306.3574,1432,310.3574,1436,306.3574" style="stroke:#181818;stroke-width:1.0;"/><line style="stroke:#181818;stroke-width:1.0;" x1="671" x2="1438" y1="306.3574" y2="306.3574"/><text fill="#000000" font-family="sans-serif" font-size="13" font-weight="bold" lengthAdjust="spacing" textLength="7" x="678" y="301.0947">5</text><text fill="#000000" font-family="sans-serif" font-size="13" lengthAdjust="spacing" textLength="75" x="689" y="301.0947">getInstance()</text><polygon fill="#181818" points="682,333.6484,672,337.6484,682,341.6484,678,337.6484" style="stroke:#181818;stroke-width:1.0;"/><line style="stroke:#181818;stroke-width:1.0;stroke-dasharray:2.0,2.0;" x1="676" x2="1448" y1="337.6484" y2="337.6484"/><text fill="#000000" font-family="sans-serif" font-size="13" font-weight="bold" lengthAdjust="spacing" textLength="7" x="688" y="332.3857">6</text><text fill="#000000" font-family="sans-serif" font-size="13" lengthAdjust="spacing" textLength="67" x="699" y="332.3857">repositories</text><polygon fill="#181818" points="1539,364.9395,1549,368.9395,1539,372.9395,1543,368.9395" style="stroke:#181818;stroke-width:1.0;"/><line style="stroke:#181818;stroke-width:1.0;" x1="671" x2="1545" y1="368.9395" y2="368.9395"/><text fill="#000000" font-family="sans-serif" font-size="13" font-weight="bold" lengthAdjust="spacing" textLength="7" x="678" y="363.6768">7</text><text fill="#000000" font-family="sans-serif" font-size="13" lengthAdjust="spacing" textLength="163" x="689" y="363.6768">getPropertySoldRepository()</text><polygon fill="#181818" points="682,396.2305,672,400.2305,682,404.2305,678,400.2305" style="stroke:#181818;stroke-width:1.0;"/><line style="stroke:#181818;stroke-width:1.0;stroke-dasharray:2.0,2.0;" x1="676" x2="1555" y1="400.2305" y2="400.2305"/><text fill="#000000" font-family="sans-serif" font-size="13" font-weight="bold" lengthAdjust="spacing" textLength="7" x="688" y="394.9678">8</text><text fill="#000000" font-family="sans-serif" font-size="13" lengthAdjust="spacing" textLength="135" x="699" y="394.9678">propertySoldRepository</text><polygon fill="#181818" points="1681.5,427.5215,1691.5,431.5215,1681.5,435.5215,1685.5,431.5215" style="stroke:#181818;stroke-width:1.0;"/><line style="stroke:#181818;stroke-width:1.0;" x1="671" x2="1687.5" y1="431.5215" y2="431.5215"/><text fill="#000000" font-family="sans-serif" font-size="13" font-weight="bold" lengthAdjust="spacing" textLength="7" x="678" y="426.2588">9</text><text fill="#000000" font-family="sans-serif" font-size="13" lengthAdjust="spacing" textLength="85" x="689" y="426.2588">getProperties()</text><polygon fill="#181818" points="682,458.8125,672,462.8125,682,466.8125,678,462.8125" style="stroke:#181818;stroke-width:1.0;"/><line style="stroke:#181818;stroke-width:1.0;stroke-dasharray:2.0,2.0;" x1="676" x2="1697.5" y1="462.8125" y2="462.8125"/><text fill="#000000" font-family="sans-serif" font-size="13" font-weight="bold" lengthAdjust="spacing" textLength="14" x="688" y="457.5498">10</text><text fill="#000000" font-family="sans-serif" font-size="13" lengthAdjust="spacing" textLength="57" x="706" y="457.5498">properties</text><polygon fill="#181818" points="396,490.1035,386,494.1035,396,498.1035,392,494.1035" style="stroke:#181818;stroke-width:1.0;"/><line style="stroke:#181818;stroke-width:1.0;stroke-dasharray:2.0,2.0;" x1="390" x2="665" y1="494.1035" y2="494.1035"/><text fill="#000000" font-family="sans-serif" font-size="13" font-weight="bold" lengthAdjust="spacing" textLength="14" x="402" y="488.8408">11</text><text fill="#000000" font-family="sans-serif" font-size="13" lengthAdjust="spacing" textLength="57" x="420" y="488.8408">properties</text><polygon fill="#181818" points="79,538.6855,69,542.6855,79,546.6855,75,542.6855" style="stroke:#181818;stroke-width:1.0;"/><line style="stroke:#181818;stroke-width:1.0;stroke-dasharray:2.0,2.0;" x1="73" x2="379" y1="542.6855" y2="542.6855"/><text fill="#000000" font-family="sans-serif" font-size="13" font-weight="bold" lengthAdjust="spacing" textLength="14" x="85" y="528.7773">12</text><text fill="#000000" font-family="sans-serif" font-size="13" lengthAdjust="spacing" textLength="186" x="103" y="520.1318">asks if the user wants to sort by</text><text fill="#000000" font-family="sans-serif" font-size="13" lengthAdjust="spacing" textLength="265" x="103" y="537.4229">ascending/descending order of property's area</text><polygon fill="#181818" points="363,569.9766,373,573.9766,363,577.9766,367,573.9766" style="stroke:#181818;stroke-width:1.0;"/><line style="stroke:#181818;stroke-width:1.0;" x1="68" x2="369" y1="573.9766" y2="573.9766"/><text fill="#000000" font-family="sans-serif" font-size="13" font-weight="bold" lengthAdjust="spacing" textLength="14" x="75" y="568.7139">13</text><text fill="#000000" font-family="sans-serif" font-size="13" lengthAdjust="spacing" textLength="88" x="93" y="568.7139">picks an option</text><polygon fill="#181818" points="79,618.5586,69,622.5586,79,626.5586,75,622.5586" style="stroke:#181818;stroke-width:1.0;"/><line style="stroke:#181818;stroke-width:1.0;stroke-dasharray:2.0,2.0;" x1="73" x2="379" y1="622.5586" y2="622.5586"/><text fill="#000000" font-family="sans-serif" font-size="13" font-weight="bold" lengthAdjust="spacing" textLength="14" x="85" y="608.6504">14</text><text fill="#000000" font-family="sans-serif" font-size="13" lengthAdjust="spacing" textLength="227" x="103" y="600.0049">asks what sorting algorithm they desire</text><text fill="#000000" font-family="sans-serif" font-size="13" lengthAdjust="spacing" textLength="141" x="103" y="617.2959">to use (bubble or merge)</text><polygon fill="#181818" points="363,649.8496,373,653.8496,363,657.8496,367,653.8496" style="stroke:#181818;stroke-width:1.0;"/><line style="stroke:#181818;stroke-width:1.0;" x1="68" x2="369" y1="653.8496" y2="653.8496"/><text fill="#000000" font-family="sans-serif" font-size="13" font-weight="bold" lengthAdjust="spacing" textLength="14" x="75" y="648.5869">15</text><text fill="#000000" font-family="sans-serif" font-size="13" lengthAdjust="spacing" textLength="88" x="93" y="648.5869">picks an option</text><polygon fill="#181818" points="649,681.1406,659,685.1406,649,689.1406,653,685.1406" style="stroke:#181818;stroke-width:1.0;"/><line style="stroke:#181818;stroke-width:1.0;" x1="385" x2="655" y1="685.1406" y2="685.1406"/><text fill="#000000" font-family="sans-serif" font-size="13" font-weight="bold" lengthAdjust="spacing" textLength="14" x="392" y="679.8779">16</text><text fill="#000000" font-family="sans-serif" font-size="13" lengthAdjust="spacing" textLength="239" x="410" y="679.8779">sortProperties(option, option2, properties)</text><path d="M565,700.1406 L626,700.1406 L626,709.4316 L616,719.4316 L565,719.4316 L565,700.1406 " fill="#EEEEEE" style="stroke:#000000;stroke-width:1.5;"/><rect fill="none" height="388.2012" style="stroke:#000000;stroke-width:1.5;" width="892" x="565" y="700.1406"/><text fill="#000000" font-family="sans-serif" font-size="13" font-weight="bold" lengthAdjust="spacing" textLength="16" x="580" y="715.1689">alt</text><text fill="#000000" font-family="sans-serif" font-size="11" font-weight="bold" lengthAdjust="spacing" textLength="199" x="641" y="714.0107">[if the user picked ascending order]</text><path d="M575,726.4316 L636,726.4316 L636,735.7227 L626,745.7227 L575,745.7227 L575,726.4316 " fill="#EEEEEE" style="stroke:#000000;stroke-width:1.5;"/><rect fill="none" height="81.873" style="stroke:#000000;stroke-width:1.5;" width="439" x="575" y="726.4316"/><text fill="#000000" font-family="sans-serif" font-size="13" font-weight="bold" lengthAdjust="spacing" textLength="16" x="590" y="741.46">alt</text><text fill="#000000" font-family="sans-serif" font-size="11" font-weight="bold" lengthAdjust="spacing" textLength="72" x="651" y="740.3018">[bubble sort]</text><polygon fill="#181818" points="926,765.0137,936,769.0137,926,773.0137,930,769.0137" style="stroke:#181818;stroke-width:1.0;"/><line style="stroke:#181818;stroke-width:1.0;" x1="671" x2="932" y1="769.0137" y2="769.0137"/><text fill="#000000" font-family="sans-serif" font-size="13" font-weight="bold" lengthAdjust="spacing" textLength="14" x="678" y="763.751">17</text><text fill="#000000" font-family="sans-serif" font-size="13" lengthAdjust="spacing" textLength="188" x="696" y="763.751">bubbleSortAscending(properties)</text><polygon fill="#181818" points="682,796.3047,672,800.3047,682,804.3047,678,800.3047" style="stroke:#181818;stroke-width:1.0;"/><line style="stroke:#181818;stroke-width:1.0;stroke-dasharray:2.0,2.0;" x1="676" x2="942" y1="800.3047" y2="800.3047"/><text fill="#000000" font-family="sans-serif" font-size="13" font-weight="bold" lengthAdjust="spacing" textLength="14" x="688" y="795.042">18</text><text fill="#000000" font-family="sans-serif" font-size="13" lengthAdjust="spacing" textLength="57" x="706" y="795.042">properties</text><path d="M575,822.3047 L636,822.3047 L636,831.5957 L626,841.5957 L575,841.5957 L575,822.3047 " fill="#EEEEEE" style="stroke:#000000;stroke-width:1.5;"/><rect fill="none" height="259.0371" style="stroke:#000000;stroke-width:1.5;" width="872" x="575" y="822.3047"/><text fill="#000000" font-family="sans-serif" font-size="13" font-weight="bold" lengthAdjust="spacing" textLength="16" x="590" y="837.333">alt</text><text fill="#000000" font-family="sans-serif" font-size="11" font-weight="bold" lengthAdjust="spacing" textLength="71" x="651" y="836.1748">[merge sort]</text><polygon fill="#181818" points="926,860.8867,936,864.8867,926,868.8867,930,864.8867" style="stroke:#181818;stroke-width:1.0;"/><line style="stroke:#181818;stroke-width:1.0;" x1="671" x2="932" y1="864.8867" y2="864.8867"/><text fill="#000000" font-family="sans-serif" font-size="13" font-weight="bold" lengthAdjust="spacing" textLength="14" x="678" y="859.624">19</text><text fill="#000000" font-family="sans-serif" font-size="13" lengthAdjust="spacing" textLength="225" x="696" y="859.624">genericMergeSortStart(properties, true)</text><line style="stroke:#181818;stroke-width:1.0;" x1="948" x2="995" y1="891.1777" y2="891.1777"/><line style="stroke:#181818;stroke-width:1.0;" x1="995" x2="995" y1="891.1777" y2="904.1777"/><line style="stroke:#181818;stroke-width:1.0;" x1="954" x2="995" y1="904.1777" y2="904.1777"/><polygon fill="#181818" points="964,900.1777,954,904.1777,964,908.1777,960,904.1777" style="stroke:#181818;stroke-width:1.0;"/><text fill="#000000" font-family="sans-serif" font-size="13" font-weight="bold" lengthAdjust="spacing" textLength="14" x="960" y="885.915">20</text><text fill="#000000" font-family="sans-serif" font-size="13" lengthAdjust="spacing" textLength="222" x="978" y="885.915">mergeSortPropertyList(list, ascending)</text><line style="stroke:#181818;stroke-width:1.0;" x1="953" x2="1000" y1="935.4688" y2="935.4688"/><line style="stroke:#181818;stroke-width:1.0;" x1="1000" x2="1000" y1="935.4688" y2="948.4688"/><line style="stroke:#181818;stroke-width:1.0;" x1="959" x2="1000" y1="948.4688" y2="948.4688"/><polygon fill="#181818" points="969,944.4688,959,948.4688,969,952.4688,965,948.4688" style="stroke:#181818;stroke-width:1.0;"/><text fill="#000000" font-family="sans-serif" font-size="13" font-weight="bold" lengthAdjust="spacing" textLength="14" x="965" y="930.2061">21</text><text fill="#000000" font-family="sans-serif" font-size="13" lengthAdjust="spacing" textLength="452" x="983" y="930.2061">mergeAscendingPropertyArrayList(propertyList, leftSideOfList, rightSideOfList)</text><line style="stroke:#181818;stroke-width:1.0;stroke-dasharray:2.0,2.0;" x1="958" x2="1000" y1="989.7598" y2="989.7598"/><line style="stroke:#181818;stroke-width:1.0;stroke-dasharray:2.0,2.0;" x1="1000" x2="1000" y1="989.7598" y2="1002.7598"/><line style="stroke:#181818;stroke-width:1.0;stroke-dasharray:2.0,2.0;" x1="953" x2="1000" y1="1002.7598" y2="1002.7598"/><polygon fill="#181818" points="963,998.7598,953,1002.7598,963,1006.7598,959,1002.7598" style="stroke:#181818;stroke-width:1.0;"/><text fill="#000000" font-family="sans-serif" font-size="13" font-weight="bold" lengthAdjust="spacing" textLength="14" x="965" y="984.4971">22</text><text fill="#000000" font-family="sans-serif" font-size="13" lengthAdjust="spacing" textLength="116" x="983" y="984.4971">mutablePropertyList</text><line style="stroke:#181818;stroke-width:1.0;stroke-dasharray:2.0,2.0;" x1="953" x2="995" y1="1034.0508" y2="1034.0508"/><line style="stroke:#181818;stroke-width:1.0;stroke-dasharray:2.0,2.0;" x1="995" x2="995" y1="1034.0508" y2="1047.0508"/><line style="stroke:#181818;stroke-width:1.0;stroke-dasharray:2.0,2.0;" x1="948" x2="995" y1="1047.0508" y2="1047.0508"/><polygon fill="#181818" points="958,1043.0508,948,1047.0508,958,1051.0508,954,1047.0508" style="stroke:#181818;stroke-width:1.0;"/><text fill="#000000" font-family="sans-serif" font-size="13" font-weight="bold" lengthAdjust="spacing" textLength="14" x="960" y="1028.7881">23</text><text fill="#000000" font-family="sans-serif" font-size="13" lengthAdjust="spacing" textLength="17" x="978" y="1028.7881">list</text><polygon fill="#181818" points="682,1069.3418,672,1073.3418,682,1077.3418,678,1073.3418" style="stroke:#181818;stroke-width:1.0;"/><line style="stroke:#181818;stroke-width:1.0;stroke-dasharray:2.0,2.0;" x1="676" x2="942" y1="1073.3418" y2="1073.3418"/><text fill="#000000" font-family="sans-serif" font-size="13" font-weight="bold" lengthAdjust="spacing" textLength="14" x="688" y="1068.0791">24</text><text fill="#000000" font-family="sans-serif" font-size="13" lengthAdjust="spacing" textLength="57" x="706" y="1068.0791">properties</text><path d="M565,1102.3418 L626,1102.3418 L626,1111.6328 L616,1121.6328 L565,1121.6328 L565,1102.3418 " fill="#EEEEEE" style="stroke:#000000;stroke-width:1.5;"/><rect fill="none" height="388.2012" style="stroke:#000000;stroke-width:1.5;" width="899" x="565" y="1102.3418"/><text fill="#000000" font-family="sans-serif" font-size="13" font-weight="bold" lengthAdjust="spacing" textLength="16" x="580" y="1117.3701">alt</text><text fill="#000000" font-family="sans-serif" font-size="11" font-weight="bold" lengthAdjust="spacing" textLength="207" x="641" y="1116.2119">[if the user picked descending order]</text><path d="M575,1128.6328 L636,1128.6328 L636,1137.9238 L626,1147.9238 L575,1147.9238 L575,1128.6328 " fill="#EEEEEE" style="stroke:#000000;stroke-width:1.5;"/><rect fill="none" height="81.873" style="stroke:#000000;stroke-width:1.5;" width="439" x="575" y="1128.6328"/><text fill="#000000" font-family="sans-serif" font-size="13" font-weight="bold" lengthAdjust="spacing" textLength="16" x="590" y="1143.6611">alt</text><text fill="#000000" font-family="sans-serif" font-size="11" font-weight="bold" lengthAdjust="spacing" textLength="72" x="651" y="1142.5029">[bubble sort]</text><polygon fill="#181818" points="926,1167.2148,936,1171.2148,926,1175.2148,930,1171.2148" style="stroke:#181818;stroke-width:1.0;"/><line style="stroke:#181818;stroke-width:1.0;" x1="671" x2="932" y1="1171.2148" y2="1171.2148"/><text fill="#000000" font-family="sans-serif" font-size="13" font-weight="bold" lengthAdjust="spacing" textLength="14" x="678" y="1165.9521">25</text><text fill="#000000" font-family="sans-serif" font-size="13" lengthAdjust="spacing" textLength="195" x="696" y="1165.9521">bubbleSortDescending(properties)</text><polygon fill="#181818" points="682,1198.5059,672,1202.5059,682,1206.5059,678,1202.5059" style="stroke:#181818;stroke-width:1.0;"/><line style="stroke:#181818;stroke-width:1.0;stroke-dasharray:2.0,2.0;" x1="676" x2="942" y1="1202.5059" y2="1202.5059"/><text fill="#000000" font-family="sans-serif" font-size="13" font-weight="bold" lengthAdjust="spacing" textLength="14" x="688" y="1197.2432">26</text><text fill="#000000" font-family="sans-serif" font-size="13" lengthAdjust="spacing" textLength="68" x="706" y="1197.2432">propertyList</text><path d="M575,1224.5059 L636,1224.5059 L636,1233.7969 L626,1243.7969 L575,1243.7969 L575,1224.5059 " fill="#EEEEEE" style="stroke:#000000;stroke-width:1.5;"/><rect fill="none" height="259.0371" style="stroke:#000000;stroke-width:1.5;" width="879" x="575" y="1224.5059"/><text fill="#000000" font-family="sans-serif" font-size="13" font-weight="bold" lengthAdjust="spacing" textLength="16" x="590" y="1239.5342">alt</text><text fill="#000000" font-family="sans-serif" font-size="11" font-weight="bold" lengthAdjust="spacing" textLength="71" x="651" y="1238.376">[merge sort]</text><polygon fill="#181818" points="926,1263.0879,936,1267.0879,926,1271.0879,930,1267.0879" style="stroke:#181818;stroke-width:1.0;"/><line style="stroke:#181818;stroke-width:1.0;" x1="671" x2="932" y1="1267.0879" y2="1267.0879"/><text fill="#000000" font-family="sans-serif" font-size="13" font-weight="bold" lengthAdjust="spacing" textLength="14" x="678" y="1261.8252">27</text><text fill="#000000" font-family="sans-serif" font-size="13" lengthAdjust="spacing" textLength="230" x="696" y="1261.8252">genericMergeSortStart(properties, false)</text><line style="stroke:#181818;stroke-width:1.0;" x1="948" x2="995" y1="1293.3789" y2="1293.3789"/><line style="stroke:#181818;stroke-width:1.0;" x1="995" x2="995" y1="1293.3789" y2="1306.3789"/><line style="stroke:#181818;stroke-width:1.0;" x1="954" x2="995" y1="1306.3789" y2="1306.3789"/><polygon fill="#181818" points="964,1302.3789,954,1306.3789,964,1310.3789,960,1306.3789" style="stroke:#181818;stroke-width:1.0;"/><text fill="#000000" font-family="sans-serif" font-size="13" font-weight="bold" lengthAdjust="spacing" textLength="14" x="960" y="1288.1162">28</text><text fill="#000000" font-family="sans-serif" font-size="13" lengthAdjust="spacing" textLength="222" x="978" y="1288.1162">mergeSortPropertyList(list, ascending)</text><line style="stroke:#181818;stroke-width:1.0;" x1="953" x2="1000" y1="1337.6699" y2="1337.6699"/><line style="stroke:#181818;stroke-width:1.0;" x1="1000" x2="1000" y1="1337.6699" y2="1350.6699"/><line style="stroke:#181818;stroke-width:1.0;" x1="959" x2="1000" y1="1350.6699" y2="1350.6699"/><polygon fill="#181818" points="969,1346.6699,959,1350.6699,969,1354.6699,965,1350.6699" style="stroke:#181818;stroke-width:1.0;"/><text fill="#000000" font-family="sans-serif" font-size="13" font-weight="bold" lengthAdjust="spacing" textLength="14" x="965" y="1332.4072">29</text><text fill="#000000" font-family="sans-serif" font-size="13" lengthAdjust="spacing" textLength="459" x="983" y="1332.4072">mergeDescendingPropertyArrayList(propertyList, leftSideOfList, rightSideOfList)</text><line style="stroke:#181818;stroke-width:1.0;stroke-dasharray:2.0,2.0;" x1="958" x2="1000" y1="1391.9609" y2="1391.9609"/><line style="stroke:#181818;stroke-width:1.0;stroke-dasharray:2.0,2.0;" x1="1000" x2="1000" y1="1391.9609" y2="1404.9609"/><line style="stroke:#181818;stroke-width:1.0;stroke-dasharray:2.0,2.0;" x1="953" x2="1000" y1="1404.9609" y2="1404.9609"/><polygon fill="#181818" points="963,1400.9609,953,1404.9609,963,1408.9609,959,1404.9609" style="stroke:#181818;stroke-width:1.0;"/><text fill="#000000" font-family="sans-serif" font-size="13" font-weight="bold" lengthAdjust="spacing" textLength="14" x="965" y="1386.6982">30</text><text fill="#000000" font-family="sans-serif" font-size="13" lengthAdjust="spacing" textLength="116" x="983" y="1386.6982">mutablePropertyList</text><line style="stroke:#181818;stroke-width:1.0;stroke-dasharray:2.0,2.0;" x1="953" x2="995" y1="1436.252" y2="1436.252"/><line style="stroke:#181818;stroke-width:1.0;stroke-dasharray:2.0,2.0;" x1="995" x2="995" y1="1436.252" y2="1449.252"/><line style="stroke:#181818;stroke-width:1.0;stroke-dasharray:2.0,2.0;" x1="948" x2="995" y1="1449.252" y2="1449.252"/><polygon fill="#181818" points="958,1445.252,948,1449.252,958,1453.252,954,1449.252" style="stroke:#181818;stroke-width:1.0;"/><text fill="#000000" font-family="sans-serif" font-size="13" font-weight="bold" lengthAdjust="spacing" textLength="14" x="960" y="1430.9893">31</text><text fill="#000000" font-family="sans-serif" font-size="13" lengthAdjust="spacing" textLength="17" x="978" y="1430.9893">list</text><polygon fill="#181818" points="682,1471.543,672,1475.543,682,1479.543,678,1475.543" style="stroke:#181818;stroke-width:1.0;"/><line style="stroke:#181818;stroke-width:1.0;stroke-dasharray:2.0,2.0;" x1="676" x2="942" y1="1475.543" y2="1475.543"/><text fill="#000000" font-family="sans-serif" font-size="13" font-weight="bold" lengthAdjust="spacing" textLength="14" x="688" y="1470.2803">32</text><text fill="#000000" font-family="sans-serif" font-size="13" lengthAdjust="spacing" textLength="57" x="706" y="1470.2803">properties</text><polygon fill="#181818" points="396,1516.834,386,1520.834,396,1524.834,392,1520.834" style="stroke:#181818;stroke-width:1.0;"/><line style="stroke:#181818;stroke-width:1.0;stroke-dasharray:2.0,2.0;" x1="390" x2="665" y1="1520.834" y2="1520.834"/><text fill="#000000" font-family="sans-serif" font-size="13" font-weight="bold" lengthAdjust="spacing" textLength="14" x="402" y="1515.5713">33</text><text fill="#000000" font-family="sans-serif" font-size="13" lengthAdjust="spacing" textLength="57" x="420" y="1515.5713">properties</text><polygon fill="#181818" points="79,1548.125,69,1552.125,79,1556.125,75,1552.125" style="stroke:#181818;stroke-width:1.0;"/><line style="stroke:#181818;stroke-width:1.0;stroke-dasharray:2.0,2.0;" x1="73" x2="379" y1="1552.125" y2="1552.125"/><text fill="#000000" font-family="sans-serif" font-size="13" font-weight="bold" lengthAdjust="spacing" textLength="14" x="85" y="1546.8623">34</text><text fill="#000000" font-family="sans-serif" font-size="13" lengthAdjust="spacing" textLength="164" x="103" y="1546.8623">prints the sorted list of deals</text><!--SRC=[xLOzRzim4DtvAmvPOWTstNOfu2604MSmu3H156zPQEai4w4-Ib8D_Ezxf3vfIswR54M7QX1iwTsxntTtf2xtnkHwFflbagUcIEI7C4jc6hyLc8OuZGIF5K-O4KOYR3Gg24oc3l3nqnUOGb3XO5dYO1GinumN9akBP8kAyP3GSF4LpMkcNk2Efpn6TG5Sms9vntAkZ0X5JgdXOerScuMKI-HIRrOEj5cTmTnagL6Pb1NXpTFZsaVFRoDX5caKPCgiXJRQuMwNgoV6Zf2Fc6TQa5Y19QfvS0X46aka9VaXgXFnd9uIFAmNJtv4hh8SbJa4cOnQUefzw7tXM8BxzPB4MYF5TsxGsSRe1jDhScTEc1SD9WD9wmCk9KJM6aXuX6qGsSWsAnjYJRgwWZc42kbDXzZPn-pTugn97eveVMJBHwWOJRK8MlveF4ZRusePlKgruTH9NcnV3LWVnRHICeTkLJpHlLorB5ihRnL7fV1KkS8o5zBcxQ-jfw2CgrFQmfurhgoyWqrRe_C6x76Nu9BRDSOmjAqU0MqZLJqaTc3s28MTyLVgLzTLcYO7jjIZN8UOHkJSBCBw9sGg8d2sQrP_gO5JltJJsTPhsjMg4Y4buobakH5KWvCUzLMzxhbnAcm-BcCghDadLkc1EbqBXSyfwIJLCDeMsotjKhJX9AXY7F-EZA5P8QZDtgbH6J2f0ZzFEZwVzZsNnZFMfiK8k6yXOq2NnLPBi2dBX_RgpYJfAJ5sJrlKD2DFGntNQ2btlFgnenbegHhJSQuDfbojKcVnUQ4nfgX4U6UHLcvWQ3ViI9s0KGN-N70hkg5EQivwNktsFh9xuAGrT-nJd64Voj0ONATPACNBN7adyGGaxamW8hpVbV-LYFUT1-FJTB-afYEdC9ogtbtkQL1lrOOOvGd5OFZxEiRT1WRXU3DvwoGiyK-Emf6zVsaOTdHk_zFJq9hyVnpUEGvlFQbp9Tp9l2-xZIR8VVVH4Um- -zZHaVS3]--></g></svg>