<?xml version="1.0" encoding="us-ascii" standalone="no"?><svg xmlns="http://www.w3.org/2000/svg" xmlns:xlink="http://www.w3.org/1999/xlink" contentStyleType="text/css" height="508.5px" preserveAspectRatio="none" style="width:292px;height:508px;background:#FFFFFF;" version="1.1" viewBox="0 0 292 508" width="292.5px" zoomAndPan="magnify"><defs/><g><text fill="#000000" font-family="sans-serif" font-size="7" font-weight="bold" lengthAdjust="spacing" textLength="134" x="75.875" y="12.5537">US017 Listing all deals - Class Diagram</text><!--class User--><g id="elem_User"><rect codeLine="8" fill="#F1F1F1" height="61.2422" id="User" rx="1.25" ry="1.25" style="stroke:#181818;stroke-width:0.25;" width="46.5" x="3.5" y="23.3105"/><ellipse cx="18.2" cy="31.3105" fill="#ADD1B2" rx="5.5" ry="5.5" style="stroke:#181818;stroke-width:0.5;"/><path d="M19.5828,29.248 Q19.6609,29.1387 19.7547,29.084 Q19.8484,29.0293 19.9578,29.0293 Q20.1453,29.0293 20.2625,29.1621 Q20.3797,29.2871 20.3797,29.5918 L20.3797,30.3184 Q20.3797,30.623 20.2625,30.7559 Q20.1453,30.8887 19.9578,30.8887 Q19.7859,30.8887 19.6844,30.7871 Q19.5828,30.6934 19.5281,30.4355 Q19.5047,30.2559 19.4109,30.1621 Q19.2469,29.9746 18.9422,29.8652 Q18.6375,29.7559 18.325,29.7559 Q17.9422,29.7559 17.6219,29.9199 Q17.3094,30.084 17.0594,30.459 Q16.8172,30.834 16.8172,31.3496 L16.8172,31.8965 Q16.8172,32.5137 17.2625,32.9277 Q17.7078,33.334 18.5047,33.334 Q18.9734,33.334 19.3016,33.209 Q19.4969,33.1309 19.7078,32.9121 Q19.8406,32.7793 19.9109,32.7402 Q19.9891,32.7012 20.0906,32.7012 Q20.2547,32.7012 20.3797,32.834 Q20.5125,32.959 20.5125,33.1309 Q20.5125,33.3027 20.3406,33.5059 Q20.0906,33.7949 19.6922,33.959 Q19.1531,34.1855 18.5047,34.1855 Q17.7469,34.1855 17.1453,33.873 Q16.6531,33.623 16.3094,33.0918 Q15.9656,32.5527 15.9656,31.9121 L15.9656,31.334 Q15.9656,30.6699 16.2703,30.0996 Q16.5828,29.5215 17.1297,29.2168 Q17.6766,28.9043 18.2938,28.9043 Q18.6609,28.9043 18.9813,28.9902 Q19.3094,29.0684 19.5828,29.248 Z " fill="#000000"/><text fill="#000000" font-family="sans-serif" font-size="7" lengthAdjust="spacing" textLength="14.5" x="26.8" y="34.209">User</text><line style="stroke:#181818;stroke-width:0.25;" x1="4" x2="49.5" y1="39.3105" y2="39.3105"/><text fill="#000000" font-family="sans-serif" font-size="7" lengthAdjust="spacing" textLength="40.5" x="6.5" y="48.8643">-String name</text><text fill="#000000" font-family="sans-serif" font-size="7" lengthAdjust="spacing" textLength="35" x="6.5" y="58.1748">-String role</text><text fill="#000000" font-family="sans-serif" font-size="7" lengthAdjust="spacing" textLength="39.5" x="6.5" y="67.4854">-String email</text><text fill="#000000" font-family="sans-serif" font-size="7" lengthAdjust="spacing" textLength="35.5" x="6.5" y="76.7959">-String pwd</text><line style="stroke:#181818;stroke-width:0.25;" x1="4" x2="49.5" y1="80.5527" y2="80.5527"/></g><!--class ListAllDealsUI--><g id="elem_ListAllDealsUI"><rect codeLine="15" fill="#F1F1F1" height="42.6211" id="ListAllDealsUI" rx="1.25" ry="1.25" style="stroke:#181818;stroke-width:0.25;" width="143" x="146.25" y="32.5605"/><ellipse cx="194.375" cy="40.5605" fill="#ADD1B2" rx="5.5" ry="5.5" style="stroke:#181818;stroke-width:0.5;"/><path d="M195.7578,38.498 Q195.8359,38.3887 195.9297,38.334 Q196.0234,38.2793 196.1328,38.2793 Q196.3203,38.2793 196.4375,38.4121 Q196.5547,38.5371 196.5547,38.8418 L196.5547,39.5684 Q196.5547,39.873 196.4375,40.0059 Q196.3203,40.1387 196.1328,40.1387 Q195.9609,40.1387 195.8594,40.0371 Q195.7578,39.9434 195.7031,39.6855 Q195.6797,39.5059 195.5859,39.4121 Q195.4219,39.2246 195.1172,39.1152 Q194.8125,39.0059 194.5,39.0059 Q194.1172,39.0059 193.7969,39.1699 Q193.4844,39.334 193.2344,39.709 Q192.9922,40.084 192.9922,40.5996 L192.9922,41.1465 Q192.9922,41.7637 193.4375,42.1777 Q193.8828,42.584 194.6797,42.584 Q195.1484,42.584 195.4766,42.459 Q195.6719,42.3809 195.8828,42.1621 Q196.0156,42.0293 196.0859,41.9902 Q196.1641,41.9512 196.2656,41.9512 Q196.4297,41.9512 196.5547,42.084 Q196.6875,42.209 196.6875,42.3809 Q196.6875,42.5527 196.5156,42.7559 Q196.2656,43.0449 195.8672,43.209 Q195.3281,43.4355 194.6797,43.4355 Q193.9219,43.4355 193.3203,43.123 Q192.8281,42.873 192.4844,42.3418 Q192.1406,41.8027 192.1406,41.1621 L192.1406,40.584 Q192.1406,39.9199 192.4453,39.3496 Q192.7578,38.7715 193.3047,38.4668 Q193.8516,38.1543 194.4688,38.1543 Q194.8359,38.1543 195.1563,38.2402 Q195.4844,38.3184 195.7578,38.498 Z " fill="#000000"/><text fill="#000000" font-family="sans-serif" font-size="7" lengthAdjust="spacing" textLength="42.5" x="204.625" y="43.459">ListAllDealsUI</text><line style="stroke:#181818;stroke-width:0.25;" x1="146.75" x2="288.75" y1="48.5605" y2="48.5605"/><text fill="#000000" font-family="sans-serif" font-size="7" lengthAdjust="spacing" textLength="137" x="149.25" y="58.1143">-ListAllDealsController listAllDealsController</text><line style="stroke:#181818;stroke-width:0.25;" x1="146.75" x2="288.75" y1="61.8711" y2="61.8711"/><text fill="#000000" font-family="sans-serif" font-size="7" lengthAdjust="spacing" textLength="19.5" x="149.25" y="71.4248">+run()</text></g><!--class ListAllDealsController--><g id="elem_ListAllDealsController"><rect codeLine="21" fill="#F1F1F1" height="42.6211" id="ListAllDealsController" rx="1.25" ry="1.25" style="stroke:#181818;stroke-width:0.25;" width="142.5" x="146.5" y="123.8105"/><ellipse cx="181.875" cy="131.8105" fill="#ADD1B2" rx="5.5" ry="5.5" style="stroke:#181818;stroke-width:0.5;"/><path d="M183.2578,129.748 Q183.3359,129.6387 183.4297,129.584 Q183.5234,129.5293 183.6328,129.5293 Q183.8203,129.5293 183.9375,129.6621 Q184.0547,129.7871 184.0547,130.0918 L184.0547,130.8184 Q184.0547,131.123 183.9375,131.2559 Q183.8203,131.3887 183.6328,131.3887 Q183.4609,131.3887 183.3594,131.2871 Q183.2578,131.1934 183.2031,130.9355 Q183.1797,130.7559 183.0859,130.6621 Q182.9219,130.4746 182.6172,130.3652 Q182.3125,130.2559 182,130.2559 Q181.6172,130.2559 181.2969,130.4199 Q180.9844,130.584 180.7344,130.959 Q180.4922,131.334 180.4922,131.8496 L180.4922,132.3965 Q180.4922,133.0137 180.9375,133.4277 Q181.3828,133.834 182.1797,133.834 Q182.6484,133.834 182.9766,133.709 Q183.1719,133.6309 183.3828,133.4121 Q183.5156,133.2793 183.5859,133.2402 Q183.6641,133.2012 183.7656,133.2012 Q183.9297,133.2012 184.0547,133.334 Q184.1875,133.459 184.1875,133.6309 Q184.1875,133.8027 184.0156,134.0059 Q183.7656,134.2949 183.3672,134.459 Q182.8281,134.6855 182.1797,134.6855 Q181.4219,134.6855 180.8203,134.373 Q180.3281,134.123 179.9844,133.5918 Q179.6406,133.0527 179.6406,132.4121 L179.6406,131.834 Q179.6406,131.1699 179.9453,130.5996 Q180.2578,130.0215 180.8047,129.7168 Q181.3516,129.4043 181.9688,129.4043 Q182.3359,129.4043 182.6563,129.4902 Q182.9844,129.5684 183.2578,129.748 Z " fill="#000000"/><text fill="#000000" font-family="sans-serif" font-size="7" lengthAdjust="spacing" textLength="67.5" x="192.125" y="134.709">ListAllDealsController</text><line style="stroke:#181818;stroke-width:0.25;" x1="147" x2="288.5" y1="139.8105" y2="139.8105"/><line style="stroke:#181818;stroke-width:0.25;" x1="147" x2="288.5" y1="143.8105" y2="143.8105"/><text fill="#000000" font-family="sans-serif" font-size="7" lengthAdjust="spacing" textLength="51.5" x="149.5" y="153.3643">+getProperties()</text><text fill="#000000" font-family="sans-serif" font-size="7" lengthAdjust="spacing" textLength="136.5" x="149.5" y="162.6748">+sortProperties(option, option2, properties)</text></g><!--class Repositories--><g id="elem_Repositories"><rect codeLine="27" fill="#F1F1F1" height="61.2422" id="Repositories" rx="1.25" ry="1.25" style="stroke:#181818;stroke-width:0.25;" width="132.5" x="151.5" y="205.8105"/><ellipse cx="195.875" cy="213.8105" fill="#ADD1B2" rx="5.5" ry="5.5" style="stroke:#181818;stroke-width:0.5;"/><path d="M197.2578,211.748 Q197.3359,211.6387 197.4297,211.584 Q197.5234,211.5293 197.6328,211.5293 Q197.8203,211.5293 197.9375,211.6621 Q198.0547,211.7871 198.0547,212.0918 L198.0547,212.8184 Q198.0547,213.123 197.9375,213.2559 Q197.8203,213.3887 197.6328,213.3887 Q197.4609,213.3887 197.3594,213.2871 Q197.2578,213.1934 197.2031,212.9355 Q197.1797,212.7559 197.0859,212.6621 Q196.9219,212.4746 196.6172,212.3652 Q196.3125,212.2559 196,212.2559 Q195.6172,212.2559 195.2969,212.4199 Q194.9844,212.584 194.7344,212.959 Q194.4922,213.334 194.4922,213.8496 L194.4922,214.3965 Q194.4922,215.0137 194.9375,215.4277 Q195.3828,215.834 196.1797,215.834 Q196.6484,215.834 196.9766,215.709 Q197.1719,215.6309 197.3828,215.4121 Q197.5156,215.2793 197.5859,215.2402 Q197.6641,215.2012 197.7656,215.2012 Q197.9297,215.2012 198.0547,215.334 Q198.1875,215.459 198.1875,215.6309 Q198.1875,215.8027 198.0156,216.0059 Q197.7656,216.2949 197.3672,216.459 Q196.8281,216.6855 196.1797,216.6855 Q195.4219,216.6855 194.8203,216.373 Q194.3281,216.123 193.9844,215.5918 Q193.6406,215.0527 193.6406,214.4121 L193.6406,213.834 Q193.6406,213.1699 193.9453,212.5996 Q194.2578,212.0215 194.8047,211.7168 Q195.3516,211.4043 195.9688,211.4043 Q196.3359,211.4043 196.6563,211.4902 Q196.9844,211.5684 197.2578,211.748 Z " fill="#000000"/><text fill="#000000" font-family="sans-serif" font-size="7" lengthAdjust="spacing" textLength="39.5" x="206.125" y="216.709">Repositories</text><line style="stroke:#181818;stroke-width:0.25;" x1="152" x2="283.5" y1="221.8105" y2="221.8105"/><text fill="#000000" font-family="sans-serif" font-size="7" lengthAdjust="spacing" textLength="70.5" x="154.5" y="231.3643">-Repositories instance</text><text fill="#000000" font-family="sans-serif" font-size="7" lengthAdjust="spacing" textLength="126.5" x="154.5" y="240.6748">-PropertySoldRepository soldRepository</text><line style="stroke:#181818;stroke-width:0.25;" x1="152" x2="283.5" y1="244.4316" y2="244.4316"/><text fill="#000000" font-family="sans-serif" font-size="7" lengthAdjust="spacing" textLength="45.5" x="154.5" y="253.9854">+getInstance()</text><text fill="#000000" font-family="sans-serif" font-size="7" lengthAdjust="spacing" textLength="94" x="154.5" y="263.2959">+getPropertySoldRepository()</text></g><!--class PropertySoldRepository--><g id="elem_PropertySoldRepository"><rect codeLine="35" fill="#F1F1F1" height="42.6211" id="PropertySoldRepository" rx="1.25" ry="1.25" style="stroke:#181818;stroke-width:0.25;" width="114" x="160.75" y="306.3105"/><ellipse cx="178.6" cy="314.3105" fill="#ADD1B2" rx="5.5" ry="5.5" style="stroke:#181818;stroke-width:0.5;"/><path d="M179.9828,312.248 Q180.0609,312.1387 180.1547,312.084 Q180.2484,312.0293 180.3578,312.0293 Q180.5453,312.0293 180.6625,312.1621 Q180.7797,312.2871 180.7797,312.5918 L180.7797,313.3184 Q180.7797,313.623 180.6625,313.7559 Q180.5453,313.8887 180.3578,313.8887 Q180.1859,313.8887 180.0844,313.7871 Q179.9828,313.6934 179.9281,313.4355 Q179.9047,313.2559 179.8109,313.1621 Q179.6469,312.9746 179.3422,312.8652 Q179.0375,312.7559 178.725,312.7559 Q178.3422,312.7559 178.0219,312.9199 Q177.7094,313.084 177.4594,313.459 Q177.2172,313.834 177.2172,314.3496 L177.2172,314.8965 Q177.2172,315.5137 177.6625,315.9277 Q178.1078,316.334 178.9047,316.334 Q179.3734,316.334 179.7016,316.209 Q179.8969,316.1309 180.1078,315.9121 Q180.2406,315.7793 180.3109,315.7402 Q180.3891,315.7012 180.4906,315.7012 Q180.6547,315.7012 180.7797,315.834 Q180.9125,315.959 180.9125,316.1309 Q180.9125,316.3027 180.7406,316.5059 Q180.4906,316.7949 180.0922,316.959 Q179.5531,317.1855 178.9047,317.1855 Q178.1469,317.1855 177.5453,316.873 Q177.0531,316.623 176.7094,316.0918 Q176.3656,315.5527 176.3656,314.9121 L176.3656,314.334 Q176.3656,313.6699 176.6703,313.0996 Q176.9828,312.5215 177.5297,312.2168 Q178.0766,311.9043 178.6938,311.9043 Q179.0609,311.9043 179.3813,311.9902 Q179.7094,312.0684 179.9828,312.248 Z " fill="#000000"/><text fill="#000000" font-family="sans-serif" font-size="7" lengthAdjust="spacing" textLength="75" x="187.9" y="317.209">PropertySoldRepository</text><line style="stroke:#181818;stroke-width:0.25;" x1="161.25" x2="274.25" y1="322.3105" y2="322.3105"/><text fill="#000000" font-family="sans-serif" font-size="7" lengthAdjust="spacing" textLength="96" x="163.75" y="331.8643">-List&lt;Property&gt; soldProperties</text><text fill="#000000" font-family="sans-serif" font-size="7" lengthAdjust="spacing" textLength="108" x="163.75" y="341.1748">-EditAndSortLists editAndSortLists</text><line style="stroke:#181818;stroke-width:0.25;" x1="161.25" x2="274.25" y1="344.9316" y2="344.9316"/></g><!--class Property--><g id="elem_Property"><rect codeLine="40" fill="#F1F1F1" height="117.1055" id="Property" rx="1.25" ry="1.25" style="stroke:#181818;stroke-width:0.25;" width="100.5" x="167.5" y="388.3105"/><ellipse cx="202.125" cy="396.3105" fill="#ADD1B2" rx="5.5" ry="5.5" style="stroke:#181818;stroke-width:0.5;"/><path d="M203.5078,394.248 Q203.5859,394.1387 203.6797,394.084 Q203.7734,394.0293 203.8828,394.0293 Q204.0703,394.0293 204.1875,394.1621 Q204.3047,394.2871 204.3047,394.5918 L204.3047,395.3184 Q204.3047,395.623 204.1875,395.7559 Q204.0703,395.8887 203.8828,395.8887 Q203.7109,395.8887 203.6094,395.7871 Q203.5078,395.6934 203.4531,395.4355 Q203.4297,395.2559 203.3359,395.1621 Q203.1719,394.9746 202.8672,394.8652 Q202.5625,394.7559 202.25,394.7559 Q201.8672,394.7559 201.5469,394.9199 Q201.2344,395.084 200.9844,395.459 Q200.7422,395.834 200.7422,396.3496 L200.7422,396.8965 Q200.7422,397.5137 201.1875,397.9277 Q201.6328,398.334 202.4297,398.334 Q202.8984,398.334 203.2266,398.209 Q203.4219,398.1309 203.6328,397.9121 Q203.7656,397.7793 203.8359,397.7402 Q203.9141,397.7012 204.0156,397.7012 Q204.1797,397.7012 204.3047,397.834 Q204.4375,397.959 204.4375,398.1309 Q204.4375,398.3027 204.2656,398.5059 Q204.0156,398.7949 203.6172,398.959 Q203.0781,399.1855 202.4297,399.1855 Q201.6719,399.1855 201.0703,398.873 Q200.5781,398.623 200.2344,398.0918 Q199.8906,397.5527 199.8906,396.9121 L199.8906,396.334 Q199.8906,395.6699 200.1953,395.0996 Q200.5078,394.5215 201.0547,394.2168 Q201.6016,393.9043 202.2188,393.9043 Q202.5859,393.9043 202.9063,393.9902 Q203.2344,394.0684 203.5078,394.248 Z " fill="#000000"/><text fill="#000000" font-family="sans-serif" font-size="7" lengthAdjust="spacing" textLength="27" x="212.375" y="399.209">Property</text><line style="stroke:#181818;stroke-width:0.25;" x1="168" x2="267.5" y1="404.3105" y2="404.3105"/><text fill="#000000" font-family="sans-serif" font-size="7" lengthAdjust="spacing" textLength="32.5" x="170.5" y="413.8643">-float area</text><text fill="#000000" font-family="sans-serif" font-size="7" lengthAdjust="spacing" textLength="47.5" x="170.5" y="423.1748">-String location</text><text fill="#000000" font-family="sans-serif" font-size="7" lengthAdjust="spacing" textLength="94.5" x="170.5" y="432.4854">-float distanceFromCityCentre</text><text fill="#000000" font-family="sans-serif" font-size="7" lengthAdjust="spacing" textLength="41" x="170.5" y="441.7959">-Agent agent</text><text fill="#000000" font-family="sans-serif" font-size="7" lengthAdjust="spacing" textLength="60" x="170.5" y="451.1064">-File[] photographs</text><text fill="#000000" font-family="sans-serif" font-size="7" lengthAdjust="spacing" textLength="47" x="170.5" y="460.417">-float finalPrice</text><text fill="#000000" font-family="sans-serif" font-size="7" lengthAdjust="spacing" textLength="85" x="170.5" y="469.7275">-String announcementDate</text><text fill="#000000" font-family="sans-serif" font-size="7" lengthAdjust="spacing" textLength="51" x="170.5" y="479.0381">-String saleDate</text><text fill="#000000" font-family="sans-serif" font-size="7" lengthAdjust="spacing" textLength="55" x="170.5" y="488.3486">-Request request</text><text fill="#000000" font-family="sans-serif" font-size="7" lengthAdjust="spacing" textLength="37.5" x="170.5" y="497.6592">-Store store</text><line style="stroke:#181818;stroke-width:0.25;" x1="168" x2="267.5" y1="501.416" y2="501.416"/></g><!--link User to ListAllDealsUI--><g id="link_User_ListAllDealsUI"><path codeLine="53" d="M50.17,53.8105 C73.42,53.8105 110.305,53.8105 143.555,53.8105 " fill="none" id="User-to-ListAllDealsUI" style="stroke:#181818;stroke-width:0.5;"/><polygon fill="#181818" points="146.145,53.8105,141.645,51.8105,143.645,53.8105,141.645,55.8105,146.145,53.8105" style="stroke:#181818;stroke-width:0.5;"/><text fill="#000000" font-family="sans-serif" font-size="6.5" lengthAdjust="spacing" textLength="78" x="59.125" y="50.3247">asks to see all deals made</text></g><!--link ListAllDealsUI to ListAllDealsController--><g id="link_ListAllDealsUI_ListAllDealsController"><path codeLine="54" d="M217.75,75.2405 C217.75,88.9705 217.75,106.9355 217.75,121.1355 " fill="none" id="ListAllDealsUI-to-ListAllDealsController" style="stroke:#181818;stroke-width:0.5;"/><polygon fill="#181818" points="217.75,123.7405,219.75,119.2405,217.75,121.2405,215.75,119.2405,217.75,123.7405" style="stroke:#181818;stroke-width:0.5;"/><text fill="#000000" font-family="sans-serif" font-size="6.5" lengthAdjust="spacing" textLength="26.5" x="218.25" y="106.8247">controller</text></g><!--link ListAllDealsController to Repositories--><g id="link_ListAllDealsController_Repositories"><path codeLine="55" d="M217.75,166.4905 C217.75,177.3805 217.75,190.9405 217.75,203.1705 " fill="none" id="ListAllDealsController-to-Repositories" style="stroke:#181818;stroke-width:0.5;"/><polygon fill="#181818" points="217.75,205.7605,219.75,201.2605,217.75,203.2605,215.75,201.2605,217.75,205.7605" style="stroke:#181818;stroke-width:0.5;"/><text fill="#000000" font-family="sans-serif" font-size="6.5" lengthAdjust="spacing" textLength="33.5" x="218.25" y="188.8247">repositories</text></g><!--link Repositories to PropertySoldRepository--><g id="link_Repositories_PropertySoldRepository"><path codeLine="56" d="M217.75,266.8605 C217.75,278.8755 217.75,292.5005 217.75,303.7455 " fill="none" id="Repositories-to-PropertySoldRepository" style="stroke:#181818;stroke-width:0.5;"/><polygon fill="#181818" points="217.75,306.2505,219.75,301.7505,217.75,303.7505,215.75,301.7505,217.75,306.2505" style="stroke:#181818;stroke-width:0.5;"/><text fill="#000000" font-family="sans-serif" font-size="6.5" lengthAdjust="spacing" textLength="67.5" x="218.25" y="289.3247">propertySoldRepository</text></g><!--link PropertySoldRepository to Property--><g id="link_PropertySoldRepository_Property"><path codeLine="57" d="M217.75,348.9305 C217.75,359.2805 217.75,372.3705 217.75,385.5655 " fill="none" id="PropertySoldRepository-to-Property" style="stroke:#181818;stroke-width:0.5;"/><polygon fill="#181818" points="217.75,388.2055,219.75,383.7055,217.75,385.7055,215.75,383.7055,217.75,388.2055" style="stroke:#181818;stroke-width:0.5;"/><text fill="#000000" font-family="sans-serif" font-size="6.5" lengthAdjust="spacing" textLength="24.5" x="218.25" y="371.3247">contains</text></g><!--SRC=[TLDDRzim3BthL_2s3gsNRfS1mL0WI5eWm0v5ZPo68U1inX4YIvx8eCYA_VTH-RBYDHVR9Dzx9ANd3skHZiUZKUVGoxPrdwhGZfX-RybNLDGMcuYjuOtr7UeNT5XjiA5ITeuWKYNe6qSPWDTOXrVh6rYXuxnIEMIUY4JxQoiqhu8lxH-2UsF4YgejollFN-6xPKbiT0vgKWaeO9gOC3iEO_P2i62Ay6QAKWKLxx6bSn23wmDgqRfprBtMvkz98pMRE3TBVHPp5SiJq-15XPosSU-cpNAvDBTnwsy-lY-PARmTm0t9SmmTHR74Ihlb4FDCwCG6VmU7zvSxwCwrhCSBTO6jXAXf7JeFmNhMEwbq_QFihWokFaDsm1VXOIpGkUP7OfeA-Za7z7pLAmsEn_ZjL7xOj-oNDCLZRMNYwr9tJqW66YJ-xw6YAnTG02FX-J9Tg30TrAbOsyCEJp6qKokxAUa5w55C6lq0J4zJF5b7Ftv2jmuIr53Tca_qbVNedgEjUlEWzs6hYgrIPoXzWT7H8V6I_XOM_HlsxuG8aO3JCosoDshnC30RZ05vmo01c2YpUuircG6s6D0pOusXwWrv1PFe5oOPwx1zQ2vg2NpbPiSdEmuAvWe-bpeEYkhFVm00]--></g></svg>