<?xml version="1.0" encoding="us-ascii" standalone="no"?><svg xmlns="http://www.w3.org/2000/svg" xmlns:xlink="http://www.w3.org/1999/xlink" contentStyleType="text/css" height="650.1px" preserveAspectRatio="none" style="width:430px;height:650px;background:#FFFFFF;" version="1.1" viewBox="0 0 430 650" width="430.5px" zoomAndPan="magnify"><defs/><g><text fill="#000000" font-family="sans-serif" font-size="4.2" font-weight="bold" lengthAdjust="spacing" textLength="67.5" x="182.025" y="9.0322">US004 -  Sequence Diagram (SD)</text><rect fill="#FFFFFF" height="582.4523" style="stroke:#181818;stroke-width:0.3;" width="3" x="14.55" y="39.9727"/><rect fill="#FFFFFF" height="97.5721" style="stroke:#181818;stroke-width:0.3;" width="3" x="160.95" y="52.1473"/><rect fill="#FFFFFF" height="9.3873" style="stroke:#181818;stroke-width:0.3;" width="3" x="160.95" y="159.1066"/><rect fill="#FFFFFF" height="46.4238" style="stroke:#181818;stroke-width:0.3;" width="3" x="160.95" y="177.8813"/><rect fill="#FFFFFF" height="51.8238" style="stroke:#181818;stroke-width:0.3;" width="3" x="160.95" y="233.6924"/><rect fill="#FFFFFF" height="17.2746" style="stroke:#181818;stroke-width:0.3;" width="3" x="160.95" y="294.9035"/><rect fill="#FFFFFF" height="62.0004" style="stroke:#181818;stroke-width:0.3;" width="3" x="160.95" y="321.5654"/><rect fill="#FFFFFF" height="67.1877" style="stroke:#181818;stroke-width:0.3;" width="3" x="160.95" y="392.9531"/><rect fill="#FFFFFF" height="48.7365" style="stroke:#181818;stroke-width:0.3;" width="3" x="160.95" y="469.5281"/><rect fill="#FFFFFF" height="90.273" style="stroke:#181818;stroke-width:0.3;" width="3" x="160.95" y="527.652"/><rect fill="#FFFFFF" height="65.7111" style="stroke:#181818;stroke-width:0.3;" width="3" x="240.75" y="74.6209"/><rect fill="#FFFFFF" height="9.3873" style="stroke:#181818;stroke-width:0.3;" width="3" x="240.75" y="195.1559"/><rect fill="#FFFFFF" height="27.8619" style="stroke:#181818;stroke-width:0.3;" width="3" x="240.75" y="243.0797"/><rect fill="#FFFFFF" height="27.8619" style="stroke:#181818;stroke-width:0.3;" width="3" x="240.75" y="330.9527"/><rect fill="#FFFFFF" height="27.8619" style="stroke:#181818;stroke-width:0.3;" width="3" x="240.75" y="402.3404"/><rect fill="#FFFFFF" height="27.8619" style="stroke:#181818;stroke-width:0.3;" width="3" x="240.75" y="478.9154"/><rect fill="#FFFFFF" height="56.3238" style="stroke:#181818;stroke-width:0.3;" width="3" x="240.75" y="550.1139"/><rect fill="#FFFFFF" height="9.3873" style="stroke:#181818;stroke-width:0.3;" width="3" x="291.3" y="84.0082"/><rect fill="#FFFFFF" height="9.3873" style="stroke:#181818;stroke-width:0.3;" width="3" x="291.3" y="559.5012"/><rect fill="#FFFFFF" height="9.3873" style="stroke:#181818;stroke-width:0.3;" width="3" x="323.4" y="102.7828"/><rect fill="#FFFFFF" height="9.3873" style="stroke:#181818;stroke-width:0.3;" width="3" x="323.4" y="578.2758"/><rect fill="#FFFFFF" height="9.3873" style="stroke:#181818;stroke-width:0.3;" width="3" x="359.4" y="121.5574"/><rect fill="#FFFFFF" height="9.3873" style="stroke:#181818;stroke-width:0.3;" width="3" x="401.1" y="587.6631"/><rect fill="none" height="437.9437" style="stroke:#000000;stroke-width:0.44999999999999996;" width="425.85" x="3" y="182.3813"/><rect fill="none" height="209.7738" style="stroke:#000000;stroke-width:0.44999999999999996;" width="273.45" x="6" y="299.4035"/><rect fill="none" height="76.6857" style="stroke:#000000;stroke-width:0.44999999999999996;" width="291.9" x="133.95" y="532.152"/><line style="stroke:#181818;stroke-width:0.15;stroke-dasharray:5.0,5.0;" x1="15.9" x2="15.9" y1="36.9727" y2="625.425"/><line style="stroke:#181818;stroke-width:0.15;stroke-dasharray:5.0,5.0;" x1="162.45" x2="162.45" y1="36.9727" y2="625.425"/><line style="stroke:#181818;stroke-width:0.15;stroke-dasharray:5.0,5.0;" x1="242.25" x2="242.25" y1="64.0904" y2="625.425"/><line style="stroke:#181818;stroke-width:0.15;stroke-dasharray:5.0,5.0;" x1="292.65" x2="292.65" y1="36.9727" y2="625.425"/><line style="stroke:#181818;stroke-width:0.15;stroke-dasharray:5.0,5.0;" x1="324.75" x2="324.75" y1="36.9727" y2="625.425"/><line style="stroke:#181818;stroke-width:0.15;stroke-dasharray:5.0,5.0;" x1="360.75" x2="360.75" y1="36.9727" y2="625.425"/><line style="stroke:#181818;stroke-width:0.15;stroke-dasharray:5.0,5.0;" x1="402.45" x2="402.45" y1="36.9727" y2="625.425"/><text fill="#000000" font-family="sans-serif" font-size="4.2" lengthAdjust="spacing" textLength="12.3" x="9" y="35.9186">Owner</text><ellipse cx="16.05" cy="15.9363" fill="#E3E3E3" rx="2.4" ry="2.4" style="stroke:#181818;stroke-width:0.15;"/><path d="M16.05,18.3363 L16.05,26.4363 M12.15,20.7363 L19.95,20.7363 M16.05,26.4363 L12.15,30.9363 M16.05,26.4363 L19.95,30.9363 " fill="none" style="stroke:#181818;stroke-width:0.15;"/><text fill="#000000" font-family="sans-serif" font-size="4.2" lengthAdjust="spacing" textLength="12.3" x="9" y="629.6572">Owner</text><ellipse cx="16.05" cy="633.2613" fill="#E3E3E3" rx="2.4" ry="2.4" style="stroke:#181818;stroke-width:0.15;"/><path d="M16.05,635.6613 L16.05,643.7613 M12.15,638.0613 L19.95,638.0613 M16.05,643.7613 L12.15,648.2613 M16.05,643.7613 L19.95,648.2613 " fill="none" style="stroke:#181818;stroke-width:0.15;"/><rect fill="#E3E3E3" height="9.7863" rx="0.75" ry="0.75" style="stroke:#181818;stroke-width:0.15;" width="51" x="136.95" y="26.8863"/><text fill="#000000" font-family="sans-serif" font-size="4.2" lengthAdjust="spacing" textLength="46.8" x="139.05" y="33.5186">:SendPropertyRequestUI</text><rect fill="#E3E3E3" height="9.7863" rx="0.75" ry="0.75" style="stroke:#181818;stroke-width:0.15;" width="51" x="136.95" y="625.125"/><text fill="#000000" font-family="sans-serif" font-size="4.2" lengthAdjust="spacing" textLength="46.8" x="139.05" y="631.7572">:SendPropertyRequestUI</text><rect fill="#E3E3E3" height="9.7863" rx="0.75" ry="0.75" style="stroke:#181818;stroke-width:0.15;" width="66" x="209.25" y="625.125"/><text fill="#000000" font-family="sans-serif" font-size="4.2" lengthAdjust="spacing" textLength="61.8" x="211.35" y="631.7572">:SendPropertyRequestController</text><rect fill="#E3E3E3" height="9.7863" rx="0.75" ry="0.75" style="stroke:#181818;stroke-width:0.15;" width="29.1" x="278.25" y="26.8863"/><text fill="#000000" font-family="sans-serif" font-size="4.2" lengthAdjust="spacing" textLength="24.9" x="280.35" y="33.5186">:Repositories</text><rect fill="#E3E3E3" height="9.7863" rx="0.75" ry="0.75" style="stroke:#181818;stroke-width:0.15;" width="29.1" x="278.25" y="625.125"/><text fill="#000000" font-family="sans-serif" font-size="4.2" lengthAdjust="spacing" textLength="24.9" x="280.35" y="631.7572">:Repositories</text><rect fill="#E3E3E3" height="15.3727" rx="0.75" ry="0.75" style="stroke:#181818;stroke-width:0.15;" width="29.1" x="310.35" y="21.3"/><text fill="#000000" font-family="sans-serif" font-size="4.2" lengthAdjust="spacing" textLength="22.2" x="313.8" y="27.9322">repositories</text><text fill="#000000" font-family="sans-serif" font-size="4.2" lengthAdjust="spacing" textLength="24.9" x="312.45" y="33.5186">:Repositories</text><rect fill="#E3E3E3" height="15.3727" rx="0.75" ry="0.75" style="stroke:#181818;stroke-width:0.15;" width="29.1" x="310.35" y="625.125"/><text fill="#000000" font-family="sans-serif" font-size="4.2" lengthAdjust="spacing" textLength="22.2" x="313.8" y="631.7572">repositories</text><text fill="#000000" font-family="sans-serif" font-size="4.2" lengthAdjust="spacing" textLength="24.9" x="312.45" y="637.3436">:Repositories</text><rect fill="#E3E3E3" height="15.3727" rx="0.75" ry="0.75" style="stroke:#181818;stroke-width:0.15;" width="36.9" x="342.45" y="21.3"/><text fill="#000000" font-family="sans-serif" font-size="4.2" lengthAdjust="spacing" textLength="32.4" x="344.7" y="27.9322">:agentRepository</text><text fill="#000000" font-family="sans-serif" font-size="4.2" lengthAdjust="spacing" textLength="32.7" x="344.55" y="33.5186">:AgentRepository</text><rect fill="#E3E3E3" height="15.3727" rx="0.75" ry="0.75" style="stroke:#181818;stroke-width:0.15;" width="36.9" x="342.45" y="625.125"/><text fill="#000000" font-family="sans-serif" font-size="4.2" lengthAdjust="spacing" textLength="32.4" x="344.7" y="631.7572">:agentRepository</text><text fill="#000000" font-family="sans-serif" font-size="4.2" lengthAdjust="spacing" textLength="32.7" x="344.55" y="637.3436">:AgentRepository</text><rect fill="#E3E3E3" height="15.3727" rx="0.75" ry="0.75" style="stroke:#181818;stroke-width:0.15;" width="40.5" x="382.35" y="21.3"/><text fill="#000000" font-family="sans-serif" font-size="4.2" lengthAdjust="spacing" textLength="36" x="384.6" y="27.9322">requestRepository:</text><text fill="#000000" font-family="sans-serif" font-size="4.2" lengthAdjust="spacing" textLength="36.3" x="384.45" y="33.5186">RequestRepository</text><rect fill="#E3E3E3" height="15.3727" rx="0.75" ry="0.75" style="stroke:#181818;stroke-width:0.15;" width="40.5" x="382.35" y="625.125"/><text fill="#000000" font-family="sans-serif" font-size="4.2" lengthAdjust="spacing" textLength="36" x="384.6" y="631.7572">requestRepository:</text><text fill="#000000" font-family="sans-serif" font-size="4.2" lengthAdjust="spacing" textLength="36.3" x="384.45" y="637.3436">RequestRepository</text><rect fill="#FFFFFF" height="582.4523" style="stroke:#181818;stroke-width:0.3;" width="3" x="14.55" y="39.9727"/><rect fill="#FFFFFF" height="97.5721" style="stroke:#181818;stroke-width:0.3;" width="3" x="160.95" y="52.1473"/><rect fill="#FFFFFF" height="9.3873" style="stroke:#181818;stroke-width:0.3;" width="3" x="160.95" y="159.1066"/><rect fill="#FFFFFF" height="46.4238" style="stroke:#181818;stroke-width:0.3;" width="3" x="160.95" y="177.8813"/><rect fill="#FFFFFF" height="51.8238" style="stroke:#181818;stroke-width:0.3;" width="3" x="160.95" y="233.6924"/><rect fill="#FFFFFF" height="17.2746" style="stroke:#181818;stroke-width:0.3;" width="3" x="160.95" y="294.9035"/><rect fill="#FFFFFF" height="62.0004" style="stroke:#181818;stroke-width:0.3;" width="3" x="160.95" y="321.5654"/><rect fill="#FFFFFF" height="67.1877" style="stroke:#181818;stroke-width:0.3;" width="3" x="160.95" y="392.9531"/><rect fill="#FFFFFF" height="48.7365" style="stroke:#181818;stroke-width:0.3;" width="3" x="160.95" y="469.5281"/><rect fill="#FFFFFF" height="90.273" style="stroke:#181818;stroke-width:0.3;" width="3" x="160.95" y="527.652"/><rect fill="#FFFFFF" height="65.7111" style="stroke:#181818;stroke-width:0.3;" width="3" x="240.75" y="74.6209"/><rect fill="#FFFFFF" height="9.3873" style="stroke:#181818;stroke-width:0.3;" width="3" x="240.75" y="195.1559"/><rect fill="#FFFFFF" height="27.8619" style="stroke:#181818;stroke-width:0.3;" width="3" x="240.75" y="243.0797"/><rect fill="#FFFFFF" height="27.8619" style="stroke:#181818;stroke-width:0.3;" width="3" x="240.75" y="330.9527"/><rect fill="#FFFFFF" height="27.8619" style="stroke:#181818;stroke-width:0.3;" width="3" x="240.75" y="402.3404"/><rect fill="#FFFFFF" height="27.8619" style="stroke:#181818;stroke-width:0.3;" width="3" x="240.75" y="478.9154"/><rect fill="#FFFFFF" height="56.3238" style="stroke:#181818;stroke-width:0.3;" width="3" x="240.75" y="550.1139"/><rect fill="#FFFFFF" height="9.3873" style="stroke:#181818;stroke-width:0.3;" width="3" x="291.3" y="84.0082"/><rect fill="#FFFFFF" height="9.3873" style="stroke:#181818;stroke-width:0.3;" width="3" x="291.3" y="559.5012"/><rect fill="#FFFFFF" height="9.3873" style="stroke:#181818;stroke-width:0.3;" width="3" x="323.4" y="102.7828"/><rect fill="#FFFFFF" height="9.3873" style="stroke:#181818;stroke-width:0.3;" width="3" x="323.4" y="578.2758"/><rect fill="#FFFFFF" height="9.3873" style="stroke:#181818;stroke-width:0.3;" width="3" x="359.4" y="121.5574"/><rect fill="#FFFFFF" height="9.3873" style="stroke:#181818;stroke-width:0.3;" width="3" x="401.1" y="587.6631"/><polygon fill="#181818" points="157.35,50.9473,160.35,52.1473,157.35,53.3473,158.55,52.1473" style="stroke:#181818;stroke-width:0.3;"/><line style="stroke:#181818;stroke-width:0.3;" x1="17.55" x2="159.15" y1="52.1473" y2="52.1473"/><text fill="#000000" font-family="sans-serif" font-size="3.9" font-weight="bold" lengthAdjust="spacing" textLength="2.1" x="19.65" y="47.9748">1</text><text fill="#000000" font-family="sans-serif" font-size="3.9" lengthAdjust="spacing" textLength="99.3" x="22.95" y="45.3812">asks to submit a request for listing a property sale or rent</text><text fill="#000000" font-family="sans-serif" font-size="3.9" lengthAdjust="spacing" textLength="113.4" x="22.95" y="50.5685">(with description, informal description, technical description, cost)</text><polygon fill="#181818" points="205.65,60.3346,208.65,61.5346,205.65,62.7346,206.85,61.5346" style="stroke:#181818;stroke-width:0.3;"/><line style="stroke:#181818;stroke-width:0.3;" x1="163.95" x2="207.45" y1="61.5346" y2="61.5346"/><text fill="#000000" font-family="sans-serif" font-size="3.9" font-weight="bold" lengthAdjust="spacing" textLength="2.1" x="166.05" y="59.9558">2</text><text fill="#000000" font-family="sans-serif" font-size="3.9" lengthAdjust="spacing" textLength="12.9" x="169.35" y="59.9558">creates</text><rect fill="#E3E3E3" height="9.7863" rx="0.75" ry="0.75" style="stroke:#181818;stroke-width:0.15;" width="66" x="209.25" y="54.5473"/><text fill="#000000" font-family="sans-serif" font-size="4.2" lengthAdjust="spacing" textLength="61.8" x="211.35" y="61.1795">:SendPropertyRequestController</text><polygon fill="#181818" points="237.15,73.4209,240.15,74.6209,237.15,75.8209,238.35,74.6209" style="stroke:#181818;stroke-width:0.3;"/><line style="stroke:#181818;stroke-width:0.3;" x1="163.95" x2="238.95" y1="74.6209" y2="74.6209"/><text fill="#000000" font-family="sans-serif" font-size="3.9" font-weight="bold" lengthAdjust="spacing" textLength="2.1" x="166.05" y="73.0421">3</text><text fill="#000000" font-family="sans-serif" font-size="3.9" lengthAdjust="spacing" textLength="25.5" x="169.35" y="73.0421">getProperties()</text><polygon fill="#181818" points="287.7,82.8082,290.7,84.0082,287.7,85.2082,288.9,84.0082" style="stroke:#181818;stroke-width:0.3;"/><line style="stroke:#181818;stroke-width:0.3;" x1="243.75" x2="289.5" y1="84.0082" y2="84.0082"/><text fill="#000000" font-family="sans-serif" font-size="3.9" font-weight="bold" lengthAdjust="spacing" textLength="2.1" x="245.85" y="82.4294">4</text><text fill="#000000" font-family="sans-serif" font-size="3.9" lengthAdjust="spacing" textLength="22.5" x="249.15" y="82.4294">getInstance()</text><polygon fill="#181818" points="247.05,92.1955,244.05,93.3955,247.05,94.5955,245.85,93.3955" style="stroke:#181818;stroke-width:0.3;"/><line style="stroke:#181818;stroke-width:0.3;stroke-dasharray:2.0,2.0;" x1="245.25" x2="292.5" y1="93.3955" y2="93.3955"/><text fill="#000000" font-family="sans-serif" font-size="3.9" font-weight="bold" lengthAdjust="spacing" textLength="2.1" x="248.85" y="91.8167">5</text><text fill="#000000" font-family="sans-serif" font-size="3.9" lengthAdjust="spacing" textLength="20.1" x="252.15" y="91.8167">repositories</text><polygon fill="#181818" points="319.8,101.5828,322.8,102.7828,319.8,103.9828,321,102.7828" style="stroke:#181818;stroke-width:0.3;"/><line style="stroke:#181818;stroke-width:0.3;" x1="243.75" x2="321.6" y1="102.7828" y2="102.7828"/><text fill="#000000" font-family="sans-serif" font-size="3.9" font-weight="bold" lengthAdjust="spacing" textLength="2.1" x="245.85" y="101.204">6</text><text fill="#000000" font-family="sans-serif" font-size="3.9" lengthAdjust="spacing" textLength="36.6" x="249.15" y="101.204">getAgentRepository()</text><polygon fill="#181818" points="247.05,110.9701,244.05,112.1701,247.05,113.3701,245.85,112.1701" style="stroke:#181818;stroke-width:0.3;"/><line style="stroke:#181818;stroke-width:0.3;stroke-dasharray:2.0,2.0;" x1="245.25" x2="324.6" y1="112.1701" y2="112.1701"/><text fill="#000000" font-family="sans-serif" font-size="3.9" font-weight="bold" lengthAdjust="spacing" textLength="2.1" x="248.85" y="110.5913">7</text><text fill="#000000" font-family="sans-serif" font-size="3.9" lengthAdjust="spacing" textLength="28.2" x="252.15" y="110.5913">agentRepository</text><polygon fill="#181818" points="355.8,120.3574,358.8,121.5574,355.8,122.7574,357,121.5574" style="stroke:#181818;stroke-width:0.3;"/><line style="stroke:#181818;stroke-width:0.3;" x1="243.75" x2="357.6" y1="121.5574" y2="121.5574"/><text fill="#000000" font-family="sans-serif" font-size="3.9" font-weight="bold" lengthAdjust="spacing" textLength="2.1" x="245.85" y="119.9786">8</text><text fill="#000000" font-family="sans-serif" font-size="3.9" lengthAdjust="spacing" textLength="20.1" x="249.15" y="119.9786">getAgents()</text><polygon fill="#181818" points="247.05,129.7447,244.05,130.9447,247.05,132.1447,245.85,130.9447" style="stroke:#181818;stroke-width:0.3;"/><line style="stroke:#181818;stroke-width:0.3;stroke-dasharray:2.0,2.0;" x1="245.25" x2="360.6" y1="130.9447" y2="130.9447"/><text fill="#000000" font-family="sans-serif" font-size="3.9" font-weight="bold" lengthAdjust="spacing" textLength="2.1" x="248.85" y="129.3659">9</text><text fill="#000000" font-family="sans-serif" font-size="3.9" lengthAdjust="spacing" textLength="15.9" x="252.15" y="129.3659">agentList</text><polygon fill="#181818" points="167.25,139.132,164.25,140.332,167.25,141.532,166.05,140.332" style="stroke:#181818;stroke-width:0.3;"/><line style="stroke:#181818;stroke-width:0.3;stroke-dasharray:2.0,2.0;" x1="165.45" x2="241.95" y1="140.332" y2="140.332"/><text fill="#000000" font-family="sans-serif" font-size="3.9" font-weight="bold" lengthAdjust="spacing" textLength="4.2" x="169.05" y="138.7532">10</text><text fill="#000000" font-family="sans-serif" font-size="3.9" lengthAdjust="spacing" textLength="15.9" x="174.45" y="138.7532">agentList</text><polygon fill="#181818" points="20.85,148.5193,17.85,149.7193,20.85,150.9193,19.65,149.7193" style="stroke:#181818;stroke-width:0.3;"/><line style="stroke:#181818;stroke-width:0.3;stroke-dasharray:2.0,2.0;" x1="19.05" x2="162.15" y1="149.7193" y2="149.7193"/><text fill="#000000" font-family="sans-serif" font-size="3.9" font-weight="bold" lengthAdjust="spacing" textLength="4.2" x="22.65" y="148.1405">11</text><text fill="#000000" font-family="sans-serif" font-size="3.9" lengthAdjust="spacing" textLength="41.1" x="28.05" y="148.1405">lists all available agents</text><polygon fill="#181818" points="157.35,157.9066,160.35,159.1066,157.35,160.3066,158.55,159.1066" style="stroke:#181818;stroke-width:0.3;"/><line style="stroke:#181818;stroke-width:0.3;" x1="17.55" x2="159.15" y1="159.1066" y2="159.1066"/><text fill="#000000" font-family="sans-serif" font-size="3.9" font-weight="bold" lengthAdjust="spacing" textLength="4.2" x="19.65" y="157.5278">12</text><text fill="#000000" font-family="sans-serif" font-size="3.9" lengthAdjust="spacing" textLength="102.6" x="25.05" y="157.5278">chooses the agent that will the responsible for that property</text><polygon fill="#181818" points="20.85,167.2939,17.85,168.4939,20.85,169.6939,19.65,168.4939" style="stroke:#181818;stroke-width:0.3;"/><line style="stroke:#181818;stroke-width:0.3;stroke-dasharray:2.0,2.0;" x1="19.05" x2="162.15" y1="168.4939" y2="168.4939"/><text fill="#000000" font-family="sans-serif" font-size="3.9" font-weight="bold" lengthAdjust="spacing" textLength="4.2" x="22.65" y="166.9151">13</text><text fill="#000000" font-family="sans-serif" font-size="3.9" lengthAdjust="spacing" textLength="90.9" x="28.05" y="166.9151">asks how many property requests they want to send</text><polygon fill="#181818" points="157.35,176.6813,160.35,177.8813,157.35,179.0812,158.55,177.8813" style="stroke:#181818;stroke-width:0.3;"/><line style="stroke:#181818;stroke-width:0.3;" x1="17.55" x2="159.15" y1="177.8813" y2="177.8813"/><text fill="#000000" font-family="sans-serif" font-size="3.9" font-weight="bold" lengthAdjust="spacing" textLength="4.2" x="19.65" y="176.3024">14</text><text fill="#000000" font-family="sans-serif" font-size="3.9" lengthAdjust="spacing" textLength="62.4" x="25.05" y="176.3024">answers the question with number x</text><path d="M3,182.3813 L24.9,182.3813 L24.9,185.1686 L21.9,188.1686 L3,188.1686 L3,182.3813 " fill="#EEEEEE" style="stroke:#000000;stroke-width:0.44999999999999996;"/><rect fill="none" height="437.9437" style="stroke:#000000;stroke-width:0.44999999999999996;" width="425.85" x="3" y="182.3813"/><text fill="#000000" font-family="sans-serif" font-size="3.9" font-weight="bold" lengthAdjust="spacing" textLength="8.4" x="7.5" y="186.8897">loop</text><text fill="#000000" font-family="sans-serif" font-size="3.3" font-weight="bold" lengthAdjust="spacing" textLength="14.7" x="29.4" y="186.5423">[x times]</text><polygon fill="#181818" points="237.15,193.9559,240.15,195.1559,237.15,196.3559,238.35,195.1559" style="stroke:#181818;stroke-width:0.3;"/><line style="stroke:#181818;stroke-width:0.3;" x1="163.95" x2="238.95" y1="195.1559" y2="195.1559"/><text fill="#000000" font-family="sans-serif" font-size="3.9" font-weight="bold" lengthAdjust="spacing" textLength="4.2" x="166.05" y="193.5771">15</text><text fill="#000000" font-family="sans-serif" font-size="3.9" lengthAdjust="spacing" textLength="65.7" x="171.45" y="193.5771">fillRequest(scanner, agent, verifyInput)</text><polygon fill="#181818" points="167.25,203.3432,164.25,204.5432,167.25,205.7432,166.05,204.5432" style="stroke:#181818;stroke-width:0.3;"/><line style="stroke:#181818;stroke-width:0.3;stroke-dasharray:2.0,2.0;" x1="165.45" x2="241.95" y1="204.5432" y2="204.5432"/><text fill="#000000" font-family="sans-serif" font-size="3.9" font-weight="bold" lengthAdjust="spacing" textLength="4.2" x="169.05" y="202.9644">16</text><text fill="#000000" font-family="sans-serif" font-size="3.9" lengthAdjust="spacing" textLength="47.4" x="174.45" y="202.9644">needs request's information</text><polygon fill="#181818" points="20.85,223.1051,17.85,224.3051,20.85,225.5051,19.65,224.3051" style="stroke:#181818;stroke-width:0.3;"/><line style="stroke:#181818;stroke-width:0.3;stroke-dasharray:2.0,2.0;" x1="19.05" x2="162.15" y1="224.3051" y2="224.3051"/><text fill="#000000" font-family="sans-serif" font-size="3.9" font-weight="bold" lengthAdjust="spacing" textLength="4.2" x="22.65" y="217.539">17</text><text fill="#000000" font-family="sans-serif" font-size="3.9" lengthAdjust="spacing" textLength="130.8" x="28.05" y="212.3517">asks for general details about request like p if it is 'for sale' (it would be in &#8364;)</text><text fill="#000000" font-family="sans-serif" font-size="3.9" lengthAdjust="spacing" textLength="111" x="28.05" y="217.539">or 'for rent' (it would be in &#8364;/month) (select one of those options),</text><text fill="#000000" font-family="sans-serif" font-size="3.9" lengthAdjust="spacing" textLength="124.5" x="28.05" y="222.7263">contract duration if it is 'for rent' and commission value (% or fixed value)</text><polygon fill="#181818" points="157.35,232.4924,160.35,233.6924,157.35,234.8924,158.55,233.6924" style="stroke:#181818;stroke-width:0.3;"/><line style="stroke:#181818;stroke-width:0.3;" x1="17.55" x2="159.15" y1="233.6924" y2="233.6924"/><text fill="#000000" font-family="sans-serif" font-size="3.9" font-weight="bold" lengthAdjust="spacing" textLength="4.2" x="19.65" y="232.1136">18</text><text fill="#000000" font-family="sans-serif" font-size="3.9" lengthAdjust="spacing" textLength="54.6" x="25.05" y="232.1136">provides the needed information</text><polygon fill="#181818" points="237.15,241.8797,240.15,243.0797,237.15,244.2797,238.35,243.0797" style="stroke:#181818;stroke-width:0.3;"/><line style="stroke:#181818;stroke-width:0.3;" x1="163.95" x2="238.95" y1="243.0797" y2="243.0797"/><text fill="#000000" font-family="sans-serif" font-size="3.9" font-weight="bold" lengthAdjust="spacing" textLength="4.2" x="166.05" y="241.5009">19</text><text fill="#000000" font-family="sans-serif" font-size="3.9" lengthAdjust="spacing" textLength="51.3" x="171.45" y="241.5009">delivers requested information</text><line style="stroke:#181818;stroke-width:0.3;stroke-dasharray:2.0,2.0;" x1="243.75" x2="256.35" y1="257.6543" y2="257.6543"/><line style="stroke:#181818;stroke-width:0.3;stroke-dasharray:2.0,2.0;" x1="256.35" x2="256.35" y1="257.6543" y2="261.5543"/><line style="stroke:#181818;stroke-width:0.3;stroke-dasharray:2.0,2.0;" x1="244.05" x2="256.35" y1="261.5543" y2="261.5543"/><polygon fill="#181818" points="247.05,260.3543,244.05,261.5543,247.05,262.7543,245.85,261.5543" style="stroke:#181818;stroke-width:0.3;"/><text fill="#000000" font-family="sans-serif" font-size="3.9" font-weight="bold" lengthAdjust="spacing" textLength="4.2" x="245.85" y="253.4818">20</text><text fill="#000000" font-family="sans-serif" font-size="3.9" lengthAdjust="spacing" textLength="24.6" x="251.25" y="250.8882">creates object</text><text fill="#000000" font-family="sans-serif" font-size="3.9" lengthAdjust="spacing" textLength="14.4" x="251.25" y="256.0755">Request</text><polygon fill="#181818" points="167.25,269.7416,164.25,270.9416,167.25,272.1416,166.05,270.9416" style="stroke:#181818;stroke-width:0.3;"/><line style="stroke:#181818;stroke-width:0.3;stroke-dasharray:2.0,2.0;" x1="165.45" x2="241.95" y1="270.9416" y2="270.9416"/><text fill="#000000" font-family="sans-serif" font-size="3.9" font-weight="bold" lengthAdjust="spacing" textLength="4.2" x="169.05" y="269.3628">21</text><text fill="#000000" font-family="sans-serif" font-size="3.9" lengthAdjust="spacing" textLength="56.7" x="174.45" y="269.3628">needs information about property</text><polygon fill="#181818" points="20.85,284.3162,17.85,285.5162,20.85,286.7162,19.65,285.5162" style="stroke:#181818;stroke-width:0.3;"/><line style="stroke:#181818;stroke-width:0.3;stroke-dasharray:2.0,2.0;" x1="19.05" x2="162.15" y1="285.5162" y2="285.5162"/><text fill="#000000" font-family="sans-serif" font-size="3.9" font-weight="bold" lengthAdjust="spacing" textLength="4.2" x="22.65" y="281.3438">22</text><text fill="#000000" font-family="sans-serif" font-size="3.9" lengthAdjust="spacing" textLength="83.1" x="28.05" y="278.7501">asks if they want to publish a request for a land,</text><text fill="#000000" font-family="sans-serif" font-size="3.9" lengthAdjust="spacing" textLength="42.3" x="28.05" y="283.9374">apartment or for a house</text><polygon fill="#181818" points="157.35,293.7035,160.35,294.9035,157.35,296.1035,158.55,294.9035" style="stroke:#181818;stroke-width:0.3;"/><line style="stroke:#181818;stroke-width:0.3;" x1="17.55" x2="159.15" y1="294.9035" y2="294.9035"/><text fill="#000000" font-family="sans-serif" font-size="3.9" font-weight="bold" lengthAdjust="spacing" textLength="4.2" x="19.65" y="293.3247">23</text><text fill="#000000" font-family="sans-serif" font-size="3.9" lengthAdjust="spacing" textLength="52.2" x="25.05" y="293.3247">selects one of those 3 options</text><path d="M6,299.4035 L24.3,299.4035 L24.3,302.1908 L21.3,305.1908 L6,305.1908 L6,299.4035 " fill="#EEEEEE" style="stroke:#000000;stroke-width:0.44999999999999996;"/><rect fill="none" height="209.7738" style="stroke:#000000;stroke-width:0.44999999999999996;" width="273.45" x="6" y="299.4035"/><text fill="#000000" font-family="sans-serif" font-size="3.9" font-weight="bold" lengthAdjust="spacing" textLength="4.8" x="10.5" y="303.912">alt</text><text fill="#000000" font-family="sans-serif" font-size="3.3" font-weight="bold" lengthAdjust="spacing" textLength="26.7" x="28.8" y="303.5646">[answer is land]</text><polygon fill="#181818" points="20.85,310.9781,17.85,312.1781,20.85,313.3781,19.65,312.1781" style="stroke:#181818;stroke-width:0.3;"/><line style="stroke:#181818;stroke-width:0.3;stroke-dasharray:2.0,2.0;" x1="19.05" x2="162.15" y1="312.1781" y2="312.1781"/><text fill="#000000" font-family="sans-serif" font-size="3.9" font-weight="bold" lengthAdjust="spacing" textLength="4.2" x="22.65" y="310.5993">24</text><text fill="#000000" font-family="sans-serif" font-size="3.9" lengthAdjust="spacing" textLength="123.9" x="28.05" y="310.5993">asks the land's area (in m^2), location, distance from city centre (in km)</text><polygon fill="#181818" points="157.35,320.3654,160.35,321.5654,157.35,322.7654,158.55,321.5654" style="stroke:#181818;stroke-width:0.3;"/><line style="stroke:#181818;stroke-width:0.3;" x1="17.55" x2="159.15" y1="321.5654" y2="321.5654"/><text fill="#000000" font-family="sans-serif" font-size="3.9" font-weight="bold" lengthAdjust="spacing" textLength="4.2" x="19.65" y="319.9866">25</text><text fill="#000000" font-family="sans-serif" font-size="3.9" lengthAdjust="spacing" textLength="75.9" x="25.05" y="319.9866">selects and types the requested information</text><polygon fill="#181818" points="237.15,329.7527,240.15,330.9527,237.15,332.1527,238.35,330.9527" style="stroke:#181818;stroke-width:0.3;"/><line style="stroke:#181818;stroke-width:0.3;" x1="163.95" x2="238.95" y1="330.9527" y2="330.9527"/><text fill="#000000" font-family="sans-serif" font-size="3.9" font-weight="bold" lengthAdjust="spacing" textLength="4.2" x="166.05" y="329.3739">26</text><text fill="#000000" font-family="sans-serif" font-size="3.9" lengthAdjust="spacing" textLength="53.4" x="171.45" y="329.3739">fillRequestForLand(information)</text><line style="stroke:#181818;stroke-width:0.3;stroke-dasharray:2.0,2.0;" x1="243.75" x2="256.35" y1="345.5273" y2="345.5273"/><line style="stroke:#181818;stroke-width:0.3;stroke-dasharray:2.0,2.0;" x1="256.35" x2="256.35" y1="345.5273" y2="349.4273"/><line style="stroke:#181818;stroke-width:0.3;stroke-dasharray:2.0,2.0;" x1="244.05" x2="256.35" y1="349.4273" y2="349.4273"/><polygon fill="#181818" points="247.05,348.2273,244.05,349.4273,247.05,350.6273,245.85,349.4273" style="stroke:#181818;stroke-width:0.3;"/><text fill="#000000" font-family="sans-serif" font-size="3.9" font-weight="bold" lengthAdjust="spacing" textLength="4.2" x="245.85" y="341.3549">27</text><text fill="#000000" font-family="sans-serif" font-size="3.9" lengthAdjust="spacing" textLength="24.6" x="251.25" y="338.7612">creates object</text><text fill="#000000" font-family="sans-serif" font-size="3.9" lengthAdjust="spacing" textLength="8.4" x="251.25" y="343.9485">Land</text><polygon fill="#181818" points="167.25,357.6146,164.25,358.8146,167.25,360.0146,166.05,358.8146" style="stroke:#181818;stroke-width:0.3;"/><line style="stroke:#181818;stroke-width:0.3;stroke-dasharray:2.0,2.0;" x1="165.45" x2="241.95" y1="358.8146" y2="358.8146"/><text fill="#000000" font-family="sans-serif" font-size="3.9" font-weight="bold" lengthAdjust="spacing" textLength="4.2" x="169.05" y="357.2358">28</text><text fill="#000000" font-family="sans-serif" font-size="3.9" lengthAdjust="spacing" textLength="7.2" x="174.45" y="357.2358">land</text><line style="stroke:#000000;stroke-width:0.3;stroke-dasharray:2.0,2.0;" x1="6" x2="279.45" y1="361.5146" y2="361.5146"/><text fill="#000000" font-family="sans-serif" font-size="3.3" font-weight="bold" lengthAdjust="spacing" textLength="36.9" x="7.5" y="365.0757">[answer is apartment]</text><polygon fill="#181818" points="20.85,382.3658,17.85,383.5658,20.85,384.7658,19.65,383.5658" style="stroke:#181818;stroke-width:0.3;"/><line style="stroke:#181818;stroke-width:0.3;stroke-dasharray:2.0,2.0;" x1="19.05" x2="162.15" y1="383.5658" y2="383.5658"/><text fill="#000000" font-family="sans-serif" font-size="3.9" font-weight="bold" lengthAdjust="spacing" textLength="4.2" x="22.65" y="376.7997">29</text><text fill="#000000" font-family="sans-serif" font-size="3.9" lengthAdjust="spacing" textLength="120.9" x="28.05" y="371.6124">asks the apartment's area (in m^2), location, distance from city centre</text><text fill="#000000" font-family="sans-serif" font-size="3.9" lengthAdjust="spacing" textLength="106.8" x="28.05" y="376.7997">(in km), number of bedrooms, bathrooms and parking spaces,</text><text fill="#000000" font-family="sans-serif" font-size="3.9" lengthAdjust="spacing" textLength="84.6" x="28.05" y="381.987">availability of central heating and air conditioning.</text><polygon fill="#181818" points="157.35,391.7531,160.35,392.9531,157.35,394.1531,158.55,392.9531" style="stroke:#181818;stroke-width:0.3;"/><line style="stroke:#181818;stroke-width:0.3;" x1="17.55" x2="159.15" y1="392.9531" y2="392.9531"/><text fill="#000000" font-family="sans-serif" font-size="3.9" font-weight="bold" lengthAdjust="spacing" textLength="4.2" x="19.65" y="391.3743">30</text><text fill="#000000" font-family="sans-serif" font-size="3.9" lengthAdjust="spacing" textLength="75.9" x="25.05" y="391.3743">selects and types the requested information</text><polygon fill="#181818" points="237.15,401.1404,240.15,402.3404,237.15,403.5404,238.35,402.3404" style="stroke:#181818;stroke-width:0.3;"/><line style="stroke:#181818;stroke-width:0.3;" x1="163.95" x2="238.95" y1="402.3404" y2="402.3404"/><text fill="#000000" font-family="sans-serif" font-size="3.9" font-weight="bold" lengthAdjust="spacing" textLength="4.2" x="166.05" y="400.7616">31</text><text fill="#000000" font-family="sans-serif" font-size="3.9" lengthAdjust="spacing" textLength="63" x="171.45" y="400.7616">fillRequestForApartment(information)</text><line style="stroke:#181818;stroke-width:0.3;stroke-dasharray:2.0,2.0;" x1="243.75" x2="256.35" y1="416.915" y2="416.915"/><line style="stroke:#181818;stroke-width:0.3;stroke-dasharray:2.0,2.0;" x1="256.35" x2="256.35" y1="416.915" y2="420.815"/><line style="stroke:#181818;stroke-width:0.3;stroke-dasharray:2.0,2.0;" x1="244.05" x2="256.35" y1="420.815" y2="420.815"/><polygon fill="#181818" points="247.05,419.615,244.05,420.815,247.05,422.015,245.85,420.815" style="stroke:#181818;stroke-width:0.3;"/><text fill="#000000" font-family="sans-serif" font-size="3.9" font-weight="bold" lengthAdjust="spacing" textLength="4.2" x="245.85" y="412.7426">32</text><text fill="#000000" font-family="sans-serif" font-size="3.9" lengthAdjust="spacing" textLength="24.6" x="251.25" y="410.1489">creates object</text><text fill="#000000" font-family="sans-serif" font-size="3.9" lengthAdjust="spacing" textLength="18" x="251.25" y="415.3362">Apartment</text><polygon fill="#181818" points="167.25,429.0023,164.25,430.2023,167.25,431.4023,166.05,430.2023" style="stroke:#181818;stroke-width:0.3;"/><line style="stroke:#181818;stroke-width:0.3;stroke-dasharray:2.0,2.0;" x1="165.45" x2="241.95" y1="430.2023" y2="430.2023"/><text fill="#000000" font-family="sans-serif" font-size="3.9" font-weight="bold" lengthAdjust="spacing" textLength="4.2" x="169.05" y="428.6235">33</text><text fill="#000000" font-family="sans-serif" font-size="3.9" lengthAdjust="spacing" textLength="17.4" x="174.45" y="428.6235">apartment</text><line style="stroke:#000000;stroke-width:0.3;stroke-dasharray:2.0,2.0;" x1="6" x2="279.45" y1="432.9023" y2="432.9023"/><text fill="#000000" font-family="sans-serif" font-size="3.3" font-weight="bold" lengthAdjust="spacing" textLength="30.3" x="7.5" y="436.4634">[answer is house]</text><polygon fill="#181818" points="20.85,458.9408,17.85,460.1408,20.85,461.3408,19.65,460.1408" style="stroke:#181818;stroke-width:0.3;"/><line style="stroke:#181818;stroke-width:0.3;stroke-dasharray:2.0,2.0;" x1="19.05" x2="162.15" y1="460.1408" y2="460.1408"/><text fill="#000000" font-family="sans-serif" font-size="3.9" font-weight="bold" lengthAdjust="spacing" textLength="4.2" x="22.65" y="450.7811">34</text><text fill="#000000" font-family="sans-serif" font-size="3.9" lengthAdjust="spacing" textLength="114" x="28.05" y="443.0001">asks the house's area (in m^2), location, distance from city centre</text><text fill="#000000" font-family="sans-serif" font-size="3.9" lengthAdjust="spacing" textLength="106.8" x="28.05" y="448.1874">(in km), number of bedrooms, bathrooms and parking spaces,</text><text fill="#000000" font-family="sans-serif" font-size="3.9" lengthAdjust="spacing" textLength="78.3" x="28.05" y="453.3747">availability of central heating, air conditioning,</text><text fill="#000000" font-family="sans-serif" font-size="3.9" lengthAdjust="spacing" textLength="122.1" x="28.05" y="458.562">basement and inhabitable loft and direction of sun exposure (N/S/E/W)</text><polygon fill="#181818" points="157.35,468.3281,160.35,469.5281,157.35,470.7281,158.55,469.5281" style="stroke:#181818;stroke-width:0.3;"/><line style="stroke:#181818;stroke-width:0.3;" x1="17.55" x2="159.15" y1="469.5281" y2="469.5281"/><text fill="#000000" font-family="sans-serif" font-size="3.9" font-weight="bold" lengthAdjust="spacing" textLength="4.2" x="19.65" y="467.9493">35</text><text fill="#000000" font-family="sans-serif" font-size="3.9" lengthAdjust="spacing" textLength="75.9" x="25.05" y="467.9493">selects and types the requested information</text><polygon fill="#181818" points="237.15,477.7154,240.15,478.9154,237.15,480.1154,238.35,478.9154" style="stroke:#181818;stroke-width:0.3;"/><line style="stroke:#181818;stroke-width:0.3;" x1="163.95" x2="238.95" y1="478.9154" y2="478.9154"/><text fill="#000000" font-family="sans-serif" font-size="3.9" font-weight="bold" lengthAdjust="spacing" textLength="4.2" x="166.05" y="477.3366">36</text><text fill="#000000" font-family="sans-serif" font-size="3.9" lengthAdjust="spacing" textLength="63" x="171.45" y="477.3366">fillRequestForApartment(information)</text><line style="stroke:#181818;stroke-width:0.3;stroke-dasharray:2.0,2.0;" x1="243.75" x2="256.35" y1="493.49" y2="493.49"/><line style="stroke:#181818;stroke-width:0.3;stroke-dasharray:2.0,2.0;" x1="256.35" x2="256.35" y1="493.49" y2="497.39"/><line style="stroke:#181818;stroke-width:0.3;stroke-dasharray:2.0,2.0;" x1="244.05" x2="256.35" y1="497.39" y2="497.39"/><polygon fill="#181818" points="247.05,496.19,244.05,497.39,247.05,498.59,245.85,497.39" style="stroke:#181818;stroke-width:0.3;"/><text fill="#000000" font-family="sans-serif" font-size="3.9" font-weight="bold" lengthAdjust="spacing" textLength="4.2" x="245.85" y="489.3176">37</text><text fill="#000000" font-family="sans-serif" font-size="3.9" lengthAdjust="spacing" textLength="24.6" x="251.25" y="486.7239">creates object</text><text fill="#000000" font-family="sans-serif" font-size="3.9" lengthAdjust="spacing" textLength="11.1" x="251.25" y="491.9112">House</text><polygon fill="#181818" points="167.25,505.5773,164.25,506.7773,167.25,507.9773,166.05,506.7773" style="stroke:#181818;stroke-width:0.3;"/><line style="stroke:#181818;stroke-width:0.3;stroke-dasharray:2.0,2.0;" x1="165.45" x2="241.95" y1="506.7773" y2="506.7773"/><text fill="#000000" font-family="sans-serif" font-size="3.9" font-weight="bold" lengthAdjust="spacing" textLength="4.2" x="169.05" y="505.1985">38</text><text fill="#000000" font-family="sans-serif" font-size="3.9" lengthAdjust="spacing" textLength="10.5" x="174.45" y="505.1985">house</text><polygon fill="#181818" points="20.85,517.0646,17.85,518.2646,20.85,519.4646,19.65,518.2646" style="stroke:#181818;stroke-width:0.3;"/><line style="stroke:#181818;stroke-width:0.3;stroke-dasharray:2.0,2.0;" x1="19.05" x2="162.15" y1="518.2646" y2="518.2646"/><text fill="#000000" font-family="sans-serif" font-size="3.9" font-weight="bold" lengthAdjust="spacing" textLength="4.2" x="22.65" y="516.6858">39</text><text fill="#000000" font-family="sans-serif" font-size="3.9" lengthAdjust="spacing" textLength="86.1" x="28.05" y="516.6858">asks if the user wants to submit the given request</text><polygon fill="#181818" points="157.35,526.452,160.35,527.652,157.35,528.852,158.55,527.652" style="stroke:#181818;stroke-width:0.3;"/><line style="stroke:#181818;stroke-width:0.3;" x1="17.55" x2="159.15" y1="527.652" y2="527.652"/><text fill="#000000" font-family="sans-serif" font-size="3.9" font-weight="bold" lengthAdjust="spacing" textLength="4.2" x="19.65" y="526.0731">40</text><text fill="#000000" font-family="sans-serif" font-size="3.9" lengthAdjust="spacing" textLength="47.4" x="25.05" y="526.0731">gives their answer (Yes/No)</text><path d="M133.95,532.152 L152.25,532.152 L152.25,534.9393 L149.25,537.9393 L133.95,537.9393 L133.95,532.152 " fill="#EEEEEE" style="stroke:#000000;stroke-width:0.44999999999999996;"/><rect fill="none" height="76.6857" style="stroke:#000000;stroke-width:0.44999999999999996;" width="291.9" x="133.95" y="532.152"/><text fill="#000000" font-family="sans-serif" font-size="3.9" font-weight="bold" lengthAdjust="spacing" textLength="4.8" x="138.45" y="536.6604">alt</text><text fill="#000000" font-family="sans-serif" font-size="3.3" font-weight="bold" lengthAdjust="spacing" textLength="26.1" x="156.75" y="536.313">[answer is Yes]</text><polygon fill="#181818" points="237.15,548.9139,240.15,550.1139,237.15,551.3139,238.35,550.1139" style="stroke:#181818;stroke-width:0.3;"/><line style="stroke:#181818;stroke-width:0.3;" x1="163.95" x2="238.95" y1="550.1139" y2="550.1139"/><text fill="#000000" font-family="sans-serif" font-size="3.9" font-weight="bold" lengthAdjust="spacing" textLength="4.2" x="166.05" y="545.9414">41</text><text fill="#000000" font-family="sans-serif" font-size="3.9" lengthAdjust="spacing" textLength="21.9" x="171.45" y="543.3478">sends signal</text><text fill="#000000" font-family="sans-serif" font-size="3.9" lengthAdjust="spacing" textLength="20.4" x="171.45" y="548.5351">to controller</text><polygon fill="#181818" points="287.7,558.3012,290.7,559.5012,287.7,560.7012,288.9,559.5012" style="stroke:#181818;stroke-width:0.3;"/><line style="stroke:#181818;stroke-width:0.3;" x1="243.75" x2="289.5" y1="559.5012" y2="559.5012"/><text fill="#000000" font-family="sans-serif" font-size="3.9" font-weight="bold" lengthAdjust="spacing" textLength="4.2" x="245.85" y="557.9224">42</text><text fill="#000000" font-family="sans-serif" font-size="3.9" lengthAdjust="spacing" textLength="22.5" x="251.25" y="557.9224">getInstance()</text><polygon fill="#181818" points="247.05,567.6885,244.05,568.8885,247.05,570.0885,245.85,568.8885" style="stroke:#181818;stroke-width:0.3;"/><line style="stroke:#181818;stroke-width:0.3;stroke-dasharray:2.0,2.0;" x1="245.25" x2="292.5" y1="568.8885" y2="568.8885"/><text fill="#000000" font-family="sans-serif" font-size="3.9" font-weight="bold" lengthAdjust="spacing" textLength="4.2" x="248.85" y="567.3097">43</text><text fill="#000000" font-family="sans-serif" font-size="3.9" lengthAdjust="spacing" textLength="20.1" x="254.25" y="567.3097">repositories</text><polygon fill="#181818" points="319.8,577.0758,322.8,578.2758,319.8,579.4758,321,578.2758" style="stroke:#181818;stroke-width:0.3;"/><line style="stroke:#181818;stroke-width:0.3;" x1="243.75" x2="321.6" y1="578.2758" y2="578.2758"/><text fill="#000000" font-family="sans-serif" font-size="3.9" font-weight="bold" lengthAdjust="spacing" textLength="4.2" x="245.85" y="576.697">44</text><text fill="#000000" font-family="sans-serif" font-size="3.9" lengthAdjust="spacing" textLength="40.8" x="251.25" y="576.697">getRequestRepository()</text><polygon fill="#181818" points="247.05,586.4631,244.05,587.6631,247.05,588.8631,245.85,587.6631" style="stroke:#181818;stroke-width:0.3;"/><line style="stroke:#181818;stroke-width:0.3;stroke-dasharray:2.0,2.0;" x1="245.25" x2="324.6" y1="587.6631" y2="587.6631"/><text fill="#000000" font-family="sans-serif" font-size="3.9" font-weight="bold" lengthAdjust="spacing" textLength="4.2" x="248.85" y="586.0843">45</text><text fill="#000000" font-family="sans-serif" font-size="3.9" lengthAdjust="spacing" textLength="31.5" x="254.25" y="586.0843">requestRepository</text><polygon fill="#181818" points="399,595.8504,402,597.0504,399,598.2504,400.2,597.0504" style="stroke:#181818;stroke-width:0.3;"/><line style="stroke:#181818;stroke-width:0.3;stroke-dasharray:2.0,2.0;" x1="243.75" x2="400.8" y1="597.0504" y2="597.0504"/><text fill="#000000" font-family="sans-serif" font-size="3.9" font-weight="bold" lengthAdjust="spacing" textLength="4.2" x="245.85" y="595.4716">46</text><text fill="#000000" font-family="sans-serif" font-size="3.9" lengthAdjust="spacing" textLength="34.8" x="251.25" y="595.4716">registers property to</text><polygon fill="#181818" points="167.25,605.2377,164.25,606.4377,167.25,607.6377,166.05,606.4377" style="stroke:#181818;stroke-width:0.3;"/><line style="stroke:#181818;stroke-width:0.3;stroke-dasharray:2.0,2.0;" x1="165.45" x2="241.95" y1="606.4377" y2="606.4377"/><text fill="#000000" font-family="sans-serif" font-size="3.9" font-weight="bold" lengthAdjust="spacing" textLength="4.2" x="169.05" y="604.8589">47</text><text fill="#000000" font-family="sans-serif" font-size="3.9" lengthAdjust="spacing" textLength="31.2" x="174.45" y="604.8589">sends signal to UI</text><polygon fill="#181818" points="20.85,616.725,17.85,617.925,20.85,619.125,19.65,617.925" style="stroke:#181818;stroke-width:0.3;"/><line style="stroke:#181818;stroke-width:0.3;stroke-dasharray:2.0,2.0;" x1="19.05" x2="162.15" y1="617.925" y2="617.925"/><text fill="#000000" font-family="sans-serif" font-size="3.9" font-weight="bold" lengthAdjust="spacing" textLength="4.2" x="22.65" y="616.3462">48</text><text fill="#000000" font-family="sans-serif" font-size="3.9" lengthAdjust="spacing" textLength="54" x="28.05" y="616.3462">displays operation (un)success</text><!--SRC=[xLXVY-Cs47_tfnWMoiP7jdkqVTg7mdBNqeNbUcnkAGUX8DjAhCQMN4bEDg_zFFUf-aaw8ykE8zl9xj922yrBmcZ-QUOtVnIp4R9YcfLGAgdINAkIWzKrZqntKh5qmzPyOVS51yrJo-Iww3EOd6Lg9-GQLgmmF8giiCZwk7ZxzZku0bZmtsikKmxl1LkJm6pnFeuYLbibwpBXEeekSv5nM2bb4_KKiTGg3HS_xoJN5y0Ck5yHMhCY5HMJ5Yvk5bnc7xMgkBRx1x9WxEETurxiZUNbUVPtIbgjYi8RUVVfuJuGUk2LCWAT4TmudewmNmYA0jxWM4Jt99PogE3Z_Usdm0Z6Ljg3OfIwFQOumO0MMdKNEXpVBEL3IFCN2AWHHLjicUK-of7xWgllVHpX1kKs1gm2KoUbiC30syE4QIY4iPHx1fKFBnY6wSSZZIulvMmdR0uPDwaMbHLApa58b2nPSKorFCsbI4DogeoD8y1FvwdFi2DwBz5VIk2RD-XlgZbocR5pF5rpwu60IPa5cXq87CbnezH8oXibTz9WAQGyL3664SSnfkdA-tK3VUGuzeoVLzawIR1gl0fm4ZhdyET8JkHWFa1XwC51hZKP6EfP7mGrnAux3UMl3XboljmZha8lHXKr3XtXTKh-aDqM5IZMuFt60Ta0AmfWMoOAbY28dQP1Elhm6rPBcYjbE1PCxkNn5xEm4wYPQ9gRIaaZI3yLa3jjQ-SypdiUkxhCrGvA9lU7ylFLwJpOmuuw11KlDi2NNOH9i-EwkOZJYEK8hfYRjWrFqzuMIbNm15QK7isZfRZ2cFYED3Cfa-Z1l8dP7BPSYzN-JbQrh_vXdRRK8G8avvbf0t5fseP3D-YaGbo4NeQ1fboXQrox1cKH8eYMHDMsQuU5s72eGAm0kwGmS4aYr0mlOOQKdQgB31AEti2VVto9bnAF7Gyrob6UQnpBDezXPdY1anUKnCQwmemWma2v1cdY-LAcDChmEf3LsjqoSA8nm6I6tRGiXJ74icL5pM7s5RNgbNZYMKE9noBaSzkU3C62wDlY36_GGk57TMDHdz8um4R62x4b-FdedjCtZWYlp4y4KCbl6CPkE9v5KC-Yp_LHeRu6Hc9rN9TLdM3doOEfog30R65c6Gtwahe8PScTvAh6BMiwIIUorC387EFesnP9PvF42kkx0Y6BFEoEJbsP847CM8WC4u50br3- -aqynpQHicRAPwAPfh327HHIWNqinLjhxhWtPNnaQHgPf-zD5M3tbOVfQMIT2iIvRlQZqlTeQzRJ6uyhFiBCSw1x7qPzYDr1OgOmod5TxoMqmzgpizf9l2grk1iskPst4mKncV1CArMQEIJCvkwdInjQsj2UQV0zmWrLHZEbHK4AKT3fnDwSOxpSGef2J6ZiU38Jv0aIl_wleUYs3V0_0QNRqNoFx5EZVCy4rN6tEWSen_tl0zDyW2IKIPZXhZEJHY5p5BTkQopKgY5cWjxBD3nGfQaby2VSNMjgQX-k5zS_NFyI_m_87Y1_6c1b2COXdYQ1sEk2fwSne4hj9dB_dKi7Qzn1P1lHLor6fC7b1G7agsBscPlh3of-uRpzt5kbHpD5Axu18zQI5Kk95qcxVpXUbA3dFte76YTVgktdXO_WaOYVDJ5y50_-zPXo__3CRJ_1CtdmJykKbqDDlGkSqj4XVi06P7wD_O-sukwrPzLqe9vbfzTD3l2XCdYy-plA31jsLR0z5ZdwsspIirh6fawnyvep9KMwezvHynVLNm00]--></g></svg>