<?xml version="1.0" encoding="us-ascii" standalone="no"?><svg xmlns="http://www.w3.org/2000/svg" xmlns:xlink="http://www.w3.org/1999/xlink" contentStyleType="text/css" height="638px" preserveAspectRatio="none" style="width:1164px;height:638px;background:#FFFFFF;" version="1.1" viewBox="0 0 1164 638" width="1164px" zoomAndPan="magnify"><defs/><g><text fill="#000000" font-family="sans-serif" font-size="14" font-weight="bold" lengthAdjust="spacing" textLength="279" x="444.25" y="30.1074">User Story 003 - Sequence Diagram (SD)</text><rect fill="#FFFFFF" height="413.0742" style="stroke:#181818;stroke-width:1.0;" width="10" x="84.5" y="133.2422"/><rect fill="#FFFFFF" height="413.0742" style="stroke:#181818;stroke-width:1.0;" width="10" x="466.5" y="133.2422"/><rect fill="#FFFFFF" height="31.291" style="stroke:#181818;stroke-width:1.0;" width="10" x="773.5" y="311.2793"/><rect fill="#FFFFFF" height="31.291" style="stroke:#181818;stroke-width:1.0;" width="10" x="773.5" y="373.8613"/><rect fill="#FFFFFF" height="71.582" style="stroke:#181818;stroke-width:1.0;" width="10" x="773.5" y="474.7344"/><rect fill="#FFFFFF" height="132.1641" style="stroke:#181818;stroke-width:1.0;" width="10" x="1069.5" y="342.5703"/><rect fill="none" height="304.2012" style="stroke:#000000;stroke-width:1.5;" width="1148.5" x="10" y="140.2422"/><line style="stroke:#181818;stroke-width:0.5;stroke-dasharray:5.0,5.0;" x1="89" x2="89" y1="123.2422" y2="555.3164"/><line style="stroke:#181818;stroke-width:0.5;stroke-dasharray:5.0,5.0;" x1="471" x2="471" y1="123.2422" y2="555.3164"/><line style="stroke:#181818;stroke-width:0.5;stroke-dasharray:5.0,5.0;" x1="778" x2="778" y1="123.2422" y2="555.3164"/><line style="stroke:#181818;stroke-width:0.5;stroke-dasharray:5.0,5.0;" x1="1074.5" x2="1074.5" y1="123.2422" y2="555.3164"/><text fill="#000000" font-family="sans-serif" font-size="14" lengthAdjust="spacing" textLength="133" x="20" y="119.7285">System Administrator</text><ellipse cx="89.5" cy="53.1211" fill="#E3E3E3" rx="8" ry="8" style="stroke:#181818;stroke-width:0.5;"/><path d="M89.5,61.1211 L89.5,88.1211 M76.5,69.1211 L102.5,69.1211 M89.5,88.1211 L76.5,103.1211 M89.5,88.1211 L102.5,103.1211 " fill="none" style="stroke:#181818;stroke-width:0.5;"/><text fill="#000000" font-family="sans-serif" font-size="14" lengthAdjust="spacing" textLength="133" x="20" y="569.4238">System Administrator</text><ellipse cx="89.5" cy="581.4375" fill="#E3E3E3" rx="8" ry="8" style="stroke:#181818;stroke-width:0.5;"/><path d="M89.5,589.4375 L89.5,616.4375 M76.5,597.4375 L102.5,597.4375 M89.5,616.4375 L76.5,631.4375 M89.5,616.4375 L102.5,631.4375 " fill="none" style="stroke:#181818;stroke-width:0.5;"/><rect fill="#E3E3E3" height="32.6211" rx="2.5" ry="2.5" style="stroke:#181818;stroke-width:0.5;" width="135" x="404" y="89.6211"/><text fill="#000000" font-family="sans-serif" font-size="14" lengthAdjust="spacing" textLength="121" x="411" y="111.7285">:CreateEmployeeUI</text><rect fill="#E3E3E3" height="32.6211" rx="2.5" ry="2.5" style="stroke:#181818;stroke-width:0.5;" width="135" x="404" y="554.3164"/><text fill="#000000" font-family="sans-serif" font-size="14" lengthAdjust="spacing" textLength="121" x="411" y="576.4238">:CreateEmployeeUI</text><rect fill="#E3E3E3" height="32.6211" rx="2.5" ry="2.5" style="stroke:#181818;stroke-width:0.5;" width="185" x="686" y="89.6211"/><text fill="#000000" font-family="sans-serif" font-size="14" lengthAdjust="spacing" textLength="171" x="693" y="111.7285">:CreateEmployeeController</text><rect fill="#E3E3E3" height="32.6211" rx="2.5" ry="2.5" style="stroke:#181818;stroke-width:0.5;" width="185" x="686" y="554.3164"/><text fill="#000000" font-family="sans-serif" font-size="14" lengthAdjust="spacing" textLength="171" x="693" y="576.4238">:CreateEmployeeController</text><rect fill="#E3E3E3" height="32.6211" rx="2.5" ry="2.5" style="stroke:#181818;stroke-width:0.5;" width="148" x="1000.5" y="89.6211"/><text fill="#000000" font-family="sans-serif" font-size="14" lengthAdjust="spacing" textLength="134" x="1007.5" y="111.7285">:EmployeeRepository</text><rect fill="#E3E3E3" height="32.6211" rx="2.5" ry="2.5" style="stroke:#181818;stroke-width:0.5;" width="148" x="1000.5" y="554.3164"/><text fill="#000000" font-family="sans-serif" font-size="14" lengthAdjust="spacing" textLength="134" x="1007.5" y="576.4238">:EmployeeRepository</text><rect fill="#FFFFFF" height="413.0742" style="stroke:#181818;stroke-width:1.0;" width="10" x="84.5" y="133.2422"/><rect fill="#FFFFFF" height="413.0742" style="stroke:#181818;stroke-width:1.0;" width="10" x="466.5" y="133.2422"/><rect fill="#FFFFFF" height="31.291" style="stroke:#181818;stroke-width:1.0;" width="10" x="773.5" y="311.2793"/><rect fill="#FFFFFF" height="31.291" style="stroke:#181818;stroke-width:1.0;" width="10" x="773.5" y="373.8613"/><rect fill="#FFFFFF" height="71.582" style="stroke:#181818;stroke-width:1.0;" width="10" x="773.5" y="474.7344"/><rect fill="#FFFFFF" height="132.1641" style="stroke:#181818;stroke-width:1.0;" width="10" x="1069.5" y="342.5703"/><path d="M10,140.2422 L83,140.2422 L83,149.5332 L73,159.5332 L10,159.5332 L10,140.2422 " fill="#EEEEEE" style="stroke:#000000;stroke-width:1.5;"/><rect fill="none" height="304.2012" style="stroke:#000000;stroke-width:1.5;" width="1148.5" x="10" y="140.2422"/><text fill="#000000" font-family="sans-serif" font-size="13" font-weight="bold" lengthAdjust="spacing" textLength="28" x="25" y="155.2705">loop</text><text fill="#000000" font-family="sans-serif" font-size="11" font-weight="bold" lengthAdjust="spacing" textLength="43" x="98" y="154.1123">[invalid]</text><polygon fill="#181818" points="454.5,196.1152,464.5,200.1152,454.5,204.1152,458.5,200.1152" style="stroke:#181818;stroke-width:1.0;"/><line style="stroke:#181818;stroke-width:1.0;" x1="94.5" x2="460.5" y1="200.1152" y2="200.1152"/><text fill="#000000" font-family="sans-serif" font-size="13" font-weight="bold" lengthAdjust="spacing" textLength="7" x="101.5" y="186.207">1</text><text fill="#000000" font-family="sans-serif" font-size="13" lengthAdjust="spacing" textLength="333" x="112.5" y="177.5615">types requested data (role, name, ccNumber, taxNumber,</text><text fill="#000000" font-family="sans-serif" font-size="13" lengthAdjust="spacing" textLength="177" x="112.5" y="194.8525">address, email, phoneNumber)</text><polygon fill="#181818" points="105.5,227.4063,95.5,231.4063,105.5,235.4063,101.5,231.4063" style="stroke:#181818;stroke-width:1.0;"/><line style="stroke:#181818;stroke-width:1.0;stroke-dasharray:2.0,2.0;" x1="99.5" x2="465.5" y1="231.4063" y2="231.4063"/><text fill="#000000" font-family="sans-serif" font-size="13" font-weight="bold" lengthAdjust="spacing" textLength="7" x="111.5" y="226.1436">2</text><text fill="#000000" font-family="sans-serif" font-size="13" lengthAdjust="spacing" textLength="127" x="122.5" y="226.1436">shows requested data</text><polygon fill="#181818" points="454.5,258.6973,464.5,262.6973,454.5,266.6973,458.5,262.6973" style="stroke:#181818;stroke-width:1.0;"/><line style="stroke:#181818;stroke-width:1.0;" x1="94.5" x2="460.5" y1="262.6973" y2="262.6973"/><text fill="#000000" font-family="sans-serif" font-size="13" font-weight="bold" lengthAdjust="spacing" textLength="7" x="101.5" y="257.4346">3</text><text fill="#000000" font-family="sans-serif" font-size="13" lengthAdjust="spacing" textLength="75" x="112.5" y="257.4346">submits data</text><polygon fill="#181818" points="761.5,307.2793,771.5,311.2793,761.5,315.2793,765.5,311.2793" style="stroke:#181818;stroke-width:1.0;"/><line style="stroke:#181818;stroke-width:1.0;" x1="476.5" x2="767.5" y1="311.2793" y2="311.2793"/><text fill="#000000" font-family="sans-serif" font-size="13" font-weight="bold" lengthAdjust="spacing" textLength="7" x="483.5" y="297.3711">4</text><text fill="#000000" font-family="sans-serif" font-size="13" lengthAdjust="spacing" textLength="263" x="494.5" y="288.7256">verifyData(role, name, ccNumber, taxNumber,</text><text fill="#000000" font-family="sans-serif" font-size="13" lengthAdjust="spacing" textLength="177" x="494.5" y="306.0166">address, email, phoneNumber)</text><polygon fill="#181818" points="1057.5,338.5703,1067.5,342.5703,1057.5,346.5703,1061.5,342.5703" style="stroke:#181818;stroke-width:1.0;"/><line style="stroke:#181818;stroke-width:1.0;" x1="778.5" x2="1063.5" y1="342.5703" y2="342.5703"/><text fill="#000000" font-family="sans-serif" font-size="13" font-weight="bold" lengthAdjust="spacing" textLength="7" x="785.5" y="337.3076">5</text><text fill="#000000" font-family="sans-serif" font-size="13" lengthAdjust="spacing" textLength="256" x="796.5" y="337.3076">verifyIfNewEmployee(ccNumber, taxNumber)</text><polygon fill="#181818" points="794.5,369.8613,784.5,373.8613,794.5,377.8613,790.5,373.8613" style="stroke:#181818;stroke-width:1.0;"/><line style="stroke:#181818;stroke-width:1.0;stroke-dasharray:2.0,2.0;" x1="788.5" x2="1068.5" y1="373.8613" y2="373.8613"/><text fill="#000000" font-family="sans-serif" font-size="13" font-weight="bold" lengthAdjust="spacing" textLength="7" x="800.5" y="368.5986">6</text><text fill="#000000" font-family="sans-serif" font-size="13" lengthAdjust="spacing" textLength="133" x="811.5" y="368.5986">operation unsuccessful</text><polygon fill="#181818" points="487.5,401.1523,477.5,405.1523,487.5,409.1523,483.5,405.1523" style="stroke:#181818;stroke-width:1.0;"/><line style="stroke:#181818;stroke-width:1.0;stroke-dasharray:2.0,2.0;" x1="481.5" x2="777.5" y1="405.1523" y2="405.1523"/><text fill="#000000" font-family="sans-serif" font-size="13" font-weight="bold" lengthAdjust="spacing" textLength="7" x="493.5" y="399.8896">7</text><text fill="#000000" font-family="sans-serif" font-size="13" lengthAdjust="spacing" textLength="133" x="504.5" y="399.8896">operation unsuccessful</text><polygon fill="#181818" points="105.5,432.4434,95.5,436.4434,105.5,440.4434,101.5,436.4434" style="stroke:#181818;stroke-width:1.0;"/><line style="stroke:#181818;stroke-width:1.0;stroke-dasharray:2.0,2.0;" x1="99.5" x2="465.5" y1="436.4434" y2="436.4434"/><text fill="#000000" font-family="sans-serif" font-size="13" font-weight="bold" lengthAdjust="spacing" textLength="7" x="111.5" y="431.1807">8</text><text fill="#000000" font-family="sans-serif" font-size="13" lengthAdjust="spacing" textLength="187" x="122.5" y="431.1807">operation unsuccessful,try again</text><polygon fill="#181818" points="794.5,470.7344,784.5,474.7344,794.5,478.7344,790.5,474.7344" style="stroke:#181818;stroke-width:1.0;"/><line style="stroke:#181818;stroke-width:1.0;stroke-dasharray:2.0,2.0;" x1="788.5" x2="1073.5" y1="474.7344" y2="474.7344"/><text fill="#000000" font-family="sans-serif" font-size="13" font-weight="bold" lengthAdjust="spacing" textLength="7" x="800.5" y="469.4717">9</text><text fill="#000000" font-family="sans-serif" font-size="13" lengthAdjust="spacing" textLength="119" x="811.5" y="469.4717">operation successful</text><polygon fill="#181818" points="487.5,502.0254,477.5,506.0254,487.5,510.0254,483.5,506.0254" style="stroke:#181818;stroke-width:1.0;"/><line style="stroke:#181818;stroke-width:1.0;stroke-dasharray:2.0,2.0;" x1="481.5" x2="772.5" y1="506.0254" y2="506.0254"/><text fill="#000000" font-family="sans-serif" font-size="13" font-weight="bold" lengthAdjust="spacing" textLength="14" x="493.5" y="500.7627">10</text><text fill="#000000" font-family="sans-serif" font-size="13" lengthAdjust="spacing" textLength="119" x="511.5" y="500.7627">operation successful</text><polygon fill="#181818" points="105.5,533.3164,95.5,537.3164,105.5,541.3164,101.5,537.3164" style="stroke:#181818;stroke-width:1.0;"/><line style="stroke:#181818;stroke-width:1.0;stroke-dasharray:2.0,2.0;" x1="99.5" x2="465.5" y1="537.3164" y2="537.3164"/><text fill="#000000" font-family="sans-serif" font-size="13" font-weight="bold" lengthAdjust="spacing" textLength="14" x="111.5" y="532.0537">11</text><text fill="#000000" font-family="sans-serif" font-size="13" lengthAdjust="spacing" textLength="119" x="129.5" y="532.0537">operation successful</text><!--SRC=[fL9DR-em4BpxLwmuyQGWLUgDGwKAUa1gEP1oUvUjimIh_ggzWPT__vQaG4IXgjHBP6V7CxEpcz-DZvZGWGi-w6qAZe1JGogVAX7rEzPKSci94cb6NziX86-n2dlZQzYWpQGK6nReEbE2aaDguUxk7YPGqaT3NXFC3TQ7X-Do_aSfR3ZunhrHahCMF8pADZCvUAoSyIPpGlax0ipmE7zH8if6cuYUOJIT9KAc9nTjQ8dMYmusMxsk5zy2Py5p2jPIppjRlgwUBnuSeIkA8Pj37ntqVEticfsmThxEjrvUsH0Y6Bz3Qogb10AJXxu6K-0sKfOu9HBfjO8A6M4ibgW0Zqw-MY-xL0fW_7Sy_lLOLOboBe0S6bj0t0PFVLd2xEad8dJGcyfimlvIvekNtBmvm_cp-4dnq8SYvHqbisddKlozltD6NUAgrn2nSwmdnSLcIVlZ5CPNv8Ileal6qtqug07xPD1PY2IxPOA7nkT6Q_6zQUnDbuF8RhtywkSqaNuWrnyMBCwmHkEL8Y_RyWFBDsIlxkSF-XZINMxHLTH_]--></g></svg>