<?xml version="1.0" encoding="us-ascii" standalone="no"?><svg xmlns="http://www.w3.org/2000/svg" xmlns:xlink="http://www.w3.org/1999/xlink" contentStyleType="text/css" height="583.5px" preserveAspectRatio="none" style="width:397px;height:583px;background:#FFFFFF;" version="1.1" viewBox="0 0 397 583" width="397px" zoomAndPan="magnify"><defs/><g><text fill="#000000" font-family="sans-serif" font-size="7" font-weight="bold" lengthAdjust="spacing" textLength="158" x="116.125" y="12.5537">US019 Getting Close Subsets - Class Diagram</text><!--class NetworkManager--><g id="elem_NetworkManager"><rect codeLine="7" fill="#F1F1F1" height="61.2422" id="NetworkManager" rx="1.25" ry="1.25" style="stroke:#181818;stroke-width:0.25;" width="69" x="3.5" y="23.3105"/><ellipse cx="11" cy="31.3105" fill="#ADD1B2" rx="5.5" ry="5.5" style="stroke:#181818;stroke-width:0.5;"/><path d="M12.3828,29.248 Q12.4609,29.1387 12.5547,29.084 Q12.6484,29.0293 12.7578,29.0293 Q12.9453,29.0293 13.0625,29.1621 Q13.1797,29.2871 13.1797,29.5918 L13.1797,30.3184 Q13.1797,30.623 13.0625,30.7559 Q12.9453,30.8887 12.7578,30.8887 Q12.5859,30.8887 12.4844,30.7871 Q12.3828,30.6934 12.3281,30.4355 Q12.3047,30.2559 12.2109,30.1621 Q12.0469,29.9746 11.7422,29.8652 Q11.4375,29.7559 11.125,29.7559 Q10.7422,29.7559 10.4219,29.9199 Q10.1094,30.084 9.8594,30.459 Q9.6172,30.834 9.6172,31.3496 L9.6172,31.8965 Q9.6172,32.5137 10.0625,32.9277 Q10.5078,33.334 11.3047,33.334 Q11.7734,33.334 12.1016,33.209 Q12.2969,33.1309 12.5078,32.9121 Q12.6406,32.7793 12.7109,32.7402 Q12.7891,32.7012 12.8906,32.7012 Q13.0547,32.7012 13.1797,32.834 Q13.3125,32.959 13.3125,33.1309 Q13.3125,33.3027 13.1406,33.5059 Q12.8906,33.7949 12.4922,33.959 Q11.9531,34.1855 11.3047,34.1855 Q10.5469,34.1855 9.9453,33.873 Q9.4531,33.623 9.1094,33.0918 Q8.7656,32.5527 8.7656,31.9121 L8.7656,31.334 Q8.7656,30.6699 9.0703,30.0996 Q9.3828,29.5215 9.9297,29.2168 Q10.4766,28.9043 11.0938,28.9043 Q11.4609,28.9043 11.7813,28.9902 Q12.1094,29.0684 12.3828,29.248 Z " fill="#000000"/><text fill="#000000" font-family="sans-serif" font-size="7" lengthAdjust="spacing" textLength="53" x="18" y="34.209">NetworkManager</text><line style="stroke:#181818;stroke-width:0.25;" x1="4" x2="72" y1="39.3105" y2="39.3105"/><text fill="#000000" font-family="sans-serif" font-size="7" lengthAdjust="spacing" textLength="35" x="6.5" y="48.8643">-String role</text><text fill="#000000" font-family="sans-serif" font-size="7" lengthAdjust="spacing" textLength="40.5" x="6.5" y="58.1748">-String name</text><text fill="#000000" font-family="sans-serif" font-size="7" lengthAdjust="spacing" textLength="39.5" x="6.5" y="67.4854">-String email</text><text fill="#000000" font-family="sans-serif" font-size="7" lengthAdjust="spacing" textLength="53" x="6.5" y="76.7959">-String password</text><line style="stroke:#181818;stroke-width:0.25;" x1="4" x2="72" y1="80.5527" y2="80.5527"/></g><!--class Property--><g id="elem_Property"><rect codeLine="14" fill="#F1F1F1" height="117.1055" id="Property" rx="1.25" ry="1.25" style="stroke:#181818;stroke-width:0.25;" width="100.5" x="215.75" y="463.3105"/><ellipse cx="250.375" cy="471.3105" fill="#B4A7E5" rx="5.5" ry="5.5" style="stroke:#181818;stroke-width:0.5;"/><path d="M250.8516,469.6309 L250.8516,472.959 L251.7109,472.959 Q252.0156,472.959 252.1484,473.0762 Q252.2813,473.1934 252.2813,473.3887 Q252.2813,473.5762 252.1484,473.6934 Q252.0156,473.8105 251.7109,473.8105 L249.1406,473.8105 Q248.8359,473.8105 248.7031,473.6934 Q248.5703,473.5762 248.5703,473.3809 Q248.5703,473.1934 248.7031,473.0762 Q248.8359,472.959 249.1406,472.959 L250,472.959 L250,469.6309 L249.1406,469.6309 Q248.8359,469.6309 248.7031,469.5137 Q248.5703,469.3965 248.5703,469.2012 Q248.5703,469.0137 248.7031,468.8965 Q248.8359,468.7793 249.1406,468.7793 L251.7109,468.7793 Q252.0156,468.7793 252.1484,468.8965 Q252.2813,469.0137 252.2813,469.2012 Q252.2813,469.3965 252.1484,469.5137 Q252.0156,469.6309 251.7109,469.6309 L250.8516,469.6309 Z " fill="#000000"/><text fill="#000000" font-family="sans-serif" font-size="7" font-style="italic" lengthAdjust="spacing" textLength="27" x="260.625" y="474.209">Property</text><line style="stroke:#181818;stroke-width:0.25;" x1="216.25" x2="315.75" y1="479.3105" y2="479.3105"/><text fill="#000000" font-family="sans-serif" font-size="7" lengthAdjust="spacing" textLength="32.5" x="218.75" y="488.8643">-float area</text><text fill="#000000" font-family="sans-serif" font-size="7" lengthAdjust="spacing" textLength="47.5" x="218.75" y="498.1748">-String location</text><text fill="#000000" font-family="sans-serif" font-size="7" lengthAdjust="spacing" textLength="94.5" x="218.75" y="507.4854">-float distanceFromCityCentre</text><text fill="#000000" font-family="sans-serif" font-size="7" lengthAdjust="spacing" textLength="41" x="218.75" y="516.7959">-Agent agent</text><text fill="#000000" font-family="sans-serif" font-size="7" lengthAdjust="spacing" textLength="60" x="218.75" y="526.1064">-File[] photographs</text><text fill="#000000" font-family="sans-serif" font-size="7" lengthAdjust="spacing" textLength="47" x="218.75" y="535.417">-float finalPrice</text><text fill="#000000" font-family="sans-serif" font-size="7" lengthAdjust="spacing" textLength="85" x="218.75" y="544.7275">-String announcementDate</text><text fill="#000000" font-family="sans-serif" font-size="7" lengthAdjust="spacing" textLength="51" x="218.75" y="554.0381">-String saleDate</text><text fill="#000000" font-family="sans-serif" font-size="7" lengthAdjust="spacing" textLength="55" x="218.75" y="563.3486">-Request request</text><text fill="#000000" font-family="sans-serif" font-size="7" lengthAdjust="spacing" textLength="37.5" x="218.75" y="572.6592">-Store store</text><line style="stroke:#181818;stroke-width:0.25;" x1="216.25" x2="315.75" y1="576.416" y2="576.416"/></g><!--class Store--><g id="elem_Store"><rect codeLine="27" fill="#F1F1F1" height="107.7949" id="Store" rx="1.25" ry="1.25" style="stroke:#181818;stroke-width:0.25;" width="88.5" x="221.75" y="315.8105"/><ellipse cx="255.375" cy="323.8105" fill="#ADD1B2" rx="5.5" ry="5.5" style="stroke:#181818;stroke-width:0.5;"/><path d="M256.7578,321.748 Q256.8359,321.6387 256.9297,321.584 Q257.0234,321.5293 257.1328,321.5293 Q257.3203,321.5293 257.4375,321.6621 Q257.5547,321.7871 257.5547,322.0918 L257.5547,322.8184 Q257.5547,323.123 257.4375,323.2559 Q257.3203,323.3887 257.1328,323.3887 Q256.9609,323.3887 256.8594,323.2871 Q256.7578,323.1934 256.7031,322.9355 Q256.6797,322.7559 256.5859,322.6621 Q256.4219,322.4746 256.1172,322.3652 Q255.8125,322.2559 255.5,322.2559 Q255.1172,322.2559 254.7969,322.4199 Q254.4844,322.584 254.2344,322.959 Q253.9922,323.334 253.9922,323.8496 L253.9922,324.3965 Q253.9922,325.0137 254.4375,325.4277 Q254.8828,325.834 255.6797,325.834 Q256.1484,325.834 256.4766,325.709 Q256.6719,325.6309 256.8828,325.4121 Q257.0156,325.2793 257.0859,325.2402 Q257.1641,325.2012 257.2656,325.2012 Q257.4297,325.2012 257.5547,325.334 Q257.6875,325.459 257.6875,325.6309 Q257.6875,325.8027 257.5156,326.0059 Q257.2656,326.2949 256.8672,326.459 Q256.3281,326.6855 255.6797,326.6855 Q254.9219,326.6855 254.3203,326.373 Q253.8281,326.123 253.4844,325.5918 Q253.1406,325.0527 253.1406,324.4121 L253.1406,323.834 Q253.1406,323.1699 253.4453,322.5996 Q253.7578,322.0215 254.3047,321.7168 Q254.8516,321.4043 255.4688,321.4043 Q255.8359,321.4043 256.1563,321.4902 Q256.4844,321.5684 256.7578,321.748 Z " fill="#000000"/><text fill="#000000" font-family="sans-serif" font-size="7" lengthAdjust="spacing" textLength="17" x="265.625" y="326.709">Store</text><line style="stroke:#181818;stroke-width:0.25;" x1="222.25" x2="309.75" y1="331.8105" y2="331.8105"/><text fill="#000000" font-family="sans-serif" font-size="7" lengthAdjust="spacing" textLength="48.5" x="224.75" y="341.3643">-String address</text><text fill="#000000" font-family="sans-serif" font-size="7" lengthAdjust="spacing" textLength="65.5" x="224.75" y="350.6748">-String emailAddress</text><text fill="#000000" font-family="sans-serif" font-size="7" lengthAdjust="spacing" textLength="40.5" x="224.75" y="359.9854">-String name</text><text fill="#000000" font-family="sans-serif" font-size="7" lengthAdjust="spacing" textLength="39.5" x="224.75" y="369.2959">-String email</text><text fill="#000000" font-family="sans-serif" font-size="7" lengthAdjust="spacing" textLength="67.5" x="224.75" y="378.6064">-String phoneNumber</text><text fill="#000000" font-family="sans-serif" font-size="7" lengthAdjust="spacing" textLength="18.5" x="224.75" y="387.917">-int ID</text><text fill="#000000" font-family="sans-serif" font-size="7" lengthAdjust="spacing" textLength="82.5" x="224.75" y="397.2275">-List&lt;Property&gt; properties</text><line style="stroke:#181818;stroke-width:0.25;" x1="222.25" x2="309.75" y1="400.9844" y2="400.9844"/><text fill="#000000" font-family="sans-serif" font-size="7" lengthAdjust="spacing" textLength="25.5" x="224.75" y="410.5381">+getID()</text><text fill="#000000" font-family="sans-serif" font-size="7" lengthAdjust="spacing" textLength="57" x="224.75" y="419.8486">+getPropertyList()</text></g><!--class StoreRepository--><g id="elem_StoreRepository"><rect codeLine="40" fill="#F1F1F1" height="33.3105" id="StoreRepository" rx="1.25" ry="1.25" style="stroke:#181818;stroke-width:0.25;" width="76" x="191.5" y="229.0605"/><ellipse cx="203.05" cy="237.0605" fill="#ADD1B2" rx="5.5" ry="5.5" style="stroke:#181818;stroke-width:0.5;"/><path d="M204.4328,234.998 Q204.5109,234.8887 204.6047,234.834 Q204.6984,234.7793 204.8078,234.7793 Q204.9953,234.7793 205.1125,234.9121 Q205.2297,235.0371 205.2297,235.3418 L205.2297,236.0684 Q205.2297,236.373 205.1125,236.5059 Q204.9953,236.6387 204.8078,236.6387 Q204.6359,236.6387 204.5344,236.5371 Q204.4328,236.4434 204.3781,236.1855 Q204.3547,236.0059 204.2609,235.9121 Q204.0969,235.7246 203.7922,235.6152 Q203.4875,235.5059 203.175,235.5059 Q202.7922,235.5059 202.4719,235.6699 Q202.1594,235.834 201.9094,236.209 Q201.6672,236.584 201.6672,237.0996 L201.6672,237.6465 Q201.6672,238.2637 202.1125,238.6777 Q202.5578,239.084 203.3547,239.084 Q203.8234,239.084 204.1516,238.959 Q204.3469,238.8809 204.5578,238.6621 Q204.6906,238.5293 204.7609,238.4902 Q204.8391,238.4512 204.9406,238.4512 Q205.1047,238.4512 205.2297,238.584 Q205.3625,238.709 205.3625,238.8809 Q205.3625,239.0527 205.1906,239.2559 Q204.9406,239.5449 204.5422,239.709 Q204.0031,239.9355 203.3547,239.9355 Q202.5969,239.9355 201.9953,239.623 Q201.5031,239.373 201.1594,238.8418 Q200.8156,238.3027 200.8156,237.6621 L200.8156,237.084 Q200.8156,236.4199 201.1203,235.8496 Q201.4328,235.2715 201.9797,234.9668 Q202.5266,234.6543 203.1438,234.6543 Q203.5109,234.6543 203.8313,234.7402 Q204.1594,234.8184 204.4328,234.998 Z " fill="#000000"/><text fill="#000000" font-family="sans-serif" font-size="7" lengthAdjust="spacing" textLength="51" x="210.95" y="239.959">StoreRepository</text><line style="stroke:#181818;stroke-width:0.25;" x1="192" x2="267" y1="245.0605" y2="245.0605"/><line style="stroke:#181818;stroke-width:0.25;" x1="192" x2="267" y1="249.0605" y2="249.0605"/><text fill="#000000" font-family="sans-serif" font-size="7" lengthAdjust="spacing" textLength="70" x="194.5" y="258.6143">+getStoreRepository()</text></g><!--class Repositories--><g id="elem_Repositories"><rect codeLine="45" fill="#F1F1F1" height="51.9316" id="Repositories" rx="1.25" ry="1.25" style="stroke:#181818;stroke-width:0.25;" width="76.5" x="317.25" y="123.8105"/><ellipse cx="334.2" cy="131.8105" fill="#ADD1B2" rx="5.5" ry="5.5" style="stroke:#181818;stroke-width:0.5;"/><path d="M335.5828,129.748 Q335.6609,129.6387 335.7547,129.584 Q335.8484,129.5293 335.9578,129.5293 Q336.1453,129.5293 336.2625,129.6621 Q336.3797,129.7871 336.3797,130.0918 L336.3797,130.8184 Q336.3797,131.123 336.2625,131.2559 Q336.1453,131.3887 335.9578,131.3887 Q335.7859,131.3887 335.6844,131.2871 Q335.5828,131.1934 335.5281,130.9355 Q335.5047,130.7559 335.4109,130.6621 Q335.2469,130.4746 334.9422,130.3652 Q334.6375,130.2559 334.325,130.2559 Q333.9422,130.2559 333.6219,130.4199 Q333.3094,130.584 333.0594,130.959 Q332.8172,131.334 332.8172,131.8496 L332.8172,132.3965 Q332.8172,133.0137 333.2625,133.4277 Q333.7078,133.834 334.5047,133.834 Q334.9734,133.834 335.3016,133.709 Q335.4969,133.6309 335.7078,133.4121 Q335.8406,133.2793 335.9109,133.2402 Q335.9891,133.2012 336.0906,133.2012 Q336.2547,133.2012 336.3797,133.334 Q336.5125,133.459 336.5125,133.6309 Q336.5125,133.8027 336.3406,134.0059 Q336.0906,134.2949 335.6922,134.459 Q335.1531,134.6855 334.5047,134.6855 Q333.7469,134.6855 333.1453,134.373 Q332.6531,134.123 332.3094,133.5918 Q331.9656,133.0527 331.9656,132.4121 L331.9656,131.834 Q331.9656,131.1699 332.2703,130.5996 Q332.5828,130.0215 333.1297,129.7168 Q333.6766,129.4043 334.2938,129.4043 Q334.6609,129.4043 334.9813,129.4902 Q335.3094,129.5684 335.5828,129.748 Z " fill="#000000"/><text fill="#000000" font-family="sans-serif" font-size="7" lengthAdjust="spacing" textLength="39.5" x="343.3" y="134.709">Repositories</text><line style="stroke:#181818;stroke-width:0.25;" x1="317.75" x2="393.25" y1="139.8105" y2="139.8105"/><text fill="#000000" font-family="sans-serif" font-size="7" lengthAdjust="spacing" textLength="70.5" x="320.25" y="149.3643">-Repositories instance</text><line style="stroke:#181818;stroke-width:0.25;" x1="317.75" x2="393.25" y1="153.1211" y2="153.1211"/><text fill="#000000" font-family="sans-serif" font-size="7" lengthAdjust="spacing" textLength="45.5" x="320.25" y="162.6748">+getInstance()</text><text fill="#000000" font-family="sans-serif" font-size="7" lengthAdjust="spacing" textLength="70" x="320.25" y="171.9854">+getStoreRepository()</text></g><!--class Tuple--><g id="elem_Tuple"><rect codeLine="52" fill="#F1F1F1" height="61.2422" id="Tuple" rx="1.25" ry="1.25" style="stroke:#181818;stroke-width:0.25;" width="89.5" x="84.25" y="215.3105"/><ellipse cx="117.875" cy="223.3105" fill="#ADD1B2" rx="5.5" ry="5.5" style="stroke:#181818;stroke-width:0.5;"/><path d="M119.2578,221.248 Q119.3359,221.1387 119.4297,221.084 Q119.5234,221.0293 119.6328,221.0293 Q119.8203,221.0293 119.9375,221.1621 Q120.0547,221.2871 120.0547,221.5918 L120.0547,222.3184 Q120.0547,222.623 119.9375,222.7559 Q119.8203,222.8887 119.6328,222.8887 Q119.4609,222.8887 119.3594,222.7871 Q119.2578,222.6934 119.2031,222.4355 Q119.1797,222.2559 119.0859,222.1621 Q118.9219,221.9746 118.6172,221.8652 Q118.3125,221.7559 118,221.7559 Q117.6172,221.7559 117.2969,221.9199 Q116.9844,222.084 116.7344,222.459 Q116.4922,222.834 116.4922,223.3496 L116.4922,223.8965 Q116.4922,224.5137 116.9375,224.9277 Q117.3828,225.334 118.1797,225.334 Q118.6484,225.334 118.9766,225.209 Q119.1719,225.1309 119.3828,224.9121 Q119.5156,224.7793 119.5859,224.7402 Q119.6641,224.7012 119.7656,224.7012 Q119.9297,224.7012 120.0547,224.834 Q120.1875,224.959 120.1875,225.1309 Q120.1875,225.3027 120.0156,225.5059 Q119.7656,225.7949 119.3672,225.959 Q118.8281,226.1855 118.1797,226.1855 Q117.4219,226.1855 116.8203,225.873 Q116.3281,225.623 115.9844,225.0918 Q115.6406,224.5527 115.6406,223.9121 L115.6406,223.334 Q115.6406,222.6699 115.9453,222.0996 Q116.2578,221.5215 116.8047,221.2168 Q117.3516,220.9043 117.9688,220.9043 Q118.3359,220.9043 118.6563,220.9902 Q118.9844,221.0684 119.2578,221.248 Z " fill="#000000"/><text fill="#000000" font-family="sans-serif" font-size="7" lengthAdjust="spacing" textLength="18" x="128.125" y="226.209">Tuple</text><line style="stroke:#181818;stroke-width:0.25;" x1="84.75" x2="173.25" y1="231.3105" y2="231.3105"/><text fill="#000000" font-family="sans-serif" font-size="7" lengthAdjust="spacing" textLength="34.5" x="87.25" y="240.8643">-int storeID</text><text fill="#000000" font-family="sans-serif" font-size="7" lengthAdjust="spacing" textLength="76" x="87.25" y="250.1748">-int numberOfProperties</text><line style="stroke:#181818;stroke-width:0.25;" x1="84.75" x2="173.25" y1="253.9316" y2="253.9316"/><text fill="#000000" font-family="sans-serif" font-size="7" lengthAdjust="spacing" textLength="25.5" x="87.25" y="263.4854">+getID()</text><text fill="#000000" font-family="sans-serif" font-size="7" lengthAdjust="spacing" textLength="83.5" x="87.25" y="272.7959">+getNumberOfProperties()</text></g><!--class CreateSubsetsOfStoresUI--><g id="elem_CreateSubsetsOfStoresUI"><rect codeLine="60" fill="#F1F1F1" height="42.6211" id="CreateSubsetsOfStoresUI" rx="1.25" ry="1.25" style="stroke:#181818;stroke-width:0.25;" width="126" x="129.5" y="32.5605"/><ellipse cx="150.05" cy="40.5605" fill="#ADD1B2" rx="5.5" ry="5.5" style="stroke:#181818;stroke-width:0.5;"/><path d="M151.4328,38.498 Q151.5109,38.3887 151.6047,38.334 Q151.6984,38.2793 151.8078,38.2793 Q151.9953,38.2793 152.1125,38.4121 Q152.2297,38.5371 152.2297,38.8418 L152.2297,39.5684 Q152.2297,39.873 152.1125,40.0059 Q151.9953,40.1387 151.8078,40.1387 Q151.6359,40.1387 151.5344,40.0371 Q151.4328,39.9434 151.3781,39.6855 Q151.3547,39.5059 151.2609,39.4121 Q151.0969,39.2246 150.7922,39.1152 Q150.4875,39.0059 150.175,39.0059 Q149.7922,39.0059 149.4719,39.1699 Q149.1594,39.334 148.9094,39.709 Q148.6672,40.084 148.6672,40.5996 L148.6672,41.1465 Q148.6672,41.7637 149.1125,42.1777 Q149.5578,42.584 150.3547,42.584 Q150.8234,42.584 151.1516,42.459 Q151.3469,42.3809 151.5578,42.1621 Q151.6906,42.0293 151.7609,41.9902 Q151.8391,41.9512 151.9406,41.9512 Q152.1047,41.9512 152.2297,42.084 Q152.3625,42.209 152.3625,42.3809 Q152.3625,42.5527 152.1906,42.7559 Q151.9406,43.0449 151.5422,43.209 Q151.0031,43.4355 150.3547,43.4355 Q149.5969,43.4355 148.9953,43.123 Q148.5031,42.873 148.1594,42.3418 Q147.8156,41.8027 147.8156,41.1621 L147.8156,40.584 Q147.8156,39.9199 148.1203,39.3496 Q148.4328,38.7715 148.9797,38.4668 Q149.5266,38.1543 150.1438,38.1543 Q150.5109,38.1543 150.8313,38.2402 Q151.1594,38.3184 151.4328,38.498 Z " fill="#000000"/><text fill="#000000" font-family="sans-serif" font-size="7" lengthAdjust="spacing" textLength="81" x="159.95" y="43.459">CreateSubsetsOfStoresUI</text><line style="stroke:#181818;stroke-width:0.25;" x1="130" x2="255" y1="48.5605" y2="48.5605"/><text fill="#000000" font-family="sans-serif" font-size="7" lengthAdjust="spacing" textLength="120" x="132.5" y="58.1143">-CreateSubsetsOfStoresController ctrl</text><line style="stroke:#181818;stroke-width:0.25;" x1="130" x2="255" y1="61.8711" y2="61.8711"/><text fill="#000000" font-family="sans-serif" font-size="7" lengthAdjust="spacing" textLength="19.5" x="132.5" y="71.4248">+run()</text></g><!--class CreateSubsetsOfStoresController--><g id="elem_CreateSubsetsOfStoresController"><rect codeLine="66" fill="#F1F1F1" height="42.6211" id="CreateSubsetsOfStoresController" rx="1.25" ry="1.25" style="stroke:#181818;stroke-width:0.25;" width="122" x="131" y="128.5605"/><ellipse cx="138.5" cy="136.5605" fill="#ADD1B2" rx="5.5" ry="5.5" style="stroke:#181818;stroke-width:0.5;"/><path d="M139.8828,134.498 Q139.9609,134.3887 140.0547,134.334 Q140.1484,134.2793 140.2578,134.2793 Q140.4453,134.2793 140.5625,134.4121 Q140.6797,134.5371 140.6797,134.8418 L140.6797,135.5684 Q140.6797,135.873 140.5625,136.0059 Q140.4453,136.1387 140.2578,136.1387 Q140.0859,136.1387 139.9844,136.0371 Q139.8828,135.9434 139.8281,135.6855 Q139.8047,135.5059 139.7109,135.4121 Q139.5469,135.2246 139.2422,135.1152 Q138.9375,135.0059 138.625,135.0059 Q138.2422,135.0059 137.9219,135.1699 Q137.6094,135.334 137.3594,135.709 Q137.1172,136.084 137.1172,136.5996 L137.1172,137.1465 Q137.1172,137.7637 137.5625,138.1777 Q138.0078,138.584 138.8047,138.584 Q139.2734,138.584 139.6016,138.459 Q139.7969,138.3809 140.0078,138.1621 Q140.1406,138.0293 140.2109,137.9902 Q140.2891,137.9512 140.3906,137.9512 Q140.5547,137.9512 140.6797,138.084 Q140.8125,138.209 140.8125,138.3809 Q140.8125,138.5527 140.6406,138.7559 Q140.3906,139.0449 139.9922,139.209 Q139.4531,139.4355 138.8047,139.4355 Q138.0469,139.4355 137.4453,139.123 Q136.9531,138.873 136.6094,138.3418 Q136.2656,137.8027 136.2656,137.1621 L136.2656,136.584 Q136.2656,135.9199 136.5703,135.3496 Q136.8828,134.7715 137.4297,134.4668 Q137.9766,134.1543 138.5938,134.1543 Q138.9609,134.1543 139.2813,134.2402 Q139.6094,134.3184 139.8828,134.498 Z " fill="#000000"/><text fill="#000000" font-family="sans-serif" font-size="7" lengthAdjust="spacing" textLength="106" x="145.5" y="139.459">CreateSubsetsOfStoresController</text><line style="stroke:#181818;stroke-width:0.25;" x1="131.5" x2="252.5" y1="144.5605" y2="144.5605"/><line style="stroke:#181818;stroke-width:0.25;" x1="131.5" x2="252.5" y1="148.5605" y2="148.5605"/><text fill="#000000" font-family="sans-serif" font-size="7" lengthAdjust="spacing" textLength="86.5" x="134" y="158.1143">+generatePartitions(stores)</text><text fill="#000000" font-family="sans-serif" font-size="7" lengthAdjust="spacing" textLength="86.5" x="134" y="167.4248">+getTotalProperties(tuples)</text></g><!--link Store to Property--><g id="link_Store_Property"><path codeLine="72" d="M266,423.9705 C266,435.8455 266,448.5005 266,460.6305 " fill="none" id="Store-to-Property" style="stroke:#181818;stroke-width:0.5;"/><polygon fill="#181818" points="266,463.2105,268,458.7105,266,460.7105,264,458.7105,266,463.2105" style="stroke:#181818;stroke-width:0.5;"/><text fill="#000000" font-family="sans-serif" font-size="6.5" lengthAdjust="spacing" textLength="59" x="266.5" y="446.3247">has some number of</text></g><!--link NetworkManager to CreateSubsetsOfStoresUI--><g id="link_NetworkManager_CreateSubsetsOfStoresUI"><path codeLine="75" d="M72.675,53.8105 C88.68,53.8105 108.235,53.8105 126.865,53.8105 " fill="none" id="NetworkManager-to-CreateSubsetsOfStoresUI" style="stroke:#181818;stroke-width:0.5;"/><polygon fill="#181818" points="129.37,53.8105,124.87,51.8105,126.87,53.8105,124.87,55.8105,129.37,53.8105" style="stroke:#181818;stroke-width:0.5;"/><text fill="#000000" font-family="sans-serif" font-size="6.5" lengthAdjust="spacing" textLength="38.5" x="81.75" y="50.3247">interacts with</text></g><!--link CreateSubsetsOfStoresUI to NetworkManager--><g id="link_CreateSubsetsOfStoresUI_NetworkManager"><path codeLine="82" d="M171.04,75.1055 C157.23,87.2555 138.185,101.3305 118.25,107.8105 C110.96,110.1805 90.705,111.0355 83.75,107.8105 C73.595,103.1055 64.87,94.9055 57.85,86.3005 " fill="none" id="CreateSubsetsOfStoresUI-to-NetworkManager" style="stroke:#181818;stroke-width:0.5;"/><polygon fill="#181818" points="56.285,84.3455,57.5216,89.1122,57.8415,86.3019,60.6518,86.6218,56.285,84.3455" style="stroke:#181818;stroke-width:0.5;"/><text fill="#000000" font-family="sans-serif" font-size="6.5" lengthAdjust="spacing" textLength="30" x="86" y="62.8247">subsets of</text><text fill="#000000" font-family="sans-serif" font-size="6.5" lengthAdjust="spacing" textLength="33.5" x="84.25" y="71.4702">stores, with</text><text fill="#000000" font-family="sans-serif" font-size="6.5" lengthAdjust="spacing" textLength="32" x="85" y="80.1157">the closest</text><text fill="#000000" font-family="sans-serif" font-size="6.5" lengthAdjust="spacing" textLength="28.5" x="86.75" y="88.7612">number of</text><text fill="#000000" font-family="sans-serif" font-size="6.5" lengthAdjust="spacing" textLength="23.5" x="89.25" y="97.4067">property</text><text fill="#000000" font-family="sans-serif" font-size="6.5" lengthAdjust="spacing" textLength="20.5" x="90.75" y="106.0522">listings</text></g><!--link CreateSubsetsOfStoresUI to CreateSubsetsOfStoresController--><g id="link_CreateSubsetsOfStoresUI_CreateSubsetsOfStoresController"><path codeLine="76" d="M176.63,75.1655 C170.915,85.1105 166.525,97.3305 169.5,108.8105 C171.035,114.7355 173.65,120.7205 176.56,126.2055 " fill="none" id="CreateSubsetsOfStoresUI-to-CreateSubsetsOfStoresController" style="stroke:#181818;stroke-width:0.5;"/><polygon fill="#181818" points="177.825,128.5205,177.4192,123.6129,176.6249,126.3274,173.9103,125.5331,177.825,128.5205" style="stroke:#181818;stroke-width:0.5;"/><text fill="#000000" font-family="sans-serif" font-size="6.5" lengthAdjust="spacing" textLength="21.5" x="170" y="106.8247">creates</text></g><!--link CreateSubsetsOfStoresController to CreateSubsetsOfStoresUI--><g id="link_CreateSubsetsOfStoresController_CreateSubsetsOfStoresUI"><path codeLine="81" d="M193.225,128.5055 C193.545,122.1855 193.84,115.2155 194,108.8105 C194.25,98.6455 194.025,87.4205 193.685,77.8105 " fill="none" id="CreateSubsetsOfStoresController-to-CreateSubsetsOfStoresUI" style="stroke:#181818;stroke-width:0.5;"/><polygon fill="#181818" points="193.585,75.1405,191.7534,79.7117,193.6778,77.6388,195.7506,79.5632,193.585,75.1405" style="stroke:#181818;stroke-width:0.5;"/><text fill="#000000" font-family="sans-serif" font-size="6.5" lengthAdjust="spacing" textLength="17.5" x="195" y="106.8247">tuples</text></g><!--link CreateSubsetsOfStoresController to Repositories--><g id="link_CreateSubsetsOfStoresController_Repositories"><path codeLine="77" d="M253.115,149.8105 C273.605,149.8105 295.94,149.8105 314.51,149.8105 " fill="none" id="CreateSubsetsOfStoresController-to-Repositories" style="stroke:#181818;stroke-width:0.5;"/><polygon fill="#181818" points="317.225,149.8105,312.725,147.8105,314.725,149.8105,312.725,151.8105,317.225,149.8105" style="stroke:#181818;stroke-width:0.5;"/><text fill="#000000" font-family="sans-serif" font-size="6.5" lengthAdjust="spacing" textLength="46" x="262.125" y="146.3247">gets instance of</text></g><!--link StoreRepository to CreateSubsetsOfStoresController--><g id="link_StoreRepository_CreateSubsetsOfStoresController"><path codeLine="79" d="M223.03,228.9205 C217.01,213.6755 207.98,190.7955 201.21,173.6455 " fill="none" id="StoreRepository-to-CreateSubsetsOfStoresController" style="stroke:#181818;stroke-width:0.5;"/><polygon fill="#181818" points="200.23,171.1605,200.0312,176.081,201.1523,173.4842,203.7491,174.6053,200.23,171.1605" style="stroke:#181818;stroke-width:0.5;"/><text fill="#000000" font-family="sans-serif" font-size="6.5" lengthAdjust="spacing" textLength="25" x="211.5" y="198.3247">storeList</text></g><!--link Store to CreateSubsetsOfStoresController--><g id="link_Store_CreateSubsetsOfStoresController"><path codeLine="84" d="M282.255,315.7605 C288.585,284.9005 291.165,246.2205 276,215.3105 C267.255,197.4855 251.01,183.1605 235.115,172.5355 " fill="none" id="Store-to-CreateSubsetsOfStoresController" style="stroke:#181818;stroke-width:0.5;"/><polygon fill="#181818" points="232.98,171.1305,235.6313,175.2803,235.0656,172.509,237.8369,171.9434,232.98,171.1305" style="stroke:#181818;stroke-width:0.5;"/><text fill="#000000" font-family="sans-serif" font-size="6.5" lengthAdjust="spacing" textLength="77" x="288" y="248.5747">ID and Property List's Size</text></g><!--link CreateSubsetsOfStoresController to Tuple--><g id="link_CreateSubsetsOfStoresController_Tuple"><path codeLine="85" d="M178.175,171.1605 C170.06,183.3955 159.635,199.1155 150.47,212.9355 " fill="none" id="CreateSubsetsOfStoresController-to-Tuple" style="stroke:#181818;stroke-width:0.5;"/><polygon fill="#181818" points="149.01,215.1355,153.164,212.4908,150.3918,213.0521,149.8305,210.28,149.01,215.1355" style="stroke:#181818;stroke-width:0.5;"/><text fill="#000000" font-family="sans-serif" font-size="6.5" lengthAdjust="spacing" textLength="21.5" x="165" y="198.3247">creates</text></g><!--link Repositories to StoreRepository--><g id="link_Repositories_StoreRepository"><path codeLine="87" d="M321.57,175.8955 C299.98,192.1705 272.555,212.8505 253.275,227.3855 " fill="none" id="Repositories-to-StoreRepository" style="stroke:#181818;stroke-width:0.5;"/><polygon fill="#181818" points="251.2,228.9505,255.9975,227.8396,253.1966,227.446,253.5902,224.6451,251.2,228.9505" style="stroke:#181818;stroke-width:0.5;"/><text fill="#000000" font-family="sans-serif" font-size="6.5" lengthAdjust="spacing" textLength="24.5" x="301" y="198.3247">contains</text></g><!--link StoreRepository to Store--><g id="link_StoreRepository_Store"><path codeLine="89" d="M234.345,262.6455 C238.225,275.7155 243.905,294.8505 249.385,313.3205 " fill="none" id="StoreRepository-to-Store" style="stroke:#181818;stroke-width:0.5;"/><polygon fill="#181818" points="250.12,315.8055,250.7666,310.9238,249.4134,313.4075,246.9297,312.0543,250.12,315.8055" style="stroke:#181818;stroke-width:0.5;"/><text fill="#000000" font-family="sans-serif" font-size="6.5" lengthAdjust="spacing" textLength="24.5" x="246.5" y="298.8247">contains</text></g><!--SRC=[ZLHDRzim3BthL-Ys3fk1xhXYA50aw11WQuEcFIr5m3gqBLIMF956aHNxxwFas4woDkt5rWVvzFZuGO_6DH2WrWtaZr3YWZSMTS2SmPKM5Gq6LC7QFnbNwW8ixTxa5eWkc8DvQ1bdkNSBymVrgL9iMD3k5gTVlkhlo1oz9zOJwaNxGCYaCzcBjvuQA0LBgGIchv2VV7Zy2Kuu1VsiieN0YtVmGghVEAZ73TPWxB1h14KGrkglKiOnXW9orFFW6moyYO25zS0Q0iBWP7qERBphBzU6H8OSBuEl9uOt4tGSvCMBKXOQubTbbyRYhtlTL9wzXD1KrBiNne6T1vEF9C4vtmfYBQvJuF62m69tS8E_MoIM7AH_jF01DSLlZAOJg3iSTO7rEY3HlXeN1uV7zAgymwksVi2WCX5CpwOg-o7nV-irEzTDjp98QhLQgKybycnwyZ4jUgle8aVxF6-myMHa5ONlNGzkTfs6KtdgEIeoRhLnNKv62jk3BP4ZiBTjO_6v2o_96MEC6vVYlYxcHmAy-izc5teYPSIuBUhh8f6WkvayzkBDn4iXUMkbj7CEjdijjEvDoD5n4D9X4Biv2ATOktIIGgEEzQtdM883POuIK7gbgw0iEn-xuanNG9fyZLj9j2-KKWVDA1wlX2i0gTSWbyv-Cbofrmoprq1sb3dJUR8WzPQbWEtLo9akuspfIoL5SLY8xoAGf8mbhTxcS5IMJlUZSXoeB8zlHwGlbgxBwUSawj9nXJ9qPOmIBzsGgQNRDkXcwQnmbhQc8StlYNOsbVcq7iiX1lv1MbY6-Rl2J_srapQrbvHeSPW4iHK8a4IzaA3UVjVg7m00]--></g></svg>