<?xml version="1.0" encoding="us-ascii" standalone="no"?><svg xmlns="http://www.w3.org/2000/svg" xmlns:xlink="http://www.w3.org/1999/xlink" contentStyleType="text/css" height="637.6px" preserveAspectRatio="none" style="width:608px;height:637px;background:#FFFFFF;" version="1.1" viewBox="0 0 608 637" width="608px" zoomAndPan="magnify"><defs/><g><text fill="#000000" font-family="sans-serif" font-size="5.6" font-weight="bold" lengthAdjust="spacing" textLength="111.6" x="248.7" y="12.043">User Story 019 - Sequence Diagram (SD)</text><rect fill="#FFFFFF" height="547.293" style="stroke:#181818;stroke-width:0.4000000000000001;" width="4" x="29.2" y="53.2969"/><rect fill="#FFFFFF" height="537.9766" style="stroke:#181818;stroke-width:0.4000000000000001;" width="4" x="161.2" y="62.6133"/><rect fill="#FFFFFF" height="87.6148" style="stroke:#181818;stroke-width:0.4000000000000001;" width="4" x="247.2" y="92.5781"/><rect fill="#FFFFFF" height="345.8461" style="stroke:#181818;stroke-width:0.4000000000000001;" width="4" x="247.2" y="203.2258"/><rect fill="#FFFFFF" height="16.9164" style="stroke:#181818;stroke-width:0.4000000000000001;" width="4" x="249.2" y="469.1734"/><rect fill="#FFFFFF" height="12.5164" style="stroke:#181818;stroke-width:0.4000000000000001;" width="4" x="374.8" y="105.0945"/><rect fill="#FFFFFF" height="12.5164" style="stroke:#181818;stroke-width:0.4000000000000001;" width="4" x="417.6" y="130.1273"/><rect fill="#FFFFFF" height="12.5164" style="stroke:#181818;stroke-width:0.4000000000000001;" width="4" x="465" y="155.1602"/><rect fill="#FFFFFF" height="12.5164" style="stroke:#181818;stroke-width:0.4000000000000001;" width="4" x="503.4" y="307.6406"/><rect fill="#FFFFFF" height="37.5492" style="stroke:#181818;stroke-width:0.4000000000000001;" width="4" x="503.4" y="332.6734"/><rect fill="#FFFFFF" height="12.5164" style="stroke:#181818;stroke-width:0.4000000000000001;" width="4" x="551.4" y="345.1898"/><rect fill="#FFFFFF" height="12.5164" style="stroke:#181818;stroke-width:0.4000000000000001;" width="4" x="580.6" y="382.7391"/><rect fill="none" height="411.5969" style="stroke:#000000;stroke-width:0.6000000000000001;" width="601.4" x="4" y="186.193"/><rect fill="none" height="292.2969" style="stroke:#000000;stroke-width:0.6000000000000001;" width="410.2" x="191.2" y="244.6586"/><rect fill="none" height="163.2492" style="stroke:#000000;stroke-width:0.6000000000000001;" width="402.2" x="195.2" y="290.6078"/><rect fill="none" height="49.8016" style="stroke:#000000;stroke-width:0.6000000000000001;" width="109.6" x="199.2" y="401.2555"/><rect fill="none" height="39.2656" style="stroke:#000000;stroke-width:0.6000000000000001;" width="126.4" x="199.2" y="494.8898"/><line style="stroke:#181818;stroke-width:0.20000000000000004;stroke-dasharray:5.0,5.0;" x1="31.2" x2="31.2" y1="49.2969" y2="604.5898"/><line style="stroke:#181818;stroke-width:0.20000000000000004;stroke-dasharray:5.0,5.0;" x1="163.2" x2="163.2" y1="49.2969" y2="604.5898"/><line style="stroke:#181818;stroke-width:0.20000000000000004;stroke-dasharray:5.0,5.0;" x1="249.2" x2="249.2" y1="78.5375" y2="604.5898"/><line style="stroke:#181818;stroke-width:0.20000000000000004;stroke-dasharray:5.0,5.0;" x1="376.6" x2="376.6" y1="49.2969" y2="604.5898"/><line style="stroke:#181818;stroke-width:0.20000000000000004;stroke-dasharray:5.0,5.0;" x1="419.4" x2="419.4" y1="49.2969" y2="604.5898"/><line style="stroke:#181818;stroke-width:0.20000000000000004;stroke-dasharray:5.0,5.0;" x1="467" x2="467" y1="49.2969" y2="604.5898"/><line style="stroke:#181818;stroke-width:0.20000000000000004;stroke-dasharray:5.0,5.0;" x1="505.4" x2="505.4" y1="49.2969" y2="604.5898"/><line style="stroke:#181818;stroke-width:0.20000000000000004;stroke-dasharray:5.0,5.0;" x1="553.4" x2="553.4" y1="49.2969" y2="604.5898"/><line style="stroke:#181818;stroke-width:0.20000000000000004;stroke-dasharray:5.0,5.0;" x1="582.6" x2="582.6" y1="49.2969" y2="604.5898"/><text fill="#000000" font-family="sans-serif" font-size="5.6" lengthAdjust="spacing" textLength="44" x="8" y="47.8914">Network Manager</text><ellipse cx="31.2" cy="21.2484" fill="#E3E3E3" rx="3.2" ry="3.2" style="stroke:#181818;stroke-width:0.20000000000000004;"/><path d="M31.2,24.4484 L31.2,35.2484 M26,27.6484 L36.4,27.6484 M31.2,35.2484 L26,41.2484 M31.2,35.2484 L36.4,41.2484 " fill="none" style="stroke:#181818;stroke-width:0.20000000000000004;"/><text fill="#000000" font-family="sans-serif" font-size="5.6" lengthAdjust="spacing" textLength="44" x="8" y="610.2328">Network Manager</text><ellipse cx="31.2" cy="615.0383" fill="#E3E3E3" rx="3.2" ry="3.2" style="stroke:#181818;stroke-width:0.20000000000000004;"/><path d="M31.2,618.2383 L31.2,629.0383 M26,621.4383 L36.4,621.4383 M31.2,629.0383 L26,635.0383 M31.2,629.0383 L36.4,635.0383 " fill="none" style="stroke:#181818;stroke-width:0.20000000000000004;"/><rect fill="#E3E3E3" height="13.0484" rx="1" ry="1" style="stroke:#181818;stroke-width:0.20000000000000004;" width="72" x="127.2" y="35.8484"/><text fill="#000000" font-family="sans-serif" font-size="5.6" lengthAdjust="spacing" textLength="66.4" x="130" y="44.6914">:CreateSubsetsOfStoresUI</text><rect fill="#E3E3E3" height="13.0484" rx="1" ry="1" style="stroke:#181818;stroke-width:0.20000000000000004;" width="72" x="127.2" y="604.1898"/><text fill="#000000" font-family="sans-serif" font-size="5.6" lengthAdjust="spacing" textLength="66.4" x="130" y="613.0328">:CreateSubsetsOfStoresUI</text><rect fill="#E3E3E3" height="13.0484" rx="1" ry="1" style="stroke:#181818;stroke-width:0.20000000000000004;" width="92" x="203.2" y="604.1898"/><text fill="#000000" font-family="sans-serif" font-size="5.6" lengthAdjust="spacing" textLength="86.4" x="206" y="613.0328">:CreateSubsetsOfStoresController</text><rect fill="#E3E3E3" height="13.0484" rx="1" ry="1" style="stroke:#181818;stroke-width:0.20000000000000004;" width="38.8" x="357.4" y="35.8484"/><text fill="#000000" font-family="sans-serif" font-size="5.6" lengthAdjust="spacing" textLength="33.2" x="360.2" y="44.6914">:Repositories</text><rect fill="#E3E3E3" height="13.0484" rx="1" ry="1" style="stroke:#181818;stroke-width:0.20000000000000004;" width="38.8" x="357.4" y="604.1898"/><text fill="#000000" font-family="sans-serif" font-size="5.6" lengthAdjust="spacing" textLength="33.2" x="360.2" y="613.0328">:Repositories</text><rect fill="#E3E3E3" height="20.4969" rx="1" ry="1" style="stroke:#181818;stroke-width:0.20000000000000004;" width="38.8" x="400.2" y="28.4"/><text fill="#000000" font-family="sans-serif" font-size="5.6" lengthAdjust="spacing" textLength="29.6" x="404.8" y="37.243">repositories</text><text fill="#000000" font-family="sans-serif" font-size="5.6" lengthAdjust="spacing" textLength="33.2" x="403" y="44.6914">:Repositories</text><rect fill="#E3E3E3" height="20.4969" rx="1" ry="1" style="stroke:#181818;stroke-width:0.20000000000000004;" width="38.8" x="400.2" y="604.1898"/><text fill="#000000" font-family="sans-serif" font-size="5.6" lengthAdjust="spacing" textLength="29.6" x="404.8" y="613.0328">repositories</text><text fill="#000000" font-family="sans-serif" font-size="5.6" lengthAdjust="spacing" textLength="33.2" x="403" y="620.4813">:Repositories</text><rect fill="#E3E3E3" height="20.4969" rx="1" ry="1" style="stroke:#181818;stroke-width:0.20000000000000004;" width="48" x="443" y="28.4"/><text fill="#000000" font-family="sans-serif" font-size="5.6" lengthAdjust="spacing" textLength="40" x="447" y="37.243">storeRepository</text><text fill="#000000" font-family="sans-serif" font-size="5.6" lengthAdjust="spacing" textLength="42.4" x="445.8" y="44.6914">:StoreRepository</text><rect fill="#E3E3E3" height="20.4969" rx="1" ry="1" style="stroke:#181818;stroke-width:0.20000000000000004;" width="48" x="443" y="604.1898"/><text fill="#000000" font-family="sans-serif" font-size="5.6" lengthAdjust="spacing" textLength="40" x="447" y="613.0328">storeRepository</text><text fill="#000000" font-family="sans-serif" font-size="5.6" lengthAdjust="spacing" textLength="42.4" x="445.8" y="620.4813">:StoreRepository</text><rect fill="#E3E3E3" height="20.4969" rx="1" ry="1" style="stroke:#181818;stroke-width:0.20000000000000004;" width="20.8" x="495" y="28.4"/><text fill="#000000" font-family="sans-serif" font-size="5.6" lengthAdjust="spacing" textLength="12.8" x="499" y="37.243">store</text><text fill="#000000" font-family="sans-serif" font-size="5.6" lengthAdjust="spacing" textLength="15.2" x="497.8" y="44.6914">:Store</text><rect fill="#E3E3E3" height="20.4969" rx="1" ry="1" style="stroke:#181818;stroke-width:0.20000000000000004;" width="20.8" x="495" y="604.1898"/><text fill="#000000" font-family="sans-serif" font-size="5.6" lengthAdjust="spacing" textLength="12.8" x="499" y="613.0328">store</text><text fill="#000000" font-family="sans-serif" font-size="5.6" lengthAdjust="spacing" textLength="15.2" x="497.8" y="620.4813">:Store</text><rect fill="#E3E3E3" height="20.4969" rx="1" ry="1" style="stroke:#181818;stroke-width:0.20000000000000004;" width="28.8" x="539" y="28.4"/><text fill="#000000" font-family="sans-serif" font-size="5.6" lengthAdjust="spacing" textLength="21.2" x="542.8" y="37.243">property</text><text fill="#000000" font-family="sans-serif" font-size="5.6" lengthAdjust="spacing" textLength="23.2" x="541.8" y="44.6914">:Property</text><rect fill="#E3E3E3" height="20.4969" rx="1" ry="1" style="stroke:#181818;stroke-width:0.20000000000000004;" width="28.8" x="539" y="604.1898"/><text fill="#000000" font-family="sans-serif" font-size="5.6" lengthAdjust="spacing" textLength="21.2" x="542.8" y="613.0328">property</text><text fill="#000000" font-family="sans-serif" font-size="5.6" lengthAdjust="spacing" textLength="23.2" x="541.8" y="620.4813">:Property</text><rect fill="#E3E3E3" height="20.4969" rx="1" ry="1" style="stroke:#181818;stroke-width:0.20000000000000004;" width="21.6" x="571.8" y="28.4"/><text fill="#000000" font-family="sans-serif" font-size="5.6" lengthAdjust="spacing" textLength="12.4" x="576.4" y="37.243">tuple</text><text fill="#000000" font-family="sans-serif" font-size="5.6" lengthAdjust="spacing" textLength="16" x="574.6" y="44.6914">:Tuple</text><rect fill="#E3E3E3" height="20.4969" rx="1" ry="1" style="stroke:#181818;stroke-width:0.20000000000000004;" width="21.6" x="571.8" y="604.1898"/><text fill="#000000" font-family="sans-serif" font-size="5.6" lengthAdjust="spacing" textLength="12.4" x="576.4" y="613.0328">tuple</text><text fill="#000000" font-family="sans-serif" font-size="5.6" lengthAdjust="spacing" textLength="16" x="574.6" y="620.4813">:Tuple</text><rect fill="#FFFFFF" height="547.293" style="stroke:#181818;stroke-width:0.4000000000000001;" width="4" x="29.2" y="53.2969"/><rect fill="#FFFFFF" height="537.9766" style="stroke:#181818;stroke-width:0.4000000000000001;" width="4" x="161.2" y="62.6133"/><rect fill="#FFFFFF" height="87.6148" style="stroke:#181818;stroke-width:0.4000000000000001;" width="4" x="247.2" y="92.5781"/><rect fill="#FFFFFF" height="345.8461" style="stroke:#181818;stroke-width:0.4000000000000001;" width="4" x="247.2" y="203.2258"/><rect fill="#FFFFFF" height="16.9164" style="stroke:#181818;stroke-width:0.4000000000000001;" width="4" x="249.2" y="469.1734"/><rect fill="#FFFFFF" height="12.5164" style="stroke:#181818;stroke-width:0.4000000000000001;" width="4" x="374.8" y="105.0945"/><rect fill="#FFFFFF" height="12.5164" style="stroke:#181818;stroke-width:0.4000000000000001;" width="4" x="417.6" y="130.1273"/><rect fill="#FFFFFF" height="12.5164" style="stroke:#181818;stroke-width:0.4000000000000001;" width="4" x="465" y="155.1602"/><rect fill="#FFFFFF" height="12.5164" style="stroke:#181818;stroke-width:0.4000000000000001;" width="4" x="503.4" y="307.6406"/><rect fill="#FFFFFF" height="37.5492" style="stroke:#181818;stroke-width:0.4000000000000001;" width="4" x="503.4" y="332.6734"/><rect fill="#FFFFFF" height="12.5164" style="stroke:#181818;stroke-width:0.4000000000000001;" width="4" x="551.4" y="345.1898"/><rect fill="#FFFFFF" height="12.5164" style="stroke:#181818;stroke-width:0.4000000000000001;" width="4" x="580.6" y="382.7391"/><polygon fill="#181818" points="156.4,61.0133,160.4,62.6133,156.4,64.2133,158,62.6133" style="stroke:#181818;stroke-width:0.4000000000000001;"/><line style="stroke:#181818;stroke-width:0.4000000000000001;" x1="33.2" x2="158.8" y1="62.6133" y2="62.6133"/><text fill="#000000" font-family="sans-serif" font-size="5.2" font-weight="bold" lengthAdjust="spacing" textLength="2.8" x="36" y="60.5082">1</text><text fill="#000000" font-family="sans-serif" font-size="5.2" lengthAdjust="spacing" textLength="94" x="40.4" y="60.5082">asks to divide all stores into two subsets</text><polygon fill="#181818" points="198.4,73.5297,202.4,75.1297,198.4,76.7297,200,75.1297" style="stroke:#181818;stroke-width:0.4000000000000001;"/><line style="stroke:#181818;stroke-width:0.4000000000000001;" x1="165.2" x2="200.8" y1="75.1297" y2="75.1297"/><text fill="#000000" font-family="sans-serif" font-size="5.2" font-weight="bold" lengthAdjust="spacing" textLength="2.8" x="168" y="73.0246">2</text><text fill="#000000" font-family="sans-serif" font-size="5.2" lengthAdjust="spacing" textLength="14.4" x="172.4" y="73.0246">create</text><rect fill="#E3E3E3" height="13.0484" rx="1" ry="1" style="stroke:#181818;stroke-width:0.20000000000000004;" width="92" x="203.2" y="65.8133"/><text fill="#000000" font-family="sans-serif" font-size="5.6" lengthAdjust="spacing" textLength="86.4" x="206" y="74.6563">:CreateSubsetsOfStoresController</text><polygon fill="#181818" points="242.4,90.9781,246.4,92.5781,242.4,94.1781,244,92.5781" style="stroke:#181818;stroke-width:0.4000000000000001;"/><line style="stroke:#181818;stroke-width:0.4000000000000001;" x1="165.2" x2="244.8" y1="92.5781" y2="92.5781"/><text fill="#000000" font-family="sans-serif" font-size="5.2" font-weight="bold" lengthAdjust="spacing" textLength="2.8" x="168" y="90.473">3</text><text fill="#000000" font-family="sans-serif" font-size="5.2" lengthAdjust="spacing" textLength="25.6" x="172.4" y="90.473">getStores()</text><polygon fill="#181818" points="370,103.4945,374,105.0945,370,106.6945,371.6,105.0945" style="stroke:#181818;stroke-width:0.4000000000000001;"/><line style="stroke:#181818;stroke-width:0.4000000000000001;" x1="251.2" x2="372.4" y1="105.0945" y2="105.0945"/><text fill="#000000" font-family="sans-serif" font-size="5.2" font-weight="bold" lengthAdjust="spacing" textLength="2.8" x="254" y="102.9895">4</text><text fill="#000000" font-family="sans-serif" font-size="5.2" lengthAdjust="spacing" textLength="30" x="258.4" y="102.9895">getInstance()</text><polygon fill="#181818" points="255.6,116.0109,251.6,117.6109,255.6,119.2109,254,117.6109" style="stroke:#181818;stroke-width:0.4000000000000001;"/><line style="stroke:#181818;stroke-width:0.4000000000000001;stroke-dasharray:2.0,2.0;" x1="253.2" x2="376.4" y1="117.6109" y2="117.6109"/><text fill="#000000" font-family="sans-serif" font-size="5.2" font-weight="bold" lengthAdjust="spacing" textLength="2.8" x="258" y="115.5059">5</text><text fill="#000000" font-family="sans-serif" font-size="5.2" lengthAdjust="spacing" textLength="26.8" x="262.4" y="115.5059">repositories</text><polygon fill="#181818" points="412.8,128.5273,416.8,130.1273,412.8,131.7273,414.4,130.1273" style="stroke:#181818;stroke-width:0.4000000000000001;"/><line style="stroke:#181818;stroke-width:0.4000000000000001;" x1="251.2" x2="415.2" y1="130.1273" y2="130.1273"/><text fill="#000000" font-family="sans-serif" font-size="5.2" font-weight="bold" lengthAdjust="spacing" textLength="2.8" x="254" y="128.0223">6</text><text fill="#000000" font-family="sans-serif" font-size="5.2" lengthAdjust="spacing" textLength="47.6" x="258.4" y="128.0223">getStoreRepository()</text><polygon fill="#181818" points="255.6,141.0438,251.6,142.6438,255.6,144.2438,254,142.6438" style="stroke:#181818;stroke-width:0.4000000000000001;"/><line style="stroke:#181818;stroke-width:0.4000000000000001;stroke-dasharray:2.0,2.0;" x1="253.2" x2="419.2" y1="142.6438" y2="142.6438"/><text fill="#000000" font-family="sans-serif" font-size="5.2" font-weight="bold" lengthAdjust="spacing" textLength="2.8" x="258" y="140.5387">7</text><text fill="#000000" font-family="sans-serif" font-size="5.2" lengthAdjust="spacing" textLength="36.4" x="262.4" y="140.5387">storeRepository</text><polygon fill="#181818" points="460.2,153.5602,464.2,155.1602,460.2,156.7602,461.8,155.1602" style="stroke:#181818;stroke-width:0.4000000000000001;"/><line style="stroke:#181818;stroke-width:0.4000000000000001;" x1="251.2" x2="462.6" y1="155.1602" y2="155.1602"/><text fill="#000000" font-family="sans-serif" font-size="5.2" font-weight="bold" lengthAdjust="spacing" textLength="2.8" x="254" y="153.0551">8</text><text fill="#000000" font-family="sans-serif" font-size="5.2" lengthAdjust="spacing" textLength="25.6" x="258.4" y="153.0551">getStores()</text><polygon fill="#181818" points="255.6,166.0766,251.6,167.6766,255.6,169.2766,254,167.6766" style="stroke:#181818;stroke-width:0.4000000000000001;"/><line style="stroke:#181818;stroke-width:0.4000000000000001;stroke-dasharray:2.0,2.0;" x1="253.2" x2="466.6" y1="167.6766" y2="167.6766"/><text fill="#000000" font-family="sans-serif" font-size="5.2" font-weight="bold" lengthAdjust="spacing" textLength="2.8" x="258" y="165.5715">9</text><text fill="#000000" font-family="sans-serif" font-size="5.2" lengthAdjust="spacing" textLength="20" x="262.4" y="165.5715">storeList</text><polygon fill="#181818" points="169.6,178.593,165.6,180.193,169.6,181.793,168,180.193" style="stroke:#181818;stroke-width:0.4000000000000001;"/><line style="stroke:#181818;stroke-width:0.4000000000000001;stroke-dasharray:2.0,2.0;" x1="167.2" x2="248.8" y1="180.193" y2="180.193"/><text fill="#000000" font-family="sans-serif" font-size="5.2" font-weight="bold" lengthAdjust="spacing" textLength="5.6" x="172" y="178.0879">10</text><text fill="#000000" font-family="sans-serif" font-size="5.2" lengthAdjust="spacing" textLength="20" x="179.2" y="178.0879">storeList</text><path d="M4,186.193 L28.4,186.193 L28.4,189.9094 L24.4,193.9094 L4,193.9094 L4,186.193 " fill="#EEEEEE" style="stroke:#000000;stroke-width:0.6000000000000001;"/><rect fill="none" height="411.5969" style="stroke:#000000;stroke-width:0.6000000000000001;" width="601.4" x="4" y="186.193"/><text fill="#000000" font-family="sans-serif" font-size="5.2" font-weight="bold" lengthAdjust="spacing" textLength="6.4" x="10" y="192.2043">alt</text><text fill="#000000" font-family="sans-serif" font-size="4.4" font-weight="bold" lengthAdjust="spacing" textLength="49.2" x="34.4" y="191.741">[store list isn't empty]</text><polygon fill="#181818" points="242.4,201.6258,246.4,203.2258,242.4,204.8258,244,203.2258" style="stroke:#181818;stroke-width:0.4000000000000001;"/><line style="stroke:#181818;stroke-width:0.4000000000000001;" x1="165.2" x2="244.8" y1="203.2258" y2="203.2258"/><text fill="#000000" font-family="sans-serif" font-size="5.2" font-weight="bold" lengthAdjust="spacing" textLength="5.6" x="168" y="201.1207">11</text><text fill="#000000" font-family="sans-serif" font-size="5.2" lengthAdjust="spacing" textLength="65.2" x="175.2" y="201.1207">generatePartitions(storeList)</text><line style="stroke:#181818;stroke-width:0.4000000000000001;" x1="251.2" x2="268" y1="215.7422" y2="215.7422"/><line style="stroke:#181818;stroke-width:0.4000000000000001;" x1="268" x2="268" y1="215.7422" y2="220.9422"/><line style="stroke:#181818;stroke-width:0.4000000000000001;" x1="251.6" x2="268" y1="220.9422" y2="220.9422"/><polygon fill="#181818" points="255.6,219.3422,251.6,220.9422,255.6,222.5422,254,220.9422" style="stroke:#181818;stroke-width:0.4000000000000001;"/><text fill="#000000" font-family="sans-serif" font-size="5.2" font-weight="bold" lengthAdjust="spacing" textLength="5.6" x="254" y="213.6371">12</text><text fill="#000000" font-family="sans-serif" font-size="5.2" lengthAdjust="spacing" textLength="67.2" x="261.2" y="213.6371">new List&lt;Tuple&gt; minSubset1</text><line style="stroke:#181818;stroke-width:0.4000000000000001;" x1="251.2" x2="268" y1="233.4586" y2="233.4586"/><line style="stroke:#181818;stroke-width:0.4000000000000001;" x1="268" x2="268" y1="233.4586" y2="238.6586"/><line style="stroke:#181818;stroke-width:0.4000000000000001;" x1="251.6" x2="268" y1="238.6586" y2="238.6586"/><polygon fill="#181818" points="255.6,237.0586,251.6,238.6586,255.6,240.2586,254,238.6586" style="stroke:#181818;stroke-width:0.4000000000000001;"/><text fill="#000000" font-family="sans-serif" font-size="5.2" font-weight="bold" lengthAdjust="spacing" textLength="5.6" x="254" y="231.3535">13</text><text fill="#000000" font-family="sans-serif" font-size="5.2" lengthAdjust="spacing" textLength="67.2" x="261.2" y="231.3535">new List&lt;Tuple&gt; minSubset2</text><path d="M191.2,244.6586 L220.4,244.6586 L220.4,248.375 L216.4,252.375 L191.2,252.375 L191.2,244.6586 " fill="#EEEEEE" style="stroke:#000000;stroke-width:0.6000000000000001;"/><rect fill="none" height="292.2969" style="stroke:#000000;stroke-width:0.6000000000000001;" width="410.2" x="191.2" y="244.6586"/><text fill="#000000" font-family="sans-serif" font-size="5.2" font-weight="bold" lengthAdjust="spacing" textLength="11.2" x="197.2" y="250.6699">loop</text><text fill="#000000" font-family="sans-serif" font-size="4.4" font-weight="bold" lengthAdjust="spacing" textLength="59.2" x="226.4" y="250.2066">[2^(storeList.size()) times]</text><line style="stroke:#181818;stroke-width:0.4000000000000001;" x1="251.2" x2="268" y1="261.6914" y2="261.6914"/><line style="stroke:#181818;stroke-width:0.4000000000000001;" x1="268" x2="268" y1="261.6914" y2="266.8914"/><line style="stroke:#181818;stroke-width:0.4000000000000001;" x1="251.6" x2="268" y1="266.8914" y2="266.8914"/><polygon fill="#181818" points="255.6,265.2914,251.6,266.8914,255.6,268.4914,254,266.8914" style="stroke:#181818;stroke-width:0.4000000000000001;"/><text fill="#000000" font-family="sans-serif" font-size="5.2" font-weight="bold" lengthAdjust="spacing" textLength="5.6" x="254" y="259.5863">14</text><text fill="#000000" font-family="sans-serif" font-size="5.2" lengthAdjust="spacing" textLength="58" x="261.2" y="259.5863">new List&lt;Tuple&gt; subset1</text><line style="stroke:#181818;stroke-width:0.4000000000000001;" x1="251.2" x2="268" y1="279.4078" y2="279.4078"/><line style="stroke:#181818;stroke-width:0.4000000000000001;" x1="268" x2="268" y1="279.4078" y2="284.6078"/><line style="stroke:#181818;stroke-width:0.4000000000000001;" x1="251.6" x2="268" y1="284.6078" y2="284.6078"/><polygon fill="#181818" points="255.6,283.0078,251.6,284.6078,255.6,286.2078,254,284.6078" style="stroke:#181818;stroke-width:0.4000000000000001;"/><text fill="#000000" font-family="sans-serif" font-size="5.2" font-weight="bold" lengthAdjust="spacing" textLength="5.6" x="254" y="277.3027">15</text><text fill="#000000" font-family="sans-serif" font-size="5.2" lengthAdjust="spacing" textLength="58" x="261.2" y="277.3027">new List&lt;Tuple&gt; subset2</text><path d="M195.2,290.6078 L224.4,290.6078 L224.4,294.3242 L220.4,298.3242 L195.2,298.3242 L195.2,290.6078 " fill="#EEEEEE" style="stroke:#000000;stroke-width:0.6000000000000001;"/><rect fill="none" height="163.2492" style="stroke:#000000;stroke-width:0.6000000000000001;" width="402.2" x="195.2" y="290.6078"/><text fill="#000000" font-family="sans-serif" font-size="5.2" font-weight="bold" lengthAdjust="spacing" textLength="11.2" x="201.2" y="296.6191">loop</text><text fill="#000000" font-family="sans-serif" font-size="4.4" font-weight="bold" lengthAdjust="spacing" textLength="51.2" x="230.4" y="296.1559">[storeList.size() times]</text><polygon fill="#181818" points="498.6,306.0406,502.6,307.6406,498.6,309.2406,500.2,307.6406" style="stroke:#181818;stroke-width:0.4000000000000001;"/><line style="stroke:#181818;stroke-width:0.4000000000000001;" x1="251.2" x2="501" y1="307.6406" y2="307.6406"/><text fill="#000000" font-family="sans-serif" font-size="5.2" font-weight="bold" lengthAdjust="spacing" textLength="5.6" x="254" y="305.5355">16</text><text fill="#000000" font-family="sans-serif" font-size="5.2" lengthAdjust="spacing" textLength="15.2" x="261.2" y="305.5355">getID()</text><polygon fill="#181818" points="255.6,318.557,251.6,320.157,255.6,321.757,254,320.157" style="stroke:#181818;stroke-width:0.4000000000000001;"/><line style="stroke:#181818;stroke-width:0.4000000000000001;stroke-dasharray:2.0,2.0;" x1="253.2" x2="505" y1="320.157" y2="320.157"/><text fill="#000000" font-family="sans-serif" font-size="5.2" font-weight="bold" lengthAdjust="spacing" textLength="5.6" x="258" y="318.052">17</text><text fill="#000000" font-family="sans-serif" font-size="5.2" lengthAdjust="spacing" textLength="4.8" x="265.2" y="318.052">ID</text><polygon fill="#181818" points="498.6,331.0734,502.6,332.6734,498.6,334.2734,500.2,332.6734" style="stroke:#181818;stroke-width:0.4000000000000001;"/><line style="stroke:#181818;stroke-width:0.4000000000000001;" x1="251.2" x2="501" y1="332.6734" y2="332.6734"/><text fill="#000000" font-family="sans-serif" font-size="5.2" font-weight="bold" lengthAdjust="spacing" textLength="5.6" x="254" y="330.5684">18</text><text fill="#000000" font-family="sans-serif" font-size="5.2" lengthAdjust="spacing" textLength="38.4" x="261.2" y="330.5684">getPropertyList()</text><polygon fill="#181818" points="546.6,343.5898,550.6,345.1898,546.6,346.7898,548.2,345.1898" style="stroke:#181818;stroke-width:0.4000000000000001;"/><line style="stroke:#181818;stroke-width:0.4000000000000001;" x1="507.4" x2="549" y1="345.1898" y2="345.1898"/><text fill="#000000" font-family="sans-serif" font-size="5.2" font-weight="bold" lengthAdjust="spacing" textLength="5.6" x="510.2" y="343.0848">19</text><text fill="#000000" font-family="sans-serif" font-size="5.2" lengthAdjust="spacing" textLength="27.2" x="517.4" y="343.0848">gets list of..</text><polygon fill="#181818" points="511.8,356.1063,507.8,357.7063,511.8,359.3063,510.2,357.7063" style="stroke:#181818;stroke-width:0.4000000000000001;"/><line style="stroke:#181818;stroke-width:0.4000000000000001;stroke-dasharray:2.0,2.0;" x1="509.4" x2="553" y1="357.7063" y2="357.7063"/><text fill="#000000" font-family="sans-serif" font-size="5.2" font-weight="bold" lengthAdjust="spacing" textLength="5.6" x="514.2" y="355.6012">20</text><text fill="#000000" font-family="sans-serif" font-size="5.2" lengthAdjust="spacing" textLength="27.2" x="521.4" y="355.6012">property list</text><polygon fill="#181818" points="255.6,368.6227,251.6,370.2227,255.6,371.8227,254,370.2227" style="stroke:#181818;stroke-width:0.4000000000000001;"/><line style="stroke:#181818;stroke-width:0.4000000000000001;stroke-dasharray:2.0,2.0;" x1="253.2" x2="505" y1="370.2227" y2="370.2227"/><text fill="#000000" font-family="sans-serif" font-size="5.2" font-weight="bold" lengthAdjust="spacing" textLength="5.6" x="258" y="368.1176">21</text><text fill="#000000" font-family="sans-serif" font-size="5.2" lengthAdjust="spacing" textLength="27.2" x="265.2" y="368.1176">propertyList</text><polygon fill="#181818" points="575.8,381.1391,579.8,382.7391,575.8,384.3391,577.4,382.7391" style="stroke:#181818;stroke-width:0.4000000000000001;"/><line style="stroke:#181818;stroke-width:0.4000000000000001;" x1="251.2" x2="578.2" y1="382.7391" y2="382.7391"/><text fill="#000000" font-family="sans-serif" font-size="5.2" font-weight="bold" lengthAdjust="spacing" textLength="5.6" x="254" y="380.634">22</text><text fill="#000000" font-family="sans-serif" font-size="5.2" lengthAdjust="spacing" textLength="76" x="261.2" y="380.634">new Tuple(ID, propertyList.size())</text><polygon fill="#181818" points="255.6,393.6555,251.6,395.2555,255.6,396.8555,254,395.2555" style="stroke:#181818;stroke-width:0.4000000000000001;"/><line style="stroke:#181818;stroke-width:0.4000000000000001;stroke-dasharray:2.0,2.0;" x1="253.2" x2="582.2" y1="395.2555" y2="395.2555"/><text fill="#000000" font-family="sans-serif" font-size="5.2" font-weight="bold" lengthAdjust="spacing" textLength="5.6" x="258" y="393.1504">23</text><text fill="#000000" font-family="sans-serif" font-size="5.2" lengthAdjust="spacing" textLength="1.6" x="265.2" y="393.1504">&#160;</text><path d="M199.2,401.2555 L223.6,401.2555 L223.6,404.9719 L219.6,408.9719 L199.2,408.9719 L199.2,401.2555 " fill="#EEEEEE" style="stroke:#000000;stroke-width:0.6000000000000001;"/><rect fill="none" height="49.8016" style="stroke:#000000;stroke-width:0.6000000000000001;" width="109.6" x="199.2" y="401.2555"/><text fill="#000000" font-family="sans-serif" font-size="5.2" font-weight="bold" lengthAdjust="spacing" textLength="6.4" x="205.2" y="407.2668">alt</text><text fill="#000000" font-family="sans-serif" font-size="4.4" font-weight="bold" lengthAdjust="spacing" textLength="24.4" x="229.6" y="406.8035">[i &amp; 2^j != 0]</text><line style="stroke:#181818;stroke-width:0.4000000000000001;stroke-dasharray:2.0,2.0;" x1="251.2" x2="268" y1="418.2883" y2="418.2883"/><line style="stroke:#181818;stroke-width:0.4000000000000001;stroke-dasharray:2.0,2.0;" x1="268" x2="268" y1="418.2883" y2="423.4883"/><line style="stroke:#181818;stroke-width:0.4000000000000001;stroke-dasharray:2.0,2.0;" x1="251.6" x2="268" y1="423.4883" y2="423.4883"/><polygon fill="#181818" points="255.6,421.8883,251.6,423.4883,255.6,425.0883,254,423.4883" style="stroke:#181818;stroke-width:0.4000000000000001;"/><text fill="#000000" font-family="sans-serif" font-size="5.2" font-weight="bold" lengthAdjust="spacing" textLength="5.6" x="254" y="416.1832">24</text><text fill="#000000" font-family="sans-serif" font-size="5.2" lengthAdjust="spacing" textLength="42.8" x="261.2" y="416.1832">subset1.add(tuple)</text><line style="stroke:#000000;stroke-width:0.4000000000000001;stroke-dasharray:2.0,2.0;" x1="199.2" x2="308.8" y1="427.0883" y2="427.0883"/><text fill="#000000" font-family="sans-serif" font-size="4.4" font-weight="bold" lengthAdjust="spacing" textLength="26" x="201.2" y="431.8363">[otherwise]</text><line style="stroke:#181818;stroke-width:0.4000000000000001;stroke-dasharray:2.0,2.0;" x1="251.2" x2="268" y1="442.657" y2="442.657"/><line style="stroke:#181818;stroke-width:0.4000000000000001;stroke-dasharray:2.0,2.0;" x1="268" x2="268" y1="442.657" y2="447.857"/><line style="stroke:#181818;stroke-width:0.4000000000000001;stroke-dasharray:2.0,2.0;" x1="251.6" x2="268" y1="447.857" y2="447.857"/><polygon fill="#181818" points="255.6,446.257,251.6,447.857,255.6,449.457,254,447.857" style="stroke:#181818;stroke-width:0.4000000000000001;"/><text fill="#000000" font-family="sans-serif" font-size="5.2" font-weight="bold" lengthAdjust="spacing" textLength="5.6" x="254" y="440.552">25</text><text fill="#000000" font-family="sans-serif" font-size="5.2" lengthAdjust="spacing" textLength="42.8" x="261.2" y="440.552">subset2.add(tuple)</text><line style="stroke:#181818;stroke-width:0.4000000000000001;" x1="251.2" x2="270" y1="463.9734" y2="463.9734"/><line style="stroke:#181818;stroke-width:0.4000000000000001;" x1="270" x2="270" y1="463.9734" y2="469.1734"/><line style="stroke:#181818;stroke-width:0.4000000000000001;" x1="253.6" x2="270" y1="469.1734" y2="469.1734"/><polygon fill="#181818" points="257.6,467.5734,253.6,469.1734,257.6,470.7734,256,469.1734" style="stroke:#181818;stroke-width:0.4000000000000001;"/><text fill="#000000" font-family="sans-serif" font-size="5.2" font-weight="bold" lengthAdjust="spacing" textLength="5.6" x="256" y="461.8684">26</text><text fill="#000000" font-family="sans-serif" font-size="5.2" lengthAdjust="spacing" textLength="110.8" x="263.2" y="461.8684">getPropertyNumberDifference(subset1, subset2)</text><line style="stroke:#181818;stroke-width:0.4000000000000001;stroke-dasharray:2.0,2.0;" x1="253.2" x2="270" y1="485.6898" y2="485.6898"/><line style="stroke:#181818;stroke-width:0.4000000000000001;stroke-dasharray:2.0,2.0;" x1="270" x2="270" y1="485.6898" y2="490.8898"/><line style="stroke:#181818;stroke-width:0.4000000000000001;stroke-dasharray:2.0,2.0;" x1="251.2" x2="270" y1="490.8898" y2="490.8898"/><polygon fill="#181818" points="255.2,489.2898,251.2,490.8898,255.2,492.4898,253.6,490.8898" style="stroke:#181818;stroke-width:0.4000000000000001;"/><text fill="#000000" font-family="sans-serif" font-size="5.2" font-weight="bold" lengthAdjust="spacing" textLength="5.6" x="256" y="483.5848">27</text><text fill="#000000" font-family="sans-serif" font-size="5.2" lengthAdjust="spacing" textLength="22" x="263.2" y="483.5848">difference</text><path d="M199.2,494.8898 L223.6,494.8898 L223.6,498.6063 L219.6,502.6063 L199.2,502.6063 L199.2,494.8898 " fill="#EEEEEE" style="stroke:#000000;stroke-width:0.6000000000000001;"/><rect fill="none" height="39.2656" style="stroke:#000000;stroke-width:0.6000000000000001;" width="126.4" x="199.2" y="494.8898"/><text fill="#000000" font-family="sans-serif" font-size="5.2" font-weight="bold" lengthAdjust="spacing" textLength="6.4" x="205.2" y="500.9012">alt</text><text fill="#000000" font-family="sans-serif" font-size="4.4" font-weight="bold" lengthAdjust="spacing" textLength="62" x="229.6" y="500.4379">[difference &lt; minDifference]</text><line style="stroke:#181818;stroke-width:0.4000000000000001;" x1="251.2" x2="268" y1="525.7555" y2="525.7555"/><line style="stroke:#181818;stroke-width:0.4000000000000001;" x1="268" x2="268" y1="525.7555" y2="530.9555"/><line style="stroke:#181818;stroke-width:0.4000000000000001;" x1="251.6" x2="268" y1="530.9555" y2="530.9555"/><polygon fill="#181818" points="255.6,529.3555,251.6,530.9555,255.6,532.5555,254,530.9555" style="stroke:#181818;stroke-width:0.4000000000000001;"/><text fill="#000000" font-family="sans-serif" font-size="5.2" font-weight="bold" lengthAdjust="spacing" textLength="5.6" x="254" y="516.734">28</text><text fill="#000000" font-family="sans-serif" font-size="5.2" lengthAdjust="spacing" textLength="59.6" x="261.2" y="509.8176">minDifference = difference</text><text fill="#000000" font-family="sans-serif" font-size="5.2" lengthAdjust="spacing" textLength="52.4" x="261.2" y="516.734">minSubset1 = subset1</text><text fill="#000000" font-family="sans-serif" font-size="5.2" lengthAdjust="spacing" textLength="52.4" x="261.2" y="523.6504">minSubset2 = subset2</text><polygon fill="#181818" points="169.6,547.4719,165.6,549.0719,169.6,550.6719,168,549.0719" style="stroke:#181818;stroke-width:0.4000000000000001;"/><line style="stroke:#181818;stroke-width:0.4000000000000001;stroke-dasharray:2.0,2.0;" x1="167.2" x2="248.8" y1="549.0719" y2="549.0719"/><text fill="#000000" font-family="sans-serif" font-size="5.2" font-weight="bold" lengthAdjust="spacing" textLength="5.6" x="172" y="546.9668">29</text><text fill="#000000" font-family="sans-serif" font-size="5.2" lengthAdjust="spacing" textLength="61.6" x="179.2" y="546.9668">(minSubset1, minSubset2)</text><polygon fill="#181818" points="37.6,566.9047,33.6,568.5047,37.6,570.1047,36,568.5047" style="stroke:#181818;stroke-width:0.4000000000000001;"/><line style="stroke:#181818;stroke-width:0.4000000000000001;stroke-dasharray:2.0,2.0;" x1="35.2" x2="160.8" y1="568.5047" y2="568.5047"/><text fill="#000000" font-family="sans-serif" font-size="5.2" font-weight="bold" lengthAdjust="spacing" textLength="5.6" x="40" y="562.9414">30</text><text fill="#000000" font-family="sans-serif" font-size="5.2" lengthAdjust="spacing" textLength="111.2" x="47.2" y="559.4832">prints the subsets, each one with a list of stores</text><text fill="#000000" font-family="sans-serif" font-size="5.2" lengthAdjust="spacing" textLength="73.2" x="47.2" y="566.3996">and a total number of properties</text><line style="stroke:#000000;stroke-width:0.4000000000000001;stroke-dasharray:2.0,2.0;" x1="4" x2="605.4" y1="572.1047" y2="572.1047"/><text fill="#000000" font-family="sans-serif" font-size="4.4" font-weight="bold" lengthAdjust="spacing" textLength="26" x="6" y="576.8527">[otherwise]</text><polygon fill="#181818" points="37.6,592.9898,33.6,594.5898,37.6,596.1898,36,594.5898" style="stroke:#181818;stroke-width:0.4000000000000001;"/><line style="stroke:#181818;stroke-width:0.4000000000000001;stroke-dasharray:2.0,2.0;" x1="35.2" x2="160.8" y1="594.5898" y2="594.5898"/><text fill="#000000" font-family="sans-serif" font-size="5.2" font-weight="bold" lengthAdjust="spacing" textLength="5.6" x="40" y="589.0266">31</text><text fill="#000000" font-family="sans-serif" font-size="5.2" lengthAdjust="spacing" textLength="111.2" x="47.2" y="585.5684">tells the user that the store list is empty, so this</text><text fill="#000000" font-family="sans-serif" font-size="5.2" lengthAdjust="spacing" textLength="88" x="47.2" y="592.4848">study cannot be done in that moment.</text><!--SRC=[ZLPDRnen4BtxLqnpQ242b71hb4IgmWKfJQEItA9Apkx0kYpsrZP1zDTtRE-7rq2JI2Z6Vc_UU6OyWraBMN7DDx1HKcM5LXi4gxV8J7jIyMpDLxYm-n91OsQvN9Knm1GyLpiXLx3afK76hB04VJQeOM6LtiF5vLSOmmB_R55c23F1LuuuMCo6ZF6jLNAxUKLDwupmSFQ0TgVq6hvpIShw3BZnvXW9Mf69YaiBPrTt6hd5nVRLe3K_bauBpVCymESV0TyfQRKgorhZxkddVKBxYPKoWi02ZSUq6_k5S84Wv_iK7J5UvA61n_jlJts6SRvqTecqwEyamaVO3SSZ_QeFghIgK5jd-x5U1cVgBtsqtLQbC_da_dkSN_dyY3SAOyY6p_3ubc8DLmHQ6x0ASl4cSWHUbk0zCo0aRLD2mOJWHrRcZ16PJBZ8dv-JcSodYG7zTIUqlq8RKZOO-iFMXi-Pt_98OXp9K30mbuQADyFKnB6KUiGnI-FQfok84-tXERvlid7ILK5qhGwVEkVBnMzvIYUVL4tgGSSxZCl_uXbPJ6BGQaCjVY-CFNtnMBmfafEqa4N6InimK188X95VBE2ceW9Dga6Y9jwZgrehb3I3rlIG9LQR-zTSYJjmk6jVqxUm4J9qXSiF8wUCbKfLCFtLoKwC-4kLDGGhDbGFxvWo7rCqjPnNIwKI9P_Ekj1dWoWAeHs4uoY5yncB4X10Hsmr7S89dxHwspQIG38XVsevcNICjjUqs74arNGepumzQsa7DwWYrqxVnOUoZgrV3-QpKO_RfAvpDRIxm6m4OuLmxgfLm6SgWz_mwGOkM5lipIi9MPxmF1_udZfaI1CIb2rGxuJ14unfZo5p_qbA9KhDWv-UCx5SedO3Tb3hZXfpwPD8LVEMoj8twUxO7SErUmITKkfKxn1k8kQBxDuP7TGUHhlJTdUQNBbf7eFEmYXwYyC3drshS2GtdboLq02YqLHWCu16G8G2b4JO2Li0RwgrdbWlaikSTgsol8JmsyITrZNZsdsInhwYnR8CWbktOGjkWtpSsK9RenJHR2m4QHgxpVUGSIcLXLU4tFadPA1lw8UPj1CVbUYwRe36NzrK_WS0]--></g></svg>