<?xml version="1.0" encoding="us-ascii" standalone="no"?><svg xmlns="http://www.w3.org/2000/svg" xmlns:xlink="http://www.w3.org/1999/xlink" contentStyleType="text/css" height="643.2px" preserveAspectRatio="none" style="width:1029px;height:643px;background:#FFFFFF;" version="1.1" viewBox="0 0 1029 643" width="1029.6px" zoomAndPan="magnify"><defs/><g><rect fill="#FFFFFF" height="532.2891" style="stroke:#181818;stroke-width:0.6;" width="6" x="21.6" y="56.1727"/><rect fill="#FFFFFF" height="188.9461" style="stroke:#181818;stroke-width:0.6;" width="6" x="397.2" y="70.1473"/><rect fill="#FFFFFF" height="57.5238" style="stroke:#181818;stroke-width:0.6;" width="6" x="397.2" y="334.1918"/><rect fill="#FFFFFF" height="177.9715" style="stroke:#181818;stroke-width:0.6;" width="6" x="397.2" y="410.4902"/><rect fill="#FFFFFF" height="18.7746" style="stroke:#181818;stroke-width:0.6;" width="6" x="577.8" y="240.3188"/><rect fill="#FFFFFF" height="56.3238" style="stroke:#181818;stroke-width:0.6;" width="6" x="577.8" y="277.868"/><rect fill="#FFFFFF" height="18.7746" style="stroke:#181818;stroke-width:0.6;" width="6" x="577.8" y="468.0141"/><rect fill="#FFFFFF" height="18.7746" style="stroke:#181818;stroke-width:0.6;" width="6" x="778.8" y="164.0203"/><rect fill="#FFFFFF" height="18.7746" style="stroke:#181818;stroke-width:0.6;" width="6" x="778.8" y="296.6426"/><rect fill="#FFFFFF" height="56.3238" style="stroke:#181818;stroke-width:0.6;" width="6" x="848.1" y="88.9219"/><rect fill="#FFFFFF" height="18.7746" style="stroke:#181818;stroke-width:0.6;" width="6" x="952.5" y="107.6965"/><rect fill="none" height="30.3492" style="stroke:#000000;stroke-width:0.8999999999999999;" width="430.8" x="6" y="191.7949"/><rect fill="none" height="30.3492" style="stroke:#000000;stroke-width:0.8999999999999999;" width="430.8" x="6" y="343.1918"/><rect fill="none" height="30.3492" style="stroke:#000000;stroke-width:0.8999999999999999;" width="430.8" x="6" y="419.4902"/><rect fill="none" height="30.3492" style="stroke:#000000;stroke-width:0.8999999999999999;" width="430.8" x="6" y="514.5633"/><rect fill="none" height="30.3492" style="stroke:#000000;stroke-width:0.8999999999999999;" width="430.8" x="6" y="553.3125"/><line style="stroke:#181818;stroke-width:0.3;stroke-dasharray:5.0,5.0;" x1="24.6" x2="24.6" y1="50.1727" y2="593.8617"/><line style="stroke:#181818;stroke-width:0.3;stroke-dasharray:5.0,5.0;" x1="400.2" x2="400.2" y1="50.1727" y2="593.8617"/><line style="stroke:#181818;stroke-width:0.3;stroke-dasharray:5.0,5.0;" x1="580.8" x2="580.8" y1="50.1727" y2="593.8617"/><line style="stroke:#181818;stroke-width:0.3;stroke-dasharray:5.0,5.0;" x1="667.8" x2="667.8" y1="50.1727" y2="593.8617"/><line style="stroke:#181818;stroke-width:0.3;stroke-dasharray:5.0,5.0;" x1="724.8" x2="724.8" y1="50.1727" y2="593.8617"/><line style="stroke:#181818;stroke-width:0.3;stroke-dasharray:5.0,5.0;" x1="781.8" x2="781.8" y1="50.1727" y2="593.8617"/><line style="stroke:#181818;stroke-width:0.3;stroke-dasharray:5.0,5.0;" x1="850.8" x2="850.8" y1="50.1727" y2="593.8617"/><line style="stroke:#181818;stroke-width:0.3;stroke-dasharray:5.0,5.0;" x1="955.2" x2="955.2" y1="50.1727" y2="593.8617"/><text fill="#000000" font-family="sans-serif" font-size="8.4" lengthAdjust="spacing" textLength="21.6" x="12" y="48.0645">Client</text><ellipse cx="24.6" cy="8.1" fill="#E3E3E3" rx="4.8" ry="4.8" style="stroke:#181818;stroke-width:0.3;"/><path d="M24.6,12.9 L24.6,29.1 M16.8,17.7 L32.4,17.7 M24.6,29.1 L16.8,38.1 M24.6,29.1 L32.4,38.1 " fill="none" style="stroke:#181818;stroke-width:0.3;"/><text fill="#000000" font-family="sans-serif" font-size="8.4" lengthAdjust="spacing" textLength="21.6" x="12" y="602.3262">Client</text><ellipse cx="24.6" cy="609.5344" fill="#E3E3E3" rx="4.8" ry="4.8" style="stroke:#181818;stroke-width:0.3;"/><path d="M24.6,614.3344 L24.6,630.5344 M16.8,619.1344 L32.4,619.1344 M24.6,630.5344 L16.8,639.5344 M24.6,630.5344 L32.4,639.5344 " fill="none" style="stroke:#181818;stroke-width:0.3;"/><rect fill="#E3E3E3" height="19.5727" rx="1.5" ry="1.5" style="stroke:#181818;stroke-width:0.3;" width="61.2" x="369.6" y="30"/><text fill="#000000" font-family="sans-serif" font-size="8.4" lengthAdjust="spacing" textLength="52.8" x="373.8" y="43.2645">:PlaceOrderUI</text><rect fill="#E3E3E3" height="19.5727" rx="1.5" ry="1.5" style="stroke:#181818;stroke-width:0.3;" width="61.2" x="369.6" y="593.2617"/><text fill="#000000" font-family="sans-serif" font-size="8.4" lengthAdjust="spacing" textLength="52.8" x="373.8" y="606.5262">:PlaceOrderUI</text><rect fill="#E3E3E3" height="19.5727" rx="1.5" ry="1.5" style="stroke:#181818;stroke-width:0.3;" width="91.2" x="535.2" y="30"/><text fill="#000000" font-family="sans-serif" font-size="8.4" lengthAdjust="spacing" textLength="82.8" x="539.4" y="43.2645">:PlaceOrderController</text><rect fill="#E3E3E3" height="19.5727" rx="1.5" ry="1.5" style="stroke:#181818;stroke-width:0.3;" width="91.2" x="535.2" y="593.2617"/><text fill="#000000" font-family="sans-serif" font-size="8.4" lengthAdjust="spacing" textLength="82.8" x="539.4" y="606.5262">:PlaceOrderController</text><rect fill="#E3E3E3" height="19.5727" rx="1.5" ry="1.5" style="stroke:#181818;stroke-width:0.3;" width="71.4" x="632.4" y="30"/><text fill="#000000" font-family="sans-serif" font-size="8.4" lengthAdjust="spacing" textLength="63" x="636.6" y="43.2645">OrderRepository</text><rect fill="#E3E3E3" height="19.5727" rx="1.5" ry="1.5" style="stroke:#181818;stroke-width:0.3;" width="71.4" x="632.4" y="593.2617"/><text fill="#000000" font-family="sans-serif" font-size="8.4" lengthAdjust="spacing" textLength="63" x="636.6" y="606.5262">OrderRepository</text><rect fill="#E3E3E3" height="19.5727" rx="1.5" ry="1.5" style="stroke:#181818;stroke-width:0.3;" width="30.6" x="709.8" y="30"/><text fill="#000000" font-family="sans-serif" font-size="8.4" lengthAdjust="spacing" textLength="22.2" x="714" y="43.2645">Order</text><rect fill="#E3E3E3" height="19.5727" rx="1.5" ry="1.5" style="stroke:#181818;stroke-width:0.3;" width="30.6" x="709.8" y="593.2617"/><text fill="#000000" font-family="sans-serif" font-size="8.4" lengthAdjust="spacing" textLength="22.2" x="714" y="606.5262">Order</text><rect fill="#E3E3E3" height="19.5727" rx="1.5" ry="1.5" style="stroke:#181818;stroke-width:0.3;" width="70.8" x="746.4" y="30"/><text fill="#000000" font-family="sans-serif" font-size="8.4" lengthAdjust="spacing" textLength="62.4" x="750.6" y="43.2645">EditAndSortLists</text><rect fill="#E3E3E3" height="19.5727" rx="1.5" ry="1.5" style="stroke:#181818;stroke-width:0.3;" width="70.8" x="746.4" y="593.2617"/><text fill="#000000" font-family="sans-serif" font-size="8.4" lengthAdjust="spacing" textLength="62.4" x="750.6" y="606.5262">EditAndSortLists</text><rect fill="#E3E3E3" height="19.5727" rx="1.5" ry="1.5" style="stroke:#181818;stroke-width:0.3;" width="55.8" x="823.2" y="30"/><text fill="#000000" font-family="sans-serif" font-size="8.4" lengthAdjust="spacing" textLength="47.4" x="827.4" y="43.2645">Repositories</text><rect fill="#E3E3E3" height="19.5727" rx="1.5" ry="1.5" style="stroke:#181818;stroke-width:0.3;" width="55.8" x="823.2" y="593.2617"/><text fill="#000000" font-family="sans-serif" font-size="8.4" lengthAdjust="spacing" textLength="47.4" x="827.4" y="606.5262">Repositories</text><rect fill="#E3E3E3" height="19.5727" rx="1.5" ry="1.5" style="stroke:#181818;stroke-width:0.3;" width="141" x="885" y="30"/><text fill="#000000" font-family="sans-serif" font-size="8.4" lengthAdjust="spacing" textLength="130.2" x="889.2" y="43.2645">PropertyAnnouncementRepository</text><rect fill="#E3E3E3" height="19.5727" rx="1.5" ry="1.5" style="stroke:#181818;stroke-width:0.3;" width="141" x="885" y="593.2617"/><text fill="#000000" font-family="sans-serif" font-size="8.4" lengthAdjust="spacing" textLength="130.2" x="889.2" y="606.5262">PropertyAnnouncementRepository</text><rect fill="#FFFFFF" height="532.2891" style="stroke:#181818;stroke-width:0.6;" width="6" x="21.6" y="56.1727"/><rect fill="#FFFFFF" height="188.9461" style="stroke:#181818;stroke-width:0.6;" width="6" x="397.2" y="70.1473"/><rect fill="#FFFFFF" height="57.5238" style="stroke:#181818;stroke-width:0.6;" width="6" x="397.2" y="334.1918"/><rect fill="#FFFFFF" height="177.9715" style="stroke:#181818;stroke-width:0.6;" width="6" x="397.2" y="410.4902"/><rect fill="#FFFFFF" height="18.7746" style="stroke:#181818;stroke-width:0.6;" width="6" x="577.8" y="240.3188"/><rect fill="#FFFFFF" height="56.3238" style="stroke:#181818;stroke-width:0.6;" width="6" x="577.8" y="277.868"/><rect fill="#FFFFFF" height="18.7746" style="stroke:#181818;stroke-width:0.6;" width="6" x="577.8" y="468.0141"/><rect fill="#FFFFFF" height="18.7746" style="stroke:#181818;stroke-width:0.6;" width="6" x="778.8" y="164.0203"/><rect fill="#FFFFFF" height="18.7746" style="stroke:#181818;stroke-width:0.6;" width="6" x="778.8" y="296.6426"/><rect fill="#FFFFFF" height="56.3238" style="stroke:#181818;stroke-width:0.6;" width="6" x="848.1" y="88.9219"/><rect fill="#FFFFFF" height="18.7746" style="stroke:#181818;stroke-width:0.6;" width="6" x="952.5" y="107.6965"/><polygon fill="#181818" points="390,67.7473,396,70.1473,390,72.5473,392.4,70.1473" style="stroke:#181818;stroke-width:0.6;"/><line style="stroke:#181818;stroke-width:0.6;" x1="27.6" x2="393.6" y1="70.1473" y2="70.1473"/><text fill="#000000" font-family="sans-serif" font-size="7.8" font-weight="bold" lengthAdjust="spacing" textLength="4.2" x="31.8" y="66.9896">1</text><text fill="#000000" font-family="sans-serif" font-size="7.8" lengthAdjust="spacing" textLength="77.4" x="38.4" y="66.9896">asks to place an order</text><polygon fill="#181818" points="840.9,86.5219,846.9,88.9219,840.9,91.3219,843.3,88.9219" style="stroke:#181818;stroke-width:0.6;"/><line style="stroke:#181818;stroke-width:0.6;" x1="403.2" x2="844.5" y1="88.9219" y2="88.9219"/><text fill="#000000" font-family="sans-serif" font-size="7.8" font-weight="bold" lengthAdjust="spacing" textLength="4.2" x="407.4" y="85.7643">2</text><text fill="#000000" font-family="sans-serif" font-size="7.8" lengthAdjust="spacing" textLength="62.4" x="414" y="85.7643">request properties</text><polygon fill="#181818" points="945.3,105.2965,951.3,107.6965,945.3,110.0965,947.7,107.6965" style="stroke:#181818;stroke-width:0.6;"/><line style="stroke:#181818;stroke-width:0.6;" x1="854.1" x2="948.9" y1="107.6965" y2="107.6965"/><text fill="#000000" font-family="sans-serif" font-size="7.8" font-weight="bold" lengthAdjust="spacing" textLength="4.2" x="858.3" y="104.5389">3</text><text fill="#000000" font-family="sans-serif" font-size="7.8" lengthAdjust="spacing" textLength="62.4" x="864.9" y="104.5389">request properties</text><polygon fill="#181818" points="860.7,124.0711,854.7,126.4711,860.7,128.8711,858.3,126.4711" style="stroke:#181818;stroke-width:0.6;"/><line style="stroke:#181818;stroke-width:0.6;stroke-dasharray:2.0,2.0;" x1="857.1" x2="954.9" y1="126.4711" y2="126.4711"/><text fill="#000000" font-family="sans-serif" font-size="7.8" font-weight="bold" lengthAdjust="spacing" textLength="4.2" x="864.3" y="123.3135">4</text><text fill="#000000" font-family="sans-serif" font-size="7.8" lengthAdjust="spacing" textLength="53.4" x="870.9" y="123.3135">send properties</text><polygon fill="#181818" points="409.8,142.8457,403.8,145.2457,409.8,147.6457,407.4,145.2457" style="stroke:#181818;stroke-width:0.6;"/><line style="stroke:#181818;stroke-width:0.6;stroke-dasharray:2.0,2.0;" x1="406.2" x2="850.5" y1="145.2457" y2="145.2457"/><text fill="#000000" font-family="sans-serif" font-size="7.8" font-weight="bold" lengthAdjust="spacing" textLength="4.2" x="413.4" y="142.0881">5</text><text fill="#000000" font-family="sans-serif" font-size="7.8" lengthAdjust="spacing" textLength="53.4" x="420" y="142.0881">send properties</text><polygon fill="#181818" points="771.6,161.6203,777.6,164.0203,771.6,166.4203,774,164.0203" style="stroke:#181818;stroke-width:0.6;"/><line style="stroke:#181818;stroke-width:0.6;" x1="403.2" x2="775.2" y1="164.0203" y2="164.0203"/><text fill="#000000" font-family="sans-serif" font-size="7.8" font-weight="bold" lengthAdjust="spacing" textLength="4.2" x="407.4" y="160.8627">6</text><text fill="#000000" font-family="sans-serif" font-size="7.8" lengthAdjust="spacing" textLength="144" x="414" y="160.8627">sort properties if not from the same owner</text><polygon fill="#181818" points="409.8,180.3949,403.8,182.7949,409.8,185.1949,407.4,182.7949" style="stroke:#181818;stroke-width:0.6;"/><line style="stroke:#181818;stroke-width:0.6;stroke-dasharray:2.0,2.0;" x1="406.2" x2="781.2" y1="182.7949" y2="182.7949"/><text fill="#000000" font-family="sans-serif" font-size="7.8" font-weight="bold" lengthAdjust="spacing" textLength="4.2" x="413.4" y="179.6373">7</text><text fill="#000000" font-family="sans-serif" font-size="7.8" lengthAdjust="spacing" textLength="90.6" x="420" y="179.6373">send the sorted properties</text><path d="M6,191.7949 L42.6,191.7949 L42.6,197.3695 L36.6,203.3695 L6,203.3695 L6,191.7949 " fill="#EEEEEE" style="stroke:#000000;stroke-width:0.8999999999999999;"/><rect fill="none" height="30.3492" style="stroke:#000000;stroke-width:0.8999999999999999;" width="430.8" x="6" y="191.7949"/><text fill="#000000" font-family="sans-serif" font-size="7.8" font-weight="bold" lengthAdjust="spacing" textLength="9.6" x="15" y="200.8119">alt</text><text fill="#000000" font-family="sans-serif" font-size="6.6" font-weight="bold" lengthAdjust="spacing" textLength="81.6" x="51.6" y="200.117">[if there is no propertys]</text><polygon fill="#181818" points="34.2,214.9441,28.2,217.3441,34.2,219.7441,31.8,217.3441" style="stroke:#181818;stroke-width:0.6;"/><line style="stroke:#181818;stroke-width:0.6;stroke-dasharray:2.0,2.0;" x1="30.6" x2="396.6" y1="217.3441" y2="217.3441"/><text fill="#000000" font-family="sans-serif" font-size="7.8" font-weight="bold" lengthAdjust="spacing" textLength="4.2" x="37.8" y="214.1865">8</text><text fill="#000000" font-family="sans-serif" font-size="7.8" lengthAdjust="spacing" textLength="104.4" x="44.4" y="214.1865">print No properties to be listed</text><polygon fill="#181818" points="570.6,237.9188,576.6,240.3188,570.6,242.7188,573,240.3188" style="stroke:#181818;stroke-width:0.6;"/><line style="stroke:#181818;stroke-width:0.6;" x1="403.2" x2="574.2" y1="240.3188" y2="240.3188"/><text fill="#000000" font-family="sans-serif" font-size="7.8" font-weight="bold" lengthAdjust="spacing" textLength="4.2" x="407.4" y="237.1611">9</text><text fill="#000000" font-family="sans-serif" font-size="7.8" lengthAdjust="spacing" textLength="100.2" x="414" y="237.1611">request to sort the properties</text><polygon fill="#181818" points="34.2,256.6934,28.2,259.0934,34.2,261.4934,31.8,259.0934" style="stroke:#181818;stroke-width:0.6;"/><line style="stroke:#181818;stroke-width:0.6;stroke-dasharray:2.0,2.0;" x1="30.6" x2="580.2" y1="259.0934" y2="259.0934"/><text fill="#000000" font-family="sans-serif" font-size="7.8" font-weight="bold" lengthAdjust="spacing" textLength="8.4" x="37.8" y="255.9357">10</text><text fill="#000000" font-family="sans-serif" font-size="7.8" lengthAdjust="spacing" textLength="99.6" x="48.6" y="255.9357">request to choose the Filters</text><polygon fill="#181818" points="570.6,275.468,576.6,277.868,570.6,280.268,573,277.868" style="stroke:#181818;stroke-width:0.6;"/><line style="stroke:#181818;stroke-width:0.6;" x1="27.6" x2="574.2" y1="277.868" y2="277.868"/><text fill="#000000" font-family="sans-serif" font-size="7.8" font-weight="bold" lengthAdjust="spacing" textLength="8.4" x="31.8" y="274.7104">11</text><text fill="#000000" font-family="sans-serif" font-size="7.8" lengthAdjust="spacing" textLength="54" x="42.6" y="274.7104">send the Filters</text><polygon fill="#181818" points="771.6,294.2426,777.6,296.6426,771.6,299.0426,774,296.6426" style="stroke:#181818;stroke-width:0.6;"/><line style="stroke:#181818;stroke-width:0.6;" x1="583.8" x2="775.2" y1="296.6426" y2="296.6426"/><text fill="#000000" font-family="sans-serif" font-size="7.8" font-weight="bold" lengthAdjust="spacing" textLength="8.4" x="588" y="293.485">12</text><text fill="#000000" font-family="sans-serif" font-size="7.8" lengthAdjust="spacing" textLength="153.6" x="598.8" y="293.485">request to sort the properties with the Filters</text><polygon fill="#181818" points="590.4,313.0172,584.4,315.4172,590.4,317.8172,588,315.4172" style="stroke:#181818;stroke-width:0.6;"/><line style="stroke:#181818;stroke-width:0.6;stroke-dasharray:2.0,2.0;" x1="586.8" x2="781.2" y1="315.4172" y2="315.4172"/><text fill="#000000" font-family="sans-serif" font-size="7.8" font-weight="bold" lengthAdjust="spacing" textLength="8.4" x="594" y="312.2596">13</text><text fill="#000000" font-family="sans-serif" font-size="7.8" lengthAdjust="spacing" textLength="90.6" x="604.8" y="312.2596">send the sorted properties</text><polygon fill="#181818" points="34.2,331.7918,28.2,334.1918,34.2,336.5918,31.8,334.1918" style="stroke:#181818;stroke-width:0.6;"/><line style="stroke:#181818;stroke-width:0.6;stroke-dasharray:2.0,2.0;" x1="30.6" x2="580.2" y1="334.1918" y2="334.1918"/><text fill="#000000" font-family="sans-serif" font-size="7.8" font-weight="bold" lengthAdjust="spacing" textLength="8.4" x="37.8" y="331.0342">14</text><text fill="#000000" font-family="sans-serif" font-size="7.8" lengthAdjust="spacing" textLength="64.8" x="48.6" y="331.0342">print the properties</text><path d="M6,343.1918 L42.6,343.1918 L42.6,348.7664 L36.6,354.7664 L6,354.7664 L6,343.1918 " fill="#EEEEEE" style="stroke:#000000;stroke-width:0.8999999999999999;"/><rect fill="none" height="30.3492" style="stroke:#000000;stroke-width:0.8999999999999999;" width="430.8" x="6" y="343.1918"/><text fill="#000000" font-family="sans-serif" font-size="7.8" font-weight="bold" lengthAdjust="spacing" textLength="9.6" x="15" y="352.2088">alt</text><text fill="#000000" font-family="sans-serif" font-size="6.6" font-weight="bold" lengthAdjust="spacing" textLength="81.6" x="51.6" y="351.5139">[if there is no propertys]</text><polygon fill="#181818" points="34.2,366.341,28.2,368.741,34.2,371.141,31.8,368.741" style="stroke:#181818;stroke-width:0.6;"/><line style="stroke:#181818;stroke-width:0.6;stroke-dasharray:2.0,2.0;" x1="30.6" x2="396.6" y1="368.741" y2="368.741"/><text fill="#000000" font-family="sans-serif" font-size="7.8" font-weight="bold" lengthAdjust="spacing" textLength="8.4" x="37.8" y="365.5834">15</text><text fill="#000000" font-family="sans-serif" font-size="7.8" lengthAdjust="spacing" textLength="104.4" x="48.6" y="365.5834">print No properties to be listed</text><polygon fill="#181818" points="34.2,389.3156,28.2,391.7156,34.2,394.1156,31.8,391.7156" style="stroke:#181818;stroke-width:0.6;"/><line style="stroke:#181818;stroke-width:0.6;stroke-dasharray:2.0,2.0;" x1="30.6" x2="399.6" y1="391.7156" y2="391.7156"/><text fill="#000000" font-family="sans-serif" font-size="7.8" font-weight="bold" lengthAdjust="spacing" textLength="8.4" x="37.8" y="388.558">16</text><text fill="#000000" font-family="sans-serif" font-size="7.8" lengthAdjust="spacing" textLength="256.8" x="48.6" y="388.558">request to select a property with an option and to send the correct amount</text><polygon fill="#181818" points="390,408.0902,396,410.4902,390,412.8902,392.4,410.4902" style="stroke:#181818;stroke-width:0.6;"/><line style="stroke:#181818;stroke-width:0.6;" x1="27.6" x2="393.6" y1="410.4902" y2="410.4902"/><text fill="#000000" font-family="sans-serif" font-size="7.8" font-weight="bold" lengthAdjust="spacing" textLength="8.4" x="31.8" y="407.3326">17</text><text fill="#000000" font-family="sans-serif" font-size="7.8" lengthAdjust="spacing" textLength="172.2" x="42.6" y="407.3326">send the selected option property and the amount</text><path d="M6,419.4902 L42.6,419.4902 L42.6,425.0648 L36.6,431.0648 L6,431.0648 L6,419.4902 " fill="#EEEEEE" style="stroke:#000000;stroke-width:0.8999999999999999;"/><rect fill="none" height="30.3492" style="stroke:#000000;stroke-width:0.8999999999999999;" width="430.8" x="6" y="419.4902"/><text fill="#000000" font-family="sans-serif" font-size="7.8" font-weight="bold" lengthAdjust="spacing" textLength="9.6" x="15" y="428.5072">alt</text><text fill="#000000" font-family="sans-serif" font-size="6.6" font-weight="bold" lengthAdjust="spacing" textLength="79.8" x="51.6" y="427.8123">[if the amount is higher]</text><polygon fill="#181818" points="34.2,442.6395,28.2,445.0395,34.2,447.4395,31.8,445.0395" style="stroke:#181818;stroke-width:0.6;"/><line style="stroke:#181818;stroke-width:0.6;stroke-dasharray:2.0,2.0;" x1="30.6" x2="396.6" y1="445.0395" y2="445.0395"/><text fill="#000000" font-family="sans-serif" font-size="7.8" font-weight="bold" lengthAdjust="spacing" textLength="8.4" x="37.8" y="441.8818">18</text><text fill="#000000" font-family="sans-serif" font-size="7.8" lengthAdjust="spacing" textLength="173.4" x="48.6" y="441.8818">Incorrect amount. Please insert the amount again.</text><polygon fill="#181818" points="570.6,465.6141,576.6,468.0141,570.6,470.4141,573,468.0141" style="stroke:#181818;stroke-width:0.6;"/><line style="stroke:#181818;stroke-width:0.6;" x1="403.2" x2="574.2" y1="468.0141" y2="468.0141"/><text fill="#000000" font-family="sans-serif" font-size="7.8" font-weight="bold" lengthAdjust="spacing" textLength="8.4" x="407.4" y="464.8564">19</text><text fill="#000000" font-family="sans-serif" font-size="7.8" lengthAdjust="spacing" textLength="152.4" x="418.2" y="464.8564">request to validate the amount and the order</text><polygon fill="#181818" points="409.8,484.3887,403.8,486.7887,409.8,489.1887,407.4,486.7887" style="stroke:#181818;stroke-width:0.6;"/><line style="stroke:#181818;stroke-width:0.6;stroke-dasharray:2.0,2.0;" x1="406.2" x2="580.2" y1="486.7887" y2="486.7887"/><text fill="#000000" font-family="sans-serif" font-size="7.8" font-weight="bold" lengthAdjust="spacing" textLength="8.4" x="413.4" y="483.6311">20</text><text fill="#000000" font-family="sans-serif" font-size="7.8" lengthAdjust="spacing" textLength="64.2" x="424.2" y="483.6311">send the validation</text><polygon fill="#181818" points="34.2,503.1633,28.2,505.5633,34.2,507.9633,31.8,505.5633" style="stroke:#181818;stroke-width:0.6;"/><line style="stroke:#181818;stroke-width:0.6;stroke-dasharray:2.0,2.0;" x1="30.6" x2="396.6" y1="505.5633" y2="505.5633"/><text fill="#000000" font-family="sans-serif" font-size="7.8" font-weight="bold" lengthAdjust="spacing" textLength="8.4" x="37.8" y="502.4057">21</text><text fill="#000000" font-family="sans-serif" font-size="7.8" lengthAdjust="spacing" textLength="66" x="48.6" y="502.4057">print: Order placed!</text><path d="M6,514.5633 L42.6,514.5633 L42.6,520.1379 L36.6,526.1379 L6,526.1379 L6,514.5633 " fill="#EEEEEE" style="stroke:#000000;stroke-width:0.8999999999999999;"/><rect fill="none" height="30.3492" style="stroke:#000000;stroke-width:0.8999999999999999;" width="430.8" x="6" y="514.5633"/><text fill="#000000" font-family="sans-serif" font-size="7.8" font-weight="bold" lengthAdjust="spacing" textLength="9.6" x="15" y="523.5803">alt</text><text fill="#000000" font-family="sans-serif" font-size="6.6" font-weight="bold" lengthAdjust="spacing" textLength="225.6" x="51.6" y="522.8854">[if there is an order already placed for this property from this buyer]</text><polygon fill="#181818" points="34.2,537.7125,28.2,540.1125,34.2,542.5125,31.8,540.1125" style="stroke:#181818;stroke-width:0.6;"/><line style="stroke:#181818;stroke-width:0.6;stroke-dasharray:2.0,2.0;" x1="30.6" x2="396.6" y1="540.1125" y2="540.1125"/><text fill="#000000" font-family="sans-serif" font-size="7.8" font-weight="bold" lengthAdjust="spacing" textLength="8.4" x="37.8" y="536.9549">22</text><text fill="#000000" font-family="sans-serif" font-size="7.8" lengthAdjust="spacing" textLength="149.4" x="48.6" y="536.9549">Print: Order already placed for this property</text><path d="M6,553.3125 L42.6,553.3125 L42.6,558.8871 L36.6,564.8871 L6,564.8871 L6,553.3125 " fill="#EEEEEE" style="stroke:#000000;stroke-width:0.8999999999999999;"/><rect fill="none" height="30.3492" style="stroke:#000000;stroke-width:0.8999999999999999;" width="430.8" x="6" y="553.3125"/><text fill="#000000" font-family="sans-serif" font-size="7.8" font-weight="bold" lengthAdjust="spacing" textLength="9.6" x="15" y="562.3295">alt</text><text fill="#000000" font-family="sans-serif" font-size="6.6" font-weight="bold" lengthAdjust="spacing" textLength="251.4" x="51.6" y="561.6346">[if there is the amount is equal to another client order in the same property]</text><polygon fill="#181818" points="34.2,576.4617,28.2,578.8617,34.2,581.2617,31.8,578.8617" style="stroke:#181818;stroke-width:0.6;"/><line style="stroke:#181818;stroke-width:0.6;stroke-dasharray:2.0,2.0;" x1="30.6" x2="396.6" y1="578.8617" y2="578.8617"/><text fill="#000000" font-family="sans-serif" font-size="7.8" font-weight="bold" lengthAdjust="spacing" textLength="8.4" x="37.8" y="575.7041">23</text><text fill="#000000" font-family="sans-serif" font-size="7.8" lengthAdjust="spacing" textLength="344.4" x="48.6" y="575.7041">Print: An order with the same amount has already been registered by another client for this property</text><!--SRC=[dLR1Rjim3BthAxXUTae_e1W615a612XM8sq-GB6PM8WYUPBIpdy_IbOKAudjTJuPzkCZ-VXesHw4QhZXHpXgfSlQw2E2CoTaDhrfU7dWUtnrhKGmM3gkzh8Fi3Mlz8TGUzXnQP4nVd9QdOvRD8nzhKM5iDFQRVKVnakd3Jmif43b7e1RM3o_CQ9neXGDLmuUdWh9Itmn5PhDAa0sgq74GYjdj9HeEhAtzNEE3QWrDjeAojm6r7hvSWSKNhsiVopN-Sjb9TnSLQ_Qk6TXdGsuvVmrHwKK0crCaWCAeniqhfqhfK-gn2C9SAaBOap1cDT8l7E7GHe6TD4DpBwJ3l14i8C5fw7n6W1Ne7tn0PO2IR3mm5yKHA7h9OKQ_7r2ww3fIg5A4og5KjdfeRyeC8GNu_5N74LE4ec-pMQHoQAgXcZyLU4m6JNK4KtmP1mt5DGKpT1Jq5nx521seBI37Mq2k1h1Sje8_Q6YnZVDUYVSr1zhZ1byaO6AKk6_zXruyvJI-Ug8oI08IsMUgLgR8xrVVFvWcCO8yjyltM-I_BD5a6HdhF9GgfNT4yjlLiy2H124ysrDsI4ivKshvnflYSjQQuk1-gUG3iseJe5zvFrv5-8EnNHf9lqC0nM7aEINSGNWGxZwRkd3XWdydxRBjLK6TEscFp2c8HapyTZd_FUVtijzbv7q5KT9vm_mbBZJsty56oUqehkgmqKDIsrCY3ZIHzUnQN-4Z9SHX7mqX4YVql88wF5EYHQnNhbQx6j_DjvjTwNoeX-XaCXf8OIo60qNgVYU2_Lu9UBKthvpAIfVPvyejdCvIoOsUBFgUIp95Qb9AJQshIDUUO9m5dUdM_Lbn7tdauzU6EHL6qFeJyCGY01fLl5JJe-sftPGzgAVVefpoBVNHUPZfnbmwKV0wOGX29JXDoZs8TJblBdDSw_M-Lc2zD49mJ5XJJyKvpwsY8eyiFTBPwYXRNjTmsIByVeB]--></g></svg>