<?xml version="1.0" encoding="us-ascii" standalone="no"?><svg xmlns="http://www.w3.org/2000/svg" xmlns:xlink="http://www.w3.org/1999/xlink" contentStyleType="text/css" height="1244px" preserveAspectRatio="none" style="width:1284px;height:1244px;background:#FFFFFF;" version="1.1" viewBox="0 0 1284 1244" width="1284px" zoomAndPan="magnify"><defs/><g><text fill="#000000" font-family="sans-serif" font-size="14" font-weight="bold" lengthAdjust="spacing" textLength="263" x="503.5" y="25.1074">US010 Place an Order - Class Diagram</text><!--class PlaceOrderUI--><g id="elem_PlaceOrderUI"><rect
        fill="#F1F1F1" height="122.4844" id="PlaceOrderUI" rx="2.5" ry="2.5" style="stroke:#181818;stroke-width:0.5;" width="305" x="360" y="93.6211"/><ellipse cx="466.25" cy="109.6211" fill="#ADD1B2" rx="11" ry="11" style="stroke:#181818;stroke-width:1.0;"/><path d="M469.0156,105.4961 Q469.1719,105.2773 469.3594,105.168 Q469.5469,105.0586 469.7656,105.0586 Q470.1406,105.0586 470.375,105.3242 Q470.6094,105.5742 470.6094,106.1836 L470.6094,107.6367 Q470.6094,108.2461 470.375,108.5117 Q470.1406,108.7773 469.7656,108.7773 Q469.4219,108.7773 469.2188,108.5742 Q469.0156,108.3867 468.9063,107.8711 Q468.8594,107.5117 468.6719,107.3242 Q468.3438,106.9492 467.7344,106.7305 Q467.125,106.5117 466.5,106.5117 Q465.7344,106.5117 465.0938,106.8398 Q464.4688,107.168 463.9688,107.918 Q463.4844,108.668 463.4844,109.6992 L463.4844,110.793 Q463.4844,112.0273 464.375,112.8555 Q465.2656,113.668 466.8594,113.668 Q467.7969,113.668 468.4531,113.418 Q468.8438,113.2617 469.2656,112.8242 Q469.5313,112.5586 469.6719,112.4805 Q469.8281,112.4023 470.0313,112.4023 Q470.3594,112.4023 470.6094,112.668 Q470.875,112.918 470.875,113.2617 Q470.875,113.6055 470.5313,114.0117 Q470.0313,114.5898 469.2344,114.918 Q468.1563,115.3711 466.8594,115.3711 Q465.3438,115.3711 464.1406,114.7461 Q463.1563,114.2461 462.4688,113.1836 Q461.7813,112.1055 461.7813,110.8242 L461.7813,109.668 Q461.7813,108.3398 462.3906,107.1992 Q463.0156,106.043 464.1094,105.4336 Q465.2031,104.8086 466.4375,104.8086 Q467.1719,104.8086 467.8125,104.9805 Q468.4688,105.1367 469.0156,105.4961 Z " fill="#000000"/><text fill="#000000" font-family="sans-serif" font-size="14" lengthAdjust="spacing" textLength="84" x="486.75" y="115.418">PlaceOrderUI</text><line style="stroke:#181818;stroke-width:0.5;" x1="361" x2="664" y1="125.6211" y2="125.6211"/><line style="stroke:#181818;stroke-width:0.5;" x1="361" x2="664" y1="133.6211" y2="133.6211"/><text fill="#000000" font-family="sans-serif" font-size="14" lengthAdjust="spacing" textLength="203" x="366" y="152.7285">+askAboutFilters(List&lt;Property&gt;</text><text fill="#000000" font-family="sans-serif" font-size="14" lengthAdjust="spacing" textLength="148" x="366" y="171.3496">properties, Scanner sc)</text><text fill="#000000" font-family="sans-serif" font-size="14" lengthAdjust="spacing" textLength="293" x="366" y="189.9707">+printPropertyList(List&lt;Property&gt; propertyList)</text><text fill="#000000" font-family="sans-serif" font-size="14" lengthAdjust="spacing" textLength="254" x="366" y="208.5918">+verifyOption(List&lt;Property&gt; properties)</text></g><!--class PlaceOrderController--><g id="elem_PlaceOrderController"><rect
        fill="#F1F1F1" height="327.3164" id="PlaceOrderController" rx="2.5" ry="2.5" style="stroke:#181818;stroke-width:0.5;" width="292" x="145.5" y="505.6211"/><ellipse cx="220.25" cy="521.6211" fill="#ADD1B2" rx="11" ry="11" style="stroke:#181818;stroke-width:1.0;"/><path d="M223.0156,517.4961 Q223.1719,517.2773 223.3594,517.168 Q223.5469,517.0586 223.7656,517.0586 Q224.1406,517.0586 224.375,517.3242 Q224.6094,517.5742 224.6094,518.1836 L224.6094,519.6367 Q224.6094,520.2461 224.375,520.5117 Q224.1406,520.7773 223.7656,520.7773 Q223.4219,520.7773 223.2188,520.5742 Q223.0156,520.3867 222.9063,519.8711 Q222.8594,519.5117 222.6719,519.3242 Q222.3438,518.9492 221.7344,518.7305 Q221.125,518.5117 220.5,518.5117 Q219.7344,518.5117 219.0938,518.8398 Q218.4688,519.168 217.9688,519.918 Q217.4844,520.668 217.4844,521.6992 L217.4844,522.793 Q217.4844,524.0273 218.375,524.8555 Q219.2656,525.668 220.8594,525.668 Q221.7969,525.668 222.4531,525.418 Q222.8438,525.2617 223.2656,524.8242 Q223.5313,524.5586 223.6719,524.4805 Q223.8281,524.4023 224.0313,524.4023 Q224.3594,524.4023 224.6094,524.668 Q224.875,524.918 224.875,525.2617 Q224.875,525.6055 224.5313,526.0117 Q224.0313,526.5898 223.2344,526.918 Q222.1563,527.3711 220.8594,527.3711 Q219.3438,527.3711 218.1406,526.7461 Q217.1563,526.2461 216.4688,525.1836 Q215.7813,524.1055 215.7813,522.8242 L215.7813,521.668 Q215.7813,520.3398 216.3906,519.1992 Q217.0156,518.043 218.1094,517.4336 Q219.2031,516.8086 220.4375,516.8086 Q221.1719,516.8086 221.8125,516.9805 Q222.4688,517.1367 223.0156,517.4961 Z " fill="#000000"/><text fill="#000000" font-family="sans-serif" font-size="14" lengthAdjust="spacing" textLength="134" x="240.75" y="527.418">PlaceOrderController</text><line style="stroke:#181818;stroke-width:0.5;" x1="146.5" x2="436.5" y1="537.6211" y2="537.6211"/><text fill="#000000" font-family="sans-serif" font-size="14" lengthAdjust="spacing" textLength="128" x="151.5" y="556.7285">-float correctAmount</text><line style="stroke:#181818;stroke-width:0.5;" x1="146.5" x2="436.5" y1="564.2422" y2="564.2422"/><text fill="#000000" font-family="sans-serif" font-size="14" lengthAdjust="spacing" textLength="239" x="151.5" y="583.3496">+askAboutTypeOfSale(List&lt;Property&gt;</text><text fill="#000000" font-family="sans-serif" font-size="14" lengthAdjust="spacing" textLength="148" x="151.5" y="601.9707">properties, Scanner sc)</text><text fill="#000000" font-family="sans-serif" font-size="14" lengthAdjust="spacing" textLength="265" x="151.5" y="620.5918">+askAboutTypeOfProperty(List&lt;Property&gt;</text><text fill="#000000" font-family="sans-serif" font-size="14" lengthAdjust="spacing" textLength="148" x="151.5" y="639.2129">properties, Scanner sc)</text><text fill="#000000" font-family="sans-serif" font-size="14" lengthAdjust="spacing" textLength="205" x="151.5" y="657.834">+chooseProperty(List&lt;Property&gt;</text><text fill="#000000" font-family="sans-serif" font-size="14" lengthAdjust="spacing" textLength="135" x="151.5" y="676.4551">properties, int option)</text><text fill="#000000" font-family="sans-serif" font-size="14" lengthAdjust="spacing" textLength="209" x="151.5" y="695.0762">+printPropertyList(List&lt;Property&gt;</text><text fill="#000000" font-family="sans-serif" font-size="14" lengthAdjust="spacing" textLength="80" x="151.5" y="713.6973">propertyList)</text><text fill="#000000" font-family="sans-serif" font-size="14" lengthAdjust="spacing" textLength="225" x="151.5" y="732.3184">+requestAmount(Property property)</text><text fill="#000000" font-family="sans-serif" font-size="14" lengthAdjust="spacing" textLength="178" x="151.5" y="750.9395">+verifyAmount(float amount)</text><text fill="#000000" font-family="sans-serif" font-size="14" lengthAdjust="spacing" textLength="248" x="151.5" y="769.5605">+verifyOrder(float amount, String email,</text><text fill="#000000" font-family="sans-serif" font-size="14" lengthAdjust="spacing" textLength="116" x="151.5" y="788.1816">Property property)</text><text fill="#000000" font-family="sans-serif" font-size="14" lengthAdjust="spacing" textLength="276" x="151.5" y="806.8027">+createAndRegisterNewOrder(float amount,</text><text fill="#000000" font-family="sans-serif" font-size="14" lengthAdjust="spacing" textLength="198" x="151.5" y="825.4238">String email, Property property)</text></g><!--class OrderRepository--><g id="elem_OrderRepository"><rect
        fill="#F1F1F1" height="141.1055" id="OrderRepository" rx="2.5" ry="2.5" style="stroke:#181818;stroke-width:0.5;" width="243" x="511" y="1012.6211"/><ellipse cx="575.75" cy="1028.6211" fill="#ADD1B2" rx="11" ry="11" style="stroke:#181818;stroke-width:1.0;"/><path d="M578.5156,1024.4961 Q578.6719,1024.2773 578.8594,1024.168 Q579.0469,1024.0586 579.2656,1024.0586 Q579.6406,1024.0586 579.875,1024.3242 Q580.1094,1024.5742 580.1094,1025.1836 L580.1094,1026.6367 Q580.1094,1027.2461 579.875,1027.5117 Q579.6406,1027.7773 579.2656,1027.7773 Q578.9219,1027.7773 578.7188,1027.5742 Q578.5156,1027.3867 578.4063,1026.8711 Q578.3594,1026.5117 578.1719,1026.3242 Q577.8438,1025.9492 577.2344,1025.7305 Q576.625,1025.5117 576,1025.5117 Q575.2344,1025.5117 574.5938,1025.8398 Q573.9688,1026.168 573.4688,1026.918 Q572.9844,1027.668 572.9844,1028.6992 L572.9844,1029.793 Q572.9844,1031.0273 573.875,1031.8555 Q574.7656,1032.668 576.3594,1032.668 Q577.2969,1032.668 577.9531,1032.418 Q578.3438,1032.2617 578.7656,1031.8242 Q579.0313,1031.5586 579.1719,1031.4805 Q579.3281,1031.4023 579.5313,1031.4023 Q579.8594,1031.4023 580.1094,1031.668 Q580.375,1031.918 580.375,1032.2617 Q580.375,1032.6055 580.0313,1033.0117 Q579.5313,1033.5898 578.7344,1033.918 Q577.6563,1034.3711 576.3594,1034.3711 Q574.8438,1034.3711 573.6406,1033.7461 Q572.6563,1033.2461 571.9688,1032.1836 Q571.2813,1031.1055 571.2813,1029.8242 L571.2813,1028.668 Q571.2813,1027.3398 571.8906,1026.1992 Q572.5156,1025.043 573.6094,1024.4336 Q574.7031,1023.8086 575.9375,1023.8086 Q576.6719,1023.8086 577.3125,1023.9805 Q577.9688,1024.1367 578.5156,1024.4961 Z " fill="#000000"/><text fill="#000000" font-family="sans-serif" font-size="14" lengthAdjust="spacing" textLength="105" x="596.25" y="1034.418">OrderRepository</text><line style="stroke:#181818;stroke-width:0.5;" x1="512" x2="753" y1="1044.6211" y2="1044.6211"/><text fill="#000000" font-family="sans-serif" font-size="14" lengthAdjust="spacing" textLength="125" x="517" y="1063.7285">-List&lt;Order&gt; orders</text><line style="stroke:#181818;stroke-width:0.5;" x1="512" x2="753" y1="1071.2422" y2="1071.2422"/><text fill="#000000" font-family="sans-serif" font-size="14" lengthAdjust="spacing" textLength="231" x="517" y="1090.3496">-boolean validateOrder(Order order)</text><text fill="#000000" font-family="sans-serif" font-size="14" lengthAdjust="spacing" textLength="161" x="517" y="1108.9707">+List&lt;Order&gt; getOrders()</text><text fill="#000000" font-family="sans-serif" font-size="14" lengthAdjust="spacing" textLength="227" x="517" y="1127.5918">+Optional&lt;Order&gt; add(Order order)</text><text fill="#000000" font-family="sans-serif" font-size="14" lengthAdjust="spacing" textLength="118" x="517" y="1146.2129">+remove(Object o)</text></g><!--class Client--><g id="elem_Client"><rect
        fill="#F1F1F1" height="215.5898" id="Client" rx="2.5" ry="2.5" style="stroke:#181818;stroke-width:0.5;" width="239" x="7" y="46.6211"/><ellipse cx="104.25" cy="62.6211" fill="#ADD1B2" rx="11" ry="11" style="stroke:#181818;stroke-width:1.0;"/><path d="M107.0156,58.4961 Q107.1719,58.2773 107.3594,58.168 Q107.5469,58.0586 107.7656,58.0586 Q108.1406,58.0586 108.375,58.3242 Q108.6094,58.5742 108.6094,59.1836 L108.6094,60.6367 Q108.6094,61.2461 108.375,61.5117 Q108.1406,61.7773 107.7656,61.7773 Q107.4219,61.7773 107.2188,61.5742 Q107.0156,61.3867 106.9063,60.8711 Q106.8594,60.5117 106.6719,60.3242 Q106.3438,59.9492 105.7344,59.7305 Q105.125,59.5117 104.5,59.5117 Q103.7344,59.5117 103.0938,59.8398 Q102.4688,60.168 101.9688,60.918 Q101.4844,61.668 101.4844,62.6992 L101.4844,63.793 Q101.4844,65.0273 102.375,65.8555 Q103.2656,66.668 104.8594,66.668 Q105.7969,66.668 106.4531,66.418 Q106.8438,66.2617 107.2656,65.8242 Q107.5313,65.5586 107.6719,65.4805 Q107.8281,65.4023 108.0313,65.4023 Q108.3594,65.4023 108.6094,65.668 Q108.875,65.918 108.875,66.2617 Q108.875,66.6055 108.5313,67.0117 Q108.0313,67.5898 107.2344,67.918 Q106.1563,68.3711 104.8594,68.3711 Q103.3438,68.3711 102.1406,67.7461 Q101.1563,67.2461 100.4688,66.1836 Q99.7813,65.1055 99.7813,63.8242 L99.7813,62.668 Q99.7813,61.3398 100.3906,60.1992 Q101.0156,59.043 102.1094,58.4336 Q103.2031,57.8086 104.4375,57.8086 Q105.1719,57.8086 105.8125,57.9805 Q106.4688,58.1367 107.0156,58.4961 Z " fill="#000000"/><text fill="#000000" font-family="sans-serif" font-size="14" lengthAdjust="spacing" textLength="36" x="124.75" y="68.418">Client</text><line style="stroke:#181818;stroke-width:0.5;" x1="8" x2="245" y1="78.6211" y2="78.6211"/><text fill="#000000" font-family="sans-serif" font-size="14" lengthAdjust="spacing" textLength="81" x="13" y="97.7285">-String name</text><text fill="#000000" font-family="sans-serif" font-size="14" lengthAdjust="spacing" textLength="128" x="13" y="116.3496">-int passportNumber</text><text fill="#000000" font-family="sans-serif" font-size="14" lengthAdjust="spacing" textLength="141" x="13" y="134.9707">-socialSecurityNumber</text><text fill="#000000" font-family="sans-serif" font-size="14" lengthAdjust="spacing" textLength="79" x="13" y="153.5918">-String email</text><text fill="#000000" font-family="sans-serif" font-size="14" lengthAdjust="spacing" textLength="135" x="13" y="172.2129">-String phoneNumber</text><text fill="#000000" font-family="sans-serif" font-size="14" lengthAdjust="spacing" textLength="71" x="13" y="190.834">-String pwd</text><line style="stroke:#181818;stroke-width:0.5;" x1="8" x2="245" y1="198.3477" y2="198.3477"/><text fill="#000000" font-family="sans-serif" font-size="14" lengthAdjust="spacing" textLength="227" x="13" y="217.4551">+Client(email, name, phoneNumber)</text><text fill="#000000" font-family="sans-serif" font-size="14" lengthAdjust="spacing" textLength="128" x="13" y="236.0762">+getPhoneNumber()</text><text fill="#000000" font-family="sans-serif" font-size="14" lengthAdjust="spacing" textLength="74" x="13" y="254.6973">+getName()</text></g><!--class EditAndSortLists--><g id="elem_EditAndSortLists"><rect
        fill="#F1F1F1" height="234.2109" id="EditAndSortLists" rx="2.5" ry="2.5" style="stroke:#181818;stroke-width:0.5;" width="364" x="557.5" y="552.1211"/><ellipse cx="683.25" cy="568.1211" fill="#ADD1B2" rx="11" ry="11" style="stroke:#181818;stroke-width:1.0;"/><path d="M686.0156,563.9961 Q686.1719,563.7773 686.3594,563.668 Q686.5469,563.5586 686.7656,563.5586 Q687.1406,563.5586 687.375,563.8242 Q687.6094,564.0742 687.6094,564.6836 L687.6094,566.1367 Q687.6094,566.7461 687.375,567.0117 Q687.1406,567.2773 686.7656,567.2773 Q686.4219,567.2773 686.2188,567.0742 Q686.0156,566.8867 685.9063,566.3711 Q685.8594,566.0117 685.6719,565.8242 Q685.3438,565.4492 684.7344,565.2305 Q684.125,565.0117 683.5,565.0117 Q682.7344,565.0117 682.0938,565.3398 Q681.4688,565.668 680.9688,566.418 Q680.4844,567.168 680.4844,568.1992 L680.4844,569.293 Q680.4844,570.5273 681.375,571.3555 Q682.2656,572.168 683.8594,572.168 Q684.7969,572.168 685.4531,571.918 Q685.8438,571.7617 686.2656,571.3242 Q686.5313,571.0586 686.6719,570.9805 Q686.8281,570.9023 687.0313,570.9023 Q687.3594,570.9023 687.6094,571.168 Q687.875,571.418 687.875,571.7617 Q687.875,572.1055 687.5313,572.5117 Q687.0313,573.0898 686.2344,573.418 Q685.1563,573.8711 683.8594,573.8711 Q682.3438,573.8711 681.1406,573.2461 Q680.1563,572.7461 679.4688,571.6836 Q678.7813,570.6055 678.7813,569.3242 L678.7813,568.168 Q678.7813,566.8398 679.3906,565.6992 Q680.0156,564.543 681.1094,563.9336 Q682.2031,563.3086 683.4375,563.3086 Q684.1719,563.3086 684.8125,563.4805 Q685.4688,563.6367 686.0156,563.9961 Z " fill="#000000"/><text fill="#000000" font-family="sans-serif" font-size="14" lengthAdjust="spacing" textLength="104" x="703.75" y="573.918">EditAndSortLists</text><line style="stroke:#181818;stroke-width:0.5;" x1="558.5" x2="920.5" y1="584.1211" y2="584.1211"/><line style="stroke:#181818;stroke-width:0.5;" x1="558.5" x2="920.5" y1="592.1211" y2="592.1211"/><text fill="#000000" font-family="sans-serif" font-size="14" lengthAdjust="spacing" textLength="352" x="563.5" y="611.2285">+List&lt;Property&gt; getPropertiesIfNotFromTheSameOwner</text><text fill="#000000" font-family="sans-serif" font-size="14" lengthAdjust="spacing" textLength="302" x="563.5" y="629.8496">(List&lt;Property&gt; propertyList, String ownerEmail)</text><text fill="#000000" font-family="sans-serif" font-size="14" lengthAdjust="spacing" textLength="300" x="563.5" y="648.4707">+List&lt;Property&gt; getPropertiesWithXTypeOfSale</text><text fill="#000000" font-family="sans-serif" font-size="14" lengthAdjust="spacing" textLength="257" x="563.5" y="667.0918">(List&lt;Property&gt; propertyList, String type)</text><text fill="#000000" font-family="sans-serif" font-size="14" lengthAdjust="spacing" textLength="282" x="563.5" y="685.7129">+List&lt;Property&gt; getPropertiesIfTheyAreLand</text><text fill="#000000" font-family="sans-serif" font-size="14" lengthAdjust="spacing" textLength="181" x="563.5" y="704.334">(List&lt;Property&gt; propertyList)</text><text fill="#000000" font-family="sans-serif" font-size="14" lengthAdjust="spacing" textLength="315" x="563.5" y="722.9551">+List&lt;Property&gt; getPropertiesIfTheyAreApartment</text><text fill="#000000" font-family="sans-serif" font-size="14" lengthAdjust="spacing" textLength="181" x="563.5" y="741.5762">(List&lt;Property&gt; propertyList)</text><text fill="#000000" font-family="sans-serif" font-size="14" lengthAdjust="spacing" textLength="290" x="563.5" y="760.1973">+List&lt;Property&gt; getPropertiesIfTheyAreHouse</text><text fill="#000000" font-family="sans-serif" font-size="14" lengthAdjust="spacing" textLength="181" x="563.5" y="778.8184">(List&lt;Property&gt; propertyList)</text></g><!--class Repositories--><g id="elem_Repositories"><rect
        fill="#F1F1F1" height="66.6211" id="Repositories" rx="2.5" ry="2.5" style="stroke:#181818;stroke-width:0.5;" width="264" x="824.5" y="121.1211"/><ellipse cx="912.75" cy="137.1211" fill="#ADD1B2" rx="11" ry="11" style="stroke:#181818;stroke-width:1.0;"/><path d="M915.5156,132.9961 Q915.6719,132.7773 915.8594,132.668 Q916.0469,132.5586 916.2656,132.5586 Q916.6406,132.5586 916.875,132.8242 Q917.1094,133.0742 917.1094,133.6836 L917.1094,135.1367 Q917.1094,135.7461 916.875,136.0117 Q916.6406,136.2773 916.2656,136.2773 Q915.9219,136.2773 915.7188,136.0742 Q915.5156,135.8867 915.4063,135.3711 Q915.3594,135.0117 915.1719,134.8242 Q914.8438,134.4492 914.2344,134.2305 Q913.625,134.0117 913,134.0117 Q912.2344,134.0117 911.5938,134.3398 Q910.9688,134.668 910.4688,135.418 Q909.9844,136.168 909.9844,137.1992 L909.9844,138.293 Q909.9844,139.5273 910.875,140.3555 Q911.7656,141.168 913.3594,141.168 Q914.2969,141.168 914.9531,140.918 Q915.3438,140.7617 915.7656,140.3242 Q916.0313,140.0586 916.1719,139.9805 Q916.3281,139.9023 916.5313,139.9023 Q916.8594,139.9023 917.1094,140.168 Q917.375,140.418 917.375,140.7617 Q917.375,141.1055 917.0313,141.5117 Q916.5313,142.0898 915.7344,142.418 Q914.6563,142.8711 913.3594,142.8711 Q911.8438,142.8711 910.6406,142.2461 Q909.6563,141.7461 908.9688,140.6836 Q908.2813,139.6055 908.2813,138.3242 L908.2813,137.168 Q908.2813,135.8398 908.8906,134.6992 Q909.5156,133.543 910.6094,132.9336 Q911.7031,132.3086 912.9375,132.3086 Q913.6719,132.3086 914.3125,132.4805 Q914.9688,132.6367 915.5156,132.9961 Z " fill="#000000"/><text fill="#000000" font-family="sans-serif" font-size="14" lengthAdjust="spacing" textLength="79" x="933.25" y="142.918">Repositories</text><line style="stroke:#181818;stroke-width:0.5;" x1="825.5" x2="1087.5" y1="153.1211" y2="153.1211"/><line style="stroke:#181818;stroke-width:0.5;" x1="825.5" x2="1087.5" y1="161.1211" y2="161.1211"/><text fill="#000000" font-family="sans-serif" font-size="14" lengthAdjust="spacing" textLength="252" x="830.5" y="180.2285">+OrderRepository getOrderRepository()</text></g><!--class Order--><g id="elem_Order"><rect
        fill="#F1F1F1" height="308.6953" id="Order" rx="2.5" ry="2.5" style="stroke:#181818;stroke-width:0.5;" width="294" x="839.5" y="928.6211"/><ellipse cx="963.75" cy="944.6211" fill="#ADD1B2" rx="11" ry="11" style="stroke:#181818;stroke-width:1.0;"/><path d="M966.5156,940.4961 Q966.6719,940.2773 966.8594,940.168 Q967.0469,940.0586 967.2656,940.0586 Q967.6406,940.0586 967.875,940.3242 Q968.1094,940.5742 968.1094,941.1836 L968.1094,942.6367 Q968.1094,943.2461 967.875,943.5117 Q967.6406,943.7773 967.2656,943.7773 Q966.9219,943.7773 966.7188,943.5742 Q966.5156,943.3867 966.4063,942.8711 Q966.3594,942.5117 966.1719,942.3242 Q965.8438,941.9492 965.2344,941.7305 Q964.625,941.5117 964,941.5117 Q963.2344,941.5117 962.5938,941.8398 Q961.9688,942.168 961.4688,942.918 Q960.9844,943.668 960.9844,944.6992 L960.9844,945.793 Q960.9844,947.0273 961.875,947.8555 Q962.7656,948.668 964.3594,948.668 Q965.2969,948.668 965.9531,948.418 Q966.3438,948.2617 966.7656,947.8242 Q967.0313,947.5586 967.1719,947.4805 Q967.3281,947.4023 967.5313,947.4023 Q967.8594,947.4023 968.1094,947.668 Q968.375,947.918 968.375,948.2617 Q968.375,948.6055 968.0313,949.0117 Q967.5313,949.5898 966.7344,949.918 Q965.6563,950.3711 964.3594,950.3711 Q962.8438,950.3711 961.6406,949.7461 Q960.6563,949.2461 959.9688,948.1836 Q959.2813,947.1055 959.2813,945.8242 L959.2813,944.668 Q959.2813,943.3398 959.8906,942.1992 Q960.5156,941.043 961.6094,940.4336 Q962.7031,939.8086 963.9375,939.8086 Q964.6719,939.8086 965.3125,939.9805 Q965.9688,940.1367 966.5156,940.4961 Z " fill="#000000"/><text fill="#000000" font-family="sans-serif" font-size="14" lengthAdjust="spacing" textLength="37" x="984.25" y="950.418">Order</text><line style="stroke:#181818;stroke-width:0.5;" x1="840.5" x2="1132.5" y1="960.6211" y2="960.6211"/><text fill="#000000" font-family="sans-serif" font-size="14" lengthAdjust="spacing" textLength="147" x="845.5" y="979.7285">-final String clientEmail;</text><text fill="#000000" font-family="sans-serif" font-size="14" lengthAdjust="spacing" textLength="150" x="845.5" y="998.3496">-final Property property;</text><text fill="#000000" font-family="sans-serif" font-size="14" lengthAdjust="spacing" textLength="117" x="845.5" y="1016.9707">-final float amount;</text><text fill="#000000" font-family="sans-serif" font-size="14" lengthAdjust="spacing" textLength="81" x="845.5" y="1035.5918">-String state;</text><line style="stroke:#181818;stroke-width:0.5;" x1="840.5" x2="1132.5" y1="1043.1055" y2="1043.1055"/><text fill="#000000" font-family="sans-serif" font-size="14" lengthAdjust="spacing" textLength="162" x="845.5" y="1062.2129">+Order(String clientEmail,</text><text fill="#000000" font-family="sans-serif" font-size="14" lengthAdjust="spacing" textLength="282" x="845.5" y="1080.834">Property property, float amount, String state)</text><text fill="#000000" font-family="sans-serif" font-size="14" lengthAdjust="spacing" textLength="149" x="845.5" y="1099.4551">+String getClientEmail()</text><text fill="#000000" font-family="sans-serif" font-size="14" lengthAdjust="spacing" textLength="150" x="845.5" y="1118.0762">+Property getProperty()</text><text fill="#000000" font-family="sans-serif" font-size="14" lengthAdjust="spacing" textLength="117" x="845.5" y="1136.6973">+float getAmount()</text><text fill="#000000" font-family="sans-serif" font-size="14" lengthAdjust="spacing" textLength="112" x="845.5" y="1155.3184">+String getState()</text><text fill="#000000" font-family="sans-serif" font-size="14" lengthAdjust="spacing" textLength="142" x="845.5" y="1173.9395">+setState(String state)</text><text fill="#000000" font-family="sans-serif" font-size="14" lengthAdjust="spacing" textLength="108" x="845.5" y="1192.5605">+String toString()</text><text fill="#000000" font-family="sans-serif" font-size="14" lengthAdjust="spacing" textLength="93" x="845.5" y="1211.1816">+Order clone()</text><text fill="#000000" font-family="sans-serif" font-size="14" lengthAdjust="spacing" textLength="158" x="845.5" y="1229.8027">+int compareTo(Order o)</text></g><!--class PropertyAnnouncementRepository--><g id="elem_PropertyAnnouncementRepository"><rect
        fill="#F1F1F1" height="85.2422" id="PropertyAnnouncementRepository" rx="2.5" ry="2.5" style="stroke:#181818;stroke-width:0.5;" width="249" x="1028" y="341.6211"/><ellipse cx="1043" cy="357.6211" fill="#ADD1B2" rx="11" ry="11" style="stroke:#181818;stroke-width:1.0;"/><path d="M1045.7656,353.4961 Q1045.9219,353.2773 1046.1094,353.168 Q1046.2969,353.0586 1046.5156,353.0586 Q1046.8906,353.0586 1047.125,353.3242 Q1047.3594,353.5742 1047.3594,354.1836 L1047.3594,355.6367 Q1047.3594,356.2461 1047.125,356.5117 Q1046.8906,356.7773 1046.5156,356.7773 Q1046.1719,356.7773 1045.9688,356.5742 Q1045.7656,356.3867 1045.6563,355.8711 Q1045.6094,355.5117 1045.4219,355.3242 Q1045.0938,354.9492 1044.4844,354.7305 Q1043.875,354.5117 1043.25,354.5117 Q1042.4844,354.5117 1041.8438,354.8398 Q1041.2188,355.168 1040.7188,355.918 Q1040.2344,356.668 1040.2344,357.6992 L1040.2344,358.793 Q1040.2344,360.0273 1041.125,360.8555 Q1042.0156,361.668 1043.6094,361.668 Q1044.5469,361.668 1045.2031,361.418 Q1045.5938,361.2617 1046.0156,360.8242 Q1046.2813,360.5586 1046.4219,360.4805 Q1046.5781,360.4023 1046.7813,360.4023 Q1047.1094,360.4023 1047.3594,360.668 Q1047.625,360.918 1047.625,361.2617 Q1047.625,361.6055 1047.2813,362.0117 Q1046.7813,362.5898 1045.9844,362.918 Q1044.9063,363.3711 1043.6094,363.3711 Q1042.0938,363.3711 1040.8906,362.7461 Q1039.9063,362.2461 1039.2188,361.1836 Q1038.5313,360.1055 1038.5313,358.8242 L1038.5313,357.668 Q1038.5313,356.3398 1039.1406,355.1992 Q1039.7656,354.043 1040.8594,353.4336 Q1041.9531,352.8086 1043.1875,352.8086 Q1043.9219,352.8086 1044.5625,352.9805 Q1045.2188,353.1367 1045.7656,353.4961 Z " fill="#000000"/><text fill="#000000" font-family="sans-serif" font-size="14" lengthAdjust="spacing" textLength="217" x="1057" y="363.418">PropertyAnnouncementRepository</text><line style="stroke:#181818;stroke-width:0.5;" x1="1029" x2="1276" y1="373.6211" y2="373.6211"/><line style="stroke:#181818;stroke-width:0.5;" x1="1029" x2="1276" y1="381.6211" y2="381.6211"/><text fill="#000000" font-family="sans-serif" font-size="14" lengthAdjust="spacing" textLength="154" x="1034" y="400.7285">+String getAgentEmail();</text><text fill="#000000" font-family="sans-serif" font-size="14" lengthAdjust="spacing" textLength="148" x="1034" y="419.3496">+Request getRequest()</text></g><!--link Client to PlaceOrderUI--><g id="link_Client_PlaceOrderUI"><path
        d="M246.25,154.6211 C280.54,154.6211 318.44,154.6211 354.64,154.6211 " fill="none" id="Client-to-PlaceOrderUI" style="stroke:#181818;stroke-width:1.0;"/><polygon fill="#181818" points="359.97,154.6211,350.97,150.6211,354.97,154.6211,350.97,158.6211,359.97,154.6211" style="stroke:#181818;stroke-width:1.0;"/><text fill="#000000" font-family="sans-serif" font-size="13" lengthAdjust="spacing" textLength="77" x="264.5" y="147.6494">interacts with</text></g><!--link PlaceOrderUI to Repositories--><g id="link_PlaceOrderUI_Repositories"><path
        d="M665.3,154.6211 C715.16,154.6211 770.19,154.6211 818.86,154.6211 " fill="none" id="PlaceOrderUI-to-Repositories" style="stroke:#181818;stroke-width:1.0;"/><polygon fill="#181818" points="824.16,154.6211,815.16,150.6211,819.16,154.6211,815.16,158.6211,824.16,154.6211" style="stroke:#181818;stroke-width:1.0;"/><text fill="#000000" font-family="sans-serif" font-size="13" lengthAdjust="spacing" textLength="104" x="692.75" y="147.6494">request properties</text></g><!--link Repositories to PlaceOrderUI--><g id="link_Repositories_PlaceOrderUI"><path
        d="M824.29,172.1111 C804.33,174.7611 790.25,176.6211 790.25,176.6211 C790.25,176.6211 699.25,176.6211 699.25,176.6211 C699.25,176.6211 687.75,175.2711 670.46,173.2311 " fill="none" id="Repositories-to-PlaceOrderUI" style="stroke:#181818;stroke-width:1.0;"/><polygon fill="#181818" points="665.43,172.6411,673.9002,177.6667,670.3957,173.2261,674.8362,169.7216,665.43,172.6411" style="stroke:#181818;stroke-width:1.0;"/><text fill="#000000" font-family="sans-serif" font-size="13" lengthAdjust="spacing" textLength="89" x="700.25" y="172.6494">send properties</text></g><!--link Repositories to PropertyAnnouncementRepository--><g id="link_Repositories_PropertyAnnouncementRepository"><path
        d="M984.58,188.2211 C1018.28,227.3311 1075.01,293.1711 1113.08,337.3711 " fill="none" id="Repositories-to-PropertyAnnouncementRepository" style="stroke:#181818;stroke-width:1.0;"/><polygon fill="#181818" points="1116.48,341.3111,1113.6423,331.8799,1113.219,337.5209,1107.578,337.0975,1116.48,341.3111" style="stroke:#181818;stroke-width:1.0;"/><text fill="#000000" font-family="sans-serif" font-size="13" lengthAdjust="spacing" textLength="49" x="1089.5" y="307.6494">contains</text></g><!--link Repositories to OrderRepository--><g id="link_Repositories_OrderRepository"><path
        d="M955.68,188.2711 C952.28,323.5111 939.5,832.6211 939.5,832.6211 C939.5,832.6211 813.03,935.4011 722.44,1009.0211 " fill="none" id="Repositories-to-OrderRepository" style="stroke:#181818;stroke-width:1.0;"/><polygon fill="#181818" points="718.42,1012.2911,727.9227,1009.7031,722.2949,1009.1311,722.8668,1003.5033,718.42,1012.2911" style="stroke:#181818;stroke-width:1.0;"/><text fill="#000000" font-family="sans-serif" font-size="13" lengthAdjust="spacing" textLength="49" x="949.5" y="471.6494">contains</text></g><!--link PlaceOrderUI to EditAndSortLists--><g id="link_PlaceOrderUI_EditAndSortLists"><path
        d="M573.04,219.6011 C623.96,273.4111 688.5,341.6211 688.5,341.6211 C688.5,341.6211 706.08,454.1811 720.6,547.1211 " fill="none" id="PlaceOrderUI-EditAndSortLists" style="stroke:#181818;stroke-width:1.0;"/><polygon fill="#181818" points="569.4,215.7511,572.6748,225.0396,572.8344,219.385,578.489,219.5446,569.4,215.7511" style="stroke:#181818;stroke-width:1.0;"/><polygon fill="#181818" points="721.38,552.0911,723.9443,542.5819,720.609,547.1509,716.04,543.8156,721.38,552.0911" style="stroke:#181818;stroke-width:1.0;"/><text fill="#000000" font-family="sans-serif" font-size="13" lengthAdjust="spacing" textLength="83" x="703.5" y="389.6494">sort properties</text></g><!--link PlaceOrderUI to PlaceOrderController--><g id="link_PlaceOrderUI_PlaceOrderController"><path
        d="M452.37,215.7511 C398.03,270.0911 326.5,341.6211 326.5,341.6211 C326.5,341.6211 318.09,420.0811 309.51,500.0811 " fill="none" id="PlaceOrderUI-to-PlaceOrderController" style="stroke:#181818;stroke-width:1.0;"/><polygon fill="#181818" points="308.95,505.3511,313.8791,496.8244,309.4786,500.3791,305.924,495.9786,308.95,505.3511" style="stroke:#181818;stroke-width:1.0;"/><text fill="#000000" font-family="sans-serif" font-size="13" lengthAdjust="spacing" textLength="58" x="351" y="381.1494">request to</text><text fill="#000000" font-family="sans-serif" font-size="13" lengthAdjust="spacing" textLength="105" x="327.5" y="398.4404">sort the properties</text></g><!--link PlaceOrderController to PlaceOrderUI--><g id="link_PlaceOrderController_PlaceOrderUI"><path
        d="M236.91,505.3611 C222.31,461.8311 210.5,426.6211 210.5,426.6211 C210.5,426.6211 210.5,341.6211 210.5,341.6211 C210.5,341.6211 322.81,272.4511 410.45,218.4711 " fill="none" id="PlaceOrderController-to-PlaceOrderUI" style="stroke:#181818;stroke-width:1.0;"/><polygon fill="#181818" points="414.87,215.7511,405.1107,217.0759,410.6156,218.378,409.3136,223.8829,414.87,215.7511" style="stroke:#181818;stroke-width:1.0;"/><text fill="#000000" font-family="sans-serif" font-size="13" lengthAdjust="spacing" textLength="50" x="235" y="381.1494">send the</text><text fill="#000000" font-family="sans-serif" font-size="13" lengthAdjust="spacing" textLength="97" x="211.5" y="398.4404">sorted properties</text></g><!--link PlaceOrderUI to PlaceOrderController--><g id="link_PlaceOrderUI_PlaceOrderController"><path
        d="M494.41,220.9811 C472.22,301.1711 437.5,426.6211 437.5,426.6211 C437.5,426.6211 417.6,459.5311 392.5,501.0511 " fill="none" id="PlaceOrderUI-PlaceOrderController" style="stroke:#181818;stroke-width:1.0;"/><polygon fill="#181818" points="495.86,215.7611,489.6157,223.3775,494.5336,220.5819,497.3291,225.4998,495.86,215.7611" style="stroke:#181818;stroke-width:1.0;"/><polygon fill="#181818" points="389.9,505.3611,397.9826,499.7333,392.4893,501.0838,391.1389,495.5905,389.9,505.3611" style="stroke:#181818;stroke-width:1.0;"/><text fill="#000000" font-family="sans-serif" font-size="13" lengthAdjust="spacing" textLength="93" x="461.5" y="389.6494">choose property</text></g><!--link PlaceOrderUI to PlaceOrderController--><g id="link_PlaceOrderUI_PlaceOrderController"><path
        d="M368.07,217.6811 C313.13,241.2911 263.5,262.6211 263.5,262.6211 C263.5,262.6211 77.5,341.6211 77.5,341.6211 C77.5,341.6211 77.5,426.6211 77.5,426.6211 C77.5,426.6211 106.9,459.8011 143.9,501.5611 " fill="none" id="PlaceOrderUI-PlaceOrderController-1" style="stroke:#181818;stroke-width:1.0;"/><polygon fill="#181818" points="372.72,215.6911,362.872,215.5598,368.1243,217.6607,366.0234,222.9129,372.72,215.6911" style="stroke:#181818;stroke-width:1.0;"/><polygon fill="#181818" points="147.28,505.3611,144.3082,495.9713,143.9653,501.6177,138.3188,501.2748,147.28,505.3611" style="stroke:#181818;stroke-width:1.0;"/><text fill="#000000" font-family="sans-serif" font-size="13" lengthAdjust="spacing" textLength="79" x="100.5" y="381.1494">request, send</text><text fill="#000000" font-family="sans-serif" font-size="13" lengthAdjust="spacing" textLength="123" x="78.5" y="398.4404">and verify the amount</text></g><!--link PlaceOrderUI to PlaceOrderController--><g id="link_PlaceOrderUI_PlaceOrderController"><path
        d="M530.4,220.8911 C545.09,274.5011 563.5,341.6211 563.5,341.6211 C563.5,341.6211 563.5,426.6211 563.5,426.6211 C563.5,426.6211 504.6,478.9111 441.62,534.8311 " fill="none" id="PlaceOrderUI-PlaceOrderController-2" style="stroke:#181818;stroke-width:1.0;"/><polygon fill="#181818" points="528.99,215.7511,527.5209,225.4898,530.3164,220.5719,535.2343,223.3675,528.99,215.7511" style="stroke:#181818;stroke-width:1.0;"/><polygon fill="#181818" points="437.85,538.1811,447.2398,535.2093,441.5933,534.8664,441.9362,529.2199,437.85,538.1811" style="stroke:#181818;stroke-width:1.0;"/><text fill="#000000" font-family="sans-serif" font-size="13" lengthAdjust="spacing" textLength="115" x="564.5" y="381.1494">request to complete</text><text fill="#000000" font-family="sans-serif" font-size="13" lengthAdjust="spacing" textLength="109" x="567.5" y="398.4404">and verify the order</text></g><!--link PlaceOrderController to EditAndSortLists--><g id="link_PlaceOrderController_EditAndSortLists"><path
        d="M442.96,669.1211 C477.92,669.1211 515.53,669.1211 551.83,669.1211 " fill="none" id="PlaceOrderController-EditAndSortLists" style="stroke:#181818;stroke-width:1.0;"/><polygon fill="#181818" points="437.57,669.1211,446.57,673.1211,442.57,669.1211,446.57,665.1211,437.57,669.1211" style="stroke:#181818;stroke-width:1.0;"/><polygon fill="#181818" points="557.17,669.1211,548.17,665.1211,552.17,669.1211,548.17,673.1211,557.17,669.1211" style="stroke:#181818;stroke-width:1.0;"/><text fill="#000000" font-family="sans-serif" font-size="13" lengthAdjust="spacing" textLength="83" x="456" y="662.1494">sort properties</text></g><!--link PlaceOrderController to OrderRepository--><g id="link_PlaceOrderController_OrderRepository"><path
        d="M426.03,832.6611 C476.3,893.4011 530.95,959.4311 571.39,1008.2911 " fill="none" id="PlaceOrderController-to-OrderRepository" style="stroke:#181818;stroke-width:1.0;"/><polygon fill="#181818" points="574.77,1012.3711,572.1228,1002.8847,571.586,1008.516,565.9546,1007.9791,574.77,1012.3711" style="stroke:#181818;stroke-width:1.0;"/><text fill="#000000" font-family="sans-serif" font-size="13" lengthAdjust="spacing" textLength="58" x="486.5" y="877.6494">request to</text><text fill="#000000" font-family="sans-serif" font-size="13" lengthAdjust="spacing" textLength="84" x="473.5" y="894.9404">store the order</text></g><!--link OrderRepository to Order--><g id="link_OrderRepository_Order"><path
        d="M754.33,1083.1211 C780.01,1083.1211 807.42,1083.1211 834.08,1083.1211 " fill="none" id="OrderRepository-to-Order" style="stroke:#181818;stroke-width:1.0;"/><polygon fill="#181818" points="839.4,1083.1211,830.4,1079.1211,834.4,1083.1211,830.4,1087.1211,839.4,1083.1211" style="stroke:#181818;stroke-width:1.0;"/><text fill="#000000" font-family="sans-serif" font-size="13" lengthAdjust="spacing" textLength="49" x="772.25" y="1076.1494">contains</text></g><!--SRC=[hLPDR-Cs4BtpL_0M6si1wJK90XZPNJJ08WwYBDg3WO2cnZORYbH9EeORzBztI54I9TbP1wWlbZWpRsRUV50NzbMeYXbMqb8hpRT6bq2TsG7f91NZhsm3kJj8e0QuOseZKmMxPONU2xMXQoPjAf52WJjKG2ij3_w5N1mHQkCqIQouPDREdJDYjNDmpxNAnJz0BmcvaB1sr6bgn6RhQ25yE48hGfnm6DtF_FAtI_ee6GVA55sO0WpDw9q7f5y5so0y8IGugDM2oizxyaue_hvGPb_dAxrptuLqOEpaXx3kvj7e2emxtDAbgkfd0NP6SywKGW-MJwDvPOHoZRgt7G9KYQmnUWCZreT5vJCveO_kfkJVSUHtMZcZfGGJCyZeMchcADV6SpClzKwv87bvUHda-8paBzOva_3PDFi8ZTrdKVXMQmldMIEjL0U6pgQw1UYHRU3l7TX8pAJHRklIhqdKgYbbuMLGD5-4dXmJnSR5MO2I2Jd3A4xwu0QOWxagdc234O9vWFqnmANgGnu1R5iZs3z1fQrmsXneqnM1co2ynNd3Fni5AwqbuAoyCIaA3ASEe9wSeDX4co9im8KdEscaTVSosMYmeZW6Og3KRp1PhFx2vgGw2VnE2i0QlvCi9gjO2IJpTQzGNk6IUDYLAspqp6ekcCo1xunmX-OqvQXzgxPQmK2ZsXV43yENw7CIQVKEPwd555KmqyVkP1AF7b1raWJ_hH0EwvXZa9ucIzzJqhgMz6XjKz-l7xJxZXltUGiv0YxsE1vBzT76Q9jBUzrlFkxf6Px-46xxPpVjP_hmktbwLXwOm65ku0TJnSVOduARustWIYpG_uZvkzvP-1LULzTsa12ZhUbmn9fXw8ucmu5int0jS4OQWdbelr35wvvyDE1zSReT6ac4j0v7-7gmx-kH7ZizkfnczEWs2y0DrV4C4x_hqDfLq49s9JYqmXeS9N6rZY5pxwazjyt11t4uNJzqooXmpYNERNlc5mdN9VOKFEjcDQLtQenqhXG6ni4ttcYFfd7EDrtcrr7wL5ykNXmVwrQ8oosxxNrqq2iV5HZ6SMFiSKP9JuhQlVwxQkwkvAE0z3Gox-3ZFAwG1EMOK4TCXurzKdUKXWLLf57rn3SUUxGXqGYVJnfbFIVTPqx2WjDB5J3S5exZ96OtduqXiSrE98n-wmZW5ycVIAJ-_cadxtp3oC0iXB5Kk7RZvqYWefxS4TevX8O9aU1W11fkyTFqZ5kdLoKyWmHcgDq091tt7m00]--></g></svg>