<?xml version="1.0" encoding="us-ascii" standalone="no"?><svg xmlns="http://www.w3.org/2000/svg" xmlns:xlink="http://www.w3.org/1999/xlink" contentStyleType="text/css" height="722px" preserveAspectRatio="none" style="width:1190px;height:722px;background:#FFFFFF;" version="1.1" viewBox="0 0 1190 722" width="1190px" zoomAndPan="magnify"><defs/><g><rect fill="#FFFFFF" height="536.9473" style="stroke:#181818;stroke-width:1.0;" width="10" x="36" y="93.6211"/><rect fill="#FFFFFF" height="314.9102" style="stroke:#181818;stroke-width:1.0;" width="10" x="262" y="116.9121"/><rect fill="#FFFFFF" height="73.582" style="stroke:#181818;stroke-width:1.0;" width="10" x="262" y="556.9863"/><rect fill="#FFFFFF" height="31.291" style="stroke:#181818;stroke-width:1.0;" width="10" x="469" y="400.5313"/><rect fill="#FFFFFF" height="93.873" style="stroke:#181818;stroke-width:1.0;" width="10" x="469" y="463.1133"/><rect fill="#FFFFFF" height="31.291" style="stroke:#181818;stroke-width:1.0;" width="10" x="772" y="273.3672"/><rect fill="#FFFFFF" height="31.291" style="stroke:#181818;stroke-width:1.0;" width="10" x="772" y="494.4043"/><rect fill="#FFFFFF" height="93.873" style="stroke:#181818;stroke-width:1.0;" width="10" x="887.5" y="148.2031"/><rect fill="#FFFFFF" height="31.291" style="stroke:#181818;stroke-width:1.0;" width="10" x="1061.5" y="179.4941"/><rect fill="none" height="50.582" style="stroke:#000000;stroke-width:1.5;" width="318" x="10" y="319.6582"/><rect fill="none" height="50.582" style="stroke:#000000;stroke-width:1.5;" width="318" x="10" y="571.9863"/><line style="stroke:#181818;stroke-width:0.5;stroke-dasharray:5.0,5.0;" x1="41" x2="41" y1="83.6211" y2="639.5684"/><line style="stroke:#181818;stroke-width:0.5;stroke-dasharray:5.0,5.0;" x1="267" x2="267" y1="83.6211" y2="639.5684"/><line style="stroke:#181818;stroke-width:0.5;stroke-dasharray:5.0,5.0;" x1="474" x2="474" y1="83.6211" y2="639.5684"/><line style="stroke:#181818;stroke-width:0.5;stroke-dasharray:5.0,5.0;" x1="777" x2="777" y1="83.6211" y2="639.5684"/><line style="stroke:#181818;stroke-width:0.5;stroke-dasharray:5.0,5.0;" x1="892" x2="892" y1="83.6211" y2="639.5684"/><line style="stroke:#181818;stroke-width:0.5;stroke-dasharray:5.0,5.0;" x1="1066" x2="1066" y1="83.6211" y2="639.5684"/><text fill="#000000" font-family="sans-serif" font-size="14" lengthAdjust="spacing" textLength="36" x="20" y="80.1074">Client</text><ellipse cx="41" cy="13.5" fill="#E3E3E3" rx="8" ry="8" style="stroke:#181818;stroke-width:0.5;"/><path d="M41,21.5 L41,48.5 M28,29.5 L54,29.5 M41,48.5 L28,63.5 M41,48.5 L54,63.5 " fill="none" style="stroke:#181818;stroke-width:0.5;"/><text fill="#000000" font-family="sans-serif" font-size="14" lengthAdjust="spacing" textLength="36" x="20" y="653.6758">Client</text><ellipse cx="41" cy="665.6895" fill="#E3E3E3" rx="8" ry="8" style="stroke:#181818;stroke-width:0.5;"/><path d="M41,673.6895 L41,700.6895 M28,681.6895 L54,681.6895 M41,700.6895 L28,715.6895 M41,700.6895 L54,715.6895 " fill="none" style="stroke:#181818;stroke-width:0.5;"/><rect fill="#E3E3E3" height="32.6211" rx="2.5" ry="2.5" style="stroke:#181818;stroke-width:0.5;" width="102" x="216" y="50"/><text fill="#000000" font-family="sans-serif" font-size="14" lengthAdjust="spacing" textLength="88" x="223" y="72.1074">:PlaceOrderUI</text><rect fill="#E3E3E3" height="32.6211" rx="2.5" ry="2.5" style="stroke:#181818;stroke-width:0.5;" width="102" x="216" y="638.5684"/><text fill="#000000" font-family="sans-serif" font-size="14" lengthAdjust="spacing" textLength="88" x="223" y="660.6758">:PlaceOrderUI</text><rect fill="#E3E3E3" height="32.6211" rx="2.5" ry="2.5" style="stroke:#181818;stroke-width:0.5;" width="152" x="398" y="50"/><text fill="#000000" font-family="sans-serif" font-size="14" lengthAdjust="spacing" textLength="138" x="405" y="72.1074">:PlaceOrderController</text><rect fill="#E3E3E3" height="32.6211" rx="2.5" ry="2.5" style="stroke:#181818;stroke-width:0.5;" width="152" x="398" y="638.5684"/><text fill="#000000" font-family="sans-serif" font-size="14" lengthAdjust="spacing" textLength="138" x="405" y="660.6758">:PlaceOrderController</text><rect fill="#E3E3E3" height="32.6211" rx="2.5" ry="2.5" style="stroke:#181818;stroke-width:0.5;" width="118" x="718" y="50"/><text fill="#000000" font-family="sans-serif" font-size="14" lengthAdjust="spacing" textLength="104" x="725" y="72.1074">EditAndSortLists</text><rect fill="#E3E3E3" height="32.6211" rx="2.5" ry="2.5" style="stroke:#181818;stroke-width:0.5;" width="118" x="718" y="638.5684"/><text fill="#000000" font-family="sans-serif" font-size="14" lengthAdjust="spacing" textLength="104" x="725" y="660.6758">EditAndSortLists</text><rect fill="#E3E3E3" height="32.6211" rx="2.5" ry="2.5" style="stroke:#181818;stroke-width:0.5;" width="93" x="846" y="50"/><text fill="#000000" font-family="sans-serif" font-size="14" lengthAdjust="spacing" textLength="79" x="853" y="72.1074">Repositories</text><rect fill="#E3E3E3" height="32.6211" rx="2.5" ry="2.5" style="stroke:#181818;stroke-width:0.5;" width="93" x="846" y="638.5684"/><text fill="#000000" font-family="sans-serif" font-size="14" lengthAdjust="spacing" textLength="79" x="853" y="660.6758">Repositories</text><rect fill="#E3E3E3" height="32.6211" rx="2.5" ry="2.5" style="stroke:#181818;stroke-width:0.5;" width="235" x="949" y="50"/><text fill="#000000" font-family="sans-serif" font-size="14" lengthAdjust="spacing" textLength="217" x="956" y="72.1074">PropertyAnnouncementRepository</text><rect fill="#E3E3E3" height="32.6211" rx="2.5" ry="2.5" style="stroke:#181818;stroke-width:0.5;" width="235" x="949" y="638.5684"/><text fill="#000000" font-family="sans-serif" font-size="14" lengthAdjust="spacing" textLength="217" x="956" y="660.6758">PropertyAnnouncementRepository</text><rect fill="#FFFFFF" height="536.9473" style="stroke:#181818;stroke-width:1.0;" width="10" x="36" y="93.6211"/><rect fill="#FFFFFF" height="314.9102" style="stroke:#181818;stroke-width:1.0;" width="10" x="262" y="116.9121"/><rect fill="#FFFFFF" height="73.582" style="stroke:#181818;stroke-width:1.0;" width="10" x="262" y="556.9863"/><rect fill="#FFFFFF" height="31.291" style="stroke:#181818;stroke-width:1.0;" width="10" x="469" y="400.5313"/><rect fill="#FFFFFF" height="93.873" style="stroke:#181818;stroke-width:1.0;" width="10" x="469" y="463.1133"/><rect fill="#FFFFFF" height="31.291" style="stroke:#181818;stroke-width:1.0;" width="10" x="772" y="273.3672"/><rect fill="#FFFFFF" height="31.291" style="stroke:#181818;stroke-width:1.0;" width="10" x="772" y="494.4043"/><rect fill="#FFFFFF" height="93.873" style="stroke:#181818;stroke-width:1.0;" width="10" x="887.5" y="148.2031"/><rect fill="#FFFFFF" height="31.291" style="stroke:#181818;stroke-width:1.0;" width="10" x="1061.5" y="179.4941"/><polygon fill="#181818" points="250,112.9121,260,116.9121,250,120.9121,254,116.9121" style="stroke:#181818;stroke-width:1.0;"/><line style="stroke:#181818;stroke-width:1.0;" x1="46" x2="256" y1="116.9121" y2="116.9121"/><text fill="#000000" font-family="sans-serif" font-size="13" font-weight="bold" lengthAdjust="spacing" textLength="7" x="53" y="111.6494">1</text><text fill="#000000" font-family="sans-serif" font-size="13" lengthAdjust="spacing" textLength="129" x="64" y="111.6494">asks to place an order</text><polygon fill="#181818" points="875.5,144.2031,885.5,148.2031,875.5,152.2031,879.5,148.2031" style="stroke:#181818;stroke-width:1.0;"/><line style="stroke:#181818;stroke-width:1.0;" x1="272" x2="881.5" y1="148.2031" y2="148.2031"/><text fill="#000000" font-family="sans-serif" font-size="13" font-weight="bold" lengthAdjust="spacing" textLength="7" x="279" y="142.9404">2</text><text fill="#000000" font-family="sans-serif" font-size="13" lengthAdjust="spacing" textLength="104" x="290" y="142.9404">request properties</text><polygon fill="#181818" points="1049.5,175.4941,1059.5,179.4941,1049.5,183.4941,1053.5,179.4941" style="stroke:#181818;stroke-width:1.0;"/><line style="stroke:#181818;stroke-width:1.0;" x1="897.5" x2="1055.5" y1="179.4941" y2="179.4941"/><text fill="#000000" font-family="sans-serif" font-size="13" font-weight="bold" lengthAdjust="spacing" textLength="7" x="904.5" y="174.2314">3</text><text fill="#000000" font-family="sans-serif" font-size="13" lengthAdjust="spacing" textLength="104" x="915.5" y="174.2314">request properties</text><polygon fill="#181818" points="908.5,206.7852,898.5,210.7852,908.5,214.7852,904.5,210.7852" style="stroke:#181818;stroke-width:1.0;"/><line style="stroke:#181818;stroke-width:1.0;stroke-dasharray:2.0,2.0;" x1="902.5" x2="1065.5" y1="210.7852" y2="210.7852"/><text fill="#000000" font-family="sans-serif" font-size="13" font-weight="bold" lengthAdjust="spacing" textLength="7" x="914.5" y="205.5225">4</text><text fill="#000000" font-family="sans-serif" font-size="13" lengthAdjust="spacing" textLength="89" x="925.5" y="205.5225">send properties</text><polygon fill="#181818" points="283,238.0762,273,242.0762,283,246.0762,279,242.0762" style="stroke:#181818;stroke-width:1.0;"/><line style="stroke:#181818;stroke-width:1.0;stroke-dasharray:2.0,2.0;" x1="277" x2="891.5" y1="242.0762" y2="242.0762"/><text fill="#000000" font-family="sans-serif" font-size="13" font-weight="bold" lengthAdjust="spacing" textLength="7" x="289" y="236.8135">5</text><text fill="#000000" font-family="sans-serif" font-size="13" lengthAdjust="spacing" textLength="89" x="300" y="236.8135">send properties</text><polygon fill="#181818" points="760,269.3672,770,273.3672,760,277.3672,764,273.3672" style="stroke:#181818;stroke-width:1.0;"/><line style="stroke:#181818;stroke-width:1.0;" x1="272" x2="766" y1="273.3672" y2="273.3672"/><text fill="#000000" font-family="sans-serif" font-size="13" font-weight="bold" lengthAdjust="spacing" textLength="7" x="279" y="268.1045">6</text><text fill="#000000" font-family="sans-serif" font-size="13" lengthAdjust="spacing" textLength="240" x="290" y="268.1045">sort properties if not from the same owner</text><polygon fill="#181818" points="283,300.6582,273,304.6582,283,308.6582,279,304.6582" style="stroke:#181818;stroke-width:1.0;"/><line style="stroke:#181818;stroke-width:1.0;stroke-dasharray:2.0,2.0;" x1="277" x2="776" y1="304.6582" y2="304.6582"/><text fill="#000000" font-family="sans-serif" font-size="13" font-weight="bold" lengthAdjust="spacing" textLength="7" x="289" y="299.3955">7</text><text fill="#000000" font-family="sans-serif" font-size="13" lengthAdjust="spacing" textLength="151" x="300" y="299.3955">send the sorted properties</text><path d="M10,319.6582 L71,319.6582 L71,328.9492 L61,338.9492 L10,338.9492 L10,319.6582 " fill="#EEEEEE" style="stroke:#000000;stroke-width:1.5;"/><rect fill="none" height="50.582" style="stroke:#000000;stroke-width:1.5;" width="318" x="10" y="319.6582"/><text fill="#000000" font-family="sans-serif" font-size="13" font-weight="bold" lengthAdjust="spacing" textLength="16" x="25" y="334.6865">alt</text><text fill="#000000" font-family="sans-serif" font-size="11" font-weight="bold" lengthAdjust="spacing" textLength="136" x="86" y="333.5283">[if there is no propertys]</text><polygon fill="#181818" points="57,358.2402,47,362.2402,57,366.2402,53,362.2402" style="stroke:#181818;stroke-width:1.0;"/><line style="stroke:#181818;stroke-width:1.0;stroke-dasharray:2.0,2.0;" x1="51" x2="261" y1="362.2402" y2="362.2402"/><text fill="#000000" font-family="sans-serif" font-size="13" font-weight="bold" lengthAdjust="spacing" textLength="7" x="63" y="356.9775">8</text><text fill="#000000" font-family="sans-serif" font-size="13" lengthAdjust="spacing" textLength="174" x="74" y="356.9775">print No properties to be listed</text><polygon fill="#181818" points="457,396.5313,467,400.5313,457,404.5313,461,400.5313" style="stroke:#181818;stroke-width:1.0;"/><line style="stroke:#181818;stroke-width:1.0;" x1="272" x2="463" y1="400.5313" y2="400.5313"/><text fill="#000000" font-family="sans-serif" font-size="13" font-weight="bold" lengthAdjust="spacing" textLength="7" x="279" y="395.2686">9</text><text fill="#000000" font-family="sans-serif" font-size="13" lengthAdjust="spacing" textLength="167" x="290" y="395.2686">request to sort the properties</text><polygon fill="#181818" points="57,427.8223,47,431.8223,57,435.8223,53,431.8223" style="stroke:#181818;stroke-width:1.0;"/><line style="stroke:#181818;stroke-width:1.0;stroke-dasharray:2.0,2.0;" x1="51" x2="473" y1="431.8223" y2="431.8223"/><text fill="#000000" font-family="sans-serif" font-size="13" font-weight="bold" lengthAdjust="spacing" textLength="14" x="63" y="426.5596">10</text><text fill="#000000" font-family="sans-serif" font-size="13" lengthAdjust="spacing" textLength="166" x="81" y="426.5596">request to choose the Filters</text><polygon fill="#181818" points="457,459.1133,467,463.1133,457,467.1133,461,463.1133" style="stroke:#181818;stroke-width:1.0;"/><line style="stroke:#181818;stroke-width:1.0;" x1="46" x2="463" y1="463.1133" y2="463.1133"/><text fill="#000000" font-family="sans-serif" font-size="13" font-weight="bold" lengthAdjust="spacing" textLength="14" x="53" y="457.8506">11</text><text fill="#000000" font-family="sans-serif" font-size="13" lengthAdjust="spacing" textLength="90" x="71" y="457.8506">send the Filters</text><polygon fill="#181818" points="760,490.4043,770,494.4043,760,498.4043,764,494.4043" style="stroke:#181818;stroke-width:1.0;"/><line style="stroke:#181818;stroke-width:1.0;" x1="479" x2="766" y1="494.4043" y2="494.4043"/><text fill="#000000" font-family="sans-serif" font-size="13" font-weight="bold" lengthAdjust="spacing" textLength="14" x="486" y="489.1416">12</text><text fill="#000000" font-family="sans-serif" font-size="13" lengthAdjust="spacing" textLength="256" x="504" y="489.1416">request to sort the properties with the Filters</text><polygon fill="#181818" points="490,521.6953,480,525.6953,490,529.6953,486,525.6953" style="stroke:#181818;stroke-width:1.0;"/><line style="stroke:#181818;stroke-width:1.0;stroke-dasharray:2.0,2.0;" x1="484" x2="776" y1="525.6953" y2="525.6953"/><text fill="#000000" font-family="sans-serif" font-size="13" font-weight="bold" lengthAdjust="spacing" textLength="14" x="496" y="520.4326">13</text><text fill="#000000" font-family="sans-serif" font-size="13" lengthAdjust="spacing" textLength="151" x="514" y="520.4326">send the sorted properties</text><polygon fill="#181818" points="57,552.9863,47,556.9863,57,560.9863,53,556.9863" style="stroke:#181818;stroke-width:1.0;"/><line style="stroke:#181818;stroke-width:1.0;stroke-dasharray:2.0,2.0;" x1="51" x2="473" y1="556.9863" y2="556.9863"/><text fill="#000000" font-family="sans-serif" font-size="13" font-weight="bold" lengthAdjust="spacing" textLength="14" x="63" y="551.7236">14</text><text fill="#000000" font-family="sans-serif" font-size="13" lengthAdjust="spacing" textLength="108" x="81" y="551.7236">print the properties</text><path d="M10,571.9863 L71,571.9863 L71,581.2773 L61,591.2773 L10,591.2773 L10,571.9863 " fill="#EEEEEE" style="stroke:#000000;stroke-width:1.5;"/><rect fill="none" height="50.582" style="stroke:#000000;stroke-width:1.5;" width="318" x="10" y="571.9863"/><text fill="#000000" font-family="sans-serif" font-size="13" font-weight="bold" lengthAdjust="spacing" textLength="16" x="25" y="587.0146">alt</text><text fill="#000000" font-family="sans-serif" font-size="11" font-weight="bold" lengthAdjust="spacing" textLength="136" x="86" y="585.8564">[if there is no propertys]</text><polygon fill="#181818" points="57,610.5684,47,614.5684,57,618.5684,53,614.5684" style="stroke:#181818;stroke-width:1.0;"/><line style="stroke:#181818;stroke-width:1.0;stroke-dasharray:2.0,2.0;" x1="51" x2="261" y1="614.5684" y2="614.5684"/><text fill="#000000" font-family="sans-serif" font-size="13" font-weight="bold" lengthAdjust="spacing" textLength="14" x="63" y="609.3057">15</text><text fill="#000000" font-family="sans-serif" font-size="13" lengthAdjust="spacing" textLength="174" x="81" y="609.3057">print No properties to be listed</text><!--SRC=[dLFHRk8m47ptLwnukIT-e3fLGeXAbT1T1Eq7c6GX5eutjJV7yVUtTaAKD0rjpq-8pCpEhCVXR5ojlQwW8aTvwQb2OD-W2lsNMkTdVS8zNos2nvorEzaX89Iwe8jn9pXg6r0ftJ2vfZgWL-f7QGg48n4VwA_IEPE7nTeQTBm07M2zVL4YmoOtjNOCYuVCwXn_-mBzwtE2l3xF8jRas9Erw5knbzrsZDqKXbUks9FdhGaS4copsezHEwmf6B5ci4NiDcD0vgb6pzULSzIu72kntvEkq74ofM92yqSpfc0AvCWFM3vA2dWGs3a04zGn0MW755CaM4-KkEcFU8GarDr6g1xV6WmCTMj5dFQedYgs-p_Z4MAYP_VvxpIoiKWdz7Evx9G2kc9E9fu2vyKaK2lqYSv8Oo8XeUGEeuJSwq02p14SCHobny0bGj3IPxguRiUJiB494_-Tnsv2D9caP1H-DNVI7O-q7Ds9aaSmGMpUfAvXZ8nzYVDJOMflf7-_Q1XI-dD0i59dBCPKyQe-MbPy5uCAY41QN8prMHtIavf4lNcS2kSbKS0a_MGiex-xfwH-v_ljBNHlg1lNtybmmepZHEdxSdy3S35SVcXzlZ19_zjrUL-LcRssjpzpJNDh72rFVQz__zaz2VqF]--></g></svg>