<?xml version="1.0" encoding="us-ascii" standalone="no"?><svg xmlns="http://www.w3.org/2000/svg" xmlns:xlink="http://www.w3.org/1999/xlink" contentStyleType="text/css" height="242.4px" preserveAspectRatio="none" style="width:434px;height:242px;background:#FFFFFF;" version="1.1" viewBox="0 0 434 242" width="434.4px" zoomAndPan="magnify"><defs/><g><text fill="#000000" font-family="sans-serif" font-size="8.4" font-weight="bold" lengthAdjust="spacing" textLength="205.2" x="115.2" y="18.0645">User Story 013 - System Sequence Diagram (SSD)</text><rect fill="#FFFFFF" height="107.6262" style="stroke:#181818;stroke-width:0.6;" width="6" x="43.8" y="79.9453"/><rect fill="#FFFFFF" height="93.0516" style="stroke:#181818;stroke-width:0.6;" width="6" x="403.2" y="93.9199"/><rect fill="none" height="79.8516" style="stroke:#000000;stroke-width:0.8999999999999999;" width="424.2" x="6" y="102.9199"/><line style="stroke:#181818;stroke-width:0.3;stroke-dasharray:5.0,5.0;" x1="46.8" x2="46.8" y1="73.9453" y2="192.9715"/><line style="stroke:#181818;stroke-width:0.3;stroke-dasharray:5.0,5.0;" x1="406.2" x2="406.2" y1="73.9453" y2="192.9715"/><text fill="#000000" font-family="sans-serif" font-size="8.4" lengthAdjust="spacing" textLength="66" x="12" y="71.8371">Network Manager</text><ellipse cx="46.8" cy="31.8727" fill="#E3E3E3" rx="4.8" ry="4.8" style="stroke:#181818;stroke-width:0.3;"/><path d="M46.8,36.6727 L46.8,52.8727 M39,41.4727 L54.6,41.4727 M46.8,52.8727 L39,61.8727 M46.8,52.8727 L54.6,61.8727 " fill="none" style="stroke:#181818;stroke-width:0.3;"/><text fill="#000000" font-family="sans-serif" font-size="8.4" lengthAdjust="spacing" textLength="66" x="12" y="201.4359">Network Manager</text><ellipse cx="46.8" cy="208.6441" fill="#E3E3E3" rx="4.8" ry="4.8" style="stroke:#181818;stroke-width:0.3;"/><path d="M46.8,213.4441 L46.8,229.6441 M39,218.2441 L54.6,218.2441 M46.8,229.6441 L39,238.6441 M46.8,229.6441 L54.6,238.6441 " fill="none" style="stroke:#181818;stroke-width:0.3;"/><rect fill="#E3E3E3" height="19.5727" rx="1.5" ry="1.5" style="stroke:#181818;stroke-width:0.3;" width="36" x="388.2" y="53.7727"/><text fill="#000000" font-family="sans-serif" font-size="8.4" lengthAdjust="spacing" textLength="27.6" x="392.4" y="67.0371">System</text><rect fill="#E3E3E3" height="19.5727" rx="1.5" ry="1.5" style="stroke:#181818;stroke-width:0.3;" width="36" x="388.2" y="192.3715"/><text fill="#000000" font-family="sans-serif" font-size="8.4" lengthAdjust="spacing" textLength="27.6" x="392.4" y="205.6359">System</text><rect fill="#FFFFFF" height="107.6262" style="stroke:#181818;stroke-width:0.6;" width="6" x="43.8" y="79.9453"/><rect fill="#FFFFFF" height="93.0516" style="stroke:#181818;stroke-width:0.6;" width="6" x="403.2" y="93.9199"/><polygon fill="#181818" points="396,91.5199,402,93.9199,396,96.3199,398.4,93.9199" style="stroke:#181818;stroke-width:0.6;"/><line style="stroke:#181818;stroke-width:0.6;" x1="49.8" x2="399.6" y1="93.9199" y2="93.9199"/><text fill="#000000" font-family="sans-serif" font-size="7.8" font-weight="bold" lengthAdjust="spacing" textLength="4.2" x="54" y="90.7623">1</text><text fill="#000000" font-family="sans-serif" font-size="7.8" lengthAdjust="spacing" textLength="165" x="60.6" y="90.7623">request to see the list of all employees by store</text><path d="M6,102.9199 L42.6,102.9199 L42.6,108.4945 L36.6,114.4945 L6,114.4945 L6,102.9199 " fill="#EEEEEE" style="stroke:#000000;stroke-width:0.8999999999999999;"/><rect fill="none" height="79.8516" style="stroke:#000000;stroke-width:0.8999999999999999;" width="424.2" x="6" y="102.9199"/><text fill="#000000" font-family="sans-serif" font-size="7.8" font-weight="bold" lengthAdjust="spacing" textLength="9.6" x="15" y="111.9369">alt</text><text fill="#000000" font-family="sans-serif" font-size="6.6" font-weight="bold" lengthAdjust="spacing" textLength="60" x="51.6" y="111.242">[if list isn't empty]</text><polygon fill="#181818" points="56.4,146.8184,50.4,149.2184,56.4,151.6184,54,149.2184" style="stroke:#181818;stroke-width:0.6;"/><line style="stroke:#181818;stroke-width:0.6;stroke-dasharray:2.0,2.0;" x1="52.8" x2="402.6" y1="149.2184" y2="149.2184"/><text fill="#000000" font-family="sans-serif" font-size="7.8" font-weight="bold" lengthAdjust="spacing" textLength="4.2" x="60" y="135.6861">2</text><text fill="#000000" font-family="sans-serif" font-size="7.8" lengthAdjust="spacing" textLength="249" x="66.6" y="125.3115">return the list of all registered employees, grouped by stores. Stores are</text><text fill="#000000" font-family="sans-serif" font-size="7.8" lengthAdjust="spacing" textLength="243.6" x="66.6" y="135.6861">sorted in descending order by the number of property listings they own</text><text fill="#000000" font-family="sans-serif" font-size="7.8" lengthAdjust="spacing" textLength="332.4" x="66.6" y="146.0607">(the list must show the exact number). Employees inside a Store must be sorted alphabetically.</text><line style="stroke:#000000;stroke-width:0.6;stroke-dasharray:2.0,2.0;" x1="6" x2="430.2" y1="154.6184" y2="154.6184"/><text fill="#000000" font-family="sans-serif" font-size="6.6" font-weight="bold" lengthAdjust="spacing" textLength="51.6" x="9" y="161.7404">[if list is empty]</text><polygon fill="#181818" points="56.4,175.5715,50.4,177.9715,56.4,180.3715,54,177.9715" style="stroke:#181818;stroke-width:0.6;"/><line style="stroke:#181818;stroke-width:0.6;stroke-dasharray:2.0,2.0;" x1="52.8" x2="402.6" y1="177.9715" y2="177.9715"/><text fill="#000000" font-family="sans-serif" font-size="7.8" font-weight="bold" lengthAdjust="spacing" textLength="4.2" x="60" y="174.8139">3</text><text fill="#000000" font-family="sans-serif" font-size="7.8" lengthAdjust="spacing" textLength="162" x="66.6" y="174.8139">informs the user that the list of stores is empty</text><!--SRC=[RL8zSzim3DtvAt1UajpLllIoPUYKZCsYovO5bc29PufG0IWE_tsXZzXnseL70dXu3m_KOym32lRGS-Qw4-u9J4OAUiuCM1-nfSfA8X2g3NERlXPeXmsVOcxXW4af18lcfQzA0fMn5BZ_-G1Rg8eQzL3Hdv5oJV0KiPtmjrNrT1S2ZiPvxFSaVgyT1viNiXFB4NvZTWMo0LHOOsiek0IBTHmm6smMXhbikSwTuZiQVSU5wpTiVttgU_GXNQ4Q68EI-z4HfEXlFW2c1DGFYGkHmhw0kb2wiAoqc0pYOK55pJSsWQo49RrriclwYTD6oVzm2RN-8g7cGli3Mk5nyD0dl-vcerqH2hrbPJ7FnWmDQKsvcNR3qlYOZfWe5fydaa5u8B4oitgTJla2VCfl-VQifX_zq8vFCve-VDwrnzqEdiz-nAon8S15pOBQ4wnwC0qTxidNvPELNI3_B5zSkh88_kTHp0UMVbO8u_Ixh4ExicnnuzBCPmyDVTlENm00]--></g></svg>