<?xml version="1.0" encoding="us-ascii" standalone="no"?><svg xmlns="http://www.w3.org/2000/svg" xmlns:xlink="http://www.w3.org/1999/xlink" contentStyleType="text/css" height="448px" preserveAspectRatio="none" style="width:420px;height:448px;background:#FFFFFF;" version="1.1" viewBox="0 0 420 448" width="420px" zoomAndPan="magnify"><defs/><g><text fill="#000000" font-family="sans-serif" font-size="14" font-weight="bold" lengthAdjust="spacing" textLength="292" x="63" y="30.1074">User Story 17 - System Sequence Diagram</text><rect fill="#FFFFFF" height="223.3281" style="stroke:#181818;stroke-width:1.0;" width="10" x="58" y="133.2422"/><rect fill="#FFFFFF" height="48.582" style="stroke:#181818;stroke-width:1.0;" width="10" x="379" y="156.5332"/><rect fill="#FFFFFF" height="48.582" style="stroke:#181818;stroke-width:1.0;" width="10" x="379" y="236.4063"/><rect fill="#FFFFFF" height="31.291" style="stroke:#181818;stroke-width:1.0;" width="10" x="379" y="316.2793"/><line style="stroke:#181818;stroke-width:0.5;stroke-dasharray:5.0,5.0;" x1="63" x2="63" y1="123.2422" y2="365.5703"/><line style="stroke:#181818;stroke-width:0.5;stroke-dasharray:5.0,5.0;" x1="384" x2="384" y1="123.2422" y2="365.5703"/><text fill="#000000" font-family="sans-serif" font-size="14" lengthAdjust="spacing" textLength="110" x="5" y="119.7285">Network Manager</text><ellipse cx="63" cy="53.1211" fill="#E2E2F0" rx="8" ry="8" style="stroke:#181818;stroke-width:0.5;"/><path d="M63,61.1211 L63,88.1211 M50,69.1211 L76,69.1211 M63,88.1211 L50,103.1211 M63,88.1211 L76,103.1211 " fill="none" style="stroke:#181818;stroke-width:0.5;"/><text fill="#000000" font-family="sans-serif" font-size="14" lengthAdjust="spacing" textLength="110" x="5" y="379.6777">Network Manager</text><ellipse cx="63" cy="391.6914" fill="#E2E2F0" rx="8" ry="8" style="stroke:#181818;stroke-width:0.5;"/><path d="M63,399.6914 L63,426.6914 M50,407.6914 L76,407.6914 M63,426.6914 L50,441.6914 M63,426.6914 L76,441.6914 " fill="none" style="stroke:#181818;stroke-width:0.5;"/><rect fill="#E2E2F0" height="32.6211" rx="2.5" ry="2.5" style="stroke:#181818;stroke-width:0.5;" width="60" x="354" y="89.6211"/><text fill="#000000" font-family="sans-serif" font-size="14" lengthAdjust="spacing" textLength="46" x="361" y="111.7285">System</text><rect fill="#E2E2F0" height="32.6211" rx="2.5" ry="2.5" style="stroke:#181818;stroke-width:0.5;" width="60" x="354" y="364.5703"/><text fill="#000000" font-family="sans-serif" font-size="14" lengthAdjust="spacing" textLength="46" x="361" y="386.6777">System</text><rect fill="#FFFFFF" height="223.3281" style="stroke:#181818;stroke-width:1.0;" width="10" x="58" y="133.2422"/><rect fill="#FFFFFF" height="48.582" style="stroke:#181818;stroke-width:1.0;" width="10" x="379" y="156.5332"/><rect fill="#FFFFFF" height="48.582" style="stroke:#181818;stroke-width:1.0;" width="10" x="379" y="236.4063"/><rect fill="#FFFFFF" height="31.291" style="stroke:#181818;stroke-width:1.0;" width="10" x="379" y="316.2793"/><polygon fill="#181818" points="367,152.5332,377,156.5332,367,160.5332,371,156.5332" style="stroke:#181818;stroke-width:1.0;"/><line style="stroke:#181818;stroke-width:1.0;" x1="68" x2="373" y1="156.5332" y2="156.5332"/><text fill="#000000" font-family="sans-serif" font-size="13" font-weight="bold" lengthAdjust="spacing" textLength="7" x="75" y="151.2705">1</text><text fill="#000000" font-family="sans-serif" font-size="13" lengthAdjust="spacing" textLength="152" x="86" y="151.2705">asks to list all deals made</text><polygon fill="#181818" points="79,201.1152,69,205.1152,79,209.1152,75,205.1152" style="stroke:#181818;stroke-width:1.0;"/><line style="stroke:#181818;stroke-width:1.0;stroke-dasharray:2.0,2.0;" x1="73" x2="383" y1="205.1152" y2="205.1152"/><text fill="#000000" font-family="sans-serif" font-size="13" font-weight="bold" lengthAdjust="spacing" textLength="7" x="85" y="191.207">2</text><text fill="#000000" font-family="sans-serif" font-size="13" lengthAdjust="spacing" textLength="186" x="96" y="182.5615">asks if the user wants to sort by</text><text fill="#000000" font-family="sans-serif" font-size="13" lengthAdjust="spacing" textLength="276" x="96" y="199.8525">ascending/descending order of a property's area</text><polygon fill="#181818" points="367,232.4063,377,236.4063,367,240.4063,371,236.4063" style="stroke:#181818;stroke-width:1.0;"/><line style="stroke:#181818;stroke-width:1.0;" x1="68" x2="373" y1="236.4063" y2="236.4063"/><text fill="#000000" font-family="sans-serif" font-size="13" font-weight="bold" lengthAdjust="spacing" textLength="7" x="75" y="231.1436">3</text><text fill="#000000" font-family="sans-serif" font-size="13" lengthAdjust="spacing" textLength="88" x="86" y="231.1436">picks an option</text><polygon fill="#181818" points="79,280.9883,69,284.9883,79,288.9883,75,284.9883" style="stroke:#181818;stroke-width:1.0;"/><line style="stroke:#181818;stroke-width:1.0;stroke-dasharray:2.0,2.0;" x1="73" x2="383" y1="284.9883" y2="284.9883"/><text fill="#000000" font-family="sans-serif" font-size="13" font-weight="bold" lengthAdjust="spacing" textLength="7" x="85" y="271.0801">4</text><text fill="#000000" font-family="sans-serif" font-size="13" lengthAdjust="spacing" textLength="219" x="96" y="262.4346">asks what sorting algorithm they want</text><text fill="#000000" font-family="sans-serif" font-size="13" lengthAdjust="spacing" textLength="141" x="96" y="279.7256">to use (bubble or merge)</text><polygon fill="#181818" points="367,312.2793,377,316.2793,367,320.2793,371,316.2793" style="stroke:#181818;stroke-width:1.0;"/><line style="stroke:#181818;stroke-width:1.0;" x1="68" x2="373" y1="316.2793" y2="316.2793"/><text fill="#000000" font-family="sans-serif" font-size="13" font-weight="bold" lengthAdjust="spacing" textLength="7" x="75" y="311.0166">5</text><text fill="#000000" font-family="sans-serif" font-size="13" lengthAdjust="spacing" textLength="88" x="86" y="311.0166">picks an option</text><polygon fill="#181818" points="79,343.5703,69,347.5703,79,351.5703,75,347.5703" style="stroke:#181818;stroke-width:1.0;"/><line style="stroke:#181818;stroke-width:1.0;stroke-dasharray:2.0,2.0;" x1="73" x2="383" y1="347.5703" y2="347.5703"/><text fill="#000000" font-family="sans-serif" font-size="13" font-weight="bold" lengthAdjust="spacing" textLength="7" x="85" y="342.3076">6</text><text fill="#000000" font-family="sans-serif" font-size="13" lengthAdjust="spacing" textLength="164" x="96" y="342.3076">prints the sorted list of deals</text><!--SRC=[lP6zJiH038JxF8LrpK4H8YgaAwXeeJdHNUDaVSdgzW-lmoblZvCiGaJGKD1vL-FHD-Fz89BoeMcImo2ZTtTTz4scjv52HxMns3FwIgmuWjTC34U9FC7z0zHmdBAGXsDHmrDHuoWnZBubhh1JEUnUIAwHB_2C0NlY7M26ybU-geGijhD9CM2tEY-oTPoDx3iARTUgxs-e7yl6GPSl6II2ira0dGD3w39uDFHbL-ohagNM_OrZCR9da85Wd3kuAkHYdICBjDCfOEue61lwnj3d296DYkCP41B7H2pJFWCoOQKeMuBVWYX0ifqIO82OnCRm1_hhWBBGpbpe-iXM1ZydcfOqfw1fD1lSj6FRwgtrQfwufzl_H4ribsArvvcLp7exRN0vtGye7m00]--></g></svg>