<?xml version="1.0" encoding="us-ascii" standalone="no"?><svg xmlns="http://www.w3.org/2000/svg" xmlns:xlink="http://www.w3.org/1999/xlink" contentStyleType="text/css" height="536.9px" preserveAspectRatio="none" style="width:478px;height:536px;background:#FFFFFF;" version="1.1" viewBox="0 0 478 536" width="478.1px" zoomAndPan="magnify"><defs/><g><text fill="#000000" font-family="sans-serif" font-size="9.8" font-weight="bold" lengthAdjust="spacing" textLength="239.4" x="120.4" y="21.0752">User Story 001 - System Sequence Diagram (SSD)</text><rect fill="#FFFFFF" height="379.3084" style="stroke:#181818;stroke-width:0.6999999999999998;" width="7" x="56" y="93.2695"/><rect fill="#FFFFFF" height="379.3084" style="stroke:#181818;stroke-width:0.6999999999999998;" width="7" x="56" y="93.2695"/><rect fill="#FFFFFF" height="21.9037" style="stroke:#181818;stroke-width:0.6999999999999998;" width="7" x="371.7" y="109.5732"/><rect fill="#FFFFFF" height="21.9037" style="stroke:#181818;stroke-width:0.6999999999999998;" width="7" x="371.7" y="153.3807"/><rect fill="#FFFFFF" height="21.9037" style="stroke:#181818;stroke-width:0.6999999999999998;" width="7" x="371.7" y="197.1881"/><rect fill="#FFFFFF" height="46.1111" style="stroke:#181818;stroke-width:0.6999999999999998;" width="7" x="371.7" y="240.9955"/><rect fill="#FFFFFF" height="162.8676" style="stroke:#181818;stroke-width:0.6999999999999998;" width="7" x="371.7" y="309.0104"/><rect fill="none" height="56.6111" style="stroke:#000000;stroke-width:1.0499999999999998;" width="128.1" x="345.8" y="319.5104"/><rect fill="none" height="81.0564" style="stroke:#000000;stroke-width:1.0499999999999998;" width="397.6" x="7" y="385.9215"/><line style="stroke:#181818;stroke-width:0.3499999999999999;stroke-dasharray:5.0,5.0;" x1="56" x2="56" y1="86.2695" y2="478.8779"/><line style="stroke:#181818;stroke-width:0.3499999999999999;stroke-dasharray:5.0,5.0;" x1="375.2" x2="375.2" y1="86.2695" y2="478.8779"/><text fill="#000000" font-family="sans-serif" font-size="9.8" lengthAdjust="spacing" textLength="79.8" x="14" y="83.81">Unregistered User</text><ellipse cx="56" cy="37.1848" fill="#E3E3E3" rx="5.6" ry="5.6" style="stroke:#181818;stroke-width:0.3499999999999999;"/><path d="M56,42.7848 L56,61.6848 M46.9,48.3848 L65.1,48.3848 M56,61.6848 L46.9,72.1848 M56,61.6848 L65.1,72.1848 " fill="none" style="stroke:#181818;stroke-width:0.3499999999999999;"/><text fill="#000000" font-family="sans-serif" font-size="9.8" lengthAdjust="spacing" textLength="79.8" x="14" y="488.7531">Unregistered User</text><ellipse cx="56" cy="497.1627" fill="#E3E3E3" rx="5.6" ry="5.6" style="stroke:#181818;stroke-width:0.3499999999999999;"/><path d="M56,502.7627 L56,521.6627 M46.9,508.3627 L65.1,508.3627 M56,521.6627 L46.9,532.1627 M56,521.6627 L65.1,532.1627 " fill="none" style="stroke:#181818;stroke-width:0.3499999999999999;"/><rect fill="#E3E3E3" height="22.8348" rx="1.75" ry="1.75" style="stroke:#181818;stroke-width:0.3499999999999999;" width="44.8" x="352.8" y="62.7348"/><text fill="#000000" font-family="sans-serif" font-size="9.8" lengthAdjust="spacing" textLength="35" x="357.7" y="78.21">:System</text><rect fill="#E3E3E3" height="22.8348" rx="1.75" ry="1.75" style="stroke:#181818;stroke-width:0.3499999999999999;" width="44.8" x="352.8" y="478.1779"/><text fill="#000000" font-family="sans-serif" font-size="9.8" lengthAdjust="spacing" textLength="35" x="357.7" y="493.6531">:System</text><rect fill="#FFFFFF" height="379.3084" style="stroke:#181818;stroke-width:0.6999999999999998;" width="7" x="56" y="93.2695"/><rect fill="#FFFFFF" height="379.3084" style="stroke:#181818;stroke-width:0.6999999999999998;" width="7" x="56" y="93.2695"/><rect fill="#FFFFFF" height="21.9037" style="stroke:#181818;stroke-width:0.6999999999999998;" width="7" x="371.7" y="109.5732"/><rect fill="#FFFFFF" height="21.9037" style="stroke:#181818;stroke-width:0.6999999999999998;" width="7" x="371.7" y="153.3807"/><rect fill="#FFFFFF" height="21.9037" style="stroke:#181818;stroke-width:0.6999999999999998;" width="7" x="371.7" y="197.1881"/><rect fill="#FFFFFF" height="46.1111" style="stroke:#181818;stroke-width:0.6999999999999998;" width="7" x="371.7" y="240.9955"/><rect fill="#FFFFFF" height="162.8676" style="stroke:#181818;stroke-width:0.6999999999999998;" width="7" x="371.7" y="309.0104"/><polygon fill="#181818" points="363.3,106.7732,370.3,109.5732,363.3,112.3732,366.1,109.5732" style="stroke:#181818;stroke-width:0.6999999999999998;"/><line style="stroke:#181818;stroke-width:0.6999999999999998;" x1="63" x2="367.5" y1="109.5732" y2="109.5732"/><text fill="#000000" font-family="sans-serif" font-size="9.1" font-weight="bold" lengthAdjust="spacing" textLength="4.9" x="67.9" y="105.8894">1</text><text fill="#000000" font-family="sans-serif" font-size="9.1" lengthAdjust="spacing" textLength="130.2" x="75.6" y="105.8894">asks to list registered properties</text><polygon fill="#181818" points="70.7,128.677,63.7,131.477,70.7,134.277,67.9,131.477" style="stroke:#181818;stroke-width:0.6999999999999998;"/><line style="stroke:#181818;stroke-width:0.6999999999999998;stroke-dasharray:2.0,2.0;" x1="66.5" x2="374.5" y1="131.477" y2="131.477"/><text fill="#000000" font-family="sans-serif" font-size="9.1" font-weight="bold" lengthAdjust="spacing" textLength="4.9" x="74.9" y="127.7931">2</text><text fill="#000000" font-family="sans-serif" font-size="9.1" lengthAdjust="spacing" textLength="238.7" x="82.6" y="127.7931">asks if the user only wants to see 'for rent', 'for sale' or both</text><polygon fill="#181818" points="363.3,150.5807,370.3,153.3807,363.3,156.1807,366.1,153.3807" style="stroke:#181818;stroke-width:0.6999999999999998;"/><line style="stroke:#181818;stroke-width:0.6999999999999998;" x1="63" x2="367.5" y1="153.3807" y2="153.3807"/><text fill="#000000" font-family="sans-serif" font-size="9.1" font-weight="bold" lengthAdjust="spacing" textLength="4.9" x="67.9" y="149.6968">3</text><text fill="#000000" font-family="sans-serif" font-size="9.1" lengthAdjust="spacing" textLength="86.1" x="75.6" y="149.6968">answers the question</text><polygon fill="#181818" points="70.7,172.4844,63.7,175.2844,70.7,178.0844,67.9,175.2844" style="stroke:#181818;stroke-width:0.6999999999999998;"/><line style="stroke:#181818;stroke-width:0.6999999999999998;stroke-dasharray:2.0,2.0;" x1="66.5" x2="374.5" y1="175.2844" y2="175.2844"/><text fill="#000000" font-family="sans-serif" font-size="9.1" font-weight="bold" lengthAdjust="spacing" textLength="4.9" x="74.9" y="171.6005">4</text><text fill="#000000" font-family="sans-serif" font-size="9.1" lengthAdjust="spacing" textLength="284.2" x="82.6" y="171.6005">asks if they only want to see lands, apartments, houses or all of those</text><polygon fill="#181818" points="363.3,194.3881,370.3,197.1881,363.3,199.9881,366.1,197.1881" style="stroke:#181818;stroke-width:0.6999999999999998;"/><line style="stroke:#181818;stroke-width:0.6999999999999998;" x1="63" x2="367.5" y1="197.1881" y2="197.1881"/><text fill="#000000" font-family="sans-serif" font-size="9.1" font-weight="bold" lengthAdjust="spacing" textLength="4.9" x="67.9" y="193.5042">5</text><text fill="#000000" font-family="sans-serif" font-size="9.1" lengthAdjust="spacing" textLength="86.1" x="75.6" y="193.5042">answers the question</text><polygon fill="#181818" points="70.7,216.2918,63.7,219.0918,70.7,221.8918,67.9,219.0918" style="stroke:#181818;stroke-width:0.6999999999999998;"/><line style="stroke:#181818;stroke-width:0.6999999999999998;stroke-dasharray:2.0,2.0;" x1="66.5" x2="374.5" y1="219.0918" y2="219.0918"/><text fill="#000000" font-family="sans-serif" font-size="9.1" font-weight="bold" lengthAdjust="spacing" textLength="4.9" x="74.9" y="215.4079">6</text><text fill="#000000" font-family="sans-serif" font-size="9.1" lengthAdjust="spacing" textLength="266" x="82.6" y="215.4079">asks if the user wants to only see properties from a specific agent</text><polygon fill="#181818" points="363.3,238.1955,370.3,240.9955,363.3,243.7955,366.1,240.9955" style="stroke:#181818;stroke-width:0.6999999999999998;"/><line style="stroke:#181818;stroke-width:0.6999999999999998;" x1="63" x2="367.5" y1="240.9955" y2="240.9955"/><text fill="#000000" font-family="sans-serif" font-size="9.1" font-weight="bold" lengthAdjust="spacing" textLength="4.9" x="67.9" y="237.3116">7</text><text fill="#000000" font-family="sans-serif" font-size="9.1" lengthAdjust="spacing" textLength="86.1" x="75.6" y="237.3116">answers the question</text><polygon fill="#181818" points="70.7,284.3066,63.7,287.1066,70.7,289.9066,67.9,287.1066" style="stroke:#181818;stroke-width:0.6999999999999998;"/><line style="stroke:#181818;stroke-width:0.6999999999999998;stroke-dasharray:2.0,2.0;" x1="66.5" x2="374.5" y1="287.1066" y2="287.1066"/><text fill="#000000" font-family="sans-serif" font-size="9.1" font-weight="bold" lengthAdjust="spacing" textLength="4.9" x="74.9" y="271.319">8</text><text fill="#000000" font-family="sans-serif" font-size="9.1" lengthAdjust="spacing" textLength="215.6" x="82.6" y="259.2153">asks if they want to sort by price, area, distance from</text><text fill="#000000" font-family="sans-serif" font-size="9.1" lengthAdjust="spacing" textLength="175" x="82.6" y="271.319">city centre, number of photos (in ascending</text><text fill="#000000" font-family="sans-serif" font-size="9.1" lengthAdjust="spacing" textLength="148.4" x="82.6" y="283.4228">or descending order) or none of them</text><polygon fill="#181818" points="363.3,306.2104,370.3,309.0104,363.3,311.8104,366.1,309.0104" style="stroke:#181818;stroke-width:0.6999999999999998;"/><line style="stroke:#181818;stroke-width:0.6999999999999998;" x1="63" x2="367.5" y1="309.0104" y2="309.0104"/><text fill="#000000" font-family="sans-serif" font-size="9.1" font-weight="bold" lengthAdjust="spacing" textLength="4.9" x="67.9" y="305.3265">9</text><text fill="#000000" font-family="sans-serif" font-size="9.1" lengthAdjust="spacing" textLength="72.1" x="75.6" y="305.3265">gives their answer</text><path d="M345.8,319.5104 L388.5,319.5104 L388.5,326.0141 L381.5,333.0141 L345.8,333.0141 L345.8,319.5104 " fill="#EEEEEE" style="stroke:#000000;stroke-width:1.0499999999999998;"/><rect fill="none" height="56.6111" style="stroke:#000000;stroke-width:1.0499999999999998;" width="128.1" x="345.8" y="319.5104"/><text fill="#000000" font-family="sans-serif" font-size="9.1" font-weight="bold" lengthAdjust="spacing" textLength="11.2" x="356.3" y="330.0302">alt</text><text fill="#000000" font-family="sans-serif" font-size="7.7" font-weight="bold" lengthAdjust="spacing" textLength="71.4" x="399" y="329.2194">[they want to sort]</text><line style="stroke:#181818;stroke-width:0.6999999999999998;stroke-dasharray:2.0,2.0;" x1="378.7" x2="408.1" y1="361.4215" y2="361.4215"/><line style="stroke:#181818;stroke-width:0.6999999999999998;stroke-dasharray:2.0,2.0;" x1="408.1" x2="408.1" y1="361.4215" y2="370.5215"/><line style="stroke:#181818;stroke-width:0.6999999999999998;stroke-dasharray:2.0,2.0;" x1="379.4" x2="408.1" y1="370.5215" y2="370.5215"/><polygon fill="#181818" points="386.4,367.7215,379.4,370.5215,386.4,373.3215,383.6,370.5215" style="stroke:#181818;stroke-width:0.6999999999999998;"/><text fill="#000000" font-family="sans-serif" font-size="9.1" font-weight="bold" lengthAdjust="spacing" textLength="9.8" x="383.6" y="351.6857">10</text><text fill="#000000" font-family="sans-serif" font-size="9.1" lengthAdjust="spacing" textLength="62.3" x="396.2" y="345.6339">sorts according</text><text fill="#000000" font-family="sans-serif" font-size="9.1" lengthAdjust="spacing" textLength="60.9" x="396.2" y="357.7376">to given criteria</text><path d="M7,385.9215 L49.7,385.9215 L49.7,392.4252 L42.7,399.4252 L7,399.4252 L7,385.9215 " fill="#EEEEEE" style="stroke:#000000;stroke-width:1.0499999999999998;"/><rect fill="none" height="81.0564" style="stroke:#000000;stroke-width:1.0499999999999998;" width="397.6" x="7" y="385.9215"/><text fill="#000000" font-family="sans-serif" font-size="9.1" font-weight="bold" lengthAdjust="spacing" textLength="11.2" x="17.5" y="396.4413">alt</text><text fill="#000000" font-family="sans-serif" font-size="7.7" font-weight="bold" lengthAdjust="spacing" textLength="217" x="60.2" y="395.6306">[there aren't any requests with the given specifications]</text><polygon fill="#181818" points="70.7,425.0326,63.7,427.8326,70.7,430.6326,67.9,427.8326" style="stroke:#181818;stroke-width:0.6999999999999998;"/><line style="stroke:#181818;stroke-width:0.6999999999999998;stroke-dasharray:2.0,2.0;" x1="66.5" x2="371" y1="427.8326" y2="427.8326"/><text fill="#000000" font-family="sans-serif" font-size="9.1" font-weight="bold" lengthAdjust="spacing" textLength="9.8" x="74.9" y="418.0969">11</text><text fill="#000000" font-family="sans-serif" font-size="9.1" lengthAdjust="spacing" textLength="178.5" x="87.5" y="412.045">shows message saying that there aren't any</text><text fill="#000000" font-family="sans-serif" font-size="9.1" lengthAdjust="spacing" textLength="170.1" x="87.5" y="424.1487">requests that meet the given requirements</text><line style="stroke:#000000;stroke-width:0.6999999999999998;stroke-dasharray:2.0,2.0;" x1="7" x2="404.6" y1="434.1326" y2="434.1326"/><text fill="#000000" font-family="sans-serif" font-size="7.7" font-weight="bold" lengthAdjust="spacing" textLength="41.3" x="10.5" y="442.4417">[there are]</text><polygon fill="#181818" points="70.7,458.5779,63.7,461.3779,70.7,464.1779,67.9,461.3779" style="stroke:#181818;stroke-width:0.6999999999999998;"/><line style="stroke:#181818;stroke-width:0.6999999999999998;stroke-dasharray:2.0,2.0;" x1="66.5" x2="371" y1="461.3779" y2="461.3779"/><text fill="#000000" font-family="sans-serif" font-size="9.1" font-weight="bold" lengthAdjust="spacing" textLength="9.8" x="74.9" y="457.694">12</text><text fill="#000000" font-family="sans-serif" font-size="9.1" lengthAdjust="spacing" textLength="198.8" x="87.5" y="457.694">shows all property requests to that specific agent</text><!--SRC=[nLIxRkD03Epr5KGQ9u0DvDeKL-KFX7Hkw1Kj4PQukYKTGtz_t9MVv_Y0koQkwELoPZXSIdSi8oOSO8WIGvVYG61fJvMUCoE67RPKszGJ90g6qlRN5xJ39XvOMjXYhrHLnkPNFvGIr1RJ1A-lFs05zQH60zJqQqyI2DuPsrp_NDVlBrM5Uuko7pQKF0vU1qyVagXbhqhK5BmdG2r1vTJ6WKSKWwUt6Rfavx10y2VQhAEgm7-tH_caQ5pzF4bxSu2TWaNedHMkoCSKHt96qbka4ri-F8Ai7A_W7j5u2zOHxFDHb7w2Wsik94e4YwqtcaXiiPnZnPuMuC4cMbTm6_gIxbwxw86I5ZQtM8sZ_AVQwQBq9BH7QNG9c8qVNA_7NVIcD6l5leUOAwFF_viqpmwVpIqDPE6NqS7MtpSWw4Y1jnp0dxNOztbyjZScWytaIZcGMvm8bz3uqyEy9bdqMWBR1C7b9hynhqbsVEoYHOLd5eVsTEDhk1QVI4EdlpwVXj9B7fD4eNbEhl1VscxvaqhJd8uMF6uQUxjlxqyxpiWvgGuKN6NHxWMPJI0azjrZBANUoWrwecoJBCpbJBu_PHOA1xQkp6Q6E0qQyvZqmKYqYmU5WLJzEVZwJTapw_2UPordef8VYEoABISvKLcEMRH_3IyWVwNF2tHyg5Vjk1U5w8i7cmrvCC7V]--></g></svg>