<?xml version="1.0" encoding="us-ascii" standalone="no"?><svg xmlns="http://www.w3.org/2000/svg" xmlns:xlink="http://www.w3.org/1999/xlink" contentStyleType="text/css" height="569.5px" preserveAspectRatio="none" style="width:345px;height:569px;background:#FFFFFF;" version="1.1" viewBox="0 0 345 569" width="345.5px" zoomAndPan="magnify"><defs/><g><text fill="#000000" font-family="sans-serif" font-size="7" font-weight="bold" lengthAdjust="spacing" textLength="171" x="88.125" y="15.0537">User Story 004 - System Sequence Diagram (SSD)</text><rect fill="#FFFFFF" height="457.2871" style="stroke:#181818;stroke-width:0.5;" width="5" x="24.25" y="66.6211"/><rect fill="#FFFFFF" height="15.6455" style="stroke:#181818;stroke-width:0.5;" width="5" x="264.75" y="86.9121"/><rect fill="#FFFFFF" height="15.6455" style="stroke:#181818;stroke-width:0.5;" width="5" x="264.75" y="118.2031"/><rect fill="#FFFFFF" height="46.082" style="stroke:#181818;stroke-width:0.5;" width="5" x="264.75" y="149.4941"/><rect fill="#FFFFFF" height="24.291" style="stroke:#181818;stroke-width:0.5;" width="5" x="264.75" y="211.2217"/><rect fill="#FFFFFF" height="28.791" style="stroke:#181818;stroke-width:0.5;" width="5" x="264.75" y="251.1582"/><rect fill="#FFFFFF" height="41.252" style="stroke:#181818;stroke-width:0.5;" width="5" x="264.75" y="295.5947"/><rect fill="#FFFFFF" height="49.8975" style="stroke:#181818;stroke-width:0.5;" width="5" x="264.75" y="352.4922"/><rect fill="#FFFFFF" height="19.1455" style="stroke:#181818;stroke-width:0.5;" width="5" x="264.75" y="418.0352"/><rect fill="#FFFFFF" height="71.082" style="stroke:#181818;stroke-width:0.5;" width="5" x="264.75" y="452.8262"/><rect fill="none" height="362.9141" style="stroke:#000000;stroke-width:0.75;" width="337.75" x="5" y="156.9941"/><rect fill="none" height="163.377" style="stroke:#000000;stroke-width:0.75;" width="278.25" x="10" y="258.6582"/><rect fill="none" height="40.4365" style="stroke:#000000;stroke-width:0.75;" width="91.5" x="246.25" y="460.3262"/><line style="stroke:#181818;stroke-width:0.25;stroke-dasharray:5.0,5.0;" x1="26.5" x2="26.5" y1="61.6211" y2="528.4082"/><line style="stroke:#181818;stroke-width:0.25;stroke-dasharray:5.0,5.0;" x1="267.25" x2="267.25" y1="61.6211" y2="528.4082"/><text fill="#000000" font-family="sans-serif" font-size="7" lengthAdjust="spacing" textLength="20.5" x="15" y="59.8643">Owner</text><ellipse cx="26.75" cy="26.5605" fill="#E3E3E3" rx="4" ry="4" style="stroke:#181818;stroke-width:0.25;"/><path d="M26.75,30.5605 L26.75,44.0605 M20.25,34.5605 L33.25,34.5605 M26.75,44.0605 L20.25,51.5605 M26.75,44.0605 L33.25,51.5605 " fill="none" style="stroke:#181818;stroke-width:0.25;"/><text fill="#000000" font-family="sans-serif" font-size="7" lengthAdjust="spacing" textLength="20.5" x="15" y="535.4619">Owner</text><ellipse cx="26.75" cy="541.4688" fill="#E3E3E3" rx="4" ry="4" style="stroke:#181818;stroke-width:0.25;"/><path d="M26.75,545.4688 L26.75,558.9688 M20.25,549.4688 L33.25,549.4688 M26.75,558.9688 L20.25,566.4688 M26.75,558.9688 L33.25,566.4688 " fill="none" style="stroke:#181818;stroke-width:0.25;"/><rect fill="#E3E3E3" height="16.3105" rx="1.25" ry="1.25" style="stroke:#181818;stroke-width:0.25;" width="32" x="251.25" y="44.8105"/><text fill="#000000" font-family="sans-serif" font-size="7" lengthAdjust="spacing" textLength="25" x="254.75" y="55.8643">:System</text><rect fill="#E3E3E3" height="16.3105" rx="1.25" ry="1.25" style="stroke:#181818;stroke-width:0.25;" width="32" x="251.25" y="527.9082"/><text fill="#000000" font-family="sans-serif" font-size="7" lengthAdjust="spacing" textLength="25" x="254.75" y="538.9619">:System</text><rect fill="#FFFFFF" height="457.2871" style="stroke:#181818;stroke-width:0.5;" width="5" x="24.25" y="66.6211"/><rect fill="#FFFFFF" height="15.6455" style="stroke:#181818;stroke-width:0.5;" width="5" x="264.75" y="86.9121"/><rect fill="#FFFFFF" height="15.6455" style="stroke:#181818;stroke-width:0.5;" width="5" x="264.75" y="118.2031"/><rect fill="#FFFFFF" height="46.082" style="stroke:#181818;stroke-width:0.5;" width="5" x="264.75" y="149.4941"/><rect fill="#FFFFFF" height="24.291" style="stroke:#181818;stroke-width:0.5;" width="5" x="264.75" y="211.2217"/><rect fill="#FFFFFF" height="28.791" style="stroke:#181818;stroke-width:0.5;" width="5" x="264.75" y="251.1582"/><rect fill="#FFFFFF" height="41.252" style="stroke:#181818;stroke-width:0.5;" width="5" x="264.75" y="295.5947"/><rect fill="#FFFFFF" height="49.8975" style="stroke:#181818;stroke-width:0.5;" width="5" x="264.75" y="352.4922"/><rect fill="#FFFFFF" height="19.1455" style="stroke:#181818;stroke-width:0.5;" width="5" x="264.75" y="418.0352"/><rect fill="#FFFFFF" height="71.082" style="stroke:#181818;stroke-width:0.5;" width="5" x="264.75" y="452.8262"/><polygon fill="#181818" points="258.75,84.9121,263.75,86.9121,258.75,88.9121,260.75,86.9121" style="stroke:#181818;stroke-width:0.5;"/><line style="stroke:#181818;stroke-width:0.5;" x1="29.25" x2="261.75" y1="86.9121" y2="86.9121"/><text fill="#000000" font-family="sans-serif" font-size="6.5" font-weight="bold" lengthAdjust="spacing" textLength="3.5" x="32.75" y="79.958">1</text><text fill="#000000" font-family="sans-serif" font-size="6.5" lengthAdjust="spacing" textLength="165.5" x="38.25" y="75.6353">asks to submit a request for listing a property sale or rent</text><text fill="#000000" font-family="sans-serif" font-size="6.5" lengthAdjust="spacing" textLength="189" x="38.25" y="84.2808">(with description, informal description, technical description, cost)</text><polygon fill="#181818" points="34.75,100.5576,29.75,102.5576,34.75,104.5576,32.75,102.5576" style="stroke:#181818;stroke-width:0.5;"/><line style="stroke:#181818;stroke-width:0.5;stroke-dasharray:2.0,2.0;" x1="31.75" x2="266.75" y1="102.5576" y2="102.5576"/><text fill="#000000" font-family="sans-serif" font-size="6.5" font-weight="bold" lengthAdjust="spacing" textLength="3.5" x="37.75" y="99.9263">2</text><text fill="#000000" font-family="sans-serif" font-size="6.5" lengthAdjust="spacing" textLength="68.5" x="43.25" y="99.9263">lists all available agents</text><polygon fill="#181818" points="258.75,116.2031,263.75,118.2031,258.75,120.2031,260.75,118.2031" style="stroke:#181818;stroke-width:0.5;"/><line style="stroke:#181818;stroke-width:0.5;" x1="29.25" x2="261.75" y1="118.2031" y2="118.2031"/><text fill="#000000" font-family="sans-serif" font-size="6.5" font-weight="bold" lengthAdjust="spacing" textLength="3.5" x="32.75" y="115.5718">3</text><text fill="#000000" font-family="sans-serif" font-size="6.5" lengthAdjust="spacing" textLength="171" x="38.25" y="115.5718">chooses the agent that will the responsible for that property</text><polygon fill="#181818" points="34.75,131.8486,29.75,133.8486,34.75,135.8486,32.75,133.8486" style="stroke:#181818;stroke-width:0.5;"/><line style="stroke:#181818;stroke-width:0.5;stroke-dasharray:2.0,2.0;" x1="31.75" x2="266.75" y1="133.8486" y2="133.8486"/><text fill="#000000" font-family="sans-serif" font-size="6.5" font-weight="bold" lengthAdjust="spacing" textLength="3.5" x="37.75" y="131.2173">4</text><text fill="#000000" font-family="sans-serif" font-size="6.5" lengthAdjust="spacing" textLength="151.5" x="43.25" y="131.2173">asks how many property requests they want to send</text><polygon fill="#181818" points="258.75,147.4941,263.75,149.4941,258.75,151.4941,260.75,149.4941" style="stroke:#181818;stroke-width:0.5;"/><line style="stroke:#181818;stroke-width:0.5;" x1="29.25" x2="261.75" y1="149.4941" y2="149.4941"/><text fill="#000000" font-family="sans-serif" font-size="6.5" font-weight="bold" lengthAdjust="spacing" textLength="3.5" x="32.75" y="146.8628">5</text><text fill="#000000" font-family="sans-serif" font-size="6.5" lengthAdjust="spacing" textLength="104" x="38.25" y="146.8628">answers the question with number x</text><path d="M5,156.9941 L41.5,156.9941 L41.5,161.6396 L36.5,166.6396 L5,166.6396 L5,156.9941 " fill="#EEEEEE" style="stroke:#000000;stroke-width:0.75;"/><rect fill="none" height="362.9141" style="stroke:#000000;stroke-width:0.75;" width="337.75" x="5" y="156.9941"/><text fill="#000000" font-family="sans-serif" font-size="6.5" font-weight="bold" lengthAdjust="spacing" textLength="14" x="12.5" y="164.5083">loop</text><text fill="#000000" font-family="sans-serif" font-size="5.5" font-weight="bold" lengthAdjust="spacing" textLength="24.5" x="49" y="163.9292">[x times]</text><polygon fill="#181818" points="34.75,193.5762,29.75,195.5762,34.75,197.5762,32.75,195.5762" style="stroke:#181818;stroke-width:0.5;"/><line style="stroke:#181818;stroke-width:0.5;stroke-dasharray:2.0,2.0;" x1="31.75" x2="266.75" y1="195.5762" y2="195.5762"/><text fill="#000000" font-family="sans-serif" font-size="6.5" font-weight="bold" lengthAdjust="spacing" textLength="3.5" x="37.75" y="184.2993">6</text><text fill="#000000" font-family="sans-serif" font-size="6.5" lengthAdjust="spacing" textLength="218" x="43.25" y="175.6538">asks for general details about request like p if it is 'for sale' (it would be in &#8364;)</text><text fill="#000000" font-family="sans-serif" font-size="6.5" lengthAdjust="spacing" textLength="185" x="43.25" y="184.2993">or 'for rent' (it would be in &#8364;/month) (select one of those options),</text><text fill="#000000" font-family="sans-serif" font-size="6.5" lengthAdjust="spacing" textLength="207.5" x="43.25" y="192.9448">contract duration if it is 'for rent' and commission value (% or fixed value)</text><polygon fill="#181818" points="258.75,209.2217,263.75,211.2217,258.75,213.2217,260.75,211.2217" style="stroke:#181818;stroke-width:0.5;"/><line style="stroke:#181818;stroke-width:0.5;" x1="29.25" x2="261.75" y1="211.2217" y2="211.2217"/><text fill="#000000" font-family="sans-serif" font-size="6.5" font-weight="bold" lengthAdjust="spacing" textLength="3.5" x="32.75" y="208.5903">7</text><text fill="#000000" font-family="sans-serif" font-size="6.5" lengthAdjust="spacing" textLength="91" x="38.25" y="208.5903">provides the needed information</text><polygon fill="#181818" points="34.75,233.5127,29.75,235.5127,34.75,237.5127,32.75,235.5127" style="stroke:#181818;stroke-width:0.5;"/><line style="stroke:#181818;stroke-width:0.5;stroke-dasharray:2.0,2.0;" x1="31.75" x2="266.75" y1="235.5127" y2="235.5127"/><text fill="#000000" font-family="sans-serif" font-size="6.5" font-weight="bold" lengthAdjust="spacing" textLength="3.5" x="37.75" y="228.5586">8</text><text fill="#000000" font-family="sans-serif" font-size="6.5" lengthAdjust="spacing" textLength="138.5" x="43.25" y="224.2358">asks if they want to publish a request for a land,</text><text fill="#000000" font-family="sans-serif" font-size="6.5" lengthAdjust="spacing" textLength="70.5" x="43.25" y="232.8813">apartment or for a house</text><polygon fill="#181818" points="258.75,249.1582,263.75,251.1582,258.75,253.1582,260.75,251.1582" style="stroke:#181818;stroke-width:0.5;"/><line style="stroke:#181818;stroke-width:0.5;" x1="29.25" x2="261.75" y1="251.1582" y2="251.1582"/><text fill="#000000" font-family="sans-serif" font-size="6.5" font-weight="bold" lengthAdjust="spacing" textLength="3.5" x="32.75" y="248.5269">9</text><text fill="#000000" font-family="sans-serif" font-size="6.5" lengthAdjust="spacing" textLength="87" x="38.25" y="248.5269">selects one of those 3 options</text><path d="M10,258.6582 L40.5,258.6582 L40.5,263.3037 L35.5,268.3037 L10,268.3037 L10,258.6582 " fill="#EEEEEE" style="stroke:#000000;stroke-width:0.75;"/><rect fill="none" height="163.377" style="stroke:#000000;stroke-width:0.75;" width="278.25" x="10" y="258.6582"/><text fill="#000000" font-family="sans-serif" font-size="6.5" font-weight="bold" lengthAdjust="spacing" textLength="8" x="17.5" y="266.1724">alt</text><text fill="#000000" font-family="sans-serif" font-size="5.5" font-weight="bold" lengthAdjust="spacing" textLength="44.5" x="48" y="265.5933">[answer is land]</text><polygon fill="#181818" points="34.75,277.9492,29.75,279.9492,34.75,281.9492,32.75,279.9492" style="stroke:#181818;stroke-width:0.5;"/><line style="stroke:#181818;stroke-width:0.5;stroke-dasharray:2.0,2.0;" x1="31.75" x2="266.75" y1="279.9492" y2="279.9492"/><text fill="#000000" font-family="sans-serif" font-size="6.5" font-weight="bold" lengthAdjust="spacing" textLength="7" x="37.75" y="277.3179">10</text><text fill="#000000" font-family="sans-serif" font-size="6.5" lengthAdjust="spacing" textLength="206.5" x="46.75" y="277.3179">asks the land's area (in m^2), location, distance from city centre (in km)</text><polygon fill="#181818" points="258.75,293.5947,263.75,295.5947,258.75,297.5947,260.75,295.5947" style="stroke:#181818;stroke-width:0.5;"/><line style="stroke:#181818;stroke-width:0.5;" x1="29.25" x2="261.75" y1="295.5947" y2="295.5947"/><text fill="#000000" font-family="sans-serif" font-size="6.5" font-weight="bold" lengthAdjust="spacing" textLength="7" x="32.75" y="292.9634">11</text><text fill="#000000" font-family="sans-serif" font-size="6.5" lengthAdjust="spacing" textLength="126.5" x="41.75" y="292.9634">selects and types the requested information</text><line style="stroke:#000000;stroke-width:0.5;stroke-dasharray:2.0,2.0;" x1="10" x2="288.25" y1="300.0947" y2="300.0947"/><text fill="#000000" font-family="sans-serif" font-size="5.5" font-weight="bold" lengthAdjust="spacing" textLength="61.5" x="12.5" y="306.0298">[answer is apartment]</text><polygon fill="#181818" points="34.75,334.8467,29.75,336.8467,34.75,338.8467,32.75,336.8467" style="stroke:#181818;stroke-width:0.5;"/><line style="stroke:#181818;stroke-width:0.5;stroke-dasharray:2.0,2.0;" x1="31.75" x2="266.75" y1="336.8467" y2="336.8467"/><text fill="#000000" font-family="sans-serif" font-size="6.5" font-weight="bold" lengthAdjust="spacing" textLength="7" x="37.75" y="325.5698">12</text><text fill="#000000" font-family="sans-serif" font-size="6.5" lengthAdjust="spacing" textLength="201.5" x="46.75" y="316.9243">asks the apartment's area (in m^2), location, distance from city centre</text><text fill="#000000" font-family="sans-serif" font-size="6.5" lengthAdjust="spacing" textLength="178" x="46.75" y="325.5698">(in km), number of bedrooms, bathrooms and parking spaces,</text><text fill="#000000" font-family="sans-serif" font-size="6.5" lengthAdjust="spacing" textLength="141" x="46.75" y="334.2153">availability of central heating and air conditioning.</text><polygon fill="#181818" points="258.75,350.4922,263.75,352.4922,258.75,354.4922,260.75,352.4922" style="stroke:#181818;stroke-width:0.5;"/><line style="stroke:#181818;stroke-width:0.5;" x1="29.25" x2="261.75" y1="352.4922" y2="352.4922"/><text fill="#000000" font-family="sans-serif" font-size="6.5" font-weight="bold" lengthAdjust="spacing" textLength="7" x="32.75" y="349.8608">13</text><text fill="#000000" font-family="sans-serif" font-size="6.5" lengthAdjust="spacing" textLength="126.5" x="41.75" y="349.8608">selects and types the requested information</text><line style="stroke:#000000;stroke-width:0.5;stroke-dasharray:2.0,2.0;" x1="10" x2="288.25" y1="356.9922" y2="356.9922"/><text fill="#000000" font-family="sans-serif" font-size="5.5" font-weight="bold" lengthAdjust="spacing" textLength="50.5" x="12.5" y="362.9272">[answer is house]</text><polygon fill="#181818" points="34.75,400.3896,29.75,402.3896,34.75,404.3896,32.75,402.3896" style="stroke:#181818;stroke-width:0.5;"/><line style="stroke:#181818;stroke-width:0.5;stroke-dasharray:2.0,2.0;" x1="31.75" x2="266.75" y1="402.3896" y2="402.3896"/><text fill="#000000" font-family="sans-serif" font-size="6.5" font-weight="bold" lengthAdjust="spacing" textLength="7" x="37.75" y="386.79">14</text><text fill="#000000" font-family="sans-serif" font-size="6.5" lengthAdjust="spacing" textLength="190" x="46.75" y="373.8218">asks the house's area (in m^2), location, distance from city centre</text><text fill="#000000" font-family="sans-serif" font-size="6.5" lengthAdjust="spacing" textLength="178" x="46.75" y="382.4673">(in km), number of bedrooms, bathrooms and parking spaces,</text><text fill="#000000" font-family="sans-serif" font-size="6.5" lengthAdjust="spacing" textLength="130.5" x="46.75" y="391.1128">availability of central heating, air conditioning,</text><text fill="#000000" font-family="sans-serif" font-size="6.5" lengthAdjust="spacing" textLength="203.5" x="46.75" y="399.7583">basement and inhabitable loft and direction of sun exposure (N/S/E/W)</text><polygon fill="#181818" points="258.75,416.0352,263.75,418.0352,258.75,420.0352,260.75,418.0352" style="stroke:#181818;stroke-width:0.5;"/><line style="stroke:#181818;stroke-width:0.5;" x1="29.25" x2="261.75" y1="418.0352" y2="418.0352"/><text fill="#000000" font-family="sans-serif" font-size="6.5" font-weight="bold" lengthAdjust="spacing" textLength="7" x="32.75" y="415.4038">15</text><text fill="#000000" font-family="sans-serif" font-size="6.5" lengthAdjust="spacing" textLength="126.5" x="41.75" y="415.4038">selects and types the requested information</text><polygon fill="#181818" points="34.75,435.1807,29.75,437.1807,34.75,439.1807,32.75,437.1807" style="stroke:#181818;stroke-width:0.5;"/><line style="stroke:#181818;stroke-width:0.5;stroke-dasharray:2.0,2.0;" x1="31.75" x2="266.75" y1="437.1807" y2="437.1807"/><text fill="#000000" font-family="sans-serif" font-size="6.5" font-weight="bold" lengthAdjust="spacing" textLength="7" x="37.75" y="434.5493">16</text><text fill="#000000" font-family="sans-serif" font-size="6.5" lengthAdjust="spacing" textLength="143.5" x="46.75" y="434.5493">asks if the user wants to submit the given request</text><polygon fill="#181818" points="258.75,450.8262,263.75,452.8262,258.75,454.8262,260.75,452.8262" style="stroke:#181818;stroke-width:0.5;"/><line style="stroke:#181818;stroke-width:0.5;" x1="29.25" x2="261.75" y1="452.8262" y2="452.8262"/><text fill="#000000" font-family="sans-serif" font-size="6.5" font-weight="bold" lengthAdjust="spacing" textLength="7" x="32.75" y="450.1948">17</text><text fill="#000000" font-family="sans-serif" font-size="6.5" lengthAdjust="spacing" textLength="79" x="41.75" y="450.1948">gives their answer (Yes/No)</text><path d="M246.25,460.3262 L276.75,460.3262 L276.75,464.9717 L271.75,469.9717 L246.25,469.9717 L246.25,460.3262 " fill="#EEEEEE" style="stroke:#000000;stroke-width:0.75;"/><rect fill="none" height="40.4365" style="stroke:#000000;stroke-width:0.75;" width="91.5" x="246.25" y="460.3262"/><text fill="#000000" font-family="sans-serif" font-size="6.5" font-weight="bold" lengthAdjust="spacing" textLength="8" x="253.75" y="467.8403">alt</text><text fill="#000000" font-family="sans-serif" font-size="5.5" font-weight="bold" lengthAdjust="spacing" textLength="43.5" x="284.25" y="467.2612">[answer is Yes]</text><line style="stroke:#181818;stroke-width:0.5;stroke-dasharray:2.0,2.0;" x1="269.75" x2="290.75" y1="490.2627" y2="490.2627"/><line style="stroke:#181818;stroke-width:0.5;stroke-dasharray:2.0,2.0;" x1="290.75" x2="290.75" y1="490.2627" y2="496.7627"/><line style="stroke:#181818;stroke-width:0.5;stroke-dasharray:2.0,2.0;" x1="270.25" x2="290.75" y1="496.7627" y2="496.7627"/><polygon fill="#181818" points="275.25,494.7627,270.25,496.7627,275.25,498.7627,273.25,496.7627" style="stroke:#181818;stroke-width:0.5;"/><text fill="#000000" font-family="sans-serif" font-size="6.5" font-weight="bold" lengthAdjust="spacing" textLength="7" x="273.25" y="483.3086">18</text><text fill="#000000" font-family="sans-serif" font-size="6.5" lengthAdjust="spacing" textLength="49.5" x="282.25" y="478.9858">registers the new</text><text fill="#000000" font-family="sans-serif" font-size="6.5" lengthAdjust="spacing" textLength="47" x="282.25" y="487.6313">property request</text><polygon fill="#181818" points="34.75,513.9082,29.75,515.9082,34.75,517.9082,32.75,515.9082" style="stroke:#181818;stroke-width:0.5;"/><line style="stroke:#181818;stroke-width:0.5;stroke-dasharray:2.0,2.0;" x1="31.75" x2="264.25" y1="515.9082" y2="515.9082"/><text fill="#000000" font-family="sans-serif" font-size="6.5" font-weight="bold" lengthAdjust="spacing" textLength="7" x="37.75" y="513.2769">19</text><text fill="#000000" font-family="sans-serif" font-size="6.5" lengthAdjust="spacing" textLength="90" x="46.75" y="513.2769">displays operation (un)success</text><!--SRC=[pLRDRjim3BxdAOW2GsCWNOfjfnvswgxT8HY60SK0scPY8RBaYNBSNFSyUwezoKZPyPAsINzEzKcGI8hVnu-KUMrSWm5hgBtpHHLyJH13InCUJneirhYYHTnQWa15HBUo-mPSOUaxurQmHCiqcKGJnVGRKu15z64BbvUVu08MMuvKmu9-jUGAWck3A_MVBXRNsMI2RVIkhNCAiYx43yw-Tex26I13MatalcWAqw2BS7RLnql7_JBvcGr66kmd85zQmiNdtVrNuh1cY1wupMiJ0GMLfCGHbdAfDHmL2q8JV4CXRe5HuCXH81TltRGpiOAIk0YcYSQx6HWddZNQmzr8HULCSN-xy1opbDcOxIvztHool924-yolKaeCQ2tW1et5NDAHYhZ8oQEaHmCzn5rKtZC9z6hmbnL6w8n4rhr0t7Z7HkCh5UbqnyABCauCLxw36jtsFv43poc3BNHQHYq3kV9bGD1nHw47aY8AiP3AqWi8xevdQxrlu0wYgQcdxnG4PK68ef2A68LygKFkspXAnferGGDc2Q8amt2kBYgOSvZAJkTRMq9E8X7u-_jFTklaEDcec1wrcKihnYg3APELRWFlH7nBmIgr0vz4nDdirXLY5WGYb6t0nC1X4lq5w4fHN5qRPZNPe6q9fkzKpajpHsM_aurCFAp1xkHX6QIk6rCEWd94fOGRMa7p6JsFHJp6kbaU2gHfSsc1wbwZ8bW19qIWZeLQvQoWqadbMnb4np6T0DMppeUqVzmH_oGcj76GfnP2CnoFJa5M1jNuNFGL24KN3kgV7xAPwBN0Vd2KCWPG1-TInZGKHXgg4DI1alMwpWvkEbx8qxXLC77R35KT23zIs5D4a3m5UqoCHNes7QF7gpYHETsJCjlD12bcJcNmlkOPv1Yhj4nuvQQrpdoMjuvO9TNFMMCre3Ycc383AiB-SH0dD44wovL6Cv7Dzs-P_iE6U8hwPFtsQ9yzu5nyScHApQyHZQl4FQONqlfblraQ_MlHwISXkNL0TutdLllcPhwOVvb_VsETipSpJez8QFKVIyVa_l-C7gpCXjmkXrSDTusGa0ZbWuwcFuZdDpvxuH3yiVVGtiCqtXPe9PBQlUcEkbjt_w_XkVo8DXkBMvdWuju_ZDFMPTmM8h8-4uqm-GS0]--></g></svg>