<?xml version="1.0" encoding="us-ascii" standalone="no"?><svg xmlns="http://www.w3.org/2000/svg" xmlns:xlink="http://www.w3.org/1999/xlink" contentStyleType="text/css" height="563px" preserveAspectRatio="none" style="width:402px;height:563px;background:#FFFFFF;" version="1.1" viewBox="0 0 402 563" width="402px" zoomAndPan="magnify"><defs/><g><text fill="#000000" font-family="sans-serif" font-size="14" font-weight="bold" lengthAdjust="spacing" textLength="342" x="31.5" y="30.1074">User Story 007 - System Sequence Diagram (SSD)</text><rect fill="#FFFFFF" height="338.4922" style="stroke:#181818;stroke-width:1.0;" width="10" x="85" y="133.2422"/><rect fill="#FFFFFF" height="57.582" style="stroke:#181818;stroke-width:1.0;" width="10" x="339" y="156.5332"/><rect fill="#FFFFFF" height="31.291" style="stroke:#181818;stroke-width:1.0;" width="10" x="339" y="297.2793"/><rect fill="#FFFFFF" height="102.873" style="stroke:#181818;stroke-width:1.0;" width="10" x="339" y="359.8613"/><rect fill="none" height="260.9102" style="stroke:#000000;stroke-width:1.5;" width="386" x="10" y="171.5332"/><rect fill="none" height="50.582" style="stroke:#000000;stroke-width:1.5;" width="366" x="20" y="374.8613"/><line style="stroke:#181818;stroke-width:0.5;stroke-dasharray:5.0,5.0;" x1="90" x2="90" y1="123.2422" y2="480.7344"/><line style="stroke:#181818;stroke-width:0.5;stroke-dasharray:5.0,5.0;" x1="344" x2="344" y1="123.2422" y2="480.7344"/><text fill="#000000" font-family="sans-serif" font-size="14" lengthAdjust="spacing" textLength="114" x="30" y="119.7285">Unregistered User</text><ellipse cx="90" cy="53.1211" fill="#E3E3E3" rx="8" ry="8" style="stroke:#181818;stroke-width:0.5;"/><path d="M90,61.1211 L90,88.1211 M77,69.1211 L103,69.1211 M90,88.1211 L77,103.1211 M90,88.1211 L103,103.1211 " fill="none" style="stroke:#181818;stroke-width:0.5;"/><text fill="#000000" font-family="sans-serif" font-size="14" lengthAdjust="spacing" textLength="114" x="30" y="494.8418">Unregistered User</text><ellipse cx="90" cy="506.8555" fill="#E3E3E3" rx="8" ry="8" style="stroke:#181818;stroke-width:0.5;"/><path d="M90,514.8555 L90,541.8555 M77,522.8555 L103,522.8555 M90,541.8555 L77,556.8555 M90,541.8555 L103,556.8555 " fill="none" style="stroke:#181818;stroke-width:0.5;"/><rect fill="#E3E3E3" height="32.6211" rx="2.5" ry="2.5" style="stroke:#181818;stroke-width:0.5;" width="64" x="312" y="89.6211"/><text fill="#000000" font-family="sans-serif" font-size="14" lengthAdjust="spacing" textLength="50" x="319" y="111.7285">:System</text><rect fill="#E3E3E3" height="32.6211" rx="2.5" ry="2.5" style="stroke:#181818;stroke-width:0.5;" width="64" x="312" y="479.7344"/><text fill="#000000" font-family="sans-serif" font-size="14" lengthAdjust="spacing" textLength="50" x="319" y="501.8418">:System</text><rect fill="#FFFFFF" height="338.4922" style="stroke:#181818;stroke-width:1.0;" width="10" x="85" y="133.2422"/><rect fill="#FFFFFF" height="57.582" style="stroke:#181818;stroke-width:1.0;" width="10" x="339" y="156.5332"/><rect fill="#FFFFFF" height="31.291" style="stroke:#181818;stroke-width:1.0;" width="10" x="339" y="297.2793"/><rect fill="#FFFFFF" height="102.873" style="stroke:#181818;stroke-width:1.0;" width="10" x="339" y="359.8613"/><polygon fill="#181818" points="327,152.5332,337,156.5332,327,160.5332,331,156.5332" style="stroke:#181818;stroke-width:1.0;"/><line style="stroke:#181818;stroke-width:1.0;" x1="95" x2="333" y1="156.5332" y2="156.5332"/><text fill="#000000" font-family="sans-serif" font-size="13" font-weight="bold" lengthAdjust="spacing" textLength="7" x="102" y="151.2705">1</text><text fill="#000000" font-family="sans-serif" font-size="13" lengthAdjust="spacing" textLength="173" x="113" y="151.2705">asks to register in the system</text><path d="M10,171.5332 L83,171.5332 L83,180.8242 L73,190.8242 L10,190.8242 L10,171.5332 " fill="#EEEEEE" style="stroke:#000000;stroke-width:1.5;"/><rect fill="none" height="260.9102" style="stroke:#000000;stroke-width:1.5;" width="386" x="10" y="171.5332"/><text fill="#000000" font-family="sans-serif" font-size="13" font-weight="bold" lengthAdjust="spacing" textLength="28" x="25" y="186.5615">loop</text><text fill="#000000" font-family="sans-serif" font-size="11" font-weight="bold" lengthAdjust="spacing" textLength="53" x="98" y="185.4033">[if invalid]</text><polygon fill="#181818" points="106,210.1152,96,214.1152,106,218.1152,102,214.1152" style="stroke:#181818;stroke-width:1.0;"/><line style="stroke:#181818;stroke-width:1.0;stroke-dasharray:2.0,2.0;" x1="100" x2="343" y1="214.1152" y2="214.1152"/><text fill="#000000" font-family="sans-serif" font-size="13" font-weight="bold" lengthAdjust="spacing" textLength="7" x="112" y="208.8525">2</text><text fill="#000000" font-family="sans-serif" font-size="13" lengthAdjust="spacing" textLength="143" x="123" y="208.8525">requests necessary data</text><polygon fill="#181818" points="327,293.2793,337,297.2793,327,301.2793,331,297.2793" style="stroke:#181818;stroke-width:1.0;"/><line style="stroke:#181818;stroke-width:1.0;" x1="95" x2="333" y1="297.2793" y2="297.2793"/><text fill="#000000" font-family="sans-serif" font-size="13" font-weight="bold" lengthAdjust="spacing" textLength="7" x="102" y="266.0801">3</text><text fill="#000000" font-family="sans-serif" font-size="13" lengthAdjust="spacing" textLength="189" x="113" y="240.1436">types needed information (name,</text><text fill="#000000" font-family="sans-serif" font-size="13" lengthAdjust="spacing" textLength="200" x="117" y="257.4346">citizen's card number, tax number,</text><text fill="#000000" font-family="sans-serif" font-size="13" lengthAdjust="spacing" textLength="214" x="113" y="274.7256">email and contact telephone number)</text><text fill="#000000" font-family="sans-serif" font-size="13" lengthAdjust="spacing" textLength="195" x="117" y="292.0166">and optional information (address)</text><polygon fill="#181818" points="106,324.5703,96,328.5703,106,332.5703,102,328.5703" style="stroke:#181818;stroke-width:1.0;"/><line style="stroke:#181818;stroke-width:1.0;stroke-dasharray:2.0,2.0;" x1="100" x2="343" y1="328.5703" y2="328.5703"/><text fill="#000000" font-family="sans-serif" font-size="13" font-weight="bold" lengthAdjust="spacing" textLength="7" x="112" y="323.3076">4</text><text fill="#000000" font-family="sans-serif" font-size="13" lengthAdjust="spacing" textLength="127" x="123" y="323.3076">shows requested data</text><polygon fill="#181818" points="327,355.8613,337,359.8613,327,363.8613,331,359.8613" style="stroke:#181818;stroke-width:1.0;"/><line style="stroke:#181818;stroke-width:1.0;" x1="95" x2="333" y1="359.8613" y2="359.8613"/><text fill="#000000" font-family="sans-serif" font-size="13" font-weight="bold" lengthAdjust="spacing" textLength="7" x="102" y="354.5986">5</text><text fill="#000000" font-family="sans-serif" font-size="13" lengthAdjust="spacing" textLength="75" x="113" y="354.5986">submits data</text><path d="M20,374.8613 L81,374.8613 L81,384.1523 L71,394.1523 L20,394.1523 L20,374.8613 " fill="#EEEEEE" style="stroke:#000000;stroke-width:1.5;"/><rect fill="none" height="50.582" style="stroke:#000000;stroke-width:1.5;" width="366" x="20" y="374.8613"/><text fill="#000000" font-family="sans-serif" font-size="13" font-weight="bold" lengthAdjust="spacing" textLength="16" x="35" y="389.8896">alt</text><text fill="#000000" font-family="sans-serif" font-size="11" font-weight="bold" lengthAdjust="spacing" textLength="51" x="96" y="388.7314">[if 'false']</text><polygon fill="#181818" points="106,413.4434,96,417.4434,106,421.4434,102,417.4434" style="stroke:#181818;stroke-width:1.0;"/><line style="stroke:#181818;stroke-width:1.0;stroke-dasharray:2.0,2.0;" x1="100" x2="338" y1="417.4434" y2="417.4434"/><text fill="#000000" font-family="sans-serif" font-size="13" font-weight="bold" lengthAdjust="spacing" textLength="7" x="112" y="412.1807">6</text><text fill="#000000" font-family="sans-serif" font-size="13" lengthAdjust="spacing" textLength="191" x="123" y="412.1807">operation unsuccessful, try again</text><polygon fill="#181818" points="106,458.7344,96,462.7344,106,466.7344,102,462.7344" style="stroke:#181818;stroke-width:1.0;"/><line style="stroke:#181818;stroke-width:1.0;stroke-dasharray:2.0,2.0;" x1="100" x2="343" y1="462.7344" y2="462.7344"/><text fill="#000000" font-family="sans-serif" font-size="13" font-weight="bold" lengthAdjust="spacing" textLength="7" x="112" y="457.4717">7</text><text fill="#000000" font-family="sans-serif" font-size="13" lengthAdjust="spacing" textLength="158" x="123" y="457.4717">displays operation success</text><!--SRC=[ZPAnRkD034Jx_Gh2ZMCW1j85S75L_a18buRPfIN2Awwof9BJVNqeoJPoPnVN4TgPnnb2Uc8Pi68FVP4Ikrfw0giZ1Rs-31XFs59ZKoQe50sbpJy5sc4gNomj734hXM1iBdrLgj1OgHCyFJt37ff9ZNfew6CaYGGlZEtiVsYQbrq8E5gHiN-dwdDq7snUfLBBxggK5ju6K9SX-6hZo0EAmUQmefVNTLmG_8csvWXXIRF_TGbnSEb9mGfSDW0BM4UWg_zgF_DoAGFmqLMVc3c5CsVlo0LzS93tKbCGYgIAtZkXOGY9_eNTfh5feDb9oPko74ljqRW8F0ZszFWc4Ddu3ybM8M9Di5xg4Gn_N-SteHuv0qg2MCHyBHXb6heYT5Rj73M_bs76O_vx6QPKFViktFI_KrYxygMNsXxx_zlg-DwpNsfrtEW3PfjllLt-f-sTrMMWkaOUHSSut_iuPh-67nrRP0c19DsYbu-tkCGwP9pq1_TClTVd6m00]--></g></svg>